<?xml version="1.0" encoding="UTF-8" standalone="no"?>
<!DOCTYPE svg PUBLIC "-//W3C//DTD SVG 1.1//EN" "http://www.w3.org/Graphics/SVG/1.1/DTD/svg11.dtd">
<svg width="100%" height="100%" viewBox="0 0 22 22" version="1.1" xmlns="http://www.w3.org/2000/svg" xmlns:xlink="http://www.w3.org/1999/xlink" xml:space="preserve" style="fill-rule:evenodd;clip-rule:evenodd;stroke-linejoin:round;stroke-miterlimit:1.41421;">
    <g transform="matrix(-1,1.22465e-16,-1.22465e-16,-1,21.963,21.9632)">
        <path d="M11.122,-0.018C11.672,-0.008 12.22,0.031 12.764,0.115C13.773,0.271 14.758,0.57 15.679,1.009C16.781,1.535 17.782,2.257 18.655,3.109C19.69,4.12 20.546,5.315 21.119,6.646C21.707,8.013 21.982,9.496 21.981,10.982C21.981,12.423 21.723,13.862 21.17,15.195C20.579,16.619 19.666,17.89 18.554,18.952C17.609,19.854 16.518,20.602 15.317,21.119C13.95,21.707 12.467,21.982 10.982,21.982C9.496,21.982 8.013,21.707 6.646,21.119C5.445,20.602 4.354,19.854 3.41,18.952C2.298,17.89 1.384,16.619 0.793,15.196C0.24,13.862 -0.018,12.423 -0.019,10.982C-0.019,9.496 0.257,8.013 0.845,6.646C1.418,5.315 2.274,4.12 3.309,3.109C4.182,2.257 5.182,1.535 6.285,1.009C7.206,0.57 8.191,0.271 9.199,0.115C9.743,0.031 10.291,-0.008 10.842,-0.018C10.982,-0.018 10.981,-0.018 11.122,-0.018ZM10.867,2.014C10.384,2.023 9.902,2.061 9.425,2.141C8.648,2.273 7.89,2.511 7.179,2.853C6.277,3.286 5.46,3.881 4.745,4.58C3.873,5.433 3.15,6.441 2.677,7.569C2.225,8.648 2.014,9.814 2.014,10.982C2.014,12.114 2.212,13.244 2.636,14.296C3.137,15.535 3.939,16.634 4.913,17.545C5.691,18.272 6.586,18.875 7.569,19.286C8.648,19.738 9.814,19.949 10.982,19.949C12.15,19.949 13.316,19.738 14.395,19.286C15.378,18.875 16.273,18.272 17.051,17.545C18.025,16.634 18.827,15.535 19.328,14.296C19.752,13.244 19.95,12.114 19.95,10.982C19.95,9.814 19.739,8.648 19.287,7.569C18.814,6.441 18.091,5.433 17.219,4.58C16.504,3.881 15.687,3.286 14.785,2.853C14.074,2.511 13.316,2.273 12.539,2.141C12.062,2.061 11.58,2.023 11.097,2.014C10.982,2.014 10.982,2.014 10.867,2.014ZM6.485,10.981L11.34,15.835L12.724,14.451L10.247,11.955L16.005,11.955L16.005,10.007L10.247,10.007L12.724,7.511L11.34,6.128L6.485,10.981Z" style="fill:rgb(247,146,30);"/>
    </g>
</svg>
