<?xml version="1.0" encoding="utf-8"?>
<!-- Generator: Adobe Illustrator 20.0.0, SVG Export Plug-In . SVG Version: 6.00 Build 0)  -->
<svg version="1.1" id="Layer_1" xmlns="http://www.w3.org/2000/svg" xmlns:xlink="http://www.w3.org/1999/xlink" x="0px" y="0px"
	 viewBox="0 0 20 20" style="enable-background:new 0 0 20 20;" xml:space="preserve">
<style type="text/css">
	.st0{fill:#559EF2;}
	.st1{fill:#4D8FDA;}
	.st2{fill:#FFFFFF;}
</style>
<path class="st0" d="M2.908,0.745c-1.121,0-2.033,0.912-2.033,2.033v14.23c0,1.121,0.912,2.033,2.033,2.033h14.231
	c1.121,0,2.033-0.912,2.033-2.033V2.778c0-1.121-0.912-2.033-2.033-2.033H2.908z"/>
<title>Group</title>
<desc>Created with Sketch.</desc>
<path id="Page-1" class="st1" d="M3,0h14c1.657,0,3,1.343,3,3v14c0,1.657-1.343,3-3,3H3c-1.657,0-3-1.343-3-3V3C0,1.343,1.343,0,3,0
	z M3,1C1.897,1,1,1.897,1,3v14c0,1.103,0.897,2,2,2h14c1.103,0,2-0.897,2-2V3c0-1.103-0.897-2-2-2H3z"/>
<g>
	<g>
		<g>
			<polygon class="st2" points="7.458,13.226 16.286,4.399 17.458,5.57 7.458,15.57 2.81,10.922 3.982,9.75 			"/>
		</g>
	</g>
</g>
</svg>
