<?xml version="1.0" encoding="utf-8"?>
<!-- Generator: Adobe Illustrator 20.0.0, SVG Export Plug-In . SVG Version: 6.00 Build 0)  -->
<svg version="1.1" id="Layer_1" xmlns="http://www.w3.org/2000/svg" xmlns:xlink="http://www.w3.org/1999/xlink" x="0px" y="0px"
	 viewBox="0 0 40.3 40.3" style="enable-background:new 0 0 40.3 40.3;" xml:space="preserve">
<style type="text/css">
	.st0{fill:#0076BE;}
</style>
<g>
	<path class="st0" d="M34.9,22.1l4.2,3.3c0.4,0.3,0.5,0.7,0.2,1.3l-4,6.9c-0.2,0.4-0.7,0.6-1.2,0.4l-4.9-2c-1.3,0.9-2.4,1.6-3.3,2
		l-0.7,5.2c-0.2,0.5-0.5,0.8-1,0.8h-8c-0.5,0-0.8-0.3-0.9-0.8L14.6,34c-1.2-0.5-2.3-1.1-3.3-2l-4.9,2c-0.6,0.2-1,0.1-1.2-0.4l-4-6.9
		c-0.3-0.6-0.2-1,0.2-1.3l4.2-3.3c-0.1-0.4-0.1-1.1-0.1-2s0-1.5,0.1-2L1.2,15c-0.4-0.3-0.5-0.7-0.2-1.3l4-6.9
		c0.2-0.4,0.7-0.6,1.2-0.4l4.9,2c1.3-0.9,2.4-1.6,3.3-2l0.7-5.2c0.1-0.6,0.4-0.8,0.9-0.8h8c0.5,0,0.8,0.3,0.9,0.8l0.7,5.2
		c1.2,0.5,2.3,1.1,3.3,2l4.9-2c0.6-0.2,1-0.1,1.2,0.4l4,6.9c0.3,0.6,0.2,1-0.2,1.3l-4.2,3.3c0.1,0.4,0.1,1.1,0.1,2
		S35,21.7,34.9,22.1z M15.2,25.1c1.4,1.4,3,2,4.9,2s3.6-0.7,4.9-2c1.4-1.4,2-3,2-4.9s-0.7-3.6-2-4.9s-3-2-4.9-2s-3.6,0.7-4.9,2
		s-2,3-2,4.9S13.9,23.7,15.2,25.1z"/>
</g>
</svg>
