<?xml version="1.0" encoding="UTF-8" standalone="no"?>
<!DOCTYPE svg PUBLIC "-//W3C//DTD SVG 1.1//EN" "http://www.w3.org/Graphics/SVG/1.1/DTD/svg11.dtd">
<svg width="100%" height="100%" viewBox="0 0 35 35" version="1.1" xmlns="http://www.w3.org/2000/svg" xmlns:xlink="http://www.w3.org/1999/xlink" xml:space="preserve" style="fill-rule:evenodd;clip-rule:evenodd;stroke-linejoin:round;stroke-miterlimit:1.41421;">
    <g transform="matrix(1.37096,0,0,1.37096,-6.07288,-4.75996)">
        <path d="M17.359,3.473L17.524,3.476L17.688,3.481L17.851,3.489L18.014,3.498L18.176,3.509L18.338,3.523L18.499,3.538L18.659,3.555L18.819,3.575L18.979,3.596L19.137,3.619L19.295,3.644L19.453,3.672L19.609,3.701L19.766,3.732L19.921,3.764L20.076,3.799L20.23,3.836L20.383,3.874L20.535,3.914L20.687,3.957L20.838,4.001L20.988,4.046L21.138,4.094L21.287,4.143L21.434,4.194L21.581,4.247L21.728,4.302L21.873,4.358L22.017,4.416L22.161,4.476L22.304,4.537L22.446,4.6L22.586,4.665L22.726,4.732L22.865,4.8L23.003,4.869L23.141,4.941L23.277,5.014L23.412,5.088L23.546,5.164L23.679,5.242L23.811,5.321L23.942,5.402L24.072,5.484L24.201,5.568L24.329,5.653L24.456,5.74L24.582,5.828L24.706,5.918L24.83,6.009L24.952,6.102L25.073,6.196L25.193,6.291L25.312,6.388L25.43,6.487L25.546,6.586L25.661,6.687L25.775,6.79L25.888,6.893L25.999,6.998L26.11,7.105L26.219,7.212L26.326,7.321L26.433,7.432L26.538,7.543L26.641,7.656L26.744,7.77L26.845,7.885L26.944,8.001L27.043,8.119L27.14,8.238L27.235,8.358L27.329,8.479L27.422,8.601L27.513,8.725L27.603,8.849L27.691,8.975L27.778,9.102L27.863,9.23L27.947,9.359L28.029,9.489L28.11,9.62L28.189,9.752L28.267,9.885L28.343,10.019L28.418,10.154L28.49,10.291L28.562,10.428L28.632,10.566L28.7,10.705L28.766,10.845L28.831,10.986L28.894,11.127L28.955,11.27L29.015,11.414L29.073,11.558L29.129,11.703L29.184,11.85L29.237,11.997L29.288,12.145L29.337,12.293L29.385,12.443L29.431,12.593L29.475,12.744L29.517,12.896L29.557,13.048L29.595,13.201L29.632,13.355L29.667,13.51L29.7,13.666L29.731,13.822L29.76,13.978L29.787,14.136L29.812,14.294L29.835,14.453L29.856,14.612L29.876,14.772L29.893,14.932L29.909,15.094L29.922,15.255L29.933,15.417L29.943,15.58L29.95,15.744L29.955,15.907L29.958,16.072L29.959,16.237L29.958,16.402L29.955,16.566L29.95,16.73L29.943,16.893L29.933,17.056L29.922,17.218L29.909,17.38L29.893,17.541L29.876,17.702L29.856,17.862L29.835,18.021L29.812,18.18L29.787,18.338L29.76,18.495L29.731,18.652L29.7,18.808L29.667,18.963L29.632,19.118L29.595,19.272L29.557,19.425L29.517,19.578L29.475,19.73L29.431,19.881L29.385,20.031L29.337,20.18L29.288,20.329L29.237,20.477L29.184,20.624L29.129,20.77L29.073,20.915L29.015,21.06L28.955,21.203L28.894,21.346L28.831,21.488L28.766,21.629L28.7,21.769L28.632,21.908L28.562,22.046L28.49,22.183L28.418,22.319L28.343,22.454L28.267,22.588L28.189,22.722L28.11,22.854L28.029,22.985L27.947,23.115L27.863,23.244L27.778,23.372L27.691,23.498L27.603,23.624L27.513,23.749L27.422,23.872L27.329,23.994L27.235,24.116L27.14,24.236L27.043,24.354L26.944,24.472L26.845,24.588L26.744,24.704L26.641,24.818L26.538,24.93L26.433,25.042L26.326,25.152L26.219,25.261L26.11,25.369L25.999,25.475L25.888,25.58L25.775,25.684L25.661,25.786L25.546,25.887L25.43,25.987L25.312,26.085L25.193,26.182L25.073,26.277L24.952,26.372L24.83,26.464L24.706,26.555L24.582,26.645L24.456,26.733L24.329,26.82L24.201,26.906L24.072,26.989L23.942,27.072L23.811,27.152L23.679,27.232L23.546,27.309L23.412,27.385L23.277,27.46L23.141,27.533L23.003,27.604L22.865,27.674L22.726,27.742L22.586,27.808L22.446,27.873L22.304,27.936L22.161,27.998L22.017,28.057L21.873,28.115L21.728,28.172L21.581,28.226L21.434,28.279L21.287,28.33L21.138,28.38L20.988,28.427L20.838,28.473L20.687,28.517L20.535,28.559L20.383,28.599L20.23,28.638L20.076,28.674L19.921,28.709L19.766,28.742L19.609,28.773L19.453,28.802L19.295,28.829L19.137,28.854L18.979,28.878L18.819,28.899L18.659,28.918L18.499,28.936L18.338,28.951L18.176,28.964L18.014,28.976L17.851,28.985L17.688,28.992L17.524,28.997L17.359,29L17.194,29.001L17.03,29L16.865,28.997L16.701,28.992L16.538,28.985L16.375,28.976L16.213,28.964L16.051,28.951L15.89,28.936L15.73,28.918L15.57,28.899L15.41,28.878L15.252,28.854L15.093,28.829L14.936,28.802L14.779,28.773L14.623,28.742L14.468,28.709L14.313,28.674L14.159,28.638L14.006,28.599L13.853,28.559L13.702,28.517L13.551,28.473L13.4,28.427L13.251,28.38L13.102,28.33L12.954,28.279L12.807,28.226L12.661,28.172L12.516,28.115L12.371,28.057L12.228,27.998L12.085,27.936L11.943,27.873L11.802,27.808L11.662,27.742L11.523,27.674L11.385,27.604L11.248,27.533L11.112,27.46L10.977,27.385L10.843,27.309L10.71,27.232L10.578,27.152L10.446,27.072L10.316,26.989L10.187,26.906L10.06,26.82L9.933,26.733L9.807,26.645L9.683,26.555L9.559,26.464L9.437,26.372L9.316,26.277L9.196,26.182L9.077,26.085L8.959,25.987L8.843,25.887L8.728,25.786L8.614,25.684L8.501,25.58L8.389,25.475L8.279,25.369L8.17,25.261L8.062,25.152L7.956,25.042L7.851,24.93L7.747,24.818L7.645,24.704L7.544,24.588L7.444,24.472L7.346,24.354L7.249,24.236L7.154,24.116L7.06,23.994L6.967,23.872L6.876,23.749L6.786,23.624L6.698,23.498L6.611,23.372L6.526,23.244L6.442,23.115L6.359,22.985L6.279,22.854L6.2,22.722L6.122,22.588L6.046,22.454L5.971,22.319L5.898,22.183L5.827,22.046L5.757,21.908L5.689,21.769L5.623,21.629L5.558,21.488L5.495,21.346L5.433,21.203L5.374,21.06L5.316,20.915L5.259,20.77L5.205,20.624L5.152,20.477L5.101,20.329L5.051,20.18L5.004,20.031L4.958,19.881L4.914,19.73L4.872,19.578L4.832,19.425L4.793,19.272L4.757,19.118L4.722,18.963L4.689,18.808L4.658,18.652L4.629,18.495L4.602,18.338L4.577,18.18L4.554,18.021L4.532,17.862L4.513,17.702L4.496,17.541L4.48,17.38L4.467,17.218L4.456,17.056L4.446,16.893L4.439,16.73L4.434,16.566L4.431,16.402L4.43,16.237L4.431,16.072L4.434,15.907L4.439,15.744L4.446,15.58L4.456,15.417L4.467,15.255L4.48,15.094L4.496,14.932L4.513,14.772L4.532,14.612L4.554,14.453L4.577,14.294L4.602,14.136L4.629,13.978L4.658,13.822L4.689,13.666L4.722,13.51L4.757,13.355L4.793,13.201L4.832,13.048L4.872,12.896L4.914,12.744L4.958,12.593L5.004,12.443L5.051,12.293L5.101,12.145L5.152,11.997L5.205,11.85L5.259,11.703L5.316,11.558L5.374,11.414L5.433,11.27L5.495,11.127L5.558,10.986L5.623,10.845L5.689,10.705L5.757,10.566L5.827,10.428L5.898,10.291L5.971,10.154L6.046,10.019L6.122,9.885L6.2,9.752L6.279,9.62L6.359,9.489L6.442,9.359L6.526,9.23L6.611,9.102L6.698,8.975L6.786,8.849L6.876,8.725L6.967,8.601L7.06,8.479L7.154,8.358L7.249,8.238L7.346,8.119L7.444,8.001L7.544,7.885L7.645,7.77L7.747,7.656L7.851,7.543L7.956,7.432L8.062,7.321L8.17,7.212L8.279,7.105L8.389,6.998L8.501,6.893L8.614,6.79L8.728,6.687L8.843,6.586L8.959,6.487L9.077,6.388L9.196,6.291L9.316,6.196L9.437,6.102L9.559,6.009L9.683,5.918L9.807,5.828L9.933,5.74L10.06,5.653L10.187,5.568L10.316,5.484L10.446,5.402L10.578,5.321L10.71,5.242L10.843,5.164L10.977,5.088L11.112,5.014L11.248,4.941L11.385,4.869L11.523,4.8L11.662,4.732L11.802,4.665L11.943,4.6L12.085,4.537L12.228,4.476L12.371,4.416L12.516,4.358L12.661,4.302L12.807,4.247L12.954,4.194L13.102,4.143L13.251,4.094L13.4,4.046L13.551,4.001L13.702,3.957L13.853,3.914L14.006,3.874L14.159,3.836L14.313,3.799L14.468,3.764L14.623,3.732L14.779,3.701L14.936,3.672L15.093,3.644L15.252,3.619L15.41,3.596L15.57,3.575L15.73,3.555L15.89,3.538L16.051,3.523L16.213,3.509L16.375,3.498L16.538,3.489L16.701,3.481L16.865,3.476L17.03,3.473L17.194,3.472L17.359,3.473ZM17.053,5.296L16.911,5.299L16.771,5.304L16.63,5.31L16.491,5.318L16.351,5.328L16.213,5.339L16.075,5.352L15.937,5.367L15.8,5.384L15.663,5.402L15.527,5.422L15.392,5.443L15.257,5.467L15.123,5.491L14.989,5.518L14.856,5.546L14.724,5.576L14.592,5.607L14.461,5.64L14.33,5.675L14.2,5.711L14.071,5.748L13.942,5.787L13.814,5.828L13.687,5.87L13.561,5.914L13.435,5.959L13.31,6.006L13.185,6.054L13.062,6.104L12.939,6.155L12.816,6.208L12.695,6.262L12.574,6.317L12.454,6.374L12.335,6.432L12.217,6.492L12.1,6.553L11.983,6.616L11.867,6.68L11.752,6.745L11.638,6.811L11.525,6.879L11.412,6.949L11.301,7.019L11.19,7.091L11.081,7.164L10.972,7.239L10.864,7.314L10.757,7.391L10.651,7.469L10.546,7.549L10.443,7.63L10.34,7.712L10.238,7.795L10.137,7.879L10.037,7.965L9.938,8.051L9.84,8.139L9.743,8.228L9.648,8.318L9.553,8.41L9.46,8.502L9.367,8.595L9.276,8.69L9.186,8.786L9.097,8.882L9.009,8.98L8.922,9.079L8.837,9.179L8.752,9.28L8.669,9.382L8.587,9.485L8.507,9.589L8.427,9.694L8.349,9.8L8.272,9.906L8.196,10.014L8.122,10.123L8.049,10.233L7.977,10.343L7.906,10.455L7.837,10.567L7.769,10.68L7.703,10.794L7.637,10.909L7.573,11.025L7.511,11.142L7.45,11.259L7.39,11.378L7.332,11.497L7.275,11.617L7.219,11.737L7.165,11.859L7.113,11.981L7.062,12.104L7.012,12.228L6.964,12.352L6.917,12.477L6.872,12.603L6.828,12.729L6.786,12.857L6.745,12.985L6.706,13.113L6.668,13.243L6.632,13.372L6.598,13.503L6.565,13.634L6.534,13.766L6.504,13.898L6.476,14.031L6.449,14.165L6.424,14.299L6.401,14.434L6.379,14.57L6.36,14.706L6.341,14.842L6.325,14.979L6.31,15.117L6.297,15.255L6.285,15.394L6.275,15.533L6.267,15.673L6.261,15.813L6.257,15.954L6.254,16.095L6.253,16.237L6.254,16.378L6.257,16.52L6.261,16.66L6.267,16.801L6.275,16.94L6.285,17.08L6.297,17.218L6.31,17.357L6.325,17.494L6.341,17.631L6.36,17.768L6.379,17.904L6.401,18.039L6.424,18.174L6.449,18.308L6.476,18.442L6.504,18.575L6.534,18.707L6.565,18.839L6.598,18.97L6.632,19.101L6.668,19.231L6.706,19.36L6.745,19.489L6.786,19.617L6.828,19.744L6.872,19.87L6.917,19.996L6.964,20.121L7.012,20.246L7.062,20.37L7.113,20.493L7.165,20.615L7.219,20.736L7.275,20.857L7.332,20.977L7.39,21.096L7.45,21.214L7.511,21.332L7.573,21.448L7.637,21.564L7.703,21.679L7.769,21.793L7.837,21.906L7.906,22.019L7.977,22.13L8.049,22.241L8.122,22.35L8.196,22.459L8.272,22.567L8.349,22.674L8.427,22.78L8.507,22.885L8.587,22.989L8.669,23.092L8.752,23.193L8.837,23.294L8.922,23.394L9.009,23.493L9.097,23.591L9.186,23.688L9.276,23.783L9.367,23.878L9.46,23.972L9.553,24.064L9.648,24.155L9.743,24.245L9.84,24.334L9.938,24.422L10.037,24.509L10.137,24.594L10.238,24.679L10.34,24.762L10.443,24.844L10.546,24.924L10.651,25.004L10.757,25.082L10.864,25.159L10.972,25.235L11.081,25.309L11.19,25.382L11.301,25.454L11.412,25.525L11.525,25.594L11.638,25.662L11.752,25.729L11.867,25.794L11.983,25.858L12.1,25.92L12.217,25.981L12.335,26.041L12.454,26.099L12.574,26.156L12.695,26.212L12.816,26.266L12.939,26.318L13.062,26.37L13.185,26.419L13.31,26.467L13.435,26.514L13.561,26.559L13.687,26.603L13.814,26.645L13.942,26.686L14.071,26.725L14.2,26.763L14.33,26.799L14.461,26.833L14.592,26.866L14.724,26.898L14.856,26.927L14.989,26.955L15.123,26.982L15.257,27.007L15.392,27.03L15.527,27.052L15.663,27.072L15.8,27.09L15.937,27.106L16.075,27.121L16.213,27.134L16.351,27.146L16.491,27.156L16.63,27.164L16.771,27.17L16.911,27.174L17.053,27.177L17.194,27.178L17.336,27.177L17.477,27.174L17.618,27.17L17.758,27.164L17.898,27.156L18.037,27.146L18.176,27.134L18.314,27.121L18.452,27.106L18.589,27.09L18.726,27.072L18.861,27.052L18.997,27.03L19.132,27.007L19.266,26.982L19.4,26.955L19.533,26.927L19.665,26.898L19.797,26.866L19.928,26.833L20.059,26.799L20.189,26.763L20.318,26.725L20.446,26.686L20.574,26.645L20.702,26.603L20.828,26.559L20.954,26.514L21.079,26.467L21.204,26.419L21.327,26.37L21.45,26.318L21.572,26.266L21.694,26.212L21.815,26.156L21.934,26.099L22.053,26.041L22.172,25.981L22.289,25.92L22.406,25.858L22.522,25.794L22.637,25.729L22.751,25.662L22.864,25.594L22.976,25.525L23.088,25.454L23.198,25.382L23.308,25.309L23.417,25.235L23.525,25.159L23.632,25.082L23.737,25.004L23.842,24.924L23.946,24.844L24.049,24.762L24.151,24.679L24.252,24.594L24.352,24.509L24.451,24.422L24.549,24.334L24.645,24.245L24.741,24.155L24.836,24.064L24.929,23.972L25.022,23.878L25.113,23.783L25.203,23.688L25.292,23.591L25.38,23.493L25.467,23.394L25.552,23.294L25.636,23.193L25.72,23.092L25.801,22.989L25.882,22.885L25.962,22.78L26.04,22.674L26.117,22.567L26.193,22.459L26.267,22.35L26.34,22.241L26.412,22.13L26.483,22.019L26.552,21.906L26.62,21.793L26.686,21.679L26.751,21.564L26.815,21.448L26.878,21.332L26.939,21.214L26.999,21.096L27.057,20.977L27.114,20.857L27.169,20.736L27.223,20.615L27.276,20.493L27.327,20.37L27.377,20.246L27.425,20.121L27.472,19.996L27.517,19.87L27.561,19.744L27.603,19.617L27.644,19.489L27.683,19.36L27.72,19.231L27.757,19.101L27.791,18.97L27.824,18.839L27.855,18.707L27.885,18.575L27.913,18.442L27.94,18.308L27.965,18.174L27.988,18.039L28.009,17.904L28.029,17.768L28.048,17.631L28.064,17.494L28.079,17.357L28.092,17.218L28.104,17.08L28.113,16.94L28.121,16.801L28.128,16.66L28.132,16.52L28.135,16.378L28.136,16.237L28.135,16.095L28.132,15.954L28.128,15.813L28.121,15.673L28.113,15.533L28.104,15.394L28.092,15.255L28.079,15.117L28.064,14.979L28.048,14.842L28.029,14.706L28.009,14.57L27.988,14.434L27.965,14.299L27.94,14.165L27.913,14.032L27.885,13.898L27.855,13.766L27.824,13.634L27.791,13.503L27.757,13.372L27.72,13.243L27.683,13.113L27.644,12.985L27.603,12.857L27.561,12.729L27.517,12.603L27.472,12.477L27.425,12.352L27.377,12.228L27.327,12.104L27.276,11.981L27.223,11.859L27.169,11.737L27.114,11.617L27.057,11.497L26.999,11.378L26.939,11.259L26.878,11.142L26.815,11.025L26.751,10.909L26.686,10.794L26.62,10.68L26.552,10.567L26.483,10.455L26.412,10.343L26.34,10.233L26.267,10.123L26.193,10.014L26.117,9.906L26.04,9.8L25.962,9.694L25.882,9.589L25.801,9.485L25.72,9.382L25.636,9.28L25.552,9.179L25.467,9.079L25.38,8.98L25.292,8.882L25.203,8.786L25.113,8.69L25.022,8.595L24.929,8.502L24.836,8.41L24.741,8.318L24.645,8.228L24.549,8.139L24.451,8.051L24.352,7.965L24.252,7.879L24.151,7.795L24.049,7.712L23.946,7.63L23.842,7.549L23.737,7.469L23.631,7.391L23.525,7.314L23.417,7.239L23.308,7.164L23.198,7.091L23.088,7.019L22.976,6.949L22.864,6.879L22.751,6.811L22.637,6.745L22.522,6.68L22.406,6.616L22.289,6.553L22.172,6.492L22.053,6.432L21.934,6.374L21.815,6.317L21.694,6.262L21.572,6.208L21.45,6.155L21.327,6.104L21.204,6.054L21.079,6.006L20.954,5.959L20.828,5.914L20.702,5.87L20.574,5.828L20.446,5.787L20.318,5.748L20.189,5.711L20.059,5.675L19.928,5.64L19.797,5.607L19.665,5.576L19.533,5.546L19.4,5.518L19.266,5.491L19.132,5.467L18.997,5.443L18.861,5.422L18.726,5.402L18.589,5.384L18.452,5.367L18.314,5.352L18.176,5.339L18.037,5.328L17.898,5.318L17.758,5.31L17.618,5.304L17.477,5.299L17.336,5.296L17.194,5.296L17.053,5.296Z" style="fill:rgb(57,96,122);"/>
    </g>
    <g transform="matrix(1.70331,0,0,1.70331,-42.3374,-29.6495)">
        <path d="M38.13,30L39.63,30L39.63,33L30.63,33L30.63,30L32.13,30L32.13,31.5L38.13,31.5L38.13,30ZM35.13,21.75L38.88,25.5L36.61,25.5L36.61,30L33.61,30L33.61,25.5L31.38,25.5L35.13,21.75Z" style="fill:rgb(57,96,122);fill-rule:nonzero;"/>
    </g>
</svg>
