<?xml version="1.0" encoding="utf-8"?>
<!-- Generator: Adobe Illustrator 20.0.0, SVG Export Plug-In . SVG Version: 6.00 Build 0)  -->
<svg version="1.1" id="Layer_1" xmlns="http://www.w3.org/2000/svg" xmlns:xlink="http://www.w3.org/1999/xlink" x="0px" y="0px"
	 viewBox="0 0 40.32 40.32" style="enable-background:new 0 0 40.32 40.32;" xml:space="preserve">
<style type="text/css">
	.st0{fill:#0076BE;}
</style>
<g>
	<path class="st0" d="M36.347,3.925c1.073,0,2.003,0.41,2.792,1.23s1.183,1.767,1.183,2.839v24.231c0,1.073-0.394,2.019-1.183,2.839
		s-1.72,1.23-2.792,1.23H3.975c-1.073,0-2.003-0.41-2.792-1.23S0,33.298,0,32.225V7.995c0-1.073,0.394-2.019,1.183-2.84
		s1.72-1.23,2.792-1.23C3.975,3.925,36.347,3.925,36.347,3.925z M20.161,18.122L36.347,7.995H3.975L20.161,18.122z M36.347,32.225
		v-20.16L20.161,22.097L3.975,12.065v20.16H36.347z"/>
</g>
</svg>
