<?xml version="1.0" encoding="utf-8"?>
<!-- Generator: Adobe Illustrator 16.0.0, SVG Export Plug-In . SVG Version: 6.00 Build 0)  -->
<!DOCTYPE svg PUBLIC "-//W3C//DTD SVG 1.1//EN" "http://www.w3.org/Graphics/SVG/1.1/DTD/svg11.dtd">
<svg version="1.1" id="Layer_1" xmlns="http://www.w3.org/2000/svg" xmlns:xlink="http://www.w3.org/1999/xlink" x="0px" y="0px"
	 width="25.986px" height="25.987px" viewBox="0 0 25.986 25.987" enable-background="new 0 0 25.986 25.987" xml:space="preserve">
<circle fill="#EF373E" cx="12.993" cy="12.993" r="12.993"/>
<g>
	<path fill="#FFFFFF" d="M6.931,9.251c-0.155-0.154-0.154-0.405,0-0.559l1.763-1.762c0.154-0.155,0.404-0.155,0.558,0l9.804,9.804
		c0.154,0.154,0.154,0.404,0.001,0.559l-1.764,1.762c-0.154,0.154-0.404,0.154-0.558,0L6.931,9.251z"/>
	<g>
		<path fill="#FFFFFF" d="M16.734,6.931c0.154-0.155,0.404-0.155,0.559-0.001l1.762,1.763c0.154,0.154,0.155,0.404,0,0.558
			l-9.804,9.804c-0.154,0.154-0.404,0.154-0.559,0L6.93,17.292c-0.155-0.153-0.155-0.405,0-0.558L16.734,6.931z"/>
	</g>
</g>
</svg>
