<?xml version="1.0" encoding="utf-8"?>
<!-- Generator: Adobe Illustrator 16.0.0, SVG Export Plug-In . SVG Version: 6.00 Build 0)  -->
<!DOCTYPE svg PUBLIC "-//W3C//DTD SVG 1.1//EN" "http://www.w3.org/Graphics/SVG/1.1/DTD/svg11.dtd">
<svg version="1.1" id="Layer_1" xmlns="http://www.w3.org/2000/svg" xmlns:xlink="http://www.w3.org/1999/xlink" x="0px" y="0px"
	 width="27.487px" height="27.486px" viewBox="0 0 27.487 27.486" enable-background="new 0 0 27.487 27.486" xml:space="preserve">
<circle fill="none" stroke="#EF373E" stroke-width="1.5" stroke-miterlimit="10" cx="13.743" cy="13.743" r="12.993"/>
<g>
	<path fill="#EF373E" d="M18.334,7.789c0.092-0.091,0.238-0.091,0.328,0l1.035,1.034c0.09,0.091,0.09,0.238,0,0.328L9.15,19.698
		c-0.09,0.091-0.238,0.091-0.328,0l-1.034-1.034c-0.091-0.09-0.091-0.238,0-0.328L18.334,7.789z"/>
	<g>
		<path fill="#EF373E" d="M19.698,18.335c0.09,0.09,0.09,0.238,0,0.328l-1.034,1.033c-0.091,0.092-0.237,0.092-0.328,0.001
			L7.788,9.15c-0.09-0.09-0.091-0.237,0-0.328l1.035-1.034c0.09-0.091,0.237-0.091,0.327,0L19.698,18.335z"/>
	</g>
</g>
</svg>
