<svg xmlns="http://www.w3.org/2000/svg" width="92" height="15" viewBox="0 0 92 15">
  <g fill="#F69322" fill-rule="evenodd" transform="translate(-1 -1)">
    <polygon points="8.019 .08 9.878 5.801 15.894 5.801 11.027 9.338 12.886 15.059 8.019 11.523 3.152 15.059 5.011 9.338 .144 5.801 6.16 5.801" transform="translate(.856 .92)"/>
    <polygon points="8.019 .08 9.878 5.801 15.894 5.801 11.027 9.338 12.886 15.059 8.019 11.523 3.152 15.059 5.011 9.338 .144 5.801 6.16 5.801" transform="translate(38.981 .92)"/>
    <polygon points="8.019 .08 9.878 5.801 15.894 5.801 11.027 9.338 12.886 15.059 8.019 11.523 3.152 15.059 5.011 9.338 .144 5.801 6.16 5.801" transform="translate(19.922 .92)"/>
    <polygon points="8.019 .08 9.878 5.801 15.894 5.801 11.027 9.338 12.886 15.059 8.019 11.523 3.152 15.059 5.011 9.338 .144 5.801 6.16 5.801" transform="translate(58.047 .92)"/>
    <polygon points="8.019 .08 9.878 5.801 15.894 5.801 11.027 9.338 12.886 15.059 8.019 11.523 3.152 15.059 5.011 9.338 .144 5.801 6.16 5.801" transform="translate(77.106 .92)"/>
  </g>
</svg>
