<?xml version="1.0" encoding="UTF-8" standalone="no"?>
<!DOCTYPE svg PUBLIC "-//W3C//DTD SVG 1.1//EN" "http://www.w3.org/Graphics/SVG/1.1/DTD/svg11.dtd">
<svg width="100%" height="100%" viewBox="0 0 512 512" version="1.1" xmlns="http://www.w3.org/2000/svg" xmlns:xlink="http://www.w3.org/1999/xlink" xml:space="preserve" style="fill-rule:evenodd;clip-rule:evenodd;stroke-linejoin:round;stroke-miterlimit:1.41421;">
    <g>
        <circle cx="256" cy="256" r="256" style="fill:rgb(0,118,190);"/>
        <path d="M512,256C512,204.637 496.876,156.809 470.835,116.725C470.835,116.725 456.231,138.059 458.975,151.772C461.717,165.487 477.83,166.534 476.175,176.594C474.52,186.654 462.634,173.715 448.003,200.227C433.373,226.741 440.691,263.323 461.717,266.061C482.744,268.797 512,256 512,256Z" style="fill:rgb(105,179,66);fill-rule:nonzero;"/>
        <path d="M323.23,8.92C353.027,17.008 380.664,30.344 405.087,47.871C405.087,47.871 375.403,42.975 364.158,53.029C352.914,63.086 336.515,86.861 323.229,53.029C309.945,19.199 323.23,8.92 323.23,8.92Z" style="fill:rgb(105,179,66);fill-rule:nonzero;"/>
        <path d="M63.519,87.219C110.437,33.754 179.275,0 256,0C256,0 238.632,10.516 271.546,28.344C304.461,46.174 289.374,54.401 282.517,59.887C275.661,65.373 263.768,48.916 256,37.946C248.231,26.973 214.868,10.061 189.266,19.206C163.665,28.351 141.727,35.106 145.381,43.614C149.034,52.12 192.92,35.669 209.377,36.579C225.834,37.491 220.348,47.546 204.808,59.433C189.266,71.32 187.434,85.947 203.892,95.089C220.348,104.235 240.458,105.15 245.035,99.665C249.609,94.179 236.806,58.522 267.893,74.063C298.98,89.604 324.581,98.754 298.98,121.608C273.378,144.46 244.123,170.069 243.207,184.692C242.291,199.317 252.353,211.212 246.867,212.122C241.381,213.032 236.346,206.181 232.691,201.149C229.038,196.12 212.12,194.294 203.892,197.491C195.663,200.688 180.118,213.032 188.806,224.919C197.495,236.808 209.371,231.315 221.26,236.802C233.147,242.288 244.232,263.167 241.956,267.886C239.68,272.603 229.547,266.63 221.26,250.517C212.971,234.402 197.425,245.031 186.487,242.288C175.548,239.546 167.319,237.718 156.347,218.517C145.375,199.318 122.66,193.945 113.378,182.861C86.789,151.111 88.691,127.09 83.206,116.119C77.72,105.145 63.519,87.219 63.519,87.219Z" style="fill:rgb(105,179,66);fill-rule:nonzero;"/>
        <path d="M280.685,259.658C280.685,259.658 308.114,262.396 321.828,274.285C335.542,286.172 337.374,290.746 358.401,295.316C379.428,299.884 388.573,311.767 374.858,334.627C361.144,357.484 336.454,394.057 324.571,405.029C312.689,416.002 298.059,425.144 292.573,443.429C287.088,461.712 285.256,472.677 297.143,479.997C297.143,479.997 290.747,495.542 276.117,475.427C261.486,455.31 273.373,431.542 276.117,417.827C278.859,404.114 286.172,362.975 281.601,352.913C277.033,342.854 256,336.452 250.514,315.427C245.028,294.401 254.629,253.483 280.685,259.658Z" style="fill:rgb(105,179,66);fill-rule:nonzero;"/>
    </g>
</svg>
