<?xml version="1.0" encoding="UTF-8" standalone="no"?>
<!DOCTYPE svg PUBLIC "-//W3C//DTD SVG 1.1//EN" "http://www.w3.org/Graphics/SVG/1.1/DTD/svg11.dtd">
<svg width="100%" height="100%" viewBox="0 0 40 40" version="1.1" xmlns="http://www.w3.org/2000/svg" xmlns:xlink="http://www.w3.org/1999/xlink" xml:space="preserve" style="fill-rule:evenodd;clip-rule:evenodd;stroke-linejoin:round;stroke-miterlimit:1.41421;">
    <g transform="matrix(1,0,0,1,0.87877,-4.99242)">
        <path d="M-0.879,24.992L-0.879,4.992L39.121,4.992L39.121,23.882L35.447,23.882L35.447,19.996L31.951,19.996L31.951,23.882L28.274,23.882L28.274,27.276L31.951,27.276L31.951,31.214L35.447,31.214L35.447,27.276L39.121,27.276L39.121,44.992L-0.879,44.992L-0.879,24.992C-0.879,32.295 5.273,38.242 12.589,38.242C16.537,38.242 19.516,36.949 21.848,34.526C24.246,32.133 24.99,28.774 24.99,26.058C24.99,25.25 24.929,24.503 24.809,23.872L12.586,23.872L12.586,27.493L21.254,27.489C20.988,29.486 20.314,30.948 19.288,31.971C18.024,33.233 16.05,34.622 12.585,34.622C7.242,34.622 3.064,30.325 3.064,24.992C3.064,19.66 7.242,15.363 12.585,15.363C15.467,15.363 17.573,16.493 19.126,17.948L21.686,15.393C19.519,13.328 16.636,11.742 12.588,11.742C5.273,11.741 -0.879,17.689 -0.879,24.992Z" style="fill:white;"/>
    </g>
</svg>
