<?xml version="1.0" encoding="UTF-8" standalone="no"?>
<!DOCTYPE svg PUBLIC "-//W3C//DTD SVG 1.1//EN" "http://www.w3.org/Graphics/SVG/1.1/DTD/svg11.dtd">
<svg width="100%" height="100%" viewBox="0 0 23 41" version="1.1" xmlns="http://www.w3.org/2000/svg" xmlns:xlink="http://www.w3.org/1999/xlink" xml:space="preserve" style="fill-rule:evenodd;clip-rule:evenodd;stroke-linejoin:round;stroke-miterlimit:1.41421;">
    <path d="M3.528,14.304C3.756,19.961 5.6,25.03 9.063,29.509L14.131,27.664C14.85,27.402 15.446,27.531 15.92,28.051C17.411,29.462 19.137,30.625 21.098,31.54C21.539,31.746 21.838,32.064 21.995,32.496C22.152,32.927 22.128,33.364 21.922,33.805L19.35,39.321C19.144,39.762 18.826,40.061 18.394,40.218C17.963,40.375 17.526,40.351 17.085,40.145C9.732,36.716 4.661,31.173 1.874,23.516C-0.913,15.859 -0.592,8.354 2.838,0.999C3.044,0.558 3.362,0.259 3.794,0.102C4.226,-0.055 4.662,-0.031 5.103,0.175L10.619,2.747C11.06,2.953 11.359,3.271 11.516,3.703C11.673,4.134 11.649,4.571 11.443,5.012C10.529,6.973 9.954,8.974 9.719,11.013C9.618,11.742 9.244,12.224 8.597,12.46L3.528,14.304Z" style="fill:rgb(0,118,190);fill-rule:nonzero;"/>
</svg>
