<?xml version="1.0" encoding="UTF-8" standalone="no"?>
<!DOCTYPE svg PUBLIC "-//W3C//DTD SVG 1.1//EN" "http://www.w3.org/Graphics/SVG/1.1/DTD/svg11.dtd">
<svg width="100%" height="100%" viewBox="0 0 100 100" version="1.1" xmlns="http://www.w3.org/2000/svg" xmlns:xlink="http://www.w3.org/1999/xlink" xml:space="preserve" style="fill-rule:evenodd;clip-rule:evenodd;stroke-linejoin:round;stroke-miterlimit:1.41421;">
    <g transform="matrix(6.12323e-17,1,-1,6.12323e-17,99.4697,-5.91936)">
        <path d="M55.919,28.451L79.744,58.489L32.095,58.489L55.919,28.451Z" style="fill:white;"/>
    </g>
    <g transform="matrix(1.05602,0,0,1.05602,-0.194159,-0.455795)">
        <path d="M47.837,0.433L48.143,0.435L48.448,0.44L48.753,0.447L49.057,0.456L49.361,0.466L49.664,0.479L49.966,0.493L50.269,0.51L50.57,0.528L50.872,0.548L51.172,0.57L51.472,0.594L51.772,0.619L52.071,0.647L52.37,0.676L52.668,0.708L52.965,0.741L53.262,0.776L53.558,0.812L53.854,0.851L54.149,0.891L54.444,0.934L54.738,0.978L55.031,1.023L55.324,1.071L55.617,1.12L55.908,1.172L56.199,1.225L56.49,1.279L56.779,1.336L57.069,1.394L57.357,1.454L57.645,1.516L57.932,1.58L58.219,1.645L58.505,1.712L58.79,1.781L59.075,1.851L59.359,1.923L59.642,1.997L59.924,2.073L60.206,2.15L60.487,2.229L60.768,2.31L61.047,2.392L61.326,2.476L61.605,2.562L61.882,2.649L62.159,2.738L62.435,2.829L62.71,2.921L62.985,3.015L63.259,3.111L63.532,3.208L63.804,3.307L64.076,3.407L64.346,3.509L64.616,3.613L64.885,3.718L65.154,3.825L65.421,3.933L65.688,4.043L65.954,4.155L66.219,4.268L66.483,4.383L66.747,4.499L67.009,4.617L67.271,4.736L67.532,4.857L67.792,4.98L68.051,5.104L68.309,5.229L68.567,5.356L68.823,5.485L69.079,5.615L69.334,5.746L69.587,5.879L69.84,6.014L70.092,6.15L70.344,6.287L70.594,6.426L70.843,6.567L71.091,6.708L71.339,6.852L71.585,6.997L71.831,7.143L72.075,7.29L72.319,7.439L72.561,7.59L72.803,7.742L73.044,7.895L73.283,8.05L73.522,8.206L73.76,8.364L73.996,8.522L74.232,8.683L74.467,8.844L74.7,9.007L74.933,9.172L75.164,9.338L75.395,9.505L75.624,9.673L75.853,9.843L76.08,10.014L76.306,10.187L76.532,10.36L76.756,10.536L76.979,10.712L77.201,10.89L77.422,11.069L77.642,11.249L77.86,11.431L78.078,11.614L78.294,11.798L78.51,11.983L78.724,12.17L78.937,12.358L79.149,12.547L79.36,12.738L79.57,12.93L79.778,13.123L79.986,13.317L80.192,13.512L80.397,13.709L80.601,13.907L80.803,14.106L81.005,14.306L81.205,14.507L81.404,14.71L81.602,14.914L81.799,15.119L81.994,15.325L82.188,15.533L82.381,15.741L82.573,15.951L82.763,16.162L82.953,16.374L83.141,16.587L83.327,16.801L83.513,17.016L83.697,17.233L83.88,17.45L84.062,17.669L84.242,17.889L84.421,18.11L84.599,18.332L84.775,18.555L84.95,18.779L85.124,19.004L85.296,19.231L85.468,19.458L85.637,19.686L85.806,19.916L85.973,20.146L86.139,20.378L86.303,20.61L86.466,20.844L86.628,21.079L86.788,21.314L86.947,21.551L87.105,21.789L87.261,22.027L87.416,22.267L87.569,22.508L87.721,22.749L87.871,22.992L88.02,23.236L88.168,23.48L88.314,23.726L88.459,23.972L88.602,24.219L88.744,24.468L88.885,24.717L89.023,24.967L89.161,25.218L89.297,25.47L89.431,25.723L89.564,25.977L89.696,26.232L89.826,26.487L89.955,26.744L90.082,27.001L90.207,27.26L90.331,27.519L90.454,27.779L90.574,28.04L90.694,28.301L90.812,28.564L90.928,28.827L91.043,29.092L91.156,29.357L91.267,29.623L91.377,29.889L91.486,30.157L91.593,30.425L91.698,30.694L91.802,30.964L91.904,31.235L92.004,31.507L92.103,31.779L92.2,32.052L92.296,32.326L92.39,32.6L92.482,32.876L92.573,33.152L92.662,33.428L92.749,33.706L92.835,33.984L92.919,34.263L93.001,34.543L93.082,34.823L93.161,35.105L93.238,35.386L93.313,35.669L93.387,35.952L93.46,36.236L93.53,36.521L93.599,36.806L93.666,37.092L93.731,37.378L93.795,37.666L93.856,37.954L93.916,38.242L93.975,38.531L94.031,38.821L94.086,39.111L94.139,39.402L94.19,39.694L94.24,39.986L94.287,40.279L94.333,40.573L94.377,40.867L94.419,41.161L94.46,41.457L94.498,41.752L94.535,42.049L94.57,42.346L94.603,42.643L94.634,42.941L94.664,43.24L94.691,43.539L94.717,43.838L94.741,44.139L94.763,44.439L94.783,44.74L94.801,45.042L94.817,45.344L94.832,45.647L94.844,45.95L94.855,46.254L94.864,46.558L94.87,46.863L94.875,47.168L94.878,47.473L94.879,47.779L94.878,48.085L94.875,48.391L94.87,48.696L94.864,49L94.855,49.305L94.844,49.608L94.832,49.911L94.817,50.214L94.801,50.516L94.783,50.818L94.763,51.119L94.741,51.42L94.717,51.72L94.691,52.02L94.664,52.319L94.634,52.617L94.603,52.915L94.57,53.213L94.535,53.51L94.498,53.806L94.46,54.102L94.419,54.397L94.377,54.692L94.333,54.986L94.287,55.279L94.24,55.572L94.19,55.864L94.139,56.156L94.086,56.447L94.031,56.737L93.975,57.027L93.916,57.316L93.856,57.605L93.795,57.893L93.731,58.18L93.666,58.467L93.599,58.753L93.53,59.038L93.46,59.322L93.387,59.606L93.313,59.89L93.238,60.172L93.161,60.454L93.082,60.735L93.001,61.015L92.919,61.295L92.835,61.574L92.749,61.852L92.662,62.13L92.573,62.407L92.482,62.683L92.39,62.958L92.296,63.233L92.2,63.507L92.103,63.78L92.004,64.052L91.904,64.323L91.802,64.594L91.698,64.864L91.593,65.133L91.486,65.402L91.377,65.669L91.267,65.936L91.156,66.202L91.043,66.467L90.928,66.731L90.812,66.994L90.694,67.257L90.574,67.519L90.454,67.78L90.331,68.04L90.207,68.299L90.082,68.557L89.955,68.814L89.826,69.071L89.696,69.327L89.564,69.581L89.431,69.835L89.297,70.088L89.161,70.34L89.023,70.591L88.885,70.841L88.744,71.091L88.602,71.339L88.459,71.586L88.314,71.833L88.168,72.078L88.02,72.323L87.871,72.566L87.721,72.809L87.569,73.051L87.416,73.291L87.261,73.531L87.105,73.77L86.947,74.007L86.788,74.244L86.628,74.48L86.466,74.714L86.303,74.948L86.139,75.181L85.973,75.412L85.806,75.643L85.637,75.872L85.468,76.101L85.296,76.328L85.124,76.554L84.95,76.779L84.775,77.004L84.599,77.227L84.421,77.449L84.242,77.67L84.062,77.889L83.88,78.108L83.697,78.326L83.513,78.542L83.327,78.758L83.141,78.972L82.953,79.185L82.763,79.397L82.573,79.608L82.381,79.817L82.188,80.026L81.994,80.233L81.799,80.439L81.602,80.645L81.404,80.848L81.205,81.051L81.005,81.252L80.803,81.453L80.601,81.652L80.397,81.85L80.192,82.046L79.986,82.242L79.778,82.436L79.57,82.629L79.36,82.821L79.149,83.011L78.937,83.2L78.724,83.388L78.51,83.575L78.294,83.761L78.078,83.945L77.86,84.128L77.642,84.309L77.422,84.49L77.201,84.669L76.979,84.846L76.756,85.023L76.532,85.198L76.306,85.372L76.08,85.544L75.853,85.715L75.624,85.885L75.395,86.054L75.164,86.221L74.933,86.387L74.7,86.551L74.467,86.714L74.232,86.876L73.996,87.036L73.76,87.195L73.522,87.352L73.283,87.509L73.044,87.663L72.803,87.817L72.561,87.969L72.319,88.119L72.075,88.268L71.831,88.416L71.585,88.562L71.339,88.707L71.091,88.85L70.843,88.992L70.594,89.132L70.344,89.271L70.092,89.409L69.84,89.545L69.587,89.679L69.334,89.812L69.079,89.944L68.823,90.074L68.567,90.202L68.309,90.329L68.051,90.455L67.792,90.579L67.532,90.701L67.271,90.822L67.009,90.942L66.747,91.059L66.483,91.176L66.219,91.29L65.954,91.404L65.688,91.515L65.421,91.625L65.154,91.734L64.885,91.84L64.616,91.946L64.346,92.049L64.076,92.151L63.804,92.252L63.532,92.351L63.259,92.448L62.985,92.543L62.71,92.637L62.435,92.73L62.159,92.82L61.882,92.909L61.605,92.997L61.326,93.082L61.047,93.166L60.768,93.249L60.487,93.329L60.206,93.408L59.924,93.486L59.642,93.561L59.359,93.635L59.075,93.707L58.79,93.778L58.505,93.846L58.219,93.914L57.932,93.979L57.645,94.042L57.357,94.104L57.069,94.164L56.779,94.222L56.49,94.279L56.199,94.334L55.908,94.387L55.617,94.438L55.324,94.487L55.031,94.535L54.738,94.581L54.444,94.625L54.149,94.667L53.854,94.708L53.558,94.746L53.262,94.783L52.965,94.818L52.668,94.851L52.37,94.882L52.071,94.912L51.772,94.939L51.472,94.965L51.172,94.989L50.872,95.011L50.57,95.031L50.269,95.049L49.966,95.065L49.664,95.08L49.361,95.092L49.057,95.103L48.753,95.111L48.448,95.118L48.143,95.123L47.837,95.126L47.531,95.127L47.225,95.126L46.92,95.123L46.615,95.118L46.31,95.111L46.006,95.103L45.702,95.092L45.399,95.08L45.097,95.065L44.794,95.049L44.493,95.031L44.191,95.011L43.891,94.989L43.591,94.965L43.291,94.939L42.992,94.912L42.693,94.882L42.395,94.851L42.098,94.818L41.801,94.783L41.505,94.746L41.209,94.708L40.914,94.667L40.619,94.625L40.325,94.581L40.031,94.535L39.739,94.487L39.446,94.438L39.155,94.387L38.864,94.334L38.573,94.279L38.283,94.222L37.994,94.164L37.706,94.104L37.418,94.042L37.131,93.979L36.844,93.914L36.558,93.846L36.273,93.778L35.988,93.707L35.704,93.635L35.421,93.561L35.139,93.486L34.857,93.408L34.576,93.329L34.295,93.249L34.016,93.166L33.737,93.082L33.458,92.997L33.181,92.909L32.904,92.82L32.628,92.73L32.352,92.637L32.078,92.543L31.804,92.448L31.531,92.351L31.259,92.252L30.987,92.151L30.717,92.049L30.447,91.946L30.178,91.84L29.909,91.734L29.642,91.625L29.375,91.515L29.109,91.404L28.844,91.29L28.58,91.176L28.316,91.059L28.054,90.942L27.792,90.822L27.531,90.701L27.271,90.579L27.012,90.455L26.754,90.329L26.496,90.202L26.24,90.074L25.984,89.944L25.729,89.812L25.476,89.679L25.223,89.545L24.971,89.409L24.719,89.271L24.469,89.132L24.22,88.992L23.972,88.85L23.724,88.707L23.478,88.562L23.232,88.416L22.988,88.268L22.744,88.119L22.502,87.969L22.26,87.817L22.019,87.663L21.78,87.509L21.541,87.352L21.303,87.195L21.067,87.036L20.831,86.876L20.596,86.714L20.363,86.551L20.13,86.387L19.899,86.221L19.668,86.054L19.439,85.885L19.21,85.715L18.983,85.544L18.756,85.372L18.531,85.198L18.307,85.023L18.084,84.846L17.862,84.669L17.641,84.49L17.421,84.309L17.203,84.128L16.985,83.945L16.768,83.761L16.553,83.575L16.339,83.388L16.126,83.2L15.914,83.011L15.703,82.821L15.493,82.629L15.285,82.436L15.077,82.242L14.871,82.046L14.666,81.85L14.462,81.652L14.26,81.453L14.058,81.252L13.858,81.051L13.659,80.848L13.461,80.645L13.264,80.439L13.069,80.233L12.875,80.026L12.682,79.817L12.49,79.608L12.3,79.397L12.11,79.185L11.922,78.972L11.736,78.758L11.55,78.542L11.366,78.326L11.183,78.108L11.001,77.889L10.821,77.67L10.642,77.449L10.464,77.227L10.288,77.004L10.113,76.779L9.939,76.554L9.766,76.328L9.595,76.101L9.425,75.872L9.257,75.643L9.09,75.412L8.924,75.181L8.76,74.948L8.597,74.714L8.435,74.48L8.275,74.244L8.116,74.007L7.958,73.77L7.802,73.531L7.647,73.291L7.494,73.051L7.342,72.809L7.192,72.566L7.043,72.323L6.895,72.078L6.749,71.833L6.604,71.586L6.461,71.339L6.319,71.091L6.178,70.841L6.039,70.591L5.902,70.34L5.766,70.088L5.631,69.835L5.498,69.581L5.367,69.327L5.237,69.071L5.108,68.814L4.981,68.557L4.856,68.299L4.732,68.04L4.609,67.78L4.488,67.519L4.369,67.257L4.251,66.994L4.135,66.731L4.02,66.467L3.907,66.202L3.796,65.936L3.686,65.669L3.577,65.402L3.47,65.133L3.365,64.864L3.261,64.594L3.159,64.323L3.059,64.052L2.96,63.78L2.863,63.507L2.767,63.233L2.673,62.958L2.581,62.683L2.49,62.407L2.401,62.13L2.314,61.852L2.228,61.574L2.144,61.295L2.062,61.015L1.981,60.735L1.902,60.454L1.825,60.172L1.749,59.89L1.676,59.606L1.603,59.322L1.533,59.038L1.464,58.753L1.397,58.467L1.332,58.18L1.268,57.893L1.207,57.605L1.147,57.316L1.088,57.027L1.032,56.737L0.977,56.447L0.924,56.156L0.873,55.864L0.823,55.572L0.776,55.279L0.73,54.986L0.686,54.692L0.644,54.397L0.603,54.102L0.565,53.806L0.528,53.51L0.493,53.213L0.46,52.915L0.429,52.617L0.399,52.319L0.372,52.02L0.346,51.72L0.322,51.42L0.3,51.119L0.28,50.818L0.262,50.516L0.246,50.214L0.231,49.911L0.219,49.608L0.208,49.305L0.199,49L0.193,48.696L0.188,48.391L0.185,48.085L0.184,47.779L0.185,47.473L0.188,47.168L0.193,46.863L0.199,46.558L0.208,46.254L0.219,45.95L0.231,45.647L0.246,45.344L0.262,45.042L0.28,44.74L0.3,44.439L0.322,44.139L0.346,43.838L0.372,43.539L0.399,43.24L0.429,42.941L0.46,42.643L0.493,42.346L0.528,42.049L0.565,41.752L0.603,41.457L0.644,41.161L0.686,40.867L0.73,40.573L0.776,40.279L0.823,39.986L0.873,39.694L0.924,39.402L0.977,39.111L1.032,38.821L1.088,38.531L1.147,38.242L1.207,37.954L1.268,37.666L1.332,37.378L1.397,37.092L1.464,36.806L1.533,36.521L1.603,36.236L1.676,35.952L1.749,35.669L1.825,35.386L1.902,35.105L1.981,34.823L2.062,34.543L2.144,34.263L2.228,33.984L2.314,33.706L2.401,33.428L2.49,33.152L2.581,32.876L2.673,32.6L2.767,32.326L2.863,32.052L2.96,31.779L3.059,31.507L3.159,31.235L3.261,30.964L3.365,30.694L3.47,30.425L3.577,30.157L3.686,29.889L3.796,29.623L3.907,29.357L4.02,29.092L4.135,28.827L4.251,28.564L4.369,28.301L4.488,28.04L4.609,27.779L4.732,27.519L4.856,27.26L4.981,27.001L5.108,26.744L5.237,26.487L5.367,26.232L5.498,25.977L5.631,25.723L5.766,25.47L5.902,25.218L6.039,24.967L6.178,24.717L6.319,24.468L6.461,24.219L6.604,23.972L6.749,23.726L6.895,23.48L7.043,23.236L7.192,22.992L7.342,22.749L7.494,22.508L7.647,22.267L7.802,22.027L7.958,21.789L8.116,21.551L8.275,21.314L8.435,21.079L8.597,20.844L8.76,20.61L8.924,20.378L9.09,20.146L9.257,19.916L9.425,19.686L9.595,19.458L9.766,19.231L9.939,19.004L10.113,18.779L10.288,18.555L10.464,18.332L10.642,18.11L10.821,17.889L11.001,17.669L11.183,17.45L11.366,17.233L11.55,17.016L11.736,16.801L11.922,16.587L12.11,16.374L12.3,16.162L12.49,15.951L12.682,15.741L12.875,15.533L13.069,15.325L13.264,15.119L13.461,14.914L13.659,14.71L13.858,14.507L14.058,14.306L14.26,14.106L14.462,13.907L14.666,13.709L14.871,13.512L15.077,13.317L15.285,13.123L15.493,12.93L15.703,12.738L15.914,12.547L16.126,12.358L16.339,12.17L16.553,11.983L16.768,11.798L16.985,11.614L17.203,11.431L17.421,11.249L17.641,11.069L17.862,10.89L18.084,10.712L18.307,10.536L18.531,10.36L18.756,10.187L18.983,10.014L19.21,9.843L19.439,9.673L19.668,9.505L19.899,9.338L20.13,9.172L20.363,9.007L20.596,8.844L20.831,8.683L21.067,8.522L21.303,8.364L21.541,8.206L21.78,8.05L22.019,7.895L22.26,7.742L22.502,7.59L22.744,7.439L22.988,7.29L23.232,7.143L23.478,6.997L23.724,6.852L23.972,6.708L24.22,6.567L24.469,6.426L24.719,6.287L24.971,6.15L25.223,6.014L25.476,5.879L25.729,5.746L25.984,5.615L26.24,5.485L26.496,5.356L26.754,5.229L27.012,5.104L27.271,4.98L27.531,4.857L27.792,4.736L28.054,4.617L28.316,4.499L28.58,4.383L28.844,4.268L29.109,4.155L29.375,4.043L29.642,3.933L29.909,3.825L30.178,3.718L30.447,3.613L30.717,3.509L30.987,3.407L31.259,3.307L31.531,3.208L31.804,3.111L32.078,3.015L32.352,2.921L32.628,2.829L32.904,2.738L33.181,2.649L33.458,2.562L33.737,2.476L34.016,2.392L34.295,2.31L34.576,2.229L34.857,2.15L35.139,2.073L35.421,1.997L35.704,1.923L35.988,1.851L36.273,1.781L36.558,1.712L36.844,1.645L37.131,1.58L37.418,1.516L37.706,1.454L37.994,1.394L38.283,1.336L38.573,1.279L38.864,1.225L39.155,1.172L39.446,1.12L39.739,1.071L40.031,1.023L40.325,0.978L40.619,0.934L40.914,0.891L41.209,0.851L41.505,0.812L41.801,0.776L42.098,0.741L42.395,0.708L42.693,0.676L42.992,0.647L43.291,0.619L43.591,0.594L43.891,0.57L44.191,0.548L44.493,0.528L44.794,0.51L45.097,0.493L45.399,0.479L45.702,0.466L46.006,0.456L46.31,0.447L46.615,0.44L46.92,0.435L47.225,0.433L47.531,0.432L47.837,0.433ZM47.261,6.114L46.992,6.117L46.723,6.121L46.454,6.127L46.186,6.135L45.918,6.144L45.651,6.155L45.385,6.168L45.118,6.182L44.853,6.198L44.587,6.216L44.322,6.235L44.058,6.256L43.794,6.279L43.531,6.303L43.268,6.329L43.006,6.356L42.744,6.385L42.483,6.416L42.222,6.449L41.962,6.483L41.702,6.518L41.443,6.555L41.184,6.594L40.926,6.634L40.668,6.676L40.411,6.72L40.155,6.765L39.899,6.811L39.644,6.859L39.389,6.909L39.135,6.96L38.881,7.013L38.628,7.068L38.375,7.123L38.123,7.181L37.872,7.24L37.621,7.3L37.371,7.362L37.121,7.426L36.873,7.49L36.624,7.557L36.376,7.625L36.129,7.694L35.883,7.765L35.637,7.838L35.392,7.911L35.147,7.987L34.903,8.063L34.66,8.142L34.417,8.221L34.175,8.303L33.934,8.385L33.693,8.469L33.453,8.555L33.214,8.641L32.975,8.73L32.737,8.819L32.5,8.911L32.263,9.003L32.027,9.097L31.792,9.192L31.557,9.289L31.324,9.387L31.091,9.487L30.858,9.588L30.627,9.69L30.396,9.793L30.166,9.898L29.936,10.005L29.707,10.112L29.48,10.222L29.252,10.332L29.026,10.444L28.8,10.557L28.575,10.671L28.351,10.787L28.128,10.904L27.906,11.022L27.684,11.142L27.463,11.263L27.243,11.385L27.023,11.509L26.805,11.633L26.587,11.759L26.37,11.887L26.154,12.016L25.939,12.145L25.725,12.277L25.511,12.409L25.299,12.543L25.087,12.678L24.876,12.814L24.666,12.951L24.456,13.09L24.248,13.23L24.041,13.371L23.834,13.513L23.628,13.657L23.424,13.802L23.22,13.948L23.017,14.095L22.815,14.243L22.614,14.393L22.413,14.543L22.214,14.695L22.016,14.848L21.818,15.003L21.622,15.158L21.426,15.314L21.232,15.472L21.038,15.631L20.845,15.791L20.654,15.952L20.463,16.114L20.273,16.278L20.085,16.442L19.897,16.608L19.71,16.774L19.525,16.942L19.34,17.111L19.156,17.281L18.974,17.452L18.792,17.624L18.611,17.798L18.432,17.972L18.253,18.147L18.076,18.324L17.899,18.501L17.724,18.68L17.55,18.859L17.377,19.04L17.204,19.221L17.033,19.404L16.863,19.588L16.694,19.772L16.527,19.958L16.36,20.145L16.194,20.333L16.03,20.521L15.867,20.711L15.704,20.902L15.543,21.093L15.383,21.286L15.224,21.479L15.067,21.674L14.91,21.87L14.755,22.066L14.601,22.263L14.448,22.462L14.296,22.661L14.145,22.861L13.995,23.062L13.847,23.264L13.7,23.467L13.554,23.671L13.409,23.876L13.266,24.082L13.123,24.288L12.982,24.496L12.842,24.704L12.704,24.913L12.566,25.124L12.43,25.334L12.295,25.546L12.161,25.759L12.029,25.973L11.898,26.187L11.768,26.402L11.639,26.618L11.512,26.835L11.386,27.053L11.261,27.271L11.137,27.491L11.015,27.711L10.894,27.932L10.774,28.153L10.656,28.376L10.539,28.599L10.423,28.823L10.309,29.048L10.196,29.274L10.084,29.5L9.974,29.727L9.865,29.955L9.757,30.184L9.651,30.413L9.546,30.643L9.442,30.874L9.34,31.106L9.239,31.338L9.139,31.571L9.041,31.805L8.945,32.04L8.849,32.275L8.755,32.511L8.663,32.747L8.572,32.985L8.482,33.223L8.394,33.461L8.307,33.701L8.221,33.941L8.137,34.182L8.055,34.423L7.974,34.665L7.894,34.908L7.816,35.151L7.739,35.395L7.664,35.639L7.59,35.885L7.517,36.131L7.447,36.377L7.377,36.624L7.309,36.872L7.243,37.12L7.178,37.369L7.114,37.619L7.052,37.869L6.992,38.12L6.933,38.371L6.876,38.623L6.82,38.876L6.765,39.129L6.713,39.382L6.661,39.637L6.612,39.891L6.564,40.147L6.517,40.403L6.472,40.659L6.428,40.916L6.387,41.174L6.346,41.432L6.307,41.691L6.27,41.95L6.235,42.209L6.201,42.47L6.168,42.73L6.138,42.992L6.109,43.254L6.081,43.516L6.055,43.779L6.031,44.042L6.008,44.306L5.987,44.57L5.968,44.835L5.95,45.1L5.934,45.366L5.92,45.632L5.907,45.899L5.896,46.166L5.887,46.434L5.879,46.702L5.873,46.971L5.869,47.24L5.866,47.509L5.866,47.779L5.866,48.049L5.869,48.319L5.873,48.588L5.879,48.856L5.887,49.125L5.896,49.392L5.907,49.659L5.92,49.926L5.934,50.192L5.95,50.458L5.968,50.723L5.987,50.988L6.008,51.253L6.031,51.516L6.055,51.78L6.081,52.043L6.109,52.305L6.138,52.567L6.168,52.828L6.201,53.089L6.235,53.349L6.27,53.609L6.307,53.868L6.346,54.127L6.387,54.385L6.428,54.642L6.472,54.899L6.517,55.156L6.564,55.412L6.612,55.667L6.661,55.922L6.713,56.176L6.765,56.43L6.82,56.683L6.876,56.935L6.933,57.187L6.992,57.439L7.052,57.69L7.114,57.94L7.178,58.189L7.243,58.438L7.309,58.687L7.377,58.934L7.447,59.181L7.517,59.428L7.59,59.674L7.664,59.919L7.739,60.164L7.816,60.408L7.894,60.651L7.974,60.894L8.055,61.136L8.137,61.377L8.221,61.618L8.307,61.858L8.394,62.097L8.482,62.336L8.572,62.574L8.663,62.811L8.755,63.048L8.849,63.283L8.945,63.519L9.041,63.753L9.139,63.987L9.239,64.22L9.34,64.452L9.442,64.684L9.546,64.915L9.651,65.145L9.757,65.375L9.865,65.603L9.974,65.831L10.084,66.058L10.196,66.285L10.309,66.51L10.423,66.735L10.539,66.959L10.656,67.183L10.774,67.405L10.894,67.627L11.015,67.848L11.137,68.068L11.261,68.287L11.386,68.506L11.512,68.723L11.639,68.94L11.768,69.156L11.898,69.372L12.029,69.586L12.161,69.799L12.295,70.012L12.43,70.224L12.566,70.435L12.704,70.645L12.842,70.854L12.982,71.063L13.123,71.27L13.266,71.477L13.409,71.682L13.554,71.887L13.7,72.091L13.847,72.294L13.995,72.496L14.145,72.697L14.296,72.897L14.448,73.097L14.601,73.295L14.755,73.492L14.91,73.689L15.067,73.884L15.224,74.079L15.383,74.273L15.543,74.465L15.704,74.657L15.867,74.848L16.03,75.037L16.194,75.226L16.36,75.414L16.527,75.6L16.694,75.786L16.863,75.971L17.033,76.154L17.204,76.337L17.377,76.519L17.55,76.699L17.724,76.879L17.899,77.057L18.076,77.235L18.253,77.411L18.432,77.587L18.611,77.761L18.792,77.934L18.974,78.106L19.156,78.277L19.34,78.447L19.525,78.616L19.71,78.784L19.897,78.951L20.085,79.116L20.273,79.281L20.463,79.444L20.654,79.606L20.845,79.767L21.038,79.927L21.232,80.086L21.426,80.244L21.622,80.4L21.818,80.556L22.016,80.71L22.214,80.863L22.413,81.015L22.614,81.166L22.815,81.315L23.017,81.464L23.22,81.611L23.424,81.757L23.628,81.902L23.834,82.045L24.041,82.187L24.248,82.329L24.456,82.468L24.666,82.607L24.876,82.744L25.087,82.881L25.299,83.016L25.511,83.149L25.725,83.282L25.939,83.413L26.154,83.543L26.37,83.672L26.587,83.799L26.805,83.925L27.023,84.05L27.243,84.173L27.463,84.296L27.684,84.417L27.906,84.536L28.128,84.655L28.351,84.772L28.575,84.887L28.8,85.002L29.026,85.115L29.252,85.227L29.48,85.337L29.707,85.446L29.936,85.554L30.166,85.66L30.396,85.765L30.627,85.869L30.858,85.971L31.091,86.072L31.324,86.171L31.557,86.269L31.792,86.366L32.027,86.461L32.263,86.555L32.5,86.648L32.737,86.739L32.975,86.829L33.214,86.917L33.453,87.004L33.693,87.089L33.934,87.173L34.175,87.256L34.417,87.337L34.66,87.417L34.903,87.495L35.147,87.572L35.392,87.647L35.637,87.721L35.883,87.793L36.129,87.864L36.376,87.934L36.624,88.002L36.873,88.068L37.122,88.133L37.371,88.196L37.621,88.258L37.872,88.319L38.123,88.378L38.375,88.435L38.628,88.491L38.881,88.545L39.135,88.598L39.389,88.649L39.644,88.699L39.899,88.747L40.155,88.794L40.411,88.839L40.668,88.882L40.926,88.924L41.184,88.964L41.443,89.003L41.702,89.04L41.962,89.076L42.222,89.11L42.483,89.142L42.744,89.173L43.006,89.202L43.268,89.23L43.531,89.255L43.794,89.28L44.058,89.302L44.322,89.323L44.587,89.343L44.853,89.36L45.118,89.376L45.385,89.391L45.651,89.403L45.919,89.414L46.186,89.424L46.454,89.431L46.723,89.437L46.992,89.442L47.261,89.444L47.531,89.445L47.801,89.444L48.071,89.442L48.34,89.437L48.609,89.431L48.877,89.424L49.144,89.414L49.412,89.403L49.678,89.391L49.945,89.376L50.21,89.36L50.476,89.343L50.741,89.323L51.005,89.302L51.269,89.28L51.532,89.255L51.795,89.23L52.057,89.202L52.319,89.173L52.58,89.142L52.841,89.11L53.101,89.076L53.361,89.04L53.62,89.003L53.879,88.964L54.137,88.924L54.394,88.882L54.652,88.839L54.908,88.794L55.164,88.747L55.419,88.699L55.674,88.649L55.928,88.598L56.182,88.545L56.435,88.491L56.688,88.435L56.94,88.378L57.191,88.319L57.442,88.258L57.692,88.196L57.941,88.133L58.19,88.068L58.439,88.002L58.687,87.934L58.934,87.864L59.18,87.793L59.426,87.721L59.671,87.647L59.916,87.572L60.16,87.495L60.403,87.417L60.646,87.337L60.888,87.256L61.129,87.173L61.37,87.089L61.61,87.004L61.849,86.917L62.088,86.829L62.326,86.739L62.563,86.648L62.8,86.555L63.036,86.461L63.271,86.366L63.505,86.269L63.739,86.171L63.972,86.072L64.205,85.971L64.436,85.869L64.667,85.765L64.897,85.66L65.127,85.554L65.356,85.446L65.583,85.337L65.811,85.227L66.037,85.115L66.263,85.002L66.487,84.887L66.712,84.772L66.935,84.655L67.157,84.536L67.379,84.417L67.6,84.296L67.82,84.173L68.04,84.05L68.258,83.925L68.476,83.799L68.693,83.672L68.909,83.543L69.124,83.413L69.338,83.282L69.552,83.149L69.764,83.016L69.976,82.881L70.187,82.744L70.397,82.607L70.606,82.468L70.815,82.329L71.022,82.187L71.229,82.045L71.435,81.902L71.639,81.757L71.843,81.611L72.046,81.464L72.248,81.315L72.449,81.166L72.65,81.015L72.849,80.863L73.047,80.71L73.245,80.556L73.441,80.4L73.637,80.244L73.831,80.086L74.025,79.927L74.217,79.767L74.409,79.606L74.6,79.444L74.789,79.281L74.978,79.116L75.166,78.951L75.353,78.784L75.538,78.616L75.723,78.447L75.907,78.277L76.089,78.106L76.271,77.934L76.452,77.761L76.631,77.587L76.81,77.411L76.987,77.235L77.164,77.057L77.339,76.879L77.513,76.699L77.686,76.519L77.859,76.337L78.03,76.154L78.2,75.971L78.368,75.786L78.536,75.6L78.703,75.414L78.869,75.226L79.033,75.037L79.196,74.848L79.359,74.657L79.52,74.465L79.68,74.273L79.839,74.079L79.996,73.884L80.153,73.689L80.308,73.492L80.462,73.295L80.615,73.097L80.767,72.897L80.918,72.697L81.067,72.496L81.216,72.294L81.363,72.091L81.509,71.887L81.654,71.682L81.797,71.477L81.94,71.27L82.081,71.063L82.221,70.854L82.359,70.645L82.497,70.435L82.633,70.224L82.768,70.012L82.902,69.799L83.034,69.586L83.165,69.372L83.295,69.156L83.424,68.94L83.551,68.723L83.677,68.506L83.802,68.287L83.926,68.068L84.048,67.848L84.169,67.627L84.289,67.405L84.407,67.183L84.524,66.959L84.64,66.735L84.754,66.51L84.867,66.285L84.979,66.058L85.089,65.831L85.198,65.603L85.306,65.375L85.412,65.145L85.517,64.915L85.621,64.684L85.723,64.452L85.824,64.22L85.923,63.987L86.022,63.753L86.118,63.519L86.214,63.283L86.308,63.048L86.4,62.811L86.491,62.574L86.581,62.336L86.669,62.097L86.756,61.858L86.842,61.618L86.926,61.377L87.008,61.136L87.089,60.894L87.169,60.651L87.247,60.408L87.324,60.164L87.399,59.919L87.473,59.674L87.546,59.428L87.616,59.181L87.686,58.934L87.754,58.687L87.82,58.438L87.885,58.189L87.949,57.94L88.011,57.69L88.071,57.439L88.13,57.187L88.187,56.935L88.243,56.683L88.297,56.43L88.35,56.176L88.402,55.922L88.451,55.667L88.499,55.412L88.546,55.156L88.591,54.899L88.634,54.642L88.676,54.385L88.717,54.127L88.755,53.868L88.793,53.609L88.828,53.349L88.862,53.089L88.894,52.828L88.925,52.567L88.954,52.305L88.982,52.043L89.008,51.78L89.032,51.516L89.055,51.253L89.076,50.988L89.095,50.724L89.113,50.458L89.129,50.192L89.143,49.926L89.156,49.659L89.167,49.392L89.176,49.125L89.184,48.856L89.19,48.588L89.194,48.319L89.196,48.049L89.197,47.779L89.196,47.509L89.194,47.24L89.19,46.971L89.184,46.702L89.176,46.434L89.167,46.166L89.156,45.899L89.143,45.632L89.129,45.366L89.113,45.1L89.095,44.835L89.076,44.57L89.055,44.306L89.032,44.042L89.008,43.779L88.982,43.516L88.954,43.254L88.925,42.992L88.894,42.73L88.862,42.47L88.828,42.209L88.793,41.95L88.755,41.691L88.717,41.432L88.676,41.174L88.634,40.916L88.591,40.659L88.546,40.403L88.499,40.147L88.451,39.891L88.402,39.637L88.35,39.382L88.297,39.129L88.243,38.876L88.187,38.623L88.13,38.371L88.071,38.12L88.011,37.869L87.949,37.619L87.885,37.369L87.82,37.12L87.754,36.872L87.686,36.624L87.616,36.377L87.546,36.131L87.473,35.885L87.399,35.639L87.324,35.395L87.247,35.151L87.169,34.908L87.089,34.665L87.008,34.423L86.926,34.181L86.842,33.941L86.756,33.701L86.669,33.462L86.581,33.223L86.491,32.985L86.4,32.747L86.308,32.511L86.214,32.275L86.118,32.04L86.022,31.805L85.923,31.571L85.824,31.338L85.723,31.106L85.621,30.874L85.517,30.643L85.412,30.413L85.306,30.184L85.198,29.955L85.089,29.727L84.979,29.5L84.867,29.274L84.754,29.048L84.64,28.823L84.524,28.599L84.407,28.376L84.289,28.153L84.169,27.932L84.048,27.711L83.926,27.491L83.802,27.271L83.677,27.053L83.551,26.835L83.424,26.618L83.295,26.402L83.165,26.187L83.034,25.973L82.902,25.759L82.768,25.546L82.633,25.335L82.497,25.124L82.359,24.913L82.221,24.704L82.081,24.496L81.94,24.288L81.797,24.082L81.654,23.876L81.509,23.671L81.363,23.467L81.216,23.264L81.068,23.062L80.918,22.861L80.767,22.661L80.615,22.462L80.462,22.263L80.308,22.066L80.153,21.87L79.996,21.674L79.839,21.48L79.68,21.286L79.52,21.093L79.359,20.902L79.196,20.711L79.033,20.521L78.869,20.332L78.703,20.145L78.536,19.958L78.368,19.772L78.2,19.588L78.03,19.404L77.859,19.221L77.686,19.04L77.513,18.859L77.339,18.68L77.164,18.501L76.987,18.324L76.81,18.147L76.631,17.972L76.452,17.797L76.271,17.624L76.089,17.452L75.907,17.281L75.723,17.111L75.538,16.942L75.353,16.774L75.166,16.608L74.978,16.442L74.789,16.278L74.6,16.114L74.409,15.952L74.217,15.791L74.025,15.631L73.831,15.472L73.637,15.314L73.441,15.158L73.245,15.003L73.047,14.848L72.849,14.695L72.65,14.543L72.449,14.393L72.248,14.243L72.046,14.095L71.843,13.948L71.639,13.802L71.435,13.657L71.229,13.513L71.022,13.371L70.815,13.23L70.606,13.09L70.397,12.951L70.187,12.814L69.976,12.678L69.764,12.543L69.552,12.409L69.338,12.277L69.124,12.145L68.909,12.016L68.693,11.887L68.476,11.759L68.258,11.633L68.04,11.509L67.82,11.385L67.6,11.263L67.379,11.142L67.157,11.022L66.935,10.904L66.712,10.787L66.487,10.671L66.263,10.557L66.037,10.444L65.811,10.332L65.583,10.222L65.355,10.112L65.127,10.005L64.897,9.898L64.667,9.793L64.436,9.69L64.205,9.588L63.972,9.487L63.739,9.387L63.505,9.289L63.271,9.192L63.036,9.097L62.8,9.003L62.563,8.911L62.326,8.819L62.088,8.73L61.849,8.641L61.61,8.555L61.37,8.469L61.129,8.385L60.888,8.303L60.646,8.221L60.403,8.142L60.16,8.063L59.916,7.987L59.671,7.911L59.426,7.838L59.18,7.765L58.934,7.694L58.687,7.625L58.439,7.557L58.19,7.49L57.941,7.426L57.692,7.362L57.442,7.3L57.191,7.24L56.94,7.181L56.688,7.123L56.435,7.068L56.182,7.013L55.928,6.96L55.674,6.909L55.419,6.859L55.164,6.811L54.908,6.765L54.652,6.72L54.395,6.676L54.137,6.634L53.879,6.594L53.62,6.555L53.361,6.518L53.101,6.483L52.841,6.449L52.58,6.416L52.319,6.385L52.057,6.356L51.795,6.329L51.532,6.303L51.269,6.279L51.005,6.256L50.741,6.235L50.476,6.216L50.21,6.198L49.945,6.182L49.678,6.168L49.412,6.155L49.144,6.144L48.877,6.135L48.609,6.127L48.34,6.121L48.071,6.117L47.801,6.114L47.531,6.113L47.261,6.114Z" style="fill:white;"/>
    </g>
</svg>
