<?xml version="1.0" encoding="UTF-8" standalone="no"?>
<!DOCTYPE svg PUBLIC "-//W3C//DTD SVG 1.1//EN" "http://www.w3.org/Graphics/SVG/1.1/DTD/svg11.dtd">
<svg width="100%" height="100%" viewBox="0 0 160 28" version="1.1" xmlns="http://www.w3.org/2000/svg" xmlns:xlink="http://www.w3.org/1999/xlink" xml:space="preserve" style="fill-rule:evenodd;clip-rule:evenodd;stroke-linejoin:round;stroke-miterlimit:1.41421;">
    <g transform="matrix(1,0,0,1,-0.940017,-1.10708)">
        <g transform="matrix(1.10989,0,0,1.10989,-13.9653,-3.97963)">
            <path d="M26.283,4.583L29.317,13.922L39.136,13.922L31.193,19.693L34.227,29.032L26.283,23.26L18.339,29.032L21.373,19.693L13.43,13.922L23.249,13.922L26.283,4.583Z" style="fill:rgb(247,146,30);"/>
        </g>
        <g transform="matrix(1.10989,0,0,1.10989,18.7485,-3.97963)">
            <path d="M26.283,4.583L29.317,13.922L39.136,13.922L31.193,19.693L34.227,29.032L26.283,23.26L18.339,29.032L21.373,19.693L13.43,13.922L23.249,13.922L26.283,4.583Z" style="fill:rgb(247,146,30);"/>
        </g>
        <g transform="matrix(1.10989,0,0,1.10989,51.6537,-3.97963)">
            <path d="M26.283,4.583L29.317,13.922L39.136,13.922L31.193,19.693L34.227,29.032L26.283,23.26L18.339,29.032L21.373,19.693L13.43,13.922L23.249,13.922L26.283,4.583Z" style="fill:rgb(247,146,30);"/>
        </g>
        <g transform="matrix(1.10989,0,0,1.10989,84.6144,-3.97963)">
            <path d="M26.283,4.583L29.317,13.922L39.136,13.922L31.193,19.693L34.227,29.032L26.283,23.26L18.339,29.032L21.373,19.693L13.43,13.922L23.249,13.922L26.283,4.583Z" style="fill:rgb(247,146,30);"/>
        </g>
        <g transform="matrix(1.10989,0,0,1.10989,117.463,-3.97963)">
            <path d="M26.283,4.583L29.317,13.922L39.136,13.922L31.193,19.693L34.227,29.032L26.283,23.26L18.339,29.032L21.373,19.693L13.43,13.922L23.249,13.922L26.283,4.583Z" style="fill:rgb(247,146,30);"/>
        </g>
    </g>
</svg>
