<?xml version="1.0" encoding="utf-8"?>
<!-- Generator: Adobe Illustrator 20.0.0, SVG Export Plug-In . SVG Version: 6.00 Build 0)  -->
<svg version="1.1" id="Layer_1" xmlns="http://www.w3.org/2000/svg" xmlns:xlink="http://www.w3.org/1999/xlink" x="0px" y="0px"
	 viewBox="0 0 40.32 40.32" style="enable-background:new 0 0 40.32 40.32;" xml:space="preserve">
<style type="text/css">
	.st0{fill:#F7921E;}
</style>
<g>
	<polygon class="st0" points="37.123,2.995 34.299,5.818 34.299,5.818 18.802,21.314 11.588,14.1 8.449,17.239 18.802,27.592 
		37.136,9.26 37.136,9.26 40.262,6.134 	"/>
	<path class="st0" d="M35.356,14.576c0.651,1.737,0.989,3.595,0.989,5.584c0,2.262-0.432,4.358-1.268,6.298
		c-0.318,0.783-0.733,1.53-1.227,2.247c-0.646,0.998-1.385,1.96-2.285,2.86c-3.186,3.186-6.988,4.78-11.405,4.78
		s-8.219-1.593-11.405-4.78s-4.78-6.988-4.78-11.405s1.593-8.219,4.78-11.405s6.988-4.78,11.405-4.78
		c3.522,0,6.645,1.035,9.384,3.063l2.866-2.866C28.889,1.404,24.811,0,20.16,0C14.607,0,9.859,1.972,5.915,5.915S0,14.607,0,20.16
		s1.972,10.301,5.915,14.245s8.692,5.915,14.245,5.915s10.301-1.972,14.245-5.915s5.915-8.692,5.915-14.245
		c0-3.14-0.644-6.017-1.908-8.641L35.356,14.576z"/>
</g>
</svg>
