<?xml version="1.0" encoding="UTF-8" standalone="no"?>
<!DOCTYPE svg PUBLIC "-//W3C//DTD SVG 1.1//EN" "http://www.w3.org/Graphics/SVG/1.1/DTD/svg11.dtd">
<svg width="100%" height="100%" viewBox="0 0 92 92" version="1.1" xmlns="http://www.w3.org/2000/svg" xmlns:xlink="http://www.w3.org/1999/xlink" xml:space="preserve" style="fill-rule:evenodd;clip-rule:evenodd;stroke-linejoin:round;stroke-miterlimit:1.41421;">
    <g transform="matrix(1,0,0,1,0,-0.225998)">
        <path d="M12.516,66.969C9.039,66.969 6.082,68.187 3.648,70.621C1.219,73.055 0,76.008 0,79.484C0,82.961 1.215,85.914 3.648,88.347C6.082,90.781 9.039,92 12.516,92C15.992,92 18.945,90.781 21.379,88.347C23.812,85.914 25.027,82.961 25.027,79.484C25.027,76.008 23.812,73.055 21.379,70.621C18.945,68.187 15.992,66.969 12.516,66.969ZM4.496,33.597C11.449,34.164 18.098,35.914 24.441,38.847C30.785,41.777 36.414,45.722 41.324,50.676C46.277,55.586 50.219,61.215 53.152,67.558C56.086,73.902 57.836,80.551 58.402,87.5C58.488,88.719 58.117,89.762 57.293,90.629C56.508,91.543 55.488,92 54.227,92L45.43,92C44.344,92 43.41,91.64 42.625,90.922C41.844,90.207 41.41,89.305 41.324,88.219C40.367,78.265 36.359,69.762 29.297,62.699C22.234,55.64 13.73,51.633 3.781,50.676C2.695,50.59 1.793,50.156 1.074,49.371C0.359,48.59 0,47.656 0,46.57L0,37.769C0,36.508 0.457,35.488 1.367,34.707C2.105,33.969 3.043,33.597 4.172,33.597L4.496,33.597ZM4.367,0.226C15.75,0.793 26.648,3.398 37.055,8.047C47.461,12.699 56.703,19.086 64.789,27.211C72.914,35.293 79.301,44.535 83.949,54.945C88.598,65.351 91.207,76.246 91.77,87.633C91.855,88.805 91.465,89.828 90.598,90.695C89.812,91.566 88.816,92 87.598,92L78.277,92C77.148,92 76.184,91.617 75.379,90.859C74.574,90.097 74.152,89.176 74.105,88.09C73.586,78.746 71.391,69.871 67.523,61.461C63.656,53.055 58.629,45.754 52.438,39.562C46.242,33.371 38.945,28.34 30.535,24.472C22.129,20.605 13.254,18.39 3.909,17.824C2.824,17.781 1.902,17.359 1.141,16.555C0.379,15.75 0,14.805 0,13.719L0,4.398C0,3.183 0.434,2.183 1.305,1.398C2.086,0.617 3.043,0.226 4.172,0.226L4.367,0.226Z" style="fill:white;"/>
    </g>
</svg>
