<?xml version="1.0" encoding="utf-8"?>
<!-- Generator: Adobe Illustrator 20.0.0, SVG Export Plug-In . SVG Version: 6.00 Build 0)  -->
<svg version="1.1" id="Layer_1" xmlns="http://www.w3.org/2000/svg" xmlns:xlink="http://www.w3.org/1999/xlink" x="0px" y="0px"
	 viewBox="0 0 40.32 40.32" style="enable-background:new 0 0 40.32 40.32;" xml:space="preserve">
<style type="text/css">
	.st0{fill:#559EF2;}
</style>
<g>
	<path class="st0" d="M31.702,27.901l8.618,8.646l-3.799,3.799L27.903,31.7v-2.018l-0.712-0.712
		c-3.008,2.612-6.57,3.918-10.685,3.918c-4.593,0-8.491-1.583-11.697-4.749S0,21.094,0,16.503S1.603,8.014,4.808,4.808
		S11.912,0,16.505,0c4.591,0,8.469,1.603,11.635,4.808s4.749,7.104,4.749,11.695c0,4.116-1.306,7.678-3.918,10.685l0.712,0.712
		H31.702z M8.43,24.576c2.216,2.216,4.907,3.324,8.076,3.324c3.166,0,5.857-1.108,8.073-3.324s3.324-4.907,3.324-8.073
		s-1.108-5.857-3.324-8.073s-4.907-3.324-8.073-3.324c-3.169,0-5.86,1.108-8.076,3.324s-3.324,4.907-3.324,8.073
		S6.213,22.36,8.43,24.576z"/>
</g>
</svg>
