<?xml version="1.0" encoding="UTF-8" standalone="no"?>
<!DOCTYPE svg PUBLIC "-//W3C//DTD SVG 1.1//EN" "http://www.w3.org/Graphics/SVG/1.1/DTD/svg11.dtd">
<svg width="100%" height="100%" viewBox="0 0 116 78" version="1.1" xmlns="http://www.w3.org/2000/svg" xmlns:xlink="http://www.w3.org/1999/xlink" xml:space="preserve" style="fill-rule:evenodd;clip-rule:evenodd;stroke-linejoin:round;stroke-miterlimit:1.41421;">
    <g transform="matrix(1,0,0,1,7.36912,-1.25663)">
        <path d="M48.81,5.931L-4.917,50.095L-5.12,50.236C-5.195,50.271 -5.267,50.312 -5.345,50.341C-5.577,50.428 -5.831,50.456 -6.077,50.421C-6.241,50.399 -6.4,50.349 -6.548,50.274C-6.696,50.199 -6.83,50.1 -6.945,49.981C-7.235,49.682 -7.39,49.267 -7.367,48.852C-7.358,48.686 -7.321,48.524 -7.258,48.37C-7.196,48.217 -7.108,48.075 -6.999,47.95C-6.945,47.887 -6.881,47.835 -6.822,47.777L49.358,1.598C49.428,1.549 49.495,1.494 49.57,1.452C49.72,1.367 49.883,1.308 50.053,1.279C50.138,1.264 50.225,1.264 50.31,1.257C50.396,1.264 50.481,1.271 50.567,1.279C50.787,1.337 50.85,1.338 51.05,1.452C51.125,1.494 51.192,1.549 51.263,1.598L107.442,47.777C107.501,47.835 107.565,47.887 107.62,47.95C107.838,48.2 107.968,48.52 107.987,48.852C107.996,49.017 107.978,49.183 107.933,49.343C107.888,49.502 107.817,49.653 107.723,49.789C107.486,50.132 107.109,50.364 106.697,50.421C106.533,50.444 106.366,50.44 106.203,50.408C106.04,50.377 105.884,50.318 105.741,50.236C105.669,50.194 105.605,50.142 105.537,50.095L51.81,5.931L51.81,77.397C51.805,77.465 51.805,77.534 51.796,77.601C51.768,77.805 51.698,78.001 51.592,78.177C51.485,78.352 51.343,78.504 51.175,78.623C50.722,78.943 50.113,78.984 49.62,78.729C49.499,78.666 49.386,78.587 49.286,78.493C49.086,78.307 48.94,78.065 48.866,77.802C48.816,77.626 48.822,77.578 48.81,77.397L48.81,5.931Z" style="fill:rgb(247,146,30);"/>
    </g>
</svg>
