<?xml version="1.0" encoding="UTF-8" standalone="no"?>
<!DOCTYPE svg PUBLIC "-//W3C//DTD SVG 1.1//EN" "http://www.w3.org/Graphics/SVG/1.1/DTD/svg11.dtd">
<svg width="100%" height="100%" viewBox="0 0 30 30" version="1.1" xmlns="http://www.w3.org/2000/svg" xmlns:xlink="http://www.w3.org/1999/xlink" xml:space="preserve" style="fill-rule:evenodd;clip-rule:evenodd;stroke-linejoin:round;stroke-miterlimit:1.41421;">
    <path d="M15.004,0.001L15.105,0.003L15.206,0.006L15.306,0.01L15.406,0.016L15.506,0.023L15.605,0.031L15.704,0.041L15.803,0.051L15.901,0.063L15.999,0.076L16.097,0.09L16.194,0.106L16.291,0.123L16.387,0.141L16.483,0.16L16.579,0.18L16.674,0.201L16.769,0.224L16.863,0.247L16.957,0.272L17.05,0.298L17.143,0.325L17.235,0.353L17.327,0.382L17.418,0.413L17.509,0.444L17.6,0.476L17.689,0.51L17.779,0.545L17.868,0.58L17.956,0.617L18.044,0.655L18.131,0.694L18.217,0.733L18.303,0.774L18.389,0.816L18.474,0.859L18.558,0.903L18.642,0.948L18.725,0.994L18.807,1.04L18.889,1.088L18.97,1.137L19.051,1.186L19.131,1.237L19.21,1.288L19.289,1.341L19.367,1.394L19.444,1.449L19.521,1.504L19.596,1.56L19.672,1.617L19.746,1.675L19.82,1.733L19.893,1.793L19.965,1.853L20.037,1.915L20.108,1.977L20.178,2.04L20.247,2.103L20.316,2.168L20.383,2.233L20.45,2.299L20.516,2.366L20.582,2.434L20.646,2.503L20.71,2.572L20.773,2.642L20.835,2.713L20.896,2.785L20.957,2.857L21.016,2.93L21.075,3.004L21.133,3.078L21.19,3.153L21.246,3.229L21.301,3.306L21.355,3.383L21.409,3.461L21.461,3.54L21.513,3.619L21.563,3.699L21.613,3.779L21.662,3.861L21.709,3.942L21.756,4.025L21.802,4.108L21.847,4.192L21.891,4.276L21.934,4.361L21.975,4.446L22.016,4.532L22.056,4.619L22.095,4.706L22.133,4.794L22.169,4.882L22.205,4.971L22.24,5.06L22.273,5.15L22.306,5.241L22.337,5.331L22.367,5.423L22.397,5.515L22.425,5.607L22.452,5.7L22.478,5.793L22.503,5.887L22.526,5.981L22.549,6.076L22.57,6.171L22.59,6.266L22.609,6.362L22.627,6.459L22.644,6.556L22.659,6.653L22.674,6.75L22.687,6.848L22.699,6.947L22.709,7.045L22.719,7.144L22.727,7.244L22.734,7.343L22.74,7.444L22.744,7.544L22.747,7.645L22.749,7.746L22.75,7.847L22.749,7.946L22.747,8.045L22.744,8.143L22.74,8.241L22.735,8.338L22.728,8.436L22.72,8.533L22.711,8.629L22.701,8.726L22.69,8.822L22.677,8.917L22.664,9.013L22.649,9.107L22.633,9.202L22.616,9.296L22.598,9.39L22.579,9.483L22.558,9.576L22.537,9.669L22.514,9.761L22.491,9.852L22.466,9.944L22.44,10.034L22.414,10.125L22.386,10.215L22.357,10.304L22.327,10.393L22.296,10.481L22.264,10.569L22.231,10.657L22.197,10.744L22.162,10.83L22.126,10.916L22.089,11.002L22.051,11.087L22.012,11.171L21.972,11.255L21.931,11.338L21.889,11.421L21.846,11.503L21.803,11.585L21.758,11.666L21.713,11.746L21.666,11.826L21.619,11.906L21.57,11.984L21.521,12.062L21.471,12.14L21.42,12.216L21.368,12.293L21.316,12.368L21.262,12.443L21.208,12.517L21.152,12.591L21.096,12.664L21.039,12.736L20.982,12.807L20.923,12.878L20.864,12.948L20.803,13.018L20.742,13.086L20.681,13.154L20.618,13.222L20.555,13.288L20.65,13.302L20.745,13.318L20.84,13.334L20.934,13.351L21.028,13.37L21.121,13.389L21.214,13.41L21.307,13.431L21.4,13.454L21.491,13.477L21.583,13.502L21.674,13.527L21.765,13.554L21.855,13.581L21.945,13.61L22.034,13.639L22.123,13.67L22.212,13.701L22.3,13.733L22.387,13.767L22.474,13.801L22.561,13.836L22.647,13.872L22.733,13.909L22.818,13.947L22.903,13.986L22.987,14.026L23.071,14.067L23.154,14.109L23.236,14.151L23.318,14.194L23.4,14.239L23.481,14.284L23.561,14.33L23.641,14.377L23.721,14.424L23.799,14.473L23.878,14.522L23.955,14.572L24.032,14.624L24.109,14.675L24.184,14.728L24.26,14.782L24.334,14.836L24.408,14.891L24.481,14.947L24.554,15.003L24.626,15.061L24.698,15.119L24.768,15.178L24.839,15.238L24.908,15.298L24.977,15.359L25.045,15.421L25.112,15.484L25.179,15.547L25.245,15.611L25.31,15.676L25.375,15.742L25.439,15.808L25.502,15.875L25.565,15.943L25.626,16.011L25.687,16.08L25.748,16.15L25.807,16.22L25.866,16.291L25.924,16.362L25.981,16.435L26.037,16.508L26.093,16.581L26.148,16.655L26.202,16.73L26.255,16.805L26.308,16.881L26.359,16.958L26.41,17.035L26.46,17.113L26.509,17.191L26.557,17.27L26.605,17.35L26.652,17.43L26.697,17.51L26.742,17.591L26.786,17.673L26.829,17.755L26.872,17.838L26.913,17.921L26.953,18.005L26.993,18.09L27.032,18.174L27.069,18.26L27.106,18.345L27.142,18.432L27.177,18.519L27.211,18.606L27.244,18.694L27.276,18.782L27.307,18.87L27.337,18.959L27.367,19.049L27.395,19.139L27.422,19.229L27.448,19.32L27.474,19.411L27.498,19.503L27.521,19.595L27.543,19.687L27.564,19.78L27.585,19.874L27.604,19.967L27.622,20.061L27.639,20.155L27.655,20.25L27.67,20.345L27.684,20.441L27.696,20.536L27.708,20.632L27.719,20.729L27.728,20.826L27.737,20.923L27.744,21.02L27.75,21.118L27.755,21.216L27.759,21.314L27.762,21.412L27.764,21.511L27.765,21.61L27.765,30.017L2.041,30.017L2.041,21.61L2.041,21.511L2.043,21.412L2.046,21.314L2.05,21.216L2.055,21.118L2.061,21.02L2.068,20.923L2.077,20.826L2.086,20.729L2.097,20.632L2.109,20.536L2.122,20.441L2.135,20.345L2.15,20.25L2.166,20.155L2.183,20.061L2.202,19.967L2.221,19.874L2.241,19.78L2.262,19.687L2.284,19.595L2.307,19.503L2.332,19.411L2.357,19.32L2.383,19.229L2.41,19.139L2.439,19.049L2.468,18.959L2.498,18.87L2.529,18.782L2.561,18.694L2.594,18.606L2.628,18.519L2.663,18.432L2.699,18.345L2.736,18.26L2.774,18.174L2.812,18.09L2.852,18.005L2.892,17.921L2.934,17.838L2.976,17.755L3.019,17.673L3.063,17.591L3.108,17.51L3.154,17.43L3.2,17.35L3.248,17.27L3.296,17.191L3.345,17.113L3.395,17.035L3.446,16.958L3.498,16.881L3.55,16.805L3.603,16.73L3.657,16.655L3.712,16.581L3.768,16.508L3.824,16.435L3.881,16.362L3.939,16.291L3.998,16.22L4.058,16.15L4.118,16.08L4.179,16.011L4.241,15.943L4.303,15.875L4.366,15.808L4.43,15.742L4.495,15.676L4.56,15.611L4.626,15.547L4.693,15.484L4.76,15.421L4.828,15.359L4.897,15.298L4.967,15.238L5.037,15.178L5.108,15.119L5.179,15.061L5.251,15.003L5.324,14.947L5.397,14.891L5.471,14.836L5.546,14.782L5.621,14.728L5.697,14.675L5.773,14.624L5.85,14.572L5.928,14.522L6.006,14.473L6.085,14.424L6.164,14.377L6.244,14.33L6.324,14.284L6.405,14.239L6.487,14.194L6.569,14.151L6.651,14.109L6.735,14.067L6.818,14.026L6.902,13.986L6.987,13.947L7.072,13.909L7.158,13.872L7.244,13.836L7.331,13.801L7.418,13.767L7.505,13.733L7.594,13.701L7.682,13.67L7.771,13.639L7.86,13.61L7.95,13.581L8.04,13.554L8.131,13.527L8.222,13.502L8.314,13.477L8.406,13.454L8.498,13.431L8.591,13.41L8.684,13.389L8.777,13.37L8.871,13.351L8.965,13.334L9.06,13.318L9.155,13.302L9.25,13.288L9.187,13.222L9.124,13.154L9.063,13.086L9.002,13.018L8.942,12.948L8.882,12.878L8.824,12.807L8.766,12.736L8.709,12.664L8.653,12.591L8.598,12.517L8.543,12.443L8.49,12.368L8.437,12.293L8.385,12.216L8.334,12.14L8.284,12.062L8.235,11.984L8.187,11.906L8.139,11.826L8.093,11.746L8.047,11.666L8.002,11.585L7.959,11.503L7.916,11.421L7.874,11.338L7.833,11.255L7.793,11.171L7.754,11.087L7.716,11.002L7.679,10.916L7.643,10.83L7.608,10.744L7.574,10.657L7.541,10.569L7.509,10.481L7.478,10.393L7.448,10.304L7.42,10.215L7.392,10.125L7.365,10.034L7.339,9.944L7.314,9.852L7.291,9.761L7.268,9.669L7.247,9.576L7.227,9.483L7.207,9.39L7.189,9.296L7.172,9.202L7.156,9.107L7.142,9.013L7.128,8.917L7.116,8.822L7.104,8.726L7.094,8.629L7.085,8.533L7.077,8.436L7.071,8.338L7.065,8.241L7.061,8.143L7.058,8.045L7.056,7.946L7.055,7.847L7.056,7.746L7.058,7.645L7.061,7.544L7.066,7.444L7.071,7.343L7.078,7.244L7.087,7.144L7.096,7.045L7.107,6.947L7.119,6.848L7.132,6.75L7.146,6.653L7.161,6.556L7.178,6.459L7.196,6.362L7.215,6.266L7.235,6.171L7.257,6.076L7.279,5.981L7.303,5.887L7.327,5.793L7.353,5.7L7.38,5.607L7.409,5.515L7.438,5.423L7.468,5.331L7.499,5.241L7.532,5.15L7.566,5.06L7.6,4.971L7.636,4.882L7.673,4.794L7.71,4.706L7.749,4.619L7.789,4.532L7.83,4.446L7.872,4.361L7.914,4.276L7.958,4.192L8.003,4.108L8.049,4.025L8.096,3.942L8.144,3.861L8.192,3.779L8.242,3.699L8.292,3.619L8.344,3.54L8.396,3.461L8.45,3.383L8.504,3.306L8.559,3.229L8.615,3.153L8.672,3.078L8.73,3.004L8.789,2.93L8.848,2.857L8.909,2.785L8.97,2.713L9.032,2.642L9.095,2.572L9.159,2.503L9.223,2.434L9.289,2.366L9.355,2.299L9.422,2.233L9.49,2.168L9.558,2.103L9.628,2.04L9.698,1.977L9.768,1.915L9.84,1.853L9.912,1.793L9.985,1.733L10.059,1.675L10.134,1.617L10.209,1.56L10.285,1.504L10.361,1.449L10.439,1.394L10.516,1.341L10.595,1.288L10.674,1.237L10.754,1.186L10.835,1.137L10.916,1.088L10.998,1.04L11.08,0.994L11.163,0.948L11.247,0.903L11.331,0.859L11.416,0.816L11.502,0.774L11.588,0.733L11.674,0.694L11.762,0.655L11.849,0.617L11.938,0.58L12.026,0.545L12.116,0.51L12.206,0.476L12.296,0.444L12.387,0.413L12.478,0.382L12.57,0.353L12.663,0.325L12.755,0.298L12.849,0.272L12.942,0.247L13.037,0.224L13.131,0.201L13.226,0.18L13.322,0.16L13.418,0.141L13.514,0.123L13.611,0.106L13.708,0.09L13.806,0.076L13.904,0.063L14.002,0.051L14.101,0.041L14.2,0.031L14.299,0.023L14.399,0.016L14.499,0.01L14.599,0.006L14.7,0.003L14.801,0.001L14.903,0L15.004,0.001ZM14.833,2.5L14.764,2.502L14.695,2.504L14.626,2.507L14.557,2.511L14.489,2.516L14.421,2.521L14.354,2.528L14.286,2.535L14.219,2.543L14.153,2.552L14.086,2.562L14.02,2.572L13.954,2.584L13.889,2.596L13.824,2.609L13.759,2.622L13.694,2.637L13.63,2.652L13.566,2.668L13.502,2.685L13.439,2.703L13.376,2.721L13.313,2.74L13.251,2.76L13.189,2.781L13.127,2.802L13.066,2.824L13.005,2.847L12.944,2.87L12.884,2.894L12.824,2.919L12.764,2.945L12.705,2.971L12.646,2.998L12.588,3.026L12.529,3.055L12.472,3.084L12.414,3.114L12.357,3.144L12.301,3.175L12.245,3.207L12.189,3.24L12.133,3.273L12.079,3.307L12.024,3.341L11.97,3.377L11.916,3.412L11.863,3.449L11.81,3.486L11.758,3.523L11.706,3.562L11.655,3.601L11.604,3.64L11.554,3.68L11.504,3.721L11.454,3.762L11.405,3.804L11.357,3.847L11.309,3.89L11.262,3.933L11.215,3.977L11.169,4.022L11.123,4.067L11.077,4.113L11.033,4.159L10.989,4.206L10.945,4.254L10.902,4.302L10.86,4.35L10.818,4.399L10.776,4.448L10.736,4.498L10.696,4.549L10.656,4.599L10.617,4.651L10.579,4.703L10.541,4.755L10.504,4.808L10.468,4.861L10.432,4.915L10.397,4.969L10.362,5.023L10.329,5.078L10.295,5.133L10.263,5.189L10.231,5.245L10.2,5.302L10.169,5.359L10.139,5.416L10.11,5.474L10.082,5.532L10.054,5.591L10.027,5.65L10.001,5.709L9.975,5.768L9.95,5.828L9.926,5.889L9.902,5.949L9.879,6.01L9.857,6.072L9.836,6.133L9.815,6.195L9.796,6.258L9.776,6.321L9.758,6.384L9.741,6.447L9.724,6.511L9.708,6.574L9.692,6.639L9.678,6.703L9.664,6.768L9.651,6.833L9.639,6.899L9.628,6.965L9.617,7.031L9.608,7.097L9.599,7.164L9.591,7.231L9.583,7.298L9.577,7.366L9.571,7.434L9.566,7.502L9.563,7.57L9.559,7.639L9.557,7.708L9.556,7.777L9.556,7.847L9.556,7.915L9.557,7.983L9.559,8.05L9.562,8.117L9.566,8.184L9.57,8.25L9.576,8.317L9.582,8.383L9.589,8.448L9.597,8.514L9.605,8.579L9.614,8.644L9.624,8.708L9.635,8.773L9.647,8.837L9.659,8.9L9.672,8.964L9.686,9.027L9.7,9.09L9.716,9.152L9.732,9.214L9.748,9.276L9.766,9.338L9.784,9.399L9.803,9.46L9.823,9.521L9.843,9.581L9.864,9.641L9.886,9.701L9.908,9.761L9.931,9.82L9.955,9.878L9.979,9.937L10.005,9.995L10.03,10.053L10.057,10.11L10.084,10.167L10.112,10.224L10.14,10.28L10.169,10.336L10.199,10.391L10.23,10.447L10.261,10.501L10.292,10.556L10.325,10.61L10.358,10.663L10.391,10.717L10.425,10.77L10.46,10.822L10.495,10.874L10.531,10.925L10.568,10.977L10.605,11.027L10.643,11.077L10.681,11.127L10.72,11.177L10.76,11.225L10.8,11.274L10.84,11.322L10.881,11.369L10.923,11.416L10.965,11.463L11.008,11.509L11.061,11.565L11.175,11.692L11.279,11.827L11.374,11.969L11.459,12.117L11.534,12.27L11.598,12.428L11.651,12.59L11.693,12.755L11.724,12.923L11.743,13.093L11.75,13.263L11.746,13.434L11.73,13.604L11.703,13.772L11.664,13.938L11.614,14.101L11.554,14.261L11.482,14.415L11.4,14.565L11.308,14.708L11.206,14.845L11.095,14.975L10.976,15.097L10.849,15.211L10.714,15.315L10.572,15.41L10.424,15.495L10.271,15.57L10.113,15.635L9.951,15.688L9.786,15.73L9.618,15.761L9.537,15.773L9.47,15.784L9.404,15.795L9.338,15.807L9.272,15.82L9.207,15.834L9.141,15.848L9.076,15.863L9.012,15.879L8.947,15.895L8.883,15.913L8.82,15.931L8.756,15.949L8.693,15.968L8.63,15.988L8.567,16.009L8.505,16.03L8.443,16.052L8.381,16.075L8.32,16.098L8.259,16.122L8.198,16.147L8.138,16.172L8.078,16.198L8.018,16.225L7.959,16.252L7.9,16.28L7.841,16.309L7.783,16.338L7.725,16.368L7.667,16.398L7.61,16.429L7.553,16.461L7.497,16.493L7.44,16.526L7.385,16.56L7.329,16.594L7.274,16.629L7.22,16.664L7.166,16.7L7.112,16.736L7.059,16.773L7.006,16.811L6.953,16.849L6.901,16.888L6.849,16.927L6.798,16.967L6.747,17.008L6.697,17.049L6.647,17.09L6.598,17.132L6.549,17.175L6.5,17.218L6.453,17.262L6.405,17.306L6.358,17.35L6.311,17.396L6.265,17.441L6.22,17.488L6.175,17.534L6.13,17.581L6.086,17.629L6.043,17.677L6,17.726L5.957,17.775L5.915,17.824L5.874,17.874L5.833,17.925L5.793,17.976L5.753,18.027L5.714,18.079L5.675,18.131L5.637,18.184L5.6,18.237L5.563,18.29L5.527,18.344L5.491,18.398L5.456,18.453L5.421,18.508L5.387,18.563L5.354,18.619L5.321,18.676L5.289,18.732L5.258,18.789L5.227,18.847L5.196,18.904L5.167,18.962L5.138,19.021L5.109,19.08L5.082,19.139L5.054,19.198L5.028,19.258L5.002,19.318L4.977,19.379L4.953,19.439L4.929,19.5L4.906,19.562L4.883,19.624L4.861,19.686L4.84,19.748L4.82,19.811L4.8,19.874L4.781,19.937L4.763,20.001L4.745,20.065L4.728,20.129L4.712,20.193L4.696,20.258L4.681,20.323L4.667,20.388L4.654,20.454L4.641,20.52L4.629,20.586L4.618,20.652L4.607,20.719L4.598,20.786L4.589,20.853L4.58,20.921L4.573,20.988L4.566,21.056L4.56,21.125L4.555,21.193L4.551,21.262L4.547,21.331L4.544,21.401L4.542,21.47L4.541,21.54L4.541,21.618L4.541,27.517L25.265,27.517L25.265,21.618L25.264,21.54L25.263,21.47L25.261,21.401L25.258,21.331L25.254,21.262L25.25,21.193L25.245,21.125L25.239,21.056L25.232,20.988L25.225,20.921L25.217,20.853L25.208,20.786L25.198,20.719L25.187,20.652L25.176,20.586L25.164,20.52L25.152,20.454L25.138,20.388L25.124,20.323L25.109,20.258L25.094,20.193L25.077,20.129L25.06,20.065L25.043,20.001L25.024,19.937L25.005,19.874L24.985,19.811L24.965,19.748L24.944,19.686L24.922,19.624L24.9,19.562L24.876,19.5L24.853,19.439L24.828,19.379L24.803,19.318L24.777,19.258L24.751,19.198L24.724,19.139L24.696,19.08L24.668,19.021L24.639,18.962L24.609,18.904L24.579,18.847L24.548,18.789L24.516,18.732L24.484,18.676L24.451,18.619L24.418,18.563L24.384,18.508L24.349,18.453L24.314,18.398L24.279,18.344L24.242,18.29L24.205,18.237L24.168,18.184L24.13,18.131L24.091,18.079L24.052,18.027L24.012,17.976L23.972,17.925L23.931,17.874L23.89,17.824L23.848,17.775L23.805,17.726L23.763,17.677L23.719,17.629L23.675,17.581L23.63,17.534L23.585,17.488L23.54,17.441L23.494,17.396L23.447,17.35L23.4,17.306L23.353,17.262L23.305,17.218L23.256,17.175L23.207,17.132L23.158,17.09L23.108,17.049L23.058,17.008L23.007,16.967L22.956,16.927L22.904,16.888L22.852,16.849L22.8,16.811L22.747,16.773L22.693,16.736L22.64,16.7L22.585,16.664L22.531,16.629L22.476,16.594L22.42,16.56L22.365,16.526L22.309,16.493L22.252,16.461L22.195,16.429L22.138,16.398L22.08,16.368L22.022,16.338L21.964,16.309L21.905,16.28L21.846,16.252L21.787,16.225L21.727,16.198L21.667,16.172L21.607,16.147L21.546,16.122L21.485,16.098L21.424,16.075L21.362,16.052L21.3,16.03L21.238,16.009L21.175,15.988L21.112,15.968L21.049,15.949L20.986,15.931L20.922,15.913L20.858,15.895L20.793,15.879L20.729,15.863L20.664,15.848L20.599,15.834L20.533,15.82L20.467,15.807L20.401,15.795L20.335,15.784L20.268,15.773L20.187,15.761L20.019,15.73L19.854,15.688L19.692,15.635L19.534,15.57L19.381,15.495L19.233,15.41L19.091,15.315L18.957,15.211L18.829,15.097L18.71,14.975L18.599,14.845L18.498,14.708L18.405,14.565L18.323,14.415L18.252,14.261L18.191,14.101L18.141,13.938L18.102,13.772L18.075,13.604L18.059,13.434L18.055,13.263L18.063,13.093L18.082,12.923L18.112,12.755L18.154,12.59L18.208,12.428L18.272,12.27L18.346,12.117L18.431,11.969L18.526,11.827L18.631,11.692L18.744,11.565L18.797,11.509L18.84,11.463L18.882,11.416L18.924,11.369L18.965,11.322L19.006,11.274L19.046,11.225L19.085,11.177L19.124,11.127L19.162,11.077L19.2,11.027L19.237,10.977L19.274,10.925L19.31,10.874L19.345,10.822L19.38,10.77L19.414,10.717L19.448,10.664L19.481,10.61L19.513,10.556L19.545,10.501L19.576,10.447L19.606,10.391L19.636,10.336L19.665,10.28L19.693,10.224L19.721,10.167L19.748,10.11L19.775,10.053L19.801,9.995L19.826,9.937L19.85,9.878L19.874,9.82L19.897,9.761L19.92,9.701L19.941,9.641L19.962,9.581L19.983,9.521L20.002,9.46L20.021,9.399L20.039,9.338L20.057,9.276L20.074,9.214L20.09,9.152L20.105,9.09L20.119,9.027L20.133,8.964L20.146,8.9L20.159,8.837L20.17,8.773L20.181,8.708L20.191,8.644L20.2,8.579L20.209,8.514L20.216,8.448L20.223,8.383L20.229,8.317L20.235,8.25L20.239,8.184L20.243,8.117L20.246,8.05L20.248,7.983L20.249,7.915L20.25,7.847L20.249,7.777L20.248,7.708L20.246,7.639L20.243,7.57L20.239,7.502L20.234,7.434L20.228,7.366L20.222,7.298L20.215,7.231L20.207,7.164L20.198,7.097L20.188,7.031L20.177,6.965L20.166,6.899L20.154,6.833L20.141,6.768L20.127,6.703L20.113,6.639L20.098,6.574L20.081,6.51L20.065,6.447L20.047,6.384L20.029,6.321L20.01,6.258L19.99,6.195L19.969,6.133L19.948,6.072L19.926,6.01L19.903,5.949L19.88,5.889L19.855,5.828L19.83,5.768L19.805,5.709L19.778,5.65L19.751,5.591L19.723,5.532L19.695,5.474L19.666,5.416L19.636,5.359L19.605,5.302L19.574,5.245L19.542,5.189L19.51,5.133L19.477,5.078L19.443,5.023L19.408,4.969L19.373,4.915L19.337,4.861L19.301,4.808L19.264,4.755L19.226,4.703L19.188,4.651L19.149,4.599L19.11,4.549L19.07,4.498L19.029,4.448L18.988,4.399L18.946,4.35L18.903,4.302L18.86,4.254L18.817,4.206L18.772,4.159L18.728,4.113L18.682,4.067L18.637,4.022L18.59,3.977L18.543,3.933L18.496,3.89L18.448,3.847L18.4,3.804L18.351,3.762L18.301,3.721L18.252,3.68L18.201,3.64L18.15,3.601L18.099,3.562L18.047,3.523L17.995,3.486L17.942,3.449L17.889,3.412L17.835,3.377L17.781,3.341L17.727,3.307L17.672,3.273L17.616,3.24L17.561,3.207L17.504,3.175L17.448,3.144L17.391,3.114L17.334,3.084L17.276,3.055L17.218,3.026L17.159,2.998L17.1,2.971L17.041,2.945L16.981,2.919L16.921,2.894L16.861,2.87L16.8,2.847L16.739,2.824L16.678,2.802L16.616,2.781L16.554,2.76L16.492,2.74L16.429,2.721L16.366,2.703L16.303,2.685L16.239,2.668L16.175,2.652L16.111,2.637L16.046,2.622L15.982,2.609L15.916,2.596L15.851,2.584L15.785,2.572L15.719,2.562L15.653,2.552L15.586,2.543L15.519,2.535L15.452,2.528L15.384,2.521L15.316,2.516L15.248,2.511L15.179,2.507L15.111,2.504L15.042,2.502L14.972,2.5L14.903,2.5L14.833,2.5Z" style="fill:rgb(0,118,190);"/>
</svg>
