<svg xmlns="http://www.w3.org/2000/svg" xml:space="preserve" style="fill-rule:evenodd;clip-rule:evenodd;stroke-linejoin:round;stroke-miterlimit:2" viewBox="0 0 1224 523"><path d="M0 74.782h1224v638.813H0z" style="fill:none" transform="matrix(1 0 0 .8187 0 -61.224)"/><path d="M153.862 241.954c0-1.65-1.971-2.286-3.622-2.286-3.164 0-3.164-1.439-6.329-1.439-3.166 0-3.166.725-6.331.725s-3.166.079-6.331.079-3.166.334-6.331.334c-3.167 0-3.167.164-6.333.164-3.165 0-3.165-.304-6.33-.304-3.168 0-3.168.378-6.335.378-3.17 0-3.17-1.096-6.34-1.096s-3.17.335-6.34.335c-1.65 0-3.698 1.462-3.698 3.112 0 3.285 1.308 3.285 1.308 6.57 0 3.284-.787 3.284-.787 6.568 0 3.285.764 3.285.764 6.569s-.612 3.284-.612 6.569.303 3.285.303 6.57c0 3.284.426 3.284.426 6.569s-.629 3.285-.629 6.571-.663 3.286-.663 6.572.398 3.285.398 6.571.31 3.285.31 6.571-.045 3.286-.045 6.572c0 3.283.205 3.283.205 6.566s.368 3.284.368 6.569.094 3.286.094 6.572-1.27 3.286-1.27 6.572.464 3.286.464 6.572.668 3.287.668 6.574c0 3.285-1.07 3.285-1.07 6.57 0 3.288.792 3.288.792 6.576 0 3.29-.464 3.29-.464 6.58s.205 3.29.205 6.58c0 1.65 1.284 2.707 2.934 2.707 3.285 0 3.285.397 6.57.397 3.284 0 3.284-.642 6.568-.642 3.285 0 3.285.467 6.569.467s3.284.288 6.569.288 3.285.471 6.57.471c3.284 0 3.284-.886 6.569-.886s3.285-.512 6.571-.512 3.286.005 6.572.005 3.285.487 6.571.487 3.285.112 6.571.112 3.286-.01 6.572-.01c3.283 0 3.283-.478 6.566-.478s3.284.06 6.569.06 3.286.21 6.572.21 3.286.808 6.572.808 3.286.101 6.572.101 3.287-.253 6.574-.253c3.285 0 3.285-.924 6.57-.924 3.288 0 3.288 1.021 6.576 1.021 3.29 0 3.29-.839 6.58-.839s3.29.112 6.58.112c1.65 0 3.723-1.052 3.723-2.702 0-3.427-.229-3.427-.229-6.854s-.996-3.427-.996-6.854-.087-3.428-.087-6.856c0-3.426.034-3.426.034-6.852 0-3.429-.191-3.429-.191-6.858 0-3.431.458-3.431.458-6.863s.351-3.431.351-6.863c0-1.65-1.414-2.772-3.064-2.772-3.408 0-3.408-.675-6.817-.675s-3.409.374-6.818.374c-3.407 0-3.407.192-6.813.192-3.408 0-3.408-.734-6.816-.734s-3.408 1.02-6.816 1.02-3.408.074-6.816.074-3.409-1.024-6.818-1.024c-3.407 0-3.407.34-6.814.34-3.41 0-3.41.284-6.82.284-3.413 0-3.413-.617-6.825-.617s-3.413-.144-6.825-.144c-1.65 0-3.218-.668-3.218-2.318 0-3.23.522-3.23.522-6.46s-.513-3.23-.513-6.46.573-3.23.573-6.461c0-3.227-.422-3.227-.422-6.455s-.64-3.229-.64-6.458.896-3.23.896-6.461c0-3.23.078-3.23.078-6.461 0-3.23.196-3.23.196-6.461s-.47-3.231-.47-6.463c0-3.23-.63-3.23-.63-6.459 0-3.232.072-3.232.072-6.465 0-3.235.606-3.225.813-6.453.204-3.253.36-3.254.36-6.488M522.605 298.954c0 1.65-.585 1.571-1.404.139-1.649-2.886-2.726-2.271-4.375-5.157-1.65-2.888-.406-3.598-2.057-6.486s-2.814-2.224-4.465-5.113-.949-3.29-2.599-6.179-2.43-2.444-4.081-5.333-.774-3.391-2.425-6.281c-1.65-2.888-2.535-2.383-4.185-5.271-1.652-2.891-1.585-2.929-3.237-5.82-1.653-2.893-.831-3.363-2.484-6.255s-1.658-2.89-3.311-5.783c-.819-1.433-3.092-2.254-4.742-2.254-3.164 0-3.164-.834-6.329-.834-3.166 0-3.166 1.37-6.331 1.37s-3.166-.545-6.331-.545-3.166-.776-6.331-.776c-3.167 0-3.167.434-6.333.434-3.165 0-3.165.459-6.33.459-3.168 0-3.168-.916-6.335-.916-3.17 0-3.17.684-6.34.684s-3.17-.375-6.34-.375c-1.65 0-2.849 1.643-2.849 3.293 0 3.285.482 3.285.482 6.57 0 3.284-.676 3.284-.676 6.568 0 3.285-.519 3.285-.519 6.569s.498 3.284.498 6.569.518 3.285.518 6.57c0 3.284-.899 3.284-.899 6.569s.597 3.285.597 6.571-.584 3.286-.584 6.572 1.125 3.285 1.125 6.571-.286 3.285-.286 6.571.299 3.286.299 6.572c0 3.283-.714 3.283-.714 6.566s.224 3.284.224 6.569-.896 3.286-.896 6.572.69 3.286.69 6.572-.182 3.286-.182 6.572-.4 3.287-.4 6.574c0 3.285.755 3.285.755 6.57 0 3.288.192 3.288.192 6.576 0 3.29-1.102 3.29-1.102 6.58s1.054 3.29 1.054 6.58c0 1.65 1.022 3.284 2.672 3.284 3.164 0 3.164.118 6.329.118 3.166 0 3.166.074 6.331.074s3.166-1.134 6.331-1.134 3.166.41 6.331.41c3.167 0 3.167-.448 6.333-.448 3.165 0 3.165.498 6.33.498 3.168 0 3.168.738 6.335.738 3.17 0 3.17-.442 6.34-.442s3.17-.063 6.34-.063c1.65 0 3.515-1.385 3.515-3.035 0-3.164-1.069-3.164-1.069-6.329 0-3.166.778-3.166.778-6.331s-.504-3.166-.504-6.331.761-3.166.761-6.331c0-3.167-.242-3.167-.242-6.333 0-3.165.266-3.165.266-6.33 0-3.168-.318-3.168-.318-6.335 0-3.17-.886-3.17-.886-6.34s1.286-3.17 1.286-6.34c0-1.65-.143-1.699.676-.266 1.649 2.886 1.958 2.71 3.607 5.596 1.65 2.888 1.093 3.206 2.743 6.094 1.651 2.889 2.079 2.644 3.73 5.533s1.362 3.054 3.013 5.943 2.061 2.655 3.712 5.544c1.651 2.89 1.724 2.849 3.375 5.738 1.65 2.888 1.604 2.915 3.254 5.803 1.652 2.891 1.504 2.975 3.156 5.866 1.653 2.893 2.285 2.532 3.938 5.424s1.308 3.09 2.961 5.983c.819 1.433 2.597 2.108 4.247 2.108 3.164 0 3.164.232 6.329.232 3.166 0 3.166.622 6.331.622s3.166.057 6.331.057 3.166.44 6.331.44c3.167 0 3.167-.72 6.333-.72 3.165 0 3.165.516 6.33.516 3.168 0 3.168-.333 6.335-.333 3.17 0 3.17.518 6.34.518s3.17-.131 6.34-.131c1.65 0 3.619-1.918 3.619-3.568 0-3.285-1.33-3.285-1.33-6.57 0-3.284 1.128-3.284 1.128-6.568 0-3.285-.125-3.285-.125-6.569s-.79-3.284-.79-6.569.58-3.285.58-6.57c0-3.284-.564-3.284-.564-6.569s.379-3.285.379-6.571.041-3.286.041-6.572.348-3.285.348-6.571-.07-3.285-.07-6.571-.629-3.286-.629-6.572c0-3.283.467-3.283.467-6.566s-.372-3.284-.372-6.569-.311-3.286-.311-6.572.69-3.286.69-6.572-.073-3.286-.073-6.572-.115-3.287-.115-6.574c0-3.285.184-3.285.184-6.57 0-3.288.156-3.288.156-6.576 0-3.29.521-3.29.521-6.58s-.22-3.29-.22-6.58c0-1.65-1.866-2.838-3.516-2.838-3.164 0-3.164-.821-6.329-.821-3.166 0-3.166.638-6.331.638s-3.166.731-6.331.731-3.166-1.401-6.331-1.401c-3.167 0-3.167.229-6.333.229-3.165 0-3.165.692-6.33.692-3.168 0-3.168-.852-6.335-.852-3.17 0-3.17 1.335-6.34 1.335s-3.17-1.439-6.34-1.439c-1.65 0-3 2.075-3 3.725 0 3.164.079 3.164.079 6.329 0 3.166.334 3.166.334 6.331s.164 3.166.164 6.331-.305 3.166-.305 6.331c0 3.167.378 3.167.378 6.333 0 3.165-1.096 3.165-1.096 6.33 0 3.168.335 3.168.335 6.335 0 3.17-.707 3.199-.585 6.366.125 3.177 1.065 3.145 1.065 6.315M1074.24 238.845c-1.65 0-2.28 1.459-2.28 3.109 0 3.164-.68 3.164-.68 6.329 0 3.166.52 3.166.52 6.331s-.56 3.166-.56 6.331-.62 3.166-.62 6.331c0 3.167.97 3.167.97 6.333 0 3.165-.99 3.165-.99 6.33 0 3.168.6 3.168.6 6.335 0 3.17-.14 3.17-.14 6.34s.89 3.17.89 6.34c0 1.65-1.03 1.629-1.85.196-1.65-2.886-2-2.686-3.65-5.573s-1.76-2.824-3.41-5.712-1.47-2.993-3.12-5.882-1.21-3.139-2.86-6.028-1.91-2.742-3.56-5.631-2.46-2.43-4.11-5.32c-1.65-2.888-.72-3.417-2.37-6.305-1.66-2.891-1.72-2.855-3.37-5.746-1.65-2.893-2.57-2.371-4.22-5.264s-.44-3.588-2.09-6.48c-.82-1.433-3.45-2.949-5.1-2.949-3.16 0-3.16.749-6.33.749-3.16 0-3.16.414-6.33.414s-3.17-.615-6.33-.615c-3.17 0-3.17.803-6.33.803-3.17 0-3.17-1.071-6.33-1.071-3.17 0-3.17.053-6.335.053-3.168 0-3.168.937-6.335.937-3.17 0-3.17-.737-6.34-.737s-3.17.508-6.34.508c-1.65 0-2.889 1.004-2.889 2.654 0 3.285-.569 3.285-.569 6.57 0 3.284.512 3.284.512 6.568 0 3.285-.799 3.285-.799 6.569s.54 3.284.54 6.569-.436 3.285-.436 6.57c0 3.284.345 3.284.345 6.569s.297 3.285.297 6.571.531 3.286.531 6.572-1.237 3.285-1.237 6.571 1.31 3.285 1.31 6.571-1.352 3.286-1.352 6.572c0 3.283.995 3.283.995 6.566s-.585 3.284-.585 6.569.409 3.286.409 6.572-.785 3.286-.785 6.572.276 3.286.276 6.572.922 3.287.922 6.574c0 3.285-.006 3.285-.006 6.57 0 3.288-1.032 3.288-1.032 6.576 0 3.29.381 3.29.381 6.58s-.09 3.29-.09 6.58c0 1.65 1.615 2.85 3.265 2.85 3.164 0 3.164-.473 6.329-.473 3.166 0 3.166.288 6.331.288s3.166.112 6.331.112 3.166-.484 6.336-.484c3.16 0 3.16.042 6.33.042 3.16 0 3.16.471 6.33.471s3.17-.18 6.33-.18c3.17 0 3.17-.323 6.34-.323s3.17.816 6.34.816c1.65 0 2.43-1.47 2.43-3.12 0-3.164.06-3.164.06-6.329 0-3.166.36-3.166.36-6.331s-.43-3.166-.43-6.331 1.23-3.166 1.23-6.331c0-3.167-.55-3.167-.55-6.333 0-3.165.46-3.165.46-6.33 0-3.168-.9-3.168-.9-6.335 0-3.17 1.01-3.17 1.01-6.34s-.25-3.17-.25-6.34c0-1.65.62-2.036 1.43-.603 1.65 2.886 1.55 2.948 3.2 5.834 1.64 2.888 1.04 3.232 2.69 6.12s1.87 2.768 3.52 5.657 1.31 3.084 2.96 5.973 2 2.687 3.65 5.576c1.65 2.89 1.91 2.741 3.56 5.631 1.66 2.888 1.41 3.027 3.06 5.915 1.65 2.891 1.47 2.997 3.12 5.887 1.65 2.893 2.42 2.456 4.07 5.348 1.66 2.893 1.11 3.206 2.76 6.099.82 1.433 2.91 2.248 4.56 2.248 3.17 0 3.17-.161 6.33-.161 3.17 0 3.17-.255 6.33-.255 3.17 0 3.17.539 6.33.539 3.17 0 3.17.36 6.33.36 3.17 0 3.17.414 6.34.414 3.16 0 3.16-.286 6.33-.286 3.16 0 3.16-.073 6.33-.073s3.17-.261 6.34-.261 3.17-.116 6.34-.116c1.65 0 2.8-1.197 2.8-2.847 0-3.285.47-3.285.47-6.57 0-3.284-.97-3.284-.97-6.568 0-3.285.43-3.285.43-6.569s.9-3.284.9-6.569-.07-3.285-.07-6.57c0-3.284-.17-3.284-.17-6.569s-1.11-3.285-1.11-6.571-.01-3.286-.01-6.572.04-3.285.04-6.571.52-3.285.52-6.571.13-3.286.13-6.572c0-3.283.32-3.283.32-6.566s.08-3.284.08-6.569-.79-3.286-.79-6.572.3-3.286.3-6.572.78-3.286.78-6.572-.71-3.287-.71-6.574c0-3.285.41-3.285.41-6.57 0-3.288-.71-3.288-.71-6.576 0-3.29.88-3.29.88-6.58s-1.24-3.29-1.24-6.58c0-1.65-.63-3.71-2.28-3.71-3.16 0-3.16 1.34-6.33 1.34-3.16 0-3.16-.809-6.33-.809-3.16 0-3.16.898-6.33.898-3.16 0-3.16-1.011-6.33-1.011s-3.17 1.018-6.33 1.018c-3.17 0-3.17-.077-6.33-.077-3.17 0-3.17-.947-6.34-.947s-3.17.042-6.33.006c-3.18-.035-3.18.184-6.35.184M282.24 239.036c-1.65 0-3.438 1.389-4.604 2.556-2.267 2.267-2.392 2.143-4.659 4.41s-2.94 1.595-5.207 3.862-2.19 2.344-4.456 4.611-1.758 2.776-4.025 5.043c-2.269 2.269-2.769 1.769-5.038 4.038-2.271 2.271-1.811 2.73-4.081 5.001s-2.72 1.821-4.99 4.092c-1.167 1.167-1.865 3.655-1.865 5.305 0 3.296.029 3.296.029 6.593s.466 3.298.466 6.596.084 3.299.084 6.599c0 3.299-1.269 3.299-1.269 6.599 0 3.299.667 3.299.667 6.599s.094 3.3.094 6.601c0 3.298.262 3.298.262 6.597 0 3.301-.327 3.301-.327 6.603 0 3.304-.098 3.304-.098 6.607s-.493 3.304-.493 6.607c0 1.65 1.238 4.185 2.405 5.352 2.267 2.267 2.94 1.595 5.207 3.862s1.805 2.73 4.072 4.997 2.661 1.873 4.928 4.139 2.127 2.407 4.394 4.674c2.269 2.269 1.892 2.646 4.161 4.915 2.271 2.271 2.557 1.984 4.828 4.254 2.271 2.271 1.791 2.75 4.062 5.021 1.167 1.167 3.807 2.512 5.457 2.512 3.23 0 3.23-1.165 6.46-1.165s3.23-.269 6.46-.269 3.23 1.415 6.461 1.415c3.227 0 3.227-.677 6.455-.677s3.229.348 6.458.348 3.23-1.049 6.461-1.049c3.23 0 3.23.216 6.461.216 3.23 0 3.23.131 6.461.131s3.231.211 6.463.211c3.23 0 3.23.354 6.459.354 3.232 0 3.232.283 6.465.283 3.235 0 3.235-.734 6.469-.734s3.235.9 6.469.9c1.65 0 3.805-1.793 4.971-2.96 2.267-2.267 2.733-1.802 5-4.069s2.442-2.092 4.71-4.36c2.267-2.267 2.066-2.467 4.333-4.734s1.849-2.685 4.116-4.952c2.269-2.269 1.943-2.595 4.212-4.864 2.271-2.271 2.679-1.862 4.95-4.132 2.271-2.271 1.808-2.733 4.079-5.004 1.167-1.167 3.068-2.963 3.068-4.613 0-3.296-.621-3.296-.621-6.593s.231-3.298.231-6.596-.321-3.299-.321-6.599c0-3.299.493-3.299.493-6.599 0-3.299.476-3.299.476-6.599s-.487-3.3-.487-6.601c0-3.298-.419-3.298-.419-6.597 0-3.301.92-3.301.92-6.603 0-3.304-.276-3.304-.276-6.607s-.776-3.304-.776-6.607c0-1.65-.995-3.573-2.162-4.74-2.267-2.267-1.359-3.176-3.626-5.444s-2.821-1.714-5.088-3.981-2.563-1.97-4.83-4.237-1.418-3.116-3.685-5.384c-2.269-2.269-2.903-1.635-5.172-3.904-2.271-2.271-2.689-1.852-4.959-4.123-2.271-2.271-2.053-2.488-4.324-4.758-1.167-1.167-3.163-1.993-4.813-1.993-3.23 0-3.23-1.16-6.46-1.16s-3.23.516-6.46.516-3.23.144-6.461.144c-3.227 0-3.227.288-6.455.288s-3.229-.333-6.458-.333-3.23.833-6.461.833-3.23-.684-6.461-.684c-3.23 0-3.23.515-6.461.515s-3.231-.557-6.463-.557c-3.23 0-3.23-.621-6.459-.621-3.232 0-3.232.972-6.465.972-3.235 0-3.24-1.021-6.475-.993-3.238.023-3.232.724-6.467.724m60.082 95.918c0 1.65-1.432 3.731-3.082 3.731-2.999 0-2.999-.176-5.998-.176-2.997 0-2.997-.951-5.995-.951-3 0-3 .109-6 .109-3.002 0-3.002.72-6.004.72s-3.002-.707-6.004-.707c-1.65 0-3.376-1.075-3.376-2.725 0-3.427.635-3.427.635-6.854s-.332-3.427-.332-6.854-.029-3.428-.029-6.856c0-3.426-.466-3.426-.466-6.852 0-3.429-.084-3.429-.084-6.858 0-3.431 1.269-3.431 1.269-6.863s-.667-3.431-.667-6.863c0-1.65 1.398-3.142 3.048-3.142 2.999 0 2.999-.262 5.998-.262 2.997 0 2.997.327 5.995.327 3 0 3 .098 6 .098 3.002 0 3.002.493 6.004.493s3.002-.188 6.004-.188c1.65 0 3.626 1.024 3.626 2.674 0 3.427-.654 3.427-.654 6.854s.557 3.427.557 6.854-.198 3.428-.198 6.856c0 3.426-.533 3.426-.533 6.852 0 3.429.406 3.429.406 6.858 0 3.431-.706 3.435-.678 6.867.029 3.43.558 3.426.558 6.858M831.24 239.698c-1.65 0-3.628.537-4.794 1.704-2.267 2.267-2.698 1.837-4.965 4.104s-1.656 2.879-3.923 5.146-2.348 2.185-4.615 4.452-2.369 2.165-4.636 4.432c-2.269 2.269-2.843 1.695-5.112 3.964-2.271 2.271-1.936 2.605-4.206 4.876s-2.839 1.702-5.11 3.973c-1.167 1.167-1.157 3.954-1.157 5.604 0 3.296-.672 3.296-.672 6.593s.504 3.298.504 6.596-.635 3.299-.635 6.599c0 3.299.71 3.299.71 6.599 0 3.299.197 3.299.197 6.599s-.217 3.3-.217 6.601c0 3.298.197 3.298.197 6.597 0 3.301-1.281 3.301-1.281 6.603 0 3.304.387 3.304.387 6.607s.173 3.304.173 6.607c0 1.65 1.374 3.692 2.541 4.858 2.267 2.267 2.38 2.155 4.647 4.422s1.763 2.772 4.03 5.039 2.706 1.827 4.973 4.094 1.647 2.887 3.914 5.154c2.269 2.269 2.06 2.479 4.328 4.748 2.271 2.271 2.402 2.139 4.673 4.409s3.07 1.471 5.34 3.742c1.167 1.167 3.059 2.954 4.709 2.954 3.23 0 3.23-.91 6.46-.91s3.23.552 6.46.552 3.23.033 6.461.033c3.227 0 3.227-.695 6.455-.695s3.229 1.081 6.458 1.081 3.23.202 6.461.202 3.23-.427 6.461-.427c3.23 0 3.23-.121 6.461-.121s3.231.022 6.463.022c3.23 0 3.23-.319 6.459-.319 3.232 0 3.232.046 6.465.046 3.235 0 3.235-.456 6.469-.456s3.235.381 6.469.381c1.65 0 4.041-.681 5.207-1.848 2.267-2.267 1.953-2.581 4.221-4.849 2.267-2.267 2.454-2.081 4.721-4.349 2.267-2.267 2.064-2.469 4.331-4.736s2.443-2.091 4.71-4.358c2.269-2.269 1.892-2.646 4.161-4.915 2.271-2.271 2.51-2.031 4.78-4.302s2.809-1.732 5.079-4.003c1.167-1.167 1.328-3.803 1.328-5.453 0-3.296.315-3.296.315-6.593s-.176-3.298-.176-6.596.973-3.299.973-6.599c0-3.299-.633-3.299-.633-6.599 0-3.299-.394-3.299-.394-6.599s.091-3.3.091-6.601c0-3.298.128-3.298.128-6.597 0-3.301.38-3.301.38-6.603 0-3.304-.812-3.304-.812-6.607s-.021-3.304-.021-6.607c0-1.65-.246-4.053-1.413-5.219-2.267-2.267-2.591-1.944-4.858-4.211s-2.351-2.184-4.618-4.451-2.281-2.252-4.548-4.519-2.264-2.27-4.531-4.537c-2.269-2.269-2.338-2.2-4.607-4.469-2.271-2.271-2.224-2.317-4.494-4.588-2.271-2.271-2-2.541-4.27-4.812-1.167-1.167-3.399-2.362-5.049-2.362-3.23 0-3.23-.356-6.46-.356s-3.23.103-6.46.103-3.23-.325-6.461-.325c-3.227 0-3.227.447-6.455.447s-3.229.381-6.458.381-3.23.649-6.461.649-3.23-.176-6.461-.176-3.23-.951-6.461-.951-3.231.109-6.463.109c-3.23 0-3.23.72-6.459.72-3.232 0-3.232-.707-6.465-.707-3.235 0-3.215.402-6.44.649-3.258.254-3.264.374-6.499.374m60.744 95.256c0 1.65-2.094 3.462-3.744 3.462-2.999 0-2.999-.609-5.998-.609-2.997 0-2.997.865-5.995.865-3 0-3-.116-6-.116-3.002 0-3.002-.144-6.004-.144s-3.002-.811-6.004-.811c-1.65 0-3.121-.997-3.121-2.647 0-3.427.804-3.427.804-6.854s-1.165-3.427-1.165-6.854.672-3.428.672-6.856c0-3.426-.504-3.426-.504-6.852 0-3.429.635-3.429.635-6.858 0-3.431-.709-3.431-.709-6.863s-.198-3.431-.198-6.863c0-1.65 1.935-3.367 3.585-3.367 2.999 0 2.999-.197 5.998-.197 2.997 0 2.997 1.281 5.995 1.281 3 0 3-.387 6-.387 3.002 0 3.002-.173 6.004-.173s3.002-.528 6.004-.528c1.65 0 3.531 1.722 3.531 3.372 0 3.427-.714 3.427-.714 6.854s.621 3.427.621 6.854-.876 3.428-.876 6.856c0 3.426-.296 3.426-.296 6.852 0 3.429.186 3.429.186 6.858 0 3.431.881 3.398 1.129 6.821.251 3.451.164 3.472.164 6.904M615.24 238.385c-1.65 0-3.014 1.919-3.014 3.569 0 3.285-.392 3.285-.392 6.57 0 3.284-.241 3.284-.241 6.568 0 3.285.127 3.285.127 6.569s.016 3.284.016 6.569 1.172 3.285 1.172 6.57c0 3.284-1.13 3.284-1.13 6.569s1.078 3.285 1.078 6.571-1.218 3.286-1.218 6.572.986 3.285.986 6.571-.548 3.285-.548 6.571-.039 3.286-.039 6.572c0 3.283-.374 3.283-.374 6.566s.885 3.284.885 6.569-.243 3.286-.243 6.572-.214 3.286-.214 6.572.578 3.286.578 6.572.02 3.287.02 6.574c0 3.285-1.182 3.285-1.182 6.57 0 3.288.878 3.288.878 6.576 0 3.29-.269 3.29-.269 6.58s.498 3.29.498 6.58c0 1.65.978 2.524 2.628 2.524 3.332 0 3.332.79 6.663.79 3.333 0 3.333-.698 6.665-.698s3.332.713 6.664.713c3.333 0 3.333-.344 6.665-.344 3.333 0 3.333.611 6.667.611s3.333-.523 6.665-.523c3.333 0 3.333.077 6.666.077s3.333-.857 6.666-.857 3.334.638 6.667.638c3.331 0 3.331-.36 6.663-.36s3.333.387 6.666.387 3.333-.665 6.666-.665 3.333.089 6.666.089 3.334.262 6.668.262c3.332 0 3.332-.264 6.664-.264 3.335 0 3.335.271 6.67.271 3.337 0 3.337 1.003 6.674 1.003s3.337-1.219 6.674-1.219c1.65 0 4.246-.098 5.413-1.264 2.267-2.267 2.19-2.344 4.458-4.612 2.267-2.267 2.257-2.277 4.525-4.545 2.267-2.267 2.436-2.097 4.703-4.364s1.642-2.893 3.909-5.16c2.269-2.269 2.015-2.523 4.284-4.792 2.271-2.271 2.265-2.276 4.536-4.546s3.261-1.28 5.532-3.55c1.167-1.167.893-3.951.893-5.601 0-3.296.519-3.296.519-6.593s-.439-3.298-.439-6.596 1.031-3.299 1.031-6.599c0-3.299-.234-3.299-.234-6.599 0-3.299.27-3.299.27-6.599s-.544-3.3-.544-6.601c0-3.298.539-3.298.539-6.597 0-3.301-.578-3.301-.578-6.603 0-3.304.893-3.304.893-6.607s-.848-3.304-.848-6.607c0-1.65-1.156-3.614-2.323-4.781-2.267-2.267-1.498-3.036-3.766-5.304-2.267-2.267-2.502-2.033-4.769-4.3s-2.908-1.625-5.175-3.892-1.658-2.876-3.925-5.143c-2.269-2.269-2.802-1.736-5.071-4.005-2.271-2.271-2.356-2.186-4.626-4.456s-1.801-2.74-4.071-5.011c-1.167-1.167-3.484-2.317-5.134-2.317-3.332 0-3.332.493-6.663.493-3.333 0-3.333-.925-6.665-.925s-3.332 1.177-6.664 1.177c-3.333 0-3.333-.692-6.665-.692-3.333 0-3.333.715-6.667.715s-3.333-.999-6.665-.999c-3.333 0-3.333.187-6.666.187s-3.333.853-6.666.853-3.334-.408-6.667-.408c-3.331 0-3.331-.543-6.663-.543s-3.333 1.094-6.666 1.094-3.333-.282-6.666-.282-3.333-.609-6.666-.609-3.334.865-6.668.865c-3.332 0-3.332-.116-6.664-.116-3.335 0-3.335-.144-6.67-.144-3.337 0-3.323-.622-6.654-.811-3.353-.192-3.361-.218-6.698-.218m95.432 96.569c0 1.65-.781 2.986-2.431 2.986-2.999 0-2.999-.392-5.998-.392-2.997 0-2.997-.241-5.995-.241-3 0-3 .127-6 .127-3.002 0-3.002.016-6.004.016s-3.002 1.172-6.004 1.172c-1.65 0-2.539-2.018-2.539-3.668 0-3.427-1.078-3.427-1.078-6.854s1.218-3.427 1.218-6.854-.986-3.428-.986-6.856c0-3.426.548-3.426.548-6.852 0-3.429.039-3.429.039-6.858 0-3.431.374-3.431.374-6.863s-.885-3.431-.885-6.863c0-1.65 1.658-3.065 3.308-3.065 2.999 0 2.999.214 5.998.214 2.997 0 2.997-.578 5.995-.578 3 0 3-.02 6-.02 3.002 0 3.002 1.182 6.004 1.182s3.002-.878 6.004-.878c1.65 0 2.874 1.494 2.874 3.144 0 3.427.498 3.427.498 6.854s.104 3.427.104 6.854-.79 3.428-.79 6.856c0 3.426.698 3.426.698 6.852 0 3.429-.713 3.429-.713 6.858 0 3.431.533 3.437.344 6.864-.19 3.444-.583 3.431-.583 6.863M894.24 500.164c-1.65 0-3.248-1.56-3.248-3.21 0-2.999-.052-2.999-.052-5.998 0-2.997.199-2.997.199-5.995 0-3 .404-3 .404-6 0-3.002.35-3.002.35-6.004s-.444-3.002-.444-6.004c0-1.65-1.559-2.95-3.209-2.95-2.999 0-2.999.462-5.998.462-2.997 0-2.997-.301-5.995-.301-3 0-3-.207-6-.207-3.002 0-3.002-.632-6.004-.632s-3.002.255-6.004.255c-1.65 0-3.59-.978-3.59-2.628 0-3.427 1.082-3.427 1.082-6.854s-.661-3.427-.661-6.854-.122-3.428-.122-6.856c0-3.426.42-3.426.42-6.852 0-3.429.536-3.429.536-6.858 0-3.431-.826-3.431-.826-6.863s.091-3.431.091-6.863c0-1.65-1.279-3.495-2.929-3.495-3.164 0-3.164-.242-6.329-.242-3.166 0-3.166 1.325-6.331 1.325s-3.166.121-6.331.121-3.166-.105-6.331-.105c-3.167 0-3.167-.541-6.333-.541-3.165 0-3.165-.204-6.33-.204-3.168 0-3.168-.532-6.335-.532-3.17 0-3.17.011-6.34.011s-3.17.823-6.34.823c-1.65 0-3.545 1.19-3.545 2.84 0 3.285-.197 3.285-.197 6.569s.209 3.284.209 6.568c0 3.285.394 3.285.394 6.569s-.035 3.284-.035 6.569.269 3.285.269 6.57c0 3.284.553 3.284.553 6.569s-.566 3.285-.566 6.571.654 3.286.654 6.572-.039 3.285-.039 6.571-.863 3.285-.863 6.571-.101 3.286-.101 6.572c0 3.283.593 3.283.593 6.566s-.073 3.284-.073 6.569.164 3.286.164 6.572-.714 3.286-.714 6.572.152 3.286.152 6.572-.192 3.287-.192 6.574c0 3.285.785 3.285.785 6.57 0 3.288-.85 3.288-.85 6.576 0 3.29-.231 3.29-.231 6.58s.937 3.29.937 6.58c0 1.65 1.045 3.444 2.695 3.444 3.248 0 3.248-.112 6.496-.112s3.249-.594 6.498-.594 3.248.792 6.495.792c3.249 0 3.249-.946 6.499-.946 3.248 0 3.248.335 6.497.335s3.249.078 6.498.078 3.249-.527 6.498-.527 3.25 1.145 6.5 1.145 3.249-.098 6.498-.098 3.25.028 6.5.028 3.25-.153 6.501-.153c3.25 0 3.25-1.047 6.5-1.047s3.25.661 6.5.661 3.25-.575 6.501-.575c3.247 0 3.247.744 6.495.744s3.249-.714 6.498-.714 3.25.955 6.501.955c3.25 0 3.25-.343 6.501-.343 3.25 0 3.25.016 6.501.016s3.251-.344 6.503-.344c3.25 0 3.25.266 6.499.266 3.252 0 3.252.644 6.505.644 3.255 0 3.255-1.37 6.509-1.37s3.255.915 6.509.915c1.65 0 2.412-1.549 2.412-3.199 0-3.427.532-3.427.532-6.854s-.375-3.427-.375-6.854.635-3.428.635-6.856c0-3.426-.62-3.426-.62-6.852 0-3.429.246-3.429.246-6.858 0-3.431.6-3.431.6-6.863s-.319-3.431-.319-6.863c0-1.65-1.461-3.261-3.111-3.261-3.164 0-3.164-.308-6.329-.308-3.166 0-3.166.554-6.331.554s-3.166-.392-6.331-.392-3.166-.241-6.331-.241c-3.167 0-3.167.127-6.333.127-3.165 0-3.165.016-6.33.016-3.168 0-3.168 1.172-6.335 1.172-3.17 0-3.181-1.199-6.35-1.129-3.173.069-3.161.67-6.331.67M324.424 412.954c0-1.65-1.534-3.378-3.184-3.378-3.164 0-3.164.008-6.329.008-3.166 0-3.166.082-6.331.082s-3.166-.42-6.331-.42-3.166 1.368-6.331 1.368c-3.167 0-3.167-.428-6.333-.428-3.165 0-3.165.333-6.33.333-3.168 0-3.168-1-6.335-1-3.17 0-3.17.578-6.34.578s-3.17.038-6.34.038c-1.65 0-3.21 1.169-3.21 2.819 0 3.285-.182 3.285-.182 6.569s.529 3.284.529 6.568c0 3.285-.76 3.285-.76 6.569s1.288 3.284 1.288 6.569-.545 3.285-.545 6.57c0 3.284-.68 3.284-.68 6.569s.272 3.285.272 6.571.478 3.286.478 6.572-.187 3.285-.187 6.571-.519 3.285-.519 6.571-.093 3.286-.093 6.572c0 3.283-.028 3.283-.028 6.566s1.315 3.284 1.315 6.569-1.081 3.286-1.081 6.572 1.147 3.286 1.147 6.572-.237 3.286-.237 6.572-.028 3.287-.028 6.574c0 3.285-.802 3.285-.802 6.57 0 3.288.954 3.288.954 6.576 0 3.29-1.084 3.29-1.084 6.58s.057 3.29.057 6.58c0 1.65 1.746 2.433 3.396 2.433 3.285 0 3.285 1.249 6.57 1.249 3.284 0 3.284-.62 6.568-.62 3.285 0 3.285.565 6.569.565s3.284-1.318 6.569-1.318 3.285.776 6.57.776c3.284 0 3.284-.722 6.569-.722s3.285.886 6.571.886 3.286-.476 6.572-.476 3.285.484 6.571.484 3.285-.074 6.571-.074 3.286-.088 6.572-.088c3.283 0 3.283.509 6.566.509s3.284-.348 6.569-.348 3.286.025 6.572.025 3.286-.014 6.572-.014 3.286-.886 6.572-.886 3.287.338 6.574.338c3.285 0 3.285-.06 6.57-.06 3.288 0 3.288.681 6.576.681 3.29 0 3.29.018 6.58.018s3.29-.811 6.58-.811c1.65 0 2.64-.898 2.64-2.548 0-3.427.742-3.427.742-6.854s.245-3.427.245-6.854.106-3.428.106-6.856c0-3.426-1.213-3.426-1.213-6.852 0-3.429-.026-3.429-.026-6.858 0-3.431.481-3.431.481-6.863s.726-3.431.726-6.863c0-1.65-2.051-2.387-3.701-2.387-3.408 0-3.408-.545-6.817-.545s-3.409-.743-6.818-.743c-3.407 0-3.407 1.349-6.813 1.349-3.408 0-3.408-1.097-6.816-1.097s-3.408.376-6.816.376-3.408-.097-6.816-.097-3.409-.354-6.818-.354c-3.407 0-3.407 1.215-6.814 1.215-3.41 0-3.41-1.296-6.82-1.296-3.413 0-3.413.902-6.825.902s-3.413-.714-6.825-.714c-1.65 0-3.636-.958-3.636-2.608 0-3.23.691-3.23.691-6.46s.651-3.23.651-6.46-1.4-3.23-1.4-6.461c0-3.227.23-3.227.23-6.455s-.229-3.229-.229-6.458.484-3.23.484-6.461c0-3.23-.038-3.23-.038-6.461 0-3.23-.052-3.23-.052-6.461s.199-3.231.199-6.463c0-3.23.404-3.23.404-6.459 0-3.232.35-3.232.35-6.465 0-3.235-.505-3.231-.444-6.465.056-3.236-.031-3.239-.031-6.473M702.664 469.954c0 1.65-.625 1.56-1.443.127-1.649-2.886-2.554-2.369-4.203-5.256s-.608-3.483-2.258-6.371c-1.651-2.889-2.154-2.601-3.805-5.49s-1.121-3.192-2.772-6.081-1.807-2.8-3.458-5.689-1.806-2.801-3.458-5.691c-1.65-2.888-1.431-3.013-3.082-5.902-1.652-2.891-2.165-2.598-3.817-5.488-1.653-2.893-1.289-3.1-2.942-5.993s-1.926-2.736-3.579-5.629c-.819-1.433-2.957-2.248-4.607-2.248-3.164 0-3.164-.144-6.329-.144-3.166 0-3.166-.563-6.331-.563s-3.166 1.056-6.331 1.056-3.166-.357-6.331-.357c-3.167 0-3.167-.315-6.333-.315-3.165 0-3.165-.309-6.33-.309-3.168 0-3.168-.023-6.335-.023-3.17 0-3.17.568-6.34.568s-3.17-.213-6.34-.213c-1.65 0-2.264 1.362-2.264 3.012 0 3.285-1.365 3.285-1.365 6.569s.687 3.284.687 6.568c0 3.285-.506 3.285-.506 6.569s-.104 3.284-.104 6.569.599 3.285.599 6.57c0 3.284.371 3.284.371 6.569s-.029 3.285-.029 6.571-.974 3.286-.974 6.572.547 3.285.547 6.571-.62 3.285-.62 6.571.051 3.286.051 6.572c0 3.283.188 3.283.188 6.566s.278 3.284.278 6.569-.134 3.286-.134 6.572.481 3.286.481 6.572.062 3.286.062 6.572.412 3.287.412 6.574c0 3.285-.047 3.285-.047 6.57 0 3.288-.085 3.288-.085 6.576 0 3.29-1.093 3.29-1.093 6.58s.62 3.29.62 6.58c0 1.65 1.274 3.484 2.924 3.484 3.164 0 3.164-.46 6.329-.46 3.166 0 3.166-.532 6.331-.532s3.166.811 6.331.811 3.166-.191 6.331-.191c3.167 0 3.167-.078 6.333-.078 3.165 0 3.165.622 6.33.622 3.168 0 3.168-.717 6.335-.717 3.17 0 3.17-.288 6.34-.288s3.17-.168 6.34-.168c1.65 0 3.731-.834 3.731-2.484 0-3.164-.283-3.164-.283-6.329 0-3.166-.495-3.166-.495-6.331s.365-3.166.365-6.331-.79-3.166-.79-6.332.628-3.167.628-6.333c0-3.165.397-3.165.397-6.33 0-3.168-.763-3.168-.763-6.335 0-3.17-.194-3.17-.194-6.34s.608-3.17.608-6.34c0-1.65.475-1.833 1.294-.4 1.649 2.886 1.385 3.037 3.035 5.924s1.938 2.724 3.588 5.611c1.651 2.889 1.284 3.099 2.935 5.988s1.674 2.876 3.325 5.765 1.952 2.717 3.603 5.606c1.651 2.89 1.419 3.022 3.07 5.912 1.65 2.888 2.179 2.586 3.829 5.475 1.652 2.891.959 3.287 2.611 6.177 1.653 2.893 2.129 2.621 3.782 5.513s2.148 2.61 3.801 5.503c.819 1.433 2.275 3.537 3.925 3.537 3.164 0 3.164-.338 6.329-.338 3.166 0 3.166.251 6.331.251s3.166-.663 6.331-.663 3.166-.274 6.331-.274c3.167 0 3.167-.151 6.333-.151 3.165 0 3.165.426 6.33.426 3.168 0 3.168.411 6.335.411 3.17 0 3.17-.661 6.34-.661s3.17 1.096 6.34 1.096c1.65 0 3.641-2.058 3.641-3.708 0-3.285.048-3.285.048-6.57 0-3.284-.077-3.284-.077-6.568 0-3.285-1.154-3.285-1.154-6.569s1.088-3.284 1.088-6.569.131-3.285.131-6.57c0-3.284-1.256-3.284-1.256-6.569s.626-3.285.626-6.571.541-3.286.541-6.572-1.249-3.285-1.249-6.571.09-3.285.09-6.571.476-3.286.476-6.572c0-3.283-.37-3.283-.37-6.566s.083-3.284.083-6.569.96-3.286.96-6.572-.621-3.286-.621-6.572.322-3.286.322-6.572-.144-3.287-.144-6.574c0-3.285-.463-3.285-.463-6.57 0-3.288.627-3.288.627-6.576 0-3.29.405-3.29.405-6.58s-.156-3.29-.156-6.58c0-1.65-1.897-3.201-3.547-3.201-3.164 0-3.164.945-6.329.945-3.166 0-3.166-.136-6.331-.136s-3.166-1.326-6.331-1.326-3.166.582-6.331.582c-3.167 0-3.167.42-6.333.42-3.165 0-3.165-1.02-6.33-1.02-3.168 0-3.168.552-6.335.552-3.17 0-3.17-.194-6.34-.194s-3.17.008-6.34.008c-1.65 0-3.289 1.72-3.289 3.37 0 3.164-.42 3.164-.42 6.329 0 3.166 1.368 3.166 1.368 6.331s-.428 3.166-.428 6.331.333 3.166.333 6.331c0 3.167-1 3.167-1 6.333 0 3.165.578 3.165.578 6.33 0 3.168.038 3.168.038 6.335 0 3.17-.532 3.182-.391 6.349.141 3.18.633 3.163.633 6.333M93.24 409.725c-1.65 0-2.989 1.578-2.989 3.228 0 3.285-.552 3.285-.552 6.569s.673 3.284.673 6.568c0 3.285.321 3.285.321 6.569s-1.016 3.284-1.016 6.569.988 3.285.988 6.57c0 3.284.258 3.284.258 6.569s-.809 3.285-.809 6.571-.037 3.286-.037 6.572.087 3.285.087 6.571.363 3.285.363 6.571.283 3.286.283 6.572c0 3.283-.785 3.283-.785 6.566s.033 3.284.033 6.569-.04 3.286-.04 6.572.921 3.286.921 6.572-1.149 3.286-1.149 6.572-.229 3.287-.229 6.574l-.002 6.57c0 3.288.208 3.288.208 6.576 0 3.29.337 3.29.337 6.58s.277 3.29.277 6.58c0 1.65 1.211 2.971 2.861 2.971 3.164 0 3.164.74 6.329.74 3.166 0 3.166-.017 6.331-.017s3.166-1.409 6.331-1.409 3.166.472 6.331.472c3.167 0 3.167-.062 6.333-.062 3.165 0 3.165-.19 6.33-.19 3.168 0 3.168 1.209 6.335 1.209 3.17 0 3.17-.619 6.34-.619s3.17-.52 6.34-.52c1.65 0 3.035-.926 3.035-2.576 0-3.498.703-3.498.703-6.997 0-3.501-1.172-3.501-1.172-7.002s.232-3.501.232-7.002c0-1.65 1.553-3.463 3.203-3.463 3.164 0 3.164-.194 6.329-.194 3.166 0 3.166.559 6.331.559s3.166.711 6.331.711 3.166-.136 6.331-.136c3.167 0 3.167-.006 6.333-.006 3.165 0 3.165-1.139 6.33-1.139 3.168 0 3.168 1.089 6.335 1.089 3.17 0 3.17-.966 6.34-.966s3.17.335 6.34.335c1.65 0 3.998-.701 5.164-1.868 2.267-2.267 2.088-2.446 4.356-4.714 2.267-2.267 2.224-2.311 4.492-4.578s2.967-1.567 5.234-3.833 2.188-2.346 4.455-4.613c2.269-2.269 2.148-2.39 4.417-4.659 2.271-2.271 1.778-2.763 4.048-5.034s2.487-2.054 4.757-4.325c1.167-1.167 2.112-3.515 2.112-5.165 0-3.248-.268-3.248-.268-6.497s.715-3.249.715-6.498c0-3.247-.069-3.247-.069-6.495 0-3.25-.966-3.25-.966-6.5 0-3.252-.033-3.252-.033-6.505 0-3.252-.105-3.252-.105-6.505 0-1.65-.113-4.105-1.28-5.272-2.267-2.267-2.561-1.974-4.828-4.241s-2.038-2.496-4.306-4.764c-2.267-2.267-2.55-1.984-4.816-4.251s-1.818-2.716-4.085-4.983c-2.269-2.269-2.094-2.444-4.363-4.713-2.271-2.271-3.131-1.41-5.401-3.681s-2.017-2.524-4.288-4.795c-1.167-1.167-3.292-2.782-4.942-2.782-3.332 0-3.332.597-6.663.597-3.333 0-3.333-.62-6.665-.62s-3.332-.211-6.664-.211c-3.333 0-3.333.383-6.665.383-3.333 0-3.333-.078-6.666-.078s-3.333.384-6.665.384c-3.333 0-3.333-.653-6.666-.653s-3.333.684-6.666.684-3.334.261-6.667.261c-3.331 0-3.331.16-6.663.16s-3.333-.964-6.666-.964-3.333 1.042-6.666 1.042-3.333-1.201-6.666-1.201-3.334.58-6.668.58c-3.332 0-3.332-.61-6.664-.61-3.335 0-3.335.18-6.67.18-3.337 0-3.33.255-6.666.179-3.343-.078-3.35.14-6.687.14m95.772 69.229c0 1.65-1.122 3.011-2.772 3.011-2.999 0-2.999-.552-5.998-.552-2.997 0-2.997.673-5.995.673-3 0-3 .321-6 .321-3.002 0-3.002-1.016-6.004-1.016s-3.002.988-6.004.988c-1.65 0-3.683-1.775-3.683-3.425 0-3.498.809-3.498.809-6.997 0-3.501.037-3.501.037-7.002s-.087-3.501-.087-7.002c0-1.65 1.273-3.286 2.923-3.286 2.999 0 2.999-.283 5.998-.283 2.997 0 2.997.785 5.995.785 3 0 3-.033 6-.033 3.002 0 3.002.04 6.004.04s3.002-.921 6.004-.921c1.65 0 2.549 2.048 2.549 3.698 0 3.498-.229 3.498-.229 6.997 0 3.501.074 3.487-.002 6.987-.075 3.503.455 3.516.455 7.017M462.24 410.378c-1.65 0-3.582.81-4.498 2.183-1.814 2.721-2.474 2.281-4.287 5.001-1.815 2.722-1.928 2.646-3.743 5.368s-.796 3.401-2.611 6.123-2.795 2.068-4.61 4.79-1.805 2.729-3.62 5.452c-1.814 2.721-1.383 3.009-3.197 5.73-1.816 2.723-1.47 2.954-3.285 5.678-1.817 2.725-2.45 2.303-4.267 5.029s-1.781 2.749-3.598 5.474c-.915 1.373-1.628 4.099-1.628 5.749 0 3.23.079 3.23.079 6.46s-.207 3.23-.207 6.46.584 3.23.584 6.461c0 3.227.558 3.227.558 6.455s-.042 3.229-.042 6.458-.654 3.23-.654 6.461c0 3.23-.639 3.23-.639 6.461 0 3.23.416 3.23.416 6.461s.62 3.231.62 6.463c0 3.23-.035 3.23-.035 6.459 0 3.232-.671 3.232-.671 6.465 0 3.235 1.02 3.235 1.02 6.469s-.849 3.235-.849 6.469c0 1.65 1.515 3.276 3.165 3.276 3.164 0 3.164-.059 6.329-.059 3.166 0 3.166.259 6.331.259s3.166-1.129 6.331-1.129 3.166 1.326 6.331 1.326c3.167 0 3.167-.794 6.333-.794 3.165 0 3.165-.216 6.33-.216 3.168 0 3.168.107 6.335.107 3.17 0 3.17.676 6.34.676s3.17-.711 6.34-.711c1.65 0 2.402-1.085 2.402-2.735 0-3.498 1.299-3.498 1.299-6.997 0-3.501-1.224-3.501-1.224-7.002s.012-3.501.012-7.002c0-1.65 1.861-3.326 3.511-3.326 2.999 0 2.999.166 5.998.166 2.997 0 2.997-.185 5.995-.185 3 0 3 .798 6 .798 3.002 0 3.002-.184 6.004-.184s3.002-.189 6.004-.189c1.65 0 2.839 1.27 2.839 2.92 0 3.498.644 3.498.644 6.997 0 3.501-.057 3.501-.057 7.002s-.047 3.501-.047 7.002c0 1.65.971 2.376 2.621 2.376 3.164 0 3.164-.11 6.329-.11 3.166 0 3.166.233 6.331.233s3.166.602 6.331.602 3.166.643 6.331.643c3.167 0 3.167-1.22 6.333-1.22 3.165 0 3.165.463 6.33.463 3.168 0 3.168.629 6.335.629 3.17 0 3.17-.937 6.34-.937s3.17-.34 6.34-.34c1.65 0 3.33-.689 3.33-2.339 0-3.23-.034-3.23-.034-6.46s-.466-3.23-.466-6.46.338-3.23.338-6.461c0-3.227-.445-3.227-.445-6.455s.075-3.229.075-6.458-.008-3.23-.008-6.461c0-3.23.493-3.23.493-6.461 0-3.23-1.015-3.23-1.015-6.461s1.106-3.231 1.106-6.463c0-3.23-.297-3.23-.297-6.459 0-3.232-.412-3.232-.412-6.465 0-3.235-.277-3.235-.277-6.469s.515-3.235.515-6.469c0-1.65-.685-4.101-1.6-5.474-1.814-2.721-2.285-2.406-4.099-5.127-1.815-2.722-1.858-2.693-3.673-5.414-1.815-2.722-1.662-2.823-3.477-5.545s-1.862-2.69-3.677-5.412-1.533-2.911-3.348-5.633-1.406-2.993-3.22-5.714c-1.816-2.723-2.674-2.151-4.49-4.875s-1.087-3.212-2.903-5.938-2.4-2.337-4.217-5.062c-.915-1.373-2.548-3.478-4.198-3.478-3.23 0-3.23 1.375-6.46 1.375s-3.23-1.095-6.46-1.095-3.23-.137-6.461-.137c-3.227 0-3.227.334-6.455.334s-3.229-.034-6.458-.034-3.23.239-6.461.239-3.23-.552-6.461-.552c-3.23 0-3.23.673-6.461.673s-3.231.321-6.463.321c-3.23 0-3.23-1.016-6.459-1.016-3.232 0-3.232.988-6.465.988-3.235 0-3.208.116-6.439.257-3.243.141-3.265-.258-6.5-.258m60.424 68.576c0 1.65-1.774 3.2-3.424 3.2-2.999 0-2.999-.793-5.998-.793-2.997 0-2.997-.137-5.995-.137-3 0-3 1.224-6 1.224-3.002 0-3.002-1.179-6.004-1.179s-3.002.012-6.004.012c-1.65 0-2.846-.678-2.846-2.328 0-3.498-.416-3.498-.416-6.997 0-3.501.761-3.501.761-7.002s-.043-3.501-.043-7.002c0-1.65.894-2.656 2.544-2.656 2.999 0 2.999-.079 5.998-.079 2.997 0 2.997.207 5.995.207 3 0 3-.584 6-.584 3.002 0 3.002-.558 6.004-.558s3.002.042 6.004.042c1.65 0 2.974 1.978 2.974 3.628 0 3.498-.639 3.498-.639 6.997 0 3.501.275 3.514.416 7.012.141 3.509.673 3.492.673 6.993" style="fill:#231f20;fill-rule:nonzero" transform="translate(0 -131.906)"/></svg>