<?xml version="1.0" encoding="utf-8"?>
<!-- Generator: Adobe Illustrator 20.0.0, SVG Export Plug-In . SVG Version: 6.00 Build 0)  -->
<svg version="1.1" id="Layer_1" xmlns="http://www.w3.org/2000/svg" xmlns:xlink="http://www.w3.org/1999/xlink" x="0px" y="0px"
	 viewBox="0 0 40.32 40.32" style="enable-background:new 0 0 40.32 40.32;" xml:space="preserve">
<style type="text/css">
	.st0{fill:url(#SVGID_1_);}
	.st1{fill:#E8E8E8;}
	.st2{fill:#458BF0;}
	.st3{fill:#91B7E6;}
</style>
<g>
	<linearGradient id="SVGID_1_" gradientUnits="userSpaceOnUse" x1="3.2949" y1="37.4371" x2="37.0296" y2="-2.7664">
		<stop  offset="0" style="stop-color:#F7F7F7"/>
		<stop  offset="1" style="stop-color:#FFFFFF"/>
	</linearGradient>
	<rect x="0.002" y="-0.004" class="st0" width="40.32" height="34.678"/>
</g>
<g>
	<path class="st1" d="M0.643,39.424c-0.407-0.407-0.61-0.896-0.61-1.47s0.204-1.062,0.61-1.47s0.897-0.61,1.47-0.61
		s1.063,0.203,1.47,0.61s0.61,0.896,0.61,1.47s-0.204,1.062-0.61,1.47s-0.897,0.61-1.47,0.61S1.049,39.831,0.643,39.424z"/>
	<path class="st1" d="M21.682,38.647v0.977h-0.977l-0.693,0.684l-0.693-0.684h-0.977v-0.977l-0.684-0.693l0.684-0.693v-0.977h0.977
		l0.693-0.684l0.693,0.684h0.977v0.977l0.684,0.693L21.682,38.647z M19.128,38.838c0.245,0.244,0.54,0.366,0.883,0.366
		c0.346,0,0.641-0.122,0.885-0.366s0.365-0.539,0.365-0.884s-0.121-0.64-0.365-0.884s-0.539-0.366-0.885-0.366
		c-0.344,0-0.639,0.122-0.883,0.366c-0.244,0.244-0.366,0.539-0.366,0.884S18.884,38.594,19.128,38.838z"/>
	<path class="st1" d="M39.582,37.261l0.684,0.693l-0.684,0.693v0.977h-0.977l-0.693,0.684l-0.693-0.684h-0.977v-0.977l-0.684-0.693
		l0.684-0.693v-0.977h0.977l0.693-0.684l0.693,0.684h0.977V37.261z M37.028,38.838c0.244,0.244,0.539,0.366,0.884,0.366
		s0.64-0.122,0.884-0.366s0.366-0.539,0.366-0.884s-0.122-0.64-0.366-0.884s-0.539-0.366-0.884-0.366s-0.64,0.122-0.884,0.366
		s-0.366,0.539-0.366,0.884S36.784,38.594,37.028,38.838z M37.326,37.368c0.163-0.163,0.358-0.244,0.586-0.244
		s0.423,0.081,0.586,0.244s0.244,0.358,0.244,0.586s-0.081,0.423-0.244,0.586s-0.358,0.244-0.586,0.244s-0.423-0.081-0.586-0.244
		s-0.244-0.358-0.244-0.586S37.163,37.531,37.326,37.368z"/>
</g>
<rect x="0.002" y="32.643" class="st2" width="3.36" height="2.026"/>
<rect x="3.363" y="30.985" class="st3" width="3.36" height="3.684"/>
<rect x="6.731" y="25.159" class="st2" width="3.36" height="9.51"/>
<rect x="10.092" y="24.925" class="st3" width="3.36" height="9.745"/>
<rect x="13.46" y="25.14" class="st2" width="3.36" height="9.53"/>
<rect x="16.821" y="28.116" class="st3" width="3.36" height="6.553"/>
<rect x="26.877" y="28.043" class="st2" width="3.36" height="6.626"/>
<rect x="30.238" y="5.896" class="st3" width="3.36" height="28.773"/>
<rect x="33.606" y="5.133" class="st2" width="3.36" height="29.536"/>
<rect x="36.967" y="18.822" class="st3" width="3.36" height="15.847"/>
<rect x="20.189" y="31.338" class="st2" width="3.36" height="3.331"/>
<rect x="23.55" y="31.715" class="st3" width="3.36" height="2.955"/>
</svg>
