<?xml version="1.0" encoding="utf-8"?>
<!-- Generator: Adobe Illustrator 20.0.0, SVG Export Plug-In . SVG Version: 6.00 Build 0)  -->
<svg version="1.1" id="Layer_1" xmlns="http://www.w3.org/2000/svg" xmlns:xlink="http://www.w3.org/1999/xlink" x="0px" y="0px"
	 viewBox="0 0 40.32 29.709" style="enable-background:new 0 0 40.32 29.709;" xml:space="preserve">
<style type="text/css">
	.st0{fill:#95B1D1;}
</style>
<path class="st0" d="M32.263,29.575H9.41c-5.184,0-9.41-4.226-9.41-9.41c0-3.757,2.228-7.016,5.423-8.508
	c-0.028-0.295-0.046-0.608-0.046-0.902C5.377,4.806,10.184,0,16.132,0c4.493,0,8.342,2.753,9.953,6.675
	c0.93-0.819,2.145-1.298,3.49-1.298c2.965,0,5.377,2.412,5.377,5.377c0,1.068-0.313,2.062-0.866,2.9
	c3.582,0.838,6.234,4.033,6.234,7.854C40.32,25.965,36.72,29.575,32.263,29.575z"/>
</svg>
