<?xml version="1.0" encoding="utf-8"?>
<!-- Generator: Adobe Illustrator 20.0.0, SVG Export Plug-In . SVG Version: 6.00 Build 0)  -->
<svg version="1.1" id="Layer_1" xmlns="http://www.w3.org/2000/svg" xmlns:xlink="http://www.w3.org/1999/xlink" x="0px" y="0px"
	 viewBox="0 0 34.723 40.32" style="enable-background:new 0 0 34.723 40.32;" xml:space="preserve">
<style type="text/css">
	.st0{fill:#95B1D1;}
</style>
<g>
	<path class="st0" d="M29.842,28.673l3.623-11.744H1.04l3.623,11.744c0.141,0.456,0.562,0.767,1.04,0.767h0.384
		c0.835-1.224,2.291-2.159,3.946-2.159s3.11,0.935,3.946,2.159h6.649c0.835-1.224,2.291-2.159,3.946-2.159
		c1.654,0,3.11,0.935,3.946,2.159h0.284C29.28,29.44,29.701,29.129,29.842,28.673z"/>
	<path class="st0" d="M34.136,14.753l0.321-1.009c0.102-0.33,0.041-0.704-0.164-0.982c-0.205-0.278-0.53-0.457-0.875-0.457h-1.422
		c0.08-0.408,0.123-0.804,0.123-1.239c0-3.643-2.953-6.581-6.596-6.581c-0.256,0-0.508,0.024-0.756,0.052
		C24.634,2.007,22.54,0,19.976,0c-0.958,0-1.85,0.284-2.598,0.768c-0.749-0.484-1.641-0.765-2.598-0.765
		c-2.564,0-4.657,2.012-4.79,4.542c-0.248-0.028-0.5-0.044-0.756-0.044c-3.643,0-6.596,2.923-6.596,6.565
		c0,0.434,0.043,0.831,0.123,1.239H1.088c-0.345,0-0.67,0.195-0.875,0.473c-0.205,0.278-0.266,0.621-0.164,0.951l0.321,1.024H34.136
		z"/>
	<path class="st0" d="M24.73,34.541c1.315-0.082,2.358-1.171,2.358-2.507c0-1.389-1.126-2.515-2.515-2.515
		c-1.389,0-2.515,1.126-2.515,2.515c0,0.823,0.397,1.551,1.007,2.01c-0.933-0.234-1.919-0.41-2.941-0.524
		c-0.91-0.102-1.845-0.156-2.797-0.156c-0.97,0-1.923,0.056-2.848,0.161c-1.028,0.117-2.02,0.296-2.957,0.533
		c0.621-0.458,1.025-1.192,1.025-2.023c0-1.389-1.126-2.515-2.515-2.515c-1.389,0-2.515,1.126-2.515,2.515
		c0,1.347,1.059,2.443,2.389,2.509c-0.568,0.2-1.109,0.423-1.614,0.669c-0.378,0.184-0.731,0.349-1.061,0.553
		c-2.006,1.242-3.096,2.924-3.096,4.556h26.383c0-1.632-1.101-3.327-3.127-4.571c-0.321-0.197-0.663-0.37-1.029-0.548
		C25.852,34.952,25.305,34.743,24.73,34.541z"/>
</g>
</svg>
