<?xml version="1.0" encoding="utf-8"?>
<!-- Generator: Adobe Illustrator 20.0.0, SVG Export Plug-In . SVG Version: 6.00 Build 0)  -->
<svg version="1.1" id="Layer_1" xmlns="http://www.w3.org/2000/svg" xmlns:xlink="http://www.w3.org/1999/xlink" x="0px" y="0px"
	 viewBox="0 0 55.812 27.312" style="enable-background:new 0 0 55.812 27.312;" xml:space="preserve">
<style type="text/css">
	.st0{fill:none;stroke:#FF7E1C;stroke-width:7;stroke-miterlimit:10;}
	.st1{fill:#333333;}
	.st2{fill:none;stroke:#333333;stroke-width:0.05;stroke-miterlimit:10;}
	.st3{opacity:0.3;}
	.st4{font-family:'OpenSans';}
	.st5{font-size:1.5px;}
</style>
<path class="st0" d="M38.008,10c-2.919-1.689-6.309-2.656-9.925-2.656c-10.961,0-19.847,8.886-19.847,19.847"/>
<g>
	<g>
		<path class="st1" d="M28.083,3.944c12.785,0,23.192,10.375,23.247,23.148h-6.8c-0.054-9.024-7.411-16.348-16.447-16.348
			c-9.036,0-16.394,7.324-16.447,16.348h-6.8C4.891,14.319,15.298,3.944,28.083,3.944 M28.083,3.844
			c-12.874,0-23.348,10.474-23.348,23.348h7c0-9.014,7.333-16.348,16.348-16.348s16.347,7.333,16.347,16.348h7
			C51.431,14.317,40.957,3.844,28.083,3.844L28.083,3.844z"/>
	</g>
</g>
<line class="st2" x1="28.072" y1="1.997" x2="28.072" y2="10.799"/>
<line class="st2" x1="9.601" y1="10.033" x2="15.825" y2="16.257"/>
<line class="st2" x1="46.554" y1="10.033" x2="40.33" y2="16.257"/>
<text transform="matrix(1 0 0 1 0 27.125)" class="st3 st4 st5">0kW</text>
<text transform="matrix(1 0 0 1 52.8125 27.125)" class="st3 st4 st5">4kW</text>
<text transform="matrix(1 0 0 1 26.5625 1.1875)" class="st3 st4 st5">2kW</text>
<text transform="matrix(0.7071 -0.7071 0.7071 0.7071 7.9374 10.5623)" class="st3 st4 st5">1kW</text>
<text transform="matrix(0.7071 0.7071 -0.7071 0.7071 46.1247 8.5009)" class="st3 st4 st5">3kW</text>
</svg>
