<?xml version="1.0" encoding="utf-8"?>
<!-- Generator: Adobe Illustrator 20.0.0, SVG Export Plug-In . SVG Version: 6.00 Build 0)  -->
<svg version="1.1" id="Layer_1" xmlns="http://www.w3.org/2000/svg" xmlns:xlink="http://www.w3.org/1999/xlink" x="0px" y="0px"
	 viewBox="0 0 40.32 40.32" style="enable-background:new 0 0 40.32 40.32;" xml:space="preserve">
<style type="text/css">
	.st0{fill:#95B1D1;}
</style>
<path class="st0" d="M39.641,24.544c-2.232,9.298-9.896,15.776-19.585,15.776c-5.121,0-10.08-2.025-13.808-5.569l-3.383,3.395
	C2.543,38.456,2.129,38.64,1.68,38.64C0.759,38.64,0,37.881,0,36.96V25.2c0-0.921,0.759-1.68,1.68-1.68h11.76
	c0.921,0,1.68,0.759,1.68,1.68c0,0.449-0.184,0.863-0.495,1.185l-3.602,3.59c2.474,2.313,5.753,3.625,9.136,3.625
	c4.672,0,8.998-2.416,11.449-6.409c0.621-1.024,0.944-2.014,1.392-3.072c0.127-0.357,0.391-0.598,0.782-0.598h5.04
	c0.472,0,0.84,0.391,0.84,0.84C39.664,24.418,39.664,24.487,39.641,24.544z M40.32,15.12c0,0.921-0.759,1.68-1.68,1.68H26.88
	c-0.921,0-1.68-0.759-1.68-1.68c0-0.449,0.184-0.863,0.495-1.185l3.625-3.613C26.822,8.009,23.543,6.72,20.16,6.72
	c-4.672,0-8.998,2.416-11.449,6.409c-0.621,1.024-0.944,2.014-1.392,3.072C7.192,16.558,6.927,16.8,6.536,16.8H1.312
	c-0.472,0-0.84-0.391-0.84-0.84c0-0.058,0-0.127,0-0.184C2.727,6.455,10.471,0,20.16,0c5.144,0,10.161,2.048,13.889,5.569
	l3.406-3.395c0.322-0.311,0.736-0.495,1.185-0.495c0.921,0,1.68,0.759,1.68,1.68V15.12z"/>
</svg>
