<?xml version="1.0" encoding="utf-8"?>
<!-- Generator: Adobe Illustrator 20.0.0, SVG Export Plug-In . SVG Version: 6.00 Build 0)  -->
<svg version="1.1" id="Layer_1" xmlns="http://www.w3.org/2000/svg" xmlns:xlink="http://www.w3.org/1999/xlink" x="0px" y="0px"
	 viewBox="0 0 32.492 40.32" style="enable-background:new 0 0 32.492 40.32;" xml:space="preserve">
<style type="text/css">
	.st0{fill:#95B1D1;}
</style>
<g>
	<path class="st0" d="M32,0.305C31.574-0.11,30.892-0.1,30.477,0.326c-0.888,0.913-5.358,5.678-6.142,9.77
		c-0.584,3.048,0.529,6.46,1.604,9.759c0.757,2.323,1.473,4.518,1.473,6.262c0,1.52-0.647,2.341-1.256,2.341
		c-0.547,0-1.122-0.711-1.122-2.071c0-1.678,0.006-6.551-3.898-7.198V7.808c0-0.595-0.437-1.01-1.032-1.01h-1.391V5.654
		c0-0.595-0.437-1.01-1.032-1.01H6.776c-0.595,0-1.122,0.415-1.122,1.01v1.144H4.487c-0.595,0-1.122,0.415-1.122,1.01v27.935H1.122
		C0.527,35.743,0,36.158,0,36.752v2.423c0,0.595,0.527,1.144,1.122,1.144H23.47c0.595,0,1.032-0.55,1.032-1.144v-2.423
		c0-0.595-0.437-1.01-1.032-1.01h-2.333v-14.35c0.808,0.301,1.744,1.348,1.744,4.994c0,2.903,1.698,4.225,3.265,4.225
		c1.695,0,3.416-1.544,3.416-4.495c0-2.086-0.764-4.438-1.576-6.929c-0.56-1.716-1.128-3.465-1.433-5.114
		c1.719-0.37,2.864-1.174,3.405-2.396c1.044-2.359-0.704-5.231-1.173-5.932c0.976-1.403,2.131-2.781,3.237-3.919
		C32.436,1.401,32.427,0.719,32,0.305z M18.713,17.972c0,0.595-0.482,1.077-1.077,1.077H6.731c-0.595,0-1.077-0.482-1.077-1.077
		v-7.674c0-0.595,0.482-1.077,1.077-1.077h10.905c0.595,0,1.077,0.482,1.077,1.077V17.972z M27.988,10.808
		c-0.229,0.514-0.786,0.885-1.657,1.108c-0.003-0.49,0.034-0.963,0.121-1.415c0.154-0.804,0.528-1.72,1.043-2.676
		C27.94,8.731,28.36,9.973,27.988,10.808z"/>
</g>
</svg>
