<?xml version="1.0" encoding="utf-8"?>
<!-- Generator: Adobe Illustrator 20.0.0, SVG Export Plug-In . SVG Version: 6.00 Build 0)  -->
<svg version="1.1" id="Layer_1" xmlns="http://www.w3.org/2000/svg" xmlns:xlink="http://www.w3.org/1999/xlink" x="0px" y="0px"
	 viewBox="0 0 40.32 31.764" style="enable-background:new 0 0 40.32 31.764;" xml:space="preserve">
<style type="text/css">
	.st0{fill:#95B1D1;}
</style>
<path class="st0" d="M40.32,24.575c0,0.354-0.259,0.63-0.622,0.63h-1.899v2.521c0,2.089-1.692,3.781-3.772,3.781
	c-2.089,0-3.781-1.692-3.781-3.781v-2.521H10.082v2.521c0,2.089-1.692,3.781-3.781,3.781s-3.781-1.692-3.781-3.781v-2.521H0.63
	c-0.354,0-0.63-0.276-0.63-0.63v-7.562c0-2.443,1.968-4.411,4.411-4.411h0.552l2.063-8.252C7.639,1.873,10.039,0,12.603,0h15.123
	c2.564,0,4.963,1.873,5.576,4.351l2.063,8.252h0.552c2.434,0,4.402,1.968,4.402,4.411V24.575z M6.301,15.753
	c-1.735,0-3.151,1.416-3.151,3.151c0,1.735,1.416,3.151,3.151,3.151s3.151-1.416,3.151-3.151
	C9.452,17.169,8.036,15.753,6.301,15.753z M30.169,12.603l-1.752-7.026c-0.06-0.224-0.457-0.535-0.691-0.535H12.603
	c-0.233,0-0.63,0.311-0.691,0.535l-1.752,7.026H30.169z M34.027,15.753c-1.735,0-3.151,1.416-3.151,3.151
	c0,1.735,1.416,3.151,3.151,3.151c1.735,0,3.151-1.416,3.151-3.151C37.178,17.169,35.762,15.753,34.027,15.753z"/>
</svg>
