<?xml version="1.0" encoding="utf-8"?>
<!-- Generator: Adobe Illustrator 20.0.0, SVG Export Plug-In . SVG Version: 6.00 Build 0)  -->
<svg version="1.1" id="Layer_1" xmlns="http://www.w3.org/2000/svg" xmlns:xlink="http://www.w3.org/1999/xlink" x="0px" y="0px"
	 viewBox="0 0 37.894 40.32" style="enable-background:new 0 0 37.894 40.32;" xml:space="preserve">
<style type="text/css">
	.st0{fill:#95B1D1;}
</style>
<g>
	<path class="st0" d="M37.601,40.32c0-1.637-0.77-3.169-2.129-4.511v-8.944c0-0.6-0.442-1.087-1.042-1.087h-1.268V5.133l2.436-0.929
		c1.121-0.431,1.691-1.69,1.26-2.81c-0.431-1.121-1.684-1.679-2.805-1.248L9.498,9.596l-0.5-1.218
		c-0.11-0.267-0.32-0.479-0.586-0.59L5.159,6.432C4.885,6.318,4.576,6.321,4.304,6.44C4.031,6.56,3.82,6.786,3.719,7.066
		l-1.146,3.166c-0.092,0.254-0.086,0.534,0.017,0.784l0.44,1.07l-1.049,0.404c-1.121,0.431-1.68,1.69-1.248,2.81
		c0.332,0.864,1.156,1.394,2.03,1.394c0.26,0,0.501-0.047,0.758-0.146l0.285-0.119v17.935C1.495,36.001,0,38.061,0,40.32H37.601z
		 M22.555,30.787l-7.321-5.976l0.551-1.91l7.819,6.532l0.435,1.536C23.553,30.899,23.058,30.838,22.555,30.787z M16.443,20.618
		l0.576-1.998l4.43,3.213l1.102,3.887L16.443,20.618z M17.66,16.399l1.134-3.932l1.697,5.986L17.66,16.399z M14.578,27.084
		l4.309,3.517c-0.029,0-0.058-0.001-0.087-0.001c-1.865,0-3.658,0.135-5.347,0.385L14.578,27.084z M30.987,25.778h-1.042
		c-0.6,0-1.133,0.487-1.133,1.087v5.203c-0.68-0.249-1.564-0.47-2.412-0.66l-6.06-21.337L30.987,5.97V25.778z M5.98,17.999
		l3.274,2.676c0.198,0.163,0.454,0.248,0.702,0.248c0.14,0,0.286-0.027,0.419-0.082c0.371-0.152,0.63-0.497,0.671-0.895l0.511-5.011
		c0.018-0.178-0.007-0.358-0.076-0.524l-0.326-0.792l5.671-2.182l-5.789,19.998c-1.865,0.426-3.563,1.003-5.058,1.702V17.999z"/>
</g>
</svg>
