<?xml version="1.0" encoding="utf-8"?>
<!-- Generator: Adobe Illustrator 20.0.0, SVG Export Plug-In . SVG Version: 6.00 Build 0)  -->
<svg version="1.1" id="Layer_1" xmlns="http://www.w3.org/2000/svg" xmlns:xlink="http://www.w3.org/1999/xlink" x="0px" y="0px"
	 viewBox="0 0 40.32 40.32" style="enable-background:new 0 0 40.32 40.32;" xml:space="preserve">
<style type="text/css">
	.st0{fill:#333333;}
</style>
<g>
	<path class="st0" d="M30.295,16.716l-2.115-3.641c-0.131-0.23-0.344-0.295-0.64-0.197l-2.607,1.033
		c-0.558-0.426-1.148-0.771-1.771-1.033l-0.394-2.755c-0.066-0.295-0.23-0.443-0.492-0.443h-4.232c-0.262,0-0.426,0.148-0.492,0.443
		l-0.394,2.755c-0.492,0.197-1.082,0.541-1.771,1.033l-2.607-1.033c-0.295-0.098-0.508-0.033-0.64,0.197l-2.116,3.641
		c-0.164,0.295-0.131,0.525,0.098,0.689l2.214,1.722c-0.033,0.23-0.049,0.574-0.049,1.033s0.016,0.804,0.049,1.033l-2.214,1.722
		c-0.23,0.164-0.262,0.394-0.098,0.689l2.116,3.641c0.131,0.23,0.344,0.295,0.64,0.197l2.607-1.033
		c0.558,0.426,1.148,0.771,1.771,1.033l0.394,2.755c0.066,0.295,0.23,0.443,0.492,0.443h4.232c0.262,0,0.426-0.148,0.492-0.443
		l0.394-2.755c0.492-0.197,1.082-0.541,1.771-1.033l2.607,1.033c0.295,0.098,0.508,0.033,0.64-0.197l2.115-3.641
		c0.164-0.295,0.131-0.525-0.098-0.689l-2.214-1.722c0.033-0.23,0.049-0.574,0.049-1.033s-0.016-0.804-0.049-1.033l2.214-1.722
		C30.427,17.241,30.459,17.011,30.295,16.716z M22.768,22.767c-0.722,0.722-1.592,1.082-2.609,1.082s-1.886-0.361-2.607-1.082
		c-0.722-0.722-1.082-1.591-1.082-2.607c0-1.017,0.361-1.886,1.082-2.607s1.591-1.082,2.607-1.082s1.887,0.361,2.609,1.082
		s1.082,1.591,1.082,2.607C23.85,21.177,23.49,22.046,22.768,22.767z"/>
	<path class="st0" d="M20.16,0C9.026,0,0,9.026,0,20.16s9.026,20.16,20.16,20.16s20.16-9.026,20.16-20.16S31.294,0,20.16,0z
		 M20.16,37.82c-9.738,0-17.66-7.922-17.66-17.66S10.422,2.5,20.16,2.5s17.66,7.922,17.66,17.66S29.898,37.82,20.16,37.82z"/>
</g>
</svg>
