<?xml version="1.0" encoding="utf-8"?>
<!-- Generator: Adobe Illustrator 20.0.0, SVG Export Plug-In . SVG Version: 6.00 Build 0)  -->
<svg version="1.1" id="Layer_1" xmlns="http://www.w3.org/2000/svg" xmlns:xlink="http://www.w3.org/1999/xlink" x="0px" y="0px"
	 viewBox="0 0 40.32 31.881" style="enable-background:new 0 0 40.32 31.881;" xml:space="preserve">
<style type="text/css">
	.st0{fill:#95B1D1;}
</style>
<path class="st0" d="M39.886,12.855c-1.45,6.995-5.949,11.543-12.204,14.65c-3.039,1.529-6.442,2.427-9.856,2.427
	c-2.161,0-4.39-0.355-6.442-1.056C10.309,28.511,8.149,27.1,7.251,27.1c-1.125,0-2.476,4.587-4.439,4.587
	c-1.421,0-1.845-0.7-2.447-1.736C0.158,29.577,0,29.438,0,28.965c0-2.338,4.459-4.163,4.459-5.465c0-0.207-0.592-1.401-0.681-1.845
	c-0.128-0.77-0.197-1.559-0.197-2.348c0-7.152,5.692-12.263,12.085-14.374C20.273,3.394,30.09,5.179,33.217,2.21
	C34.46,1.056,35.062,0,36.956,0c2.535,0,3.364,6.59,3.364,8.504C40.32,9.944,40.182,11.414,39.886,12.855z M27.367,11.523
	c-7.971,0-13.101,3.335-18.3,9.066c-0.266,0.296-0.424,0.612-0.424,1.016c0,0.789,0.651,1.44,1.44,1.44
	c0.404,0,0.72-0.158,1.016-0.424c1.095-0.996,2.091-2.072,3.167-3.088c4.074-3.67,7.567-5.13,13.101-5.13
	c0.789,0,1.44-0.651,1.44-1.44S28.156,11.523,27.367,11.523z"/>
</svg>
