<?xml version="1.0" encoding="utf-8"?>
<!-- Generator: Adobe Illustrator 20.0.0, SVG Export Plug-In . SVG Version: 6.00 Build 0)  -->
<svg version="1.1" id="Layer_1" xmlns="http://www.w3.org/2000/svg" xmlns:xlink="http://www.w3.org/1999/xlink" x="0px" y="0px"
	 viewBox="0 0 40.32 40.32" style="enable-background:new 0 0 40.32 40.32;" xml:space="preserve">
<g>
	<polygon points="14.633,19.075 10.243,19.075 10.243,21.245 14.633,21.245 14.633,23.466 16.854,23.466 16.854,16.854 
		14.633,16.854 	"/>
	<rect x="10.243" y="25.687" width="6.612" height="2.169"/>
	<rect x="10.243" y="12.464" width="11.002" height="2.169"/>
	<polygon points="21.245,23.466 19.075,23.466 19.075,30.077 21.245,30.077 21.245,27.856 30.077,27.856 30.077,25.687 
		21.245,25.687 	"/>
	<polygon points="25.687,10.243 23.466,10.243 23.466,16.854 25.687,16.854 25.687,14.633 30.077,14.633 30.077,12.464 
		25.687,12.464 	"/>
	<rect x="19.075" y="19.075" width="11.002" height="2.169"/>
</g>
</svg>
