<?xml version="1.0" encoding="iso-8859-1"?>
<!-- Generator: Adobe Illustrator 19.0.0, SVG Export Plug-In . SVG Version: 6.00 Build 0)  -->
<svg xmlns="http://www.w3.org/2000/svg" xmlns:xlink="http://www.w3.org/1999/xlink" version="1.1" id="Capa_1" x="0px" y="0px" viewBox="0 0 495.547 495.547" style="enable-background:new 0 0 495.547 495.547;" xml:space="preserve" width="512px" height="512px">
<g>
	<g>
		<g>
			<path d="M479.278,207.531H158.07l60.32-165.712c5.864-16.144-2.488-34.056-18.624-39.928c-7.824-2.84-16.28-2.472-23.824,1.04     c-7.536,3.52-13.256,9.76-16.104,17.584L2.166,453.715c-2.848,7.824-2.48,16.28,1.04,23.824     c3.512,7.544,9.76,13.264,17.576,16.112c3.48,1.264,7.08,1.896,10.672,1.896c4.488,0,8.96-0.984,13.152-2.936     c7.536-3.512,13.256-9.76,16.104-17.584l79.888-219.496h27.048L151.35,470.307c-0.048,0.6-0.072,1.2-0.072,1.808     c0,12.912,10.504,23.416,23.424,23.416H447.87c12.912,0,23.416-10.504,23.416-23.488c0-0.528-0.016-1.056-0.048-1.56     l-14.4-214.952h22.44c8.824,0,16-7.176,16-16v-16C495.278,214.707,488.102,207.531,479.278,207.531z M174.87,25.987     c1.392-3.808,4.168-6.84,7.832-8.552c2.04-0.952,4.208-1.432,6.392-1.432c1.752,0,3.504,0.312,5.192,0.92     c7.848,2.856,11.912,11.568,9.064,19.424l-33.52,92.08l-28.48-10.368L174.87,25.987z M45.678,469.547     c-2.856,7.848-11.544,11.92-19.424,9.064c-7.848-2.856-11.912-11.576-9.056-19.424l118.688-326.088l28.48,10.368L45.678,469.547z      M447.862,479.531h-273.16c-4.096,0-7.424-3.328-7.4-7.984l12.752-168.016h263.952l11.272,168.584     C455.278,476.203,451.95,479.531,447.862,479.531z M181.262,287.531l2.432-32H440.79l2.144,32H181.262z M479.278,239.531H146.422     l5.824-16h327.032V239.531z" fill="#FFFFFF"/>
			<path d="M214.518,134.219l45.44,6.608l20.32,41.176l20.32-41.176l45.44-6.608l-32.88-32.048l7.768-45.256l-40.648,21.36     l-40.648-21.36l7.768,45.256L214.518,134.219z M260.878,86.155l19.4,10.2l19.4-10.2l-3.704,21.6l15.688,15.296l-21.688,3.152     l-9.696,19.648l-9.696-19.648l-21.688-3.152l15.688-15.296L260.878,86.155z" fill="#FFFFFF"/>
			<path d="M381.782,191.731l30.784-15.232l30.008,16.712l-4.984-33.984l25.168-23.368l-33.848-5.768l-14.456-31.168l-15.944,30.424     l-34.096,4.112l23.992,24.56L381.782,191.731z M408.774,144.235l4.808-9.16l4.344,9.384l10.192,1.736l-7.576,7.04l1.504,10.232     l-9.04-5.032l-9.264,4.584l2-10.144l-7.224-7.4L408.774,144.235z" fill="#FFFFFF"/>
			<rect x="184.278" y="447.531" width="16" height="16" fill="#FFFFFF"/>
			<rect x="216.278" y="447.531" width="120" height="16" fill="#FFFFFF"/>
		</g>
	</g>
</g>
<g>
</g>
<g>
</g>
<g>
</g>
<g>
</g>
<g>
</g>
<g>
</g>
<g>
</g>
<g>
</g>
<g>
</g>
<g>
</g>
<g>
</g>
<g>
</g>
<g>
</g>
<g>
</g>
<g>
</g>
</svg>
