<?xml version="1.0" encoding="UTF-8" standalone="no"?>
<!DOCTYPE svg PUBLIC "-//W3C//DTD SVG 1.1//EN" "http://www.w3.org/Graphics/SVG/1.1/DTD/svg11.dtd">
<svg width="100%" height="100%" viewBox="0 0 469 469" version="1.1" xmlns="http://www.w3.org/2000/svg" xmlns:xlink="http://www.w3.org/1999/xlink" xml:space="preserve" style="fill-rule:evenodd;clip-rule:evenodd;stroke-linejoin:round;stroke-miterlimit:1.41421;">
    <rect id="Artboard1" x="0" y="0" width="468.436" height="468.436" style="fill:none;"/>
    <clipPath id="_clip1">
        <rect id="Artboard11" x="0" y="0" width="468.436" height="468.436"/>
    </clipPath>
    <g clip-path="url(#_clip1)">
        <g id="bag-full" transform="matrix(1,0,0,1.00213,0,0)">
            <path d="M368.588,467.403L99.661,467.403C84.991,467.403 72.189,459.624 65.49,448.149L49.111,448.149C27.338,448.148 9.625,431.176 9.625,410.316L9.625,292.908C9.625,272.047 27.338,255.075 49.111,255.075L68.343,255.075L68.343,206.926C68.343,182.908 75.959,158.222 89.882,135.69L98.554,123.606C98.937,109.921 101.084,33.279 101.208,32.222C101.401,30.575 101.839,28.949 102.527,27.389C104.344,23.268 107.657,20.103 111.855,18.474L139.155,7.884C143.355,6.254 147.936,6.358 152.055,8.175C156.175,9.992 159.341,13.305 160.97,17.504L179.705,65.796C182.57,65.107 185.472,64.515 188.407,64.02L188.407,45.81C188.407,20.55 208.958,0 234.218,0C259.478,0 280.028,20.55 280.028,45.81L280.028,64.019C282.955,64.513 285.849,65.103 288.707,65.79L307.441,17.504C309.07,13.305 312.236,9.992 316.356,8.175C320.475,6.359 325.056,6.255 329.256,7.884L356.556,18.474C360.754,20.103 364.067,23.269 365.884,27.389C366.597,29.007 367.042,30.696 367.222,32.405C367.329,33.422 369.507,110.941 369.868,123.841L378.44,135.803C392.319,158.304 399.91,182.949 399.91,206.926L399.91,255.075L419.14,255.075C440.914,255.076 458.626,272.047 458.625,292.908L458.625,410.316C458.625,431.176 440.913,448.148 419.139,448.149L402.76,448.149C396.061,459.624 383.258,467.402 368.588,467.403ZM368.589,322.207L99.662,322.207C85.432,322.207 73.855,333.298 73.855,346.932L73.855,367.52L350.979,367.52C354.66,367.521 357.641,370.377 357.641,373.902C357.641,377.428 354.66,380.284 350.979,380.285L342.435,380.285L342.435,385.131L346.969,385.131C350.649,385.131 353.63,387.988 353.63,391.513L353.63,427.979C353.63,431.504 350.649,434.36 346.969,434.361L324.577,434.361C320.897,434.361 317.915,431.504 317.915,427.979L317.915,391.513C317.915,387.988 320.896,385.131 324.577,385.131L329.111,385.131L329.111,380.285L73.855,380.285L73.855,429.911C73.855,443.545 85.432,454.638 99.662,454.638L368.589,454.638C382.819,454.637 394.396,443.545 394.396,429.911L394.396,380.285L380.192,380.285C376.512,380.285 373.53,377.428 373.53,373.902C373.53,370.377 376.512,367.52 380.192,367.52L394.396,367.52L394.396,346.932C394.396,333.298 382.82,322.207 368.589,322.207ZM68.342,267.84L57.344,267.84L57.344,326.715C57.344,330.241 54.361,333.098 50.682,333.098C47.003,333.098 44.021,330.241 44.021,326.715L44.021,268.32C32.023,270.597 22.948,280.754 22.948,292.908L22.948,410.316C22.948,424.138 34.685,435.383 49.111,435.383L60.953,435.383C60.679,433.596 60.532,431.77 60.532,429.911L60.532,346.931C60.532,338.519 63.44,330.745 68.342,324.482L68.342,267.84ZM410.907,267.839L399.909,267.839L399.909,324.482C404.811,330.745 407.719,338.519 407.719,346.931L407.719,429.911C407.719,431.77 407.572,433.596 407.298,435.383L419.14,435.383C433.566,435.383 445.302,424.138 445.302,410.316L445.302,292.907C445.302,280.754 436.227,270.596 424.23,268.319L424.23,326.714C424.23,330.24 421.248,333.097 417.569,333.097C413.889,333.097 410.907,330.24 410.907,326.714L410.907,267.839ZM340.306,397.896L331.237,397.896L331.237,421.596L340.306,421.596L340.306,397.896ZM258.376,76.205L210.062,76.205C186.926,76.205 165.852,82.479 147.081,94.312C128.955,106.703 113.86,122.493 102.755,139.869C102.475,140.566 102.072,141.205 101.568,141.76C88.826,162.363 81.665,185.072 81.665,206.926L81.665,313.657C87.058,310.97 93.175,309.441 99.662,309.44L368.589,309.44C375.077,309.441 381.194,310.97 386.586,313.658L386.586,206.926C386.586,185.101 379.445,162.424 366.736,141.843C366.247,141.299 365.853,140.675 365.576,139.995C354.579,122.749 339.652,107.06 321.731,94.697C302.901,82.321 282.172,76.205 258.376,76.205ZM292.113,112.12L292.113,146.786L176.324,146.786L176.324,112.12L292.113,112.12ZM277.871,134.645L191.566,134.645L191.566,124.261L277.871,124.261L277.871,134.645ZM115.058,73.344L123.571,95.291C120.269,98.246 117.115,101.362 114.129,104.635L115.058,73.344ZM354.285,104.612C351.3,101.341 348.147,98.227 344.846,95.275L353.354,73.342L354.285,104.612ZM165.031,69.444L146.986,22.93C146.616,21.975 145.536,21.498 144.581,21.869L117.281,32.459C116.688,32.689 116.394,33.12 116.252,33.441C116.11,33.763 115.99,34.27 116.22,34.864L135.878,85.544C141.744,81.446 147.961,77.817 154.476,74.717C157.939,72.833 161.46,71.075 165.031,69.444ZM312.516,74.04C319.55,77.282 326.246,81.136 332.538,85.53L352.19,34.864C352.421,34.27 352.301,33.762 352.159,33.441C352.018,33.121 351.724,32.689 351.13,32.459L323.83,21.869C322.877,21.499 321.796,21.974 321.425,22.93L303.355,69.507C306.448,70.923 309.503,72.434 312.516,74.04ZM262.228,62.266C260.948,62.229 207.487,62.229 206.206,62.266C207.715,58.969 209.795,55.934 212.432,53.291C218.251,47.473 225.988,44.269 234.217,44.269C246.462,44.269 257.312,51.587 262.228,62.266ZM234.219,15C249.539,15 262.279,26.241 264.634,40.908C256.474,33.653 245.764,29.269 234.218,29.269C222.898,29.269 212.211,33.354 203.819,40.817C206.212,26.195 218.93,15 234.219,15Z"/>
        </g>
    </g>
</svg>
