<?xml version="1.0" encoding="UTF-8" standalone="no"?>
<!DOCTYPE svg PUBLIC "-//W3C//DTD SVG 1.1//EN" "http://www.w3.org/Graphics/SVG/1.1/DTD/svg11.dtd">
<svg width="100%" height="100%" viewBox="0 0 469 469" version="1.1" xmlns="http://www.w3.org/2000/svg" xmlns:xlink="http://www.w3.org/1999/xlink" xml:space="preserve" style="fill-rule:evenodd;clip-rule:evenodd;stroke-linejoin:round;stroke-miterlimit:1.41421;">
    <rect id="Artboard1" x="0" y="0" width="468.436" height="468.436" style="fill:none;"/>
    <clipPath id="_clip1">
        <rect id="Artboard11" x="0" y="0" width="468.436" height="468.436"/>
    </clipPath>
    <g clip-path="url(#_clip1)">
        <path id="bag" d="M359.811,468.435L108.624,468.435C92.956,468.435 80.21,455.688 80.21,440.021L80.21,192.054C80.21,167.82 86.891,145.12 98.496,125.685C98.496,125.685 101.072,33.383 101.208,32.222C101.401,30.575 101.839,28.949 102.527,27.389C104.344,23.268 107.657,20.103 111.855,18.474L139.155,7.884C143.355,6.254 147.936,6.358 152.055,8.175C156.175,9.992 159.341,13.305 160.97,17.504L179.705,65.796C182.57,65.107 185.472,64.515 188.407,64.02L188.407,45.81C188.407,20.55 208.958,0 234.218,0C259.478,0 280.028,20.55 280.028,45.81L280.028,64.019C282.955,64.513 285.849,65.103 288.707,65.79L307.441,17.504C309.07,13.305 312.236,9.992 316.356,8.175C320.475,6.359 325.056,6.255 329.256,7.884L356.556,18.474C360.754,20.103 364.067,23.269 365.884,27.389C366.597,29.007 367.042,30.696 367.222,32.405C367.339,33.514 369.919,125.651 369.919,125.651C381.537,145.093 388.225,167.806 388.225,192.055L388.225,440.021C388.225,455.688 375.479,468.435 359.811,468.435ZM258.376,77.205L210.062,77.205C146.732,77.205 95.211,128.726 95.211,192.055L95.211,440.022C95.211,447.418 101.229,453.436 108.625,453.436L359.811,453.436C367.207,453.436 373.225,447.418 373.225,440.022L373.226,440.022L373.226,192.055C373.226,128.726 321.704,77.205 258.376,77.205ZM335.985,253.728C348.092,253.728 357.942,263.578 357.942,275.685L357.942,417.014C357.942,429.121 348.092,438.971 335.985,438.971L132.452,438.971C120.345,438.971 110.495,429.121 110.495,417.014L110.495,275.685C110.495,263.578 120.345,253.728 132.452,253.728L335.985,253.728ZM314.296,322.747L125.495,322.747L125.495,417.014C125.495,420.85 128.616,423.971 132.452,423.971L335.985,423.971C339.821,423.971 342.942,420.85 342.942,417.014L342.942,322.747L329.296,322.747L329.296,339.802L314.296,339.802L314.296,322.747ZM335.985,268.728L132.452,268.728C128.616,268.728 125.495,271.849 125.495,275.685L125.495,307.747L342.942,307.747L342.942,275.685C342.942,271.849 339.821,268.728 335.985,268.728ZM281.824,108.039L281.824,150.867L186.613,150.867L186.613,108.039L281.824,108.039ZM266.824,135.867L266.824,123.039L201.613,123.039L201.613,135.867L266.824,135.867ZM115.058,73.344L123.571,95.291C120.269,98.246 117.115,101.362 114.129,104.635L115.058,73.344ZM354.285,104.612C351.3,101.341 348.147,98.227 344.846,95.275L353.354,73.342L354.285,104.612ZM116.252,33.441C116.394,33.12 116.688,32.689 117.281,32.459L144.581,21.869C145.536,21.498 146.616,21.975 146.986,22.93L165.307,70.155C154.793,74.027 144.919,79.228 135.878,85.544L116.22,34.864C115.99,34.27 116.11,33.763 116.252,33.441ZM321.425,22.93C321.796,21.974 322.877,21.499 323.83,21.869L351.13,32.459C351.724,32.689 352.018,33.121 352.159,33.441C352.301,33.762 352.421,34.27 352.19,34.864L332.538,85.53C323.496,79.216 313.621,74.017 303.107,70.146L321.425,22.93ZM262.228,62.266C260.948,62.229 207.487,62.229 206.206,62.266C207.715,58.969 209.795,55.934 212.432,53.291C218.251,47.473 225.988,44.269 234.217,44.269C246.462,44.269 257.312,51.587 262.228,62.266ZM234.219,15C249.539,15 262.279,26.241 264.634,40.908C256.474,33.653 245.764,29.269 234.218,29.269C222.898,29.269 212.211,33.354 203.819,40.817C206.212,26.195 218.93,15 234.219,15Z"/>
    </g>
</svg>
