<?xml version="1.0" encoding="UTF-8" standalone="no"?>
<!DOCTYPE svg PUBLIC "-//W3C//DTD SVG 1.1//EN" "http://www.w3.org/Graphics/SVG/1.1/DTD/svg11.dtd">
<svg width="100%" height="100%" viewBox="0 0 28 27" version="1.1" xmlns="http://www.w3.org/2000/svg" xmlns:xlink="http://www.w3.org/1999/xlink" xml:space="preserve" style="fill-rule:evenodd;clip-rule:evenodd;stroke-linejoin:round;stroke-miterlimit:1.41421;">
    <path d="M13.949,27C6.549,27 0.449,20.9 0.449,13.5C0.449,6.1 6.549,0 13.949,0C21.349,0 27.449,6.1 27.449,13.5C27.449,20.9 21.449,27 13.949,27ZM13.949,2C7.649,2 2.449,7.2 2.449,13.5C2.449,19.8 7.649,25 13.949,25C20.249,25 25.449,19.8 25.449,13.5C25.449,7.2 20.349,2 13.949,2ZM11.198,16.512L20.846,6.864L22.117,8.135L11.198,19.092L6.117,14.011L7.387,12.74L11.198,16.512Z"/>
</svg>
