<?xml version="1.0" encoding="UTF-8" standalone="no"?>
<!DOCTYPE svg PUBLIC "-//W3C//DTD SVG 1.1//EN" "http://www.w3.org/Graphics/SVG/1.1/DTD/svg11.dtd">
<svg width="100%" height="100%" viewBox="0 0 28 27" version="1.1" xmlns="http://www.w3.org/2000/svg" xmlns:xlink="http://www.w3.org/1999/xlink" xml:space="preserve" style="fill-rule:evenodd;clip-rule:evenodd;stroke-linejoin:round;stroke-miterlimit:1.41421;">
    <path d="M13.6,27C6.2,27 0.1,20.9 0.1,13.5C0.1,6.1 6.2,0 13.6,0C21,0 27.1,6.1 27.1,13.5C27.1,20.9 21.1,27 13.6,27ZM13.6,2C7.3,2 2.1,7.2 2.1,13.5C2.1,19.8 7.3,25 13.6,25C19.9,25 25.1,19.8 25.1,13.5C25.1,7.2 20,2 13.6,2Z" style="fill:rgb(130,181,72);fill-opacity:0.5;fill-rule:nonzero;"/>
    <g transform="matrix(0.397022,0,0,0.397022,5.76796,4.44228)">
        <path d="M12.8,30.4L37.1,6.1L40.3,9.3L12.8,36.9L0,24.1L3.2,20.9L12.8,30.4Z" style="fill:rgb(130,181,72);fill-opacity:0.5;fill-rule:nonzero;"/>
    </g>
</svg>
