<?xml version="1.0" encoding="UTF-8" standalone="no"?>
<!DOCTYPE svg PUBLIC "-//W3C//DTD SVG 1.1//EN" "http://www.w3.org/Graphics/SVG/1.1/DTD/svg11.dtd">
<svg width="100%" height="100%" viewBox="0 0 7 12" version="1.1" xmlns="http://www.w3.org/2000/svg" xmlns:xlink="http://www.w3.org/1999/xlink" xml:space="preserve" style="fill-rule:evenodd;clip-rule:evenodd;stroke-linejoin:round;stroke-miterlimit:1.41421;">
    <g transform="matrix(1,0,0,1,-6,-4.19904)">
        <path d="M12.452,4.516C12.898,4.952 12.933,5.559 12.452,6.092L8.705,10L12.452,13.908C12.933,14.441 12.898,15.049 12.452,15.482C12.007,15.918 11.255,15.89 10.837,15.482C10.419,15.076 6.335,10.787 6.335,10.787C6.112,10.57 6,10.285 6,10C6,9.715 6.112,9.43 6.335,9.211C6.335,9.211 10.419,4.924 10.837,4.516C11.255,4.107 12.007,4.08 12.452,4.516Z" style="fill:white;fill-rule:nonzero;"/>
    </g>
</svg>
