<?xml version="1.0" encoding="UTF-8" standalone="no"?>
<!DOCTYPE svg PUBLIC "-//W3C//DTD SVG 1.1//EN" "http://www.w3.org/Graphics/SVG/1.1/DTD/svg11.dtd">
<svg width="100%" height="100%" viewBox="0 0 858 1000" version="1.1" xmlns="http://www.w3.org/2000/svg" xmlns:xlink="http://www.w3.org/1999/xlink" xml:space="preserve" style="fill-rule:evenodd;clip-rule:evenodd;stroke-linejoin:round;stroke-miterlimit:1.41421;">
    <path d="M571.392,500.032C571.392,460.6 557.442,426.934 529.542,399.034C501.642,371.134 467.976,357.184 428.544,357.184C389.112,357.184 355.446,371.134 327.546,399.034C299.646,426.934 285.696,460.6 285.696,500.032C285.696,539.464 299.646,573.13 327.546,601.03C355.446,628.93 389.112,642.88 428.544,642.88C467.976,642.88 501.642,628.93 529.542,601.03C557.442,573.13 571.392,539.464 571.392,500.032ZM857.088,439.21L857.088,563.086C857.088,567.55 855.6,571.828 852.624,575.92C849.648,580.012 845.928,582.43 841.464,583.174L738.234,598.798C731.166,618.886 723.912,635.812 716.472,649.576C729.492,668.176 749.394,693.844 776.178,726.58C779.898,731.044 781.758,735.694 781.758,740.53C781.758,745.366 780.084,749.644 776.736,753.364C766.692,767.128 748.278,787.216 721.494,813.628C694.71,840.04 677.226,853.246 669.042,853.246C664.578,853.246 659.742,851.572 654.534,848.224L577.53,787.96C561.162,796.516 544.236,803.584 526.752,809.164C520.8,859.756 515.406,894.352 510.57,912.952C507.966,923.368 501.27,928.576 490.482,928.576L366.606,928.576C361.398,928.576 356.841,926.995 352.935,923.833C349.029,920.671 346.89,916.672 346.518,911.836L330.894,809.164C312.666,803.212 295.926,796.33 280.674,788.518L201.996,848.224C198.276,851.572 193.626,853.246 188.046,853.246C182.838,853.246 178.188,851.2 174.096,847.108C127.224,804.7 96.534,773.452 82.026,753.364C79.422,749.644 78.12,745.366 78.12,740.53C78.12,736.066 79.608,731.788 82.584,727.696C88.164,719.884 97.65,707.515 111.042,690.589C124.434,673.663 134.478,660.55 141.174,651.25C131.13,632.65 123.504,614.236 118.296,596.008L16.182,580.942C11.346,580.198 7.44,577.873 4.464,573.967C1.488,570.061 0,565.69 0,560.854L0,436.978C0,432.514 1.488,428.236 4.464,424.144C7.44,420.052 10.974,417.634 15.066,416.89L118.854,401.266C124.062,384.154 131.316,367.042 140.616,349.93C125.736,328.726 105.834,303.058 80.91,272.926C77.19,268.462 75.33,263.998 75.33,259.534C75.33,255.814 77.004,251.536 80.352,246.7C90.024,233.308 108.345,213.313 135.315,186.715C162.285,160.117 179.862,146.818 188.046,146.818C192.882,146.818 197.718,148.678 202.554,152.398L279.558,212.104C295.926,203.548 312.852,196.48 330.336,190.9C336.288,140.308 341.682,105.712 346.518,87.112C349.122,76.696 355.818,71.488 366.606,71.488L490.482,71.488C495.69,71.488 500.247,73.069 504.153,76.231C508.059,79.393 510.198,83.392 510.57,88.228L526.194,190.9C544.422,196.852 561.162,203.734 576.414,211.546L655.65,151.84C658.998,148.492 663.462,146.818 669.042,146.818C673.878,146.818 678.528,148.678 682.992,152.398C730.98,196.666 761.67,228.286 775.062,247.258C777.666,250.234 778.968,254.326 778.968,259.534C778.968,263.998 777.48,268.276 774.504,272.368C768.924,280.18 759.438,292.549 746.046,309.475C732.654,326.401 722.61,339.514 715.914,348.814C725.586,367.414 733.212,385.642 738.792,403.498L840.906,419.122C845.742,419.866 849.648,422.191 852.624,426.097C855.6,430.003 857.088,434.374 857.088,439.21L857.088,439.21Z" style="fill:rgb(43,72,136);fill-rule:nonzero;"/>
</svg>
