<?xml version="1.0" encoding="UTF-8" standalone="no"?>
<!DOCTYPE svg PUBLIC "-//W3C//DTD SVG 1.1//EN" "http://www.w3.org/Graphics/SVG/1.1/DTD/svg11.dtd">
<svg width="100%" height="100%" viewBox="0 0 1792 1792" version="1.1" xmlns="http://www.w3.org/2000/svg" xmlns:xlink="http://www.w3.org/1999/xlink" xml:space="preserve" style="fill-rule:evenodd;clip-rule:evenodd;stroke-linejoin:round;stroke-miterlimit:1.41421;">
    <g transform="matrix(1,0,0,1,0,-47.1312)">
        <path d="M704,384C602,384 506.667,401.333 418,436C329.333,470.667 258.833,517.667 206.5,577C154.167,636.333 128,700 128,768C128,822.667 145.667,875.333 181,926C216.333,976.667 266,1020.67 330,1058L427,1114L392,1198C414.667,1184.67 435.333,1171.67 454,1159L498,1128L551,1138C603,1147.33 654,1152 704,1152C806,1152 901.333,1134.67 990,1100C1078.67,1065.33 1149.17,1018.33 1201.5,959C1253.83,899.667 1280,836 1280,768C1280,700 1253.83,636.333 1201.5,577C1149.17,517.667 1078.67,470.667 990,436C901.333,401.333 806,384 704,384ZM704,256C831.333,256 949.167,278.833 1057.5,324.5C1165.83,370.167 1251.33,432.333 1314,511C1376.67,589.667 1408,675.333 1408,768C1408,860.667 1376.67,946.333 1314,1025C1251.33,1103.67 1165.83,1165.83 1057.5,1211.5C949.167,1257.17 831.333,1280 704,1280C646.667,1280 588,1274.67 528,1264C445.333,1322.67 352.667,1365.33 250,1392C226,1398 197.333,1403.33 164,1408L161,1408C153.667,1408 146.833,1405.33 140.5,1400C134.167,1394.67 130.333,1387.67 129,1379C128.333,1377 128,1374.83 128,1372.5C128,1370.17 128.167,1368 128.5,1366C128.833,1364 129.5,1362 130.5,1360L133,1355L136.5,1349.5L140.5,1344.5L145,1339.5L149,1335C152.333,1331 160,1322.67 172,1310C184,1297.33 192.667,1287.5 198,1280.5C203.333,1273.5 210.833,1263.83 220.5,1251.5C230.167,1239.17 238.5,1226.33 245.5,1213C252.5,1199.67 259.333,1185 266,1169C183.333,1121 118.333,1062 71,992C23.667,922 0,847.333 0,768C0,675.333 31.333,589.667 94,511C156.667,432.333 242.167,370.167 350.5,324.5C458.833,278.833 576.667,256 704,256ZM1526,1425C1532.67,1441 1539.5,1455.67 1546.5,1469C1553.5,1482.33 1561.83,1495.17 1571.5,1507.5C1581.17,1519.83 1588.67,1529.5 1594,1536.5C1599.33,1543.5 1608,1553.33 1620,1566C1632,1578.67 1639.67,1587 1643,1591C1643.67,1591.67 1645,1593.17 1647,1595.5C1649,1597.83 1650.5,1599.5 1651.5,1600.5C1652.5,1601.5 1653.83,1603.17 1655.5,1605.5C1657.17,1607.83 1658.33,1609.67 1659,1611L1661.5,1616L1663.5,1622L1664,1628.5L1663,1635C1661,1644.33 1656.67,1651.67 1650,1657C1643.33,1662.33 1636,1664.67 1628,1664C1594.67,1659.33 1566,1654 1542,1648C1439.33,1621.33 1346.67,1578.67 1264,1520C1204,1530.67 1145.33,1536 1088,1536C907.333,1536 750,1492 616,1404C654.667,1406.67 684,1408 704,1408C811.333,1408 914.333,1393 1013,1363C1111.67,1333 1199.67,1290 1277,1234C1360.33,1172.67 1424.33,1102 1469,1022C1513.67,942 1536,857.333 1536,768C1536,716.667 1528.33,666 1513,616C1599,663.333 1667,722.667 1717,794C1767,865.333 1792,942 1792,1024C1792,1104 1768.33,1178.83 1721,1248.5C1673.67,1318.17 1608.67,1377 1526,1425Z" style="fill:rgb(43,72,136);fill-rule:nonzero;"/>
    </g>
</svg>
