<?xml version="1.0" encoding="UTF-8" standalone="no"?>
<!DOCTYPE svg PUBLIC "-//W3C//DTD SVG 1.1//EN" "http://www.w3.org/Graphics/SVG/1.1/DTD/svg11.dtd">
<svg width="100%" height="100%" viewBox="0 0 41 41" version="1.1" xmlns="http://www.w3.org/2000/svg" xmlns:xlink="http://www.w3.org/1999/xlink" xml:space="preserve" style="fill-rule:evenodd;clip-rule:evenodd;stroke-linejoin:round;stroke-miterlimit:1.41421;">
    <path d="M36.347,3.925C37.42,3.925 38.35,4.335 39.139,5.155C39.928,5.975 40.322,6.922 40.322,7.994L40.322,32.225C40.322,33.298 39.928,34.244 39.139,35.064C38.35,35.884 37.419,36.294 36.347,36.294L3.975,36.294C2.902,36.294 1.972,35.884 1.183,35.064C0.394,34.244 0,33.298 0,32.225L0,7.995C0,6.922 0.394,5.976 1.183,5.155C1.972,4.334 2.903,3.925 3.975,3.925L36.347,3.925ZM20.161,18.122L36.347,7.995L3.975,7.995L20.161,18.122ZM36.347,32.225L36.347,12.065L20.161,22.097L3.975,12.065L3.975,32.225L36.347,32.225Z" style="fill:rgb(115,161,34);fill-rule:nonzero;"/>
</svg>
