<?xml version="1.0" encoding="iso-8859-1"?>
<!-- Generator: Adobe Illustrator 19.0.0, SVG Export Plug-In . SVG Version: 6.00 Build 0)  -->
<svg xmlns="http://www.w3.org/2000/svg" xmlns:xlink="http://www.w3.org/1999/xlink" version="1.1" id="Layer_1" x="0px" y="0px" viewBox="0 0 512 512" style="enable-background:new 0 0 512 512;" xml:space="preserve" width="512px" height="512px">
<g>
	<g>
		<path d="M309.329,192H74.662c-17.643,0-32,14.357-32,32s14.357,32,32,32h234.667c17.643,0,32-14.357,32-32    S326.971,192,309.329,192z M309.329,234.667H74.662c-5.888,0-10.667-4.779-10.667-10.667s4.779-10.667,10.667-10.667h234.667    c5.888,0,10.667,4.779,10.667,10.667S315.217,234.667,309.329,234.667z" fill="#FFFFFF"/>
	</g>
</g>
<g>
	<g>
		<path d="M309.329,21.333H74.662c-17.643,0-32,14.357-32,32c0,17.643,14.357,32,32,32h234.667c17.643,0,32-14.357,32-32    C341.329,35.691,326.971,21.333,309.329,21.333z M309.329,64H74.662c-5.888,0-10.667-4.779-10.667-10.667    s4.779-10.667,10.667-10.667h234.667c5.888,0,10.667,4.779,10.667,10.667S315.217,64,309.329,64z" fill="#FFFFFF"/>
	</g>
</g>
<g>
	<g>
		<path d="M309.329,64H74.662c-5.888,0-10.667,4.779-10.667,10.667v128c0,5.888,4.779,10.667,10.667,10.667h234.667    c5.888,0,10.667-4.779,10.667-10.667v-128C319.995,68.779,315.217,64,309.329,64z M298.662,192H85.329V85.333h213.333V192z" fill="#FFFFFF"/>
	</g>
</g>
<g>
	<g>
		<path d="M138.662,0H95.995c-5.888,0-10.667,4.779-10.667,10.667s4.779,10.667,10.667,10.667h42.667    c5.888,0,10.667-4.779,10.667-10.667S144.55,0,138.662,0z" fill="#FFFFFF"/>
	</g>
</g>
<g>
	<g>
		<path d="M74.662,384h134.613c5.888,0,10.667-4.779,10.667-10.667c0-5.888-4.779-10.667-10.667-10.667H74.662    c-17.643,0-32,14.357-32,32s14.357,32,32,32h128.085c5.909,0,10.667-4.779,10.667-10.667c0-5.888-4.779-10.667-10.667-10.667    H74.662c-5.888,0-10.667-4.779-10.667-10.667S68.774,384,74.662,384z" fill="#FFFFFF"/>
	</g>
</g>
<g>
	<g>
		<path d="M468.518,283.925c-1.643-3.989-5.547-6.592-9.856-6.592c-80.043,0-153.067,25.237-195.307,67.477    c-18.496,18.496-28.693,43.072-28.693,69.248c0,26.155,10.197,50.752,28.693,69.248S306.449,512,332.603,512    c26.155,0,50.752-10.197,69.269-28.672c18.261-18.261,23.808-51.989,29.675-87.68c6.315-38.485,12.864-78.293,34.667-100.096    C469.265,292.501,470.182,287.915,468.518,283.925z M410.47,392.171c-5.291,32.213-10.304,62.656-23.701,76.053    c-28.928,28.928-79.381,28.949-108.331,0c-14.464-14.464-22.443-33.707-22.443-54.165c0-20.459,7.957-39.701,22.443-54.165    c34.56-34.56,92.672-56.555,158.357-60.565C421.393,325.717,415.675,360.619,410.47,392.171z" fill="#FFFFFF"/>
	</g>
</g>
<g>
	<g>
		<path d="M351.995,362.667c-17.536,0-85.333,61.099-85.333,117.333c0,5.888,4.779,10.667,10.667,10.667s10.667-4.779,10.667-10.667    c0-45.248,54.635-91.627,65.536-96.107c5.163-0.747,9.131-5.205,9.131-10.56C362.662,367.445,357.883,362.667,351.995,362.667z" fill="#FFFFFF"/>
	</g>
</g>
<g>
	<g>
		<path d="M309.329,234.667H74.662c-5.888,0-10.667,4.779-10.667,10.667v128c0,5.888,4.779,10.667,10.667,10.667h134.613    c5.888,0,10.667-4.779,10.667-10.667c0-5.888-4.779-10.667-10.667-10.667H85.329V256h213.333v19.648    c0,5.888,4.779,10.667,10.667,10.667s10.667-4.779,10.667-10.667v-30.315C319.995,239.445,315.217,234.667,309.329,234.667z" fill="#FFFFFF"/>
	</g>
</g>
<g>
</g>
<g>
</g>
<g>
</g>
<g>
</g>
<g>
</g>
<g>
</g>
<g>
</g>
<g>
</g>
<g>
</g>
<g>
</g>
<g>
</g>
<g>
</g>
<g>
</g>
<g>
</g>
<g>
</g>
</svg>
