<?xml version="1.0" encoding="UTF-8" standalone="no"?>
<!DOCTYPE svg PUBLIC "-//W3C//DTD SVG 1.1//EN" "http://www.w3.org/Graphics/SVG/1.1/DTD/svg11.dtd">
<svg width="100%" height="100%" viewBox="0 0 512 512" version="1.1" xmlns="http://www.w3.org/2000/svg" xmlns:xlink="http://www.w3.org/1999/xlink" xml:space="preserve" style="fill-rule:evenodd;clip-rule:evenodd;stroke-linejoin:round;stroke-miterlimit:1.41421;">
    <path d="M469.333,304.232L469.333,85.333C469.333,61.802 450.187,42.666 426.666,42.666L362.666,42.666L362.666,10.666C362.667,4.771 357.896,0 352,0C346.104,0 341.333,4.771 341.333,10.667L341.333,42.667L149.333,42.667L149.333,10.667C149.333,4.771 144.563,0 138.667,0C132.771,0 128,4.771 128,10.667L128,42.667L42.667,42.667C19.146,42.667 0,61.802 0,85.333L0,426.666C0,450.197 19.146,469.333 42.667,469.333L304.23,469.333C325.772,495.376 358.316,512 394.667,512C459.354,512 512,459.365 512,394.667C512,358.313 495.374,325.77 469.333,304.232ZM21.333,85.333C21.333,73.573 30.896,64 42.667,64L128,64L128,85.333C116.229,85.333 106.667,94.906 106.667,106.666C106.667,118.426 116.23,127.999 128,127.999C139.77,127.999 149.333,118.426 149.333,106.666L149.333,64L341.333,64L341.333,85.333C329.562,85.333 320,94.906 320,106.666C320,118.426 329.563,127.999 341.333,127.999C353.104,127.999 362.666,118.426 362.666,106.666L362.666,64L426.666,64C438.438,64 448,73.573 448,85.333L448,149.333L21.333,149.333L21.333,85.333ZM42.667,448C30.896,448 21.334,438.427 21.334,426.667L21.334,170.667L448,170.667L448,290.288C431.977,282.065 413.879,277.334 394.667,277.334C329.979,277.334 277.334,329.969 277.334,394.667C277.334,413.879 282.067,431.977 290.288,448L42.667,448ZM394.667,490.667C341.729,490.667 298.667,447.604 298.667,394.667C298.667,341.73 341.73,298.667 394.667,298.667C447.604,298.667 490.667,341.73 490.667,394.667C490.667,447.604 447.604,490.667 394.667,490.667Z" style="fill:white;fill-rule:nonzero;"/>
    <path d="M405.333,390.25L405.333,330.667C405.333,324.771 400.562,320 394.666,320C388.77,320 384,324.771 384,330.667L384,394.667C384,397.5 385.125,400.209 387.125,402.209L419.125,434.209C421.208,436.292 423.938,437.334 426.667,437.334C429.396,437.334 432.125,436.292 434.209,434.209C438.376,430.042 438.376,423.292 434.209,419.126L405.333,390.25Z" style="fill:white;fill-rule:nonzero;"/>
</svg>
