<?xml version="1.0" encoding="UTF-8" standalone="no"?>
<!DOCTYPE svg PUBLIC "-//W3C//DTD SVG 1.1//EN" "http://www.w3.org/Graphics/SVG/1.1/DTD/svg11.dtd">
<svg width="100%" height="100%" viewBox="0 0 441 665" version="1.1" xmlns="http://www.w3.org/2000/svg" xmlns:xlink="http://www.w3.org/1999/xlink" xml:space="preserve" style="fill-rule:evenodd;clip-rule:evenodd;stroke-linejoin:round;stroke-miterlimit:1.41421;">
    <g transform="matrix(1,0,0,1,-175.841,-127.85)">
        <path d="M435.974,792L356.051,792C349.219,792 343.676,786.457 343.676,779.625C343.676,772.793 349.219,767.25 356.051,767.25L435.974,767.25C442.806,767.25 448.349,772.793 448.349,779.625C448.349,786.457 442.806,792 435.974,792ZM451.957,742.912L340.066,742.912C333.234,742.912 327.691,737.369 327.691,730.537C327.691,723.705 333.26,718.162 340.066,718.162L451.957,718.162C458.789,718.162 464.332,723.705 464.332,730.537C464.332,737.369 458.789,742.912 451.957,742.912ZM467.942,693.799L324.082,693.799C317.25,693.799 311.681,688.256 311.681,681.424C311.681,674.592 317.224,669.049 324.082,669.049L467.942,669.049C474.774,669.049 480.317,674.592 480.317,681.424C480.317,688.256 474.774,693.799 467.942,693.799ZM468.975,640.15L324.109,640.15C317.277,640.15 311.708,634.607 311.708,627.775C311.708,586.525 300.184,573.918 274.609,545.893L274.583,545.868L274.557,545.893C260.094,530.064 241.48,509.67 218.199,477.831C204.664,459.319 193.913,438.54 186.669,416.291C179.656,394.789 175.841,371.792 175.841,348.048C175.841,318.297 181.797,289.834 192.573,263.846L192.805,263.356C203.994,236.543 220.288,212.412 240.371,192.355C260.584,172.143 284.844,155.797 311.863,144.608L311.863,144.582C337.85,133.806 366.313,127.85 396.065,127.85C425.767,127.85 454.202,133.806 480.216,144.582C507.182,155.771 531.493,172.142 551.706,192.354C591.538,232.186 616.211,287.255 616.211,348.047C616.211,371.818 612.396,394.788 605.383,416.317C598.139,438.566 587.388,459.32 573.853,477.832C551.14,508.898 532.707,529.291 518.398,545.145C492.642,573.633 481.35,586.113 481.35,627.775C481.35,634.607 475.807,640.15 468.975,640.15ZM591.435,348.047C591.435,294.087 569.545,245.232 534.201,209.859C516.13,191.786 494.601,177.246 470.779,167.397C447.834,157.884 422.568,152.625 396.012,152.625C369.483,152.625 344.218,157.884 321.298,167.397L321.298,167.372L321.246,167.397C297.424,177.246 275.923,191.786 257.85,209.859C239.958,227.751 225.495,249.098 215.62,272.662L215.362,273.332C205.875,296.251 200.59,321.517 200.59,348.046C200.59,369.238 203.967,389.657 210.155,408.657C216.626,428.43 226.139,446.84 238.102,463.236C260.455,493.812 278.656,513.742 292.81,529.261L292.784,529.286C320.318,559.373 334.008,574.429 336.148,615.421L456.856,615.421C458.97,574.146 472.402,559.244 500.065,528.667C513.884,513.379 531.647,493.708 553.897,463.286C565.859,446.915 575.373,428.507 581.818,408.733C588.058,389.658 591.435,369.265 591.435,348.047ZM393.486,524.039C392.403,524.048 391.322,524.116 390.25,524.264C388.611,524.49 386.998,524.899 385.46,525.51C384.115,526.045 382.833,526.733 381.637,527.547C380.415,528.379 379.284,529.339 378.243,530.387C376.887,531.75 375.675,533.26 374.671,534.9C373.71,536.47 372.946,538.156 372.392,539.912C371.861,541.592 371.523,543.33 371.346,545.083C371.226,546.266 371.182,547.454 371.193,548.643C371.201,549.423 371.229,550.204 371.283,550.983C371.515,554.387 372.219,557.807 373.744,560.878C373.968,561.328 374.208,561.769 374.466,562.201C375.132,563.315 375.915,564.358 376.797,565.31C377.483,566.049 378.229,566.731 379.004,567.374C380.757,568.831 382.701,570.06 384.803,570.946C386.17,571.522 387.597,571.951 389.053,572.231C390.468,572.504 391.907,572.637 393.347,572.653C394.643,572.667 395.941,572.581 397.221,572.373C398.627,572.145 400.01,571.77 401.336,571.249C403.576,570.369 405.636,569.081 407.48,567.542C408.404,566.771 409.288,565.945 410.085,565.043C411.043,563.96 411.876,562.768 412.568,561.498C414.361,558.206 415.166,554.469 415.401,550.752C415.636,547.047 415.375,543.276 414.255,539.72C413.717,538.011 412.982,536.365 412.062,534.827C411.085,533.192 409.903,531.683 408.577,530.318C407.568,529.281 406.47,528.327 405.281,527.501C404.022,526.626 402.661,525.899 401.228,525.352C399.846,524.825 398.403,524.466 396.939,524.261C396.045,524.136 395.144,524.069 394.241,524.046C393.989,524.041 393.738,524.039 393.486,524.039ZM398.061,257.408C396.525,257.416 394.991,257.445 393.456,257.505C390.342,257.626 387.232,257.862 384.137,258.227C376.7,259.104 369.344,260.733 362.288,263.252C358.43,264.63 354.667,266.27 351.039,268.171C349.287,269.089 347.57,270.071 345.881,271.099C344.42,271.987 342.979,272.908 341.562,273.863C337.705,276.46 334.016,279.309 330.563,282.423C327.018,285.619 323.725,289.096 320.756,292.833C319.157,294.845 317.652,296.932 316.249,299.086C315.097,300.854 314.019,302.67 312.996,304.517C311.993,306.327 311.044,308.167 310.158,310.038C308.407,313.732 306.9,317.544 305.714,321.458C304.5,325.464 303.625,329.576 303.162,333.739C302.971,335.46 302.85,337.188 302.801,338.919C302.788,339.396 302.78,339.873 302.778,340.351C302.776,340.727 302.78,341.102 302.798,341.478C302.841,342.365 302.955,343.249 303.142,344.118C303.485,345.719 304.074,347.26 304.843,348.704C305.631,350.185 306.601,351.564 307.679,352.847C308.493,353.818 309.366,354.74 310.328,355.567C311.645,356.7 313.121,357.65 314.726,358.32C315.72,358.735 316.757,359.042 317.813,359.245C318.856,359.446 319.917,359.546 320.978,359.565C322.108,359.585 323.242,359.519 324.358,359.338C325.334,359.179 326.297,358.931 327.222,358.578C328.042,358.265 328.83,357.869 329.572,357.4C331.776,356.004 333.518,353.986 334.905,351.797C335.122,351.454 335.332,351.106 335.533,350.754C335.835,350.227 336.12,349.69 336.391,349.147C336.725,348.474 337.038,347.791 337.331,347.099C337.732,346.153 338.097,345.191 338.432,344.22C338.815,343.11 339.155,341.986 339.474,340.856C339.643,340.311 339.813,339.766 339.986,339.222C341.814,333.504 343.894,327.862 346.38,322.395C348.308,318.16 350.477,314.027 352.981,310.102C354.248,308.117 355.601,306.185 357.053,304.33C357.541,303.706 358.041,303.09 358.553,302.484C359.089,301.85 359.637,301.226 360.206,300.623C361.457,299.298 362.8,298.062 364.223,296.924C366.502,295.103 368.982,293.54 371.593,292.24C374.073,291.006 376.669,290.01 379.326,289.226C384.445,287.716 389.773,286.99 395.099,286.778C397.03,286.701 398.966,286.684 400.899,286.753C402.781,286.819 404.66,286.966 406.529,287.203C409.414,287.57 412.273,288.152 415.064,288.973C417.797,289.777 420.462,290.811 423.016,292.075C425.838,293.472 428.52,295.149 431.014,297.072C433.106,298.684 435.063,300.468 436.88,302.385C438.305,303.89 439.644,305.476 440.879,307.141C443.371,310.501 445.43,314.178 446.963,318.072C447.975,320.64 448.758,323.296 449.316,325.998C449.82,328.442 450.14,330.923 450.292,333.413C450.445,335.924 450.44,338.448 450.227,340.955C449.953,344.166 449.342,347.348 448.382,350.425C447.821,352.222 447.143,353.983 446.355,355.692C445.948,356.574 445.509,357.441 445.052,358.298C444.623,359.104 444.179,359.901 443.72,360.69C441.591,364.349 439.138,367.819 436.393,371.042C435.079,372.584 433.69,374.059 432.285,375.518C430.581,377.288 428.847,379.028 427.099,380.755C424.204,383.616 421.271,386.439 418.322,389.244C416.966,390.534 415.605,391.817 414.247,393.103C413.652,393.669 413.058,394.235 412.464,394.802C407.411,399.652 402.431,404.583 397.656,409.709C396.438,411.017 395.233,412.338 394.047,413.675C393.079,414.766 392.116,415.864 391.191,416.992C390.079,418.348 389.019,419.747 388.015,421.184C385.416,424.9 383.187,428.868 381.308,432.994C380.86,433.978 380.431,434.972 380.022,435.973C379.692,436.779 379.373,437.589 379.076,438.408C378.613,439.681 378.196,440.972 377.822,442.274C376.288,447.614 375.46,453.143 375.091,458.68C374.953,460.742 374.88,462.807 374.861,464.873C374.853,465.743 374.853,466.614 374.88,467.484C374.935,469.198 375.083,470.911 375.372,472.602C375.595,473.904 375.901,475.194 376.326,476.446C376.702,477.55 377.171,478.626 377.76,479.633C378.153,480.306 378.6,480.948 379.103,481.544C379.575,482.104 380.098,482.623 380.643,483.111C381.562,483.935 382.569,484.663 383.655,485.25C384.663,485.796 385.736,486.217 386.844,486.51C388.408,486.925 390.027,487.082 391.643,487.068C392.398,487.061 393.152,487.023 393.903,486.945C395.894,486.739 397.885,486.25 399.642,485.267C400.065,485.03 400.473,484.766 400.862,484.475C401.153,484.256 401.434,484.023 401.703,483.776C403.321,482.292 404.467,480.362 405.31,478.352C405.456,478.004 405.594,477.652 405.723,477.297C405.918,476.762 406.096,476.221 406.258,475.675C406.46,474.994 406.639,474.305 406.797,473.612C406.984,472.797 407.138,471.976 407.28,471.152C407.472,470.235 407.664,469.319 407.857,468.403C408.456,465.575 409.062,462.749 409.709,459.931C409.919,459.015 410.133,458.101 410.357,457.188C410.673,455.895 411.009,454.608 411.402,453.336C411.995,451.414 412.695,449.525 413.488,447.676C413.902,446.71 414.338,445.752 414.808,444.812C415.767,442.897 416.878,441.062 418.08,439.291C419.49,437.212 421.028,435.221 422.637,433.292C424.04,431.61 425.497,429.974 426.987,428.369C429.109,426.082 431.298,423.861 433.521,421.672C435.049,420.197 436.577,418.722 438.104,417.246C445.026,410.546 451.931,403.827 458.745,397.016C460.982,394.78 463.209,392.534 465.411,390.264C466.078,389.578 466.741,388.888 467.403,388.196C467.877,387.7 468.349,387.202 468.813,386.697C469.536,385.91 470.243,385.109 470.934,384.295C474.657,379.906 477.909,375.129 480.736,370.119C481.395,368.952 482.032,367.771 482.646,366.579C483.177,365.55 483.693,364.514 484.168,363.458C485.023,361.557 485.761,359.604 486.39,357.617C488.049,352.37 488.932,346.899 489.25,341.412C489.378,339.209 489.418,337.001 489.373,334.795C489.302,331.308 489.005,327.824 488.464,324.377C487.902,320.798 487.077,317.26 485.991,313.803C484.241,308.231 481.812,302.884 478.833,297.864C477.426,295.494 475.895,293.198 474.239,290.995C472.198,288.28 469.97,285.707 467.576,283.297C465.062,280.765 462.367,278.414 459.528,276.252C456.758,274.144 453.853,272.215 450.848,270.458C448.242,268.935 445.562,267.535 442.817,266.279C439.579,264.797 436.251,263.513 432.861,262.423C425.945,260.199 418.782,258.789 411.558,258.052C408.798,257.77 406.028,257.586 403.254,257.489C401.824,257.439 400.393,257.415 398.962,257.408C398.661,257.408 398.361,257.408 398.061,257.408Z"/>
    </g>
</svg>
