<?xml version="1.0" encoding="UTF-8" standalone="no"?>
<!DOCTYPE svg PUBLIC "-//W3C//DTD SVG 1.1//EN" "http://www.w3.org/Graphics/SVG/1.1/DTD/svg11.dtd">
<svg width="100%" height="100%" viewBox="0 0 20 20" version="1.1" xmlns="http://www.w3.org/2000/svg" xmlns:xlink="http://www.w3.org/1999/xlink" xml:space="preserve" style="fill-rule:evenodd;clip-rule:evenodd;stroke-linejoin:round;stroke-miterlimit:1.41421;">
    <path d="M17.1,17.1C15.1,19.1 12.8,20 10,20C7.2,20 4.9,19 2.9,17.1C0.9,15.2 0,12.7 0,10C0,7.3 1,4.9 2.9,2.9C4.8,0.9 7.2,0 10,0C12.8,0 15.1,1 17.1,2.9C19.1,4.8 20,7.2 20,10C20,12.8 19,15.1 17.1,17.1ZM15.7,4.3C14.1,2.8 12.2,2 10,2C7.8,2 5.9,2.8 4.3,4.3C2.7,5.8 2,7.8 2,10C2,12.2 2.8,14.1 4.4,15.7C6,17.3 7.8,18 10,18C12.2,18 14.1,17.2 15.7,15.6C17.3,14 18,12.2 18,10C18,7.8 17.2,5.9 15.7,4.3ZM11,15L9,15L9,9L11,9L11,15ZM11,7L9,7L9,5L11,5L11,7Z" style="fill:rgb(77,78,90);fill-rule:nonzero;"/>
</svg>
