<?xml version="1.0" encoding="UTF-8" standalone="no"?>
<!DOCTYPE svg PUBLIC "-//W3C//DTD SVG 1.1//EN" "http://www.w3.org/Graphics/SVG/1.1/DTD/svg11.dtd">
<svg width="100%" height="100%" viewBox="0 0 131 130" version="1.1" xmlns="http://www.w3.org/2000/svg" xmlns:xlink="http://www.w3.org/1999/xlink" xml:space="preserve" style="fill-rule:evenodd;clip-rule:evenodd;stroke-linejoin:round;stroke-miterlimit:1.41421;">
    <g transform="matrix(1,0,0,1,-5.41446,-18.7503)">
        <path d="M70.836,18.751C71.949,18.762 73.062,18.793 74.173,18.857C76.227,18.974 78.275,19.188 80.309,19.499C86.118,20.388 91.801,22.073 97.155,24.495C103.582,27.403 109.522,31.366 114.685,36.172C120.027,41.146 124.529,47.015 127.937,53.471C130.851,58.991 132.96,64.931 134.174,71.054C135.567,78.077 135.789,85.333 134.84,92.43C133.955,99.052 132.037,105.528 129.172,111.564C125.814,118.637 121.168,125.086 115.534,130.522C109.702,136.15 102.824,140.678 95.341,143.791C91.276,145.483 87.038,146.756 82.714,147.586C78.663,148.363 74.54,148.75 70.416,148.75C66.292,148.75 62.168,148.363 58.117,147.586C53.793,146.756 49.555,145.483 45.49,143.791C38.007,140.678 31.129,136.15 25.297,130.522C19.663,125.086 15.017,118.637 11.659,111.564C8.794,105.528 6.876,99.052 5.991,92.43C5.042,85.333 5.264,78.077 6.657,71.054C7.871,64.931 9.98,58.991 12.894,53.471C16.302,47.015 20.804,41.146 26.146,36.172C31.309,31.366 37.249,27.403 43.676,24.495C49.03,22.073 54.713,20.388 60.522,19.499C62.556,19.188 64.604,18.974 66.658,18.857C67.77,18.793 68.882,18.762 69.995,18.751C70.276,18.75 70.556,18.75 70.836,18.751ZM70.753,31.751L70.078,31.751C69.184,31.759 68.291,31.785 67.399,31.836C65.755,31.93 64.116,32.101 62.488,32.35C57.849,33.059 53.311,34.405 49.035,36.34C43.891,38.667 39.137,41.84 35.005,45.687C30.726,49.67 27.12,54.37 24.391,59.54C22.113,63.853 20.452,68.487 19.473,73.266C18.278,79.097 18.095,85.137 18.921,91.031C19.646,96.207 21.162,101.267 23.403,105.989C25.703,110.833 28.757,115.31 32.416,119.227C36.328,106.381 46.582,96.288 59.524,92.6C51.435,88.583 45.87,80.236 45.87,70.6C45.87,57.053 56.868,46.054 70.416,46.054C83.963,46.054 94.962,57.053 94.962,70.6C94.962,80.236 89.397,88.583 81.308,92.6C94.25,96.288 104.503,106.381 108.415,119.227C112.074,115.31 115.129,110.833 117.428,105.989C119.669,101.267 121.185,96.207 121.91,91.031C122.736,85.137 122.553,79.097 121.358,73.266C120.38,68.487 118.718,63.853 116.441,59.54C113.711,54.37 110.105,49.67 105.827,45.687C101.694,41.84 96.941,38.667 91.796,36.34C87.521,34.405 82.982,33.059 78.343,32.35C76.715,32.101 75.076,31.93 73.432,31.836C72.54,31.785 71.647,31.759 70.753,31.751Z"/>
    </g>
</svg>
