<?xml version="1.0" encoding="UTF-8" standalone="no"?>
<!DOCTYPE svg PUBLIC "-//W3C//DTD SVG 1.1//EN" "http://www.w3.org/Graphics/SVG/1.1/DTD/svg11.dtd">
<svg width="100%" height="100%" viewBox="0 0 29 41" version="1.1" xmlns="http://www.w3.org/2000/svg" xmlns:xlink="http://www.w3.org/1999/xlink" xml:space="preserve" style="fill-rule:evenodd;clip-rule:evenodd;stroke-linejoin:round;stroke-miterlimit:1.41421;">
    <g transform="matrix(1,0,0,1,-5.883,0)">
        <path d="M29.97,4.117C27.226,1.372 23.897,0 19.985,0C16.073,0 12.744,1.372 10,4.117C7.255,6.862 5.883,10.19 5.883,14.102C5.883,16.058 6.388,18.33 7.397,20.917C8.406,23.504 9.527,25.823 10.757,27.874C11.987,29.925 13.423,32.038 15.064,34.215C16.705,36.392 17.84,37.843 18.471,38.569C19.102,39.295 19.607,39.878 19.985,40.32L21.499,38.711C22.445,37.575 23.597,36.045 24.954,34.121C26.311,32.197 27.683,30.13 29.071,27.922C30.459,25.714 31.642,23.347 32.62,20.823C33.598,18.299 34.087,16.059 34.087,14.103C34.088,10.19 32.715,6.862 29.97,4.117ZM25.243,13.499L25.243,19.534L21.502,19.534L21.502,15.017L18.467,15.017L18.467,19.534L14.726,19.534L14.726,13.499L12.467,13.499L19.984,6.723L27.501,13.499L25.243,13.499L25.243,13.499Z" style="fill-rule:nonzero;"/>
    </g>
</svg>
