<?xml version="1.0" encoding="UTF-8" standalone="no"?>
<!DOCTYPE svg PUBLIC "-//W3C//DTD SVG 1.1//EN" "http://www.w3.org/Graphics/SVG/1.1/DTD/svg11.dtd">
<svg width="100%" height="100%" viewBox="0 0 150 150" version="1.1" xmlns="http://www.w3.org/2000/svg" xmlns:xlink="http://www.w3.org/1999/xlink" xml:space="preserve" style="fill-rule:evenodd;clip-rule:evenodd;stroke-linejoin:round;stroke-miterlimit:1.41421;">
    <g transform="matrix(1,0,0,1,-12.4382,-4.50932)">
        <g transform="matrix(1,0,0,1,360.674,-0.503656)">
            <g transform="matrix(1,0,0,1,-348.867,0)">
                <rect x="26.643" y="5.013" width="123.208" height="149.742"/>
            </g>
        </g>
        <g transform="matrix(1,0,0,1,360.674,-0.503656)">
            <g transform="matrix(1,0,0,1,-348.867,12.7782)">
                <g transform="matrix(1,0,0,1,-1.3768,-2.50519)">
                    <path d="M42.453,14.315C42.711,14.332 42.967,14.354 43.222,14.398C43.816,14.501 44.394,14.695 44.93,14.969C45.62,15.323 46.239,15.81 46.744,16.398C47.193,16.92 47.551,17.52 47.798,18.163C48.013,18.726 48.143,19.321 48.182,19.922C48.215,20.438 48.182,20.957 48.082,21.464C47.917,22.31 47.567,23.116 47.064,23.815C46.56,24.514 45.906,25.102 45.157,25.527C44.483,25.91 43.736,26.16 42.967,26.26C42.71,26.293 42.454,26.304 42.194,26.31L14.009,26.31C13.749,26.304 13.493,26.293 13.236,26.26C12.638,26.182 12.053,26.014 11.505,25.762C10.801,25.439 10.161,24.978 9.631,24.413C9.101,23.848 8.683,23.179 8.406,22.456C8.19,21.893 8.06,21.298 8.021,20.697C7.966,19.837 8.097,18.968 8.406,18.163C8.714,17.359 9.196,16.624 9.812,16.021C10.181,15.66 10.597,15.347 11.046,15.092C11.72,14.709 12.467,14.459 13.236,14.359C13.493,14.326 13.749,14.315 14.009,14.31L42.194,14.31C42.281,14.311 42.367,14.313 42.453,14.315Z" style="fill-rule:nonzero;"/>
                    <path d="M42.72,8.319L42.976,8.337L43.123,8.348L43.282,8.361L43.453,8.378L43.635,8.398L43.83,8.422L44.035,8.452L44.247,8.486L44.473,8.528L44.695,8.573L44.915,8.622L45.135,8.675L45.353,8.733L45.57,8.794L45.786,8.859L46.001,8.929L46.214,9.003L46.426,9.08L46.636,9.162L46.845,9.247L47.053,9.337L47.259,9.43L47.463,9.528L47.656,9.624L47.795,9.696L47.923,9.765L48.051,9.836L48.178,9.907L48.303,9.981L48.428,10.056L48.552,10.132L48.674,10.209L48.796,10.289L48.917,10.369L49.036,10.451L49.155,10.534L49.272,10.619L49.389,10.705L49.504,10.793L49.618,10.882L49.732,10.972L49.844,11.064L49.955,11.157L50.065,11.251L50.174,11.347L50.281,11.444L50.388,11.542L50.493,11.642L50.598,11.743L50.701,11.845L50.803,11.949L50.903,12.054L51.003,12.16L51.101,12.268L51.198,12.376L51.304,12.497L51.461,12.685L51.623,12.886L51.781,13.091L51.934,13.299L52.083,13.51L52.226,13.724L52.365,13.941L52.5,14.161L52.629,14.384L52.754,14.609L52.874,14.837L52.99,15.068L53.1,15.301L53.205,15.538L53.306,15.776L53.399,16.013L53.48,16.229L53.555,16.443L53.626,16.658L53.692,16.874L53.755,17.09L53.813,17.308L53.868,17.527L53.918,17.747L53.964,17.968L54.006,18.19L54.044,18.412L54.077,18.635L54.107,18.859L54.132,19.084L54.153,19.309L54.169,19.531L54.181,19.729L54.188,19.923L54.193,20.117L54.195,20.31L54.193,20.504L54.188,20.697L54.181,20.891L54.17,21.084L54.156,21.276L54.138,21.469L54.118,21.662L54.095,21.854L54.068,22.046L54.039,22.237L54.006,22.428L53.971,22.615L53.938,22.778L53.904,22.936L53.867,23.094L53.828,23.252L53.788,23.408L53.745,23.564L53.7,23.719L53.653,23.873L53.604,24.027L53.553,24.18L53.5,24.332L53.445,24.483L53.388,24.633L53.329,24.783L53.268,24.932L53.205,25.08L53.14,25.227L53.073,25.373L53.005,25.519L52.934,25.663L52.861,25.807L52.786,25.95L52.71,26.091L52.631,26.232L52.551,26.372L52.468,26.51L52.384,26.648L52.297,26.785L52.209,26.921L52.119,27.055L52.027,27.189L51.933,27.321L51.837,27.452L51.74,27.582L51.641,27.71L51.54,27.837L51.438,27.962L51.334,28.086L51.228,28.208L51.121,28.329L51.013,28.448L50.903,28.565L50.791,28.681L50.678,28.796L50.564,28.909L50.448,29.02L50.33,29.13L50.211,29.239L50.091,29.345L49.969,29.45L49.846,29.554L49.721,29.655L49.595,29.755L49.468,29.854L49.339,29.951L49.209,30.046L49.077,30.139L48.944,30.231L48.81,30.321L48.675,30.409L48.538,30.496L48.4,30.581L48.261,30.664L48.122,30.744L47.992,30.816L47.864,30.886L47.736,30.954L47.606,31.02L47.476,31.085L47.345,31.148L47.213,31.21L47.081,31.269L46.948,31.328L46.815,31.384L46.68,31.439L46.546,31.493L46.41,31.544L46.274,31.595L46.138,31.643L46.001,31.69L45.863,31.735L45.725,31.778L45.586,31.82L45.447,31.86L45.307,31.899L45.167,31.935L45.026,31.971L44.885,32.004L44.743,32.036L44.601,32.066L44.459,32.094L44.316,32.121L44.172,32.145L44.028,32.169L43.884,32.19L43.727,32.211L43.524,32.236L43.317,32.256L43.121,32.272L42.938,32.285L42.767,32.294L42.607,32.3L42.46,32.305L42.268,32.31L13.935,32.31L13.743,32.305L13.596,32.3L13.436,32.294L13.265,32.285L13.082,32.272L12.886,32.256L12.68,32.236L12.466,32.21L12.239,32.179L12.016,32.143L11.793,32.103L11.571,32.06L11.351,32.012L11.131,31.96L10.913,31.903L10.695,31.843L10.479,31.779L10.264,31.711L10.05,31.638L9.838,31.562L9.627,31.481L9.417,31.397L9.209,31.308L9.011,31.22L8.87,31.154L8.739,31.09L8.608,31.026L8.478,30.959L8.35,30.892L8.222,30.822L8.095,30.751L7.969,30.679L7.844,30.605L7.72,30.53L7.597,30.453L7.475,30.375L7.354,30.295L7.234,30.214L7.115,30.132L6.997,30.048L6.88,29.962L6.764,29.876L6.649,29.788L6.535,29.698L6.422,29.607L6.311,29.515L6.2,29.421L6.09,29.326L5.982,29.23L5.874,29.132L5.768,29.033L5.663,28.932L5.559,28.83L5.456,28.727L5.354,28.623L5.254,28.517L5.155,28.41L5.057,28.301L4.96,28.192L4.866,28.082L4.772,27.97L4.68,27.858L4.589,27.744L4.5,27.63L4.412,27.514L4.326,27.398L4.241,27.28L4.157,27.162L4.076,27.042L3.995,26.922L3.916,26.8L3.838,26.678L3.762,26.555L3.687,26.431L3.614,26.306L3.543,26.18L3.473,26.053L3.404,25.925L3.337,25.797L3.271,25.667L3.207,25.537L3.145,25.406L3.084,25.274L3.024,25.141L2.966,25.008L2.91,24.873L2.855,24.738L2.799,24.593L2.723,24.39L2.648,24.176L2.578,23.961L2.511,23.746L2.448,23.529L2.39,23.311L2.335,23.092L2.285,22.872L2.239,22.651L2.197,22.429L2.159,22.207L2.126,21.984L2.096,21.76L2.071,21.535L2.05,21.31L2.034,21.092L2.024,20.921L2.017,20.76L2.012,20.598L2.009,20.436L2.009,20.274L2.01,20.113L2.014,19.951L2.02,19.79L2.028,19.629L2.038,19.468L2.051,19.308L2.065,19.147L2.082,18.987L2.101,18.828L2.122,18.668L2.145,18.509L2.17,18.35L2.197,18.192L2.227,18.033L2.258,17.876L2.292,17.718L2.328,17.561L2.366,17.405L2.406,17.248L2.448,17.093L2.492,16.938L2.539,16.783L2.587,16.629L2.638,16.475L2.69,16.322L2.745,16.169L2.802,16.017L2.862,15.866L2.923,15.716L2.986,15.566L3.051,15.418L3.118,15.271L3.186,15.125L3.257,14.98L3.33,14.836L3.404,14.693L3.481,14.551L3.559,14.41L3.639,14.271L3.721,14.132L3.805,13.995L3.89,13.859L3.978,13.724L4.067,13.59L4.158,13.457L4.251,13.326L4.345,13.195L4.441,13.066L4.539,12.939L4.639,12.812L4.741,12.687L4.844,12.563L4.949,12.44L5.056,12.319L5.164,12.199L5.274,12.081L5.386,11.963L5.5,11.848L5.618,11.731L5.755,11.599L5.897,11.466L6.04,11.337L6.186,11.209L6.334,11.084L6.484,10.962L6.635,10.842L6.789,10.724L6.944,10.609L7.102,10.496L7.261,10.386L7.422,10.279L7.584,10.174L7.749,10.071L7.915,9.971L8.078,9.877L8.211,9.803L8.339,9.733L8.468,9.665L8.597,9.599L8.727,9.534L8.858,9.471L8.99,9.409L9.122,9.35L9.255,9.291L9.389,9.235L9.523,9.18L9.657,9.126L9.793,9.075L9.929,9.025L10.065,8.976L10.202,8.929L10.34,8.884L10.478,8.841L10.617,8.799L10.756,8.759L10.896,8.72L11.036,8.684L11.177,8.649L11.318,8.615L11.46,8.583L11.602,8.553L11.744,8.525L11.887,8.498L12.031,8.474L12.175,8.45L12.319,8.429L12.476,8.408L12.68,8.383L12.886,8.363L13.082,8.347L13.265,8.335L13.436,8.325L13.596,8.319L13.743,8.314L13.935,8.31L42.259,8.31L42.72,8.319ZM14.009,14.31L13.912,14.312L13.815,14.315L13.718,14.319L13.622,14.324L13.525,14.33L13.429,14.338L13.333,14.348L13.236,14.359L13.164,14.369L13.092,14.38L13.021,14.391L12.949,14.404L12.878,14.417L12.806,14.431L12.735,14.446L12.664,14.462L12.594,14.479L12.523,14.496L12.453,14.515L12.383,14.534L12.313,14.554L12.244,14.575L12.175,14.597L12.106,14.62L12.037,14.643L11.968,14.667L11.9,14.692L11.832,14.718L11.765,14.745L11.698,14.773L11.631,14.801L11.564,14.83L11.498,14.86L11.432,14.891L11.367,14.922L11.302,14.955L11.237,14.988L11.173,15.022L11.109,15.056L11.046,15.092L10.962,15.14L10.879,15.19L10.797,15.241L10.716,15.294L10.635,15.348L10.555,15.403L10.477,15.459L10.399,15.517L10.322,15.576L10.246,15.636L10.171,15.697L10.097,15.76L10.024,15.823L9.952,15.888L9.882,15.954L9.812,16.021L9.755,16.078L9.698,16.136L9.642,16.194L9.587,16.253L9.533,16.313L9.48,16.374L9.427,16.435L9.376,16.497L9.325,16.56L9.275,16.623L9.226,16.687L9.178,16.752L9.13,16.817L9.084,16.883L9.038,16.95L8.993,17.017L8.95,17.084L8.907,17.153L8.865,17.222L8.824,17.291L8.783,17.361L8.744,17.431L8.706,17.502L8.669,17.574L8.632,17.646L8.597,17.719L8.563,17.792L8.529,17.865L8.497,17.939L8.465,18.013L8.435,18.088L8.406,18.163L8.377,18.239L8.35,18.315L8.324,18.391L8.298,18.468L8.274,18.545L8.251,18.622L8.229,18.7L8.208,18.778L8.188,18.856L8.169,18.934L8.151,19.013L8.134,19.092L8.118,19.171L8.103,19.25L8.09,19.33L8.077,19.409L8.065,19.489L8.055,19.569L8.045,19.649L8.037,19.729L8.03,19.81L8.024,19.89L8.018,19.971L8.014,20.051L8.011,20.132L8.01,20.212L8.009,20.293L8.009,20.374L8.01,20.455L8.013,20.535L8.016,20.616L8.021,20.697L8.029,20.809L8.04,20.922L8.053,21.034L8.067,21.146L8.084,21.258L8.103,21.369L8.124,21.48L8.147,21.591L8.172,21.701L8.199,21.81L8.229,21.919L8.26,22.028L8.293,22.136L8.329,22.243L8.366,22.35L8.406,22.456L8.432,22.523L8.459,22.591L8.487,22.658L8.516,22.724L8.546,22.791L8.576,22.857L8.607,22.922L8.639,22.987L8.672,23.052L8.706,23.116L8.74,23.18L8.775,23.244L8.811,23.307L8.848,23.37L8.885,23.432L8.924,23.494L8.962,23.555L9.002,23.616L9.042,23.676L9.084,23.736L9.125,23.795L9.168,23.854L9.211,23.913L9.255,23.97L9.3,24.028L9.345,24.084L9.391,24.141L9.438,24.196L9.485,24.251L9.533,24.306L9.582,24.36L9.631,24.413L9.681,24.466L9.732,24.518L9.783,24.569L9.835,24.62L9.888,24.67L9.941,24.72L9.994,24.769L10.049,24.817L10.104,24.865L10.159,24.911L10.215,24.958L10.271,25.003L10.329,25.048L10.386,25.092L10.444,25.136L10.503,25.179L10.562,25.221L10.622,25.262L10.682,25.303L10.743,25.342L10.804,25.382L10.865,25.42L10.927,25.458L10.99,25.495L11.053,25.531L11.116,25.566L11.18,25.601L11.244,25.635L11.309,25.668L11.374,25.7L11.44,25.732L11.505,25.762L11.609,25.809L11.713,25.853L11.817,25.895L11.923,25.935L12.029,25.973L12.136,26.01L12.244,26.044L12.352,26.076L12.461,26.106L12.57,26.134L12.68,26.161L12.791,26.185L12.901,26.206L13.013,26.226L13.124,26.244L13.236,26.26L13.333,26.271L13.429,26.281L13.525,26.289L13.622,26.295L13.718,26.3L13.815,26.304L13.912,26.307L14.009,26.31L42.194,26.31L42.292,26.307L42.388,26.304L42.485,26.3L42.581,26.295L42.678,26.289L42.774,26.281L42.871,26.271L42.967,26.26L43.039,26.25L43.111,26.239L43.183,26.228L43.254,26.215L43.326,26.202L43.397,26.188L43.468,26.173L43.539,26.157L43.609,26.14L43.68,26.123L43.75,26.104L43.82,26.085L43.89,26.065L43.959,26.044L44.029,26.022L44.098,25.999L44.166,25.976L44.235,25.952L44.303,25.927L44.371,25.901L44.438,25.874L44.505,25.846L44.572,25.818L44.639,25.789L44.705,25.759L44.771,25.728L44.836,25.697L44.901,25.664L44.966,25.631L45.03,25.597L45.094,25.563L45.157,25.527L45.227,25.487L45.296,25.445L45.365,25.403L45.433,25.36L45.501,25.316L45.568,25.271L45.635,25.225L45.7,25.178L45.765,25.131L45.83,25.082L45.894,25.033L45.957,24.983L46.019,24.932L46.081,24.88L46.142,24.827L46.203,24.774L46.262,24.72L46.321,24.664L46.379,24.609L46.437,24.552L46.493,24.495L46.549,24.436L46.604,24.378L46.659,24.318L46.712,24.257L46.765,24.196L46.817,24.135L46.868,24.072L46.918,24.009L46.968,23.945L47.016,23.881L47.064,23.815L47.11,23.749L47.156,23.683L47.201,23.616L47.245,23.548L47.288,23.48L47.33,23.411L47.372,23.342L47.412,23.272L47.451,23.201L47.49,23.13L47.527,23.059L47.563,22.987L47.599,22.915L47.634,22.842L47.667,22.768L47.7,22.695L47.731,22.62L47.762,22.546L47.791,22.471L47.82,22.395L47.847,22.319L47.874,22.243L47.9,22.167L47.924,22.09L47.947,22.013L47.97,21.935L47.991,21.857L48.012,21.779L48.031,21.701L48.049,21.622L48.066,21.543L48.082,21.464L48.1,21.369L48.117,21.274L48.131,21.178L48.145,21.082L48.156,20.986L48.166,20.89L48.175,20.793L48.182,20.697L48.187,20.6L48.191,20.503L48.194,20.406L48.194,20.31L48.194,20.213L48.191,20.116L48.187,20.019L48.182,19.922L48.174,19.81L48.163,19.697L48.151,19.585L48.136,19.473L48.119,19.361L48.1,19.25L48.079,19.139L48.056,19.028L48.031,18.918L48.004,18.809L47.974,18.7L47.943,18.591L47.91,18.483L47.874,18.376L47.837,18.269L47.798,18.163L47.75,18.043L47.7,17.924L47.647,17.806L47.592,17.69L47.535,17.574L47.474,17.46L47.412,17.347L47.347,17.235L47.28,17.125L47.21,17.017L47.138,16.909L47.064,16.804L46.987,16.7L46.908,16.598L46.827,16.497L46.744,16.398L46.697,16.343L46.648,16.289L46.599,16.235L46.55,16.182L46.499,16.13L46.448,16.078L46.397,16.027L46.345,15.977L46.292,15.927L46.239,15.877L46.185,15.829L46.13,15.781L46.075,15.734L46.019,15.687L45.963,15.641L45.906,15.596L45.849,15.551L45.791,15.507L45.733,15.464L45.674,15.422L45.615,15.38L45.555,15.339L45.494,15.299L45.433,15.259L45.372,15.22L45.31,15.182L45.248,15.145L45.185,15.108L45.122,15.072L45.058,15.037L44.994,15.003L44.93,14.969L44.829,14.919L44.727,14.87L44.624,14.823L44.52,14.779L44.416,14.736L44.31,14.695L44.204,14.656L44.098,14.619L43.99,14.585L43.882,14.552L43.773,14.521L43.664,14.492L43.554,14.466L43.444,14.441L43.333,14.419L43.222,14.398L43.126,14.383L43.031,14.369L42.935,14.357L42.839,14.346L42.742,14.337L42.646,14.329L42.549,14.322L42.453,14.315L42.194,14.31L14.009,14.31Z" style="fill:white;"/>
                </g>
                <g transform="matrix(1,0,0,1,-1.3768,30.3626)">
                    <path d="M42.453,14.315C42.711,14.332 42.967,14.354 43.222,14.398C43.986,14.531 44.722,14.813 45.379,15.224C46.109,15.681 46.737,16.296 47.21,17.016C47.683,17.737 47.997,18.558 48.127,19.409C48.204,19.92 48.215,20.44 48.16,20.954C48.095,21.553 47.94,22.142 47.7,22.695C47.426,23.327 47.043,23.91 46.572,24.413C46.042,24.978 45.402,25.439 44.698,25.762C44.15,26.014 43.565,26.182 42.967,26.26C42.71,26.293 42.454,26.304 42.194,26.31L14.009,26.31C13.749,26.304 13.493,26.293 13.236,26.26C12.467,26.16 11.72,25.91 11.046,25.527C10.522,25.229 10.043,24.853 9.631,24.413C9.278,24.036 8.974,23.614 8.729,23.159C8.319,22.401 8.077,21.556 8.021,20.697C7.966,19.837 8.097,18.968 8.406,18.163C8.683,17.44 9.101,16.771 9.631,16.206C10.161,15.641 10.801,15.18 11.505,14.857C12.053,14.605 12.638,14.437 13.236,14.359C13.493,14.326 13.749,14.315 14.009,14.31L42.194,14.31C42.281,14.311 42.367,14.313 42.453,14.315Z" style="fill-rule:nonzero;"/>
                    <path d="M42.72,8.319L42.976,8.337L43.123,8.348L43.282,8.361L43.452,8.378L43.635,8.398L43.83,8.422L44.035,8.452L44.238,8.484L44.394,8.513L44.537,8.54L44.68,8.57L44.822,8.601L44.964,8.633L45.105,8.668L45.246,8.704L45.386,8.742L45.525,8.781L45.665,8.822L45.803,8.865L45.941,8.909L46.078,8.956L46.215,9.003L46.351,9.053L46.487,9.104L46.622,9.156L46.756,9.21L46.89,9.266L47.023,9.324L47.155,9.383L47.287,9.444L47.418,9.506L47.548,9.57L47.678,9.635L47.806,9.703L47.934,9.771L48.062,9.842L48.188,9.914L48.314,9.987L48.439,10.062L48.565,10.14L48.7,10.226L48.836,10.315L48.97,10.405L49.103,10.498L49.235,10.592L49.365,10.687L49.494,10.785L49.621,10.884L49.747,10.985L49.872,11.087L49.994,11.191L50.116,11.296L50.236,11.403L50.355,11.512L50.472,11.622L50.588,11.734L50.702,11.847L50.815,11.962L50.926,12.078L51.035,12.196L51.144,12.315L51.25,12.436L51.355,12.558L51.458,12.682L51.56,12.807L51.66,12.934L51.758,13.062L51.855,13.191L51.95,13.322L52.044,13.454L52.136,13.588L52.226,13.723L52.314,13.86L52.4,13.997L52.484,14.135L52.567,14.275L52.647,14.415L52.725,14.556L52.802,14.699L52.876,14.842L52.949,14.986L53.019,15.131L53.088,15.276L53.154,15.423L53.219,15.57L53.281,15.718L53.342,15.867L53.4,16.017L53.457,16.168L53.511,16.319L53.564,16.471L53.614,16.624L53.663,16.778L53.709,16.932L53.753,17.087L53.796,17.242L53.836,17.398L53.874,17.555L53.91,17.713L53.944,17.871L53.976,18.029L54.006,18.189L54.033,18.348L54.059,18.513L54.086,18.701L54.111,18.893L54.132,19.086L54.15,19.279L54.165,19.472L54.177,19.665L54.186,19.858L54.192,20.051L54.194,20.245L54.194,20.438L54.19,20.632L54.184,20.825L54.174,21.018L54.161,21.212L54.145,21.405L54.125,21.602L54.099,21.823L54.068,22.047L54.033,22.271L53.994,22.493L53.951,22.715L53.904,22.936L53.852,23.155L53.797,23.374L53.737,23.591L53.673,23.808L53.606,24.023L53.534,24.237L53.458,24.45L53.378,24.661L53.294,24.871L53.204,25.084L53.1,25.317L52.99,25.551L52.874,25.782L52.754,26.011L52.629,26.236L52.499,26.459L52.365,26.679L52.226,26.896L52.082,27.11L51.934,27.32L51.781,27.528L51.624,27.732L51.462,27.934L51.295,28.131L51.125,28.326L50.959,28.506L50.849,28.622L50.747,28.727L50.644,28.83L50.54,28.932L50.435,29.033L50.329,29.132L50.221,29.23L50.113,29.326L50.003,29.421L49.892,29.515L49.781,29.607L49.668,29.698L49.554,29.788L49.439,29.876L49.323,29.963L49.206,30.048L49.088,30.132L48.969,30.214L48.849,30.295L48.728,30.375L48.606,30.453L48.483,30.53L48.359,30.605L48.234,30.679L48.108,30.751L47.981,30.822L47.853,30.891L47.725,30.959L47.595,31.026L47.465,31.09L47.333,31.154L47.192,31.22L46.994,31.308L46.786,31.397L46.576,31.481L46.365,31.562L46.153,31.638L45.939,31.711L45.724,31.779L45.508,31.843L45.29,31.903L45.072,31.96L44.852,32.012L44.632,32.06L44.41,32.103L44.187,32.143L43.964,32.179L43.737,32.21L43.524,32.236L43.317,32.256L43.121,32.272L42.938,32.285L42.767,32.294L42.607,32.3L42.46,32.305L42.268,32.31L13.935,32.31L13.743,32.305L13.596,32.3L13.436,32.294L13.265,32.285L13.082,32.272L12.886,32.256L12.68,32.236L12.476,32.211L12.319,32.19L12.175,32.169L12.031,32.145L11.888,32.121L11.744,32.094L11.602,32.066L11.46,32.036L11.318,32.004L11.177,31.971L11.036,31.935L10.896,31.899L10.756,31.86L10.617,31.82L10.478,31.778L10.34,31.735L10.202,31.69L10.065,31.643L9.929,31.595L9.793,31.544L9.657,31.493L9.523,31.439L9.389,31.384L9.255,31.328L9.122,31.269L8.99,31.21L8.858,31.148L8.727,31.085L8.597,31.02L8.467,30.954L8.339,30.886L8.211,30.816L8.074,30.74L7.887,30.631L7.694,30.514L7.503,30.393L7.314,30.269L7.128,30.141L6.944,30.01L6.763,29.875L6.584,29.737L6.408,29.596L6.235,29.452L6.065,29.304L5.897,29.153L5.732,28.999L5.57,28.841L5.41,28.681L5.257,28.52L5.122,28.374L4.993,28.229L4.866,28.083L4.742,27.934L4.62,27.784L4.501,27.631L4.384,27.477L4.27,27.321L4.158,27.163L4.049,27.004L3.942,26.842L3.838,26.679L3.737,26.514L3.638,26.347L3.542,26.179L3.45,26.012L3.372,25.866L3.298,25.721L3.226,25.576L3.156,25.43L3.088,25.284L3.022,25.136L2.958,24.988L2.896,24.839L2.837,24.689L2.779,24.539L2.723,24.388L2.669,24.236L2.618,24.084L2.568,23.931L2.521,23.777L2.475,23.623L2.432,23.468L2.391,23.312L2.351,23.156L2.314,23L2.279,22.843L2.246,22.685L2.215,22.527L2.187,22.368L2.16,22.209L2.135,22.05L2.113,21.89L2.093,21.729L2.075,21.568L2.059,21.407L2.045,21.246L2.033,21.084L2.024,20.922L2.017,20.76L2.012,20.598L2.009,20.436L2.009,20.274L2.01,20.113L2.014,19.951L2.02,19.79L2.028,19.629L2.038,19.468L2.051,19.308L2.065,19.147L2.082,18.987L2.101,18.828L2.122,18.668L2.145,18.509L2.17,18.35L2.197,18.192L2.227,18.033L2.258,17.876L2.292,17.718L2.328,17.561L2.366,17.405L2.406,17.248L2.448,17.093L2.492,16.938L2.539,16.783L2.587,16.629L2.638,16.475L2.69,16.322L2.745,16.169L2.802,16.019L2.855,15.881L2.91,15.746L2.966,15.611L3.024,15.478L3.084,15.345L3.145,15.213L3.207,15.082L3.271,14.952L3.337,14.822L3.404,14.694L3.473,14.566L3.543,14.439L3.614,14.313L3.687,14.188L3.762,14.064L3.838,13.941L3.916,13.819L3.995,13.697L4.075,13.577L4.158,13.457L4.241,13.339L4.326,13.221L4.412,13.105L4.5,12.989L4.589,12.875L4.68,12.761L4.772,12.649L4.866,12.537L4.96,12.427L5.057,12.318L5.155,12.209L5.254,12.102L5.354,11.996L5.456,11.892L5.559,11.789L5.663,11.687L5.768,11.586L5.874,11.487L5.982,11.389L6.09,11.293L6.2,11.198L6.311,11.104L6.422,11.012L6.535,10.921L6.649,10.831L6.764,10.743L6.88,10.657L6.997,10.571L7.115,10.487L7.234,10.405L7.354,10.324L7.475,10.244L7.597,10.166L7.72,10.089L7.844,10.014L7.969,9.94L8.095,9.868L8.222,9.797L8.35,9.728L8.478,9.66L8.608,9.593L8.739,9.529L8.87,9.465L9.011,9.399L9.209,9.311L9.417,9.222L9.627,9.138L9.838,9.057L10.05,8.981L10.264,8.908L10.479,8.84L10.695,8.776L10.913,8.716L11.131,8.659L11.351,8.607L11.571,8.559L11.793,8.516L12.016,8.476L12.239,8.44L12.466,8.409L12.68,8.383L12.886,8.363L13.082,8.347L13.265,8.335L13.436,8.325L13.596,8.319L13.743,8.314L13.935,8.31L42.259,8.31L42.72,8.319ZM14.009,14.31L13.912,14.312L13.815,14.315L13.718,14.319L13.622,14.324L13.525,14.33L13.429,14.338L13.333,14.348L13.236,14.359L13.124,14.375L13.013,14.393L12.901,14.413L12.791,14.435L12.68,14.458L12.57,14.485L12.461,14.513L12.352,14.543L12.244,14.575L12.136,14.609L12.029,14.646L11.923,14.684L11.817,14.724L11.713,14.766L11.609,14.81L11.505,14.857L11.44,14.887L11.374,14.919L11.309,14.951L11.244,14.984L11.18,15.018L11.116,15.053L11.053,15.088L10.99,15.124L10.927,15.161L10.865,15.199L10.804,15.237L10.743,15.277L10.682,15.316L10.622,15.357L10.562,15.398L10.503,15.441L10.444,15.483L10.386,15.527L10.329,15.571L10.271,15.616L10.215,15.661L10.159,15.708L10.104,15.754L10.049,15.802L9.994,15.85L9.941,15.899L9.888,15.949L9.835,15.999L9.783,16.05L9.732,16.101L9.681,16.153L9.631,16.206L9.582,16.259L9.533,16.313L9.485,16.368L9.438,16.423L9.391,16.478L9.345,16.535L9.3,16.591L9.255,16.649L9.211,16.706L9.168,16.765L9.125,16.824L9.084,16.883L9.042,16.943L9.002,17.003L8.962,17.064L8.924,17.125L8.885,17.187L8.848,17.249L8.811,17.312L8.775,17.375L8.74,17.439L8.706,17.503L8.672,17.567L8.639,17.632L8.607,17.697L8.576,17.762L8.546,17.828L8.516,17.895L8.487,17.961L8.459,18.028L8.432,18.096L8.406,18.163L8.377,18.239L8.35,18.315L8.324,18.391L8.298,18.468L8.274,18.545L8.251,18.622L8.229,18.7L8.208,18.778L8.188,18.856L8.169,18.934L8.151,19.013L8.134,19.092L8.118,19.171L8.103,19.25L8.09,19.33L8.077,19.409L8.065,19.489L8.055,19.569L8.045,19.649L8.037,19.729L8.03,19.81L8.024,19.89L8.018,19.971L8.014,20.051L8.011,20.132L8.01,20.213L8.009,20.293L8.009,20.374L8.01,20.455L8.013,20.535L8.016,20.616L8.021,20.697L8.027,20.777L8.034,20.858L8.042,20.938L8.051,21.018L8.061,21.098L8.072,21.178L8.084,21.258L8.098,21.337L8.112,21.417L8.127,21.496L8.144,21.575L8.161,21.654L8.18,21.732L8.2,21.81L8.22,21.888L8.242,21.966L8.265,22.043L8.289,22.12L8.314,22.197L8.34,22.274L8.366,22.35L8.394,22.425L8.423,22.501L8.453,22.576L8.484,22.65L8.516,22.724L8.549,22.798L8.583,22.871L8.618,22.944L8.654,23.016L8.691,23.088L8.729,23.159L8.775,23.244L8.823,23.328L8.873,23.411L8.923,23.494L8.975,23.576L9.029,23.656L9.083,23.736L9.139,23.815L9.197,23.893L9.255,23.971L9.315,24.047L9.376,24.122L9.438,24.196L9.501,24.27L9.566,24.342L9.631,24.413L9.709,24.495L9.789,24.575L9.87,24.654L9.952,24.731L10.036,24.806L10.122,24.88L10.209,24.953L10.297,25.023L10.386,25.092L10.477,25.16L10.569,25.225L10.662,25.289L10.756,25.351L10.852,25.412L10.948,25.47L11.046,25.527L11.109,25.563L11.173,25.597L11.237,25.631L11.302,25.664L11.367,25.697L11.432,25.728L11.498,25.759L11.564,25.789L11.631,25.818L11.698,25.846L11.765,25.874L11.832,25.901L11.9,25.927L11.968,25.952L12.037,25.976L12.106,25.999L12.175,26.022L12.244,26.044L12.313,26.065L12.383,26.085L12.453,26.104L12.523,26.123L12.594,26.14L12.664,26.157L12.735,26.173L12.806,26.188L12.878,26.202L12.949,26.215L13.021,26.228L13.092,26.239L13.164,26.25L13.236,26.26L13.333,26.271L13.429,26.281L13.525,26.289L13.622,26.295L13.718,26.3L13.815,26.304L13.912,26.307L14.009,26.31L42.194,26.31L42.292,26.307L42.388,26.304L42.485,26.3L42.581,26.295L42.678,26.289L42.774,26.281L42.871,26.271L42.967,26.26L43.079,26.244L43.19,26.226L43.302,26.206L43.412,26.185L43.523,26.161L43.633,26.134L43.742,26.106L43.851,26.076L43.959,26.044L44.067,26.01L44.174,25.973L44.28,25.935L44.386,25.895L44.491,25.853L44.595,25.809L44.698,25.762L44.763,25.732L44.829,25.7L44.894,25.668L44.959,25.635L45.023,25.601L45.087,25.566L45.15,25.531L45.213,25.495L45.276,25.458L45.338,25.42L45.399,25.382L45.46,25.342L45.521,25.303L45.581,25.262L45.641,25.221L45.7,25.179L45.759,25.136L45.817,25.092L45.875,25.048L45.932,25.003L45.988,24.958L46.044,24.911L46.1,24.865L46.154,24.817L46.209,24.769L46.262,24.72L46.316,24.67L46.368,24.62L46.42,24.569L46.471,24.518L46.522,24.466L46.572,24.413L46.659,24.318L46.744,24.221L46.827,24.122L46.908,24.021L46.987,23.919L47.064,23.815L47.138,23.71L47.21,23.602L47.28,23.494L47.347,23.384L47.412,23.272L47.474,23.159L47.535,23.045L47.592,22.929L47.647,22.813L47.7,22.695L47.744,22.591L47.786,22.486L47.826,22.38L47.864,22.274L47.9,22.167L47.934,22.059L47.966,21.951L47.995,21.842L48.023,21.732L48.049,21.622L48.073,21.512L48.094,21.401L48.114,21.29L48.131,21.178L48.147,21.066L48.16,20.954L48.169,20.857L48.177,20.761L48.184,20.664L48.189,20.568L48.192,20.471L48.194,20.374L48.194,20.277L48.193,20.18L48.19,20.084L48.186,19.987L48.18,19.89L48.172,19.794L48.163,19.697L48.153,19.601L48.14,19.505L48.127,19.409L48.114,19.329L48.1,19.25L48.085,19.171L48.069,19.091L48.053,19.012L48.034,18.934L48.015,18.855L47.995,18.777L47.974,18.699L47.952,18.622L47.929,18.545L47.904,18.468L47.879,18.391L47.853,18.315L47.825,18.239L47.797,18.163L47.768,18.088L47.737,18.014L47.706,17.939L47.674,17.865L47.64,17.792L47.606,17.719L47.571,17.646L47.535,17.574L47.497,17.503L47.459,17.432L47.42,17.361L47.38,17.291L47.339,17.222L47.297,17.153L47.254,17.084L47.21,17.016L47.165,16.949L47.12,16.883L47.073,16.817L47.026,16.751L46.977,16.687L46.928,16.623L46.878,16.56L46.827,16.497L46.775,16.435L46.723,16.374L46.67,16.313L46.615,16.253L46.56,16.194L46.505,16.136L46.448,16.079L46.391,16.022L46.333,15.966L46.274,15.91L46.215,15.856L46.154,15.802L46.094,15.75L46.032,15.697L45.97,15.646L45.907,15.596L45.843,15.546L45.778,15.498L45.713,15.45L45.648,15.403L45.581,15.357L45.515,15.312L45.447,15.268L45.379,15.224L45.317,15.186L45.255,15.149L45.192,15.112L45.129,15.076L45.065,15.041L45.001,15.007L44.937,14.973L44.872,14.94L44.807,14.908L44.741,14.877L44.675,14.847L44.609,14.817L44.543,14.788L44.476,14.76L44.408,14.733L44.341,14.707L44.273,14.681L44.204,14.656L44.136,14.633L44.067,14.609L43.998,14.587L43.929,14.566L43.859,14.545L43.789,14.525L43.719,14.507L43.649,14.488L43.578,14.471L43.507,14.455L43.436,14.439L43.365,14.425L43.294,14.411L43.222,14.398L43.126,14.383L43.031,14.369L42.935,14.357L42.839,14.346L42.742,14.337L42.646,14.329L42.549,14.322L42.453,14.315L42.194,14.31L14.009,14.31Z" style="fill:white;"/>
                </g>
                <g transform="matrix(1,0,0,1,-1.3768,63.2304)">
                    <path d="M42.453,14.315C42.711,14.332 42.967,14.354 43.222,14.398C43.986,14.531 44.722,14.813 45.379,15.224C45.89,15.544 46.351,15.941 46.744,16.398C47.081,16.79 47.367,17.225 47.592,17.69C47.968,18.465 48.175,19.319 48.193,20.18C48.212,21.042 48.042,21.904 47.7,22.695C47.426,23.327 47.043,23.91 46.572,24.413C46.042,24.978 45.402,25.439 44.698,25.762C44.15,26.014 43.565,26.182 42.967,26.26C42.71,26.293 42.454,26.304 42.194,26.31L14.009,26.31C13.749,26.304 13.493,26.293 13.236,26.26C12.467,26.16 11.72,25.91 11.046,25.527C10.522,25.229 10.043,24.853 9.631,24.413C9.042,23.785 8.592,23.03 8.318,22.213C8.045,21.396 7.951,20.522 8.043,19.665C8.099,19.152 8.221,18.646 8.406,18.163C8.683,17.44 9.101,16.771 9.631,16.206C10.161,15.641 10.801,15.18 11.505,14.857C12.053,14.605 12.638,14.437 13.236,14.359C13.493,14.326 13.749,14.315 14.009,14.31L42.194,14.31C42.281,14.311 42.367,14.313 42.453,14.315Z" style="fill-rule:nonzero;"/>
                    <path d="M42.72,8.319L42.976,8.337L43.123,8.348L43.282,8.361L43.453,8.378L43.635,8.398L43.83,8.422L44.035,8.452L44.237,8.484L44.394,8.513L44.537,8.54L44.679,8.57L44.822,8.601L44.964,8.633L45.105,8.668L45.246,8.704L45.386,8.742L45.525,8.781L45.664,8.822L45.803,8.865L45.941,8.909L46.078,8.956L46.215,9.003L46.351,9.053L46.487,9.104L46.622,9.156L46.756,9.21L46.89,9.266L47.023,9.324L47.155,9.383L47.287,9.444L47.418,9.506L47.548,9.57L47.678,9.635L47.806,9.703L47.934,9.771L48.062,9.842L48.188,9.914L48.314,9.987L48.439,10.062L48.572,10.144L48.754,10.261L48.943,10.386L49.128,10.515L49.311,10.647L49.492,10.783L49.67,10.922L49.845,11.064L50.017,11.21L50.187,11.358L50.354,11.51L50.518,11.665L50.679,11.823L50.837,11.984L50.993,12.149L51.145,12.316L51.292,12.483L51.42,12.635L51.542,12.785L51.663,12.937L51.78,13.09L51.896,13.246L52.008,13.403L52.118,13.563L52.226,13.723L52.331,13.886L52.433,14.05L52.532,14.216L52.629,14.383L52.724,14.553L52.815,14.723L52.904,14.896L52.988,15.066L53.06,15.216L53.128,15.364L53.194,15.512L53.257,15.66L53.319,15.81L53.379,15.96L53.436,16.111L53.491,16.262L53.545,16.414L53.596,16.567L53.645,16.721L53.692,16.874L53.737,17.029L53.78,17.184L53.821,17.34L53.86,17.496L53.896,17.652L53.931,17.809L53.963,17.967L53.994,18.125L54.022,18.283L54.048,18.442L54.072,18.602L54.094,18.761L54.114,18.921L54.132,19.082L54.147,19.243L54.16,19.404L54.171,19.565L54.18,19.727L54.187,19.889L54.192,20.051L54.194,20.214L54.194,20.376L54.192,20.538L54.188,20.7L54.182,20.861L54.173,21.022L54.163,21.184L54.15,21.344L54.135,21.505L54.118,21.665L54.098,21.825L54.077,21.984L54.053,22.144L54.028,22.303L54,22.461L53.97,22.619L53.938,22.776L53.904,22.934L53.868,23.09L53.829,23.247L53.789,23.402L53.746,23.558L53.702,23.713L53.655,23.867L53.606,24.021L53.555,24.174L53.502,24.326L53.447,24.478L53.39,24.63L53.331,24.781L53.269,24.931L53.201,25.091L53.1,25.317L52.99,25.551L52.874,25.782L52.754,26.011L52.629,26.236L52.499,26.459L52.365,26.679L52.226,26.896L52.082,27.11L51.934,27.32L51.781,27.528L51.624,27.732L51.462,27.933L51.295,28.131L51.125,28.326L50.959,28.506L50.849,28.622L50.747,28.727L50.644,28.83L50.54,28.932L50.435,29.033L50.329,29.132L50.221,29.23L50.113,29.326L50.003,29.421L49.893,29.515L49.781,29.607L49.668,29.698L49.554,29.788L49.439,29.876L49.323,29.963L49.206,30.048L49.088,30.132L48.969,30.214L48.849,30.295L48.728,30.375L48.606,30.453L48.483,30.53L48.359,30.605L48.234,30.679L48.108,30.751L47.981,30.822L47.853,30.891L47.725,30.959L47.595,31.026L47.465,31.09L47.333,31.154L47.192,31.22L46.994,31.308L46.786,31.397L46.576,31.481L46.365,31.562L46.153,31.638L45.939,31.711L45.724,31.779L45.508,31.843L45.29,31.903L45.072,31.96L44.852,32.012L44.632,32.06L44.41,32.103L44.187,32.143L43.964,32.179L43.737,32.21L43.524,32.236L43.317,32.256L43.121,32.272L42.938,32.285L42.767,32.294L42.607,32.3L42.46,32.305L42.268,32.31L13.935,32.31L13.743,32.305L13.596,32.3L13.436,32.294L13.265,32.285L13.082,32.272L12.886,32.256L12.68,32.236L12.476,32.211L12.319,32.19L12.175,32.169L12.031,32.145L11.888,32.121L11.744,32.094L11.602,32.066L11.46,32.036L11.318,32.004L11.177,31.971L11.036,31.935L10.896,31.899L10.756,31.86L10.617,31.82L10.478,31.778L10.34,31.735L10.202,31.69L10.066,31.643L9.929,31.595L9.793,31.544L9.658,31.493L9.523,31.439L9.388,31.384L9.255,31.328L9.122,31.27L8.99,31.21L8.858,31.148L8.727,31.085L8.597,31.02L8.468,30.954L8.339,30.886L8.211,30.816L8.075,30.74L7.887,30.631L7.694,30.514L7.503,30.393L7.314,30.269L7.128,30.141L6.944,30.01L6.763,29.875L6.584,29.737L6.409,29.596L6.235,29.452L6.065,29.304L5.897,29.153L5.732,28.999L5.57,28.841L5.41,28.681L5.259,28.523L5.144,28.397L5.035,28.277L4.928,28.155L4.823,28.032L4.72,27.907L4.619,27.782L4.519,27.655L4.421,27.526L4.325,27.397L4.231,27.266L4.139,27.134L4.048,27.001L3.959,26.867L3.872,26.732L3.787,26.595L3.704,26.458L3.622,26.319L3.543,26.179L3.465,26.039L3.389,25.897L3.315,25.754L3.243,25.61L3.173,25.465L3.104,25.319L3.038,25.172L2.973,25.024L2.911,24.875L2.85,24.725L2.792,24.574L2.735,24.422L2.681,24.269L2.628,24.116L2.578,23.962L2.529,23.807L2.483,23.651L2.439,23.496L2.397,23.339L2.358,23.183L2.32,23.026L2.285,22.869L2.251,22.711L2.22,22.553L2.191,22.394L2.164,22.236L2.14,22.077L2.117,21.917L2.097,21.758L2.078,21.598L2.062,21.438L2.048,21.278L2.036,21.117L2.026,20.957L2.019,20.796L2.013,20.635L2.01,20.474L2.009,20.313L2.01,20.152L2.013,19.99L2.018,19.829L2.026,19.667L2.035,19.506L2.047,19.344L2.061,19.182L2.078,19.017L2.1,18.828L2.126,18.636L2.154,18.444L2.186,18.253L2.221,18.063L2.258,17.873L2.299,17.684L2.343,17.496L2.39,17.308L2.44,17.121L2.493,16.935L2.549,16.75L2.608,16.565L2.669,16.382L2.734,16.199L2.8,16.023L2.856,15.881L2.91,15.746L2.966,15.611L3.024,15.478L3.084,15.345L3.145,15.213L3.207,15.082L3.271,14.952L3.337,14.822L3.404,14.694L3.473,14.566L3.543,14.439L3.614,14.313L3.687,14.188L3.762,14.064L3.838,13.941L3.916,13.819L3.995,13.697L4.075,13.577L4.157,13.457L4.241,13.339L4.326,13.221L4.412,13.105L4.5,12.989L4.589,12.875L4.68,12.761L4.772,12.649L4.866,12.537L4.96,12.427L5.057,12.318L5.155,12.209L5.254,12.102L5.354,11.997L5.456,11.892L5.559,11.789L5.663,11.687L5.768,11.586L5.874,11.487L5.982,11.389L6.09,11.293L6.2,11.198L6.31,11.104L6.422,11.012L6.535,10.921L6.649,10.831L6.764,10.743L6.88,10.657L6.997,10.571L7.115,10.487L7.234,10.405L7.354,10.324L7.475,10.244L7.597,10.166L7.72,10.089L7.844,10.014L7.969,9.94L8.095,9.868L8.222,9.797L8.35,9.728L8.478,9.66L8.608,9.593L8.739,9.529L8.87,9.465L9.011,9.399L9.209,9.311L9.417,9.222L9.627,9.138L9.838,9.057L10.051,8.981L10.264,8.908L10.479,8.84L10.695,8.776L10.913,8.716L11.131,8.659L11.351,8.607L11.571,8.559L11.793,8.516L12.016,8.476L12.239,8.44L12.466,8.409L12.68,8.383L12.886,8.363L13.082,8.347L13.265,8.335L13.436,8.325L13.596,8.319L13.742,8.314L13.935,8.31L42.259,8.31L42.72,8.319ZM14.009,14.31L13.912,14.312L13.815,14.315L13.718,14.319L13.622,14.324L13.525,14.33L13.429,14.338L13.333,14.348L13.236,14.359L13.124,14.375L13.013,14.393L12.901,14.413L12.791,14.434L12.68,14.458L12.57,14.485L12.461,14.513L12.352,14.543L12.244,14.575L12.136,14.609L12.029,14.646L11.923,14.684L11.817,14.724L11.713,14.766L11.609,14.81L11.505,14.857L11.44,14.887L11.374,14.919L11.309,14.951L11.244,14.984L11.18,15.018L11.116,15.053L11.053,15.088L10.99,15.124L10.927,15.161L10.865,15.199L10.804,15.237L10.743,15.277L10.682,15.316L10.622,15.357L10.562,15.398L10.503,15.441L10.444,15.483L10.386,15.527L10.329,15.571L10.271,15.616L10.215,15.661L10.159,15.708L10.104,15.754L10.049,15.802L9.994,15.85L9.941,15.899L9.888,15.949L9.835,15.999L9.783,16.05L9.732,16.101L9.681,16.153L9.631,16.206L9.582,16.259L9.533,16.313L9.485,16.368L9.438,16.423L9.391,16.478L9.345,16.535L9.3,16.591L9.255,16.649L9.211,16.706L9.168,16.765L9.125,16.824L9.084,16.883L9.042,16.943L9.002,17.003L8.962,17.064L8.924,17.125L8.885,17.187L8.848,17.249L8.811,17.312L8.775,17.375L8.74,17.439L8.706,17.503L8.672,17.567L8.639,17.632L8.607,17.697L8.576,17.762L8.546,17.828L8.516,17.895L8.487,17.961L8.459,18.028L8.432,18.096L8.406,18.163L8.372,18.254L8.339,18.345L8.308,18.437L8.279,18.529L8.251,18.622L8.224,18.715L8.199,18.809L8.176,18.903L8.154,18.997L8.134,19.092L8.115,19.186L8.097,19.282L8.081,19.377L8.067,19.473L8.054,19.569L8.043,19.665L8.035,19.746L8.028,19.826L8.022,19.906L8.017,19.987L8.014,20.068L8.011,20.148L8.009,20.229L8.009,20.31L8.009,20.39L8.011,20.471L8.014,20.552L8.018,20.632L8.023,20.713L8.029,20.793L8.036,20.874L8.044,20.954L8.053,21.034L8.063,21.114L8.074,21.194L8.087,21.273L8.1,21.353L8.115,21.432L8.13,21.511L8.147,21.59L8.165,21.669L8.184,21.748L8.203,21.826L8.224,21.904L8.246,21.981L8.269,22.059L8.293,22.136L8.318,22.213L8.345,22.289L8.372,22.365L8.4,22.441L8.429,22.516L8.459,22.591L8.491,22.665L8.523,22.739L8.556,22.813L8.59,22.886L8.625,22.958L8.661,23.031L8.699,23.102L8.737,23.173L8.776,23.244L8.816,23.314L8.856,23.384L8.898,23.453L8.941,23.521L8.984,23.589L9.029,23.656L9.074,23.723L9.121,23.789L9.168,23.854L9.216,23.919L9.265,23.983L9.315,24.047L9.365,24.109L9.417,24.172L9.469,24.233L9.522,24.294L9.576,24.354L9.631,24.413L9.709,24.495L9.789,24.575L9.87,24.654L9.952,24.731L10.036,24.806L10.122,24.88L10.209,24.953L10.297,25.023L10.386,25.092L10.477,25.16L10.569,25.225L10.662,25.289L10.756,25.351L10.852,25.412L10.948,25.47L11.046,25.527L11.109,25.563L11.173,25.597L11.237,25.631L11.302,25.664L11.367,25.697L11.432,25.728L11.498,25.759L11.564,25.789L11.631,25.818L11.698,25.846L11.765,25.874L11.832,25.901L11.9,25.927L11.968,25.952L12.037,25.976L12.106,25.999L12.175,26.022L12.244,26.044L12.313,26.065L12.383,26.085L12.453,26.104L12.523,26.123L12.594,26.14L12.664,26.157L12.735,26.173L12.806,26.188L12.878,26.202L12.949,26.215L13.021,26.228L13.092,26.239L13.164,26.25L13.236,26.26L13.333,26.271L13.429,26.281L13.525,26.289L13.622,26.295L13.718,26.3L13.815,26.304L13.912,26.307L14.009,26.31L42.194,26.31L42.292,26.307L42.388,26.304L42.485,26.3L42.581,26.295L42.678,26.289L42.774,26.281L42.871,26.271L42.967,26.26L43.079,26.244L43.19,26.226L43.302,26.206L43.412,26.185L43.523,26.161L43.633,26.134L43.742,26.106L43.851,26.076L43.959,26.044L44.067,26.01L44.174,25.973L44.28,25.935L44.386,25.895L44.491,25.853L44.595,25.809L44.698,25.762L44.763,25.732L44.829,25.7L44.894,25.668L44.959,25.635L45.023,25.601L45.087,25.566L45.15,25.531L45.213,25.495L45.276,25.458L45.338,25.42L45.399,25.382L45.46,25.342L45.521,25.303L45.581,25.262L45.641,25.221L45.7,25.179L45.759,25.136L45.817,25.092L45.875,25.048L45.932,25.003L45.988,24.958L46.044,24.911L46.1,24.865L46.154,24.817L46.209,24.769L46.262,24.72L46.316,24.67L46.368,24.62L46.42,24.569L46.471,24.518L46.522,24.466L46.572,24.413L46.659,24.318L46.744,24.221L46.827,24.122L46.908,24.021L46.987,23.919L47.064,23.815L47.138,23.71L47.21,23.602L47.28,23.494L47.347,23.384L47.412,23.272L47.474,23.159L47.535,23.045L47.592,22.929L47.647,22.813L47.7,22.695L47.732,22.62L47.762,22.546L47.792,22.471L47.82,22.395L47.848,22.319L47.874,22.243L47.9,22.166L47.924,22.09L47.947,22.012L47.97,21.935L47.991,21.857L48.011,21.779L48.031,21.701L48.049,21.622L48.066,21.543L48.082,21.464L48.097,21.385L48.111,21.305L48.124,21.226L48.136,21.146L48.146,21.066L48.156,20.986L48.165,20.906L48.172,20.825L48.178,20.745L48.184,20.665L48.188,20.584L48.191,20.503L48.193,20.423L48.194,20.342L48.194,20.261L48.193,20.18L48.191,20.1L48.187,20.019L48.183,19.938L48.177,19.858L48.171,19.777L48.163,19.697L48.154,19.617L48.144,19.537L48.133,19.457L48.121,19.377L48.108,19.298L48.094,19.218L48.079,19.139L48.063,19.06L48.045,18.981L48.027,18.903L48.007,18.824L47.987,18.746L47.965,18.669L47.943,18.591L47.919,18.514L47.895,18.437L47.869,18.361L47.842,18.285L47.815,18.209L47.786,18.133L47.756,18.058L47.725,17.984L47.694,17.91L47.661,17.836L47.627,17.762L47.592,17.69L47.549,17.603L47.505,17.517L47.459,17.431L47.412,17.347L47.363,17.263L47.314,17.18L47.262,17.098L47.21,17.016L47.156,16.936L47.101,16.856L47.045,16.778L46.987,16.7L46.928,16.623L46.868,16.547L46.807,16.472L46.744,16.398L46.67,16.313L46.594,16.23L46.516,16.147L46.437,16.067L46.356,15.988L46.274,15.91L46.191,15.834L46.106,15.76L46.019,15.687L45.932,15.616L45.843,15.546L45.752,15.478L45.661,15.412L45.568,15.348L45.474,15.285L45.379,15.224L45.317,15.186L45.255,15.149L45.192,15.112L45.129,15.076L45.065,15.041L45.001,15.007L44.937,14.973L44.872,14.94L44.807,14.908L44.741,14.877L44.675,14.847L44.609,14.817L44.543,14.788L44.476,14.76L44.408,14.733L44.341,14.707L44.273,14.681L44.204,14.656L44.136,14.633L44.067,14.609L43.998,14.587L43.929,14.566L43.859,14.545L43.789,14.525L43.719,14.507L43.649,14.488L43.578,14.471L43.507,14.455L43.436,14.439L43.365,14.425L43.294,14.411L43.222,14.398L43.126,14.383L43.031,14.369L42.935,14.357L42.839,14.346L42.742,14.337L42.646,14.329L42.549,14.322L42.453,14.315L42.194,14.31L14.009,14.31Z" style="fill:white;"/>
                </g>
                <g transform="matrix(1,0,0,1,-1.3768,96.0982)">
                    <path d="M42.453,14.315C42.711,14.332 42.967,14.354 43.222,14.398C43.816,14.501 44.394,14.695 44.93,14.969C45.62,15.323 46.239,15.81 46.744,16.398C47.193,16.92 47.551,17.52 47.798,18.163C48.013,18.726 48.143,19.321 48.182,19.922C48.215,20.438 48.182,20.957 48.082,21.464C47.917,22.31 47.567,23.116 47.064,23.815C46.56,24.514 45.906,25.102 45.157,25.527C44.483,25.91 43.736,26.16 42.967,26.26C42.71,26.293 42.454,26.304 42.194,26.31L14.009,26.31C13.749,26.304 13.493,26.293 13.236,26.26C12.467,26.16 11.72,25.91 11.046,25.527C10.297,25.102 9.643,24.514 9.139,23.815C8.636,23.116 8.287,22.31 8.121,21.464C8.021,20.957 7.988,20.438 8.021,19.922C8.06,19.321 8.19,18.726 8.406,18.163C8.683,17.44 9.101,16.771 9.631,16.206C10.161,15.641 10.801,15.18 11.505,14.857C12.053,14.605 12.638,14.437 13.236,14.359C13.493,14.326 13.749,14.315 14.009,14.31L42.194,14.31C42.281,14.311 42.367,14.313 42.453,14.315Z" style="fill-rule:nonzero;"/>
                    <path d="M42.72,8.319L42.976,8.337L43.123,8.348L43.282,8.361L43.453,8.378L43.635,8.398L43.83,8.422L44.035,8.451L44.248,8.486L44.473,8.528L44.695,8.573L44.915,8.622L45.135,8.675L45.353,8.733L45.571,8.794L45.786,8.859L46.001,8.929L46.214,9.003L46.426,9.08L46.636,9.162L46.845,9.247L47.053,9.337L47.259,9.43L47.463,9.528L47.657,9.624L47.795,9.696L47.923,9.765L48.051,9.836L48.178,9.907L48.303,9.981L48.428,10.056L48.552,10.132L48.674,10.209L48.796,10.289L48.917,10.369L49.036,10.451L49.155,10.534L49.272,10.619L49.389,10.705L49.504,10.793L49.619,10.882L49.732,10.972L49.844,11.064L49.955,11.157L50.065,11.251L50.174,11.347L50.281,11.444L50.388,11.542L50.493,11.642L50.598,11.743L50.701,11.845L50.803,11.949L50.903,12.054L51.003,12.16L51.101,12.268L51.198,12.376L51.304,12.497L51.461,12.685L51.623,12.886L51.781,13.091L51.934,13.299L52.083,13.51L52.226,13.724L52.365,13.941L52.5,14.161L52.629,14.384L52.754,14.609L52.874,14.837L52.989,15.068L53.1,15.301L53.205,15.538L53.306,15.776L53.399,16.013L53.48,16.229L53.555,16.443L53.626,16.658L53.692,16.874L53.755,17.09L53.813,17.308L53.868,17.527L53.918,17.747L53.964,17.968L54.006,18.19L54.044,18.412L54.077,18.635L54.107,18.859L54.132,19.084L54.153,19.309L54.169,19.531L54.181,19.729L54.188,19.923L54.193,20.117L54.195,20.31L54.193,20.504L54.188,20.697L54.181,20.891L54.17,21.084L54.156,21.276L54.138,21.469L54.118,21.662L54.095,21.854L54.068,22.046L54.039,22.237L54.006,22.428L53.971,22.615L53.938,22.778L53.904,22.937L53.867,23.094L53.828,23.252L53.788,23.408L53.745,23.564L53.7,23.719L53.653,23.873L53.604,24.027L53.553,24.18L53.5,24.332L53.445,24.483L53.388,24.633L53.329,24.783L53.268,24.932L53.205,25.08L53.14,25.227L53.073,25.373L53.005,25.519L52.934,25.663L52.861,25.807L52.786,25.949L52.71,26.091L52.631,26.232L52.551,26.372L52.468,26.51L52.384,26.648L52.297,26.785L52.209,26.921L52.119,27.055L52.027,27.189L51.933,27.321L51.837,27.452L51.74,27.582L51.641,27.71L51.54,27.837L51.438,27.962L51.334,28.086L51.229,28.208L51.121,28.329L51.013,28.448L50.903,28.565L50.791,28.681L50.678,28.796L50.563,28.909L50.448,29.02L50.33,29.13L50.211,29.239L50.091,29.345L49.969,29.45L49.845,29.554L49.721,29.655L49.595,29.755L49.468,29.854L49.339,29.951L49.209,30.046L49.077,30.139L48.944,30.231L48.811,30.321L48.675,30.409L48.538,30.496L48.4,30.581L48.26,30.664L48.122,30.744L47.993,30.816L47.864,30.886L47.736,30.954L47.606,31.02L47.475,31.085L47.345,31.148L47.213,31.21L47.081,31.27L46.948,31.328L46.815,31.384L46.68,31.439L46.546,31.493L46.41,31.544L46.274,31.595L46.138,31.643L46.001,31.69L45.863,31.735L45.725,31.778L45.586,31.82L45.447,31.86L45.307,31.899L45.167,31.935L45.026,31.971L44.885,32.004L44.743,32.036L44.602,32.066L44.459,32.094L44.316,32.121L44.172,32.146L44.028,32.169L43.884,32.19L43.727,32.211L43.524,32.236L43.317,32.256L43.122,32.272L42.938,32.284L42.767,32.294L42.607,32.3L42.46,32.305L42.268,32.309L13.935,32.309L13.743,32.305L13.596,32.3L13.436,32.294L13.265,32.284L13.081,32.272L12.886,32.256L12.68,32.236L12.476,32.211L12.319,32.19L12.175,32.169L12.031,32.146L11.888,32.121L11.744,32.094L11.601,32.066L11.46,32.036L11.318,32.004L11.177,31.971L11.036,31.935L10.896,31.899L10.756,31.86L10.617,31.82L10.478,31.778L10.34,31.735L10.202,31.69L10.065,31.643L9.929,31.595L9.793,31.544L9.658,31.493L9.523,31.439L9.388,31.384L9.255,31.328L9.123,31.27L8.99,31.21L8.858,31.148L8.728,31.085L8.597,31.02L8.467,30.953L8.339,30.886L8.211,30.816L8.082,30.744L7.943,30.664L7.803,30.581L7.665,30.496L7.528,30.409L7.393,30.321L7.259,30.231L7.126,30.139L6.994,30.046L6.864,29.951L6.735,29.854L6.608,29.755L6.482,29.655L6.358,29.554L6.234,29.45L6.113,29.345L5.992,29.239L5.873,29.13L5.755,29.02L5.64,28.909L5.525,28.796L5.412,28.681L5.3,28.565L5.19,28.448L5.082,28.329L4.974,28.208L4.869,28.086L4.765,27.962L4.663,27.837L4.562,27.71L4.463,27.582L4.366,27.452L4.27,27.321L4.176,27.189L4.084,27.055L3.994,26.92L3.906,26.785L3.819,26.648L3.735,26.51L3.652,26.372L3.572,26.232L3.493,26.091L3.417,25.95L3.342,25.807L3.269,25.663L3.199,25.519L3.13,25.373L3.063,25.227L2.998,25.08L2.935,24.932L2.874,24.783L2.815,24.633L2.758,24.483L2.703,24.332L2.65,24.18L2.599,24.027L2.55,23.873L2.503,23.719L2.458,23.564L2.415,23.408L2.375,23.251L2.336,23.094L2.3,22.937L2.265,22.778L2.232,22.615L2.197,22.428L2.164,22.237L2.135,22.046L2.108,21.854L2.085,21.662L2.065,21.469L2.047,21.277L2.033,21.084L2.023,20.891L2.015,20.697L2.01,20.504L2.008,20.31L2.01,20.117L2.015,19.923L2.022,19.729L2.034,19.531L2.05,19.309L2.071,19.084L2.096,18.859L2.126,18.635L2.159,18.412L2.197,18.19L2.239,17.968L2.285,17.747L2.335,17.527L2.39,17.308L2.448,17.09L2.511,16.873L2.578,16.658L2.648,16.443L2.723,16.229L2.799,16.026L2.855,15.881L2.91,15.746L2.966,15.611L3.024,15.478L3.084,15.345L3.145,15.213L3.207,15.082L3.271,14.952L3.337,14.822L3.404,14.694L3.472,14.566L3.543,14.439L3.614,14.313L3.687,14.188L3.762,14.064L3.838,13.941L3.916,13.819L3.995,13.697L4.075,13.577L4.157,13.457L4.241,13.339L4.326,13.221L4.412,13.105L4.5,12.989L4.589,12.875L4.68,12.761L4.772,12.649L4.865,12.537L4.96,12.427L5.057,12.318L5.155,12.209L5.254,12.102L5.354,11.997L5.456,11.892L5.559,11.789L5.663,11.687L5.768,11.586L5.874,11.487L5.982,11.389L6.09,11.293L6.2,11.198L6.31,11.104L6.422,11.012L6.535,10.921L6.649,10.831L6.764,10.743L6.88,10.657L6.997,10.571L7.115,10.487L7.234,10.405L7.354,10.324L7.475,10.244L7.597,10.166L7.72,10.089L7.844,10.014L7.969,9.94L8.095,9.868L8.222,9.797L8.35,9.728L8.479,9.66L8.608,9.593L8.738,9.529L8.87,9.465L9.012,9.399L9.209,9.311L9.417,9.222L9.627,9.138L9.838,9.057L10.051,8.981L10.264,8.908L10.479,8.84L10.695,8.776L10.913,8.716L11.131,8.659L11.351,8.607L11.571,8.559L11.793,8.516L12.016,8.476L12.239,8.44L12.466,8.409L12.68,8.383L12.886,8.363L13.082,8.347L13.265,8.334L13.436,8.325L13.596,8.319L13.743,8.314L13.935,8.31L42.259,8.31L42.72,8.319ZM14.009,14.31L13.912,14.312L13.815,14.315L13.718,14.319L13.622,14.324L13.525,14.33L13.429,14.338L13.333,14.348L13.236,14.359L13.124,14.375L13.013,14.393L12.901,14.413L12.791,14.434L12.68,14.458L12.57,14.485L12.461,14.513L12.352,14.543L12.244,14.575L12.136,14.609L12.029,14.646L11.923,14.684L11.817,14.724L11.713,14.766L11.609,14.81L11.505,14.857L11.44,14.887L11.374,14.919L11.309,14.951L11.244,14.984L11.18,15.018L11.116,15.053L11.053,15.088L10.99,15.124L10.927,15.161L10.865,15.199L10.804,15.237L10.743,15.277L10.682,15.316L10.622,15.357L10.562,15.398L10.503,15.441L10.444,15.483L10.386,15.527L10.329,15.571L10.271,15.616L10.215,15.661L10.159,15.708L10.104,15.754L10.049,15.802L9.994,15.85L9.941,15.899L9.888,15.949L9.835,15.999L9.783,16.05L9.732,16.101L9.681,16.153L9.631,16.206L9.582,16.259L9.533,16.313L9.485,16.368L9.438,16.423L9.391,16.478L9.345,16.535L9.3,16.591L9.255,16.649L9.211,16.706L9.168,16.765L9.125,16.824L9.084,16.883L9.042,16.943L9.002,17.003L8.962,17.064L8.924,17.125L8.885,17.187L8.848,17.249L8.811,17.312L8.775,17.375L8.74,17.439L8.706,17.503L8.672,17.567L8.639,17.632L8.607,17.697L8.576,17.762L8.546,17.828L8.516,17.895L8.487,17.961L8.459,18.028L8.432,18.096L8.406,18.163L8.366,18.269L8.329,18.376L8.293,18.483L8.26,18.591L8.229,18.7L8.199,18.809L8.172,18.918L8.147,19.028L8.124,19.139L8.103,19.25L8.084,19.361L8.067,19.473L8.053,19.585L8.04,19.697L8.029,19.81L8.021,19.922L8.016,20.019L8.012,20.116L8.009,20.213L8.009,20.31L8.009,20.406L8.012,20.503L8.016,20.6L8.021,20.697L8.028,20.793L8.037,20.89L8.047,20.986L8.059,21.082L8.072,21.178L8.087,21.274L8.103,21.369L8.121,21.464L8.137,21.543L8.154,21.622L8.172,21.701L8.191,21.779L8.212,21.857L8.233,21.935L8.256,22.013L8.279,22.09L8.304,22.167L8.329,22.243L8.356,22.319L8.383,22.395L8.412,22.471L8.441,22.546L8.472,22.62L8.503,22.695L8.536,22.768L8.57,22.842L8.604,22.915L8.64,22.987L8.676,23.059L8.713,23.13L8.752,23.201L8.791,23.272L8.831,23.342L8.873,23.411L8.915,23.48L8.958,23.548L9.002,23.616L9.047,23.683L9.093,23.749L9.139,23.815L9.187,23.88L9.235,23.945L9.285,24.009L9.335,24.072L9.386,24.135L9.438,24.196L9.491,24.257L9.544,24.318L9.599,24.377L9.654,24.436L9.71,24.495L9.766,24.552L9.824,24.609L9.882,24.664L9.941,24.72L10,24.774L10.061,24.827L10.122,24.88L10.184,24.932L10.246,24.983L10.309,25.033L10.373,25.082L10.438,25.131L10.503,25.178L10.569,25.225L10.635,25.271L10.702,25.316L10.77,25.36L10.838,25.403L10.907,25.445L10.976,25.487L11.046,25.527L11.109,25.563L11.173,25.597L11.237,25.631L11.302,25.664L11.367,25.697L11.432,25.728L11.498,25.759L11.564,25.789L11.631,25.818L11.698,25.846L11.765,25.874L11.832,25.901L11.9,25.927L11.968,25.952L12.037,25.976L12.106,25.999L12.175,26.022L12.244,26.044L12.313,26.065L12.383,26.085L12.453,26.104L12.523,26.123L12.594,26.14L12.664,26.157L12.735,26.173L12.806,26.188L12.878,26.202L12.949,26.215L13.021,26.228L13.092,26.239L13.164,26.25L13.236,26.26L13.333,26.271L13.429,26.281L13.525,26.289L13.622,26.295L13.718,26.3L13.815,26.304L13.912,26.307L14.009,26.31L42.194,26.31L42.292,26.307L42.388,26.304L42.485,26.3L42.581,26.295L42.678,26.289L42.774,26.281L42.871,26.271L42.967,26.26L43.039,26.25L43.111,26.239L43.183,26.228L43.254,26.215L43.326,26.202L43.397,26.188L43.468,26.173L43.539,26.157L43.609,26.14L43.68,26.123L43.75,26.104L43.82,26.085L43.89,26.065L43.959,26.044L44.029,26.022L44.098,25.999L44.166,25.976L44.235,25.952L44.303,25.927L44.371,25.901L44.438,25.874L44.505,25.846L44.572,25.818L44.639,25.789L44.705,25.759L44.771,25.728L44.836,25.697L44.901,25.664L44.966,25.631L45.03,25.597L45.094,25.563L45.157,25.527L45.227,25.487L45.296,25.445L45.365,25.403L45.433,25.36L45.501,25.316L45.568,25.271L45.635,25.225L45.7,25.178L45.765,25.131L45.83,25.082L45.894,25.033L45.957,24.983L46.019,24.932L46.081,24.88L46.142,24.827L46.203,24.774L46.262,24.72L46.321,24.664L46.379,24.609L46.437,24.552L46.493,24.495L46.549,24.436L46.604,24.377L46.659,24.318L46.712,24.257L46.765,24.196L46.817,24.135L46.868,24.072L46.918,24.009L46.968,23.945L47.016,23.88L47.064,23.815L47.11,23.749L47.156,23.683L47.201,23.616L47.245,23.548L47.288,23.48L47.33,23.411L47.372,23.342L47.412,23.272L47.451,23.201L47.49,23.13L47.527,23.059L47.563,22.987L47.599,22.915L47.634,22.842L47.667,22.768L47.7,22.695L47.731,22.62L47.762,22.546L47.791,22.471L47.82,22.395L47.847,22.319L47.874,22.243L47.9,22.167L47.924,22.09L47.947,22.013L47.97,21.935L47.991,21.857L48.012,21.779L48.031,21.701L48.049,21.622L48.066,21.543L48.082,21.464L48.1,21.369L48.117,21.274L48.131,21.178L48.145,21.082L48.156,20.986L48.166,20.89L48.175,20.793L48.182,20.697L48.187,20.6L48.191,20.503L48.194,20.406L48.194,20.31L48.194,20.213L48.191,20.116L48.187,20.019L48.182,19.922L48.174,19.81L48.163,19.697L48.151,19.585L48.136,19.473L48.119,19.361L48.1,19.25L48.079,19.139L48.056,19.028L48.031,18.918L48.004,18.809L47.974,18.7L47.943,18.591L47.91,18.483L47.874,18.376L47.837,18.269L47.798,18.163L47.75,18.043L47.7,17.924L47.647,17.806L47.592,17.69L47.535,17.574L47.474,17.46L47.412,17.347L47.347,17.235L47.28,17.125L47.21,17.017L47.138,16.909L47.064,16.804L46.987,16.7L46.908,16.598L46.827,16.497L46.744,16.398L46.697,16.343L46.648,16.289L46.599,16.235L46.55,16.182L46.499,16.13L46.448,16.078L46.397,16.027L46.345,15.977L46.292,15.927L46.239,15.877L46.185,15.829L46.13,15.781L46.075,15.734L46.019,15.687L45.963,15.641L45.906,15.596L45.849,15.551L45.791,15.507L45.733,15.464L45.674,15.422L45.615,15.38L45.555,15.339L45.494,15.299L45.433,15.259L45.372,15.22L45.31,15.182L45.248,15.145L45.185,15.108L45.122,15.072L45.058,15.037L44.994,15.003L44.93,14.969L44.829,14.919L44.727,14.87L44.624,14.823L44.52,14.779L44.416,14.736L44.31,14.695L44.204,14.656L44.098,14.619L43.99,14.585L43.882,14.552L43.773,14.521L43.664,14.492L43.554,14.466L43.444,14.441L43.333,14.419L43.222,14.398L43.126,14.383L43.031,14.369L42.935,14.357L42.839,14.346L42.742,14.337L42.646,14.329L42.549,14.322L42.453,14.315L42.194,14.31L14.009,14.31Z" style="fill:white;"/>
                </g>
            </g>
        </g>
    </g>
</svg>
