<?xml version="1.0" encoding="UTF-8" standalone="no"?>
<!DOCTYPE svg PUBLIC "-//W3C//DTD SVG 1.1//EN" "http://www.w3.org/Graphics/SVG/1.1/DTD/svg11.dtd">
<svg width="100%" height="100%" viewBox="0 0 20 20" version="1.1" xmlns="http://www.w3.org/2000/svg" xmlns:xlink="http://www.w3.org/1999/xlink" xml:space="preserve" style="fill-rule:evenodd;clip-rule:evenodd;stroke-linejoin:round;stroke-miterlimit:1.41421;">
    <g transform="matrix(1,0,0,1,-2,-2)">
        <path d="M20,2L4,2C2.9,2 2.01,2.9 2.01,4L2,22L6,18L20,18C21.1,18 22,17.1 22,16L22,4C22,2.9 21.1,2 20,2ZM8,14L6,14L6,12L8,12L8,14ZM8,11L6,11L6,9L8,9L8,11ZM8,8L6,8L6,6L8,6L8,8ZM15,14L10,14L10,12L15,12L15,14ZM18,11L10,11L10,9L18,9L18,11ZM18,8L10,8L10,6L18,6L18,8Z" style="fill:white;fill-rule:nonzero;"/>
    </g>
</svg>
