<?xml version="1.0" encoding="UTF-8" standalone="no"?>
<!DOCTYPE svg PUBLIC "-//W3C//DTD SVG 1.1//EN" "http://www.w3.org/Graphics/SVG/1.1/DTD/svg11.dtd">
<svg width="100%" height="100%" viewBox="0 0 25 17" version="1.1" xmlns="http://www.w3.org/2000/svg" xmlns:xlink="http://www.w3.org/1999/xlink" xml:space="preserve" style="fill-rule:evenodd;clip-rule:evenodd;stroke-linejoin:round;stroke-miterlimit:1.41421;">
    <g transform="matrix(1,0,0,1,-1.47943,-3.19831)">
        <path d="M6.424,20.06L5.707,19.408C3.16,17.099 1.479,15.576 1.479,13.707C1.479,12.184 2.676,10.988 4.199,10.988C5.059,10.988 5.885,11.388 6.424,12.021C6.963,11.388 7.788,10.988 8.649,10.988C10.171,10.988 11.368,12.184 11.368,13.707C11.368,15.576 9.687,17.099 7.141,19.413L6.424,20.06ZM21.308,20.06L20.591,19.408C18.045,17.099 16.364,15.576 16.364,13.707C16.364,12.184 17.56,10.988 19.083,10.988C19.943,10.988 20.769,11.388 21.308,12.021C21.847,11.388 22.673,10.988 23.533,10.988C25.056,10.988 26.252,12.184 26.252,13.707C26.252,15.576 24.571,17.099 22.025,19.413L21.308,20.06ZM6.484,10.061C6.082,9.257 5.866,8.45 5.866,7.598C5.866,5.134 7.802,3.198 10.266,3.198C11.658,3.198 12.994,3.846 13.866,4.87C14.738,3.846 16.074,3.198 17.466,3.198C19.93,3.198 21.866,5.134 21.866,7.598C21.866,8.45 21.65,9.257 21.248,10.061C20.84,9.83 20.394,9.665 19.935,9.573C19.735,9.533 19.534,9.509 19.33,9.495C19.207,9.489 19.208,9.489 19.085,9.488C18.905,9.49 18.727,9.498 18.548,9.521C18.202,9.563 17.86,9.649 17.535,9.775C17.185,9.911 16.853,10.094 16.552,10.318C15.951,10.765 15.477,11.372 15.19,12.063C15.015,12.483 14.909,12.931 14.875,13.385C14.83,14.002 14.917,14.624 15.115,15.21C15.243,15.589 15.415,15.949 15.618,16.292C15.424,16.468 15.227,16.648 15.026,16.83L13.866,17.878L12.706,16.822C12.506,16.641 12.31,16.463 12.117,16.288C12.34,15.911 12.525,15.513 12.656,15.091C12.706,14.93 12.747,14.766 12.78,14.601C12.887,14.062 12.898,13.504 12.804,12.963C12.727,12.519 12.578,12.088 12.365,11.692C12.077,11.154 11.67,10.682 11.18,10.318C10.767,10.011 10.298,9.782 9.803,9.644C9.348,9.518 8.872,9.468 8.401,9.495C7.959,9.52 7.52,9.615 7.106,9.771C6.92,9.841 6.742,9.925 6.566,10.016C6.523,10.04 6.506,10.049 6.484,10.061Z" style="fill:white;"/>
    </g>
</svg>
