<?xml version="1.0" encoding="UTF-8" standalone="no"?>
<!DOCTYPE svg PUBLIC "-//W3C//DTD SVG 1.1//EN" "http://www.w3.org/Graphics/SVG/1.1/DTD/svg11.dtd">
<svg width="100%" height="100%" viewBox="0 0 18 18" version="1.1" xmlns="http://www.w3.org/2000/svg" xmlns:xlink="http://www.w3.org/1999/xlink" xml:space="preserve" style="fill-rule:evenodd;clip-rule:evenodd;stroke-linejoin:round;stroke-miterlimit:1.41421;">
    <g transform="matrix(1,0,0,1,-3,-3)">
        <path d="M20.5,3L20.34,3.03L15,5.1L9,3L3.36,4.9C3.15,4.97 3,5.15 3,5.38L3,20.5C3,20.78 3.22,21 3.5,21L3.66,20.97L9,18.9L15,21L20.64,19.1C20.85,19.03 21,18.85 21,18.62L21,3.5C21,3.22 20.78,3 20.5,3ZM15,19L9,16.89L9,5L15,7.11L15,19Z" style="fill:white;fill-rule:nonzero;"/>
    </g>
</svg>
