<?xml version="1.0" encoding="UTF-8" standalone="no"?>
<!DOCTYPE svg PUBLIC "-//W3C//DTD SVG 1.1//EN" "http://www.w3.org/Graphics/SVG/1.1/DTD/svg11.dtd">
<svg width="100%" height="100%" viewBox="0 0 20 20" version="1.1" xmlns="http://www.w3.org/2000/svg" xmlns:xlink="http://www.w3.org/1999/xlink" xml:space="preserve" style="fill-rule:evenodd;clip-rule:evenodd;stroke-linejoin:round;stroke-miterlimit:1.41421;">
    <path d="M5.516,14.224C3.254,11.792 3.294,7.98 5.644,5.613C6.606,4.644 7.808,4.066 9.058,3.877L8.989,1.8C7.234,2.013 5.537,2.796 4.192,4.151C1.043,7.321 1.005,12.44 4.069,15.682L2.328,17.434L7.838,17.735L7.823,11.901L5.516,14.224ZM12.163,2.265L12.178,8.099L14.485,5.777C16.747,8.211 16.707,12.023 14.357,14.388C13.396,15.357 12.193,15.935 10.943,16.124L11.012,18.2C12.767,17.987 14.464,17.204 15.81,15.85C18.958,12.678 18.996,7.559 15.932,4.319L17.673,2.565L12.163,2.265Z" style="fill:rgb(115,161,34);fill-rule:nonzero;"/>
</svg>
