<?xml version="1.0" encoding="UTF-8" standalone="no"?>
<!DOCTYPE svg PUBLIC "-//W3C//DTD SVG 1.1//EN" "http://www.w3.org/Graphics/SVG/1.1/DTD/svg11.dtd">
<svg width="100%" height="100%" viewBox="0 0 163 28" version="1.1" xmlns="http://www.w3.org/2000/svg" xmlns:xlink="http://www.w3.org/1999/xlink" xml:space="preserve" style="fill-rule:evenodd;clip-rule:evenodd;stroke-linejoin:round;stroke-miterlimit:1.41421;">
    <g transform="matrix(1,0,0,1,-0.10932,-66.8401)">
        <g transform="matrix(1,0,0,1,-28.6402,11.0962)">
            <path d="M42.999,55.744L46.363,66.097L57.249,66.097L48.442,72.495L51.806,82.848L42.999,76.45L34.192,82.848L37.556,72.495L28.749,66.097L39.635,66.097L42.999,55.744Z" style="fill:rgb(235,110,0);"/>
        </g>
        <g transform="matrix(1,0,0,1,4.72145,11.0962)">
            <path d="M42.999,55.744L46.363,66.097L57.249,66.097L48.442,72.495L51.806,82.848L42.999,76.45L34.192,82.848L37.556,72.495L28.749,66.097L39.635,66.097L42.999,55.744Z" style="fill:rgb(235,110,0);"/>
        </g>
        <g transform="matrix(1,0,0,1,38.1829,11.0962)">
            <path d="M42.999,55.744L46.363,66.097L57.249,66.097L48.442,72.495L51.806,82.848L42.999,76.45L34.192,82.848L37.556,72.495L28.749,66.097L39.635,66.097L42.999,55.744Z" style="fill:rgb(235,110,0);"/>
        </g>
        <g transform="matrix(1,0,0,1,71.6444,11.0962)">
            <path d="M42.999,55.744L46.363,66.097L57.249,66.097L48.442,72.495L51.806,82.848L42.999,76.45L34.192,82.848L37.556,72.495L28.749,66.097L39.635,66.097L42.999,55.744Z" style="fill:rgb(235,110,0);"/>
        </g>
        <g transform="matrix(1,0,0,1,105.106,11.0962)">
            <path d="M42.999,55.744L46.363,66.097L57.249,66.097L48.442,72.495L51.806,82.848L42.999,76.45L34.192,82.848L37.556,72.495L28.749,66.097L39.635,66.097L42.999,55.744Z" style="fill:rgb(235,110,0);"/>
        </g>
    </g>
</svg>
