<?xml version="1.0" encoding="UTF-8" standalone="no"?>
<!DOCTYPE svg PUBLIC "-//W3C//DTD SVG 1.1//EN" "http://www.w3.org/Graphics/SVG/1.1/DTD/svg11.dtd">
<svg width="100%" height="100%" viewBox="0 0 160 28" version="1.1" xmlns="http://www.w3.org/2000/svg" xmlns:xlink="http://www.w3.org/1999/xlink" xml:space="preserve" style="fill-rule:evenodd;clip-rule:evenodd;stroke-linejoin:round;stroke-miterlimit:1.41421;">
    <g transform="matrix(1,0,0,1,-0.10932,-66.8401)">
        <g transform="matrix(1,0,0,1,-28.6402,11.0962)">
            <path d="M42.999,55.744L46.363,66.097L57.249,66.097L48.442,72.495L51.806,82.848L42.999,76.45L34.192,82.848L37.556,72.495L28.749,66.097L39.635,66.097L42.999,55.744Z" style="fill:rgb(235,110,0);"/>
        </g>
        <g transform="matrix(1,0,0,1,4.72145,11.0962)">
            <path d="M42.999,55.744L46.363,66.097L57.249,66.097L48.442,72.495L51.806,82.848L42.999,76.45L34.192,82.848L37.556,72.495L28.749,66.097L39.635,66.097L42.999,55.744Z" style="fill:rgb(235,110,0);"/>
        </g>
        <g transform="matrix(1,0,0,1,38.1829,11.0962)">
            <path d="M42.999,55.744L46.363,66.097L57.249,66.097L48.442,72.495L51.806,82.848L42.999,76.45L34.192,82.848L37.556,72.495L28.749,66.097L39.635,66.097L42.999,55.744Z" style="fill:rgb(235,110,0);"/>
        </g>
        <g transform="matrix(1,0,0,1,71.6444,11.0962)">
            <path d="M42.999,55.744L46.363,66.097L57.249,66.097L48.442,72.495L51.806,82.848L42.999,76.45L34.192,82.848L37.556,72.495L28.749,66.097L39.635,66.097L42.999,55.744Z" style="fill:rgb(235,110,0);"/>
        </g>
        <g transform="matrix(1,0,0,1,105.106,11.0962)">
            <path d="M46.363,66.097L57.249,66.097L48.442,72.495L51.806,82.848L42.999,76.45L34.192,82.848L37.556,72.495L28.749,66.097L39.635,66.097L42.999,55.744L46.363,66.097ZM40.586,66.406L40.549,66.504L40.501,66.597L40.444,66.685L40.378,66.766L40.304,66.84L40.223,66.906L40.135,66.963L40.042,67.01L39.944,67.048L39.843,67.075L39.74,67.091L39.635,67.097L31.827,67.097L38.144,71.686L38.225,71.752L38.299,71.826L38.365,71.908L38.422,71.995L38.47,72.089L38.507,72.186L38.534,72.287L38.551,72.391L38.556,72.495L38.551,72.6L38.534,72.703L38.507,72.804L36.095,80.23L42.411,75.641L42.499,75.584L42.592,75.536L42.69,75.499L42.791,75.472L42.895,75.455L42.999,75.45L43.104,75.455L43.207,75.472L43.308,75.499L43.406,75.536L43.499,75.584L43.587,75.641L49.904,80.23L47.491,72.804L47.464,72.703L47.448,72.6L47.442,72.495L47.448,72.391L47.464,72.287L47.491,72.186L47.529,72.089L47.576,71.995L47.633,71.908L47.699,71.826L47.773,71.752L47.854,71.686L54.171,67.097L46.363,67.097L46.259,67.091L46.155,67.075L46.054,67.048L45.956,67.01L45.863,66.963L45.775,66.906L45.694,66.84L45.62,66.766L45.554,66.685L45.497,66.597L45.45,66.504L45.412,66.406L42.999,58.98L40.586,66.406Z" style="fill:rgb(235,110,0);"/>
        </g>
        <g transform="matrix(1,0,0,1,-28.6402,11.0962)">
            <path d="M42.999,55.744L46.363,66.097L57.249,66.097L48.442,72.495L51.806,82.848L42.999,76.45L34.192,82.848L37.556,72.495L28.749,66.097L39.635,66.097L42.999,55.744Z" style="fill:rgb(235,110,0);"/>
        </g>
        <g transform="matrix(1,0,0,1,4.72145,11.0962)">
            <path d="M42.999,55.744L46.363,66.097L57.249,66.097L48.442,72.495L51.806,82.848L42.999,76.45L34.192,82.848L37.556,72.495L28.749,66.097L39.635,66.097L42.999,55.744Z" style="fill:rgb(235,110,0);"/>
        </g>
        <g transform="matrix(1,0,0,1,38.1829,11.0962)">
            <path d="M42.999,55.744L46.363,66.097L57.249,66.097L48.442,72.495L51.806,82.848L42.999,76.45L34.192,82.848L37.556,72.495L28.749,66.097L39.635,66.097L42.999,55.744Z" style="fill:rgb(235,110,0);"/>
        </g>
        <g transform="matrix(1,0,0,1,71.6444,11.0962)">
            <path d="M42.999,55.744L46.363,66.097L57.249,66.097L48.442,72.495L51.806,82.848L42.999,76.45L34.192,82.848L37.556,72.495L28.749,66.097L39.635,66.097L42.999,55.744Z" style="fill:rgb(235,110,0);"/>
        </g>
        <g transform="matrix(1,0,0,1,105.106,11.0962)">
            <path d="M46.363,66.097L57.249,66.097L48.442,72.495L51.806,82.848L42.999,76.45L34.192,82.848L37.556,72.495L28.749,66.097L39.635,66.097L42.999,55.744L46.363,66.097ZM40.586,66.406L40.549,66.504L40.501,66.597L40.444,66.685L40.378,66.766L40.304,66.84L40.223,66.906L40.135,66.963L40.042,67.01L39.944,67.048L39.843,67.075L39.74,67.091L39.635,67.097L31.827,67.097L38.144,71.686L38.225,71.752L38.299,71.826L38.365,71.908L38.422,71.995L38.47,72.089L38.507,72.186L38.534,72.287L38.551,72.391L38.556,72.495L38.551,72.6L38.534,72.703L38.507,72.804L36.095,80.23L42.411,75.641L42.499,75.584L42.592,75.536L42.69,75.499L42.791,75.472L42.895,75.455L42.999,75.45L43.104,75.455L43.207,75.472L43.308,75.499L43.406,75.536L43.499,75.584L43.587,75.641L49.904,80.23L47.491,72.804L47.464,72.703L47.448,72.6L47.442,72.495L47.448,72.391L47.464,72.287L47.491,72.186L47.529,72.089L47.576,71.995L47.633,71.908L47.699,71.826L47.773,71.752L47.854,71.686L54.171,67.097L46.363,67.097L46.259,67.091L46.155,67.075L46.054,67.048L45.956,67.01L45.863,66.963L45.775,66.906L45.694,66.84L45.62,66.766L45.554,66.685L45.497,66.597L45.45,66.504L45.412,66.406L42.999,58.98L40.586,66.406Z" style="fill:rgb(235,110,0);"/>
        </g>
        <g transform="matrix(1,0,0,1,-28.6402,11.0962)">
            <path d="M42.999,55.744L46.363,66.097L57.249,66.097L48.442,72.495L51.806,82.848L42.999,76.45L34.192,82.848L37.556,72.495L28.749,66.097L39.635,66.097L42.999,55.744Z" style="fill:rgb(235,110,0);"/>
        </g>
        <g transform="matrix(1,0,0,1,4.72145,11.0962)">
            <path d="M42.999,55.744L46.363,66.097L57.249,66.097L48.442,72.495L51.806,82.848L42.999,76.45L34.192,82.848L37.556,72.495L28.749,66.097L39.635,66.097L42.999,55.744Z" style="fill:rgb(235,110,0);"/>
        </g>
        <g transform="matrix(1,0,0,1,38.1829,11.0962)">
            <path d="M42.999,55.744L46.363,66.097L57.249,66.097L48.442,72.495L51.806,82.848L42.999,76.45L34.192,82.848L37.556,72.495L28.749,66.097L39.635,66.097L42.999,55.744Z" style="fill:rgb(235,110,0);"/>
        </g>
        <g transform="matrix(1,0,0,1,71.6444,11.0962)">
            <path d="M42.999,55.744L46.363,66.097L57.249,66.097L48.442,72.495L51.806,82.848L42.999,76.45L34.192,82.848L37.556,72.495L28.749,66.097L39.635,66.097L42.999,55.744Z" style="fill:rgb(235,110,0);"/>
        </g>
        <g transform="matrix(1,0,0,1,105.106,11.0962)">
            <path d="M46.363,66.097L57.249,66.097L48.442,72.495L51.806,82.848L42.999,76.45L34.192,82.848L37.556,72.495L28.749,66.097L39.635,66.097L42.999,55.744L46.363,66.097ZM40.586,66.406L40.549,66.504L40.501,66.597L40.444,66.685L40.378,66.766L40.304,66.84L40.223,66.906L40.135,66.963L40.042,67.01L39.944,67.048L39.843,67.075L39.74,67.091L39.635,67.097L31.827,67.097L38.144,71.686L38.225,71.752L38.299,71.826L38.365,71.908L38.422,71.995L38.47,72.089L38.507,72.186L38.534,72.287L38.551,72.391L38.556,72.495L38.551,72.6L38.534,72.703L38.507,72.804L36.095,80.23L42.411,75.641L42.499,75.584L42.592,75.536L42.69,75.499L42.791,75.472L42.895,75.455L42.999,75.45L43.104,75.455L43.207,75.472L43.308,75.499L43.406,75.536L43.499,75.584L43.587,75.641L49.904,80.23L47.491,72.804L47.464,72.703L47.448,72.6L47.442,72.495L47.448,72.391L47.464,72.287L47.491,72.186L47.529,72.089L47.576,71.995L47.633,71.908L47.699,71.826L47.773,71.752L47.854,71.686L54.171,67.097L46.363,67.097L46.259,67.091L46.155,67.075L46.054,67.048L45.956,67.01L45.863,66.963L45.775,66.906L45.694,66.84L45.62,66.766L45.554,66.685L45.497,66.597L45.45,66.504L45.412,66.406L42.999,58.98L40.586,66.406Z" style="fill:rgb(235,110,0);"/>
        </g>
        <g transform="matrix(1,0,0,1,-28.6402,11.0962)">
            <path d="M42.999,55.744L46.363,66.097L57.249,66.097L48.442,72.495L51.806,82.848L42.999,76.45L34.192,82.848L37.556,72.495L28.749,66.097L39.635,66.097L42.999,55.744Z" style="fill:rgb(235,110,0);"/>
        </g>
        <g transform="matrix(1,0,0,1,4.72145,11.0962)">
            <path d="M42.999,55.744L46.363,66.097L57.249,66.097L48.442,72.495L51.806,82.848L42.999,76.45L34.192,82.848L37.556,72.495L28.749,66.097L39.635,66.097L42.999,55.744Z" style="fill:rgb(235,110,0);"/>
        </g>
        <g transform="matrix(1,0,0,1,38.1829,11.0962)">
            <path d="M42.999,55.744L46.363,66.097L57.249,66.097L48.442,72.495L51.806,82.848L42.999,76.45L34.192,82.848L37.556,72.495L28.749,66.097L39.635,66.097L42.999,55.744Z" style="fill:rgb(235,110,0);"/>
        </g>
        <g transform="matrix(1,0,0,1,71.6444,11.0962)">
            <path d="M42.999,55.744L46.363,66.097L57.249,66.097L48.442,72.495L51.806,82.848L42.999,76.45L34.192,82.848L37.556,72.495L28.749,66.097L39.635,66.097L42.999,55.744Z" style="fill:rgb(235,110,0);"/>
        </g>
        <g transform="matrix(1,0,0,1,105.106,11.0962)">
            <path d="M46.363,66.097L57.249,66.097L48.442,72.495L51.806,82.848L42.999,76.45L34.192,82.848L37.556,72.495L28.749,66.097L39.635,66.097L42.999,55.744L46.363,66.097ZM40.586,66.406L40.549,66.504L40.501,66.597L40.444,66.685L40.378,66.766L40.304,66.84L40.223,66.906L40.135,66.963L40.042,67.01L39.944,67.048L39.843,67.075L39.74,67.091L39.635,67.097L31.827,67.097L38.144,71.686L38.225,71.752L38.299,71.826L38.365,71.908L38.422,71.995L38.47,72.089L38.507,72.186L38.534,72.287L38.551,72.391L38.556,72.495L38.551,72.6L38.534,72.703L38.507,72.804L36.095,80.23L42.411,75.641L42.499,75.584L42.592,75.536L42.69,75.499L42.791,75.472L42.895,75.455L42.999,75.45L43.104,75.455L43.207,75.472L43.308,75.499L43.406,75.536L43.499,75.584L43.587,75.641L49.904,80.23L47.491,72.804L47.464,72.703L47.448,72.6L47.442,72.495L47.448,72.391L47.464,72.287L47.491,72.186L47.529,72.089L47.576,71.995L47.633,71.908L47.699,71.826L47.773,71.752L47.854,71.686L54.171,67.097L46.363,67.097L46.259,67.091L46.155,67.075L46.054,67.048L45.956,67.01L45.863,66.963L45.775,66.906L45.694,66.84L45.62,66.766L45.554,66.685L45.497,66.597L45.45,66.504L45.412,66.406L42.999,58.98L40.586,66.406Z" style="fill:rgb(235,110,0);"/>
        </g>
        <g transform="matrix(1,0,0,1,-28.6402,11.0962)">
            <path d="M42.999,55.744L46.363,66.097L57.249,66.097L48.442,72.495L51.806,82.848L42.999,76.45L34.192,82.848L37.556,72.495L28.749,66.097L39.635,66.097L42.999,55.744Z" style="fill:rgb(235,110,0);"/>
        </g>
        <g transform="matrix(1,0,0,1,4.72145,11.0962)">
            <path d="M42.999,55.744L46.363,66.097L57.249,66.097L48.442,72.495L51.806,82.848L42.999,76.45L34.192,82.848L37.556,72.495L28.749,66.097L39.635,66.097L42.999,55.744Z" style="fill:rgb(235,110,0);"/>
        </g>
        <g transform="matrix(1,0,0,1,38.1829,11.0962)">
            <path d="M42.999,55.744L46.363,66.097L57.249,66.097L48.442,72.495L51.806,82.848L42.999,76.45L34.192,82.848L37.556,72.495L28.749,66.097L39.635,66.097L42.999,55.744Z" style="fill:rgb(235,110,0);"/>
        </g>
        <g transform="matrix(1,0,0,1,71.6444,11.0962)">
            <path d="M42.999,55.744L46.363,66.097L57.249,66.097L48.442,72.495L51.806,82.848L42.999,76.45L34.192,82.848L37.556,72.495L28.749,66.097L39.635,66.097L42.999,55.744Z" style="fill:rgb(235,110,0);"/>
        </g>
        <g transform="matrix(1,0,0,1,105.106,11.0962)">
            <path d="M46.363,66.097L57.249,66.097L48.442,72.495L51.806,82.848L42.999,76.45L34.192,82.848L37.556,72.495L28.749,66.097L39.635,66.097L42.999,55.744L46.363,66.097ZM40.586,66.406L40.549,66.504L40.501,66.597L40.444,66.685L40.378,66.766L40.304,66.84L40.223,66.906L40.135,66.963L40.042,67.01L39.944,67.048L39.843,67.075L39.74,67.091L39.635,67.097L31.827,67.097L38.144,71.686L38.225,71.752L38.299,71.826L38.365,71.908L38.422,71.995L38.47,72.089L38.507,72.186L38.534,72.287L38.551,72.391L38.556,72.495L38.551,72.6L38.534,72.703L38.507,72.804L36.095,80.23L42.411,75.641L42.499,75.584L42.592,75.536L42.69,75.499L42.791,75.472L42.895,75.455L42.999,75.45L43.104,75.455L43.207,75.472L43.308,75.499L43.406,75.536L43.499,75.584L43.587,75.641L49.904,80.23L47.491,72.804L47.464,72.703L47.448,72.6L47.442,72.495L47.448,72.391L47.464,72.287L47.491,72.186L47.529,72.089L47.576,71.995L47.633,71.908L47.699,71.826L47.773,71.752L47.854,71.686L54.171,67.097L46.363,67.097L46.259,67.091L46.155,67.075L46.054,67.048L45.956,67.01L45.863,66.963L45.775,66.906L45.694,66.84L45.62,66.766L45.554,66.685L45.497,66.597L45.45,66.504L45.412,66.406L42.999,58.98L40.586,66.406Z" style="fill:rgb(235,110,0);"/>
        </g>
    </g>
</svg>
