<?xml version="1.0" encoding="UTF-8" standalone="no"?>
<!DOCTYPE svg PUBLIC "-//W3C//DTD SVG 1.1//EN" "http://www.w3.org/Graphics/SVG/1.1/DTD/svg11.dtd">
<svg width="100%" height="100%" viewBox="0 0 21 21" version="1.1" xmlns="http://www.w3.org/2000/svg" xmlns:xlink="http://www.w3.org/1999/xlink" xml:space="preserve" style="fill-rule:evenodd;clip-rule:evenodd;stroke-linejoin:round;stroke-miterlimit:1.41421;">
    <path d="M20.661,19.317L20.67,19.325C20.697,19.354 20.697,19.354 20.723,19.384C20.809,19.494 20.875,19.616 20.91,19.752C20.942,19.876 20.949,20.007 20.93,20.134C20.913,20.242 20.878,20.347 20.825,20.443C20.661,20.747 20.335,20.941 19.99,20.941C19.894,20.941 19.798,20.926 19.706,20.897C19.56,20.852 19.431,20.771 19.321,20.665L14.865,16.211C14.779,16.281 14.69,16.349 14.602,16.417C14.493,16.498 14.383,16.576 14.272,16.653C13.934,16.882 13.585,17.091 13.221,17.275C12.417,17.679 11.554,17.963 10.667,18.111C9.494,18.308 8.282,18.271 7.123,18.003C6.01,17.747 4.95,17.276 4.011,16.625C3.116,16.005 2.335,15.224 1.715,14.329C1.15,13.514 0.72,12.606 0.449,11.652C0.209,10.808 0.094,9.93 0.105,9.053C0.117,8.143 0.265,7.235 0.546,6.368C0.885,5.323 1.417,4.343 2.106,3.488C2.904,2.497 3.91,1.677 5.043,1.097C5.87,0.673 6.761,0.379 7.678,0.227C8.133,0.152 8.592,0.114 9.053,0.105C9.171,0.105 9.17,0.105 9.287,0.105C9.672,0.113 10.056,0.139 10.437,0.193C11.251,0.306 12.048,0.532 12.8,0.861C14.035,1.401 15.143,2.219 16.025,3.237C16.791,4.122 17.384,5.154 17.759,6.263C18.063,7.161 18.223,8.105 18.235,9.053C18.246,9.943 18.127,10.834 17.878,11.688C17.648,12.477 17.31,13.234 16.876,13.932C16.679,14.248 16.462,14.55 16.23,14.841L16.211,14.865L20.661,19.317ZM9.077,2.007C8.743,2.013 8.409,2.038 8.078,2.089C7.41,2.191 6.756,2.389 6.143,2.675C4.759,3.321 3.6,4.414 2.871,5.756C2.536,6.372 2.293,7.038 2.152,7.726C1.994,8.5 1.964,9.3 2.064,10.083C2.157,10.814 2.364,11.53 2.675,12.197C3.04,12.979 3.548,13.693 4.166,14.296C4.804,14.92 5.559,15.423 6.382,15.771C7.233,16.131 8.153,16.322 9.077,16.333C10.005,16.345 10.933,16.178 11.797,15.837C12.629,15.509 13.396,15.024 14.05,14.415C14.681,13.827 15.206,13.126 15.59,12.354C15.916,11.696 16.14,10.988 16.251,10.262C16.371,9.481 16.361,8.679 16.222,7.901C16.098,7.209 15.871,6.535 15.551,5.909C14.854,4.55 13.721,3.43 12.354,2.751C11.75,2.45 11.103,2.237 10.439,2.118C10.111,2.06 9.78,2.026 9.447,2.012C9.324,2.008 9.201,2.006 9.077,2.007Z" style="fill:rgb(43,72,136);"/>
</svg>
