<?xml version="1.0" encoding="UTF-8" standalone="no"?>
<!DOCTYPE svg PUBLIC "-//W3C//DTD SVG 1.1//EN" "http://www.w3.org/Graphics/SVG/1.1/DTD/svg11.dtd">
<svg width="100%" height="100%" viewBox="0 0 288 384" version="1.1" xmlns="http://www.w3.org/2000/svg" xmlns:xlink="http://www.w3.org/1999/xlink" xml:space="preserve" style="fill-rule:evenodd;clip-rule:evenodd;stroke-linejoin:round;stroke-miterlimit:1.41421;">
    <g transform="matrix(1,0,0,1,-112,-64)">
        <path d="M320,113L320,93.3C320,77.1 306.9,64 290.7,64L221.2,64C205.1,64 192,77.1 192,93.3L192,113L112,113L112,128L133.1,128L156.7,418.7C156.7,434.9 169.8,448 186,448L327,448C343.2,448 356.3,434.9 356.3,418.7L379.6,128L400,128L400,113L320,113ZM207,93.3C207,85.2 213.2,79 221.3,79L290.8,79C298.9,79 305.1,85.2 305.1,93.3L305.1,113L207.1,113L207.1,93.3L207,93.3ZM202.7,401L192,160L206.5,160L217.4,401L202.7,401ZM263,401L249,401L249,160L263,160L263,401ZM309.3,401L294.7,401L305.5,160L320,160L309.3,401Z" style="fill-rule:nonzero;"/>
    </g>
</svg>
