<?xml version="1.0" encoding="UTF-8" standalone="no"?>
<!DOCTYPE svg PUBLIC "-//W3C//DTD SVG 1.1//EN" "http://www.w3.org/Graphics/SVG/1.1/DTD/svg11.dtd">
<svg width="100%" height="100%" viewBox="0 0 22 21" version="1.1" xmlns="http://www.w3.org/2000/svg" xmlns:xlink="http://www.w3.org/1999/xlink" xml:space="preserve" style="fill-rule:evenodd;clip-rule:evenodd;stroke-linejoin:round;stroke-miterlimit:1.41421;">
    <g transform="matrix(-1,-1.22465e-16,1.22465e-16,-1,23,22.45)">
        <path d="M3.55,18.54L4.96,19.95L6.75,18.15L5.34,16.74L3.55,18.54ZM11,22.45L13,22.45L13,19.5L11,19.5L11,22.45ZM4,10.5L1,10.5L1,12.5L4,12.5L4,10.5ZM15,6.31L15,1.5L9,1.5L9,6.31C7.21,7.35 6,9.28 6,11.5C6,14.81 8.69,17.5 12,17.5C15.31,17.5 18,14.81 18,11.5C18,9.28 16.79,7.35 15,6.31ZM20,10.5L20,12.5L23,12.5L23,10.5L20,10.5ZM17.24,18.16L19.03,19.96L20.44,18.55L18.64,16.76L17.24,18.16Z" style="fill-rule:nonzero;"/>
    </g>
</svg>
