<svg xmlns="http://www.w3.org/2000/svg" viewBox="145.3 247.4 300 299.9"><path fill="none" stroke="#2B262F" stroke-width="13" stroke-miterlimit="12" d="M204.8 392.2l92.5 3.7 3.7 92.5 63.8-160-160 63.8z"/><path fill="#2B262F" d="M295.3 260.4c36.6 0 71 14.2 96.9 40.1 53.4 53.4 53.4 140.3 0 193.7-25.8 25.8-60.2 40.1-96.9 40.1s-71-14.2-96.9-40.1c-53.4-53.4-53.4-140.3 0-193.7 25.9-25.9 60.3-40.1 96.9-40.1m0-13c-38.4 0-76.8 14.6-106.1 43.9-58.5 58.5-58.5 153.6 0 212.1 29.2 29.2 67.7 43.9 106.1 43.9s76.8-14.6 106.1-43.9c58.5-58.5 58.5-153.6 0-212.1-29.2-29.3-67.6-43.9-106.1-43.9z"/></svg>