<svg xmlns="http://www.w3.org/2000/svg" viewBox="138.3 241.1 313 313"><path fill="none" stroke="#2B262F" stroke-width="13" stroke-miterlimit="10" d="M294.8 316.8c-44.6 0-80.8 36.3-80.8 80.8 0 44.6 36.3 80.8 80.8 80.8 44.6 0 80.8-36.3 80.8-80.8 0-44.6-36.3-80.8-80.8-80.8z"/><path fill="none" stroke="#2B262F" stroke-width="13" stroke-miterlimit="10" d="M294.8 356.5c-22.6 0-41.1 18.4-41.1 41.1 0 22.6 18.4 41.1 41.1 41.1 22.6 0 41.1-18.4 41.1-41.1-.1-22.6-18.5-41.1-41.1-41.1zM294.8 507.5v-220M184.7 397.5h220.1"/><path fill="none" stroke="#2B262F" stroke-width="13" stroke-miterlimit="10" d="M294.8 247.6c-82.7 0-150 67.3-150 150s67.3 150 150 150 150-67.3 150-150-67.3-150-150-150z"/></svg>