<svg xmlns="http://www.w3.org/2000/svg" viewBox="145.3 247.6 300 300"><path fill="#2B262F" d="M295.3 260.6c75.5 0 137 61.5 137 137s-61.5 137-137 137-137-61.5-137-137 61.5-137 137-137m0-13c-82.7 0-150 67.3-150 150s67.3 150 150 150 150-67.3 150-150-67.2-150-150-150z"/><path fill="none" stroke="#2B262F" stroke-width="13" stroke-miterlimit="10" d="M230.3 314.7h130v167.7h-130zM258.3 458.6h74M258.3 434.8h74"/><path fill="none" stroke="#2B262F" stroke-width="13" stroke-linecap="round" stroke-miterlimit="10" d="M230.3 411.1h130"/><circle fill="none" stroke="#2B262F" stroke-width="13" stroke-linecap="round" stroke-miterlimit="10" cx="295" cy="352.9" r="16.6"/><path fill="none" stroke="#2B262F" stroke-width="13" stroke-linecap="round" stroke-miterlimit="10" d="M261.6 411.1v-11.6c0-5.5 4.5-10 10-10h46.9c5.5 0 10 4.5 10 10v11.6"/></svg>