<svg xmlns="http://www.w3.org/2000/svg" viewBox="144.9 247.1 300 299.9"><path fill="#2B262F" d="M294.9 260.1c36.6 0 71 14.2 96.9 40.1 53.4 53.4 53.4 140.3 0 193.7-25.8 25.9-60.2 40.1-96.9 40.1s-71-14.2-96.9-40.1c-53.4-53.4-53.4-140.3 0-193.7 25.9-25.8 60.3-40.1 96.9-40.1m0-13c-38.4 0-76.8 14.6-106.1 43.9-58.5 58.5-58.5 153.6 0 212.1C218 532.3 256.5 547 294.9 547s76.8-14.6 106.1-43.9c58.5-58.5 58.5-153.6 0-212.1-29.3-29.2-67.7-43.9-106.1-43.9z"/><path fill="none" stroke="#2B262F" stroke-width="13" stroke-linecap="round" stroke-miterlimit="10" d="M364.1 334.5H225.7V433h24.7v46.4l46.4-46.4h67.3z"/><g fill="none" stroke="#2B262F" stroke-width="13" stroke-miterlimit="10"><path d="M339.8 383.8h-89.4M296.8 405.9h-46.4M339.8 361.6h-89.4"/></g></svg>