<svg class="main-menu__primary--item__icon" xmlns="http://www.w3.org/2000/svg" viewBox="138.5 240.9 313 313"><path fill="none" stroke="#2B262F" stroke-width="13" stroke-linecap="round" stroke-miterlimit="10" d="M295 547.4c82.8 0 150-67.2 150-150s-67.2-150-150-150-150 67.2-150 150 67.1 150 150 150z"/><path fill="none" stroke="#2B262F" stroke-width="13" stroke-linecap="round" stroke-miterlimit="10" d="M207.4 385.6v23.6l12.8 4.5c4.9 1.7 8.8 5.4 10.8 10.2 2 4.8 1.8 10.2-.4 14.8l-5.8 12.2 16.7 16.7 12.2-5.8c4.7-2.2 10.1-2.4 14.8-.4 4.8 2 8.5 5.9 10.2 10.8l4.5 12.8h23.6l4.5-12.8c1.7-4.9 5.4-8.8 10.2-10.8 4.8-2 10.2-1.8 14.8.4l12.2 5.8 16.7-16.7-5.8-12.2c-2.2-4.7-2.4-10.1-.4-14.8 2-4.8 5.9-8.5 10.7-10.2l12.8-4.5v-23.6l-12.8-4.5c-4.9-1.7-8.8-5.4-10.8-10.2-2-4.8-1.8-10.2.4-14.8l5.8-12.2-16.7-16.7-12.2 5.8c-4.7 2.2-10.1 2.4-14.8.4-4.8-2-8.5-5.9-10.2-10.8l-4.5-12.8h-23.6l-4.5 12.7c-1.7 4.9-5.5 8.9-10.3 10.9-4.7 2-10.1 1.8-14.7-.4l-12.3-5.8-16.7 16.7 5.8 12.2c2.2 4.7 2.4 10.1.4 14.8-2 4.8-5.9 8.5-10.8 10.2l-12.6 4.5z"/><circle fill="none" stroke="#2B262F" stroke-width="13" stroke-linecap="round" stroke-miterlimit="10" cx="295" cy="397.4" r="32.1"/></svg>