<svg xmlns="http://www.w3.org/2000/svg" width="175" height="40" viewBox="0 0 175 40"><title>Group</title><g fill="#2e008b" fill-rule="evenodd"><path fill-rule="nonzero" d="M18.985 37.335c-9.321-.017-16.86-7.557-16.876-16.877C2.125 11.139 9.664 3.6 18.985 3.582c2.485.005 4.841.549 6.964 1.514l-21.46 21.46h7.249l5.193-5.193 8.931-8.931v8.931h-8.581v5.193h13.765V8.672a16.85 16.85 0 0 1 4.816 11.786c-.017 9.32-7.557 16.86-16.877 16.877M31.046 5.796V0l-3.51 3.509a18.9 18.9 0 0 0-8.551-2.037C8.5 1.472 0 9.973 0 20.458s8.5 18.986 18.985 18.986 18.984-8.501 18.984-18.986c0-5.905-2.696-11.18-6.923-14.662"/><path d="M118.045 12.714h-4.367c.196-.917.231-1.59.053-2.022-.172-.458-.557-.673-1.231-.673-1.132 0-1.949.673-2.246 2.075-.854 4.015 7.849 1.994 6.405 8.785-.928 4.365-3.725 6.117-7.876 6.117-3.287 0-6.121-.997-5.267-5.012l.263-1.24h4.366l-.144.674c-.309 1.455-.139 2.56 1.424 2.56 1.59 0 2.3-1.186 2.535-2.291.882-4.15-7.884-1.832-6.355-9.027.654-3.072 2.847-5.66 7.51-5.66 4.527 0 5.657 2.291 5.027 5.256zm42.352 1.347h-4.366c.596-2.803.536-4.042-.973-4.042-1.806 0-2.334 1.724-3.405 6.764-1.215 5.712-1.341 7.195.545 7.195 1.671 0 2.266-1.914 2.929-4.905h4.366l-.144.674c-.881 4.15-2.7 7.249-8.304 7.249-5.795 0-5.33-4.339-4.098-10.132 1.048-4.932 2.365-9.864 8.78-9.864 3.988 0 5.804 1.725 4.842 6.252zM94.203 26.996c-5.955 0-5.939-3.881-4.638-9.998 1.3-6.117 2.933-9.997 8.888-9.997 6.415 0 5.774 4.662 4.64 9.997-1.135 5.336-2.476 9.998-8.89 9.998m-35.842-.377h-4.689l.078-3.665h-4.608l-1.453 3.665H43l8.995-19.241h5.659zm18.918 0h-4.527l4.09-19.241h7.599c3.854 0 4.67 2.371 4.109 5.012-.596 2.803-2.02 4.177-4.23 4.689l-.012.054c2.798.404 2.575 2.21 2.08 4.797-.727 3.8-.673 4.177-.084 4.446l-.051.243h-4.878c-.212-.647-.118-1.725.346-3.908.71-3.341.401-4.042-1.027-4.042h-1.725zm67.32 0h-4.689l.078-3.665h-4.608l-1.453 3.665h-4.689l8.996-19.241h5.658zm-73.626 0H59.547l4.09-19.241h11.13l-.779 3.665h-6.603l-.818 3.854h6.197l-.779 3.665h-6.198l-.934 4.392h6.899zm102.973-15.576h-6.602l-.819 3.854h6.198l-.779 3.665h-6.198l-.934 4.392h6.898l-.778 3.665h-11.427l4.091-19.241h11.129zm-52.067 15.576h-4.527l4.09-19.241h7.007c4.77 0 4.953 3.449 4.443 5.848-.734 3.449-2.893 5.875-7.42 5.875h-1.994zm-27.061-2.641c1.833 0 2.463-1.697 3.586-6.98 1.122-5.281 1.214-6.979-.619-6.979-1.778 0-2.409 1.698-3.532 6.979-1.123 5.283-1.214 6.98.565 6.98M53.999 10.881h-.054l-3.412 8.569h3.288zm86.238 0h-.053l-3.413 8.569h3.288zm-16.049 4.878h1.24c1.805 0 2.477-1.132 2.752-2.425.315-1.482.07-2.614-1.762-2.614h-1.159zm-42.12-5.202h-1.375l-1.048 4.932h1.401c1.833 0 2.61-1.374 2.85-2.506.31-1.455-.023-2.426-1.828-2.426"/></g></svg>