<svg xmlns="http://www.w3.org/2000/svg" width="294.18" height="55.1" viewBox="0 0 294.18 55.1"><path d="M444.569 340.252a9.94 9.94 0 0 0-7.822 3.5v-16.11l-8.755 6.187V369.9h8.755v-16.34c0-2.919 1.751-5.37 4.786-5.37 3.152 0 4.787 2.451 4.787 5.37v16.34h8.872v-18.791c-.001-6.538-3.97-10.857-10.623-10.857m-37.706 21.363a6.888 6.888 0 1 1 6.887-6.887 6.73 6.73 0 0 1-6.888 6.887Zm6.771-17.627a11.15 11.15 0 0 0-8.638-3.736c-7.354 0-13.658 6.071-13.658 14.476 0 8.288 6.3 14.358 13.658 14.358a11.1 11.1 0 0 0 8.638-3.618v2.332c0 4.786-4.086 6.888-8.638 6.888a16 16 0 0 1-10.273-3.385v8.522c2.335 1.518 6.3 2.568 10.39 2.568 8.872 0 17.394-4.553 17.394-15.176V337.8Zm61.4 4.319a6.88 6.88 0 0 0-6.888 7.121 6.9 6.9 0 1 0 13.775 0 6.88 6.88 0 0 0-6.884-7.121Zm6.771 21.6v-3.152a11.2 11.2 0 0 1-8.639 3.852c-7.471 0-13.775-6.421-13.775-15.176s6.3-15.176 13.775-15.176a11.66 11.66 0 0 1 8.639 3.969v-3.268h8.756V369.9Zm40.158 0h-8.753V352.86c0-2.452-1.4-4.67-4.2-4.67s-4.319 2.1-4.319 4.67v17.04h-8.756v-28.948h8.756v2.8c1.4-2.1 4.319-3.5 7.7-3.5a9.2 9.2 0 0 1 7.938 3.969 11.48 11.48 0 0 1 8.989-3.969c6.187 0 10.039 4.2 10.039 10.857V369.9H530.6v-17.04c0-2.452-1.518-4.67-4.2-4.67-2.919 0-4.436 2.1-4.436 4.67Zm-152.81 0h-8.872v-28.955h8.872v2.8a9.76 9.76 0 0 1 7.821-3.5c6.654 0 10.623 4.319 10.623 10.857V369.9h-8.872v-16.34c0-2.919-1.634-5.37-4.786-5.37-3.035 0-4.786 2.451-4.786 5.37Zm-14.242 0h-8.755v-28.955h8.755Zm.589-37.707a4.86 4.86 0 0 1-4.9 4.9h-.117a4.9 4.9 0 1 1 0-9.806h.117a4.86 4.86 0 0 1 4.9 4.906m-32.923 37.7h-8.755v-28.948h8.755v2.8a9.94 9.94 0 0 1 7.822-3.5c6.654 0 10.623 4.319 10.623 10.857V369.9h-8.872v-16.34c0-2.919-1.634-5.37-4.786-5.37-3.035 0-4.787 2.451-4.787 5.37ZM299.7 340.952h8.872V369.9H299.7v-2.8a10.13 10.13 0 0 1-7.822 3.5c-6.537 0-10.506-4.436-10.506-10.857v-18.791h8.872v16.46c0 2.918 1.518 5.37 4.669 5.37s4.787-2.452 4.787-5.37Zm-23 16.81v10.39a20.75 20.75 0 0 1-10.156 2.452 21.247 21.247 0 1 1 0-42.493 20.75 20.75 0 0 1 10.156 2.452v10.39a12.96 12.96 0 0 0-9.923-4.319 12.666 12.666 0 0 0 0 25.332 12.88 12.88 0 0 0 9.923-4.203Z" style="fill:#ffc72e" transform="translate(-245.18 -327.294)"/></svg>