<svg xmlns="http://www.w3.org/2000/svg" width="1800" height="219" fill="none" viewBox="0 0 1800 219"><path fill="#10181f" d="M105.265 13.406H0v203.909h105.265c60.742 0 75.239-29.801 75.239-69.004v-65.87c0-39.202-14.497-69.003-75.239-69.003zm27.428 135.281c0 18.834-8.234 27.451-30.152 27.451H48.594V54.583h53.947c21.949 0 30.152 8.618 30.152 27.45zM493.983 100.084V70.659c0-36.07-17.628-57.253-71.294-57.253H313.51v203.909h48.594v-59.603h56.672l39.952 59.603h55.231l-47.028-69.411c20.759-11.375 27.021-24.694 27.021-47.851zm-47.404-2.758c0 14.509-6.669 21.56-25.079 21.56h-59.427v-65.87h60.992c16.845 0 23.514 5.484 23.514 19.993z"/><path fill="#ff4611" d="m697.844 13.406-78.088 203.909h48.594l59.677-160.257 59.678 160.257h48.594L758.211 13.406z"/><path fill="#10181f" d="M1052.59 13.406H946.169v203.909h48.594v-57.628h55.517c53.66 0 73.67-20.777 73.67-57.629V70.69c0-36.069-17.25-57.252-71.29-57.252zm23.11 86.27c0 14.133-6.67 20.777-25.08 20.777h-55.889V53.016h55.889c18.41 0 25.08 6.267 25.08 19.993zM1242.15 217.315h156.58v-39.986h-107.99v-43.934h100.94V93.002h-100.94v-39.61h107.99V13.406h-156.58zM1521.59 13.402v203.909h48.59v-59.602h56.67l39.95 59.602h55.23l-47.02-69.411c20.75-11.375 27.02-24.693 27.02-47.851V70.624c0-36.07-17.63-57.253-71.3-57.253h-109.18zm133.1 59.603v24.318c0 14.508-6.67 21.559-25.08 21.559h-59.43v-65.87h60.99c16.85 0 23.52 5.484 23.52 19.993M1775.48 50.63c-13.71 0-24.39-11.03-24.39-24.412 0-13.38 10.81-24.536 24.52-24.536S1800 12.712 1800 26.093c0 13.38-10.8 24.537-24.52 24.537m.16-46.849c-12.71 0-22.29 10.153-22.29 22.437s9.52 22.312 22.17 22.312c12.64 0 22.29-10.153 22.29-22.437s-9.52-22.312-22.17-22.312m4.51 24.13 7.76 10.059h-4.6l-7.23-9.464h-6.42v9.464h-3.73V12.9h11.21c5.55 0 9.46 2.915 9.46 7.584 0 4.136-2.69 6.55-6.48 7.427zm-3.1-11.626h-7.36v8.93h7.17c3.51 0 5.95-1.629 5.95-4.543s-2.16-4.387-5.73-4.387z"/></svg>