<svg xmlns="http://www.w3.org/2000/svg" xml:space="preserve" style="fill-rule:evenodd;clip-rule:evenodd;stroke-linejoin:round;stroke-miterlimit:2" viewBox="0 0 240 33"><path d="M72.086 31.239c0 .799-.652 1.447-1.459 1.447H54.662a1.47 1.47 0 0 1-1.473-1.462v-17.28c0-.8.653-1.448 1.459-1.448.427 0 .811.181 1.08.472l15.979 17.295c.235.257.379.6.379.971z" style="fill:#006375;fill-rule:nonzero" transform="translate(-.002)"/><path d="M30.437 1.49v14.277c0 .366-.139.719-.389.99L15.701 32.234a1.49 1.49 0 0 1-1.085.471H1.478c-1.281 0-1.953-1.514-1.084-2.452L27.878.505c.908-.986 2.564-.348 2.564.985zM50.275 1.466v29.777c0 .81-.662 1.462-1.473 1.462H31.421a1.47 1.47 0 0 1-1.474-1.462V20.247c0-.367.139-.719.389-.991L47.717.476c.907-.981 2.558-.343 2.558.99M79.723 32.71V12.839h3.283l6.245 12.268 6.216-12.268h3.255V32.71h-2.381V16.986c0-.319 0-.605.029-.924-.144.319-.322.633-.495.952l-5.4 10.654h-2.496L82.55 16.952l-.465-.895c.029.319.029.633.029.952v15.696h-2.381zM101.314 28.911c0-2.333 1.656-3.656 5.169-4.147l2.237-.319c1.627-.228 2.15-.633 2.15-1.614 0-1.471-1.276-2.418-3.283-2.418-1.627 0-3.105.605-4.325 1.785l-1.42-1.499c1.483-1.528 3.484-2.304 5.923-2.304 3.369 0 5.371 1.728 5.371 4.579v6.394c0 1.471.23 2.275.989 3.342h-2.467c-.524-.691-.696-1.21-.754-2.247-1.075 1.642-2.76 2.532-4.762 2.532-3.105 0-4.819-1.499-4.819-4.089zm9.556-2.014v-1.3c-.436.319-.96.519-1.8.634l-2.208.318c-2.208.319-3.196.981-3.196 2.276 0 1.409.96 2.19 2.788 2.19 2.554 0 4.416-1.728 4.416-4.118M116.582 14.682c0-.895.668-1.557 1.57-1.557s1.57.662 1.57 1.557-.668 1.585-1.57 1.585-1.57-.691-1.57-1.585m.38 18.028V18.685h2.38V32.71zM123.01 32.714V18.685h2.352v2.018c1.075-1.528 2.673-2.303 4.732-2.303 3.456 0 5.458 2.161 5.458 5.931v8.383h-2.381v-8.178c0-2.68-1.219-4.089-3.542-4.089-2.525 0-4.239 1.67-4.239 4.146v8.121zM151.258 26.145h-11.093c.173 2.909 2.179 4.837 5.083 4.837 1.656 0 2.962-.491 4.094-1.614l1.306 1.556c-1.363 1.352-3.254 2.076-5.429 2.076-4.358 0-7.464-3.023-7.464-7.317s3.019-7.288 6.97-7.288 6.561 2.823 6.561 6.912c0 .376 0 .605-.028.833zm-2.324-1.814c-.259-2.418-1.857-3.946-4.238-3.946s-3.979 1.613-4.445 3.946z" style="fill:#cb3340;fill-rule:nonzero" transform="translate(-.002)"/><path d="M166.982 12.839h4.325V32.71h-4.325v-8.15h-8.942v8.15h-4.325V12.839h4.325v7.807h8.942zM187.992 26.464h-10.339c.379 2.161 1.829 3.342 4.037 3.342 1.54 0 2.961-.519 4.094-1.557l1.829 2.59c-1.57 1.409-3.715 2.161-6.159 2.161-4.905 0-8.073-2.937-8.073-7.46 0-4.26 3.019-7.431 7.521-7.431 4.503 0 7.114 2.852 7.114 7.231 0 .519 0 .805-.029 1.124zm-4.094-2.509c-.116-1.728-1.22-2.794-2.962-2.794s-2.818 1.066-3.226 2.794zM189.528 28.939c0-2.504 1.656-3.713 5.083-4.317l2.352-.434c1.306-.228 1.771-.49 1.771-1.266 0-.981-.931-1.614-2.582-1.614-1.541 0-3.197.662-4.358 1.843l-1.916-2.595c1.628-1.614 3.922-2.447 6.504-2.447 4.268 0 6.476 1.957 6.476 5.532v5.184c0 1.785.201 2.709.902 3.889h-4.037c-.465-.718-.609-1.209-.667-2.247-.931 1.614-2.616 2.504-4.762 2.504-2.904 0-4.761-1.585-4.761-4.032zm9.178-1.813v-1.038c-.408.29-.754.404-1.685.604l-1.392.229c-1.421.228-2.064.69-2.064 1.614 0 1.037.725 1.528 2.03 1.528 1.8 0 3.106-1.209 3.106-2.937zM206.256 12.839h4.21V32.71h-4.21zM214.795 28.192v-6.508h-2.121V18.4h1.132c.754 0 .989-.291.989-1.124v-2.418h4.21v2.389c0 .605-.087.895-.322 1.153h4.675v3.284H219v5.875c0 1.238.552 1.842 1.656 1.842.782 0 1.392-.228 2.03-.776l1.22 3.052c-1.076.895-2.439 1.323-4.037 1.323-3.312 0-5.083-1.699-5.083-4.808zM226.003 32.71V12.839h4.21v7.574c.96-1.471 2.409-2.304 4.325-2.304 3.254 0 5.457 2.276 5.457 5.932v8.669h-4.181v-8.122c0-2.047-1.075-2.966-2.673-2.966-1.771 0-2.933 1.181-2.933 2.995v8.093h-4.21z" style="fill:#006375;fill-rule:nonzero" transform="translate(-.002)"/></svg>