<svg xmlns="http://www.w3.org/2000/svg" xml:space="preserve" style="fill-rule:evenodd;clip-rule:evenodd;stroke-linejoin:round;stroke-miterlimit:2" viewBox="0 0 638 70"><path d="M0 25.449-10.243 7.533v17.916h-4.681V0h5.35L.598 18.198V0H5.28v25.449z" style="fill:#231f20;fill-rule:nonzero" transform="translate(39.797 1.126)scale(2.66667)"/><path d="M0 10.524c0 2.711-2.217 4.963-4.928 4.963s-4.893-2.252-4.893-4.963V.035c0-2.711 2.148-4.963 4.858-4.963S0-2.676 0 .035zm4.752-1.866V1.865c0-5.35-4.365-9.715-9.715-9.715s-9.645 4.365-9.645 9.715v6.793c0 5.351 4.295 9.716 9.645 9.716s9.715-4.365 9.715-9.716" style="fill:#231f20;fill-rule:nonzero" transform="translate(104.562 20.933)scale(2.66667)"/><path d="M0-9.187c0 2.64-1.971 5.034-4.505 5.034h-4.964v-10.103h4.964C-1.971-14.256 0-11.827 0-9.187M5.667 8.131-.07-1.795a8.14 8.14 0 0 0 4.787-7.427c0-4.47-3.591-8.096-8.061-8.096H-14.22V8.131h4.751v-9.187h4.4L.176 8.131z" style="fill:#231f20;fill-rule:nonzero" transform="translate(166.892 47.308)scale(2.66667)"/><path d="M0 9.751c0 2.71-2.217 4.963-4.928 4.963h-4.893V-4.892h4.858C-2.253-4.892 0-2.674 0 .036zm4.752-1.866V1.901c0-5.35-4.365-9.75-9.715-9.75h-9.644V17.6h9.644c5.35 0 9.715-4.364 9.715-9.715" style="fill:#231f20;fill-rule:nonzero" transform="translate(232.682 22.056)scale(2.66667)"/><path d="M433.788 684.521h4.646v25.449h-4.646z" style="fill:#231f20" transform="translate(-899.208 -1824.26)scale(2.66667)"/><path d="M0 26.223c-5.35 0-9.644-4.365-9.644-9.715V9.715C-9.644 4.364-5.35 0 0 0c4.822 0 8.835 3.52 9.574 8.271H4.963c0-2.991-1.971-5.35-4.963-5.35-2.71 0-4.858 2.253-4.858 4.963v10.489c0 2.711 2.183 4.964 4.893 4.964 2.992 0 4.928-2.394 4.928-5.351h4.611C8.8 22.703 4.822 26.223 0 26.223" style="fill:#231f20;fill-rule:nonzero" transform="translate(307.402 .001)scale(2.66667)"/><path d="M0-9.187c0 2.64-1.971 5.034-4.505 5.034h-4.964v-10.103h4.964C-1.971-14.256 0-11.827 0-9.187M5.667 8.131-.071-1.795a8.14 8.14 0 0 0 4.787-7.427c0-4.47-3.59-8.096-8.06-8.096h-10.877V8.131h4.752v-9.187h4.4L.176 8.131z" style="fill:#f7941e;fill-rule:nonzero" transform="translate(381.652 47.308)scale(2.66667)"/><path d="M0 25.449V0h15.488v3.062H4.716v7.146h7.287v3.062H4.716v9.117h10.772v3.062z" style="fill:#f7941e;fill-rule:nonzero" transform="translate(408.022 1.126)scale(2.66667)"/><path d="M0 7.921h-7.673l3.872-11.44zm7.814 8.764L-.704-8.764h-6.23l-8.554 25.449h4.893l1.866-5.702h9.785l1.936 5.702z" style="fill:#f7941e;fill-rule:nonzero" transform="translate(498.602 24.496)scale(2.66667)"/><path d="M0 26.223c-5.35 0-9.645-4.365-9.645-9.715V9.715C-9.645 4.364-5.35 0 0 0c4.822 0 8.835 3.52 9.574 8.271H4.963c0-2.991-1.971-5.35-4.963-5.35-2.71 0-4.858 2.253-4.858 4.963v10.489c0 2.711 2.183 4.964 4.893 4.964 2.992 0 4.928-2.394 4.928-5.351h4.611C8.8 22.703 4.822 26.223 0 26.223" style="fill:#f7941e;fill-rule:nonzero" transform="translate(549.382 .001)scale(2.66667)"/><path d="M0 25.449V13.27h-9.856v12.179h-4.752V0h4.752v10.208H0V0h4.752v25.449z" style="fill:#f7941e;fill-rule:nonzero" transform="translate(624.662 1.126)scale(2.66667)"/></svg>