<svg xmlns="http://www.w3.org/2000/svg" viewBox="0 0 161 20"><path d="M9.7 4.5c-.7-1.3-1.6-2-3.1-2s-3 1.2-3 2.8 1.6 2.3 2.8 2.8l1.2.5c2.4 1 4.3 2.2 4.3 5.1s-2.5 5.6-5.7 5.6-5.1-1.9-5.6-4.7l2-.6c.3 1.8 1.7 3.4 3.6 3.4s3.7-1.5 3.7-3.5-1.7-2.8-3.3-3.6l-1.1-.5c-2.1-1-3.9-2-3.9-4.6C1.6 2.4 4 .6 6.7.6s3.7 1 4.7 2.8l-1.6 1ZM20.7 11.7c0 1.3 0 2.9.8 4s2.3 1.7 3.6 1.7 2.7-.6 3.6-1.6c1-1.2.9-2.7.9-4.1V.9h2v11.3c0 2-.1 3.5-1.6 5-1.2 1.3-3.1 2.1-4.9 2.1s-3.5-.7-4.7-1.8c-1.6-1.5-1.8-3.2-1.8-5.2V.9h2v10.8ZM38.7.2 52.8 15V.9h2v18.9L40.7 5v13.9h-2zM64.4 2.8h.7c2.4 0 4.7.2 4.7 3.2s-1.9 3.3-4.1 3.3h-1.3zm0 8.3h1.5c1.5 0 3.1-.2 4.3-1.2 1.1-.9 1.7-2.4 1.7-3.9s-.7-3.2-2-4.1-2.9-1-4.5-1h-3V19h2zM104.4 14.5 110.3 0l5.9 14.5L121 .9h2.2l-6.9 19-5.9-14.6-5.9 14.6-7-19h2.2l4.8 13.6ZM127.6.9h9.4v1.9h-7.4v5.4h7.2v1.9h-7.2v7.1h7.4v1.9h-9.4zM145.8 2.8h.6c2.4 0 4.6.3 4.6 3.3s-2.3 3.2-4.6 3.2h-.6zm0 8.3h.5l5.5 7.9h2.5l-5.8-8.1c2.8-.2 4.5-2.2 4.5-5 0-4.1-3.2-5-6.6-5h-2.6V19h2zM155.1 3.7c0-.5.1-.9.4-1.4.2-.4.6-.8 1-1s.9-.4 1.4-.4.9.1 1.4.4c.4.2.8.6 1 1s.4.9.4 1.4-.1.9-.4 1.4c-.2.4-.6.8-1 1-.4.3-.9.4-1.4.4s-1-.1-1.4-.4-.8-.6-1-1-.4-.9-.4-1.4m.3 0q0 .6.3 1.2t.9.9c.6.3.8.3 1.2.3s.8-.1 1.2-.3.7-.5.9-.9q.3-.6.3-1.2c0-.6-.1-.8-.3-1.2q-.3-.6-.9-.9t-1.2-.3c-.6 0-.8.1-1.2.3q-.6.3-.9.9t-.3 1.2m3.4-.7c0 .2 0 .4-.1.5 0 .1-.2.3-.4.3l.9 1.4h-.4l-.8-1.3h-.6v1.3h-.4V2h.8c.4 0 .6 0 .8.2s.3.4.3.7Zm-1.5.7h.4c.2 0 .4 0 .5-.2.1-.1.2-.3.2-.5 0-.4-.2-.6-.7-.6h-.4z"/><path d="M9.7 4.5c-.7-1.3-1.6-2-3.1-2s-3 1.2-3 2.8 1.6 2.3 2.8 2.8l1.2.5c2.4 1 4.3 2.2 4.3 5.1s-2.5 5.6-5.7 5.6-5.1-1.9-5.6-4.7l2-.6c.3 1.8 1.7 3.4 3.6 3.4s3.7-1.5 3.7-3.5-1.7-2.8-3.3-3.6l-1.1-.5c-2.1-1-3.9-2-3.9-4.6C1.6 2.4 4 .6 6.7.6s3.7 1 4.7 2.8l-1.6 1ZM20.7 11.7c0 1.3 0 2.9.8 4s2.3 1.7 3.6 1.7 2.7-.6 3.6-1.6c1-1.2.9-2.7.9-4.1V.9h2v11.3c0 2-.1 3.5-1.6 5-1.2 1.3-3.1 2.1-4.9 2.1s-3.5-.7-4.7-1.8c-1.6-1.5-1.8-3.2-1.8-5.2V.9h2v10.8ZM38.7.2 52.8 15V.9h2v18.9L40.7 5v13.9h-2zM64.4 2.8h.7c2.4 0 4.7.2 4.7 3.2s-1.9 3.3-4.1 3.3h-1.3zm0 8.3h1.5c1.5 0 3.1-.2 4.3-1.2 1.1-.9 1.7-2.4 1.7-3.9s-.7-3.2-2-4.1-2.9-1-4.5-1h-3V19h2zM104.4 14.5 110.3 0l5.9 14.5L121 .9h2.2l-6.9 19-5.9-14.6-5.9 14.6-7-19h2.2l4.8 13.6ZM127.6.9h9.4v1.9h-7.4v5.4h7.2v1.9h-7.2v7.1h7.4v1.9h-9.4zM145.8 2.8h.6c2.4 0 4.6.3 4.6 3.3s-2.3 3.2-4.6 3.2h-.6zm0 8.3h.5l5.5 7.9h2.5l-5.8-8.1c2.8-.2 4.5-2.2 4.5-5 0-4.1-3.2-5-6.6-5h-2.6V19h2zM155.1 3.7c0-.5.1-.9.4-1.4.2-.4.6-.8 1-1s.9-.4 1.4-.4.9.1 1.4.4c.4.2.8.6 1 1s.4.9.4 1.4-.1.9-.4 1.4c-.2.4-.6.8-1 1-.4.3-.9.4-1.4.4s-1-.1-1.4-.4-.8-.6-1-1-.4-.9-.4-1.4m.3 0q0 .6.3 1.2t.9.9c.6.3.8.3 1.2.3s.8-.1 1.2-.3.7-.5.9-.9q.3-.6.3-1.2c0-.6-.1-.8-.3-1.2q-.3-.6-.9-.9t-1.2-.3c-.6 0-.8.1-1.2.3q-.6.3-.9.9t-.3 1.2m3.4-.7c0 .2 0 .4-.1.5 0 .1-.2.3-.4.3l.9 1.4h-.4l-.8-1.3h-.6v1.3h-.4V2h.8c.4 0 .6 0 .8.2s.3.4.3.7Zm-1.5.7h.4c.2 0 .4 0 .5-.2.1-.1.2-.3.2-.5 0-.4-.2-.6-.7-.6h-.4z"/><path d="M94.7 10c0 5.3-4.2 9.3-9.5 9.3s-9.4-4.2-9.4-9.2S80 .7 85.2.7s9.5 4 9.5 9.3m-16.7.1c0 3.9 3.1 7.3 7.1 7.3s7.5-3.2 7.5-7.3-3.2-7.3-7.5-7.3S78 6.2 78 10.1" style="fill:#fad646"/></svg>