<?xml version="1.0" encoding="UTF-8"?>
<svg width="293px" height="67px" viewBox="0 0 293 67" version="1.1" xmlns="http://www.w3.org/2000/svg" xmlns:xlink="http://www.w3.org/1999/xlink">
    <!-- Generator: Sketch 46.2 (44496) - http://www.bohemiancoding.com/sketch -->
    <title>aero-logo-purple</title>
    <desc>Created with Sketch.</desc>
    <defs>
        <polygon id="path-1" points="26.236 33.0376 26.236 0.8576 0.7821 0.8576 0.7821 33.0376 26.236 33.0376"></polygon>
        <polygon id="path-3" points="0.001 66.6654 0.001 0.6964 63.5001 0.6964 63.5001 66.6654"></polygon>
    </defs>
    <g id="Page-1" stroke="none" stroke-width="1" fill="none" fill-rule="evenodd">
        <g id="V-05" transform="translate(-50.000000, -89.000000)">
            <g id="aero-logo-purple" transform="translate(50.000000, 88.000000)">
                <path d="M90.3302,19.476 L90.2402,19.476 L84.5342,33.808 L90.0322,33.808 L90.3302,19.476 Z M86.9772,13.617 L96.4422,13.617 L97.6242,45.797 L89.7832,45.797 L89.9132,39.667 L82.2072,39.667 L79.7772,45.797 L71.9352,45.797 L86.9772,13.617 Z" id="Fill-1" fill="#290088"></path>
                <polygon id="Fill-2" fill="#290088" points="106.4483 13.6166 125.0623 13.6166 123.7593 19.7456 112.7173 19.7456 111.3463 26.1906 121.7133 26.1906 120.4103 32.3206 110.0443 32.3206 108.4823 39.6666 120.0193 39.6666 118.7173 45.7966 99.6083 45.7966"></polygon>
                <g id="Group-21" transform="translate(0.000000, 0.759000)">
                    <path d="M133.2208,26.4235 L135.5648,26.4235 C138.6288,26.4235 139.9288,24.1255 140.3308,22.2325 C140.8488,19.7985 140.2918,18.1755 137.2728,18.1755 L134.9738,18.1755 L133.2208,26.4235 Z M128.5328,12.8575 L141.2418,12.8575 C147.6878,12.8575 149.0518,16.8235 148.1138,21.2405 C147.1168,25.9275 144.7358,28.2265 141.0388,29.0825 L141.0198,29.1725 C145.6988,29.8485 145.3248,32.8685 144.4978,37.1955 C143.2818,43.5505 143.3728,44.1805 144.3578,44.6315 L144.2728,45.0375 L136.1148,45.0375 C135.7588,43.9555 135.9168,42.1525 136.6928,38.5025 C137.8808,32.9135 137.3638,31.7415 134.9748,31.7415 L132.0898,31.7415 L129.2638,45.0375 L121.6928,45.0375 L128.5328,12.8575 Z" id="Fill-3" fill="#290088"></path>
                    <path d="M158.5968,40.6203 C161.6618,40.6203 162.7158,37.7813 164.5938,28.9473 C166.4708,20.1143 166.6238,17.2743 163.5588,17.2743 C160.5858,17.2743 159.5298,20.1143 157.6528,28.9473 C155.7748,37.7813 155.6218,40.6203 158.5968,40.6203 M157.5688,45.6683 C147.6088,45.6683 147.6358,39.1773 149.8108,28.9473 C151.9858,18.7173 154.7178,12.2263 164.6768,12.2263 C175.4038,12.2263 174.3328,20.0233 172.4358,28.9473 C170.5378,37.8713 168.2958,45.6683 157.5688,45.6683" id="Fill-5" fill="#290088"></path>
                    <path d="M180.8839,35.2116 L180.6439,36.3386 C180.1269,38.7726 180.4099,40.6196 183.0259,40.6196 C185.6839,40.6196 186.8709,38.6376 187.2639,36.7896 C188.7389,29.8486 174.0789,33.7246 176.6369,21.6906 C177.7289,16.5536 181.3989,12.2266 189.1969,12.2266 C196.7669,12.2266 198.6559,16.0576 197.6039,21.0156 L197.4409,21.7816 L190.1379,21.7816 C190.4649,20.2486 190.5249,19.1226 190.2259,18.4006 C189.9389,17.6346 189.2939,17.2746 188.1669,17.2746 C186.2749,17.2746 184.9079,18.4006 184.4099,20.7446 C182.9829,27.4596 197.5369,24.0796 195.1219,35.4376 C193.5719,42.7376 188.8929,45.6676 181.9519,45.6676 C176.4529,45.6676 171.7149,44.0006 173.1419,37.2846 L173.5829,35.2116 L180.8839,35.2116 Z" id="Fill-7" fill="#290088"></path>
                    <path d="M207.7149,26.8742 L209.7879,26.8742 C212.8079,26.8742 213.9319,24.9812 214.3919,22.8182 C214.9179,20.3392 214.5089,18.4462 211.4439,18.4462 L209.5059,18.4462 L207.7149,26.8742 Z M203.1229,12.8572 L214.8409,12.8572 C222.8179,12.8572 223.1239,18.6262 222.2719,22.6382 C221.0449,28.4072 217.4339,32.4632 209.8609,32.4632 L206.5269,32.4632 L203.8539,45.0372 L196.2819,45.0372 L203.1229,12.8572 Z" id="Fill-9" fill="#290088"></path>
                    <path d="M234.5558,18.717 L234.4668,18.717 L228.7598,33.049 L234.2578,33.049 L234.5558,18.717 Z M231.2048,12.858 L240.6688,12.858 L241.8508,45.038 L234.0088,45.038 L234.1398,38.908 L226.4328,38.908 L224.0028,45.038 L216.1608,45.038 L231.2048,12.858 Z" id="Fill-11" fill="#290088"></path>
                    <path d="M260.9708,24.0349 C261.9678,19.3479 261.8678,17.2749 259.3438,17.2749 C256.3248,17.2749 255.4398,20.1589 253.6488,28.5869 C251.6168,38.1409 251.4068,40.6199 254.5608,40.6199 C257.3548,40.6199 258.3508,37.4199 259.4598,32.4179 L266.7608,32.4179 L266.5208,33.5449 C265.0458,40.4849 262.0048,45.6679 252.6318,45.6679 C242.9418,45.6679 243.7178,38.4119 245.7788,28.7219 C247.5318,20.4739 249.7348,12.2269 260.4618,12.2269 C267.1318,12.2269 270.1688,15.1109 268.5598,22.6829 L268.2718,24.0349 L260.9708,24.0349 Z" id="Fill-13" fill="#290088"></path>
                    <g id="Group-17" transform="translate(266.000000, 12.000000)">
                        <mask id="mask-2" fill="white">
                            <use xlink:href="#path-1"></use>
                        </mask>
                        <g id="Clip-16"></g>
                        <polygon id="Fill-15" fill="#290088" mask="url(#mask-2)" points="7.6231 0.8576 26.2361 0.8576 24.9341 6.9866 13.8911 6.9866 12.5211 13.4316 22.8871 13.4316 21.5841 19.5616 11.2191 19.5616 9.6571 26.9076 21.1941 26.9076 19.8911 33.0376 0.7821 33.0376"></polygon>
                    </g>
                    <g id="Group-20">
                        <mask id="mask-4" fill="white">
                            <use xlink:href="#path-3"></use>
                        </mask>
                        <g id="Clip-19"></g>
                        <path d="M31.7511,63.1374 C16.1621,63.1084 3.5541,50.4994 3.5271,34.9124 C3.5541,19.3264 16.1621,6.7184 31.7511,6.6884 C35.9071,6.6964 39.8471,7.6054 43.3981,9.2204 L7.5071,45.1104 L19.6301,45.1104 L28.3161,36.4254 L28.3151,36.4254 L43.2531,21.4884 L43.2531,36.4254 L28.9011,36.4254 L28.9011,45.1104 L51.9221,45.1104 L51.9221,15.2014 C56.8921,20.2864 59.9631,27.2364 59.9771,34.9124 C59.9481,50.4994 47.3381,63.1084 31.7511,63.1374 M51.9221,10.3904 L51.9221,0.6964 L46.0521,6.5654 C41.7531,4.3914 36.8981,3.1594 31.7511,3.1594 C14.2151,3.1594 0.0001,17.3764 0.0001,34.9124 C0.0001,52.4474 14.2151,66.6654 31.7511,66.6654 C49.2861,66.6654 63.5001,52.4474 63.5001,34.9124 C63.5001,25.0364 58.9921,16.2144 51.9221,10.3904" id="Fill-18" fill="#290088" mask="url(#mask-4)"></path>
                    </g>
                </g>
            </g>
        </g>
    </g>
</svg>