<?xml version="1.0" encoding="UTF-8"?>
<svg width="293px" height="67px" viewBox="0 0 293 67" version="1.1" xmlns="http://www.w3.org/2000/svg" xmlns:xlink="http://www.w3.org/1999/xlink">
    <!-- Generator: Sketch 46.2 (44496) - http://www.bohemiancoding.com/sketch -->
    <title>Page 1</title>
    <desc>Created with Sketch.</desc>
    <defs></defs>
    <g id="Page-1" stroke="none" stroke-width="1" fill="none" fill-rule="evenodd">
        <g id="V-01" transform="translate(-50.000000, -89.000000)" fill="#FFFFFF">
            <g id="Page-1" transform="translate(50.000000, 89.000000)">
                <path d="M90.3302,18.476 L90.2402,18.476 L84.5342,32.808 L90.0322,32.808 L90.3302,18.476 Z M86.9772,12.617 L96.4422,12.617 L97.6242,44.797 L89.7832,44.797 L89.9132,38.667 L82.2072,38.667 L79.7772,44.797 L71.9352,44.797 L86.9772,12.617 Z" id="Fill-1"></path>
                <polygon id="Fill-2" points="106.4483 12.6166 125.0623 12.6166 123.7593 18.7456 112.7173 18.7456 111.3463 25.1906 121.7133 25.1906 120.4103 31.3206 110.0443 31.3206 108.4823 38.6666 120.0193 38.6666 118.7173 44.7966 99.6083 44.7966"></polygon>
                <path d="M133.2208,26.1825 L135.5648,26.1825 C138.6288,26.1825 139.9288,23.8845 140.3308,21.9915 C140.8488,19.5575 140.2918,17.9345 137.2728,17.9345 L134.9738,17.9345 L133.2208,26.1825 Z M128.5328,12.6165 L141.2418,12.6165 C147.6878,12.6165 149.0518,16.5825 148.1138,20.9995 C147.1168,25.6865 144.7358,27.9855 141.0388,28.8415 L141.0198,28.9315 C145.6988,29.6075 145.3248,32.6275 144.4978,36.9545 C143.2818,43.3095 143.3728,43.9395 144.3578,44.3905 L144.2728,44.7965 L136.1148,44.7965 C135.7588,43.7145 135.9168,41.9115 136.6928,38.2615 C137.8808,32.6725 137.3638,31.5005 134.9748,31.5005 L132.0898,31.5005 L129.2638,44.7965 L121.6928,44.7965 L128.5328,12.6165 Z" id="Fill-3"></path>
                <path d="M158.5968,40.3793 C161.6618,40.3793 162.7158,37.5403 164.5938,28.7063 C166.4708,19.8733 166.6238,17.0333 163.5588,17.0333 C160.5858,17.0333 159.5298,19.8733 157.6528,28.7063 C155.7748,37.5403 155.6218,40.3793 158.5968,40.3793 M157.5688,45.4273 C147.6088,45.4273 147.6358,38.9363 149.8108,28.7063 C151.9858,18.4763 154.7178,11.9853 164.6768,11.9853 C175.4038,11.9853 174.3328,19.7823 172.4358,28.7063 C170.5378,37.6303 168.2958,45.4273 157.5688,45.4273" id="Fill-5"></path>
                <path d="M180.8839,34.9706 L180.6439,36.0976 C180.1269,38.5316 180.4099,40.3786 183.0259,40.3786 C185.6839,40.3786 186.8709,38.3966 187.2639,36.5486 C188.7389,29.6076 174.0789,33.4836 176.6369,21.4496 C177.7289,16.3126 181.3989,11.9856 189.1969,11.9856 C196.7669,11.9856 198.6559,15.8166 197.6039,20.7746 L197.4409,21.5406 L190.1379,21.5406 C190.4649,20.0076 190.5249,18.8816 190.2259,18.1596 C189.9389,17.3936 189.2939,17.0336 188.1669,17.0336 C186.2749,17.0336 184.9079,18.1596 184.4099,20.5036 C182.9829,27.2186 197.5369,23.8386 195.1219,35.1966 C193.5719,42.4966 188.8929,45.4266 181.9519,45.4266 C176.4529,45.4266 171.7149,43.7596 173.1419,37.0436 L173.5829,34.9706 L180.8839,34.9706 Z" id="Fill-7"></path>
                <path d="M207.7149,26.6332 L209.7879,26.6332 C212.8079,26.6332 213.9319,24.7402 214.3919,22.5772 C214.9179,20.0982 214.5089,18.2052 211.4439,18.2052 L209.5059,18.2052 L207.7149,26.6332 Z M203.1229,12.6162 L214.8409,12.6162 C222.8179,12.6162 223.1239,18.3852 222.2719,22.3972 C221.0449,28.1662 217.4339,32.2222 209.8609,32.2222 L206.5269,32.2222 L203.8539,44.7962 L196.2819,44.7962 L203.1229,12.6162 Z" id="Fill-9"></path>
                <path d="M234.5558,18.476 L234.4668,18.476 L228.7598,32.808 L234.2578,32.808 L234.5558,18.476 Z M231.2048,12.617 L240.6688,12.617 L241.8508,44.797 L234.0088,44.797 L234.1398,38.667 L226.4328,38.667 L224.0028,44.797 L216.1608,44.797 L231.2048,12.617 Z" id="Fill-11"></path>
                <path d="M260.9708,23.7939 C261.9678,19.1069 261.8678,17.0339 259.3438,17.0339 C256.3248,17.0339 255.4398,19.9179 253.6488,28.3459 C251.6168,37.8999 251.4068,40.3789 254.5608,40.3789 C257.3548,40.3789 258.3508,37.1789 259.4598,32.1769 L266.7608,32.1769 L266.5208,33.3039 C265.0458,40.2439 262.0048,45.4269 252.6318,45.4269 C242.9418,45.4269 243.7178,38.1709 245.7788,28.4809 C247.5318,20.2329 249.7348,11.9859 260.4618,11.9859 C267.1318,11.9859 270.1688,14.8699 268.5598,22.4419 L268.2718,23.7939 L260.9708,23.7939 Z" id="Fill-13"></path>
                <polygon id="Fill-15" points="273.6231 12.6166 292.2361 12.6166 290.9341 18.7456 279.8911 18.7456 278.5211 25.1906 288.8871 25.1906 287.5841 31.3206 277.2191 31.3206 275.6571 38.6666 287.1941 38.6666 285.8911 44.7966 266.7821 44.7966"></polygon>
                <path d="M31.7511,62.8964 C16.1621,62.8674 3.5541,50.2584 3.5271,34.6714 C3.5541,19.0854 16.1621,6.4774 31.7511,6.4474 C35.9071,6.4554 39.8471,7.3644 43.3981,8.9794 L7.5071,44.8694 L19.6301,44.8694 L28.3161,36.1844 L28.3151,36.1844 L43.2531,21.2474 L43.2531,36.1844 L28.9011,36.1844 L28.9011,44.8694 L51.9221,44.8694 L51.9221,14.9604 C56.8921,20.0454 59.9631,26.9954 59.9771,34.6714 C59.9481,50.2584 47.3381,62.8674 31.7511,62.8964 M51.9221,10.1494 L51.9221,0.4554 L46.0521,6.3244 C41.7531,4.1504 36.8981,2.9184 31.7511,2.9184 C14.2151,2.9184 0.0001,17.1354 0.0001,34.6714 C0.0001,52.2064 14.2151,66.4244 31.7511,66.4244 C49.2861,66.4244 63.5001,52.2064 63.5001,34.6714 C63.5001,24.7954 58.9921,15.9734 51.9221,10.1494" id="Fill-18"></path>
            </g>
        </g>
    </g>
</svg>