<?xml version="1.0" encoding="UTF-8" standalone="no"?>
<!DOCTYPE svg PUBLIC "-//W3C//DTD SVG 1.1//EN" "http://www.w3.org/Graphics/SVG/1.1/DTD/svg11.dtd">
<svg width="100%" height="100%" viewBox="0 0 132 20" version="1.1" xmlns="http://www.w3.org/2000/svg" xmlns:xlink="http://www.w3.org/1999/xlink" xml:space="preserve" xmlns:serif="http://www.serif.com/" style="fill-rule:evenodd;clip-rule:evenodd;stroke-linejoin:round;stroke-miterlimit:1.41421;">
    <path d="M75.045,5.714L70.678,5.714C70.874,4.797 70.909,4.124 70.731,3.692C70.559,3.234 70.174,3.019 69.5,3.019C68.368,3.019 67.551,3.692 67.254,5.094C66.4,9.109 75.103,7.088 73.659,13.879C72.731,18.244 69.934,19.996 65.783,19.996C62.496,19.996 59.662,18.999 60.516,14.984L60.779,13.744L65.145,13.744L65.001,14.418C64.692,15.873 64.862,16.978 66.425,16.978C68.015,16.978 68.725,15.792 68.96,14.687C69.842,10.537 61.076,12.855 62.605,5.66C63.259,2.588 65.452,0 70.115,0C74.642,0 75.772,2.291 75.142,5.256L75.045,5.714ZM117.397,7.061L113.031,7.061C113.627,4.258 113.567,3.019 112.058,3.019C110.252,3.019 109.724,4.743 108.653,9.783C107.438,15.495 107.312,16.978 109.198,16.978C110.869,16.978 111.464,15.064 112.127,12.073L116.493,12.073L116.349,12.747C115.468,16.897 113.649,19.996 108.045,19.996C102.25,19.996 102.715,15.657 103.947,9.864C104.995,4.932 106.312,0 112.727,0C116.715,0 118.531,1.725 117.569,6.252L117.397,7.061ZM51.203,19.996C45.248,19.996 45.264,16.115 46.565,9.998C47.865,3.881 49.498,0.001 55.453,0.001C61.868,0.001 61.227,4.663 60.093,9.998C58.958,15.334 57.617,19.996 51.203,19.996ZM15.361,19.619L10.672,19.619L10.75,15.954L6.142,15.954L4.689,19.619L0,19.619L8.995,0.378L14.654,0.378L15.361,19.619ZM34.279,19.619L29.752,19.619L33.842,0.378L41.441,0.378C45.295,0.378 46.111,2.749 45.55,5.39C44.954,8.193 43.53,9.567 41.32,10.079L41.308,10.133C44.106,10.537 43.883,12.343 43.388,14.93C42.661,18.73 42.715,19.107 43.304,19.376L43.253,19.619L38.375,19.619C38.163,18.972 38.257,17.894 38.721,15.711C39.431,12.37 39.122,11.669 37.694,11.669L35.969,11.669L34.279,19.619ZM101.599,19.619L96.91,19.619L96.988,15.954L92.38,15.954L90.927,19.619L86.238,19.619L95.234,0.378L100.892,0.378L101.599,19.619ZM27.973,19.619L16.547,19.619L20.637,0.378L31.767,0.378L30.988,4.043L24.385,4.043L23.567,7.897L29.764,7.897L28.985,11.562L22.787,11.562L21.853,15.954L28.752,15.954L27.973,19.619ZM130.946,4.043L124.344,4.043L123.525,7.897L129.723,7.897L128.944,11.562L122.746,11.562L121.812,15.954L128.71,15.954L127.932,19.619L116.505,19.619L120.596,0.378L131.725,0.378L130.946,4.043ZM78.879,19.619L74.352,19.619L78.442,0.378L85.449,0.378C90.219,0.378 90.402,3.827 89.892,6.226C89.158,9.675 86.999,12.101 82.472,12.101L80.478,12.101L78.879,19.619ZM51.818,16.978C53.651,16.978 54.281,15.281 55.404,9.998C56.526,4.717 56.618,3.019 54.785,3.019C53.007,3.019 52.376,4.717 51.253,9.998C50.13,15.281 50.039,16.978 51.818,16.978ZM10.999,3.881L10.945,3.881L7.533,12.45L10.821,12.45L10.999,3.881ZM97.237,3.881L97.184,3.881L93.771,12.45L97.059,12.45L97.237,3.881ZM81.188,8.759L82.428,8.759C84.233,8.759 84.905,7.627 85.18,6.334C85.495,4.852 85.25,3.72 83.418,3.72L82.259,3.72L81.188,8.759ZM39.068,3.557L37.693,3.557L36.645,8.489L38.046,8.489C39.879,8.489 40.656,7.115 40.896,5.983C41.206,4.528 40.873,3.557 39.068,3.557Z" style="fill:white;"/>
</svg>
