<?xml version="1.0" encoding="UTF-8" standalone="no"?>
<!DOCTYPE svg PUBLIC "-//W3C//DTD SVG 1.1//EN" "http://www.w3.org/Graphics/SVG/1.1/DTD/svg11.dtd">
<svg width="100%" height="100%" viewBox="0 0 38 40" version="1.1" xmlns="http://www.w3.org/2000/svg" xmlns:xlink="http://www.w3.org/1999/xlink" xml:space="preserve" xmlns:serif="http://www.serif.com/" style="fill-rule:evenodd;clip-rule:evenodd;stroke-linejoin:round;stroke-miterlimit:1.41421;">
    <path d="M18.985,37.335C9.664,37.318 2.125,29.778 2.109,20.458C2.125,11.139 9.664,3.6 18.985,3.582C21.47,3.587 23.826,4.131 25.949,5.096L4.489,26.556L11.738,26.556L16.931,21.363L25.862,12.432L25.862,21.363L17.281,21.363L17.281,26.556L31.046,26.556L31.046,8.672C34.018,11.713 35.854,15.868 35.862,20.458C35.845,29.778 28.305,37.318 18.985,37.335M31.046,5.796L31.046,0L27.536,3.509C24.966,2.209 22.062,1.472 18.985,1.472C8.5,1.472 0,9.973 0,20.458C0,30.943 8.5,39.444 18.985,39.444C29.47,39.444 37.969,30.943 37.969,20.458C37.969,14.553 35.273,9.278 31.046,5.796" style="fill:white;fill-rule:nonzero;"/>
</svg>
