<?xml version="1.0" encoding="UTF-8" standalone="no"?>
<!DOCTYPE svg PUBLIC "-//W3C//DTD SVG 1.1//EN" "http://www.w3.org/Graphics/SVG/1.1/DTD/svg11.dtd">
<svg width="100%" height="100%" viewBox="0 0 1842 1756" version="1.1" xmlns="http://www.w3.org/2000/svg" xmlns:xlink="http://www.w3.org/1999/xlink" xml:space="preserve" style="fill-rule:evenodd;clip-rule:evenodd;stroke-linejoin:round;stroke-miterlimit:1.41421;">
    <g transform="matrix(1,0,0,1,-100,-166)">
        <g id="stars">
            <g transform="matrix(0.0240365,0,0,0.0240365,1058.71,1017.07)">
                <circle cx="1084.27" cy="1041.6" r="41.603" style="fill:white;"/>
            </g>
            <g transform="matrix(0.0120183,0,0,0.0120183,1301.24,939.085)">
                <circle cx="1084.27" cy="1041.6" r="41.603" style="fill:white;"/>
            </g>
            <g transform="matrix(0.0120183,0,0,0.0120183,87.469,787.982)">
                <circle cx="1084.27" cy="1041.6" r="41.603" style="fill:white;"/>
            </g>
            <g transform="matrix(0.0120183,0,0,0.0120183,1187.47,187.982)">
                <circle cx="1084.27" cy="1041.6" r="41.603" style="fill:white;"/>
            </g>
            <g transform="matrix(0.0120183,0,0,0.0120183,687.469,287.982)">
                <circle cx="1084.27" cy="1041.6" r="41.603" style="fill:white;"/>
            </g>
            <g transform="matrix(0.0120183,0,0,0.0120183,757.469,367.982)">
                <circle cx="1084.27" cy="1041.6" r="41.603" style="fill:white;"/>
            </g>
            <g transform="matrix(0.0120183,0,0,0.0120183,697.469,467.982)">
                <circle cx="1084.27" cy="1041.6" r="41.603" style="fill:white;"/>
            </g>
            <g transform="matrix(0.0240365,0,0,0.0240365,854.938,405.963)">
                <circle cx="1084.27" cy="1041.6" r="41.603" style="fill:white;"/>
            </g>
            <g transform="matrix(0.0120183,0,0,0.0120183,877.469,447.982)">
                <circle cx="1084.27" cy="1041.6" r="41.603" style="fill:white;"/>
            </g>
            <g transform="matrix(0.0120183,0,0,0.0120183,857.469,437.982)">
                <circle cx="1084.27" cy="1041.6" r="41.603" style="fill:white;"/>
            </g>
            <g transform="matrix(0.0240365,0,0,0.0240365,854.938,424.963)">
                <circle cx="1084.27" cy="1041.6" r="41.603" style="fill:white;"/>
            </g>
            <g transform="matrix(0.0120183,0,0,0.0120183,871.469,431.982)">
                <circle cx="1084.27" cy="1041.6" r="41.603" style="fill:white;"/>
            </g>
            <g transform="matrix(0.0480731,0,0,0.0480731,831.876,407.927)">
                <circle cx="1084.27" cy="1041.6" r="41.603" style="fill:white;"/>
            </g>
            <g transform="matrix(0.0120183,0,0,0.0120183,861.469,445.982)">
                <circle cx="1084.27" cy="1041.6" r="41.603" style="fill:white;"/>
            </g>
            <g transform="matrix(0.0120183,0,0,0.0120183,850.469,466.982)">
                <circle cx="1084.27" cy="1041.6" r="41.603" style="fill:white;"/>
            </g>
            <g transform="matrix(0.0120183,0,0,0.0120183,850.469,466.982)">
                <circle cx="1084.27" cy="1041.6" r="41.603" style="fill:white;"/>
            </g>
            <g transform="matrix(0.0120183,0,0,0.0120183,877.469,396.982)">
                <circle cx="1084.27" cy="1041.6" r="41.603" style="fill:white;"/>
            </g>
            <g transform="matrix(0.0120183,0,0,0.0120183,957.469,376.982)">
                <circle cx="1084.27" cy="1041.6" r="41.603" style="fill:white;"/>
            </g>
            <g transform="matrix(0.0120183,0,0,0.0120183,927.469,396.982)">
                <circle cx="1084.27" cy="1041.6" r="41.603" style="fill:white;"/>
            </g>
            <g transform="matrix(0.0120183,0,0,0.0120183,947.469,406.982)">
                <circle cx="1084.27" cy="1041.6" r="41.603" style="fill:white;"/>
            </g>
            <g transform="matrix(0.0120183,0,0,0.0120183,950.469,396.982)">
                <circle cx="1084.27" cy="1041.6" r="41.603" style="fill:white;"/>
            </g>
            <g transform="matrix(0.0120183,0,0,0.0120183,1060.47,296.982)">
                <circle cx="1084.27" cy="1041.6" r="41.603" style="fill:white;"/>
            </g>
            <g transform="matrix(0.0120183,0,0,0.0120183,1070.47,306.982)">
                <circle cx="1084.27" cy="1041.6" r="41.603" style="fill:white;"/>
            </g>
            <g transform="matrix(0.0360548,0,0,0.0360548,1039.41,278.945)">
                <circle cx="1084.27" cy="1041.6" r="41.603" style="fill:white;"/>
            </g>
            <g transform="matrix(0.0120183,0,0,0.0120183,1071.47,298.982)">
                <circle cx="1084.27" cy="1041.6" r="41.603" style="fill:white;"/>
            </g>
            <g transform="matrix(0.0120183,0,0,0.0120183,1251.47,488.982)">
                <circle cx="1084.27" cy="1041.6" r="41.603" style="fill:white;"/>
            </g>
            <g transform="matrix(0.0120183,0,0,0.0120183,1244.47,478.982)">
                <circle cx="1084.27" cy="1041.6" r="41.603" style="fill:white;"/>
            </g>
            <g transform="matrix(0.0120183,0,0,0.0120183,1264.47,458.982)">
                <circle cx="1084.27" cy="1041.6" r="41.603" style="fill:white;"/>
            </g>
            <g transform="matrix(0.0120183,0,0,0.0120183,1364.47,508.982)">
                <circle cx="1084.27" cy="1041.6" r="41.603" style="fill:white;"/>
            </g>
            <g transform="matrix(0.0120183,0,0,0.0120183,1644.47,618.982)">
                <circle cx="1084.27" cy="1041.6" r="41.603" style="fill:white;"/>
            </g>
            <g transform="matrix(0.0120183,0,0,0.0120183,1649.47,615.982)">
                <circle cx="1084.27" cy="1041.6" r="41.603" style="fill:white;"/>
            </g>
            <g transform="matrix(0.0240365,0,0,0.0240365,1634.94,604.963)">
                <circle cx="1084.27" cy="1041.6" r="41.603" style="fill:white;"/>
            </g>
            <g transform="matrix(0.0120183,0,0,0.0120183,1633.47,614.982)">
                <circle cx="1084.27" cy="1041.6" r="41.603" style="fill:white;"/>
            </g>
            <g transform="matrix(0.0120183,0,0,0.0120183,1753.47,564.982)">
                <circle cx="1084.27" cy="1041.6" r="41.603" style="fill:white;"/>
            </g>
            <g transform="matrix(0.0120183,0,0,0.0120183,1803.47,644.982)">
                <circle cx="1084.27" cy="1041.6" r="41.603" style="fill:white;"/>
            </g>
            <g transform="matrix(0.0120183,0,0,0.0120183,1865.47,164.982)">
                <circle cx="1084.27" cy="1041.6" r="41.603" style="fill:white;"/>
            </g>
            <g transform="matrix(0.0120183,0,0,0.0120183,1863.47,167.982)">
                <circle cx="1084.27" cy="1041.6" r="41.603" style="fill:white;"/>
            </g>
            <g transform="matrix(0.0120183,0,0,0.0120183,1868.47,169.982)">
                <circle cx="1084.27" cy="1041.6" r="41.603" style="fill:white;"/>
            </g>
            <g transform="matrix(0.0240365,0,0,0.0240365,1836.94,181.963)">
                <circle cx="1084.27" cy="1041.6" r="41.603" style="fill:white;"/>
            </g>
            <g transform="matrix(0.0120183,0,0,0.0120183,1828.47,242.982)">
                <circle cx="1084.27" cy="1041.6" r="41.603" style="fill:white;"/>
            </g>
            <g transform="matrix(0.0120183,0,0,0.0120183,1928.47,312.982)">
                <circle cx="1084.27" cy="1041.6" r="41.603" style="fill:white;"/>
            </g>
            <g transform="matrix(0.0120183,0,0,0.0120183,1578.47,302.982)">
                <circle cx="1084.27" cy="1041.6" r="41.603" style="fill:white;"/>
            </g>
            <g transform="matrix(0.0120183,0,0,0.0120183,1579.47,300.982)">
                <circle cx="1084.27" cy="1041.6" r="41.603" style="fill:white;"/>
            </g>
            <g transform="matrix(0.0120183,0,0,0.0120183,1582.47,301.982)">
                <circle cx="1084.27" cy="1041.6" r="41.603" style="fill:white;"/>
            </g>
            <g transform="matrix(0.0120183,0,0,0.0120183,1581.47,302.982)">
                <circle cx="1084.27" cy="1041.6" r="41.603" style="fill:white;"/>
            </g>
            <g transform="matrix(0.0240365,0,0,0.0240365,1572.94,291.963)">
                <circle cx="1084.27" cy="1041.6" r="41.603" style="fill:white;"/>
            </g>
            <g transform="matrix(0.0120183,0,0,0.0120183,1590.47,306.982)">
                <circle cx="1084.27" cy="1041.6" r="41.603" style="fill:white;"/>
            </g>
            <g transform="matrix(0.0120183,0,0,0.0120183,1589.47,309.982)">
                <circle cx="1084.27" cy="1041.6" r="41.603" style="fill:white;"/>
            </g>
            <g transform="matrix(0.0120183,0,0,0.0120183,1590.47,310.982)">
                <circle cx="1084.27" cy="1041.6" r="41.603" style="fill:white;"/>
            </g>
            <g transform="matrix(0.0120183,0,0,0.0120183,1592.47,312.982)">
                <circle cx="1084.27" cy="1041.6" r="41.603" style="fill:white;"/>
            </g>
            <g transform="matrix(0.0360548,0,0,0.0360548,1566.41,288.945)">
                <circle cx="1084.27" cy="1041.6" r="41.603" style="fill:white;"/>
            </g>
            <g transform="matrix(0.0120183,0,0,0.0120183,1598.47,319.982)">
                <circle cx="1084.27" cy="1041.6" r="41.603" style="fill:white;"/>
            </g>
            <g transform="matrix(0.0120183,0,0,0.0120183,1612.47,333.982)">
                <circle cx="1084.27" cy="1041.6" r="41.603" style="fill:white;"/>
            </g>
            <g transform="matrix(0.0240365,0,0,0.0240365,1636.94,311.963)">
                <circle cx="1084.27" cy="1041.6" r="41.603" style="fill:white;"/>
            </g>
            <g transform="matrix(0.0120183,0,0,0.0120183,1538.47,223.982)">
                <circle cx="1084.27" cy="1041.6" r="41.603" style="fill:white;"/>
            </g>
            <g transform="matrix(0.0120183,0,0,0.0120183,1478.47,273.982)">
                <circle cx="1084.27" cy="1041.6" r="41.603" style="fill:white;"/>
            </g>
            <g transform="matrix(0.0120183,0,0,0.0120183,98.469,153.982)">
                <circle cx="1084.27" cy="1041.6" r="41.603" style="fill:white;"/>
            </g>
            <g transform="matrix(0.0120183,0,0,0.0120183,268.469,243.982)">
                <circle cx="1084.27" cy="1041.6" r="41.603" style="fill:white;"/>
            </g>
            <g transform="matrix(0.0120183,0,0,0.0120183,368.469,453.982)">
                <circle cx="1084.27" cy="1041.6" r="41.603" style="fill:white;"/>
            </g>
            <g transform="matrix(0.0120183,0,0,0.0120183,349.469,472.982)">
                <circle cx="1084.27" cy="1041.6" r="41.603" style="fill:white;"/>
            </g>
            <g transform="matrix(0.0120183,0,0,0.0120183,419.469,502.982)">
                <circle cx="1084.27" cy="1041.6" r="41.603" style="fill:white;"/>
            </g>
            <g transform="matrix(0.0120183,0,0,0.0120183,425.469,492.982)">
                <circle cx="1084.27" cy="1041.6" r="41.603" style="fill:white;"/>
            </g>
            <g transform="matrix(0.0120183,0,0,0.0120183,423.469,494.982)">
                <circle cx="1084.27" cy="1041.6" r="41.603" style="fill:white;"/>
            </g>
            <g transform="matrix(0.0120183,0,0,0.0120183,426.469,509.982)">
                <circle cx="1084.27" cy="1041.6" r="41.603" style="fill:white;"/>
            </g>
            <g transform="matrix(0.0120183,0,0,0.0120183,436.469,514.982)">
                <circle cx="1084.27" cy="1041.6" r="41.603" style="fill:white;"/>
            </g>
            <g transform="matrix(0.0360548,0,0,0.0360548,408.407,490.945)">
                <circle cx="1084.27" cy="1041.6" r="41.603" style="fill:white;"/>
            </g>
            <g transform="matrix(0.0240365,0,0,0.0240365,417.938,500.963)">
                <circle cx="1084.27" cy="1041.6" r="41.603" style="fill:white;"/>
            </g>
            <g transform="matrix(0.0120183,0,0,0.0120183,420.469,523.982)">
                <circle cx="1084.27" cy="1041.6" r="41.603" style="fill:white;"/>
            </g>
            <g transform="matrix(0.0120183,0,0,0.0120183,414.469,530.982)">
                <circle cx="1084.27" cy="1041.6" r="41.603" style="fill:white;"/>
            </g>
            <g transform="matrix(0.0120183,0,0,0.0120183,396.469,530.982)">
                <circle cx="1084.27" cy="1041.6" r="41.603" style="fill:white;"/>
            </g>
            <g transform="matrix(0.0120183,0,0,0.0120183,397.469,536.982)">
                <circle cx="1084.27" cy="1041.6" r="41.603" style="fill:white;"/>
            </g>
            <g transform="matrix(0.0240365,0,0,0.0240365,385.938,520.963)">
                <circle cx="1084.27" cy="1041.6" r="41.603" style="fill:white;"/>
            </g>
            <g transform="matrix(0.0120183,0,0,0.0120183,439.469,558.982)">
                <circle cx="1084.27" cy="1041.6" r="41.603" style="fill:white;"/>
            </g>
            <g transform="matrix(0.0120183,0,0,0.0120183,447.469,556.982)">
                <circle cx="1084.27" cy="1041.6" r="41.603" style="fill:white;"/>
            </g>
            <g transform="matrix(0.0120183,0,0,0.0120183,442.469,545.982)">
                <circle cx="1084.27" cy="1041.6" r="41.603" style="fill:white;"/>
            </g>
            <g transform="matrix(0.0120183,0,0,0.0120183,442.469,545.982)">
                <circle cx="1084.27" cy="1041.6" r="41.603" style="fill:white;"/>
            </g>
            <g transform="matrix(0.0120183,0,0,0.0120183,828.469,813.982)">
                <circle cx="1084.27" cy="1041.6" r="41.603" style="fill:white;"/>
            </g>
            <g transform="matrix(0.0120183,0,0,0.0120183,918.469,1043.98)">
                <circle cx="1084.27" cy="1041.6" r="41.603" style="fill:white;"/>
            </g>
            <g transform="matrix(0.0120183,0,0,0.0120183,858.469,1303.98)">
                <circle cx="1084.27" cy="1041.6" r="41.603" style="fill:white;"/>
            </g>
            <g transform="matrix(0.0120183,0,0,0.0120183,860.469,1304.98)">
                <circle cx="1084.27" cy="1041.6" r="41.603" style="fill:white;"/>
            </g>
            <g transform="matrix(0.0360548,0,0,0.0360548,838.407,1277.95)">
                <circle cx="1084.27" cy="1041.6" r="41.603" style="fill:white;"/>
            </g>
            <g transform="matrix(0.0120183,0,0,0.0120183,858.469,1294.98)">
                <circle cx="1084.27" cy="1041.6" r="41.603" style="fill:white;"/>
            </g>
            <g transform="matrix(0.0120183,0,0,0.0120183,876.469,1323.98)">
                <circle cx="1084.27" cy="1041.6" r="41.603" style="fill:white;"/>
            </g>
            <g transform="matrix(0.0120183,0,0,0.0120183,516.469,1713.98)">
                <circle cx="1084.27" cy="1041.6" r="41.603" style="fill:white;"/>
            </g>
            <g transform="matrix(0.0120183,0,0,0.0120183,1026.47,1613.98)">
                <circle cx="1084.27" cy="1041.6" r="41.603" style="fill:white;"/>
            </g>
            <g transform="matrix(0.0120183,0,0,0.0120183,1846.47,1883.98)">
                <circle cx="1084.27" cy="1041.6" r="41.603" style="fill:white;"/>
            </g>
            <g transform="matrix(0.0120183,0,0,0.0120183,1845.47,1874.98)">
                <circle cx="1084.27" cy="1041.6" r="41.603" style="fill:white;"/>
            </g>
            <g transform="matrix(0.0120183,0,0,0.0120183,1869.47,1885.98)">
                <circle cx="1084.27" cy="1041.6" r="41.603" style="fill:white;"/>
            </g>
            <g transform="matrix(0.0240365,0,0,0.0240365,1851.94,1867.96)">
                <circle cx="1084.27" cy="1041.6" r="41.603" style="fill:white;"/>
            </g>
            <g transform="matrix(0.0120183,0,0,0.0120183,1860.47,1882.98)">
                <circle cx="1084.27" cy="1041.6" r="41.603" style="fill:white;"/>
            </g>
            <g transform="matrix(0.0120183,0,0,0.0120183,1856.47,1881.98)">
                <circle cx="1084.27" cy="1041.6" r="41.603" style="fill:white;"/>
            </g>
            <g transform="matrix(0.0480731,0,0,0.0480731,1816.88,1846.93)">
                <circle cx="1084.27" cy="1041.6" r="41.603" style="fill:white;"/>
            </g>
            <g transform="matrix(0.0120183,0,0,0.0120183,1852.47,1873.98)">
                <circle cx="1084.27" cy="1041.6" r="41.603" style="fill:white;"/>
            </g>
            <g transform="matrix(0.0120183,0,0,0.0120183,1832.47,1883.98)">
                <circle cx="1084.27" cy="1041.6" r="41.603" style="fill:white;"/>
            </g>
            <g transform="matrix(0.0120183,0,0,0.0120183,1802.47,1853.98)">
                <circle cx="1084.27" cy="1041.6" r="41.603" style="fill:white;"/>
            </g>
            <g transform="matrix(0.0240365,0,0,0.0240365,1791.94,1845.96)">
                <circle cx="1084.27" cy="1041.6" r="41.603" style="fill:white;"/>
            </g>
            <g transform="matrix(0.0120183,0,0,0.0120183,1793.47,1877.98)">
                <circle cx="1084.27" cy="1041.6" r="41.603" style="fill:white;"/>
            </g>
            <g transform="matrix(0.0120183,0,0,0.0120183,1810.47,1908.98)">
                <circle cx="1084.27" cy="1041.6" r="41.603" style="fill:white;"/>
            </g>
            <g transform="matrix(0.0120183,0,0,0.0120183,1812.47,1906.98)">
                <circle cx="1084.27" cy="1041.6" r="41.603" style="fill:white;"/>
            </g>
            <g transform="matrix(0.0120183,0,0,0.0120183,1622.47,1716.98)">
                <circle cx="1084.27" cy="1041.6" r="41.603" style="fill:white;"/>
            </g>
            <g transform="matrix(0.0120183,0,0,0.0120183,1601.47,1686.98)">
                <circle cx="1084.27" cy="1041.6" r="41.603" style="fill:white;"/>
            </g>
            <g transform="matrix(0.0120183,0,0,0.0120183,1621.47,1677.98)">
                <circle cx="1084.27" cy="1041.6" r="41.603" style="fill:white;"/>
            </g>
            <g transform="matrix(0.0120183,0,0,0.0120183,1619.47,1683.98)">
                <circle cx="1084.27" cy="1041.6" r="41.603" style="fill:white;"/>
            </g>
            <g transform="matrix(0.0240365,0,0,0.0240365,1624.94,1680.96)">
                <circle cx="1084.27" cy="1041.6" r="41.603" style="fill:white;"/>
            </g>
            <g transform="matrix(0.0240365,0,0,0.0240365,616.938,1711.96)">
                <circle cx="1084.27" cy="1041.6" r="41.603" style="fill:white;"/>
            </g>
            <g transform="matrix(0.0240365,0,0,0.0240365,612.938,1703.96)">
                <circle cx="1084.27" cy="1041.6" r="41.603" style="fill:white;"/>
            </g>
            <g transform="matrix(0.0120183,0,0,0.0120183,645.469,1697.98)">
                <circle cx="1084.27" cy="1041.6" r="41.603" style="fill:white;"/>
            </g>
            <g transform="matrix(0.0120183,0,0,0.0120183,635.469,1687.98)">
                <circle cx="1084.27" cy="1041.6" r="41.603" style="fill:white;"/>
            </g>
            <g transform="matrix(0.0120183,0,0,0.0120183,638.469,1690.98)">
                <circle cx="1084.27" cy="1041.6" r="41.603" style="fill:white;"/>
            </g>
            <g transform="matrix(0.0120183,0,0,0.0120183,627.469,1699.98)">
                <circle cx="1084.27" cy="1041.6" r="41.603" style="fill:white;"/>
            </g>
            <g transform="matrix(0.0360548,0,0,0.0360548,605.407,1666.95)">
                <circle cx="1084.27" cy="1041.6" r="41.603" style="fill:white;"/>
            </g>
            <g transform="matrix(0.0120183,0,0,0.0120183,670.469,1730.98)">
                <circle cx="1084.27" cy="1041.6" r="41.603" style="fill:white;"/>
            </g>
            <g transform="matrix(0.0120183,0,0,0.0120183,637.469,1678.98)">
                <circle cx="1084.27" cy="1041.6" r="41.603" style="fill:white;"/>
            </g>
            <g transform="matrix(0.0120183,0,0,0.0120183,593.469,1705.98)">
                <circle cx="1084.27" cy="1041.6" r="41.603" style="fill:white;"/>
            </g>
            <g transform="matrix(0.0120183,0,0,0.0120183,543.469,1745.98)">
                <circle cx="1084.27" cy="1041.6" r="41.603" style="fill:white;"/>
            </g>
            <g transform="matrix(0.0120183,0,0,0.0120183,643.469,1815.98)">
                <circle cx="1084.27" cy="1041.6" r="41.603" style="fill:white;"/>
            </g>
            <g transform="matrix(0.0120183,0,0,0.0120183,193.469,1415.98)">
                <circle cx="1084.27" cy="1041.6" r="41.603" style="fill:white;"/>
            </g>
            <g transform="matrix(0.0240365,0,0,0.0240365,181.938,1402.96)">
                <circle cx="1084.27" cy="1041.6" r="41.603" style="fill:white;"/>
            </g>
            <g transform="matrix(0.0120183,0,0,0.0120183,194.469,1410.98)">
                <circle cx="1084.27" cy="1041.6" r="41.603" style="fill:white;"/>
            </g>
            <g transform="matrix(0.0120183,0,0,0.0120183,214.469,1385.98)">
                <circle cx="1084.27" cy="1041.6" r="41.603" style="fill:white;"/>
            </g>
            <g transform="matrix(0.0120183,0,0,0.0120183,213.469,1407.98)">
                <circle cx="1084.27" cy="1041.6" r="41.603" style="fill:white;"/>
            </g>
            <g transform="matrix(0.0120183,0,0,0.0120183,198.469,1447.98)">
                <circle cx="1084.27" cy="1041.6" r="41.603" style="fill:white;"/>
            </g>
            <g transform="matrix(0.0120183,0,0,0.0120183,238.469,1507.98)">
                <circle cx="1084.27" cy="1041.6" r="41.603" style="fill:white;"/>
            </g>
            <g transform="matrix(0.0120183,0,0,0.0120183,109.469,1214.98)">
                <circle cx="1084.27" cy="1041.6" r="41.603" style="fill:white;"/>
            </g>
            <g transform="matrix(0.0120183,0,0,0.0120183,419.469,994.982)">
                <circle cx="1084.27" cy="1041.6" r="41.603" style="fill:white;"/>
            </g>
            <g transform="matrix(0.0120183,0,0,0.0120183,421.469,997.982)">
                <circle cx="1084.27" cy="1041.6" r="41.603" style="fill:white;"/>
            </g>
            <g transform="matrix(0.0240365,0,0,0.0240365,406.938,984.963)">
                <circle cx="1084.27" cy="1041.6" r="41.603" style="fill:white;"/>
            </g>
            <g transform="matrix(0.0120183,0,0,0.0120183,395.469,1017.98)">
                <circle cx="1084.27" cy="1041.6" r="41.603" style="fill:white;"/>
            </g>
            <g transform="matrix(0.0120183,0,0,0.0120183,384.469,914.982)">
                <circle cx="1084.27" cy="1041.6" r="41.603" style="fill:white;"/>
            </g>
            <g transform="matrix(0.0120183,0,0,0.0120183,1843.47,184.982)">
                <circle cx="1084.27" cy="1041.6" r="41.603" style="fill:white;"/>
            </g>
            <g transform="matrix(0.0120183,0,0,0.0120183,1844.47,174.982)">
                <circle cx="1084.27" cy="1041.6" r="41.603" style="fill:white;"/>
            </g>
            <g transform="matrix(0.0120183,0,0,0.0120183,1794.47,214.982)">
                <circle cx="1084.27" cy="1041.6" r="41.603" style="fill:white;"/>
            </g>
            <g transform="matrix(0.0120183,0,0,0.0120183,1814.47,213.982)">
                <circle cx="1084.27" cy="1041.6" r="41.603" style="fill:white;"/>
            </g>
            <g transform="matrix(0.0120183,0,0,0.0120183,1834.47,203.982)">
                <circle cx="1084.27" cy="1041.6" r="41.603" style="fill:white;"/>
            </g>
        </g>
    </g>
</svg>
