<?xml version="1.0" encoding="utf-8"?>
<!-- Generator: Adobe Illustrator 22.0.1, SVG Export Plug-In . SVG Version: 6.00 Build 0)  -->
<svg version="1.1" id="Layer_1" xmlns="http://www.w3.org/2000/svg" xmlns:xlink="http://www.w3.org/1999/xlink" x="0px" y="0px"
	 viewBox="0 0 16 15" style="enable-background:new 0 0 16 15;" xml:space="preserve">
<style type="text/css">
	.st0{clip-path:url(#SVGID_2_);fill:none;stroke:#748592;stroke-width:1.5;stroke-miterlimit:10;}
</style>
<g>
	<defs>
		<rect id="SVGID_1_" x="-691" y="-1158" width="1500" height="1454"/>
	</defs>
	<clipPath id="SVGID_2_">
		<use xlink:href="#SVGID_1_"  style="overflow:visible;"/>
	</clipPath>
	<path class="st0" d="M8,14c-3.1-2.3-5-3.9-5.8-4.9C0.4,6.7,0.6,4.7,1,3c0.2-0.9,0.7-1.6,2-2s2.6-0.2,3,0C6.5,1.2,7.1,1.8,8,2.9
		C8.9,1.8,9.5,1.2,9.9,1c0.4-0.2,1.7-0.4,3,0s1.8,1.1,2,2c0.4,1.7,0.7,3.7-1.3,6.2C12.9,10.1,11,11.8,8,14z"/>
</g>
</svg>
