<?xml version="1.0" encoding="UTF-8" standalone="no"?>
<!DOCTYPE svg PUBLIC "-//W3C//DTD SVG 1.1//EN" "http://www.w3.org/Graphics/SVG/1.1/DTD/svg11.dtd">
<svg width="100%" height="100%" viewBox="0 0 512 512" version="1.1" xmlns="http://www.w3.org/2000/svg" xmlns:xlink="http://www.w3.org/1999/xlink" xml:space="preserve" style="fill-rule:evenodd;clip-rule:evenodd;stroke-linejoin:round;stroke-miterlimit:1.41421;">
    <g>
        <path d="M384,176.905L384,128C384,57.308 326.692,0 256,0C185.308,0 128,57.308 128,128L128,176.906C88.725,212.062 64,263.141 64,320C64,426.039 149.962,512 256,512C362.039,512 448,426.039 448,320C448,263.141 423.275,212.062 384,176.905ZM160,128C160,75.065 203.065,32 256,32C308.935,32 352,75.065 352,128L352,153.692C323.759,137.355 290.973,128 256,128C221.027,128 188.241,137.355 160,153.693L160,128ZM256,480C167.634,480 96,408.366 96,320C96,231.634 167.634,160 256,160C344.366,160 416,231.634 416,320C416,408.366 344.366,480 256,480Z" style="fill:white;fill-rule:nonzero;"/>
        <path d="M256,176C176.471,176 112,240.472 112,320C112,399.528 176.471,464 256,464C335.529,464 400,399.528 400,320C400,240.472 335.529,176 256,176ZM378.533,353.487L354.413,345.591L350.487,357.781L374.648,365.693C370.987,375.469 366.186,384.658 360.396,393.102L349.836,385.365L346.096,390.549L356.651,398.283C350.522,406.33 343.462,413.607 335.623,419.965L320.641,399.178L310.357,406.71L325.333,427.486C316.854,433.042 307.676,437.606 297.935,441.018L293.975,428.724L287.926,430.706L292.85,442.968C283.335,445.77 273,447.497 264,448L264,435.341L264,429L248,429L248,448C237,447.494 228.295,445.756 218.757,442.935L222.705,431.729L216.455,429.623L212.916,440.847C203.359,437.454 194.385,432.952 186.052,427.488L201.049,406.714L190.779,399.18L175.802,419.967C167.993,413.634 160.961,406.392 154.849,398.384L164.405,391.386L160.434,385.879L150.872,392.879C145.154,384.498 140.403,375.382 136.779,365.693L160.941,357.779L157.015,345.591L132.894,353.488C130.404,344.057 128.94,335 128.636,324.001L134,324.001L134,317.196L128.007,317.194C128.23,306.588 128.679,296.314 131.273,286.512L156.194,294.412L160.541,282.224L136.575,274.31C140.16,264.74 144.935,255.727 150.56,247.431L160.899,254.964L164.658,249.78L154.366,242.235C160.587,233.982 167.79,226.528 175.8,220.038L190.784,240.825L201.068,233.289L186.093,212.515C194.498,207.001 203.605,202.465 213.253,199.066L217.208,211.313L223.252,209.333L218.632,197.102C228.21,194.258 237,192.508 248,192L248,211L264,211L264,204.66L264,192C273,192.498 283.159,194.198 292.585,196.951L287.824,210.231L294.006,212.337L298.18,199.025C307.876,202.433 316.958,206.982 325.388,212.516L310.386,233.291L320.653,240.826L335.628,220.039C343.563,226.471 350.697,233.851 356.883,242.016L345.584,250.284L349.559,255.796L360.835,247.536C366.43,255.807 371.082,264.779 374.651,274.311L350.486,282.225L354.414,294.413L378.534,286.513C381.12,296.315 383.785,306.588 384.004,317.196L376,317.192L376,324L382.789,324C382.486,334.999 381.02,344.057 378.533,353.487Z" style="fill:white;fill-rule:nonzero;"/>
        <circle cx="256" cy="320" r="81" style="fill:white;"/>
    </g>
</svg>
