<svg version="1.1" id="Layer_1" xmlns="http://www.w3.org/2000/svg" x="0" y="0" viewBox="0 0 151.869 151.025" xml:space="preserve"><style>.st0{fill:#fefbf2}</style><path class="st0" d="M18.87 19.828v15.093c0 .237.192.43.43.43h3.604a.43.43 0 00.43-.43V19.828a.43.43 0 01.43-.43h4.946a.43.43 0 00.43-.43v-3.61a.43.43 0 00-.43-.43H13.553a.43.43 0 00-.43.43v3.61c0 .237.192.43.43.43h4.887a.43.43 0 01.43.43zM33.495 35.351h12.777a.395.395 0 00.395-.395v-3.137a.395.395 0 00-.395-.395h-8.255a.395.395 0 01-.395-.395v-3.511c0-.218.177-.395.395-.395h7.058a.395.395 0 00.395-.395v-3.137a.395.395 0 00-.395-.395h-7.058a.395.395 0 01-.395-.395V19.25c0-.218.177-.395.395-.395h8.255a.395.395 0 00.395-.395v-3.137a.395.395 0 00-.395-.395H33.495a.395.395 0 00-.395.395v19.633c0 .218.177.395.395.395zM49.921 35.351h4.362a.642.642 0 00.541-.295l4.218-6.556a.206.206 0 01.345 0l4.218 6.556a.642.642 0 00.541.295h4.335c.274 0 .433-.309.274-.532l-6.443-9.967a.541.541 0 01.003-.591l5.823-8.796a.337.337 0 00-.271-.537H63.53a.64.64 0 00-.538.291l-3.606 5.514a.205.205 0 01-.343 0l-3.606-5.514a.642.642 0 00-.538-.291h-4.367a.337.337 0 00-.271.537l5.852 8.795a.54.54 0 01.003.592l-6.469 9.965a.337.337 0 00.274.534zM83.246 15.097a.266.266 0 00-.248-.169h-4.042a.266.266 0 00-.248.17l-7.672 19.89a.266.266 0 00.248.362h4.094a.265.265 0 00.249-.173l1.266-3.4a.293.293 0 01.274-.19h7.62a.29.29 0 01.272.186l1.321 3.407c.04.102.138.17.248.17h4.153a.267.267 0 00.248-.363l-7.783-19.89zm.373 12.785h-5.342a.062.062 0 01-.058-.082l2.714-7.915c.019-.056.098-.055.117.001l2.629 7.915a.063.063 0 01-.06.081zM101.553 23.447l-2.159-.759c-2.043-.7-2.188-1.662-2.188-2.188 0-1.341 1.079-1.896 2.48-1.896.779 0 2.055.199 2.935 1.85a.522.522 0 00.691.218l2.749-1.375a.523.523 0 00.244-.688c-1.283-2.643-3.637-4.001-6.619-4.001-3.997 0-6.886 2.275-6.886 5.951 0 1.693.671 4.522 5.193 6.07l2.217.757c1.926.672 2.364 1.401 2.364 2.188 0 1.518-1.459 2.101-3.063 2.101-1.739 0-2.962-.833-3.559-2.367a.535.535 0 00-.597-.347l-3.083.604a.52.52 0 00-.42.594c.654 3.488 4.069 5.512 7.804 5.512 3.589 0 7.323-1.896 7.323-6.185-.028-1.867-.845-4.61-5.426-6.039zM19.033 48.996h-3.856a.333.333 0 00-.333.333v19.756c0 .184.149.333.333.333h13.104a.333.333 0 00.333-.333v-3.599a.333.333 0 00-.333-.333H19.7a.333.333 0 01-.333-.333V49.33a.335.335 0 00-.334-.334zM31.132 69.419h3.794c.17 0 .323-.106.382-.265l1.25-3.354a.22.22 0 01.207-.143h7.719c.091 0 .173.056.206.141l1.305 3.362c.061.157.212.26.38.26h3.853c.285 0 .48-.287.377-.552l-7.677-19.614a.405.405 0 00-.377-.257h-3.852a.404.404 0 00-.377.259L30.756 68.87a.402.402 0 00.376.549zm9.307-15.061a.206.206 0 01.39.002l2.431 7.319a.206.206 0 01-.195.271h-4.94a.206.206 0 01-.195-.273l2.509-7.319zM68.651 60.998L65.193 50.03a.519.519 0 00-.495-.363h-2.595a.52.52 0 00-.495.362l-3.445 10.843c-.062.196-.34.194-.4-.002L54.25 49.364a.52.52 0 00-.496-.367h-3.518c-.351 0-.6.34-.495.675l6.092 19.384a.519.519 0 00.495.363h2.826a.52.52 0 00.496-.365l3.554-11.417c.056-.18.31-.18.366 0l3.555 11.417a.52.52 0 00.496.365h2.825a.519.519 0 00.495-.363l6.093-19.384a.52.52 0 00-.495-.675H73.02a.518.518 0 00-.496.367L68.97 60.997a.167.167 0 01-.319.001zM27.127 96.222v6.903c0 .2.162.362.362.362h3.798c.2 0 .362-.162.362-.362V83.426c0-.2-.162-.362-.362-.362h-3.798c-.2 0-.362.162-.362.362v7.807c0 .2-.162.362-.362.362h-7.036a.362.362 0 01-.362-.362v-7.807c0-.2-.162-.362-.362-.362h-3.798c-.2 0-.362.162-.362.362v19.698c0 .2.162.362.362.362h3.798c.2 0 .362-.162.362-.362v-6.903c0-.2.162-.362.362-.362h7.036c.2.001.362.163.362.363zM41.214 86.992h8.495a.275.275 0 00.275-.275v-3.378a.275.275 0 00-.275-.275H36.691a.275.275 0 00-.275.275v19.873c0 .152.123.275.275.275h13.018a.275.275 0 00.275-.275v-3.378a.275.275 0 00-.275-.275h-8.495a.275.275 0 01-.275-.275v-3.752c0-.152.123-.275.275-.275h7.299a.275.275 0 00.275-.275v-3.378a.275.275 0 00-.275-.275h-7.299a.275.275 0 01-.275-.275v-3.791c0-.149.123-.271.275-.271zM60.361 83.064h-3.973a.275.275 0 00-.275.275v19.873c0 .152.123.275.275.275H69.61a.275.275 0 00.275-.275v-3.716a.275.275 0 00-.275-.275h-8.7a.275.275 0 01-.275-.275V83.339a.275.275 0 00-.274-.275zM82.431 83.064h-8.46a.497.497 0 00-.497.497v19.429c0 .274.222.497.497.497H77.5a.497.497 0 00.497-.497v-6.213c0-.274.222-.497.497-.497h3.937c4.202 0 6.565-2.947 6.565-6.535-.001-3.588-2.334-6.681-6.565-6.681zm-.584 9.657h-3.354a.497.497 0 01-.497-.497V87.15c0-.274.222-.497.497-.497h3.354c1.605 0 2.597 1.254 2.597 3.063 0 1.75-.992 3.005-2.597 3.005zM31.167 116.813c-5.864 0-10.62 4.726-10.62 10.531 0 5.807 4.756 10.533 10.62 10.533 5.835 0 10.591-4.726 10.591-10.533 0-5.805-4.756-10.531-10.591-10.531zm0 16.922c-3.384 0-6.156-2.656-6.156-6.391 0-3.734 2.772-6.389 6.156-6.389 3.355 0 6.127 2.655 6.127 6.389.001 3.735-2.772 6.391-6.127 6.391zM62.159 133.447a.404.404 0 00-.59-.148c-.515.358-1.149.582-1.709.582-1.927 0-2.763-1.558-3.292-3.549a.41.41 0 01.261-.484c2.474-.938 3.965-3.245 3.965-6.004 0-3.589-2.304-6.71-6.506-6.71h-8.665a.408.408 0 00-.408.408v19.606c0 .226.183.408.408.408H49.3a.408.408 0 00.408-.408V130.7c0-.226.183-.408.408-.408h1.946c.201 0 .373.144.402.343.344 2.34 1.917 7.243 6.521 7.243 1.957 0 3.054-.608 4.279-1.54a.412.412 0 00.116-.513l-1.221-2.378zm-8.455-6.773h-3.589a.408.408 0 01-.408-.408v-4.93c0-.226.183-.408.408-.408h3.589c1.605 0 2.568 1.167 2.568 2.889-.001 1.69-.964 2.857-2.568 2.857zM83.468 126.44h-8.466a.464.464 0 00-.464.464v2.691c0 .256.208.464.464.464h4.236c.256 0 .464.208.464.464v2.149a.46.46 0 01-.275.428c-1.04.438-2.337.634-3.488.634-3.706 0-6.302-2.656-6.302-6.332 0-2.946 1.692-6.448 6.652-6.448 1.802-.025 3.463.812 4.586 1.574a.46.46 0 00.638-.131l1.734-2.589a.466.466 0 00-.112-.636c-1.989-1.428-4.075-2.361-6.991-2.361-6.827 0-11.029 4.843-11.029 10.531 0 5.777 4.581 10.533 10.853 10.533 1.787 0 4.67-.374 7.574-2.784.251-.208.391-.525.391-.851v-7.338a.465.465 0 00-.465-.462z"/><g id="TlCYKi_4_"><path d="M11.758 133.504l1.934-.155a.83.83 0 00.702-.51l.746-1.795c.034-.082.148-.078.182.004l.743 1.787c.121.29.393.488.706.513l1.931.155c.088.007.122.117.055.174l-1.466 1.256a.844.844 0 00-.272.838l.442 1.876a.098.098 0 01-.146.107c-.374-.227-1.182-.721-1.644-1.003a.848.848 0 00-.882 0l-1.647 1.001a.098.098 0 01-.147-.106l.445-1.874a.843.843 0 00-.271-.838l-1.466-1.256c-.066-.057-.033-.167.055-.174z" fill="#f2dbbb"/></g></svg>