<?xml version="1.0" encoding="UTF-8" standalone="no"?>
<!DOCTYPE svg PUBLIC "-//W3C//DTD SVG 1.1//EN" "http://www.w3.org/Graphics/SVG/1.1/DTD/svg11.dtd">
<svg width="100%" height="100%" viewBox="0 0 3646 699" version="1.1" xmlns="http://www.w3.org/2000/svg" xmlns:xlink="http://www.w3.org/1999/xlink" xml:space="preserve" style="fill-rule:evenodd;clip-rule:evenodd;stroke-linejoin:round;stroke-miterlimit:1.41421;">
    <g transform="matrix(1,0,0,1,0,-1.62086)">
        <g transform="matrix(4.16667,0,0,4.16667,0,0)">
            <g transform="matrix(0.24,0,0,0.24,0,0)">
                <path d="M1629.64,18.796L1722.16,18.796L1722.16,211.104L1849.36,211.104L1849.36,283.162L1722.16,283.162L1722.16,572.942C1722.16,600.046 1738.06,617.525 1762.7,617.525C1811.14,617.525 1817.66,576.708 1817.66,536.775L1817.66,461.412L1889.72,461.412L1889.72,548.167C1889.72,651.746 1836.25,700 1721.33,700C1616.53,700 1561.2,647.471 1561.2,548.167L1561.2,283.162L1491.86,283.162L1491.86,210.129C1571.16,207.242 1616.44,144.784 1629.64,18.796ZM2101.25,466.246L2101.25,471.638C2101.25,536.029 2112.6,621.713 2210.05,621.713C2247.23,621.713 2306,593.121 2318.18,532.821C2322.74,532.821 2418.7,532.821 2427.62,532.821C2408.28,648.071 2292.8,700 2185.21,700C2019.89,700 1928.95,610.413 1928.95,447.792C1928.95,296.971 2031.89,195.646 2185.21,195.646C2339.57,195.646 2439.9,301.854 2442.13,466.246L2101.25,466.246ZM2475.69,447.792C2475.69,296.971 2578.72,195.646 2731.95,195.646C2886.3,195.646 2986.63,301.854 2988.87,466.246C2980.77,466.246 2647.99,466.246 2647.99,466.246L2647.99,471.638C2647.99,536.029 2659.34,621.713 2756.78,621.713C2793.97,621.713 2852.74,593.121 2864.92,532.821C2869.47,532.821 2965.44,532.821 2974.36,532.821C2955.03,648.071 2839.53,700 2731.95,700C2566.63,700 2475.69,610.413 2475.69,447.792ZM412.613,699.075L1.067,699.075C1.067,694.321 1.067,617.546 1.067,612.762C5.854,612.762 62.296,612.762 62.296,612.762C90.5,612.762 107.371,595.513 107.371,566.65L107.371,134.05C107.371,105.154 90.5,87.888 62.296,87.888C62.296,87.888 4.783,87.888 0,87.888C0,83.133 0,6.375 0,1.621C5.162,1.621 441.733,1.621 441.733,1.621C628.55,1.621 715.558,63.946 715.558,197.804C715.558,334.25 624.554,395.096 420.479,395.096L299.95,395.096L299.95,566.65C299.95,595.512 316.791,612.762 344.996,612.762L412.613,612.762L412.613,699.075ZM1168.78,699.075L742.975,699.075C742.975,694.321 742.975,617.546 742.975,612.762C747.696,612.762 798.85,612.762 798.85,612.762C827.492,612.762 843.954,595.925 843.954,566.65L843.954,134.05C843.954,105.154 827.088,87.888 798.85,87.888C798.85,87.888 746.658,87.888 741.904,87.888C741.904,83.133 741.904,6.375 741.904,1.621C747.038,1.621 1196.38,1.621 1196.38,1.621C1337.31,1.621 1418.11,60.329 1418.11,162.729C1418.11,245.512 1365.13,303.525 1268.91,326.096L1266.89,326.567L1266.13,328.821L1266.13,334.404L1274.23,336.892C1361.67,363.6 1452.14,391.221 1452.14,513.479C1452.14,647.041 1372.69,699.075 1168.78,699.075ZM3242.15,302.55L3243.73,300.271C3289.66,233.417 3338.3,207.404 3417.24,207.404C3520.82,207.404 3569.08,261.592 3569.08,377.825L3569.08,574.383C3569.08,600.237 3574.29,624.175 3611.66,624.175C3611.66,624.175 3639.38,624.175 3645.6,624.175C3645.6,630.733 3645.6,689.638 3645.6,696.196C3638.26,696.196 3360.06,696.196 3352.7,696.196L3352.7,624.175L3365.54,624.175C3402.92,624.175 3408.03,600.237 3408.03,574.383L3408.03,396.508C3408.03,342.492 3401.52,289.762 3323.14,289.762C3271.9,289.762 3240.2,338.208 3240.2,383.079L3240.2,574.383C3240.2,600.237 3245.4,624.175 3282.78,624.175C3282.78,624.175 3293.57,624.175 3298.59,624.175C3298.59,630.733 3298.59,689.638 3298.59,696.196C3291.25,696.196 3008.02,696.196 3000.58,696.196L3000.58,624.175L3036.66,624.175C3074.04,624.175 3079.15,600.237 3079.15,574.383L3079.15,344.767C3079.15,318.917 3074.04,294.93 3036.66,294.929L2999.56,294.929L2999.56,222.862L3231.93,222.862L3231.93,302.55L3242.15,302.55ZM1111.36,380.204L1037.58,380.204L1036.54,382.788L1036.54,612.762L1111.36,612.762C1175.89,612.762 1249.95,599.542 1249.95,496.479C1249.95,393.43 1175.89,380.204 1111.36,380.204ZM2103.3,394.237L2270.2,394.237L2270.2,362.013C2270.2,303.808 2238.4,267.683 2187.26,267.683C2135.56,267.683 2103.3,303.808 2103.3,362.013L2103.3,394.237ZM2650.13,394.237L2816.94,394.237L2816.94,362.013C2816.94,303.808 2785.14,267.683 2734,267.683C2682.21,267.683 2650.13,303.808 2650.13,362.013L2650.13,394.237ZM411.983,87.888L300.958,87.888L299.95,90.487L299.95,308.783L394.983,308.783C472.738,308.783 522.975,265.646 522.975,198.858C522.975,133.546 477.334,87.888 411.983,87.888ZM1098.61,87.888L1037.58,87.888L1036.54,90.487L1036.54,293.908L1098.61,293.908C1185.21,293.908 1225.5,261 1225.5,190.362C1225.5,119.492 1186.37,87.888 1098.61,87.888Z" style="fill:white;"/>
            </g>
        </g>
    </g>
</svg>
