<?xml version="1.0" encoding="UTF-8" standalone="no"?>
<!DOCTYPE svg PUBLIC "-//W3C//DTD SVG 1.1//EN" "http://www.w3.org/Graphics/SVG/1.1/DTD/svg11.dtd">
<svg width="100%" height="100%" viewBox="0 0 2088 1109" version="1.1" xmlns="http://www.w3.org/2000/svg" xmlns:xlink="http://www.w3.org/1999/xlink" xml:space="preserve" style="fill-rule:evenodd;clip-rule:evenodd;stroke-linejoin:round;stroke-miterlimit:1.41421;">
    <g transform="matrix(4.16667,0,0,4.16667,0,0)">
        <path d="M467.153,21.096C465.817,19.218 465.151,16.849 465.151,13.99C465.151,11.257 466.19,8.943 468.274,7.049C470.352,5.155 472.868,4.207 475.82,4.207C478.616,4.207 480.975,4.741 482.902,5.815C484.828,6.886 486.459,8.324 487.794,10.123C489.161,11.988 490.27,14.068 491.125,16.367C491.979,18.665 492.747,21.073 493.432,23.589L497.206,23.589L496.835,1.645L493.105,1.645L491.196,4.813C489.206,3.57 487.009,2.483 484.604,1.55C482.195,0.618 479.47,0.153 476.423,0.153C473.753,0.153 471.19,0.611 468.737,1.526C466.283,2.443 464.155,3.709 462.355,5.324C460.461,7.032 459.002,8.973 457.975,11.147C456.95,13.32 456.438,15.663 456.438,18.179C456.438,22.558 457.468,26.105 459.536,28.823C461.6,31.538 464.498,33.736 468.226,35.413C470.12,36.279 472.372,37.2 474.981,38.174C477.591,39.149 479.904,40.038 481.921,40.841C484.874,42.023 487.094,43.757 488.588,46.043C490.077,48.329 490.823,50.794 490.823,53.44C490.823,55.242 490.581,56.836 490.1,58.219C489.619,59.605 488.879,60.81 487.888,61.835C486.891,62.863 485.596,63.656 483.997,64.216C482.395,64.776 480.525,65.056 478.381,65.056C475.525,65.056 473.016,64.513 470.857,63.426C468.699,62.337 466.812,60.879 465.196,59.046C463.487,57.089 462.114,54.984 461.073,52.731C460.032,50.482 459.124,47.957 458.345,45.162L454.573,45.162L455.225,67.804L458.954,67.804L460.956,64.403C463.101,65.709 465.649,66.819 468.597,67.736C471.547,68.652 474.5,69.108 477.451,69.108C483.849,69.108 489.206,67.214 493.525,63.426C497.841,59.636 500.001,54.821 500.001,48.982C500.001,46.528 499.668,44.375 498.998,42.528C498.33,40.681 497.297,38.98 495.901,37.428C494.626,36.059 493.127,34.865 491.406,33.839C489.682,32.815 487.888,31.898 486.025,31.091C483.973,30.188 481.854,29.343 479.664,28.551C477.475,27.759 475.245,26.82 472.978,25.732C470.432,24.521 468.489,22.977 467.153,21.096ZM454.01,152.447C453.419,151.703 452.891,150.72 452.428,149.511L430.387,92.483L426.661,92.483C423.523,100.559 419.953,109.769 415.944,120.113C411.936,130.453 408.272,139.773 404.948,148.07C404.295,149.683 403.627,150.947 402.947,151.865C402.26,152.781 401.297,153.66 400.056,154.496C399.28,154.994 398.285,155.39 397.076,155.685C395.862,155.982 394.855,156.16 394.046,156.22L394.046,159.529L418.945,159.529L418.945,156.22C416.492,156.097 414.283,155.693 412.328,155.009C410.372,154.328 409.393,153.365 409.393,152.121C409.393,151.592 409.469,150.91 409.625,150.072C409.782,149.232 410.061,148.146 410.466,146.81C410.902,145.443 411.39,143.953 411.936,142.336C412.481,140.722 413.188,138.828 414.059,136.652L437.266,136.652L442.744,151.468C442.868,151.779 442.961,152.138 443.024,152.541C443.083,152.945 443.115,153.287 443.115,153.566C443.115,154.25 442.315,154.824 440.716,155.291C439.118,155.755 437.105,156.064 434.682,156.22L434.682,159.529L462.164,159.529L462.164,156.22C461.388,156.191 460.422,156.027 459.274,155.732C458.125,155.435 457.196,155.072 456.48,154.634C455.422,153.923 454.598,153.193 454.01,152.447ZM435.565,132.505L415.68,132.505L425.549,106.849L435.565,132.505ZM417.413,67.759L446.623,67.759L446.623,64.45C445.788,64.418 444.651,64.271 443.22,64.007C441.794,63.743 440.799,63.457 440.242,63.145C439.185,62.587 438.469,61.935 438.096,61.19C437.725,60.443 437.539,59.526 437.539,58.44L437.539,10.776C437.539,9.752 437.725,8.804 438.096,7.935C438.469,7.065 439.185,6.443 440.242,6.069C440.862,5.853 441.847,5.62 443.2,5.372C444.553,5.122 445.66,4.983 446.53,4.951L446.53,1.645L424.971,1.645C424.94,2.203 424.714,3.317 424.295,4.978C423.875,6.639 423.372,8.233 422.782,9.756L406.616,51.27L387.676,1.645L365.135,1.645L365.135,4.951C366.5,5.014 367.884,5.247 369.281,5.651C370.68,6.054 371.86,6.677 372.823,7.514C373.693,8.292 374.361,9.301 374.825,10.544C375.291,11.785 375.526,13.386 375.526,15.343L375.526,49.167C375.526,53.393 375.324,56.405 374.918,58.207C374.515,60.007 373.769,61.347 372.682,62.215C371.844,62.896 370.655,63.41 369.119,63.75C367.581,64.092 366.111,64.327 364.715,64.45L364.715,67.759L391.414,67.759L391.414,64.45C390.76,64.418 389.362,64.109 387.218,63.52C385.078,62.929 383.664,62.306 382.98,61.655C381.985,60.785 381.248,59.356 380.766,57.369C380.283,55.381 380.043,52.476 380.043,48.655L380.043,9.192L380.649,9.192L402.126,66.687L404.459,66.687L427.008,10.357L427.707,10.357L427.707,58.44C427.707,59.589 427.482,60.544 427.033,61.306C426.58,62.067 425.874,62.741 424.913,63.332C424.29,63.674 423.15,63.936 421.487,64.123C419.825,64.309 418.465,64.418 417.413,64.45L417.413,67.759ZM331.463,67.759L358.944,67.759L358.944,64.45C358.167,64.418 357.202,64.256 356.057,63.961C354.906,63.666 353.973,63.301 353.261,62.867C352.203,62.151 351.381,61.421 350.79,60.676C350.201,59.931 349.672,58.951 349.205,57.74L327.168,0.712L323.44,0.712C320.303,8.788 316.731,17.997 312.725,28.341C308.717,38.685 305.053,48.004 301.729,56.296C301.076,57.912 300.408,59.178 299.726,60.093C299.041,61.011 298.078,61.887 296.837,62.727C296.061,63.223 295.066,63.618 293.857,63.913C292.643,64.211 291.635,64.388 290.827,64.45L290.827,67.759L315.726,67.759L315.726,64.45C313.269,64.327 311.064,63.923 309.107,63.238C307.151,62.556 306.172,61.592 306.172,60.35C306.172,59.821 306.25,59.137 306.407,58.301C306.562,57.46 306.842,56.374 307.247,55.038C307.683,53.67 308.173,52.181 308.715,50.567C309.261,48.95 309.968,47.056 310.838,44.882L334.046,44.882L339.525,59.696C339.649,60.007 339.739,60.366 339.803,60.77C339.864,61.174 339.896,61.514 339.896,61.794C339.896,62.478 339.094,63.053 337.495,63.52C335.898,63.983 333.885,64.294 331.463,64.45L331.463,67.759ZM332.344,40.735L312.46,40.735L322.329,15.078L332.344,40.735ZM298.155,101.243C295.327,98.261 291.973,95.946 288.09,94.302C284.206,92.654 280.077,91.832 275.697,91.832C271.474,91.832 267.425,92.641 263.559,94.255C259.691,95.868 256.298,98.198 253.378,101.243C250.428,104.318 248.113,107.96 246.436,112.167C244.76,116.38 243.919,121.17 243.919,126.543C243.919,131.451 244.72,136.054 246.322,140.357C247.921,144.658 250.118,148.316 252.913,151.33C255.706,154.404 259.056,156.804 262.952,158.527C266.852,160.252 271.099,161.113 275.697,161.113C280.014,161.113 284.084,160.306 287.903,158.689C291.724,157.076 295.079,154.777 297.966,151.795C300.951,148.781 303.28,145.133 304.955,140.845C306.633,136.558 307.473,131.793 307.473,126.543C307.473,121.324 306.649,116.564 305.002,112.259C303.356,107.96 301.073,104.288 298.155,101.243ZM296.198,126.543C296.198,130.953 295.803,134.945 295.009,138.517C294.218,142.088 292.952,145.289 291.211,148.115C289.534,150.91 287.36,153.086 284.688,154.634C282.016,156.191 279.02,156.967 275.697,156.967C272.156,156.967 269.11,156.197 266.564,154.66C264.017,153.121 261.905,150.988 260.228,148.252C258.489,145.461 257.215,142.259 256.407,138.654C255.601,135.052 255.196,131.015 255.196,126.543C255.196,122.506 255.575,118.652 256.338,114.989C257.097,111.319 258.252,108.123 259.808,105.389C261.453,102.533 263.581,100.249 266.193,98.54C268.801,96.835 271.969,95.977 275.697,95.977C279.02,95.977 281.97,96.716 284.549,98.192C287.127,99.666 289.269,101.724 290.98,104.366C292.685,107.038 293.982,110.265 294.87,114.056C295.754,117.847 296.198,122.007 296.198,126.543ZM253.989,67.759L283.76,67.759L283.76,64.45C282.737,64.418 281.485,64.256 280.01,63.961C278.536,63.666 277.47,63.395 276.82,63.145C275.731,62.679 274.963,62.051 274.512,61.257C274.063,60.466 273.837,59.558 273.837,58.533L273.837,10.683C273.837,9.656 274.04,8.726 274.441,7.888C274.846,7.049 275.637,6.443 276.82,6.069C277.813,5.761 278.978,5.504 280.312,5.302C281.65,5.099 282.797,4.983 283.76,4.951L283.76,1.645L253.989,1.645L253.989,4.951C254.889,5.014 256.047,5.208 257.462,5.535C258.872,5.86 260.045,6.211 260.979,6.583C262.252,7.08 263.059,7.693 263.402,8.424C263.742,9.153 263.913,10.062 263.913,11.149L263.913,59.046C263.913,60.288 263.68,61.257 263.215,61.957C262.749,62.655 262.001,63.209 260.979,63.61C260.324,63.861 259.207,64.045 257.622,64.171C256.04,64.294 254.828,64.388 253.989,64.45L253.989,67.759ZM247.24,67.759L248.638,48.096L245.328,48.096C244.676,49.899 243.504,52.25 241.811,55.154C240.118,58.06 238.635,60.226 237.362,61.655C236.926,62.151 236.249,62.563 235.335,62.889C234.418,63.216 233.416,63.473 232.329,63.658C231.212,63.845 230.031,63.968 228.789,64.03C227.547,64.092 226.35,64.123 225.202,64.123C222.654,64.123 220.674,64.039 219.26,63.868C217.847,63.696 216.782,63.332 216.069,62.774C215.324,62.151 214.85,61.276 214.65,60.139C214.447,59.008 214.346,57.414 214.346,55.365L214.346,10.962C214.346,9.938 214.539,8.975 214.93,8.074C215.318,7.172 216.038,6.537 217.093,6.164C217.715,5.947 218.717,5.696 220.101,5.419C221.481,5.137 222.608,4.983 223.478,4.951L223.478,1.645L195.57,1.645L195.57,4.951C196.408,5.014 197.47,5.225 198.76,5.582C200.049,5.94 201.051,6.303 201.766,6.677C202.821,7.172 203.528,7.825 203.885,8.632C204.243,9.441 204.421,10.372 204.421,11.427L204.421,58.766C204.421,59.977 204.211,60.973 203.794,61.747C203.373,62.525 202.698,63.114 201.766,63.52C201.206,63.766 200.22,63.968 198.808,64.123C197.392,64.28 196.314,64.388 195.57,64.45L195.57,67.759L247.24,67.759ZM229.321,143.818L192.157,93.415L173.268,93.415L173.268,96.725C174.447,96.787 175.994,97.181 177.904,97.911C179.814,98.643 181.328,99.521 182.448,100.545C183.284,101.321 183.952,102.423 184.45,103.85C184.947,105.279 185.197,106.711 185.197,108.136L185.197,140.707C185.197,145.023 184.995,148.076 184.59,149.859C184.187,151.648 183.441,152.976 182.354,153.843C181.857,154.279 180.612,154.767 178.627,155.312C176.638,155.855 175.226,156.16 174.387,156.22L174.387,159.529L201.503,159.529L201.503,156.22C200.789,156.191 199.313,155.883 197.076,155.291C194.84,154.699 193.365,154.06 192.652,153.377C191.657,152.509 190.919,151.048 190.438,148.998C189.954,146.949 189.715,144.013 189.715,140.193L189.715,106.087L229.784,160.181L233.838,160.181L233.838,111.773C233.838,108.387 234.032,105.59 234.42,103.385C234.809,101.181 235.563,99.691 236.68,98.913C237.455,98.415 238.745,97.934 240.547,97.467C242.348,97.005 243.684,96.755 244.555,96.725L244.555,93.415L217.669,93.415L217.669,96.725C218.697,96.787 220.194,97.096 222.167,97.655C224.139,98.215 225.562,98.788 226.431,99.378C227.361,100.062 228.075,101.436 228.573,103.501C229.07,105.566 229.321,108.524 229.321,112.372L229.321,143.818ZM188.413,67.759L189.809,48.096L186.502,48.096C185.851,49.899 184.675,52.25 182.983,55.154C181.29,58.06 179.807,60.226 178.532,61.655C178.096,62.151 177.422,62.563 176.508,62.889C175.59,63.216 174.588,63.473 173.502,63.658C172.383,63.845 171.202,63.968 169.962,64.03C168.719,64.092 167.522,64.123 166.372,64.123C163.826,64.123 161.846,64.039 160.434,63.868C159.021,63.696 157.954,63.332 157.24,62.774C156.496,62.151 156.022,61.276 155.82,60.139C155.618,59.008 155.517,57.414 155.517,55.365L155.517,10.962C155.517,9.938 155.711,8.975 156.1,8.074C156.488,7.172 157.212,6.537 158.265,6.164C158.887,5.947 159.889,5.696 161.273,5.419C162.652,5.137 163.778,4.983 164.652,4.951L164.652,1.645L136.741,1.645L136.741,4.951C137.579,5.014 138.642,5.225 139.932,5.582C141.221,5.94 142.221,6.303 142.937,6.677C143.994,7.172 144.699,7.825 145.058,8.632C145.415,9.441 145.593,10.372 145.593,11.427L145.593,58.766C145.593,59.977 145.383,60.973 144.964,61.747C144.545,62.525 143.869,63.114 142.937,63.52C142.379,63.766 141.392,63.968 139.978,64.123C138.565,64.28 137.486,64.388 136.741,64.45L136.741,67.759L188.413,67.759ZM141.894,91.832C137.67,91.832 133.625,92.641 129.757,94.255C125.891,95.868 122.498,98.198 119.577,101.243C116.627,104.318 114.313,107.96 112.634,112.167C110.959,116.38 110.12,121.17 110.12,126.543C110.12,131.451 110.92,136.054 112.521,140.357C114.119,144.658 116.315,148.316 119.111,151.33C121.908,154.404 125.253,156.804 129.151,158.527C133.051,160.252 137.298,161.113 141.894,161.113C146.214,161.113 150.281,160.306 154.103,158.689C157.924,157.076 161.277,154.777 164.166,151.795C167.149,148.781 169.479,145.133 171.153,140.845C172.832,136.558 173.67,131.793 173.67,126.543C173.67,121.324 172.847,116.564 171.201,112.259C169.555,107.96 167.273,104.288 164.352,101.243C161.526,98.261 158.172,95.946 154.289,94.302C150.406,92.654 146.275,91.832 141.894,91.832ZM132.391,98.54C135,96.835 138.167,95.977 141.894,95.977C145.219,95.977 148.17,96.716 150.747,98.192C153.326,99.666 155.469,101.724 157.178,104.366C158.885,107.038 160.184,110.265 161.069,114.056C161.952,117.847 162.397,122.007 162.397,126.543C162.397,130.953 162,134.945 161.206,138.517C160.416,142.088 159.15,145.289 157.41,148.115C155.732,150.91 153.559,153.086 150.887,154.634C148.214,156.191 145.219,156.967 141.894,156.967C138.354,156.967 135.311,156.197 132.764,154.66C130.216,153.121 128.104,150.988 126.428,148.252C124.687,145.461 123.414,142.259 122.605,138.654C121.798,135.052 121.397,131.015 121.397,126.543C121.397,122.506 121.776,118.652 122.537,114.989C123.297,111.319 124.453,108.123 126.008,105.389C127.654,102.533 129.78,100.249 132.391,98.54ZM98.865,67.759L128.639,67.759L128.639,64.45C127.611,64.418 126.363,64.256 124.887,63.961C123.412,63.666 122.348,63.395 121.696,63.145C120.61,62.679 119.84,62.051 119.391,61.257C118.94,60.466 118.714,59.558 118.714,58.533L118.714,10.683C118.714,9.656 118.916,8.726 119.321,7.888C119.721,7.049 120.515,6.443 121.696,6.069C122.688,5.761 123.857,5.504 125.189,5.302C126.525,5.099 127.674,4.983 128.639,4.951L128.639,1.645L98.865,1.645L98.865,4.951C99.767,5.014 100.924,5.208 102.338,5.535C103.75,5.86 104.924,6.211 105.856,6.583C107.127,7.08 107.935,7.693 108.277,8.424C108.619,9.153 108.791,10.062 108.791,11.149L108.791,59.046C108.791,60.288 108.557,61.257 108.092,61.957C107.624,62.655 106.882,63.209 105.856,63.61C105.203,63.861 104.084,64.045 102.499,64.171C100.915,64.294 99.705,64.388 98.865,64.45L98.865,67.759ZM100.546,93.415L96.819,93.415L94.906,96.584C92.92,95.34 90.722,94.255 88.314,93.322C85.907,92.39 83.182,91.925 80.137,91.925C77.465,91.925 74.904,92.385 72.451,93.298C69.998,94.214 67.87,95.479 66.069,97.096C64.173,98.802 62.714,100.744 61.688,102.918C60.664,105.091 60.15,107.434 60.15,109.95C60.15,114.325 61.183,117.874 63.25,120.593C65.313,123.308 68.211,125.507 71.938,127.183C73.834,128.049 76.086,128.974 78.695,129.945C81.302,130.92 83.617,131.81 85.636,132.611C88.588,133.793 90.808,135.527 92.298,137.816C93.791,140.101 94.534,142.564 94.534,145.209C94.534,147.013 94.295,148.607 93.813,149.992C93.333,151.375 92.592,152.582 91.6,153.607C90.605,154.634 89.31,155.427 87.711,155.988C86.109,156.547 84.237,156.828 82.094,156.828C79.237,156.828 76.73,156.283 74.572,155.197C72.412,154.109 70.525,152.65 68.909,150.818C67.2,148.857 65.827,146.755 64.787,144.502C63.746,142.25 62.838,139.728 62.059,136.931L58.287,136.931L58.94,159.576L62.667,159.576L64.669,156.177C66.813,157.478 69.358,158.589 72.311,159.505C75.261,160.42 78.214,160.88 81.164,160.88C87.562,160.88 92.92,158.986 97.239,155.197C101.555,151.408 103.715,146.592 103.715,140.752C103.715,138.301 103.382,136.148 102.713,134.297C102.045,132.453 101.012,130.75 99.615,129.199C98.339,127.832 96.841,126.636 95.119,125.609C93.392,124.586 91.6,123.668 89.735,122.859C87.687,121.961 85.564,121.115 83.376,120.322C81.187,119.531 78.96,118.591 76.691,117.503C74.144,116.292 72.203,114.747 70.867,112.866C69.531,110.988 68.861,108.62 68.861,105.759C68.861,103.028 69.904,100.714 71.984,98.82C74.064,96.927 76.581,95.977 79.533,95.977C82.327,95.977 84.688,96.513 86.616,97.584C88.54,98.656 90.172,100.094 91.507,101.894C92.872,103.758 93.984,105.839 94.837,108.136C95.693,110.435 96.461,112.843 97.142,115.363L100.917,115.363L100.546,93.415ZM91.971,5.488C92.998,5.162 93.898,4.983 94.673,4.951L94.673,1.645L70.696,1.645L70.696,4.951C73.923,5.2 76.261,5.682 77.708,6.396C79.151,7.11 79.873,7.997 79.873,9.053C79.873,9.797 79.778,10.707 79.593,11.778C79.405,12.85 78.942,14.834 78.193,17.727C77.133,21.834 75.793,26.772 74.172,32.544C72.552,38.315 70.621,45.06 68.377,52.775L51.727,2.575L47.167,2.575L30.667,51.727C27.098,39.149 24.406,29.707 22.589,23.401C20.776,17.098 19.511,12.577 18.798,9.846C18.734,9.535 18.656,9.122 18.563,8.61C18.47,8.097 18.425,7.686 18.425,7.375C18.425,6.568 19.256,5.993 20.918,5.651C22.576,5.309 24.59,5.077 26.949,4.951L26.949,1.645L0,1.645L0,4.951C0.837,5.014 1.777,5.178 2.818,5.442C3.859,5.705 4.767,6.101 5.544,6.629C6.476,7.252 7.214,7.935 7.758,8.679C8.3,9.426 8.712,10.28 8.993,11.241C10.111,15.217 12.316,23.053 15.608,34.747C18.9,46.443 22.085,57.726 25.16,68.598L29.273,68.598L46.625,17.676L63.314,68.598L67.605,68.598C70.991,57.757 74.141,47.544 77.062,37.962C79.982,28.381 82.544,20.002 84.75,12.825C85.248,11.241 85.829,10.007 86.497,9.122C87.166,8.236 88.044,7.451 89.131,6.77C90,6.242 90.948,5.815 91.971,5.488ZM358.429,184.494L142.363,184.494L142.363,186.626L358.429,186.626L358.429,184.494ZM146.474,211.797L142.363,211.797L142.363,263.981L146.474,263.981L146.474,237.891L176.755,237.891L176.755,264.132L180.866,264.132L180.866,211.723L176.755,211.723L176.755,233.779L146.474,233.779L146.474,211.797ZM202.921,219.35C196.941,226.001 196.043,233.406 195.891,236.622C195.594,244.394 198.81,252.32 204.417,257.556C211.519,264.132 219.893,264.957 223.18,264.957C226.919,264.957 236.264,264.058 243.366,255.984C249.649,248.956 250.469,241.03 250.469,237.665C250.469,230.042 247.031,222.415 241.497,217.405C236.489,212.917 229.908,210.528 223.257,210.528C219.593,210.528 210.097,211.349 202.921,219.35ZM199.93,236.844C200.228,230.267 203.52,223.834 208.678,219.723C212.713,216.436 217.946,214.64 223.18,214.566C229.611,214.64 236.116,217.479 240.528,222.341C245.685,228.097 246.357,234.974 246.357,237.743C246.357,244.693 243.144,251.348 237.687,255.685C231.93,260.321 225.797,260.842 223.032,260.842C216.229,260.842 209.276,257.556 204.94,252.021C201.576,247.836 199.707,242.227 199.93,236.844ZM267.592,209.856L260.638,263.981L265.047,263.981L270.058,222.566L289.272,266L290.246,266C292.786,260.47 295.326,254.938 297.794,249.403C299.664,245.218 301.533,241.107 303.402,236.918C304.6,234.378 305.946,231.835 307.068,229.217C308.037,227.051 308.937,224.807 309.757,222.489L314.543,263.981L319.102,263.981L312.449,209.708L311.103,209.708L289.871,257.104C287.327,251.499 284.712,245.891 282.244,240.209C279.702,234.678 277.384,229.069 274.92,223.538C273.722,220.844 272.375,218.229 271.18,215.535C270.358,213.667 269.685,211.797 269.01,209.93L267.592,209.856ZM358.054,211.723L333.532,211.723L333.532,264.058L358.429,264.058L358.429,260.095L337.644,260.095L337.644,237.743L358.054,237.743L358.054,233.927L337.72,233.927L337.72,215.464L358.054,215.464L358.054,211.723ZM364.674,155.896C363.011,156.08 361.654,156.191 360.595,156.22L360.595,159.529L389.809,159.529L389.809,156.22C388.972,156.191 387.837,156.043 386.409,155.779C384.979,155.515 383.986,155.228 383.426,154.916C382.372,154.357 381.656,153.703 381.283,152.961C380.912,152.214 380.722,151.297 380.722,150.211L380.722,102.549C380.722,101.522 380.912,100.575 381.283,99.705C381.656,98.836 382.372,98.215 383.426,97.84C384.046,97.623 385.034,97.393 386.386,97.14C387.736,96.895 388.846,96.755 389.717,96.725L389.717,93.415L368.157,93.415C368.124,93.975 367.901,95.085 367.481,96.748C367.062,98.412 366.56,100.004 365.968,101.526L349.8,143.041L330.863,93.415L308.322,93.415L308.322,96.725C309.687,96.787 311.071,97.02 312.467,97.422C313.866,97.825 315.046,98.445 316.009,99.286C316.877,100.062 317.545,101.072 318.013,102.312C318.478,103.555 318.711,105.156 318.711,107.112L318.711,140.937C318.711,145.164 318.508,148.177 318.106,149.978C317.702,151.779 316.955,153.115 315.869,153.982C315.029,154.668 313.842,155.181 312.306,155.523C310.765,155.865 309.298,156.097 307.902,156.22L307.902,159.529L334.598,159.529L334.598,156.22C333.947,156.191 332.548,155.883 330.405,155.291C328.262,154.699 326.85,154.078 326.164,153.426C325.169,152.556 324.434,151.127 323.952,149.138C323.471,147.152 323.232,144.248 323.232,140.427L323.232,100.962L323.836,100.962L345.315,158.459L347.642,158.459L370.195,102.128L370.893,102.128L370.893,150.211C370.893,151.359 370.668,152.314 370.217,153.076C369.766,153.838 369.061,154.513 368.099,155.103C367.477,155.445 366.336,155.709 364.674,155.896Z" style="fill:white;fill-rule:nonzero;"/>
    </g>
</svg>
