<?xml version="1.0" encoding="UTF-8" standalone="no"?>
<!DOCTYPE svg PUBLIC "-//W3C//DTD SVG 1.1//EN" "http://www.w3.org/Graphics/SVG/1.1/DTD/svg11.dtd">
<svg width="100%" height="100%" viewBox="0 0 1102 152" version="1.1" xmlns="http://www.w3.org/2000/svg" xmlns:xlink="http://www.w3.org/1999/xlink" xml:space="preserve" style="fill-rule:evenodd;clip-rule:evenodd;stroke-linejoin:round;stroke-miterlimit:1.41421;">
    <g transform="matrix(1,0,0,1,-0.000108759,-2.80833)">
        <g transform="matrix(4.16667,0,0,4.16667,0,0)">
            <g transform="matrix(0.24,0,0,0.24,0,0)">
                <path d="M15.6,153.721C10.013,153.721 5.362,153.867 1.013,154.167C-0.108,153.721 -0.408,151.054 0.675,150.304L3.937,149.817C9.713,149.033 9.863,147.492 9.863,136.279L9.863,69.421C9.863,63.346 9.863,62.554 5.662,59.742L4.275,58.842C3.638,58.204 3.638,56.483 4.425,56.029C8.475,54.308 15.788,50.596 19.8,47.633C20.738,47.633 21.375,47.929 21.675,48.717C21.375,51.533 21.075,53.854 21.075,55.883C21.075,56.967 21.375,57.904 22.462,57.904C24.487,56.967 34.275,50.596 44.25,50.596C59.962,50.596 70.05,63.346 70.05,79.058C70.05,100.654 54.188,116.221 32.1,116.221C29.287,116.221 24.938,115.917 23.55,115.617C22.162,115.917 21.375,116.704 21.375,119.971L21.375,136.279C21.375,147.342 21.675,148.729 27.3,149.517L33.338,150.304C34.425,151.054 34.125,153.721 33.037,154.167C25.575,153.867 21.075,153.721 15.6,153.721ZM403.688,146.104C403.688,141.908 406.5,139.879 409.912,139.879L412.875,139.879C415.35,139.879 416.929,138.792 418.012,137.067C422.512,130.054 425.625,123.529 427.013,119.817C427.504,118.546 428.588,115.283 428.588,113.104C428.588,109.992 427.95,108.154 425.929,102.379L413.813,69.083C411.15,61.767 410.063,58.058 404.625,56.967L400.725,56.179C399.787,55.392 399.938,52.767 401.213,52.279C406.162,52.617 410.85,52.767 415.987,52.767C420.188,52.767 424.542,52.617 429.525,52.279C430.763,52.767 430.912,55.392 429.829,56.179L425.929,56.967C423.754,57.417 422.512,57.904 422.512,58.996C422.512,60.867 426.075,70.954 427.013,73.617L432.004,87.908C432.937,90.421 435.904,98.629 436.5,98.967C436.987,98.629 439.463,93.829 442.275,87.454L447.567,75.158C450.975,67.054 453,61.317 453,59.592C453,58.504 452.067,57.417 449.25,56.967L444.45,56.179C443.362,55.392 443.513,52.767 444.75,52.279C449.742,52.617 454.388,52.767 458.438,52.767C462.337,52.767 465.9,52.617 470.25,52.279C471.529,52.921 471.679,55.242 470.588,56.179L467.925,56.671C462.788,57.567 460.012,62.104 454.725,73.129L445.992,91.017C440.85,101.442 428.104,128.517 420.487,145.471C417.825,151.392 414.113,152.779 410.513,152.779C406.013,152.779 403.688,149.971 403.688,146.104ZM1036.49,23.033C1036.49,16.187 1036.8,8.413 1036.96,3.742C1036.65,3.121 1036.03,2.808 1035.4,2.808C1029.8,5.767 1022.49,8.1 1018.6,9.342C1017.83,9.808 1017.83,11.987 1018.6,12.454L1020.15,13.388C1024.83,16.187 1024.98,17.121 1024.98,26.3L1024.98,49.787C1024.98,51.029 1024.83,51.967 1024.05,51.967C1022.34,51.342 1018.91,50.563 1013.62,50.563C992.471,50.563 975.983,64.567 975.983,86.342C975.983,102.675 987.492,116.208 1004.76,116.208C1012.23,116.208 1017.51,113.721 1024.36,109.05L1024.98,109.05C1025.29,109.675 1025.29,111.542 1025.29,113.875L1025.29,116.517C1025.29,117.296 1026.07,117.762 1027,117.762C1031.36,116.05 1041,113.721 1047.54,112.783C1048.93,112.008 1048.78,108.121 1047.69,107.808C1045.36,108.583 1042.71,109.362 1041,109.362C1036.65,109.362 1036.49,103.608 1036.49,91.321L1036.49,23.033ZM634.2,111.417C633.6,110.483 632.663,109.242 631.725,109.242C630.642,109.242 628.767,110.629 625.65,112.354C622.238,114.192 618.829,116.221 614.479,116.221C609.937,116.221 606.229,114.979 603.562,112.658C600.6,109.992 598.767,106.129 598.767,101.742C598.767,95.704 601.687,92.104 611.662,88.546L630.192,81.833C632.512,81.079 632.663,79.658 632.813,77.333L632.967,70.167C633.113,64.429 631.275,56.671 621.6,56.671C617.254,56.671 611.967,58.842 611.662,63.642C611.513,66.154 611.367,67.992 610.088,68.929C607.763,70.808 603.562,71.892 601.237,71.892C599.85,71.892 599.062,71.104 599.062,69.717C599.062,61.621 616.654,50.596 627.975,50.596C639.187,50.596 644.625,57.117 644.179,68.779L643.237,95.854C642.937,103.021 644.325,109.392 650.4,109.392C651.937,109.392 653.367,108.904 654.304,108.454C655.05,107.971 655.838,107.367 656.288,107.367C656.929,107.367 657.379,108.308 657.379,109.392C657.379,110.146 651.937,116.221 644.325,116.221C640.575,116.221 636.863,114.833 634.2,111.417ZM87.187,84.192C87.187,64.579 101.963,50.596 120.3,50.596C137.737,50.596 151.875,63.642 151.875,82.767C151.875,102.233 138.487,116.221 119.063,116.221C101.175,116.221 87.187,103.621 87.187,84.192ZM532.65,114.192C529.388,113.258 527.363,112.167 526.088,112.167C524.85,112.167 523.612,113.446 522.829,114.529L522.225,114.679C521.587,114.679 520.992,114.342 520.654,113.742C520.804,111.567 520.992,108.604 520.992,100.508L520.992,26.329C520.992,17.142 520.804,16.208 516.15,13.392L514.613,12.454C513.825,12.004 513.825,9.829 514.613,9.346C518.179,7.958 525.642,5.929 531.567,2.817C532.163,2.817 532.804,3.154 533.104,3.754C532.804,9.196 532.5,16.208 532.5,23.071L532.5,52.467C532.5,55.096 533.104,55.729 534.038,55.729C538.092,53.371 544.308,50.596 551.925,50.596C569.662,50.596 581.625,63.942 581.625,81.079C581.625,101.742 566.7,116.221 545.85,116.221C540.112,116.221 535.758,115.283 532.65,114.192ZM177.225,99.417L177.225,63.792C177.225,59.592 177.075,59.292 173.962,59.292L169.613,59.292C168.675,58.658 168.525,56.967 169.162,56.029C173.663,54.642 177.563,52.617 179.1,51.196C181.125,49.354 184.087,45.154 185.625,42.042C186.412,41.704 188.287,41.704 188.888,42.792L188.888,49.808C188.888,52.617 189.037,52.767 191.7,52.767L208.95,52.767C210.825,54.154 210.525,58.354 209.138,59.292L191.55,59.292C188.888,59.292 188.738,59.742 188.738,63.042L188.738,92.104C188.738,101.142 189.825,109.392 200.1,109.392C201.638,109.392 203.063,109.054 204.3,108.604C205.688,108.154 207.713,106.429 208.2,106.429C209.437,106.429 210.038,108.154 209.738,109.054C206.963,112.354 201.337,116.221 193.425,116.221C180.037,116.221 177.225,108.758 177.225,99.417ZM231.225,99.417L231.225,63.792C231.225,59.592 231.038,59.292 227.925,59.292L223.575,59.292C222.637,58.658 222.487,56.967 223.125,56.029C227.625,54.642 231.525,52.617 233.063,51.196C235.088,49.354 238.05,45.154 239.625,42.042C240.375,41.704 242.25,41.704 242.887,42.792L242.887,49.808C242.887,52.617 243.037,52.767 245.662,52.767L262.95,52.767C264.825,54.154 264.488,58.354 263.1,59.292L245.513,59.292C242.887,59.292 242.737,59.742 242.737,63.042L242.737,92.104C242.737,101.142 243.825,109.392 254.062,109.392C255.638,109.392 257.025,109.054 258.263,108.604C259.688,108.154 261.713,106.429 262.162,106.429C263.4,106.429 264.037,108.154 263.738,109.054C260.925,112.354 255.337,116.221 247.388,116.221C234,116.221 231.225,108.758 231.225,99.417ZM283.462,105.942C278.813,99.904 276.937,92.596 276.937,85.733C276.937,66.604 289.537,50.596 308.213,50.596C321.6,50.596 330.3,59.742 330.3,69.083C330.3,71.258 330,72.529 329.663,73.129C329.213,74.067 327.037,74.221 320.512,74.221L291.713,74.221C287.663,74.221 287.512,74.554 287.512,78.417C287.512,94.129 296.7,107.517 313.35,107.517C318.487,107.517 322.838,105.942 327.638,99.904C329.213,99.417 330.3,100.354 330.45,101.742C325.312,112.354 314.1,116.221 306.037,116.221C295.912,116.221 288,111.871 283.462,105.942ZM1084.87,50.563C1073.05,50.563 1063.71,56.942 1063.71,68.3C1063.71,76.854 1070.09,82.296 1079.11,87.429C1084.87,90.696 1091.09,94.588 1091.09,101.742C1091.09,108.429 1086.27,111.696 1080.66,111.696C1071.8,111.696 1066.83,104.229 1064.18,95.675C1063.4,94.742 1061.38,94.896 1060.6,95.829C1060.29,100.962 1061.22,108.583 1062.47,111.542C1066.35,114.654 1071.8,116.208 1079.11,116.208C1090.62,116.208 1101.51,110.296 1101.51,98.475C1101.51,87.429 1093.89,82.142 1085.64,77.475C1080.2,74.363 1073.67,70.942 1073.67,64.567C1073.67,58.962 1077.55,55.075 1083.62,55.075C1090,55.075 1094.67,59.588 1097.31,66.429C1098.09,67.362 1100.42,67.054 1101.04,65.962C1101.04,61.762 1099.95,56.787 1098.56,53.367C1097.15,52.121 1091.4,50.563 1084.87,50.563ZM683.363,114.046C677.779,114.046 673.092,114.192 669.079,114.529C667.988,114.046 667.65,111.417 668.742,110.629L671.7,110.146C677.475,109.242 677.625,107.817 677.625,96.642L677.625,69.421C677.625,63.346 677.625,62.554 673.429,59.742L672,58.842C671.4,58.204 671.4,56.483 672.192,56.029C675.75,54.792 684.004,50.742 687.863,48.421C688.65,48.567 689.142,48.867 689.142,49.504L689.142,58.504C689.142,59.292 689.288,59.742 689.588,59.929C695.025,55.392 700.954,50.596 706.687,50.596C710.592,50.596 713.704,53.067 713.704,56.817C713.704,61.958 709.5,63.942 707.029,63.942C705.45,63.942 704.667,63.492 703.575,62.854C701.25,61.317 698.929,60.379 696.75,60.379C694.275,60.379 692.4,61.767 691.162,63.492C689.588,65.667 689.142,70.167 689.142,75.454L689.142,96.642C689.142,107.817 689.437,109.696 695.362,110.146L700.954,110.629C702.037,111.417 701.738,114.046 700.65,114.529C693.338,114.192 688.804,114.046 683.363,114.046ZM783.079,114.046C777.488,114.046 772.8,114.192 768.6,114.529C767.517,114.046 767.212,111.417 768.3,110.629L771.267,110.146C777,109.242 777.154,107.817 777.154,96.642L777.154,73.429C777.154,64.579 773.137,58.058 762.525,58.058C756.638,58.058 751.504,60.529 749.325,63.492C747.304,66.154 747,68.329 747,72.833L747,96.642C747,107.817 747.304,109.242 752.887,110.146L755.704,110.629C756.787,111.417 756.492,114.046 755.4,114.529C751.204,114.192 746.667,114.046 741.225,114.046C735.637,114.046 730.95,114.192 726.6,114.529C725.517,114.046 725.212,111.417 726.304,110.629L729.563,110.146C735.342,109.392 735.487,107.817 735.487,96.642L735.487,69.421C735.487,63.346 735.487,62.554 731.288,59.742L729.863,58.842C729.267,58.204 729.267,56.483 730.05,56.029C733.613,54.792 742.467,50.742 745.579,48.421C746.213,48.421 747,48.717 747.304,49.504C747,53.067 747,55.392 747,56.817C747,57.754 747.6,58.504 748.687,58.504C755.25,54.454 762.525,50.596 770.479,50.596C783.375,50.596 788.663,59.446 788.663,69.867L788.663,96.642C788.663,107.817 789.004,109.392 794.592,110.146L798.004,110.629C799.088,111.417 798.787,114.046 797.704,114.529C793.054,114.192 788.517,114.046 783.079,114.046ZM360.3,114.046C354.712,114.046 350.062,114.192 346.012,114.529C344.925,114.046 344.625,111.417 345.713,110.629L348.637,110.146C354.412,109.242 354.563,107.817 354.563,96.642L354.563,69.421C354.563,63.346 354.563,62.554 350.362,59.742L348.975,58.842C348.337,58.204 348.337,56.483 349.125,56.029C352.687,54.792 360.938,50.742 364.837,48.421C365.587,48.567 366.075,48.867 366.075,49.504L366.075,58.504C366.075,59.292 366.225,59.742 366.525,59.929C372,55.392 377.888,50.596 383.663,50.596C387.525,50.596 390.637,53.067 390.637,56.817C390.637,61.958 386.438,63.942 383.963,63.942C382.388,63.942 381.638,63.492 380.55,62.854C378.187,61.317 375.863,60.379 373.687,60.379C371.213,60.379 369.337,61.767 368.1,63.492C366.525,65.667 366.075,70.167 366.075,75.454L366.075,96.642C366.075,107.817 366.375,109.696 372.3,110.146L377.888,110.629C378.975,111.417 378.675,114.046 377.588,114.529C370.275,114.192 365.775,114.046 360.3,114.046ZM889.963,52.742C896.805,52.742 905.984,52.429 914.696,51.496C915.783,51.967 915.937,54.608 915.004,55.387L910.029,56.321C906.917,56.942 904.271,58.496 900.225,61.762C894.162,66.588 888.875,72.188 886.075,74.829C884.204,76.542 884.05,77.321 884.983,78.562C887.629,82.142 890.117,85.096 895.408,91.008C901.475,97.854 906.917,103.917 910.029,106.875C912.204,108.896 915.317,109.829 918.117,110.296L920.296,110.608C921.383,111.383 921.229,114.029 919.979,114.496C915.471,114.183 910.183,114.029 905.208,114.029C898.979,114.029 893.542,114.183 889.029,114.496C887.783,113.875 887.629,111.229 888.717,110.608L891.517,110.142C893.85,109.829 895.408,109.521 895.408,108.583C895.408,107.65 894.783,106.562 892.758,104.229L876.117,84.942C874.717,83.388 873.004,82.763 871.296,82.763C868.496,82.763 868.342,83.229 868.342,88.054L868.342,96.608C868.342,107.808 868.65,109.362 874.254,110.142L877.983,110.608C879.075,111.383 878.762,114.029 877.675,114.496C872.542,114.183 868.029,114.029 862.583,114.029C856.983,114.029 852.317,114.183 847.654,114.496C846.563,114.029 846.25,111.383 847.496,110.608L850.917,110.142C856.671,109.362 856.829,107.808 856.829,96.608L856.829,26.3C856.829,17.121 856.671,16.187 852.008,13.388L850.45,12.454C849.671,11.987 849.671,9.808 850.45,9.342C854.342,8.1 861.65,5.767 867.25,2.808C867.875,2.808 868.496,3.121 868.804,3.742C868.65,8.413 868.342,16.187 868.342,23.033L868.342,76.383C868.342,78.408 868.496,78.721 871.142,78.721C874.563,78.721 877.517,77.008 881.721,72.65L888.096,65.808C892.45,61.142 893.542,59.433 893.542,58.654C893.542,57.875 892.758,57.408 890.117,57.1L886.383,56.629C884.984,56.163 884.983,53.209 886.383,52.742L889.963,52.742ZM939.583,96.608C939.583,107.808 939.425,109.362 933.671,110.142L930.404,110.608C929.321,111.383 929.629,114.029 930.717,114.496C935.071,114.183 939.742,114.029 945.337,114.029C950.783,114.029 955.296,114.183 959.958,114.496C961.05,114.029 961.358,111.383 960.271,110.608L957.004,110.142C951.404,109.362 951.092,107.808 951.092,96.608L951.092,68.608C951.092,62.229 951.404,54.762 951.717,49.321C951.563,48.696 950.938,48.388 950.163,48.388C946.579,50.721 937.712,54.762 934.137,56.008C933.358,56.475 933.358,58.188 933.983,58.808L935.383,59.742C939.583,62.542 939.583,63.321 939.583,69.387L939.583,96.608ZM534.342,59.742C532.804,60.867 532.5,62.554 532.5,68.629L532.5,92.892C532.5,98.333 533.738,103.167 536.367,106.429C539.029,109.696 543.229,111.567 548.212,111.567C562.8,111.567 568.575,99.121 568.575,85.733C568.575,69.717 560.329,57.271 544.913,57.271C540.267,57.271 536.513,58.354 534.342,59.742ZM100.537,82.167C100.537,96.304 106.913,111.567 120.6,111.567C134.288,111.567 138.487,97.242 138.487,85.279C138.487,72.042 133.2,55.242 118.425,55.242C108.15,55.242 100.537,65.029 100.537,82.167ZM23.25,62.404C21.825,64.133 21.375,66.454 21.375,71.596L21.375,98.333C21.375,103.317 22.913,105.196 26.025,107.667C29.138,109.992 33.975,111.083 37.238,111.083C49.987,111.083 57.45,99.267 57.45,83.104C57.45,70.654 50.475,58.058 36.45,58.058C29.775,58.058 24.938,60.529 23.25,62.404ZM624.412,88.392C615.225,91.504 610.729,93.829 610.729,99.904C610.729,102.529 612.604,109.242 620.513,109.242C623.625,109.242 628.467,106.879 630.004,105.342C631.875,103.467 632.029,101.292 632.029,98.029L632.362,88.842C632.362,87.158 631.725,86.817 630.792,86.817C629.854,86.817 627.229,87.454 624.412,88.392ZM1024.98,98.629C1024.98,101.117 1024.83,103.454 1023.89,104.388C1021.4,106.875 1016.11,108.742 1011.91,108.742C996.671,108.742 988.733,95.363 988.733,81.208C988.733,67.675 996.046,55.387 1010.2,55.387C1016.27,55.387 1020.94,58.654 1023.27,61.921C1024.36,63.475 1024.98,64.875 1024.98,67.987L1024.98,98.629ZM289.237,68.779C289.237,69.083 289.237,69.567 290.325,69.567L301.35,69.567C312.862,69.567 316.313,68.929 317.55,67.992C318,67.696 318.487,67.054 318.487,65.029C318.487,60.679 315.525,55.242 306.487,55.242C297.3,55.242 289.388,63.642 289.237,68.779ZM944.717,11.054C940.208,11.054 936.317,14.167 936.317,19.3C936.317,23.5 939.425,26.921 944.25,26.921C948.45,26.921 952.338,24.433 952.338,18.987C952.338,14.633 949.383,11.054 944.717,11.054Z" style="fill:white;"/>
            </g>
        </g>
    </g>
</svg>
