<?xml version="1.0" encoding="UTF-8" standalone="no"?>
<!DOCTYPE svg PUBLIC "-//W3C//DTD SVG 1.1//EN" "http://www.w3.org/Graphics/SVG/1.1/DTD/svg11.dtd">
<svg width="100%" height="100%" viewBox="0 0 3250 530" version="1.1" xmlns="http://www.w3.org/2000/svg" xmlns:xlink="http://www.w3.org/1999/xlink" xml:space="preserve" style="fill-rule:evenodd;clip-rule:evenodd;stroke-linejoin:round;stroke-miterlimit:1.41421;">
    <g>
        <path d="M1192.7,316.425C1135.1,288.533 1095.5,277.733 1088.3,234.538C1087.4,219.237 1088.3,176.033 1150.4,175.137C1175.61,175.137 1196.3,183.233 1207.1,187.733C1226.91,195.837 1231.4,195.837 1243.11,177.829C1247.6,169.737 1259.31,152.633 1226.91,138.229C1208.9,131.037 1152.2,113.946 1099.1,131.929C1084.7,139.142 1031.6,150.842 1026.2,231.833C1026.2,253.437 1028.9,289.442 1073,316.425C1109.9,347.038 1179.2,362.333 1193.6,387.529C1203.51,394.737 1220.61,448.725 1170.2,473.921C1136.01,486.55 1087.4,471.229 1072.1,464.929C1031.6,443.337 1031.6,461.325 1024.41,470.35C1017.2,486.55 1015.4,494.638 1036.11,507.233C1046.01,511.746 1118,541.421 1183.7,523.433C1197.2,519.833 1261.11,501.842 1267.39,422.625C1271.9,352.429 1213.41,326.329 1192.7,316.425ZM1540.1,181.442C1574.31,180.533 1614.8,181.442 1619.31,181.442C1637.32,181.442 1641.8,176.033 1640.89,156.238C1640.89,135.537 1634.59,130.138 1614.8,130.138C1602.2,130.138 1535.6,131.037 1529.31,130.138C1523,129.237 1511.3,126.542 1511.3,110.333C1511.3,94.138 1512.2,59.942 1512.2,34.733C1512.2,9.538 1511.3,-3.967 1487.9,5.037C1466.3,16.737 1454.6,14.937 1452.8,46.446C1452.8,55.438 1452.8,102.233 1452.8,110.333C1452.8,118.438 1451.01,130.138 1432.1,130.138C1397,128.338 1390.7,135.537 1390.7,152.633C1390.7,167.938 1390.7,181.442 1411.4,181.442C1428.51,183.233 1453.7,175.137 1452.8,204.842C1452.8,218.342 1452.8,326.329 1452.8,342.525C1454.6,383.925 1445.61,464.929 1493.3,507.233C1505.91,516.225 1536.5,536.025 1588.7,525.225C1629.2,518.046 1640.01,510.837 1640.01,493.729C1642.7,467.621 1639.11,459.537 1622.9,461.325C1594.1,473.042 1569.8,473.921 1549.1,466.742C1512.2,454.146 1512.2,405.546 1512.2,393.829C1512.2,382.138 1512.2,211.142 1512.2,203.946C1512.2,196.738 1513.11,180.533 1540.1,181.442ZM658.108,320.938C666.204,320.938 815.608,320.938 827.296,320.029C844.408,320.029 850.704,316.425 856.104,303.825C869.846,278.642 872.062,243.029 866.017,214.55C860.188,187.092 846.496,166.437 838.108,158.038C785.913,105.842 688.704,128.338 668.9,137.342C632.004,152.633 607.696,187.733 598.704,205.729C569.896,264.237 576.204,341.646 577.1,358.729C578,375.842 584.308,478.433 670.704,515.35C686.008,522.525 745.404,546.838 842.6,501.842C870.5,489.246 864.204,467.621 864.204,460.446C864.204,429.829 847.1,442.429 838.108,447.846C745.404,497.329 697.7,466.742 687.804,460.446C639.204,437.042 634.7,358.729 634.7,346.133C634.7,319.15 650,320.938 658.108,320.938ZM2104.4,320.938C2112.51,320.938 2261.89,320.938 2273.61,320.029C2290.7,320.029 2296.99,316.425 2302.41,303.825C2316.16,278.642 2318.35,243.029 2312.32,214.55C2306.49,187.092 2292.8,166.437 2284.4,158.038C2232.19,105.842 2135.01,128.338 2115.2,137.342C2078.29,152.633 2054.01,187.733 2045.02,205.729C2016.22,264.237 2022.51,341.646 2023.39,358.729C2024.3,375.842 2030.6,478.433 2117,515.35C2132.32,522.525 2191.7,546.838 2288.91,501.842C2316.8,489.246 2310.5,467.621 2310.5,460.446C2310.5,429.829 2293.39,442.429 2284.4,447.846C2191.7,497.329 2144.01,466.742 2134.1,460.446C2085.5,437.042 2080.99,358.729 2080.99,346.133C2080.99,319.15 2096.31,320.938 2104.4,320.938ZM434.896,132.829C410.604,124.737 403.408,122.038 390.8,178.742C387.2,194.942 341.3,378.533 338.604,389.346C335,408.242 324.2,415.446 317.9,392.038C311.6,368.633 265.704,178.742 262.1,163.437C257.596,140.937 252.196,131.929 229.696,131.929C203.604,132.829 201.808,147.233 196.396,167.037C192.8,180.533 137.9,366.842 134.304,379.442C125.3,419.05 114.504,417.233 109.104,390.225C103.704,368.633 62.296,167.037 59.6,152.633C55.1,130.138 47.9,125.633 18.204,133.738C-0.688,140.038 -4.292,140.038 4.696,179.637C9.2,197.637 83,491.033 85.7,501.842C88.408,512.625 90.196,524.346 114.504,524.346C134.304,524.346 137.004,522.525 144.196,500.029C151.396,478.433 212.596,275.946 216.204,266.033C223.408,248.037 232.392,251.642 234.2,264.237C237.8,275.037 291.804,487.429 296.296,501.842C301.7,519.833 303.508,525.225 326.004,524.346C341.3,524.346 350.3,521.646 356.6,498.238C361.104,483.825 433.858,227.842 442.854,197.275C457.258,150.517 462.804,141.833 434.896,132.829ZM2543.62,15.838C2556.21,15.838 2568.81,18.538 2568.81,38.342C2568.81,52.733 2568.81,483.825 2568.81,493.729C2568.81,508.142 2566.12,519.833 2543.62,518.925C2516.6,520.737 2513.91,509.929 2513.91,492.85C2513.91,483.825 2513.91,86.033 2513.91,79.733C2513.91,73.433 2512.09,59.942 2490.5,59.942C2471.6,59.942 2466.22,56.338 2465.3,39.237C2465.3,27.538 2464.4,16.738 2488.72,15.838L2543.62,15.838ZM3183.49,135.537C3108.81,113.033 3062.9,164.338 3048.49,188.642C3033.2,211.142 3026.9,187.733 3021.5,178.742C2997.19,129.237 2946.8,130.138 2935.99,130.138C2878.39,131.037 2849.59,173.337 2843.29,180.533C2825.3,200.329 2825.3,171.542 2825.3,164.338C2825.3,140.038 2819.92,138.229 2801.9,137.342C2774,137.342 2776.7,154.433 2776.7,165.233C2776.7,176.033 2776.7,483.825 2776.7,491.937C2777.61,513.533 2779.4,518.046 2802.8,516.225C2822.61,517.133 2827.1,509.929 2827.1,493.729C2827.1,482.038 2826.22,346.133 2826.22,332.625C2835.21,185.933 2910.8,177.829 2927,177.829C2943.19,177.829 2991.8,178.742 2987.32,277.733C2987.32,285.838 2987.32,484.733 2987.32,493.729C2988.2,511.746 2990.89,517.133 3013.39,516.225C3035.89,516.225 3036.8,507.233 3036.8,494.638C3036.8,488.338 3035.89,353.337 3035.89,341.646C3037.71,198.533 3114.2,177.829 3135.8,177.829C3204.2,179.637 3196.99,262.442 3196.99,271.433C3196.99,280.438 3196.99,486.55 3196.99,495.546C3197.9,509.05 3200.6,516.225 3221.31,516.225C3242.9,517.133 3246.5,509.929 3246.5,496.425C3246.5,490.125 3246.5,254.333 3246.5,248.037C3246.5,163.437 3203.29,143.642 3183.49,135.537ZM792.196,267.833C808.409,267.833 812.9,250.729 812.004,237.237C811.108,223.742 812.004,217.442 797.6,198.533C783.204,179.637 739.104,168.838 695.908,185.933C681.504,194.042 659.896,208.438 647.296,238.133C644.604,248.037 637.396,266.933 659.008,267.833L792.196,267.833ZM2238.49,267.833C2254.69,267.833 2259.2,250.729 2258.3,237.237C2257.42,223.742 2258.3,217.442 2243.91,198.533C2229.5,179.637 2185.4,168.838 2142.19,185.933C2127.8,194.042 2106.21,208.438 2093.62,238.133C2090.89,248.037 2083.71,266.933 2105.3,267.833L2238.49,267.833Z" style="fill:white;"/>
    </g>
</svg>
