<?xml version="1.0" encoding="UTF-8" standalone="no"?>
<!DOCTYPE svg PUBLIC "-//W3C//DTD SVG 1.1//EN" "http://www.w3.org/Graphics/SVG/1.1/DTD/svg11.dtd">
<svg width="100%" height="100%" viewBox="0 0 2084 955" version="1.1" xmlns="http://www.w3.org/2000/svg" xmlns:xlink="http://www.w3.org/1999/xlink" xml:space="preserve" style="fill-rule:evenodd;clip-rule:evenodd;stroke-linejoin:round;stroke-miterlimit:1.41421;">
    <g>
        <path d="M1271.18,950.983L1259.37,950.983L1259.37,865.667C1270.61,876.8 1281.86,887.929 1292.88,899.179C1301.74,908.267 1310.49,917.471 1319.12,926.554C1318.9,924.054 1318.55,921.442 1318.55,918.946C1318.44,916.675 1318.44,914.508 1318.33,912.246L1318.33,871.117L1330.03,871.117L1330.03,954.167C1320.94,944.85 1311.86,935.646 1302.65,926.45C1297.2,920.988 1291.86,915.533 1286.52,909.971C1280.95,904.175 1275.61,898.267 1270.27,892.254C1270.5,896.108 1270.84,899.975 1270.95,903.721C1271.07,907.129 1271.07,910.538 1271.18,913.95L1271.18,950.983ZM625.854,888.388C624.496,887.475 623.242,886.562 621.771,885.663C619.263,884.067 613.925,880.771 605.746,880.771C596.542,880.771 587.117,885.204 581.658,892.358C576.317,899.404 575.871,907.925 575.871,910.996C575.871,913.15 576.204,918.717 578.713,924.396C583.367,934.629 594.613,940.992 605.858,940.992C613.925,940.992 619.033,937.917 625.625,933.488L625.625,947.004C621.987,948.712 615.746,952.117 605.633,952.117C600.633,952.117 588.933,951.213 578.142,942.238C573.258,938.037 564.283,928.15 564.283,910.879C564.283,900.546 567.683,890.542 574.275,883.267C582.008,874.754 594.271,869.408 605.858,869.408C613.354,869.408 618.921,871.687 625.967,874.529L625.854,888.388ZM1045.24,882.367C1053.08,874.071 1064.22,869.525 1075.58,869.525C1088.98,869.525 1098.41,875.887 1102.16,878.842C1111.7,886.458 1117.5,898.496 1117.5,910.996C1117.5,913.721 1117.15,919.742 1114.2,926.554C1107.5,942.462 1092.39,952 1075.58,952C1062.05,952 1052.4,945.417 1048.65,942.35C1039,934.504 1033.54,922.354 1033.88,909.629C1034.22,899.633 1038.31,889.633 1045.24,882.367ZM1519.05,951.1L1506.44,951.1L1498.37,931.675L1463.83,931.675L1454.63,950.983L1442.03,950.983L1482.24,866.225L1519.05,951.1ZM820.9,951.1L784.879,951.1L784.879,871.004L796.467,871.004L796.467,940.3L820.9,940.3L820.9,951.1ZM741.154,951.1L728.55,951.1L720.475,931.675L685.946,931.675L676.742,950.983L664.129,950.983L704.346,866.225L741.154,951.1ZM1172.7,951.1L1161.45,951.1L1161.45,870.892L1184.85,870.892C1190.42,871.233 1195.76,871.567 1200.08,874.862C1205.87,879.071 1208.37,886.346 1208.37,893.271C1208.37,896.679 1207.68,907.358 1198.37,913.15C1196.55,914.292 1195.08,914.85 1191.1,915.992C1194.85,921.329 1198.49,926.667 1202.34,931.892C1205.18,935.871 1208.14,939.737 1210.98,943.708C1212.69,946.092 1214.28,948.6 1215.87,950.983L1202.01,950.983L1177.58,916.788L1172.7,916.788L1172.7,951.1ZM964.138,950.983L952.663,950.983L952.663,870.892L991.967,870.892L991.967,882.137L964.25,882.137L964.25,901.792L991.854,901.792L991.854,912.467L964.138,912.467L964.138,950.983ZM1398.86,950.758L1387.05,950.758L1387.05,870.775L1398.86,870.775L1398.86,950.758ZM891.317,950.758L879.508,950.758L879.508,870.775L891.317,870.775L891.317,950.758ZM1051.83,929.396C1057.51,936.554 1066.49,940.754 1075.58,940.754C1078.99,940.754 1086.93,940.192 1094.32,934.504C1101.48,928.946 1105.91,920.2 1105.91,910.996C1105.91,905.312 1104.21,900.767 1103.41,898.95C1098.53,887.817 1087.51,881.112 1075.58,881.112C1068.87,881.112 1062.17,883.267 1056.94,887.362C1053.65,889.858 1046.04,897.25 1045.47,909.4C1045.12,916.446 1047.4,923.829 1051.83,929.396ZM1468.61,921.329L1494.06,921.329L1481.79,893.154L1468.61,921.329ZM690.712,921.329L716.162,921.329L703.892,893.154L690.712,921.329ZM1172.92,881.908L1172.92,907.017L1181.89,907.017C1187.35,906.558 1191.44,905.996 1194.28,901.45C1195.08,900.204 1196.55,897.475 1196.55,893.271C1196.55,891.904 1196.33,886.904 1192.69,884.292C1190.08,882.367 1187.01,882.137 1184.06,881.908L1172.92,881.908ZM1699.67,779.55L383.658,779.55L383.658,770.679L1699.67,770.679L1699.67,779.55ZM684.8,423.804C696.962,436.483 706.479,451.792 713.338,469.708C720.2,487.637 723.625,507.471 723.625,529.217C723.625,551.092 720.133,570.954 713.142,588.808C706.158,606.675 696.45,621.883 684.025,634.433C671.987,646.858 658.017,656.437 642.092,663.167C626.171,669.896 609.221,673.258 591.225,673.258C572.079,673.258 554.379,669.671 538.129,662.483C521.892,655.304 507.95,645.304 496.296,632.496C484.65,619.938 475.496,604.704 468.829,586.775C462.167,568.846 458.829,549.667 458.829,529.217C458.829,506.829 462.329,486.867 469.313,469.321C476.3,451.792 485.946,436.613 498.242,423.804C510.408,411.117 524.546,401.408 540.654,394.679C556.771,387.958 573.625,384.587 591.225,384.587C609.479,384.587 626.692,388.013 642.871,394.875C659.05,401.733 673.021,411.379 684.8,423.804ZM1242.31,423.804C1254.47,436.483 1263.98,451.792 1270.84,469.708C1277.7,487.637 1281.14,507.471 1281.14,529.217C1281.14,551.092 1277.64,570.954 1270.65,588.808C1263.66,606.675 1253.95,621.883 1241.53,634.433C1229.49,646.858 1215.51,656.437 1199.59,663.167C1183.67,669.896 1166.73,673.258 1148.73,673.258C1129.58,673.258 1111.88,669.671 1095.64,662.483C1079.4,655.304 1065.45,645.304 1053.8,632.496C1042.15,619.938 1033,604.704 1026.33,586.775C1019.67,568.846 1016.33,549.667 1016.33,529.217C1016.33,506.829 1019.83,486.867 1026.81,469.321C1033.8,451.792 1043.45,436.613 1055.75,423.804C1067.91,411.117 1082.05,401.408 1098.16,394.679C1114.28,387.958 1131.14,384.587 1148.73,384.587C1166.98,384.587 1184.2,388.013 1200.38,394.875C1216.55,401.733 1230.53,411.379 1242.31,423.804ZM261.108,666.854L245.579,666.854L242.862,572.5L258.583,572.5C261.821,584.154 265.608,594.671 269.946,604.054C274.283,613.437 280.004,622.2 287.125,630.354C293.854,637.996 301.717,644.075 310.717,648.608C319.708,653.142 330.158,655.404 342.063,655.404C350.992,655.404 358.788,654.233 365.458,651.904C372.125,649.567 377.521,646.262 381.662,641.983C385.804,637.713 388.883,632.692 390.892,626.921C392.892,621.15 393.896,614.508 393.896,606.992C393.896,595.979 390.796,585.708 384.575,576.188C378.367,566.658 369.112,559.433 356.817,554.508C348.404,551.162 338.758,547.458 327.896,543.392C317.021,539.338 307.642,535.496 299.746,531.883C284.208,524.904 272.142,515.746 263.542,504.425C254.929,493.108 250.625,478.321 250.625,460.083C250.625,449.6 252.767,439.837 257.037,430.779C261.3,421.721 267.387,413.633 275.283,406.521C282.788,399.792 291.658,394.517 301.879,390.7C312.1,386.892 322.775,384.979 333.908,384.979C346.596,384.979 357.95,386.917 367.983,390.796C378.008,394.679 387.162,399.213 395.45,404.387L403.408,391.187L418.946,391.187L420.492,482.625L404.767,482.625C401.917,472.133 398.721,462.108 395.154,452.529C391.6,442.954 386.971,434.283 381.279,426.512C375.712,419.013 368.921,413.021 360.896,408.562C352.871,404.096 343.033,401.867 331.387,401.867C319.092,401.867 308.608,405.813 299.933,413.704C291.267,421.6 286.929,431.242 286.929,442.625C286.929,454.542 289.712,464.404 295.279,472.233C300.846,480.071 308.933,486.508 319.546,491.554C328.996,496.087 338.279,500 347.404,503.296C356.525,506.6 365.362,510.125 373.9,513.875C381.662,517.246 389.142,521.063 396.329,525.333C403.504,529.604 409.746,534.588 415.062,540.283C420.883,546.758 425.187,553.842 427.971,561.533C430.754,569.237 432.146,578.204 432.146,588.429C432.146,612.758 423.146,632.821 405.158,648.608C387.162,664.396 364.842,672.292 338.183,672.292C325.883,672.292 313.588,670.379 301.3,666.562C288.996,662.746 278.392,658.112 269.454,652.683L261.108,666.854ZM839.6,666.658L726.612,666.658L726.612,652.879C730.104,652.621 735.996,651.358 744.279,649.087C752.554,646.825 757.737,644.792 759.804,642.975C764.337,639.354 767.437,633.821 769.125,626.375C770.808,618.937 771.646,606.217 771.646,588.233L771.646,452.529C771.646,446.583 770.613,440.625 768.546,434.667C766.471,428.721 763.688,424.121 760.196,420.892C755.533,416.621 749.225,412.967 741.267,409.921C733.308,406.879 726.863,405.233 721.95,404.975L721.95,391.187L800.65,391.187L955.492,601.196L955.492,470.183C955.492,454.142 954.45,441.813 952.383,433.213C950.317,424.608 947.337,418.883 943.458,416.033C939.833,413.575 933.913,411.183 925.692,408.854C917.471,406.521 911.229,405.233 906.958,404.975L906.958,391.187L1018.98,391.187L1018.98,404.975C1015.35,405.104 1009.78,406.138 1002.28,408.075C994.767,410.021 989.396,412.021 986.167,414.096C981.508,417.329 978.371,423.542 976.75,432.729C975.129,441.921 974.325,453.571 974.325,467.675L974.325,669.375L957.438,669.375L790.479,443.987L790.479,586.092C790.479,602.008 791.479,614.242 793.487,622.788C795.492,631.325 798.567,637.408 802.708,641.033C805.688,643.879 811.833,646.542 821.15,649C830.467,651.458 836.621,652.75 839.6,652.879L839.6,666.658ZM1745.6,666.658L1641.85,666.658L1641.85,652.879C1645.22,652.621 1649.42,651.879 1654.48,650.642C1659.52,649.413 1663.66,647.762 1666.9,645.696C1672.07,642.204 1676.08,638.542 1678.94,634.725C1681.78,630.908 1684.56,625.633 1687.28,618.904C1701.13,584.342 1716.4,545.517 1733.1,502.425C1749.8,459.325 1764.67,420.954 1777.75,387.308L1793.28,387.308L1885.11,624.917C1887.05,629.963 1889.24,634.05 1891.7,637.15C1894.16,640.258 1897.59,643.304 1901.99,646.271C1904.97,648.088 1908.85,649.608 1913.64,650.837C1918.42,652.067 1922.45,652.75 1925.67,652.879L1925.67,666.658L1811.17,666.658L1811.17,652.879C1821.26,652.229 1829.65,650.937 1836.31,649C1842.98,647.054 1846.3,644.663 1846.3,641.813C1846.3,640.65 1846.17,639.225 1845.92,637.542C1845.66,635.863 1845.27,634.367 1844.76,633.071L1821.94,571.338L1725.25,571.338C1721.61,580.404 1718.67,588.296 1716.4,595.021C1714.13,601.758 1712.08,607.967 1710.27,613.662C1708.58,619.229 1707.42,623.754 1706.77,627.254C1706.12,630.746 1705.8,633.592 1705.8,635.792C1705.8,640.975 1709.88,644.987 1718.03,647.825C1726.18,650.675 1735.38,652.358 1745.6,652.879L1745.6,666.658ZM1394.16,666.658L1282.92,666.658L1282.92,652.879C1288.75,652.358 1294.86,651.392 1301.27,649.967C1307.67,648.542 1312.62,646.404 1316.12,643.554C1320.65,639.933 1323.75,634.367 1325.44,626.862C1327.12,619.358 1327.96,606.804 1327.96,589.2L1327.96,448.258C1327.96,440.104 1326.99,433.438 1325.05,428.262C1323.1,423.088 1320.32,418.883 1316.7,415.65C1312.69,412.15 1307.77,409.562 1301.95,407.879C1296.12,406.204 1290.36,405.233 1284.67,404.975L1284.67,391.187L1378.6,391.187L1457.5,597.958L1524.87,424.983C1527.33,418.638 1529.42,412.004 1531.17,405.079C1532.92,398.146 1533.85,393.517 1533.98,391.187L1623.82,391.187L1623.82,404.975C1620.19,405.104 1615.57,405.683 1609.94,406.717C1604.3,407.758 1600.2,408.725 1597.61,409.629C1593.21,411.183 1590.23,413.771 1588.68,417.392C1587.12,421.021 1586.35,424.967 1586.35,429.242L1586.35,627.833C1586.35,632.367 1587.12,636.183 1588.68,639.292C1590.23,642.392 1593.21,645.108 1597.61,647.438C1599.93,648.737 1604.08,649.933 1610.03,651.033C1615.98,652.133 1620.71,652.75 1624.2,652.879L1624.2,666.658L1502.48,666.658L1502.48,652.879C1506.88,652.75 1512.54,652.296 1519.48,651.521C1526.39,650.742 1531.15,649.642 1533.74,648.217C1537.75,645.758 1540.69,642.946 1542.57,639.771C1544.45,636.604 1545.39,632.625 1545.39,627.833L1545.39,427.492L1542.47,427.492L1448.51,662.2L1438.81,662.2L1349.32,422.633L1346.79,422.633L1346.79,587.067C1346.79,602.988 1347.8,615.088 1349.8,623.371C1351.81,631.65 1354.88,637.604 1359.02,641.225C1361.87,643.946 1367.76,646.542 1376.68,649C1385.62,651.458 1391.44,652.75 1394.16,652.879L1394.16,666.658ZM1213.38,619.1C1220.63,607.325 1225.9,593.987 1229.2,579.108C1232.5,564.225 1234.15,547.592 1234.15,529.217C1234.15,510.321 1232.31,492.975 1228.62,477.188C1224.92,461.4 1219.52,447.942 1212.41,436.808C1205.29,425.804 1196.36,417.237 1185.62,411.087C1174.88,404.942 1162.58,401.867 1148.73,401.867C1133.2,401.867 1120,405.429 1109.13,412.542C1098.26,419.662 1089.39,429.175 1082.53,441.079C1076.06,452.467 1071.24,465.796 1068.08,481.071C1064.9,496.338 1063.31,512.396 1063.31,529.217C1063.31,547.85 1065,564.671 1068.36,579.687C1071.73,594.7 1077.03,608.033 1084.28,619.679C1091.26,631.071 1100.08,639.967 1110.68,646.371C1121.29,652.775 1133.98,655.983 1148.73,655.983C1162.58,655.983 1175.07,652.75 1186.2,646.271C1197.33,639.813 1206.39,630.746 1213.38,619.1ZM655.875,619.1C663.125,607.325 668.4,593.987 671.696,579.108C675,564.225 676.65,547.592 676.65,529.217C676.65,510.321 674.804,492.975 671.117,477.188C667.433,461.4 662.021,447.942 654.908,436.808C647.787,425.804 638.858,417.237 628.117,411.087C617.375,404.942 605.079,401.867 591.225,401.867C575.7,401.867 562.5,405.429 551.629,412.542C540.754,419.662 531.892,429.175 525.033,441.079C518.554,452.467 513.737,465.796 510.571,481.071C507.396,496.338 505.808,512.396 505.808,529.217C505.808,547.85 507.496,564.671 510.854,579.687C514.225,594.7 519.529,608.033 526.783,619.679C533.762,631.071 542.567,639.967 553.183,646.371C563.792,652.775 576.471,655.983 591.225,655.983C605.079,655.983 617.562,652.75 628.696,646.271C639.829,639.813 648.883,630.746 655.875,619.1ZM1814.85,554.062L1773.12,447.158L1731.99,554.062L1814.85,554.062ZM1912.3,284.475L1896.77,284.475L1894.05,190.129L1909.78,190.129C1913.01,201.775 1916.8,212.296 1921.13,221.675C1925.47,231.058 1931.19,239.825 1938.31,247.979C1945.04,255.617 1952.9,261.696 1961.9,266.229C1970.9,270.763 1981.35,273.025 1993.25,273.025C2002.18,273.025 2009.98,271.858 2016.65,269.525C2023.32,267.192 2028.71,263.883 2032.86,259.608C2037,255.333 2040.07,250.312 2042.08,244.542C2044.08,238.775 2045.09,232.133 2045.09,224.621C2045.09,213.6 2041.98,203.329 2035.78,193.808C2029.56,184.283 2020.3,177.058 2008.01,172.129C1999.59,168.783 1989.96,165.075 1979.08,161.017C1968.21,156.958 1958.83,153.121 1950.94,149.512C1935.4,142.525 1923.33,133.371 1914.73,122.05C1906.12,110.729 1901.82,95.95 1901.82,77.704C1901.82,67.221 1903.95,57.454 1908.23,48.4C1912.5,39.342 1918.58,31.254 1926.47,24.137C1933.98,17.408 1942.85,12.137 1953.07,8.317C1963.29,4.504 1973.97,2.596 1985.1,2.596C1997.79,2.596 2009.14,4.533 2019.17,8.421C2029.2,12.308 2038.35,16.833 2046.64,22.013L2054.6,8.808L2070.13,8.808L2071.69,100.246L2055.96,100.246C2053.11,89.758 2049.91,79.733 2046.35,70.154C2042.79,60.575 2038.17,51.904 2032.47,44.142C2026.9,36.637 2020.11,30.65 2012.08,26.183C2004.06,21.717 1994.22,19.483 1982.58,19.483C1970.28,19.483 1959.8,23.437 1951.13,31.329C1942.45,39.221 1938.12,48.867 1938.12,60.25C1938.12,72.163 1940.9,82.029 1946.47,89.858C1952.03,97.692 1960.12,104.129 1970.74,109.175C1980.18,113.704 1989.47,117.621 1998.59,120.917C2007.72,124.221 2016.55,127.746 2025.1,131.5C2032.86,134.867 2040.33,138.683 2047.52,142.954C2054.7,147.225 2060.94,152.208 2066.24,157.904C2072.07,164.375 2076.38,171.463 2079.16,179.158C2081.94,186.858 2083.33,195.825 2083.33,206.05C2083.33,230.379 2074.33,250.442 2056.35,266.229C2038.35,282.017 2016.03,289.912 1989.37,289.912C1977.08,289.912 1964.78,288.004 1952.49,284.188C1940.19,280.371 1929.58,275.742 1920.65,270.304L1912.3,284.475ZM121.971,287.779L104.833,287.779C92.017,242.483 78.75,195.471 65.038,146.737C51.317,98.012 42.129,65.367 37.467,48.796C36.3,44.792 34.583,41.229 32.321,38.121C30.058,35.017 26.983,32.171 23.1,29.579C19.863,27.383 16.079,25.729 11.742,24.629C7.404,23.533 3.488,22.854 0,22.592L0,8.808L112.287,8.808L112.287,22.592C102.454,23.112 94.075,24.083 87.158,25.504C80.229,26.929 76.771,29.325 76.771,32.688C76.771,33.983 76.958,35.696 77.35,37.833C77.742,39.967 78.058,41.683 78.325,42.979C81.296,54.362 86.562,73.196 94.121,99.463C101.692,125.733 112.904,165.075 127.775,217.483L196.533,12.687L215.525,12.687L284.904,221.854C294.254,189.704 302.3,161.604 309.046,137.554C315.804,113.508 321.383,92.929 325.804,75.817C328.921,63.762 330.858,55.5 331.638,51.029C332.412,46.567 332.804,42.779 332.804,39.675C332.804,35.279 329.792,31.583 323.779,28.608C317.754,25.637 308.021,23.625 294.562,22.592L294.562,8.808L394.471,8.808L394.471,22.592C391.242,22.725 387.492,23.462 383.217,24.821C378.946,26.183 375,27.962 371.375,30.162C366.846,33.008 363.192,36.275 360.408,39.967C357.625,43.654 355.2,48.796 353.125,55.396C343.933,85.296 333.258,120.208 321.092,160.133C308.925,200.058 295.792,242.612 281.688,287.779L263.808,287.779L194.271,75.604L121.971,287.779ZM535.996,284.288L411.937,284.288L411.937,270.5C415.438,270.242 420.483,269.85 427.083,269.333C433.683,268.817 438.346,268.042 441.063,267C445.337,265.325 448.438,263.021 450.383,260.113C452.321,257.2 453.296,253.158 453.296,247.979L453.296,48.413C453.296,43.883 452.579,40.096 451.154,37.054C449.729,34.012 446.371,31.454 441.063,29.387C437.183,27.833 432.292,26.375 426.408,25.017C420.517,23.658 415.696,22.854 411.937,22.592L411.937,8.808L535.996,8.808L535.996,22.592C531.983,22.725 527.188,23.208 521.621,24.05C516.063,24.892 511.204,25.963 507.062,27.246C502.15,28.804 498.846,31.329 497.167,34.825C495.483,38.317 494.646,42.196 494.646,46.471L494.646,245.842C494.646,250.117 495.579,253.9 497.462,257.2C499.333,260.5 502.538,263.121 507.062,265.063C509.783,266.104 514.217,267.229 520.363,268.458C526.512,269.692 531.721,270.371 535.996,270.5L535.996,284.288ZM1630.88,284.288L1519.65,284.288L1519.65,270.5C1525.46,269.987 1531.58,269.013 1537.99,267.587C1544.39,266.162 1549.35,264.029 1552.84,261.179C1557.37,257.563 1560.48,251.992 1562.16,244.483C1563.84,236.979 1564.68,224.425 1564.68,206.821L1564.68,65.883C1564.68,57.729 1563.71,51.063 1561.77,45.888C1559.83,40.712 1557.05,36.504 1553.42,33.271C1549.41,29.779 1544.49,27.187 1538.67,25.504C1532.85,23.821 1527.08,22.854 1521.4,22.592L1521.4,8.808L1615.32,8.808L1694.23,215.579L1761.59,42.608C1764.05,36.267 1766.15,29.625 1767.9,22.7C1769.64,15.775 1770.58,11.142 1770.71,8.808L1860.54,8.808L1860.54,22.592C1856.92,22.725 1852.3,23.3 1846.66,24.338C1841.03,25.375 1836.92,26.35 1834.33,27.246C1829.93,28.804 1826.95,31.396 1825.4,35.017C1823.85,38.642 1823.07,42.587 1823.07,46.858L1823.07,245.458C1823.07,249.983 1823.85,253.804 1825.4,256.912C1826.95,260.017 1829.93,262.738 1834.33,265.063C1836.66,266.358 1840.8,267.554 1846.75,268.654C1852.71,269.754 1857.44,270.371 1860.93,270.5L1860.93,284.288L1739.21,284.288L1739.21,270.5C1743.6,270.371 1749.27,269.917 1756.19,269.142C1763.12,268.362 1767.87,267.267 1770.47,265.837C1774.47,263.379 1777.42,260.567 1779.3,257.4C1781.17,254.225 1782.11,250.246 1782.11,245.458L1782.11,45.112L1779.2,45.112L1685.24,279.821L1675.53,279.821L1586.03,40.258L1583.51,40.258L1583.51,204.687C1583.51,220.608 1584.51,232.708 1586.53,240.992C1588.53,249.279 1591.6,255.225 1595.74,258.85C1598.59,261.567 1604.48,264.163 1613.41,266.621C1622.34,269.079 1628.17,270.371 1630.88,270.5L1630.88,284.288ZM785.05,284.288L569.75,284.288L569.75,270.5C572.858,270.242 577.35,269.787 583.242,269.142C589.138,268.492 593.246,267.654 595.571,266.621C599.454,264.933 602.271,262.479 604.021,259.237C605.762,256.008 606.642,251.863 606.642,246.817L606.642,49.575C606.642,45.175 605.892,41.296 604.404,37.925C602.913,34.562 599.975,31.846 595.571,29.779C592.596,28.221 588.421,26.704 583.05,25.212C577.679,23.725 573.25,22.854 569.75,22.592L569.75,8.808L686.042,8.808L686.042,22.592C682.413,22.725 677.717,23.367 671.962,24.533C666.204,25.696 662.029,26.733 659.442,27.637C655.046,29.192 652.033,31.846 650.417,35.596C648.796,39.354 647.992,43.367 647.992,47.633L647.992,232.642C647.992,241.183 648.404,247.821 649.25,252.542C650.087,257.271 652.067,260.921 655.167,263.512C658.146,265.837 662.579,267.358 668.475,268.075C674.358,268.783 682.608,269.142 693.221,269.142C698.004,269.142 702.996,269.013 708.171,268.75C713.346,268.492 718.262,267.975 722.925,267.196C727.45,266.425 731.625,265.354 735.45,263.996C739.258,262.638 742.075,260.921 743.888,258.85C749.196,252.9 755.371,243.875 762.425,231.771C769.483,219.671 774.375,209.867 777.092,202.358L790.871,202.358L785.05,284.288ZM1030.17,284.288L814.867,284.288L814.867,270.5C817.975,270.242 822.471,269.787 828.363,269.142C834.254,268.492 838.363,267.654 840.692,266.621C844.571,264.933 847.388,262.479 849.137,259.237C850.879,256.008 851.758,251.863 851.758,246.817L851.758,49.575C851.758,45.175 851.008,41.296 849.521,37.925C848.029,34.562 845.083,31.846 840.692,29.779C837.712,28.221 833.537,26.704 828.167,25.212C822.796,23.725 818.367,22.854 814.867,22.592L814.867,8.808L931.154,8.808L931.154,22.592C927.529,22.725 922.833,23.367 917.083,24.533C911.321,25.696 907.146,26.733 904.558,27.637C900.154,29.192 897.15,31.846 895.533,35.596C893.913,39.354 893.108,43.367 893.108,47.633L893.108,232.642C893.108,241.183 893.521,247.821 894.367,252.542C895.208,257.271 897.183,260.921 900.283,263.512C903.263,265.837 907.7,267.358 913.583,268.075C919.475,268.783 927.725,269.142 938.338,269.142C943.125,269.142 948.112,269.013 953.288,268.75C958.463,268.492 963.379,267.975 968.042,267.196C972.567,266.425 976.742,265.354 980.558,263.996C984.375,262.638 987.192,260.921 989.004,258.85C994.312,252.9 1000.49,243.875 1007.54,231.771C1014.6,219.671 1019.48,209.867 1022.2,202.358L1035.99,202.358L1030.17,284.288ZM1182.33,284.288L1058.28,284.288L1058.28,270.5C1061.78,270.242 1066.83,269.85 1073.42,269.333C1080.03,268.817 1084.68,268.042 1087.41,267C1091.67,265.325 1094.78,263.021 1096.73,260.113C1098.67,257.2 1099.63,253.158 1099.63,247.979L1099.63,48.413C1099.63,43.883 1098.92,40.096 1097.5,37.054C1096.08,34.012 1092.72,31.454 1087.41,29.387C1083.52,27.833 1078.63,26.375 1072.75,25.017C1066.86,23.658 1062.04,22.854 1058.28,22.592L1058.28,8.808L1182.33,8.808L1182.33,22.592C1178.32,22.725 1173.53,23.208 1167.97,24.05C1162.4,24.892 1157.55,25.963 1153.41,27.246C1148.49,28.804 1145.19,31.329 1143.5,34.825C1141.83,38.317 1140.98,42.196 1140.98,46.471L1140.98,245.842C1140.98,250.117 1141.92,253.9 1143.8,257.2C1145.68,260.5 1148.88,263.121 1153.41,265.063C1156.13,266.104 1160.56,267.229 1166.71,268.458C1172.85,269.692 1178.07,270.371 1182.33,270.5L1182.33,284.288ZM1315.52,284.288L1211.78,284.288L1211.78,270.5C1215.15,270.242 1219.35,269.5 1224.4,268.262C1229.44,267.033 1233.58,265.387 1236.82,263.317C1241.99,259.825 1246,256.167 1248.85,252.346C1251.7,248.529 1254.48,243.254 1257.2,236.525C1271.05,201.971 1286.32,163.146 1303.02,120.046C1319.71,76.946 1334.6,38.575 1347.66,4.925L1363.2,4.925L1455.02,242.542C1456.97,247.592 1459.16,251.671 1461.62,254.771C1464.08,257.879 1467.51,260.921 1471.92,263.9C1474.89,265.712 1478.77,267.229 1483.56,268.458C1488.35,269.692 1492.36,270.371 1495.6,270.5L1495.6,284.288L1381.09,284.288L1381.09,270.5C1391.19,269.85 1399.57,268.558 1406.23,266.621C1412.89,264.675 1416.23,262.283 1416.23,259.433C1416.23,258.271 1416.1,256.846 1415.84,255.162C1415.58,253.483 1415.19,251.992 1414.68,250.696L1391.86,188.967L1295.16,188.967C1291.54,198.025 1288.58,205.917 1286.31,212.65C1284.05,219.379 1282.01,225.588 1280.19,231.283C1278.51,236.85 1277.34,241.379 1276.69,244.875C1276.04,248.367 1275.72,251.213 1275.72,253.413C1275.72,258.596 1279.79,262.608 1287.95,265.45C1296.1,268.3 1305.29,269.987 1315.52,270.5L1315.52,284.288ZM1384.77,171.688L1343.04,64.787L1301.91,171.688L1384.77,171.688Z" style="fill:white;"/>
    </g>
</svg>
