<?xml version="1.0" encoding="UTF-8" standalone="no"?>
<!DOCTYPE svg PUBLIC "-//W3C//DTD SVG 1.1//EN" "http://www.w3.org/Graphics/SVG/1.1/DTD/svg11.dtd">
<svg width="100%" height="100%" viewBox="0 0 4059 738" version="1.1" xmlns="http://www.w3.org/2000/svg" xmlns:xlink="http://www.w3.org/1999/xlink" xml:space="preserve" style="fill-rule:evenodd;clip-rule:evenodd;stroke-linejoin:round;stroke-miterlimit:1.41421;">
    <g transform="matrix(4.16667,0,0,4.16667,0,0)">
        <path d="M419.037,10.982C419.188,10.549 419.328,9.975 419.445,9.447C419.566,9.975 419.705,10.549 419.852,10.982L423.086,20.002L415.891,20.002L419.037,10.982ZM408.82,31.037C409.191,31.17 409.578,31.236 409.961,31.236C411.113,31.244 412.223,30.572 412.648,29.295L414.059,25.248L424.969,25.248L426.422,29.303L426.422,29.295C426.844,30.576 427.945,31.236 429.086,31.236L429.105,31.236C429.492,31.236 429.873,31.154 430.25,31.037C431.508,30.639 432.219,29.705 432.201,28.561C432.201,28.178 432.129,27.775 431.996,27.377L423.531,3.537C422.898,1.619 421.234,0.666 419.586,0.674C417.906,0.674 416.184,1.646 415.537,3.537L407.078,27.369C406.938,27.783 406.855,28.178 406.855,28.561C406.848,29.705 407.563,30.631 408.82,31.037ZM443.633,31.221C445.316,31.221 446.691,30.068 446.699,28.338L446.699,12.932C446.848,13.225 447.012,13.533 447.18,13.807L458.246,29.713C458.961,30.803 459.938,31.221 461.016,31.221L461.078,31.221C462.762,31.221 464.145,30.068 464.145,28.338L464.145,3.811C464.145,2.076 462.77,0.908 461.078,0.908C459.383,0.908 458.188,2.111 458.188,3.811L458.188,19.006C458.094,18.822 457.984,18.639 457.865,18.478L446.816,2.764C446.285,1.881 445.324,0.908 443.809,0.908C442.117,0.908 440.742,2.096 440.742,3.982L440.742,28.338C440.742,30.033 441.938,31.221 443.633,31.221ZM482.547,5.596L483.449,5.607C490.094,5.666 493.258,7.986 493.313,15.986C493.246,23.982 490.125,25.619 483.449,25.686L482.547,25.686L482.547,5.596ZM479.492,30.764C479.758,30.764 480.023,30.732 480.273,30.678L483.449,30.764C494.566,30.748 498.898,25.9 498.914,15.986C498.898,5.904 494.242,0.537 483.449,0.521L479.492,0.521C477.793,0.521 476.609,1.725 476.609,3.412L476.609,27.881C476.609,29.572 477.793,30.764 479.492,30.764ZM442.078,82.041C435.98,80.385 425.883,78.4 421.285,75.861L421.289,75.857C419.727,74.959 419.033,73.666 419.027,72.26C419.027,71.592 419.195,70.889 419.508,70.213C420.43,68.693 421.77,67.889 423.414,67.881C424.395,67.881 425.492,68.17 426.68,68.803C430.949,71.33 437.691,77.939 442.078,82.041ZM448.832,55.783C448.855,52.443 450.602,50.416 453.359,50.396C455.813,50.416 457.523,51.986 457.537,54.404C457.547,59.807 454.684,69.225 453.18,75.361C451.672,69.459 448.832,60.842 448.832,55.783ZM457.537,124.55C457.523,126.972 455.813,128.542 453.359,128.551C450.609,128.542 448.855,126.511 448.832,122.988C448.832,118.089 451.672,109.48 453.18,103.582C454.684,109.718 457.547,119.14 457.537,124.55ZM480.398,68.803L480.395,68.795C481.508,68.178 482.578,67.881 483.555,67.881C485.199,67.889 486.555,68.686 487.383,70.232C487.773,70.955 487.977,71.705 487.977,72.4C487.969,73.744 487.277,74.982 485.773,75.857C481.18,78.396 470.625,80.83 464.336,82.549C468.922,78.385 476.113,71.318 480.398,68.803ZM484.934,100.002C487.152,100.982 488.398,102.642 488.398,104.468C488.398,105.113 488.234,105.789 487.891,106.496L487.895,106.496C487.18,107.91 485.895,108.863 484.336,108.863C483.746,108.863 483.105,108.718 482.434,108.414C477.664,106.195 469.352,99.111 464.344,95.1C470.309,96.264 480.355,97.779 484.934,100.002ZM424.625,108.414L424.75,108.687L424.617,108.414C423.996,108.73 423.383,108.863 422.789,108.863C421.246,108.863 419.865,107.882 419.16,106.484C418.859,105.789 418.701,105.089 418.701,104.417C418.709,102.603 419.789,100.974 422.109,100.002C426.701,97.779 436.32,96.264 442.352,95.096C437.258,99.115 429.387,106.203 424.625,108.414ZM423.273,62.158C419.742,62.146 416.516,63.908 414.492,67.529C413.57,69.193 413.109,70.904 413.109,72.564C413.109,75.982 415.07,79.123 418.75,81.033C423.305,83.482 429.023,83.994 434.148,85.369C438.336,86.33 443.537,87.592 447.977,89.006C439.648,91.029 426.363,91.607 419.633,94.631C415.422,96.666 412.828,100.119 412.828,104.14C412.828,105.636 413.195,107.214 413.969,108.812C415.672,112.593 418.785,114.652 422.359,114.644C423.945,114.644 425.609,114.238 427.297,113.441C432.195,111.16 435.652,106.824 439.922,103.578C442.865,100.97 446.873,97.139 450.176,94.713C448.617,103.087 443.078,115.496 443.063,122.988C443.07,129.476 446.984,134.308 453.359,134.32C459.359,134.312 463.297,130.355 463.305,124.199C463.297,118.933 460.869,113.746 459.68,108.445C458.531,104.496 457.07,99.139 456.344,94.646C459.109,96.486 465.523,102.13 467.109,103.558C471.242,106.839 475.037,111.16 479.766,113.441C481.492,114.246 483.18,114.644 484.773,114.644C488.375,114.652 491.438,112.585 493.258,108.812C493.957,107.265 494.289,105.73 494.289,104.265C494.289,100.15 491.688,96.553 487.426,94.631C480.537,91.451 467.391,91.018 459.082,89.006C463.523,87.592 468.727,86.33 472.895,85.369C477.869,83.994 483.746,83.482 488.305,81.033C491.98,79.139 493.941,75.994 493.941,72.564C493.941,70.904 493.473,69.186 492.559,67.529C490.648,63.916 487.383,62.146 483.828,62.158C481.82,62.158 479.705,62.705 477.688,63.795C471.063,67.369 462.945,78.174 456.375,83.494C457.105,79.338 458.537,74.225 459.672,70.346C460.869,65.369 463.297,60.01 463.305,54.752C463.297,48.588 459.359,44.635 453.359,44.623C446.984,44.643 443.07,49.459 443.063,55.783C443.078,63.057 448.23,75.041 449.969,83.4C443.701,77.748 435.633,67.186 429.377,63.795C427.344,62.713 425.258,62.158 423.273,62.158ZM973.594,109.156C973.523,107.46 971.957,105.441 970.086,105.355C969.555,105.347 968.992,105.57 968.57,106.035L966.5,108.265C962.859,112.253 959.555,115.867 953.941,115.867C951.469,115.859 949.102,113.632 949.094,111.195L949.094,82.42C949.074,72.389 939.461,66.939 930.676,66.924C924.57,66.932 917.805,69.041 913.652,73.838C910.012,68.885 903.844,66.924 897.762,66.924C891.898,66.916 887.176,69.064 883.434,73.018L883.434,69.494C883.434,67.525 881.984,66.064 880.016,66.064C878.195,66.064 876.758,67.525 876.758,69.494L876.758,106.507L876.211,107.046C872.918,110.89 868.516,115.882 862.613,115.867C860.324,115.859 857.945,113.636 857.938,111.199L857.938,69.154C857.902,67.24 856.156,65.908 854.516,65.893C852.695,65.893 851.254,67.33 851.254,69.154L851.254,103.777C846.289,109.234 839.516,115.367 831.773,115.355C821.27,115.324 815.57,105.871 815.539,95.689C815.563,84.158 822.984,72.947 835.391,72.924C838.746,72.916 841.117,74.103 842.648,75.303C844.18,76.486 844.879,77.674 844.906,77.674L845.039,77.916L845.336,77.916C847.16,77.916 849.105,76.994 849.105,74.486C848.992,71.225 843.508,66.471 835.391,66.408C819.031,66.408 808.887,80.486 808.863,95.689C808.867,99.756 809.523,103.71 810.824,107.281C810.008,107.914 809.219,108.683 808.484,109.488C806.133,111.855 801.285,115.906 797.652,115.867C794.281,115.832 792.844,113.746 792.801,111.191L792.801,81.389C792.785,70.99 782.801,66.08 774.039,66.064C766.621,66.057 760.844,69.029 756.27,74.174L756.27,34.346C756.324,20.611 760.969,10.041 774.039,10.025C775.879,10.025 777.906,10.357 779.77,10.865C781.473,11.205 782.91,11.744 784.895,11.744C786.711,11.744 788.148,10.283 788.148,8.314C787.719,3.822 776.688,3.498 774.039,3.338C756.816,3.365 749.613,16.838 749.59,34.346L749.59,106.164L748.699,107.05C745.402,110.886 740.996,115.882 735.102,115.863C732.809,115.855 730.43,113.636 730.422,111.203L730.422,69.154C730.391,67.24 728.637,65.912 727,65.896C725.18,65.896 723.734,67.326 723.734,69.154L723.734,103.765C718.773,109.23 711.996,115.367 704.258,115.347C693.758,115.324 688.059,105.871 688.031,95.689C688.051,84.162 695.469,72.947 707.867,72.924C711.227,72.916 713.602,74.103 715.129,75.295C716.668,76.486 717.363,77.674 717.363,77.674L717.523,77.916L717.82,77.916C719.641,77.916 721.586,76.994 721.586,74.486C721.477,71.221 715.992,66.471 707.867,66.412C691.512,66.412 681.367,80.482 681.348,95.689C681.367,109.441 688.59,122.011 704.258,122.035C712.488,122.035 718.766,117.55 723.828,113.097C724.563,118.757 728.836,122.378 735,122.378L735.102,122.378C738.98,122.386 742.387,121.308 745.723,118.839C746.582,118.21 748.066,116.917 749.59,115.503L749.59,118.781C749.59,120.593 751.027,122.031 752.844,122.031C754.805,122.031 756.27,120.605 756.27,118.781L756.277,84.807C760.023,79.396 767.703,72.701 774.039,72.744C779.836,72.775 786.105,74.92 786.125,81.389L786.125,110.847C786.133,117.617 790.684,122.371 797.48,122.378L797.52,122.378C801.738,122.378 804.98,121.097 808.137,118.476C809.637,117.14 812.012,115.105 813.875,113.175C817.621,118.5 823.512,122.019 831.773,122.031C840.004,122.031 846.285,117.55 851.344,113.089C852.066,118.753 856.344,122.375 862.512,122.375L862.613,122.375C866.492,122.382 869.902,121.308 873.242,118.835C874.031,118.257 875.359,117.113 876.758,115.82L876.758,118.777C876.758,120.757 878.238,122.035 880.016,122.035C881.941,122.035 883.434,120.765 883.434,118.777L883.434,83.596C886.672,78.365 891.539,73.603 897.762,73.611C903.988,73.635 910.172,77.103 910.188,83.803L910.188,118.777C910.188,120.765 911.699,122.035 913.617,122.035C915.395,122.035 916.867,120.757 916.867,118.777L916.867,82.076C919.133,77.143 925.016,73.603 930.676,73.615C936.258,73.635 942.574,76.307 942.59,82.42L942.59,110.855C942.602,117.441 946.957,122.367 953.766,122.375C957.844,122.375 961.91,120.972 964.945,118.472C966.875,116.847 972.84,111.878 973.551,109.605L973.07,109.476L973.559,109.566C973.594,109.417 973.594,109.277 973.594,109.156ZM577.25,170.308L577.25,170.32C572.285,170.296 566.566,168.808 566.551,163.23C566.453,155.667 576.844,151.972 585.332,149.234C593.355,146.562 602.348,142.921 609.828,138.929C609.422,155.167 593.711,170.285 577.25,170.308ZM664.789,66.061C658.316,66.061 653.098,69.186 648.75,73.447L648.75,69.666C648.75,67.838 647.277,66.408 645.316,66.408C643.5,66.408 642.063,67.846 642.063,69.666L642.063,106.656C634.289,114.23 626.031,121.019 616.523,127.003L616.523,100.518C616.508,97.275 616.559,88.564 617.691,86.061L618.539,84.365C619.375,82.834 620.477,81.068 620.484,79.146C620.453,77.232 618.703,75.904 617.059,75.885C613.68,75.928 612.773,79.232 612.098,81.412L611.59,82.947C610.418,86.119 608.375,89.018 606.5,91.412C595.664,105.16 583.234,116.203 564.848,116.21C537.895,116.167 525.422,97.779 525.363,72.248C525.422,38.045 552.914,7.506 587.77,7.439C604.375,7.475 621.527,14.912 621.559,33.65C621.539,41.928 616.125,51.912 607.066,51.932C603.105,51.932 597.922,50.865 597.91,46.572C597.91,46.057 597.91,45.603 598.063,45.189C598.238,44.658 598.43,44.053 598.43,43.131C598.395,41.221 596.641,39.889 595,39.873C591.266,40.018 591.254,44.732 591.23,46.572C591.266,55.443 600.082,58.603 607.066,58.619C620.203,58.58 628.242,45.217 628.242,33.65C628.234,10.861 607.531,0.959 587.77,0.924C549.039,0.932 518.684,34.248 518.676,72.248C518.723,101.529 534.074,122.675 564.848,122.726C582.461,122.707 599.133,111.261 609.926,97.916C609.82,100.201 609.793,102.251 609.793,104.304C609.793,106.804 609.836,109.304 609.836,112.23L609.836,130.902C602.344,135.453 592.988,139.207 582.941,142.953C572.301,146.921 559.422,151.73 559.348,163.07C559.363,172.757 568.34,176.992 576.563,177L576.594,177C600.715,177 616.414,158.257 616.688,135.257C620.746,132.785 634.211,123.281 642.063,116.14L642.063,118.953C642.063,120.921 643.539,122.207 645.316,122.207C647.238,122.207 648.75,120.929 648.75,118.953L648.75,83.432C652.301,78.041 658.578,72.725 664.789,72.74C668.375,72.74 669.789,75.822 670.148,79.018C670.148,80.846 671.262,82.4 673.41,82.4C675.77,82.4 676.66,80.603 676.66,78.635C676.652,72.201 672,66.068 664.789,66.061ZM293.961,66.061C287.492,66.061 282.277,69.186 277.922,73.439L277.922,69.666C277.914,67.838 276.453,66.408 274.492,66.408C272.672,66.408 271.234,67.846 271.234,69.666L271.234,105.597C271.109,105.683 270.969,105.734 270.859,105.847L269.656,107.05C266.359,110.886 261.953,115.882 256.055,115.863C253.773,115.855 251.387,113.636 251.377,111.203L251.377,69.154C251.344,67.24 249.594,65.912 247.957,65.896C246.137,65.896 244.701,67.326 244.691,69.154L244.691,103.765C239.734,109.23 232.961,115.367 225.209,115.347C214.709,115.324 209.016,105.871 209,95.689C209.008,84.162 216.422,72.947 228.828,72.924C232.18,72.916 234.559,74.103 236.086,75.295C237.625,76.486 238.32,77.674 238.32,77.674L238.484,77.916L238.77,77.916C240.598,77.916 242.537,76.994 242.537,74.486C242.434,71.221 236.949,66.471 228.828,66.404C212.477,66.412 202.336,80.482 202.305,95.689C202.313,99.912 203.004,104.023 204.406,107.699C204.209,107.882 204.033,108.05 203.828,108.25C200.555,111.542 195.977,116.05 190.406,116.035C184.363,115.996 181.73,113.492 179.133,108.226C174.031,98.041 172.977,81.353 172.977,70.01C173,43.33 176.895,24.467 198.141,6.111L198.461,5.822L195.055,0.604L194.656,0.807C189.516,3.377 183.891,5.58 178.34,5.58C174.992,5.58 171.594,4.576 168.164,3.369C164.715,2.346 161.209,1.096 157.313,1.096C146.664,1.119 139.852,9.643 135.336,17.975C134.742,8.268 131.113,1.713 118.891,1.795C106.102,1.807 95.648,11.08 88.537,20.432C79.32,9.24 65.585,2.482 50.996,2.475C50.796,2.482 50.546,2.475 50.265,2.475C45.765,2.611 32.601,2.283 32.226,8.486C32.246,10.334 33.804,11.904 35.66,11.92C36.796,11.92 37.757,11.377 38.365,10.646C42.382,9.502 46.421,9.162 50.484,9.17C81.46,9.221 95.609,37.225 95.64,65.018C95.609,94.467 77.566,119.64 46.519,119.66C25.46,119.617 7.044,108.796 7.037,86.209C7.044,70.256 18.877,57.24 35.144,57.24C50.89,57.24 61.507,69.4 61.523,83.623C61.507,91.318 55.648,98.951 47.546,98.971C46.218,98.986 43.601,97.814 42.257,97.139C41.209,96.631 39.722,95.728 38.593,95.697C36.537,95.721 35.171,97.482 35.164,99.131C35.351,104.785 44.062,105.941 47.722,106.011C59.945,105.992 68.701,94.889 68.726,83.275C68.695,63.885 54.335,50.42 35.144,50.385C14.209,50.42 0.033,65.467 0,86.209C0.054,114.781 21.406,126.304 46.519,126.335C82.132,126.281 102.102,98.803 102.156,65.018C102.156,51.947 99.093,37.361 92.601,25.928C98.937,17.412 108.102,8.279 119.063,8.303C125.234,8.354 128.675,11.635 128.727,17.807L128.727,119.472C128.727,121.238 129.979,122.722 131.816,122.722C133.402,122.722 135.383,121.57 135.414,119.472L135.414,31.924C139.102,23.17 147.676,6.975 157.664,7.092C160.984,7.092 164.391,8.275 167.832,9.475C171.297,10.689 174.801,11.744 178.855,11.744C180.766,11.744 182.586,11.639 184.48,11.248C169.773,28.045 166.453,45.521 166.461,67.939C166.469,81.057 167.141,98.33 172.719,110.542C176.348,118.23 181.445,122.406 190.227,122.382C197,122.371 203.23,118.777 207.797,113.875C211.563,118.812 217.309,122.023 225.209,122.035C233.445,122.035 239.719,117.55 244.785,113.097C245.516,118.757 249.793,122.378 255.957,122.378L256.055,122.378C259.937,122.386 263.344,121.308 266.688,118.839C267.672,118.117 269.484,116.523 271.234,114.863L271.234,118.953C271.234,120.921 272.709,122.207 274.492,122.207C276.418,122.207 277.914,120.929 277.922,118.953L277.922,83.42C281.492,78.033 287.758,72.725 293.961,72.748C297.551,72.748 298.953,75.822 299.328,79.018C299.328,80.846 300.434,82.4 302.586,82.4C304.945,82.4 305.832,80.603 305.832,78.635C305.824,72.201 301.172,66.068 293.961,66.061ZM399.055,99.822C399,95.408 396.789,86.072 390.98,85.881C388.422,85.881 386.52,87.26 386.52,89.478C386.52,91.529 387.992,92.928 389.734,92.928C390.02,92.928 390.313,92.889 390.598,92.818C391.75,94.623 392.383,97.807 392.375,100.17C392.344,110.64 382.051,118.777 365.648,118.789C349.219,118.82 335.953,112.886 332.063,106.585C332.863,106.636 334.033,106.695 334.977,106.695C348.063,106.675 357.16,99.728 357.188,86.037C357.168,74.076 348.844,65.568 337.047,65.545C329.869,65.553 322.922,69.307 317.898,74.439L317.898,32.439C317.914,23.498 324.359,12.807 333.773,12.783C335.164,12.76 337.945,12.986 339.07,13.697C339.031,13.889 339.016,14.084 339.016,14.275C339.016,16.096 340.57,17.439 342.555,17.439C344.883,17.385 345.984,15.041 345.984,13.314C345.813,7.682 337.609,6.318 333.773,6.268C319.977,6.283 311.234,19.143 311.209,31.756L311.209,118.781C311.209,120.593 312.648,122.031 314.469,122.031C316.438,122.031 317.898,120.593 317.898,118.781L317.898,84.658C321.352,78.154 329.719,72.205 337.047,72.232C344.664,72.24 350.32,78.693 350.328,86.381C350.273,96.275 344.176,99.939 334.629,100.01C333.594,100.018 332.594,100.01 331.605,99.846C330.578,99.67 329.504,99.498 328.258,99.498C325.957,99.498 324.313,101.111 324.313,103.267C324.395,114.113 339.855,125.468 365.648,125.484C386.137,125.453 399.023,114.804 399.055,99.822Z" style="fill:white;fill-rule:nonzero;"/>
    </g>
</svg>
