<?xml version="1.0" encoding="UTF-8" standalone="no"?>
<!DOCTYPE svg PUBLIC "-//W3C//DTD SVG 1.1//EN" "http://www.w3.org/Graphics/SVG/1.1/DTD/svg11.dtd">
<svg width="100%" height="100%" viewBox="0 0 1110 106" version="1.1" xmlns="http://www.w3.org/2000/svg" xmlns:xlink="http://www.w3.org/1999/xlink" xml:space="preserve" style="fill-rule:evenodd;clip-rule:evenodd;stroke-linejoin:round;stroke-miterlimit:1.41421;">
    <g transform="matrix(1,0,0,1,-212.708,-209.711)">
        <g transform="matrix(4.16667,0,0,4.16667,0,0)">
            <g transform="matrix(0.24,0,0,0.24,0,0)">
                <path d="M369.05,299.883C369.05,309.342 362.838,315.421 346.163,315.342C328.3,315.342 323.467,309.342 323.467,299.883L323.467,236.587C323.467,225.325 331.358,219.567 346.654,219.488C361.354,219.408 369.05,226.804 369.05,236.587L369.05,299.883ZM239.783,314.438L212.708,314.438L212.708,312.063L217.096,312.063L217.096,212.108L212.708,212.108L212.708,209.737L244.496,209.737C246.688,209.737 254.8,209.279 259.404,212.204C264.446,215.4 265.871,219.692 265.871,224.992L265.871,249.842C265.871,252.496 265.213,257.154 260.279,260.442C255.567,263.546 247.788,264.187 241.425,264.187L235.292,264.187L235.292,312.063L239.783,312.063L239.783,314.438ZM472.754,239.217L470.288,239.217L470.288,224.417L456.375,224.417L456.375,312.3L460.421,312.3L460.421,314.438L436.05,314.438L436.05,312.3L439.996,312.3L439.996,224.417L426.179,224.417L426.179,239.217L423.713,239.217L423.713,220.225L472.754,220.225L472.754,239.217ZM576.471,239.217L574.004,239.217L574.004,224.417L560.088,224.417L560.088,312.3L564.138,312.3L564.138,314.438L539.762,314.438L539.762,312.3L543.712,312.3L543.712,224.417L529.896,224.417L529.896,239.217L527.429,239.217L527.429,220.225L576.471,220.225L576.471,239.217ZM675.767,238.642L673.3,238.642L673.3,224.417L655.242,224.417L655.242,264.375L673.3,264.375L673.3,256.15L675.767,256.15L675.767,276.867L673.3,276.867L673.3,268.567L655.242,268.567L655.242,310.242L673.3,310.242L673.3,296.021L675.767,296.021L675.767,314.438L634.817,314.438L634.817,312.3L638.867,312.3L638.867,222.362L634.817,222.362L634.817,220.225L675.767,220.225L675.767,238.642ZM766.708,314.438L742.337,314.438L742.337,312.3L746.383,312.3L746.383,222.362L742.337,222.362L742.337,220.225L770.954,220.225C772.925,220.225 780.225,219.817 784.375,222.45C788.908,225.325 790.192,229.187 790.192,233.954L790.192,254.013C790.192,255 790.487,259.521 786.838,262.646C783.488,265.608 779.046,265.771 779.046,266.183C779.046,266.754 785.067,267.25 789.208,270.046C793.45,272.921 793.846,275.962 793.846,280.158L793.846,312.3L797.892,312.3L797.892,314.438L777.463,314.438L777.463,276.788C777.463,273.825 778.158,270.946 775.296,269.221C773.521,268.071 770.163,268.317 768.288,268.317L762.763,268.317L762.763,312.3L766.708,312.3L766.708,314.438ZM872.838,222.362L868.892,222.362L883.296,271.933L896.025,222.362L891.979,222.362L891.979,220.225L905.3,220.225L905.3,222.362L901.354,222.362L885.958,280.979L885.958,312.3L889.908,312.3L889.908,314.438L865.533,314.438L865.533,312.3L869.583,312.3L869.583,280.813L852.508,222.362L848.462,222.362L848.462,220.225L872.838,220.225L872.838,222.362ZM997.625,314.438L958.162,314.438L958.162,312.063L962.55,312.063L962.55,212.108L958.162,212.108L958.162,209.737L995.763,209.737C1000.48,209.737 1003.98,210.558 1007.49,213.208C1013.3,217.592 1012.75,222.983 1012.75,223.075L1012.75,248.196C1012.75,248.292 1012.97,253.317 1009.24,256.421C1004.42,260.442 1000.7,260.625 1000.8,261.079C1000.8,261.808 1007.49,261.721 1012.31,265.833C1015.16,268.3 1016.37,270.854 1016.37,275.608L1016.37,299.179C1016.37,303.2 1016.15,306.125 1013.3,309.321C1009.35,313.612 1001.13,314.437 997.625,314.438ZM1104.7,222.362L1100.17,222.362L1116.55,312.3L1120.59,312.3L1120.59,314.438L1095.92,314.438L1095.92,312.3L1099.38,312.3L1095.43,285.992L1075.4,285.992L1069.97,312.3L1074.02,312.3L1074.02,314.438L1061.19,314.438L1061.19,312.3L1064.75,312.3L1083.59,222.362L1079.54,222.362L1079.54,220.225L1104.7,220.225L1104.7,222.362ZM1190.62,314.438L1166.25,314.438L1166.25,312.3L1170.3,312.3L1170.3,222.362L1166.25,222.362L1166.25,220.225L1194.86,220.225C1196.84,220.225 1204.14,219.817 1208.28,222.45C1212.83,225.325 1214.1,229.187 1214.1,233.954L1214.1,254.013C1214.1,255 1214.4,259.521 1210.75,262.646C1207.4,265.608 1202.95,265.771 1202.95,266.183C1202.95,266.754 1208.98,267.25 1213.12,270.046C1217.36,272.921 1217.75,275.962 1217.75,280.158L1217.75,312.3L1221.8,312.3L1221.8,314.438L1201.38,314.438L1201.38,276.788C1201.38,273.825 1202.07,270.946 1199.2,269.221C1197.43,268.071 1194.08,268.317 1192.2,268.317L1186.67,268.317L1186.67,312.3L1190.62,312.3L1190.62,314.438ZM1284.82,314.438L1272,314.438L1272,312.3L1275.94,312.3L1275.94,222.362L1272,222.362L1272,220.225L1292.42,220.225L1313.04,301.858L1313.04,222.362L1309.1,222.362L1309.1,220.225L1321.92,220.225L1321.92,222.362L1317.88,222.362L1317.88,314.438L1300.61,314.438L1280.78,236.175L1280.78,312.3L1284.82,312.3L1284.82,314.438ZM352.671,228.529C352.671,223.267 350.7,221.129 346.654,221.213C342.312,221.213 339.846,223.104 339.846,228.529L339.846,306.462C339.846,310.408 341.129,313.45 346.063,313.45C350.896,313.45 352.671,311.475 352.671,306.462L352.671,228.529ZM980.742,312.063L990.5,312.063C990.829,312.063 994.117,312.063 995.763,310.783C997.517,309.321 998.171,307.767 998.171,305.663L998.171,268.663C998.171,267.108 998.067,265.833 997.075,264.642C995.983,263.367 994.117,263 992.033,263L980.742,263L980.742,312.063ZM1075.99,282.375L1094.54,282.375L1085.85,231.162L1075.99,282.375ZM773.817,228.529C773.817,226.721 774.113,225.404 772.829,224.008C771.446,222.529 769.375,222.362 767.796,222.362L762.763,222.362L762.763,266.262L768.683,266.262C770.558,266.262 772.042,265.608 773.025,264.454C774.208,263.058 773.817,260.838 773.817,259.688L773.817,228.529ZM1197.73,228.529C1197.73,226.721 1198.02,225.404 1196.74,224.008C1195.36,222.529 1193.28,222.362 1191.7,222.362L1186.67,222.362L1186.67,266.262L1192.6,266.262C1194.47,266.262 1195.95,265.608 1196.94,264.454C1198.12,263.058 1197.73,260.838 1197.73,259.688L1197.73,228.529ZM247.675,218.963C247.675,216.95 247.788,215.4 246.579,213.938C245.262,212.383 243.4,212.108 240.771,212.108L235.292,212.108L235.292,261.9L241.867,261.9C243.95,261.9 245.592,261.175 246.688,259.892C248.004,258.337 247.675,255.871 247.675,254.596L247.675,218.963ZM980.742,212.108L980.742,260.167L990.279,260.167C990.612,260.167 992.583,260.258 993.788,258.979C994.883,257.792 994.558,256.058 994.558,255.142L994.558,218.321C994.558,217.958 994.775,214.487 993.788,213.3C992.804,212.108 988.637,212.108 988.529,212.108L980.742,212.108Z" style="fill:white;"/>
            </g>
        </g>
    </g>
</svg>
