<?xml version="1.0" encoding="UTF-8" standalone="no"?>
<!DOCTYPE svg PUBLIC "-//W3C//DTD SVG 1.1//EN" "http://www.w3.org/Graphics/SVG/1.1/DTD/svg11.dtd">
<svg width="100%" height="100%" viewBox="0 0 1284 182" version="1.1" xmlns="http://www.w3.org/2000/svg" xmlns:xlink="http://www.w3.org/1999/xlink" xml:space="preserve" style="fill-rule:evenodd;clip-rule:evenodd;stroke-linejoin:round;stroke-miterlimit:1.41421;">
    <g transform="matrix(1,0,0,1,0,-2.21667)">
        <g transform="matrix(4.16667,0,0,4.16667,0,0)">
            <path d="M65.3,5.832C65.3,4.494 65.3,1.939 66.878,1.68L66.878,1.247L58.736,1.247L58.736,1.68C60.315,1.939 60.314,4.494 60.315,5.832L60.313,33.711C60.313,40.311 57.216,43.488 55.643,43.488L55.643,43.994C58.223,43.994 65.3,42.493 65.3,33.402L65.3,5.832ZM1.605,15.091L1.605,32.873C1.604,34.235 1.605,36.834 0,37.098L0,37.539L8.281,37.539L8.281,37.098C6.676,36.834 6.676,34.235 6.676,32.873L6.676,14.221C7.569,14.655 8.11,16.416 8.345,17.506C8.457,18.023 8.517,18.381 8.517,18.381C9.405,23.504 11.118,33.68 11.144,33.821C12.953,44.511 20.503,44.496 23.189,43.687L23.195,43.172C21.074,43.627 17.878,41.084 16.407,33.762L13.113,16.606C13.113,16.606 12.454,13.355 9.204,12.949C8.984,12.922 8.771,12.903 8.682,12.881C12.086,11.608 13.9,9.942 13.9,9.942C16.805,7.424 15.282,3.919 15.282,3.919C14.619,2.27 13.121,1.586 12.239,1.403C11.356,1.219 9.914,1.245 9.914,1.245L0,1.245L0,1.686C1.605,1.95 1.604,4.549 1.605,5.91L1.605,12.889M8.475,10.439C8.099,10.682 7.436,11.06 6.675,11.26L6.675,3.567C6.675,3.567 7.656,3.405 8.589,3.551C9.107,3.631 9.82,3.83 10.324,4.639C10.509,4.936 10.68,5.336 10.744,5.852C10.78,6.141 10.807,6.635 10.7,7.223C10.606,7.741 10.397,8.443 9.908,9.124C9.908,9.124 9.433,9.83 8.475,10.439ZM202.317,1.25L196.315,1.25L196.315,1.69C197.181,1.736 195.378,13.186 195.378,13.186L195.09,15.212L192.524,33.187C192.333,34.533 191.965,37.105 190.343,37.1L190.343,37.541L195.827,37.541L195.827,37.1C194.962,37.055 194.388,36.365 194.263,35.473C194.149,34.75 194.302,33.744 194.302,33.744L196.618,17.545L200.254,17.571L202.96,33.744C202.96,33.744 203.149,34.75 203.065,35.473C202.972,36.365 202.427,37.055 201.564,37.1L201.564,37.541L210.401,37.541L210.401,37.1C208.78,37.105 208.314,34.533 208.069,33.187L202.317,1.25ZM198.353,5.512L199.992,15.724L196.878,15.724L198.353,5.512ZM116.354,1.251L116.354,1.69C115.489,1.736 114.906,2.426 114.765,3.318C114.643,4.041 114.779,5.047 114.779,5.047L117.757,28.436L120.732,5.047C120.732,5.047 120.871,4.041 120.746,3.318C120.606,2.426 120.023,1.736 119.158,1.69L119.158,1.251L124.633,1.251L124.633,1.691C123.012,1.685 122.683,4.258 122.51,5.604L122.47,5.916L118.302,37.543L113.855,37.543C113.855,37.543 110.897,14.98 110.005,7.317L109.844,5.934L109.805,5.604C109.631,4.258 109.302,1.685 107.681,1.691L107.681,1.251L116.354,1.251ZM86.77,30.742C86.77,33.254 87.528,35.355 89.611,35.355C91.691,35.355 92.453,33.254 92.453,30.742L92.455,30.172L92.453,5.911C92.452,4.549 92.453,1.95 90.847,1.687L90.847,1.247L95.904,1.247L95.904,1.687C94.299,1.95 94.3,4.549 94.299,5.911L94.304,29.64L94.299,31.029C94.299,35.02 91.981,38.254 87.998,38.254C84.012,38.254 81.697,35.02 81.697,31.029L81.699,29.64L81.698,5.911C81.696,4.549 81.698,1.95 80.093,1.687L80.093,1.247L88.374,1.247L88.374,1.687C86.768,1.95 86.769,4.549 86.768,5.911L86.769,30.182L86.77,30.742ZM224.173,3.291C224.173,3.291 219.653,2.182 219.653,10.518L218.939,10.518L218.939,1.246L234.478,1.246L234.478,10.518L233.761,10.518C233.761,2.182 229.239,3.291 229.239,3.291L229.239,32.875C229.243,34.236 229.243,36.836 230.845,37.1L230.845,37.541L222.568,37.541L222.568,37.1C224.173,36.836 224.173,34.236 224.173,32.875L224.173,3.291ZM176.038,5.909C176.036,4.549 176.038,1.949 174.433,1.686L174.433,1.244L179.493,1.244L179.493,1.686C177.888,1.949 177.888,4.549 177.888,5.909L177.888,38.346L177.463,38.342L167.755,8.219L167.755,32.869C167.757,34.23 167.755,36.828 169.359,37.094L169.359,37.535L164.299,37.535L164.299,37.094C165.906,36.828 165.906,34.23 165.906,32.869L165.906,5.91C165.906,4.551 165.906,1.95 164.299,1.688L164.299,1.246L170.773,1.244L176.038,17.584L176.038,5.909ZM304.669,5.909C304.669,4.549 304.669,1.949 303.062,1.686L303.062,1.244L308.124,1.244L308.124,1.686C306.519,1.949 306.519,4.549 306.519,5.909L306.523,38.346L306.093,38.342L296.386,8.219L296.386,32.869C296.386,34.23 296.386,36.828 297.991,37.094L297.991,37.535L292.933,37.535L292.933,37.094C294.534,36.828 294.534,34.23 294.534,32.869L294.534,5.91C294.534,4.551 294.534,1.95 292.933,1.688L292.933,1.246L299.402,1.244L304.669,17.584L304.669,5.909ZM246.853,37.541L246.853,37.098C248.458,36.836 248.456,34.236 248.458,32.875L248.458,5.91C248.456,4.551 248.458,1.95 246.853,1.687L246.853,1.246L255.134,1.246L255.134,1.687C253.528,1.95 253.528,4.551 253.528,5.91L253.528,32.875C253.528,34.236 253.528,36.836 255.134,37.098L255.134,37.541L246.853,37.541ZM274.056,0.532C269.947,0.532 265.761,6.364 265.761,19.395C265.761,29.979 269.95,38.258 274.056,38.258C278.175,38.258 282.355,29.979 282.355,19.395C282.355,6.364 278.179,0.532 274.056,0.532ZM274.056,36.271C272.636,36.271 271.347,29.495 271.345,19.395C271.347,9.297 272.636,2.518 274.056,2.518C275.483,2.518 276.761,9.618 276.767,19.401C276.761,29.186 275.478,36.271 274.056,36.271ZM136.178,37.536L136.178,37.095C137.785,36.831 137.781,34.23 137.785,32.872L137.785,5.911C137.781,4.552 137.785,1.951 136.178,1.687L136.178,1.247L149.125,1.25L149.125,9.023L148.409,9.023C148.409,7.214 148.244,3.25 144.316,3.25C143.649,3.25 143.432,3.273 142.854,3.564L142.854,13.872L142.851,13.872L142.854,13.872L142.854,13.874L142.857,13.874L144.697,13.884C144.697,13.884 144.861,13.894 144.927,13.878C146.795,13.442 146.973,11.447 146.973,11.447L147.709,11.447L147.709,18.82L146.975,18.82C146.975,17.428 146.14,16.204 144.933,15.755C144.871,15.732 144.789,15.739 144.789,15.739L142.854,15.731L142.854,35.216C143.589,35.372 143.785,35.425 144.336,35.425C146.811,35.425 148.409,33.161 148.409,28.378L149.125,28.378L149.125,37.542L136.178,37.536ZM41.882,18.82L41.148,18.82C41.148,17.428 40.314,16.204 39.106,15.755C39.044,15.732 38.963,15.739 38.963,15.739L37.027,15.731L37.027,35.216C37.762,35.372 37.958,35.425 38.509,35.425C40.984,35.425 42.582,33.161 42.582,28.378L43.298,28.378L43.298,37.542L30.352,37.536L30.352,37.095C31.958,36.831 31.955,34.23 31.958,32.872L31.958,5.911C31.955,4.552 31.958,1.951 30.352,1.687L30.352,1.247L43.298,1.25L43.298,9.023L42.582,9.023C42.582,7.214 42.417,3.25 38.49,3.25C37.823,3.25 37.605,3.273 37.027,3.564L37.027,13.872L37.024,13.872L37.027,13.872L37.027,13.874L37.03,13.874L38.871,13.884C38.871,13.884 39.035,13.894 39.101,13.878C40.968,13.442 41.146,11.447 41.146,11.447L41.882,11.447" style="fill:white;fill-rule:nonzero;"/>
        </g>
    </g>
</svg>
