<?xml version="1.0" encoding="UTF-8" standalone="no"?>
<!DOCTYPE svg PUBLIC "-//W3C//DTD SVG 1.1//EN" "http://www.w3.org/Graphics/SVG/1.1/DTD/svg11.dtd">
<svg width="100%" height="100%" viewBox="0 0 1536 1536" version="1.1" xmlns="http://www.w3.org/2000/svg" xmlns:xlink="http://www.w3.org/1999/xlink" xml:space="preserve" style="fill-rule:evenodd;clip-rule:evenodd;stroke-linejoin:round;stroke-miterlimit:1.41421;">
    <g transform="matrix(1,0,0,1,-128,-128)">
        <path d="M1412,734C1412,715.333 1406,700 1394,688L1303,598C1290.33,585.333 1275.33,579 1258,579C1240.67,579 1225.67,585.333 1213,598L805,1005L579,779C566.333,766.333 551.333,760 534,760C516.667,760 501.667,766.333 489,779L398,869C386,881 380,896.333 380,915C380,933 386,948 398,960L760,1322C772.667,1334.67 787.667,1341 805,1341C823,1341 838.333,1334.67 851,1322L1394,779C1406,767 1412,752 1412,734ZM1664,896C1664,1035.33 1629.67,1163.83 1561,1281.5C1492.33,1399.17 1399.17,1492.33 1281.5,1561C1163.83,1629.67 1035.33,1664 896,1664C756.667,1664 628.167,1629.67 510.5,1561C392.833,1492.33 299.667,1399.17 231,1281.5C162.333,1163.83 128,1035.33 128,896C128,756.667 162.333,628.167 231,510.5C299.667,392.833 392.833,299.667 510.5,231C628.167,162.333 756.667,128 896,128C1035.33,128 1163.83,162.333 1281.5,231C1399.17,299.667 1492.33,392.833 1561,510.5C1629.67,628.167 1664,756.667 1664,896Z" style="fill:rgb(74,74,74);fill-rule:nonzero;"/>
    </g>
</svg>
