<?xml version="1.0" encoding="UTF-8" standalone="no"?>
<!DOCTYPE svg PUBLIC "-//W3C//DTD SVG 1.1//EN" "http://www.w3.org/Graphics/SVG/1.1/DTD/svg11.dtd">
<svg width="100%" height="100%" viewBox="0 0 20 20" version="1.1" xmlns="http://www.w3.org/2000/svg" xmlns:xlink="http://www.w3.org/1999/xlink" xml:space="preserve" style="fill-rule:evenodd;clip-rule:evenodd;stroke-linejoin:round;stroke-miterlimit:1.41421;">
    <g transform="matrix(1,0,0,1,0,-2.46612)">
        <path d="M2.582,13.891C2.31,14.159 1.873,14.159 1.603,13.891C1.333,13.623 1.332,13.19 1.603,12.922L9.511,5.092C9.781,4.824 10.218,4.824 10.49,5.092L18.398,12.922C18.668,13.19 18.668,13.623 18.398,13.891C18.127,14.159 17.689,14.159 17.42,13.891L10,6.75L2.582,13.891Z" style="fill:rgb(239,71,73);fill-rule:nonzero;"/>
    </g>
    <g transform="matrix(1,0,0,1,0,3.42642)">
        <path d="M2.582,13.891C2.31,14.159 1.873,14.159 1.603,13.891C1.333,13.623 1.332,13.19 1.603,12.922L9.511,5.092C9.781,4.824 10.218,4.824 10.49,5.092L18.398,12.922C18.668,13.19 18.668,13.623 18.398,13.891C18.127,14.159 17.689,14.159 17.42,13.891L10,6.75L2.582,13.891Z" style="fill:rgb(239,71,73);fill-rule:nonzero;"/>
    </g>
</svg>
