<?xml version="1.0" encoding="UTF-8" standalone="no"?>
<!DOCTYPE svg PUBLIC "-//W3C//DTD SVG 1.1//EN" "http://www.w3.org/Graphics/SVG/1.1/DTD/svg11.dtd">
<svg width="100%" height="100%" viewBox="0 0 41 41" version="1.1" xmlns="http://www.w3.org/2000/svg" xmlns:xlink="http://www.w3.org/1999/xlink" xml:space="preserve" style="fill-rule:evenodd;clip-rule:evenodd;stroke-linejoin:round;stroke-miterlimit:1.41421;">
    <g>
        <path d="M34.405,5.915C30.461,1.972 25.713,0 20.16,0C14.607,0 9.859,1.972 5.915,5.915C1.971,9.858 0,14.607 0,20.16C0,25.713 1.972,30.461 5.915,34.405C9.858,38.349 14.607,40.32 20.16,40.32C25.713,40.32 30.461,38.348 34.405,34.405C38.349,30.462 40.32,25.713 40.32,20.16C40.32,14.607 38.348,9.859 34.405,5.915ZM33.85,28.705C33.204,29.703 32.465,30.665 31.565,31.565C28.379,34.751 24.577,36.345 20.16,36.345C15.743,36.345 11.941,34.752 8.755,31.565C5.569,28.378 3.975,24.577 3.975,20.16C3.975,15.743 5.568,11.941 8.755,8.755C11.942,5.569 15.743,3.975 20.16,3.975C24.577,3.975 28.379,5.568 31.565,8.755C34.751,11.942 36.345,15.743 36.345,20.16C36.345,22.422 35.913,24.518 35.077,26.458C34.759,27.241 34.344,27.988 33.85,28.705Z" style="fill:rgb(74,74,74);fill-rule:nonzero;"/>
        <path d="M18.6,20.223L11.715,23.364L13.391,27.04L22.639,22.818L22.639,7.639L18.6,7.639L18.6,20.223Z" style="fill:rgb(74,74,74);fill-rule:nonzero;"/>
    </g>
</svg>
