<?xml version="1.0" encoding="UTF-8" standalone="no"?>
<!DOCTYPE svg PUBLIC "-//W3C//DTD SVG 1.1//EN" "http://www.w3.org/Graphics/SVG/1.1/DTD/svg11.dtd">
<svg width="100%" height="100%" viewBox="0 0 41 41" version="1.1" xmlns="http://www.w3.org/2000/svg" xmlns:xlink="http://www.w3.org/1999/xlink" xml:space="preserve" style="fill-rule:evenodd;clip-rule:evenodd;stroke-linejoin:round;stroke-miterlimit:1.41421;">
    <g>
        <path d="M2.341,10.749L10.308,10.749L10.308,40.32L2.341,40.32L2.341,10.749ZM21.073,10.749L21.073,13.088C22.292,12.14 23.747,10.749 26.677,10.749C29.473,10.749 37.584,11.891 37.584,21.971L37.584,40.32L29.13,40.32L29.13,21.709C29.13,19.518 27.897,17.993 25.219,17.993C20.771,17.993 21.073,21.709 21.073,21.709L21.073,40.32L13.039,40.32L13.039,10.749L21.073,10.749ZM10.307,4.029C10.307,6.26 8.509,8.058 6.278,8.058C4.06,8.058 2.249,6.26 2.249,4.029C2.25,1.811 4.061,0 6.279,0C8.51,0 10.307,1.811 10.307,4.029Z" style="fill:rgb(37,37,37);"/>
    </g>
</svg>
