<?xml version="1.0" encoding="UTF-8" standalone="no"?>
<!DOCTYPE svg PUBLIC "-//W3C//DTD SVG 1.1//EN" "http://www.w3.org/Graphics/SVG/1.1/DTD/svg11.dtd">
<svg width="100%" height="100%" viewBox="0 0 501 501" version="1.1" xmlns="http://www.w3.org/2000/svg" xmlns:xlink="http://www.w3.org/1999/xlink" xml:space="preserve" style="fill-rule:evenodd;clip-rule:evenodd;stroke-linejoin:round;stroke-miterlimit:1.41421;">
    <g>
        <path d="M396.319,0L103.884,0C87.254,0 73.723,13.53 73.723,30.161L73.723,470.043C73.723,486.674 87.253,500.204 103.884,500.204L342.86,500.204C345.645,500.204 348.315,499.097 350.285,497.129L423.405,424.008C425.374,422.039 426.48,419.368 426.48,416.584L426.48,30.161C426.48,13.53 412.95,0 396.319,0ZM353.361,464.353L353.361,436.244C353.361,431.193 357.47,427.083 362.522,427.083L390.631,427.083L353.361,464.353ZM103.884,21L396.319,21C401.371,21 405.48,25.109 405.48,30.161L405.48,62.613L94.723,62.613L94.723,30.161C94.723,25.109 98.833,21 103.884,21ZM94.723,470.043L94.723,83.613L405.48,83.613L405.48,406.083L362.522,406.083C345.891,406.083 332.361,419.613 332.361,436.244L332.361,479.204L103.884,479.204C98.833,479.204 94.723,475.094 94.723,470.043Z" style="fill:rgb(74,74,74);fill-rule:nonzero;"/>
        <path d="M137.952,161.361L275.452,161.361C281.251,161.361 285.952,156.66 285.952,150.861C285.952,145.062 281.251,140.361 275.452,140.361L137.952,140.361C132.153,140.361 127.452,145.062 127.452,150.861C127.452,156.66 132.153,161.361 137.952,161.361Z" style="fill:rgb(74,74,74);fill-rule:nonzero;"/>
        <path d="M317.452,161.361L352.952,161.361C358.751,161.361 363.452,156.66 363.452,150.861C363.452,145.062 358.751,140.361 352.952,140.361L317.452,140.361C311.653,140.361 306.952,145.062 306.952,150.861C306.952,156.66 311.653,161.361 317.452,161.361Z" style="fill:rgb(74,74,74);fill-rule:nonzero;"/>
        <path d="M137.952,244.736L275.452,244.736C281.251,244.736 285.952,240.035 285.952,234.236C285.952,228.437 281.251,223.736 275.452,223.736L137.952,223.736C132.153,223.736 127.452,228.437 127.452,234.236C127.452,240.035 132.153,244.736 137.952,244.736Z" style="fill:rgb(74,74,74);fill-rule:nonzero;"/>
        <path d="M317.452,244.736L352.952,244.736C358.751,244.736 363.452,240.035 363.452,234.236C363.452,228.437 358.751,223.736 352.952,223.736L317.452,223.736C311.653,223.736 306.952,228.437 306.952,234.236C306.952,240.035 311.653,244.736 317.452,244.736Z" style="fill:rgb(74,74,74);fill-rule:nonzero;"/>
        <path d="M285.952,317.611C285.952,311.812 281.251,307.111 275.452,307.111L137.952,307.111C132.153,307.111 127.452,311.812 127.452,317.611C127.452,323.41 132.153,328.111 137.952,328.111L275.452,328.111C281.251,328.111 285.952,323.41 285.952,317.611Z" style="fill:rgb(74,74,74);fill-rule:nonzero;"/>
        <path d="M317.452,328.111L352.952,328.111C358.751,328.111 363.452,323.41 363.452,317.611C363.452,311.812 358.751,307.111 352.952,307.111L317.452,307.111C311.653,307.111 306.952,311.812 306.952,317.611C306.952,323.41 311.653,328.111 317.452,328.111Z" style="fill:rgb(74,74,74);fill-rule:nonzero;"/>
        <path d="M352.952,388.111C358.751,388.111 363.452,383.41 363.452,377.611C363.452,371.812 358.751,367.111 352.952,367.111L252.952,367.111C247.153,367.111 242.452,371.812 242.452,377.611C242.452,383.41 247.153,388.111 252.952,388.111L352.952,388.111Z" style="fill:rgb(74,74,74);fill-rule:nonzero;"/>
    </g>
</svg>
