<?xml version="1.0" encoding="UTF-8" standalone="no"?>
<!DOCTYPE svg PUBLIC "-//W3C//DTD SVG 1.1//EN" "http://www.w3.org/Graphics/SVG/1.1/DTD/svg11.dtd">
<svg width="100%" height="100%" viewBox="0 0 200 256" version="1.1" xmlns="http://www.w3.org/2000/svg" xmlns:xlink="http://www.w3.org/1999/xlink" xml:space="preserve" style="fill-rule:evenodd;clip-rule:evenodd;stroke-linejoin:round;stroke-miterlimit:1.41421;">
    <g transform="matrix(1,0,0,1,-156.437,-128)">
        <path d="M262.031,128C191.843,128 156.437,178.094 156.437,219.859C156.437,245.156 166.046,267.656 186.687,276.031C190.093,277.343 193.109,276.093 194.093,272.359C194.781,269.781 196.39,263.265 197.109,260.547C198.093,256.859 197.718,255.547 194.984,252.359C189.031,245.375 185.234,236.343 185.234,223.531C185.234,186.359 213.172,153.109 257.968,153.109C297.593,153.109 319.438,177.218 319.438,209.468C319.438,251.843 300.593,287.593 272.626,287.593C257.142,287.593 245.564,274.891 249.282,259.296C253.72,240.702 262.313,220.593 262.313,207.124C262.313,195.093 255.813,185.03 242.407,185.03C226.595,185.03 213.923,201.327 213.923,223.108C213.923,236.983 218.626,246.374 218.626,246.374C218.626,246.374 202.47,314.577 199.626,326.499C193.97,350.296 198.782,379.437 199.188,382.374C199.422,384.124 201.688,384.546 202.688,383.218C204.157,381.327 222.969,358.202 229.36,335.093C231.188,328.577 239.751,294.671 239.751,294.671C244.892,304.421 259.892,313.016 275.845,313.016C323.329,313.016 355.565,269.938 355.565,212.234C355.562,168.625 318.438,128 262.031,128Z" style="fill:rgb(37,37,37);fill-rule:nonzero;"/>
    </g>
</svg>
