<?xml version="1.0" encoding="UTF-8" standalone="no"?>
<!DOCTYPE svg PUBLIC "-//W3C//DTD SVG 1.1//EN" "http://www.w3.org/Graphics/SVG/1.1/DTD/svg11.dtd">
<svg width="100%" height="100%" viewBox="0 0 109 92" version="1.1" xmlns="http://www.w3.org/2000/svg" xmlns:xlink="http://www.w3.org/1999/xlink" xml:space="preserve" style="fill-rule:evenodd;clip-rule:evenodd;stroke-linejoin:round;stroke-miterlimit:1.41421;">
    <g transform="matrix(1,0,0,1,0,-0.225998)">
        <path d="M33.648,75.316C35.83,75.379 37.707,76.195 39.27,77.758C40.898,79.387 41.715,81.355 41.715,83.656C41.715,85.961 40.898,87.926 39.27,89.555C37.641,91.183 35.672,92 33.371,92C31.066,92 29.102,91.183 27.473,89.555C25.844,87.926 25.027,85.961 25.027,83.656C25.027,81.355 25.844,79.387 27.473,77.758C29.036,76.195 30.908,75.379 33.094,75.316L29.199,75.316C28.07,75.316 27.094,74.898 26.266,74.074C25.441,73.25 25.027,72.273 25.027,71.14C25.027,70.535 25.266,69.676 25.746,68.566C26.223,67.461 26.863,66.168 27.668,64.687C28.473,63.211 28.918,62.387 29.004,62.211L17.469,8.57L4.172,8.57C3.043,8.57 2.066,8.156 1.238,7.332C0.414,6.504 0,5.527 0,4.398C0,3.269 0.414,2.289 1.238,1.465C2.062,0.64 3.043,0.226 4.172,0.226L20.859,0.226C21.555,0.226 22.172,0.367 22.715,0.648C23.258,0.933 23.691,1.269 24.02,1.66C24.344,2.051 24.625,2.586 24.867,3.258C25.105,3.93 25.266,4.508 25.355,4.984C25.441,5.461 25.562,6.101 25.711,6.906C25.863,7.711 25.961,8.265 26.008,8.57L104.285,8.57C105.414,8.57 106.395,8.98 107.219,9.808C108.043,10.633 108.457,11.613 108.457,12.742L108.457,46.113C108.457,47.156 108.109,48.082 107.414,48.887C106.719,49.687 105.828,50.156 104.742,50.285L36.695,58.238C36.738,58.543 36.836,59.008 36.988,59.637C37.141,60.27 37.27,60.844 37.379,61.367C37.488,61.887 37.543,62.363 37.543,62.801C37.543,63.496 37.02,64.887 35.977,66.969L95.941,66.969C97.07,66.969 98.047,67.383 98.875,68.211C99.699,69.035 100.113,70.012 100.113,71.14C100.113,72.273 99.699,73.25 98.875,74.074C98.047,74.898 97.07,75.316 95.941,75.316L92.05,75.316C94.232,75.379 96.109,76.195 97.672,77.758C99.301,79.387 100.113,81.355 100.113,83.656C100.113,85.961 99.301,87.926 97.672,89.555C96.043,91.183 94.074,92 91.773,92C89.469,92 87.5,91.183 85.871,89.555C84.246,87.926 83.43,85.961 83.43,83.656C83.43,81.355 84.246,79.387 85.871,77.758C87.434,76.195 89.311,75.379 91.496,75.316L33.648,75.316Z" style="fill:white;"/>
    </g>
</svg>
