<?xml version="1.0" encoding="UTF-8" standalone="no"?>
<!DOCTYPE svg PUBLIC "-//W3C//DTD SVG 1.1//EN" "http://www.w3.org/Graphics/SVG/1.1/DTD/svg11.dtd">
<svg width="100%" height="100%" viewBox="0 0 480 480" version="1.1" xmlns="http://www.w3.org/2000/svg" xmlns:xlink="http://www.w3.org/1999/xlink" xml:space="preserve" style="fill-rule:evenodd;clip-rule:evenodd;stroke-linejoin:round;stroke-miterlimit:1.41421;">
    <path d="M437.333,165.333C429.866,165.333 422.506,167.466 416,171.306L416,165.333C416,129.92 398.08,112 362.667,112L117.333,112C81.92,112 64,129.92 64,165.333L64,171.306C57.493,167.466 50.133,165.439 42.667,165.333C19.093,165.333 0,184.427 0,208L0,293.333C0,316.907 19.093,336 42.667,336L64,336L64,357.333C64,363.2 68.8,368 74.667,368C80.534,368 85.334,363.2 85.334,357.333L85.334,336L394.667,336L394.667,357.333C394.667,363.2 399.467,368 405.334,368C411.2,368 416,363.2 416,357.333L416,336L437.227,336C460.8,336 480,316.907 480,293.333L480,208C480,184.427 460.907,165.333 437.333,165.333ZM85.333,165.333C85.333,141.76 93.653,133.333 117.333,133.333L362.666,133.333C386.239,133.333 394.666,141.76 394.666,165.333L394.666,240L85.333,240L85.333,165.333ZM458.667,293.333C458.667,305.173 448.96,314.666 437.227,314.666L42.667,314.666C30.934,314.666 21.334,305.066 21.334,293.333L21.334,208C21.334,196.267 30.934,186.667 42.667,186.667C54.4,186.667 64,196.267 64,208L64,261.333L416,261.333L416,208C416,196.267 425.6,186.667 437.333,186.667C449.066,186.667 458.666,196.267 458.666,208L458.666,293.333L458.667,293.333Z" style="fill:rgb(74,74,74);fill-rule:nonzero;"/>
</svg>
