<?xml version="1.0" encoding="UTF-8" standalone="no"?>
<!DOCTYPE svg PUBLIC "-//W3C//DTD SVG 1.1//EN" "http://www.w3.org/Graphics/SVG/1.1/DTD/svg11.dtd">
<svg width="100%" height="100%" viewBox="0 0 41 41" version="1.1" xmlns="http://www.w3.org/2000/svg" xmlns:xlink="http://www.w3.org/1999/xlink" xml:space="preserve" style="fill-rule:evenodd;clip-rule:evenodd;stroke-linejoin:round;stroke-miterlimit:1.41421;">
    <path d="M40.32,7.888C38.733,8.57 37.146,8.996 35.561,9.168C37.352,8.093 38.563,6.575 39.194,4.614C37.555,5.586 35.807,6.25 33.949,6.609C32.312,4.871 30.3,4 27.911,4C25.627,4 23.678,4.806 22.065,6.418C20.453,8.029 19.649,9.978 19.649,12.262C19.649,12.877 19.716,13.507 19.853,14.156C16.475,13.986 13.307,13.136 10.348,11.611C7.389,10.084 4.878,8.051 2.814,5.509C2.064,6.788 1.689,8.178 1.689,9.679C1.689,11.094 2.021,12.408 2.687,13.619C3.352,14.829 4.248,15.81 5.373,16.56C4.042,16.509 2.797,16.16 1.638,15.511L1.638,15.613C1.638,17.608 2.265,19.36 3.518,20.871C4.772,22.381 6.355,23.332 8.263,23.723C7.547,23.911 6.822,24.005 6.089,24.005C5.612,24.005 5.091,23.962 4.528,23.878C5.057,25.532 6.029,26.892 7.444,27.958C8.861,29.024 10.463,29.574 12.254,29.608C9.253,31.961 5.833,33.139 1.996,33.139C1.262,33.139 0.596,33.105 0,33.036C3.838,35.509 8.068,36.745 12.689,36.745C15.622,36.745 18.377,36.281 20.952,35.352C23.528,34.423 25.728,33.178 27.552,31.617C29.377,30.056 30.951,28.261 32.273,26.231C33.595,24.202 34.579,22.084 35.227,19.874C35.875,17.665 36.199,15.452 36.199,13.235C36.199,12.758 36.19,12.399 36.173,12.16C37.795,10.984 39.176,9.56 40.32,7.888Z" style="fill:rgb(37,37,37);fill-rule:nonzero;"/>
</svg>
