<?xml version="1.0" encoding="UTF-8" standalone="no"?>
<!DOCTYPE svg PUBLIC "-//W3C//DTD SVG 1.1//EN" "http://www.w3.org/Graphics/SVG/1.1/DTD/svg11.dtd">
<svg width="100%" height="100%" viewBox="0 0 200 44" version="1.1" xmlns="http://www.w3.org/2000/svg" xmlns:xlink="http://www.w3.org/1999/xlink" xml:space="preserve" style="fill-rule:evenodd;clip-rule:evenodd;stroke-linejoin:round;stroke-miterlimit:1.41421;">
    <g id="WSI-TTT-Logo" transform="matrix(0.650796,0,0,0.650796,-99.1436,-406.097)">
        <g id="WSI" transform="matrix(0.75,0,0,0.75,0,0)">
            <path d="M509.867,854.1C511.379,852.94 512.445,851.531 512.445,850.713C512.445,850.541 512.356,850.416 512.265,850.416C512.191,850.416 512.087,850.443 511.983,850.437C511.848,850.465 511.721,850.487 511.597,850.487C510.679,850.487 510.008,849.917 510.008,848.957C510.008,848.188 510.765,847.516 511.577,847.516C512.84,847.515 513.676,848.483 513.676,850.092C513.676,851.676 512.813,853.033 510.409,854.815L509.867,854.1ZM370.355,850.599L369.536,850.599L369.425,843.575L370.367,843.476C371.089,847.473 373.528,849.603 376.627,849.597C379.088,849.597 380.685,848.281 380.685,845.972C380.685,844.535 380.028,843.569 378.312,843.124L374.327,842.092C371.433,841.341 369.732,840.02 369.732,837.261C369.732,833.959 371.941,832.136 375.125,832.131C376.903,832.131 378.339,832.648 379.679,833.852L380.672,832.268L381.548,832.268L381.855,838.68L380.852,838.68C380.14,835.944 378.364,833.22 375.205,833.239C372.792,833.239 371.697,834.707 371.697,836.175C371.697,837.405 372.347,838.499 374.669,839.131L378.515,840.192C381.321,840.952 382.668,842.801 382.668,845.404C382.668,848.353 380.503,850.687 376.627,850.7C374.604,850.7 372.817,849.997 371.471,848.804L370.355,850.599ZM394.144,850.581L393.319,850.581L393.229,843.555L394.168,843.457C394.88,847.448 397.331,849.577 400.415,849.577C402.877,849.577 404.489,848.261 404.477,845.947C404.477,844.521 403.817,843.553 402.115,843.101L398.119,842.072C395.221,841.333 393.524,839.996 393.524,837.247C393.524,833.939 395.743,832.119 398.916,832.119C400.693,832.119 402.128,832.633 403.46,833.836L404.463,832.261L405.339,832.261L405.631,838.665L404.653,838.665C403.928,835.924 402.164,833.217 398.992,833.217C396.593,833.217 395.491,834.7 395.491,836.156C395.491,837.388 396.137,838.472 398.461,839.112L402.307,840.168C405.124,840.932 406.457,842.781 406.457,845.381C406.469,848.336 404.287,850.679 400.415,850.685C398.397,850.685 396.62,849.975 395.261,848.789L394.144,850.581ZM252.052,833.696C251.455,833.696 251.225,833.919 251.225,834.245C251.225,834.488 251.404,835.108 251.632,835.788L254.92,846.131L254.969,846.131L257.931,836.241L257.256,834.332C257.067,833.795 256.735,833.691 255.821,833.691L255.061,833.691L255.061,832.593L262.195,832.588L262.195,833.684L261.433,833.691C260.259,833.691 260.1,834.06 260.1,834.504C260.1,835.101 260.365,835.891 260.672,836.829L263.64,846.125L263.693,846.125L266.549,836.28C266.701,835.787 266.804,835.315 266.804,834.924C266.791,833.885 265.673,833.736 264.453,833.684L264.453,832.581L270.433,832.581L270.433,833.683C268.832,833.759 268.371,834.549 267.756,836.625L263.591,850.675L262.485,850.675L258.527,838.288L258.476,838.288L254.883,850.677L253.764,850.677L248.484,834.788C248.165,833.847 248.015,833.696 246.835,833.701L246.467,833.701L246.467,832.597L253.396,832.593L253.411,833.696L252.052,833.696ZM426.235,841.38C426.235,836.604 422.847,832.099 417.692,832.099C411.941,832.105 409.212,837.709 409.212,841.399C409.212,846.164 412.601,850.675 417.756,850.667C423.505,850.667 426.235,845.067 426.235,841.38ZM435.425,850.279L428.427,850.279L428.427,849.193C430.629,849.117 431.288,848.275 431.288,846.272L431.283,834.377C430.736,833.668 430.119,833.565 428.787,833.565L428.407,833.565L428.407,832.465L433.509,832.459L443.219,845.768L443.269,845.768L443.269,837.04C443.257,834.764 443.016,833.625 440.401,833.559L440.401,832.455L447.372,832.449L447.372,833.556C446.165,833.656 445.301,833.876 444.985,834.543C444.653,835.209 444.516,836.048 444.516,837.361L444.516,850.653L443.525,850.653L432.571,835.517L432.52,835.517L432.532,846.248C432.532,848.248 432.775,849.092 435.415,849.189L435.425,850.279ZM465.603,841.341C465.591,836.58 462.2,832.067 457.044,832.073C451.313,832.08 448.563,837.687 448.575,841.367C448.575,846.14 451.956,850.647 457.109,850.64C462.857,850.633 465.603,845.032 465.603,841.341ZM533.925,835.439L533.937,846.172C533.937,848.176 534.188,849.016 536.829,849.111L536.829,850.213L529.836,850.22L529.827,849.119C532.033,849.047 532.704,848.203 532.7,846.196L532.679,834.299C532.159,833.587 531.527,833.485 530.193,833.485L529.827,833.485L529.827,832.392L534.913,832.385L544.639,845.693L544.676,845.693L544.676,836.965C544.676,834.693 544.425,833.556 541.808,833.483L541.808,832.379L548.776,832.372L548.776,833.477C547.569,833.576 546.707,833.801 546.388,834.467C546.063,835.131 545.921,835.973 545.921,837.279L545.936,850.576L544.929,850.576L533.976,835.439L533.925,835.439ZM564.012,839.327L563.032,839.327C562.219,836.041 560.569,833.099 557.411,833.099C553.704,833.105 552.156,836.712 552.156,841.333C552.156,843.141 552.281,845.093 553.092,846.749C553.932,848.455 555.605,849.465 557.5,849.465C561.076,849.465 562.76,847.068 563.248,843.913L564.392,844.121C563.821,848.12 561.42,850.556 557.168,850.567C554.871,850.567 552.701,849.539 551.177,847.857C549.667,846.209 548.991,843.96 548.991,841.735C548.991,835.604 553.363,832 557.484,832C558.895,832 560.569,832.537 561.725,833.691L562.795,832.135L563.656,832.135L564.012,839.327ZM567.983,847.507C568.824,847.507 569.532,848.193 569.532,849.033C569.532,849.865 568.835,850.548 567.999,850.548C567.144,850.548 566.473,849.872 566.473,849.033C566.461,848.201 567.144,847.507 567.983,847.507ZM280.151,833.672L278.787,833.672C277.833,833.672 277.415,833.952 277.415,834.941L277.415,848.044C277.415,849.033 277.833,849.303 278.813,849.303L280.165,849.303L280.171,850.404L271.995,850.404L271.995,849.309L273.352,849.309C274.317,849.303 274.743,849.033 274.743,848.044L274.724,834.941C274.724,833.952 274.305,833.683 273.34,833.683L271.983,833.683L271.983,832.581L280.151,832.569L280.151,833.672ZM282.8,832.568L290.975,832.563L290.975,833.671L289.619,833.671C288.652,833.671 288.232,833.939 288.232,834.931L288.244,848.327C288.244,849.196 288.587,849.3 290.072,849.293C294.721,849.293 295.961,849.06 297.016,843.795L297.993,843.795L297.537,850.392L282.825,850.403L282.825,849.3L284.183,849.3C285.135,849.3 285.556,849.028 285.556,848.039L285.556,834.935C285.556,833.945 285.135,833.671 284.171,833.671L282.812,833.672L282.8,832.568ZM299.796,832.56L307.948,832.541L307.948,833.656L306.587,833.663C305.624,833.663 305.209,833.927 305.209,834.917L305.217,848.319C305.217,849.184 305.573,849.281 307.045,849.281C311.692,849.276 312.923,849.053 313.987,843.777L314.979,843.777L314.509,850.384L299.796,850.392L299.796,849.288L301.155,849.288C302.12,849.288 302.527,849.008 302.527,848.023L302.527,834.917C302.527,833.927 302.108,833.663 301.148,833.663L299.796,833.663L299.796,832.56ZM325.163,850.373L316.997,850.373L316.997,849.276L318.343,849.276C319.309,849.271 319.728,849 319.728,848.013L319.713,834.909C319.713,833.92 319.297,833.649 318.332,833.649L316.972,833.649L316.972,832.541L325.148,832.537L325.148,833.639L323.791,833.639C322.824,833.639 322.412,833.92 322.412,834.909L322.419,848.013C322.419,849 322.837,849.271 323.791,849.271L325.163,849.271L325.163,850.373ZM337.713,849.259C339.201,849.259 339.644,849.032 339.644,848.615C339.644,848.383 339.543,848.043 339.289,847.397L338.136,844.46L331.457,844.48L330.797,846.441C330.543,847.136 330.428,847.571 330.428,847.84C330.428,849.016 331.457,849.236 332.955,849.264L332.955,850.365L326.419,850.372L326.419,849.264C327.761,849.244 328.523,848.544 328.995,847.331L334.96,832.163L335.949,832.161L342.476,848.187C342.857,849.108 343.301,849.256 344.661,849.256L344.661,850.36L337.093,850.365L337.093,849.259L337.713,849.259ZM356.352,850.347L355.616,850.347L349.712,833.748L349.661,833.748L349.675,845.767C349.675,848.039 349.929,849.176 352.545,849.249L352.545,850.353L345.636,850.36L345.636,849.257C347.848,849.053 348.429,848.635 348.429,845.172L348.415,834.887C348.415,833.892 348.007,833.625 347.032,833.625L345.636,833.625L345.636,832.524L351.959,832.521L356.696,845.905L356.748,845.905L361.271,832.517L367.537,832.511L367.537,833.609L366.125,833.617C365.161,833.617 364.743,833.887 364.743,834.871L364.756,847.979C364.756,848.963 365.175,849.236 366.147,849.236L367.548,849.236L367.548,850.337L359.323,850.347L359.323,849.243L360.68,849.243C361.644,849.243 362.083,848.963 362.083,847.979L362.064,833.743L362,833.743L356.352,850.347ZM488.793,833.52L487.385,833.52C486.433,833.52 486.013,833.801 486.013,834.789L486.013,847.892C486.013,848.883 486.433,849.148 487.397,849.148L488.807,849.148L488.807,850.251L480.595,850.255L480.595,849.156L481.951,849.156C482.905,849.148 483.335,848.883 483.335,847.892L483.325,833.649L483.28,833.649L477.624,850.26L476.873,850.26L470.987,833.663L470.935,833.663L470.935,845.673C470.935,847.951 471.189,849.092 473.817,849.16L473.817,850.26L466.908,850.267L466.908,849.167C469.107,848.963 469.688,848.543 469.688,845.08L469.688,834.797C469.688,833.807 469.261,833.541 468.303,833.541L466.895,833.541L466.895,832.431L473.232,832.419L477.968,845.813L478.005,845.813L482.536,832.419L488.793,832.405L488.793,833.52ZM499.369,832.051L505.896,848.071C506.263,848.981 506.705,849.129 508.077,849.129L508.077,850.239L500.512,850.245L500.512,849.141L501.14,849.141C502.603,849.141 503.048,848.915 503.048,848.489C503.048,848.272 502.949,847.924 502.705,847.276L501.548,844.352L494.876,844.359L494.201,846.316C493.975,847.008 493.831,847.461 493.831,847.723C493.831,848.895 494.876,849.117 496.36,849.141L496.36,850.245L489.839,850.251L489.839,849.141C491.181,849.123 491.945,848.424 492.401,847.208L498.38,832.051L499.369,832.051ZM518.887,849.125L520.245,849.124C521.204,849.124 521.625,848.851 521.625,847.859L521.609,834.759C521.609,833.76 521.191,833.485 520.235,833.485L518.867,833.485L518.867,832.393L527.045,832.392L527.045,833.485L525.673,833.485C524.719,833.485 524.308,833.76 524.308,834.759L524.312,847.859C524.312,848.851 524.732,849.124 525.687,849.124L527.045,849.117L527.045,850.22L518.887,850.229L518.887,849.125ZM423.073,841.385C423.073,844.964 422.235,849.56 417.756,849.567C412.652,849.567 412.375,843.891 412.375,841.392C412.375,837.813 413.209,833.211 417.692,833.204C422.795,833.199 423.061,838.888 423.073,841.385ZM462.428,841.341C462.428,844.936 461.589,849.536 457.109,849.536C452.005,849.54 451.739,843.863 451.739,841.367C451.725,837.779 452.564,833.179 457.044,833.179C462.156,833.172 462.428,838.86 462.428,841.341ZM384.357,842.311L390.5,842.303L390.5,844.219L384.357,844.223L384.357,842.311ZM337.652,843.233L334.745,836.035L331.927,843.233L337.652,843.233ZM501.083,843.101L498.151,835.912L495.345,843.101L501.083,843.101Z" style="fill:rgb(37,37,37);"/>
        </g>
        <g transform="matrix(1.53291,0,0,1.53291,152.709,624.128)">
            <path d="M144.617,42.353C144.652,42.363 144.657,42.363 144.687,42.375C144.758,42.405 144.819,42.461 144.851,42.532C144.864,42.562 144.872,42.592 144.876,42.624C144.88,42.652 144.879,42.681 144.876,42.709C144.866,42.808 144.818,42.894 144.77,42.979C144.537,43.391 144.167,43.71 143.735,43.901C143.296,44.095 142.813,44.154 142.337,44.135C141.55,44.103 140.761,43.853 140.169,43.32C140.056,43.219 139.952,43.108 139.857,42.99C139.564,42.626 139.368,42.192 139.271,41.737C139.225,41.518 139.204,41.297 139.196,41.074C139.193,40.753 139.197,40.432 139.199,40.111C139.206,39.44 139.214,38.769 139.219,38.098L139.22,37.667C139.217,37.529 139.214,37.391 139.206,37.253C139.198,37.123 139.188,36.994 139.173,36.865C139.162,36.769 139.149,36.673 139.132,36.577C139.05,36.098 138.888,35.599 138.522,35.259C138.458,35.199 138.388,35.145 138.314,35.098C138.184,35.015 138.043,34.952 137.897,34.906C137.646,34.827 137.384,34.8 137.122,34.792C136.273,34.783 135.419,34.721 134.572,34.793L134.562,34.794C134.562,37.387 134.54,39.98 134.563,42.572C134.565,42.675 134.567,42.779 134.574,42.882C134.58,42.968 134.585,43.062 134.617,43.143C134.786,43.498 135.403,43.135 135.795,43.144C135.895,43.152 135.994,43.172 136.07,43.24C136.224,43.378 136.207,43.656 136.036,43.771C135.964,43.82 135.88,43.834 135.795,43.841C133.848,43.887 131.899,43.888 129.951,43.841C129.867,43.834 129.783,43.819 129.711,43.77C129.543,43.655 129.526,43.379 129.677,43.242C129.753,43.172 129.852,43.152 129.951,43.144C130.341,43.135 130.732,43.155 131.122,43.143L131.125,43.142C131.136,43.121 131.142,43.098 131.148,43.075C131.168,42.981 131.174,42.886 131.179,42.79C131.184,42.675 131.185,42.559 131.186,42.443C131.198,37.364 131.233,32.284 131.185,27.205C131.183,27.088 131.181,26.971 131.17,26.855C131.164,26.783 131.157,26.706 131.128,26.639L131.125,26.633C130.737,26.593 130.342,26.641 129.951,26.632C129.908,26.628 129.908,26.628 129.866,26.622C129.781,26.603 129.703,26.571 129.646,26.502C129.549,26.384 129.549,26.182 129.647,26.064C129.723,25.972 129.837,25.945 129.951,25.936C132.418,25.876 134.886,25.92 137.353,25.935C137.589,25.94 137.824,25.95 138.058,25.971C138.257,25.989 138.456,26.014 138.653,26.046C139.768,26.229 140.894,26.659 141.684,27.494C142.014,27.842 142.273,28.253 142.447,28.7C142.601,29.093 142.689,29.511 142.725,29.931C142.753,30.264 142.754,30.601 142.709,30.933C142.624,31.567 142.374,32.169 141.988,32.68C141.455,33.386 140.695,33.897 139.879,34.223C139.649,34.315 139.414,34.391 139.175,34.457L139.142,34.465C139.229,34.49 139.315,34.517 139.401,34.545C139.508,34.582 139.507,34.582 139.613,34.621C140.026,34.783 140.418,34.985 140.776,35.247C141.189,35.549 141.548,35.922 141.831,36.348C142.086,36.734 142.277,37.16 142.406,37.604C142.55,38.104 142.609,38.619 142.621,39.139C142.621,39.436 142.619,39.734 142.617,40.032C142.61,40.747 142.599,41.462 142.596,42.178C142.597,42.283 142.598,42.389 142.604,42.494C142.615,42.662 142.634,42.833 142.697,42.991C142.729,43.071 142.773,43.149 142.837,43.209C142.915,43.282 143.017,43.32 143.122,43.335C143.294,43.358 143.462,43.321 143.614,43.238C143.801,43.136 143.955,42.978 144.066,42.797C144.111,42.723 144.143,42.646 144.181,42.568C144.196,42.539 144.196,42.54 144.214,42.512C144.271,42.433 144.344,42.374 144.442,42.353C144.478,42.346 144.491,42.347 144.527,42.345C144.572,42.347 144.572,42.347 144.617,42.353ZM25.72,25.514C26.471,25.529 27.216,25.635 27.932,25.869C28.438,26.034 28.923,26.258 29.376,26.539C29.736,26.762 30.074,27.019 30.386,27.306C30.579,27.482 30.761,27.67 30.933,27.866C32.251,29.371 32.922,31.352 33.127,33.319C33.162,33.659 33.184,34.001 33.192,34.343C33.203,34.772 33.194,35.201 33.169,35.63C33.132,36.234 33.059,36.836 32.943,37.43C32.615,39.105 31.931,40.758 30.73,41.998C30.55,42.185 30.359,42.361 30.158,42.525C29.879,42.752 29.582,42.955 29.269,43.132C28.859,43.364 28.423,43.55 27.972,43.688C27.269,43.904 26.535,44.005 25.8,44.015C25.076,44.024 24.35,43.942 23.652,43.748C23.2,43.623 22.76,43.45 22.344,43.233C22.026,43.067 21.721,42.874 21.434,42.659C21.226,42.502 21.028,42.334 20.839,42.156C19.704,41.08 18.96,39.65 18.547,38.153C18.351,37.444 18.226,36.716 18.164,35.984C18.118,35.446 18.107,34.905 18.123,34.365C18.134,33.979 18.16,33.593 18.202,33.209C18.234,32.91 18.276,32.612 18.329,32.316C18.628,30.628 19.276,28.953 20.444,27.672C20.597,27.504 20.758,27.344 20.927,27.193C21.193,26.955 21.479,26.739 21.781,26.548C22.174,26.3 22.595,26.095 23.033,25.938C23.748,25.681 24.498,25.555 25.256,25.52C25.41,25.515 25.565,25.513 25.72,25.514ZM199.893,37.544C199.93,37.551 199.965,37.56 199.999,37.576C200.089,37.621 200.151,37.703 200.179,37.798C200.191,37.838 200.195,37.878 200.199,37.92C200.249,39.779 200.259,41.641 200.199,43.5C200.195,43.535 200.19,43.569 200.178,43.603C200.145,43.697 200.073,43.769 199.981,43.807C199.929,43.828 199.875,43.835 199.82,43.84C195.808,43.952 191.792,43.938 187.779,43.841C187.68,43.833 187.581,43.813 187.505,43.744C187.353,43.606 187.37,43.33 187.539,43.215C187.611,43.166 187.695,43.152 187.779,43.145C188.169,43.136 188.56,43.156 188.95,43.144L188.953,43.143C188.964,43.122 188.97,43.099 188.975,43.076C188.995,42.982 189.002,42.886 189.006,42.791C189.012,42.675 189.012,42.559 189.013,42.444C189.025,37.364 189.06,32.284 189.012,27.204C189.01,27.088 189.008,26.971 188.998,26.855C188.991,26.783 188.985,26.706 188.956,26.639L188.953,26.633C188.564,26.593 188.17,26.641 187.779,26.632C187.736,26.628 187.737,26.628 187.695,26.622C187.61,26.603 187.532,26.572 187.475,26.504C187.376,26.385 187.376,26.182 187.475,26.063C187.552,25.972 187.666,25.945 187.779,25.936C191.506,25.845 195.235,25.935 198.962,25.935C199.022,25.937 199.08,25.943 199.137,25.964C199.232,26 199.309,26.071 199.349,26.164C199.368,26.208 199.376,26.254 199.381,26.301C199.438,28.102 199.43,29.906 199.381,31.708C199.376,31.762 199.368,31.815 199.346,31.866C199.335,31.892 199.322,31.916 199.305,31.939C199.287,31.961 199.268,31.981 199.245,31.998C199.155,32.067 199.041,32.069 198.933,32.058L198.9,32.052C198.859,32.041 198.821,32.029 198.785,32.005C198.684,31.937 198.648,31.829 198.636,31.714C198.63,31.527 198.635,31.34 198.63,31.153C198.621,30.918 198.604,30.683 198.573,30.45C198.553,30.299 198.528,30.148 198.498,29.998C198.292,28.99 197.829,27.985 197.008,27.333C196.882,27.233 196.748,27.142 196.608,27.062C196.408,26.947 196.196,26.855 195.975,26.787C195.651,26.686 195.314,26.64 194.974,26.633C194.116,26.627 193.254,26.561 192.4,26.635L192.39,26.636L192.39,34.142C192.913,34.151 193.436,34.148 193.959,34.141C194.018,34.139 194.076,34.136 194.134,34.131C194.399,34.102 194.657,34.038 194.899,33.927C195.458,33.673 195.902,33.2 196.104,32.619C196.168,32.435 196.207,32.242 196.222,32.047C196.233,31.905 196.226,31.762 196.23,31.619C196.233,31.577 196.233,31.577 196.239,31.534C196.258,31.45 196.29,31.371 196.358,31.314C196.485,31.208 196.691,31.218 196.809,31.332C196.889,31.409 196.916,31.515 196.926,31.622C196.978,33.534 196.978,35.448 196.926,37.36C196.916,37.468 196.889,37.574 196.809,37.651C196.679,37.776 196.448,37.774 196.327,37.639C196.268,37.573 196.246,37.492 196.233,37.407C196.223,37.278 196.23,37.148 196.226,37.019C196.208,36.741 196.151,36.468 196.042,36.211C195.783,35.605 195.262,35.136 194.637,34.932C194.397,34.854 194.15,34.819 193.899,34.816C193.399,34.816 192.897,34.775 192.4,34.818L192.39,34.819L192.39,43.143C193.199,43.215 194.016,43.149 194.829,43.143C194.914,43.142 194.998,43.139 195.082,43.135C195.604,43.101 196.12,43.004 196.606,42.809C196.869,42.704 197.12,42.573 197.355,42.416C198.529,41.631 199.206,40.265 199.401,38.892C199.426,38.713 199.443,38.532 199.45,38.351C199.455,38.22 199.453,38.09 199.453,37.959L199.455,37.914C199.461,37.852 199.471,37.793 199.498,37.736C199.541,37.646 199.619,37.58 199.715,37.553C199.752,37.543 199.79,37.54 199.828,37.539C199.861,37.54 199.86,37.54 199.893,37.544ZM159.057,32.235L162.431,42.039C162.495,42.219 162.494,42.219 162.559,42.393C162.614,42.54 162.673,42.686 162.744,42.826C162.78,42.896 162.819,42.966 162.87,43.027C162.901,43.064 162.937,43.097 162.981,43.117C163.028,43.137 163.079,43.141 163.129,43.144C163.312,43.146 163.494,43.141 163.676,43.145C163.761,43.152 163.845,43.166 163.916,43.215C164.085,43.33 164.103,43.606 163.951,43.744C163.875,43.813 163.776,43.833 163.676,43.841C161.679,43.89 159.68,43.89 157.683,43.841C157.584,43.833 157.485,43.813 157.409,43.744C157.257,43.606 157.274,43.33 157.443,43.215C157.515,43.166 157.599,43.152 157.683,43.145C158.06,43.136 158.436,43.16 158.812,43.142C158.857,43.138 158.911,43.136 158.948,43.108C158.957,43.101 158.962,43.092 158.967,43.082C158.999,43.003 158.986,42.905 158.975,42.824C158.949,42.632 158.892,42.445 158.834,42.261C158.285,40.579 157.706,38.908 157.142,37.231L157.139,37.221C155.527,37.176 153.914,37.221 152.301,37.221L152.295,37.221C152.136,37.731 151.961,38.236 151.795,38.743C151.711,39.016 151.631,39.29 151.564,39.567C151.51,39.79 151.462,40.015 151.422,40.24C151.394,40.399 151.37,40.559 151.352,40.719C151.334,40.873 151.321,41.028 151.314,41.183C151.309,41.301 151.308,41.419 151.312,41.537C151.314,41.62 151.319,41.704 151.327,41.787C151.335,41.865 151.345,41.944 151.359,42.022C151.423,42.382 151.568,42.761 151.888,42.968C151.947,43.006 152.01,43.037 152.075,43.062C152.208,43.113 152.348,43.134 152.489,43.142C152.714,43.15 152.938,43.14 153.163,43.145C153.247,43.152 153.331,43.166 153.403,43.215C153.572,43.33 153.589,43.606 153.438,43.744C153.361,43.813 153.262,43.833 153.163,43.841C151.554,43.88 149.944,43.88 148.335,43.841C148.236,43.833 148.137,43.813 148.061,43.744C147.934,43.629 147.921,43.403 148.031,43.273C148.098,43.193 148.193,43.163 148.292,43.149C148.377,43.142 148.463,43.146 148.548,43.14C148.619,43.132 148.689,43.119 148.756,43.095C148.899,43.044 149.024,42.952 149.133,42.847C149.274,42.711 149.392,42.551 149.499,42.386C149.54,42.322 149.58,42.257 149.618,42.191C149.863,41.77 150.058,41.32 150.239,40.869C150.493,40.234 150.713,39.587 150.925,38.938C152.303,34.617 153.69,30.299 154.99,25.954C155.003,25.921 155.016,25.889 155.036,25.86C155.112,25.747 155.234,25.698 155.365,25.688C155.751,25.678 156.137,25.677 156.522,25.688C156.556,25.69 156.589,25.694 156.622,25.703C156.71,25.727 156.782,25.781 156.836,25.853C156.859,25.886 156.877,25.92 156.897,25.956L158.378,30.26C158.618,30.912 158.843,31.571 159.057,32.235ZM125.001,25.936C125.047,25.942 125.09,25.948 125.134,25.964C125.229,26 125.305,26.071 125.345,26.165C125.364,26.209 125.372,26.255 125.377,26.302C125.438,28.197 125.378,30.095 125.378,31.991C125.374,32.096 125.352,32.198 125.278,32.277C125.195,32.366 125.079,32.388 124.962,32.385C124.871,32.382 124.782,32.354 124.72,32.284C124.657,32.214 124.64,32.124 124.632,32.033C124.626,31.81 124.632,31.587 124.63,31.364C124.624,31.116 124.612,30.868 124.585,30.621C124.564,30.424 124.534,30.226 124.497,30.031C124.292,28.972 123.819,27.895 122.93,27.237C122.816,27.153 122.696,27.076 122.571,27.009C122.387,26.909 122.192,26.829 121.992,26.77C121.692,26.681 121.381,26.64 121.069,26.634C120.547,26.63 120.025,26.633 119.503,26.633L119.501,26.633C119.501,31.946 119.454,37.259 119.503,42.572C119.505,42.675 119.507,42.779 119.514,42.882C119.52,42.968 119.525,43.062 119.557,43.144C119.733,43.513 120.376,43.135 120.785,43.145C120.87,43.152 120.954,43.166 121.025,43.215C121.194,43.33 121.212,43.606 121.06,43.744C120.984,43.813 120.885,43.833 120.785,43.841C118.805,43.889 116.822,43.889 114.841,43.841C114.731,43.832 114.619,43.808 114.537,43.728C114.39,43.584 114.413,43.319 114.589,43.21C114.664,43.163 114.752,43.151 114.838,43.145C115.246,43.136 115.654,43.157 116.062,43.144L116.065,43.143C116.076,43.122 116.082,43.099 116.088,43.076C116.115,42.949 116.119,42.817 116.122,42.688C116.126,42.559 116.126,42.431 116.126,42.302L116.126,26.634C115.578,26.621 115.029,26.623 114.481,26.635C114.392,26.638 114.303,26.644 114.215,26.652C113.981,26.678 113.75,26.725 113.526,26.799C113.088,26.945 112.689,27.193 112.358,27.514C112.17,27.697 112.003,27.901 111.858,28.118C111.561,28.564 111.353,29.066 111.213,29.582C111.077,30.081 111.004,30.597 110.981,31.113C110.966,31.42 110.978,31.726 110.971,32.033C110.967,32.076 110.967,32.076 110.961,32.118C110.943,32.191 110.917,32.259 110.859,32.311C110.792,32.37 110.709,32.385 110.623,32.385C110.536,32.385 110.449,32.362 110.382,32.307C110.297,32.237 110.264,32.139 110.251,32.034C110.181,30.126 110.217,28.216 110.25,26.307C110.253,26.264 110.257,26.221 110.271,26.18C110.306,26.077 110.384,26 110.486,25.964C110.531,25.947 110.576,25.941 110.623,25.936C115.413,25.78 120.212,25.76 125.001,25.936ZM175.482,25.935C176.264,25.951 177.041,26.065 177.783,26.317C178.281,26.486 178.758,26.713 179.203,26.994C179.555,27.217 179.886,27.474 180.191,27.759C180.449,28 180.689,28.261 180.909,28.537C182.012,29.92 182.603,31.657 182.804,33.401C182.837,33.688 182.859,33.976 182.872,34.265C182.89,34.676 182.887,35.087 182.868,35.497C182.843,36.05 182.786,36.601 182.693,37.146C182.426,38.703 181.85,40.243 180.825,41.463C180.66,41.659 180.485,41.846 180.299,42.022C180.067,42.242 179.818,42.445 179.555,42.628C179.178,42.89 178.773,43.111 178.349,43.287C177.73,43.543 177.074,43.704 176.409,43.783C176.103,43.819 175.796,43.836 175.488,43.841C173.052,43.856 170.616,43.9 168.181,43.841C168.082,43.833 167.982,43.813 167.906,43.744C167.754,43.606 167.771,43.33 167.941,43.215C168.012,43.166 168.096,43.152 168.181,43.145C168.571,43.136 168.961,43.156 169.351,43.144L169.354,43.143C169.365,43.122 169.371,43.099 169.377,43.076C169.396,42.982 169.403,42.887 169.407,42.791C169.413,42.675 169.413,42.56 169.414,42.444C169.426,37.364 169.46,32.284 169.413,27.205C169.411,27.088 169.409,26.971 169.399,26.855C169.392,26.783 169.386,26.706 169.357,26.639L169.354,26.633C168.966,26.593 168.572,26.641 168.181,26.632C168.138,26.628 168.139,26.628 168.096,26.622C168.011,26.603 167.933,26.572 167.876,26.504C167.777,26.386 167.777,26.183 167.875,26.065C167.952,25.972 168.067,25.945 168.181,25.936C170.614,25.876 173.049,25.919 175.482,25.935ZM97.473,37.796C97.487,38.319 97.477,43.27 97.473,43.376C97.469,43.412 97.464,43.446 97.452,43.48C97.418,43.574 97.346,43.645 97.254,43.682C97.202,43.703 97.148,43.711 97.093,43.716C93.081,43.827 89.065,43.813 85.053,43.716C84.954,43.708 84.855,43.688 84.778,43.62C84.624,43.482 84.642,43.205 84.813,43.09C84.885,43.042 84.969,43.028 85.053,43.021C85.443,43.012 85.833,43.032 86.223,43.02C86.227,43.019 86.225,43.018 86.228,43.014C86.236,42.994 86.242,42.973 86.248,42.952C86.267,42.858 86.274,42.762 86.278,42.667C86.284,42.551 86.284,42.435 86.286,42.32C86.298,37.24 86.332,32.16 86.284,27.08C86.282,26.963 86.28,26.847 86.27,26.731C86.263,26.659 86.257,26.582 86.228,26.515L86.225,26.509C85.837,26.468 85.444,26.517 85.053,26.507C85.011,26.504 85.011,26.504 84.968,26.498C84.884,26.479 84.806,26.448 84.748,26.381C84.648,26.262 84.648,26.058 84.748,25.939C84.825,25.848 84.939,25.821 85.053,25.812C88.78,25.722 92.508,25.811 96.236,25.811C96.296,25.813 96.354,25.82 96.411,25.841C96.506,25.876 96.582,25.948 96.622,26.041C96.641,26.085 96.649,26.13 96.654,26.177C96.711,27.979 96.702,29.782 96.653,31.583C96.649,31.638 96.641,31.69 96.62,31.741C96.609,31.767 96.596,31.791 96.579,31.814C96.562,31.837 96.542,31.856 96.52,31.874C96.429,31.943 96.315,31.945 96.207,31.934L96.174,31.929C96.133,31.918 96.095,31.905 96.059,31.881C95.959,31.814 95.922,31.705 95.91,31.59C95.904,31.403 95.909,31.216 95.904,31.029C95.895,30.794 95.878,30.559 95.847,30.326C95.827,30.174 95.802,30.024 95.772,29.874C95.566,28.865 95.103,27.861 94.281,27.209C94.155,27.108 94.021,27.017 93.881,26.937C93.681,26.823 93.468,26.73 93.248,26.662C92.923,26.562 92.586,26.516 92.246,26.509C91.389,26.503 90.527,26.437 89.673,26.51L89.663,26.512L89.663,34.019C90.184,34.05 90.709,34.025 91.232,34.018C91.291,34.016 91.349,34.013 91.407,34.008C91.672,33.979 91.93,33.915 92.172,33.804C92.731,33.55 93.176,33.077 93.378,32.495C93.442,32.311 93.481,32.118 93.496,31.923C93.507,31.781 93.501,31.638 93.504,31.495C93.507,31.452 93.507,31.453 93.513,31.41C93.523,31.369 93.532,31.33 93.552,31.292C93.591,31.216 93.656,31.159 93.737,31.133C93.775,31.121 93.814,31.118 93.854,31.117C93.885,31.119 93.885,31.119 93.916,31.123C93.953,31.132 93.986,31.142 94.019,31.16C94.143,31.231 94.187,31.364 94.199,31.498C94.25,33.411 94.25,35.325 94.199,37.237C94.19,37.344 94.162,37.45 94.082,37.527C93.953,37.652 93.722,37.649 93.6,37.514C93.542,37.449 93.52,37.367 93.507,37.283C93.497,37.154 93.505,37.024 93.5,36.895C93.482,36.616 93.425,36.344 93.315,36.087C93.057,35.481 92.535,35.012 91.909,34.808C91.67,34.73 91.423,34.694 91.172,34.691C90.672,34.691 90.171,34.651 89.673,34.693L89.663,34.695L89.663,43.019C90.471,43.09 91.289,43.025 92.101,43.019C92.186,43.018 92.27,43.015 92.354,43.011C92.876,42.977 93.392,42.88 93.879,42.685C94.141,42.58 94.393,42.449 94.628,42.292C95.802,41.507 96.479,40.14 96.674,38.768C96.699,38.588 96.716,38.408 96.723,38.226C96.728,38.096 96.726,37.966 96.726,37.836L96.728,37.79C96.737,37.698 96.759,37.609 96.82,37.537C96.954,37.377 97.233,37.374 97.373,37.528C97.441,37.603 97.464,37.698 97.473,37.796ZM59.313,25.813C59.359,25.818 59.402,25.825 59.446,25.841C59.541,25.877 59.618,25.948 59.658,26.042C59.676,26.086 59.684,26.131 59.689,26.178C59.749,28.074 59.69,29.971 59.69,31.867C59.686,31.972 59.664,32.074 59.59,32.153C59.506,32.243 59.391,32.265 59.274,32.261C59.182,32.259 59.093,32.23 59.031,32.16C58.969,32.089 58.951,31.999 58.944,31.909C58.938,31.686 58.943,31.463 58.942,31.24C58.936,30.992 58.924,30.744 58.897,30.497C58.875,30.3 58.846,30.102 58.809,29.907C58.604,28.848 58.131,27.771 57.241,27.113C57.127,27.029 57.007,26.952 56.882,26.885C56.698,26.785 56.503,26.705 56.303,26.645C56.002,26.556 55.692,26.516 55.379,26.509C54.858,26.505 54.336,26.509 53.815,26.509L53.813,26.509C53.813,31.822 53.767,37.136 53.815,42.449C53.817,42.552 53.818,42.655 53.825,42.758C53.831,42.842 53.837,42.929 53.864,43.009L53.868,43.02C54.277,43.02 54.687,43.011 55.096,43.021C55.139,43.025 55.139,43.024 55.181,43.031C55.265,43.049 55.344,43.08 55.401,43.149C55.5,43.267 55.5,43.469 55.401,43.588C55.325,43.68 55.211,43.708 55.096,43.717C53.116,43.766 51.134,43.765 49.153,43.717C49.042,43.708 48.93,43.684 48.848,43.603C48.701,43.46 48.724,43.195 48.901,43.086C48.976,43.039 49.063,43.027 49.15,43.021C49.558,43.012 49.965,43.033 50.373,43.02L50.376,43.019C50.387,42.998 50.393,42.975 50.399,42.952C50.426,42.825 50.43,42.693 50.434,42.564C50.437,42.436 50.437,42.307 50.438,42.179L50.438,26.509C49.889,26.496 49.34,26.498 48.792,26.51C48.703,26.514 48.614,26.519 48.526,26.528C48.292,26.554 48.061,26.6 47.838,26.675C47.399,26.821 47.001,27.069 46.669,27.39C46.481,27.573 46.315,27.777 46.17,27.995C45.873,28.44 45.664,28.942 45.524,29.458C45.389,29.957 45.316,30.472 45.292,30.989C45.278,31.296 45.29,31.602 45.282,31.909C45.279,31.952 45.279,31.951 45.272,31.994C45.255,32.067 45.228,32.135 45.17,32.187C45.103,32.246 45.02,32.262 44.933,32.262C44.847,32.262 44.76,32.238 44.692,32.182C44.607,32.113 44.574,32.015 44.562,31.909C44.492,30.002 44.528,28.092 44.561,26.184C44.563,26.14 44.568,26.098 44.582,26.056C44.617,25.954 44.695,25.877 44.797,25.84C44.842,25.824 44.887,25.818 44.935,25.813C49.725,25.658 54.524,25.637 59.313,25.813ZM14.553,25.813C14.598,25.818 14.642,25.825 14.685,25.841C14.78,25.877 14.857,25.948 14.897,26.042C14.916,26.086 14.924,26.131 14.929,26.178C14.989,28.074 14.93,29.971 14.93,31.867C14.926,31.972 14.903,32.074 14.829,32.153C14.746,32.243 14.631,32.265 14.514,32.261C14.422,32.259 14.333,32.23 14.271,32.16C14.208,32.089 14.191,31.999 14.183,31.909C14.178,31.686 14.183,31.463 14.181,31.24C14.176,30.992 14.163,30.744 14.136,30.497C14.115,30.3 14.086,30.102 14.048,29.907C13.843,28.848 13.37,27.771 12.481,27.113C12.366,27.029 12.246,26.952 12.121,26.885C11.937,26.785 11.743,26.705 11.542,26.645C11.242,26.556 10.931,26.516 10.619,26.509C10.097,26.505 9.576,26.509 9.054,26.509L9.053,26.509C9.053,31.822 9.007,37.136 9.054,42.449C9.056,42.552 9.058,42.655 9.065,42.758C9.071,42.842 9.077,42.929 9.103,43.009L9.108,43.02C9.517,43.02 9.926,43.011 10.336,43.021C10.379,43.025 10.378,43.024 10.42,43.031C10.505,43.049 10.583,43.08 10.64,43.149C10.739,43.267 10.739,43.469 10.641,43.588C10.564,43.68 10.45,43.708 10.336,43.717C8.355,43.766 6.373,43.765 4.393,43.717C4.282,43.708 4.17,43.684 4.087,43.603C3.94,43.46 3.963,43.195 4.14,43.086C4.216,43.039 4.303,43.027 4.39,43.021C4.797,43.012 5.205,43.033 5.612,43.02L5.616,43.019C5.627,42.998 5.633,42.975 5.639,42.952C5.666,42.825 5.67,42.693 5.673,42.564C5.677,42.436 5.677,42.307 5.677,42.179L5.677,26.509C5.129,26.496 4.58,26.498 4.032,26.51C3.943,26.514 3.854,26.519 3.765,26.528C3.531,26.554 3.301,26.6 3.077,26.675C2.639,26.821 2.24,27.069 1.909,27.39C1.721,27.573 1.554,27.777 1.409,27.995C1.112,28.44 0.904,28.942 0.764,29.458C0.628,29.957 0.555,30.473 0.531,30.989C0.517,31.296 0.529,31.602 0.522,31.909C0.518,31.952 0.518,31.951 0.512,31.994C0.494,32.067 0.468,32.135 0.41,32.187C0.343,32.246 0.259,32.262 0.173,32.262C0.086,32.262 -0.001,32.238 -0.069,32.182C-0.153,32.113 -0.186,32.015 -0.198,31.909C-0.268,30.002 -0.232,28.092 -0.2,26.184C-0.197,26.14 -0.192,26.098 -0.178,26.056C-0.144,25.954 -0.065,25.877 0.036,25.84C0.081,25.824 0.127,25.818 0.174,25.813C4.965,25.658 9.763,25.637 14.553,25.813ZM70.108,25.812C70.207,25.82 70.306,25.84 70.383,25.909C70.535,26.046 70.517,26.323 70.348,26.438C70.276,26.486 70.193,26.501 70.108,26.507C69.715,26.517 69.322,26.508 68.929,26.508C68.916,26.536 68.91,26.568 68.905,26.598C68.895,26.655 68.89,26.713 68.886,26.77C68.876,26.916 68.876,27.062 68.874,27.208C68.869,29.519 68.874,31.831 68.874,34.142C70.978,34.22 73.106,34.437 75.191,34.14L75.193,34.14C75.193,31.786 75.213,29.433 75.192,27.08C75.19,26.97 75.19,26.97 75.186,26.861C75.18,26.747 75.182,26.617 75.139,26.508C74.973,26.16 74.367,26.516 73.981,26.507C73.894,26.501 73.807,26.489 73.732,26.443C73.553,26.334 73.53,26.067 73.68,25.924C73.763,25.845 73.874,25.821 73.984,25.812C75.932,25.765 77.881,25.765 79.828,25.812C79.927,25.82 80.026,25.84 80.102,25.909C80.255,26.046 80.238,26.323 80.068,26.438C79.996,26.486 79.912,26.501 79.828,26.507C79.435,26.517 79.042,26.508 78.649,26.508C78.636,26.536 78.63,26.568 78.625,26.598C78.615,26.655 78.61,26.713 78.606,26.771C78.596,26.916 78.595,27.062 78.594,27.208C78.582,32.288 78.549,37.368 78.595,42.448C78.597,42.551 78.599,42.655 78.606,42.758C78.612,42.844 78.616,42.938 78.649,43.02C78.818,43.374 79.435,43.012 79.828,43.021C79.912,43.028 79.996,43.042 80.067,43.09C80.238,43.205 80.255,43.482 80.102,43.619C80.026,43.688 79.927,43.708 79.828,43.716C77.881,43.764 75.932,43.763 73.984,43.716C73.874,43.707 73.763,43.684 73.68,43.604C73.53,43.461 73.553,43.194 73.732,43.085C73.807,43.039 73.895,43.027 73.981,43.021C74.367,43.013 74.753,43.02 75.138,43.02C75.152,42.993 75.157,42.96 75.162,42.931C75.172,42.874 75.177,42.816 75.181,42.758C75.194,42.565 75.193,42.371 75.193,42.178L75.193,34.792C73.101,34.55 70.981,34.791 68.875,34.791L68.874,34.791C68.874,37.343 68.853,39.896 68.876,42.448C68.878,42.558 68.878,42.558 68.881,42.667C68.887,42.781 68.886,42.911 68.929,43.02C69.098,43.375 69.715,43.012 70.108,43.021C70.192,43.028 70.276,43.042 70.348,43.09C70.517,43.205 70.535,43.482 70.383,43.619C70.306,43.688 70.207,43.708 70.108,43.716C68.161,43.763 66.212,43.763 64.264,43.716C64.165,43.708 64.066,43.688 63.99,43.62C63.837,43.482 63.854,43.205 64.025,43.09C64.096,43.042 64.18,43.028 64.264,43.021C64.654,43.012 65.045,43.032 65.434,43.02L65.437,43.019C65.448,42.998 65.454,42.975 65.46,42.952C65.48,42.858 65.486,42.762 65.491,42.667C65.496,42.551 65.497,42.435 65.498,42.32C65.51,37.24 65.544,32.16 65.497,27.08C65.494,26.963 65.493,26.847 65.482,26.731C65.476,26.659 65.469,26.582 65.44,26.515L65.437,26.509C65.049,26.468 64.655,26.517 64.264,26.507C64.221,26.504 64.222,26.504 64.18,26.498C64.095,26.479 64.017,26.448 63.96,26.38C63.86,26.262 63.86,26.058 63.96,25.94C64.037,25.848 64.151,25.821 64.264,25.812C66.212,25.765 68.161,25.765 70.108,25.812ZM25.646,26.162C25.249,26.17 24.853,26.213 24.472,26.326C24.224,26.399 23.985,26.502 23.765,26.639C23.629,26.725 23.502,26.823 23.384,26.932C22.723,27.552 22.474,28.475 22.363,29.345C22.345,29.486 22.331,29.627 22.319,29.768C22.304,29.939 22.294,30.11 22.284,30.282C22.271,30.534 22.26,30.785 22.247,31.037C22.224,31.395 22.195,31.752 22.172,32.11C22.052,34.229 22.083,36.353 22.236,38.469C22.291,39.227 22.339,39.99 22.517,40.732C22.627,41.188 22.784,41.638 23.028,42.041C23.15,42.244 23.294,42.433 23.462,42.599C23.583,42.72 23.717,42.828 23.86,42.921C24.505,43.339 25.301,43.414 26.05,43.345C26.691,43.287 27.332,43.092 27.826,42.666C27.97,42.543 28.099,42.402 28.211,42.25C28.459,41.916 28.625,41.528 28.739,41.129C28.913,40.517 28.97,39.879 29.004,39.246C29.018,38.995 29.028,38.743 29.041,38.491C29.064,38.133 29.094,37.775 29.117,37.416C29.166,36.58 29.196,35.744 29.2,34.906C29.203,34.296 29.194,33.685 29.172,33.075C29.156,32.621 29.133,32.166 29.103,31.712C29.081,31.381 29.053,31.051 29.029,30.72C29.011,30.478 28.993,30.235 28.969,29.993C28.949,29.793 28.924,29.594 28.892,29.395C28.871,29.258 28.846,29.121 28.818,28.985C28.651,28.19 28.344,27.369 27.717,26.821C27.627,26.742 27.531,26.67 27.43,26.605C27.261,26.496 27.08,26.409 26.891,26.342C26.588,26.235 26.271,26.186 25.952,26.167C25.85,26.162 25.748,26.161 25.646,26.162ZM172.842,26.633C172.822,26.633 172.822,26.633 172.802,26.635L172.791,26.636L172.791,43.143C173.686,43.222 174.595,43.16 175.496,43.142C175.887,43.128 176.277,43.079 176.65,42.953C176.851,42.886 177.045,42.796 177.225,42.683C177.349,42.605 177.465,42.517 177.572,42.418C178.217,41.826 178.474,40.939 178.603,40.101C178.624,39.966 178.642,39.831 178.658,39.695C178.677,39.527 178.693,39.359 178.707,39.191C178.728,38.934 178.746,38.677 178.765,38.42C178.797,37.97 178.824,37.519 178.844,37.068C178.871,36.464 178.887,35.86 178.892,35.256C178.899,34.5 178.889,33.744 178.862,32.988C178.846,32.536 178.824,32.085 178.795,31.633C178.779,31.378 178.761,31.123 178.739,30.868C178.721,30.662 178.701,30.457 178.674,30.253C178.654,30.096 178.631,29.94 178.603,29.784C178.58,29.656 178.554,29.528 178.525,29.402C178.343,28.618 178.015,27.822 177.387,27.29C177.287,27.205 177.179,27.127 177.067,27.059C176.886,26.948 176.692,26.861 176.491,26.795C176.151,26.685 175.796,26.642 175.44,26.633C174.574,26.627 173.708,26.633 172.842,26.633ZM157.182,27.401L160.365,36.651C159.946,35.172 159.528,33.692 159.057,32.235L158.378,30.26C158.02,29.289 157.627,28.334 157.182,27.401ZM152.498,36.524L156.882,36.524L156.898,36.523L154.634,29.525C153.922,31.858 153.21,34.191 152.498,36.524ZM134.613,26.633C134.593,26.633 134.593,26.633 134.573,26.635L134.562,26.636L134.562,34.116C135.461,34.196 136.371,34.125 137.275,34.117C137.519,34.109 137.762,34.079 137.991,33.992C138.087,33.956 138.18,33.91 138.267,33.855C138.777,33.53 139.013,32.923 139.141,32.358C139.162,32.266 139.181,32.173 139.197,32.079C139.221,31.942 139.24,31.805 139.256,31.667C139.277,31.473 139.292,31.279 139.302,31.084C139.316,30.817 139.32,30.548 139.317,30.28C139.315,30.057 139.307,29.834 139.292,29.612C139.279,29.415 139.26,29.22 139.233,29.025C139.215,28.886 139.192,28.748 139.164,28.611C139.145,28.518 139.123,28.425 139.099,28.333C138.95,27.765 138.681,27.173 138.152,26.867C138.062,26.815 137.967,26.772 137.869,26.739C137.66,26.667 137.442,26.64 137.222,26.633C136.352,26.625 135.483,26.633 134.613,26.633Z" style="fill:rgb(37,37,37);"/>
        </g>
        <rect id="bar" x="249.465" y="650.054" width="113.07" height="0.808" style="fill:rgb(37,37,37);"/>
    </g>
</svg>
