<?xml version="1.0" encoding="UTF-8" standalone="no"?>
<!DOCTYPE svg PUBLIC "-//W3C//DTD SVG 1.1//EN" "http://www.w3.org/Graphics/SVG/1.1/DTD/svg11.dtd">
<svg width="100%" height="100%" viewBox="0 0 2409 441" version="1.1" xmlns="http://www.w3.org/2000/svg" xmlns:xlink="http://www.w3.org/1999/xlink" xml:space="preserve" style="fill-rule:evenodd;clip-rule:evenodd;stroke-linejoin:round;stroke-miterlimit:1.41421;">
    <g transform="matrix(1,0,0,1,0,-1.5)">
        <g transform="matrix(4.16667,0,0,4.16667,0,0)">
            <g transform="matrix(0.24,0,0,0.24,0,0)">
                <path d="M1372.61,346.667C1372.61,295.808 1345.24,253.217 1295.68,253.217C1244.3,253.217 1219.78,296.067 1219.78,348.217C1219.78,399.071 1246.89,441.667 1296.45,441.667C1348.08,441.667 1372.61,398.813 1372.61,346.667ZM1192.16,436.762L1192.16,370.675C1192.16,368.867 1191.12,368.35 1190.35,368.35C1189.58,368.35 1188.8,368.608 1188.8,370.675L1188.8,375.063C1188.8,414.304 1167.12,438.829 1135.36,438.829C1102.32,438.829 1098.45,413.788 1096.38,385.904C1094.58,360.867 1094.58,335.308 1096.38,310.267C1097.67,292.196 1096.12,255.796 1133.82,255.796C1158.08,255.796 1180.03,276.708 1180.03,317.496L1180.03,320.333C1180.03,322.4 1180.8,322.658 1181.58,322.658C1182.35,322.658 1183.38,322.142 1183.38,320.333L1183.38,258.121C1183.38,256.054 1182.09,255.537 1181.32,255.537C1180.54,255.537 1180.03,255.796 1180.03,258.121L1180.03,259.925C1180.03,265.092 1173.57,261.992 1168.15,259.925C1161.44,257.346 1146.98,253.217 1133.56,253.217C1081.67,253.217 1057.66,295.808 1057.66,348.475C1057.66,393.392 1080.64,441.667 1134.59,441.667C1146.21,441.667 1163.25,439.604 1176.41,434.696C1182.35,432.633 1188.8,429.792 1188.8,434.954L1188.8,436.762C1188.8,439.087 1189.32,439.346 1190.09,439.346C1190.87,439.346 1192.16,438.829 1192.16,436.762ZM265.121,256.312C290.158,256.313 320.363,266.121 320.363,300.717C320.363,326.529 296.354,340.729 274.413,342.796L274.413,343.054C299.971,346.15 319.333,362.671 319.075,393.133C319.075,402.688 318.817,416.883 318.817,423.337C318.817,429.017 319.075,437.538 327.592,437.538C331.983,437.538 336.629,434.183 338.95,429.017C339.467,427.729 339.983,426.954 341.533,427.212C342.825,427.471 342.825,428.758 342.05,430.05C338.692,436.504 331.467,441.667 320.104,441.667C300.487,441.667 287.579,429.275 287.579,410.946C287.579,398.042 287.838,388.746 287.838,376.354C287.579,356.992 282.675,344.342 263.054,344.342L237.754,344.342C235.946,344.342 235.175,345.117 235.175,345.892L235.175,424.629C235.175,432.892 235.433,435.471 237.754,435.471L249.629,435.471C251.696,435.471 251.954,436.246 251.954,437.021C251.954,437.796 251.696,438.571 249.629,438.571L189.737,438.571C187.675,438.571 187.417,437.796 187.417,437.021C187.417,436.246 187.675,435.471 189.737,435.471L201.354,435.471C203.938,435.471 204.196,432.892 204.196,424.629L204.196,270.254C204.196,261.992 203.938,259.413 201.354,259.412L189.737,259.412C187.675,259.412 187.417,258.638 187.417,257.863C187.417,257.088 187.675,256.313 189.737,256.312L265.121,256.312ZM1830.05,256.312C1855.09,256.313 1885.3,266.121 1885.3,300.717C1885.3,326.529 1861.29,340.729 1839.35,342.796L1839.35,343.054C1864.9,346.15 1884.26,362.671 1884,393.133C1884,402.688 1883.75,416.883 1883.75,423.337C1883.75,429.017 1884,437.538 1892.53,437.538C1896.91,437.538 1901.56,434.179 1903.88,429.017C1904.4,427.725 1904.92,426.954 1906.46,427.212C1907.75,427.471 1907.75,428.758 1906.98,430.05C1903.62,436.504 1896.4,441.667 1885.04,441.667C1865.42,441.667 1852.51,429.275 1852.51,410.946C1852.51,398.038 1852.77,388.746 1852.77,376.354C1852.51,356.992 1847.6,344.342 1827.99,344.342L1802.69,344.342C1800.88,344.342 1800.1,345.117 1800.1,345.892L1800.1,424.629C1800.1,432.892 1800.36,435.471 1802.69,435.471L1814.56,435.471C1816.62,435.471 1816.88,436.246 1816.88,437.021C1816.88,437.796 1816.62,438.571 1814.56,438.571L1754.67,438.571C1752.6,438.571 1752.35,437.796 1752.35,437.021C1752.35,436.246 1752.6,435.471 1754.67,435.471L1766.29,435.471C1768.87,435.471 1769.12,432.892 1769.12,424.629L1769.12,270.254C1769.12,261.992 1768.87,259.408 1766.29,259.408L1754.67,259.408C1752.6,259.408 1752.35,258.638 1752.35,257.863C1752.35,257.088 1752.6,256.313 1754.67,256.312L1830.05,256.312ZM2228.64,436.762L2228.64,370.675C2228.64,368.867 2227.61,368.35 2226.83,368.35C2226.06,368.35 2225.28,368.608 2225.28,370.675L2225.28,375.063C2225.28,414.304 2203.6,438.829 2171.84,438.829C2138.8,438.829 2134.93,413.788 2132.87,385.904C2131.06,360.867 2131.06,335.308 2132.87,310.267C2134.15,292.196 2132.61,255.796 2170.29,255.796C2194.56,255.796 2216.51,276.708 2216.51,317.496L2216.51,320.333C2216.51,322.4 2217.28,322.658 2218.05,322.658C2218.83,322.658 2219.86,322.142 2219.86,320.333L2219.86,258.121C2219.86,256.054 2218.57,255.537 2217.8,255.537C2217.03,255.537 2216.51,255.796 2216.51,258.121L2216.51,259.925C2216.51,265.092 2210.05,261.992 2204.63,259.925C2197.92,257.346 2183.46,253.217 2170.04,253.217C2118.15,253.217 2094.14,295.808 2094.14,348.475C2094.14,393.392 2117.12,441.667 2171.07,441.667C2182.68,441.667 2199.72,439.604 2212.89,434.696C2218.83,432.633 2225.28,429.792 2225.28,434.954L2225.28,436.762C2225.28,439.087 2225.8,439.346 2226.58,439.346C2227.35,439.346 2228.64,438.829 2228.64,436.762ZM1441.28,256.312C1442.57,256.313 1443.34,257.088 1443.86,257.863L1530.08,403.717L1530.6,403.717L1530.6,319.304C1530.6,276.45 1523.63,259.408 1503.23,259.408L1500.39,259.408C1498.07,259.408 1497.81,258.638 1497.81,257.863C1497.81,257.088 1498.33,256.313 1500.39,256.312L1550.48,256.312C1552.54,256.313 1552.8,257.088 1552.8,257.863C1552.8,258.638 1552.54,259.408 1550.48,259.408L1549.96,259.408C1537.57,259.408 1533.95,269.221 1533.95,317.237L1533.95,439.604C1533.95,440.375 1533.44,441.15 1531.37,441.15L1518.46,441.15C1516.66,441.15 1516.14,440.375 1515.88,439.604L1415.46,270.513L1415.2,270.513L1415.2,375.579C1415.2,418.433 1421.91,435.471 1442.57,435.471L1445.92,435.471C1447.99,435.471 1448.25,436.246 1448.25,437.021C1448.25,437.796 1447.99,438.571 1445.92,438.571L1395.33,438.571C1393.26,438.571 1393,437.796 1393,437.021C1393,436.246 1393.26,435.471 1395.33,435.471L1395.84,435.471C1408.23,435.471 1411.85,425.662 1411.85,377.387L1411.85,270.254C1411.85,261.992 1411.59,259.408 1409.27,259.408L1396.88,259.408C1394.81,259.408 1394.55,258.638 1394.55,257.863C1394.55,257.088 1394.81,256.313 1396.88,256.312L1441.28,256.312ZM1333.62,384.617C1332.34,402.688 1334.92,439.087 1295.16,439.087C1260.31,439.087 1259.8,402.429 1258.5,386.162C1256.7,361.125 1256.44,335.308 1258.5,310.267C1259.8,292.196 1257.21,255.796 1296.97,255.796C1331.82,255.796 1332.34,292.196 1333.62,308.458C1335.69,333.5 1335.69,359.575 1333.62,384.617ZM151.017,256.312C152.825,256.313 153.342,257.346 153.342,258.379L153.342,317.237C153.342,319.046 152.308,319.304 151.533,319.304C150.5,319.304 149.729,319.304 149.729,317.237L149.729,312.075C149.729,283.163 136.046,259.413 109.971,259.412L94.225,259.412C92.417,259.413 92.158,260.183 92.158,260.958L92.158,424.629C92.158,432.892 92.417,435.471 94.742,435.471L107.133,435.471C109.196,435.471 109.454,436.246 109.454,437.021C109.454,437.796 109.196,438.571 107.133,438.571L46.208,438.571C44.142,438.571 43.625,437.796 43.625,437.021C43.625,436.246 43.883,435.471 46.208,435.471L58.342,435.471C60.921,435.471 61.179,432.892 61.179,424.629L61.179,260.958C61.179,260.183 60.921,259.413 58.858,259.412L43.108,259.412C17.296,259.413 3.354,283.163 3.354,312.075L3.354,317.237C3.354,319.304 2.579,319.304 1.804,319.304C1.029,319.304 0,319.046 0,317.237L0,258.379C0,257.346 0.254,256.313 2.321,256.312L151.017,256.312ZM446.608,253.733C447.892,253.733 448.408,254.246 448.929,255.279L506.5,422.562C510.367,433.667 511.917,435.471 516.05,435.471L520.95,435.471C523.017,435.471 523.275,436.246 523.275,437.021C523.275,437.796 523.017,438.571 520.95,438.571L459.512,438.571C457.446,438.571 457.187,437.796 457.187,437.021C457.187,436.246 457.446,435.471 459.512,435.471L470.1,435.471C474.742,435.471 476.296,433.408 472.675,422.562L455.379,371.192C455.121,370.417 455.121,369.642 453.312,369.642L402.975,369.642C401.167,369.642 401.167,370.417 400.908,371.192L395.746,386.937C389.55,406.558 385.163,435.471 405.812,435.471L411.492,435.471C413.558,435.471 413.817,436.246 413.817,437.021C413.817,437.796 413.558,438.571 411.492,438.571L362.188,438.571C360.121,438.571 359.862,437.796 359.862,437.021C359.862,436.246 360.121,435.471 362.188,435.471L362.958,435.471C371.221,435.471 378.708,428.246 391.875,386.421L432.921,255.279C433.183,254.246 433.954,253.733 435.242,253.733L446.608,253.733ZM1726.28,256.312C1728.08,256.313 1728.6,257.346 1728.6,258.379L1728.6,317.237C1728.6,319.046 1727.57,319.304 1726.79,319.304C1725.76,319.304 1724.98,319.304 1724.98,317.237L1724.98,312.075C1724.98,283.162 1711.3,259.408 1685.23,259.408L1669.48,259.408C1667.67,259.408 1667.42,260.183 1667.42,260.958L1667.42,424.629C1667.42,432.892 1667.67,435.471 1670,435.471L1682.39,435.471C1684.45,435.471 1684.71,436.246 1684.71,437.021C1684.71,437.796 1684.45,438.571 1682.39,438.571L1621.47,438.571C1619.4,438.571 1618.88,437.796 1618.88,437.021C1618.88,436.246 1619.14,435.471 1621.47,435.471L1633.6,435.471C1636.18,435.471 1636.44,432.892 1636.44,424.629L1636.44,260.958C1636.44,260.183 1636.18,259.408 1634.12,259.408L1618.37,259.408C1592.55,259.408 1578.61,283.162 1578.61,312.075L1578.61,317.237C1578.61,319.304 1577.84,319.304 1577.06,319.304C1576.29,319.304 1575.25,319.046 1575.25,317.237L1575.25,258.379C1575.25,257.346 1575.51,256.313 1577.58,256.312L1726.28,256.312ZM2006.37,253.729C2007.66,253.729 2008.18,254.246 2008.7,255.279L2066.26,422.562C2070.13,433.667 2071.68,435.471 2075.81,435.471L2080.72,435.471C2082.78,435.471 2083.04,436.246 2083.04,437.021C2083.04,437.796 2082.78,438.571 2080.72,438.571L2019.28,438.571C2017.21,438.571 2016.95,437.796 2016.95,437.021C2016.95,436.246 2017.21,435.471 2019.28,435.471L2029.86,435.471C2034.51,435.471 2036.06,433.408 2032.45,422.562L2015.15,371.192C2014.89,370.417 2014.89,369.642 2013.08,369.642L1962.74,369.642C1960.93,369.642 1960.93,370.417 1960.67,371.192L1955.51,386.937C1949.32,406.558 1944.93,435.471 1965.58,435.471L1971.26,435.471C1973.33,435.471 1973.58,436.246 1973.58,437.021C1973.58,437.796 1973.33,438.571 1971.26,438.571L1921.95,438.571C1919.89,438.571 1919.63,437.796 1919.63,437.021C1919.63,436.246 1919.89,435.471 1921.95,435.471L1922.73,435.471C1930.99,435.471 1938.48,428.242 1951.64,386.421L1992.69,255.279C1992.95,254.246 1993.72,253.729 1995.01,253.729L2006.37,253.729ZM624.213,256.312C673.775,256.313 700.367,298.392 700.367,346.667C700.367,397.008 676.358,438.571 624.213,438.571L549.862,438.571C547.796,438.571 547.542,437.796 547.542,437.021C547.542,436.246 547.796,435.471 549.862,435.471L561.479,435.471C564.063,435.471 564.325,432.892 564.325,424.629L564.325,270.254C564.325,261.992 564.063,259.413 561.479,259.412L549.862,259.412C547.796,259.412 547.542,258.638 547.542,257.863C547.542,257.088 547.796,256.313 549.862,256.312L624.213,256.312ZM2406.51,256.312C2408.32,256.313 2408.83,257.346 2408.83,258.379L2408.83,317.237C2408.83,319.046 2407.8,319.304 2407.03,319.304C2405.99,319.304 2405.22,319.304 2405.22,317.237L2405.22,312.075C2405.22,283.162 2391.54,259.408 2365.46,259.408L2349.72,259.408C2347.91,259.408 2347.65,260.183 2347.65,260.958L2347.65,424.629C2347.65,432.892 2347.91,435.471 2350.23,435.471L2362.62,435.471C2364.69,435.471 2364.95,436.246 2364.95,437.021C2364.95,437.796 2364.69,438.571 2362.62,438.571L2301.7,438.571C2299.63,438.571 2299.12,437.796 2299.12,437.021C2299.12,436.246 2299.38,435.471 2301.7,435.471L2313.83,435.471C2316.41,435.471 2316.67,432.892 2316.67,424.629L2316.67,260.958C2316.67,260.183 2316.41,259.408 2314.35,259.408L2298.6,259.408C2272.78,259.408 2258.85,283.162 2258.85,312.075L2258.85,317.237C2258.85,319.304 2258.07,319.304 2257.3,319.304C2256.52,319.304 2255.49,319.046 2255.49,317.237L2255.49,258.379C2255.49,257.346 2255.75,256.313 2257.81,256.312L2406.51,256.312ZM850.871,256.312C852.675,256.313 853.192,257.346 853.192,258.379L853.192,313.883C853.192,315.687 852.417,315.946 851.646,315.946C850.613,315.946 849.579,315.946 849.579,313.883L849.579,311.042C849.579,283.679 835.637,259.413 808.792,259.412L782.975,259.412C781.167,259.413 780.392,260.183 780.392,260.958L780.392,340.471C780.392,341.246 780.908,341.763 782.717,341.763L798.204,341.763C812.404,341.762 824.538,330.921 824.538,315.946L824.538,313.883C824.538,311.817 825.312,311.558 826.088,311.558C826.863,311.558 827.637,312.075 827.637,313.883L827.637,372.742C827.637,374.546 826.863,375.063 826.088,375.063C825.312,375.063 824.538,374.804 824.538,372.742L824.538,370.933C824.538,355.704 812.404,344.6 798.204,344.6L782.975,344.6C781.167,344.6 780.392,345.375 780.392,346.15L780.392,433.925C780.392,434.696 780.908,435.471 782.717,435.471L806.983,435.471C846.737,435.471 858.1,400.362 858.1,381.775L858.1,379.454C858.1,377.387 859.129,377.129 859.904,377.129C860.938,377.129 861.713,377.646 861.713,379.454L861.713,436.762C861.713,437.796 861.196,438.571 859.388,438.571L734.958,438.571C732.892,438.571 732.633,437.796 732.633,437.021C732.633,436.246 732.892,435.471 734.958,435.471L746.575,435.471C749.158,435.471 749.417,432.892 749.417,424.629L749.417,270.254C749.417,261.992 749.158,259.413 746.575,259.412L734.958,259.412C732.892,259.412 732.633,258.638 732.633,257.863C732.633,257.088 732.892,256.313 734.958,256.312L850.871,256.312ZM624.213,259.412L597.883,259.412C596.071,259.413 595.296,260.183 595.296,260.958L595.296,433.925C595.296,434.696 595.812,435.471 597.621,435.471L623.954,435.471C659.579,435.471 660.096,404.75 661.642,384.358C663.454,359.317 663.454,333.758 661.642,308.717C660.354,291.937 657.512,259.413 624.213,259.412ZM994.588,383.704L985.604,383.704L977.654,374.308C974.487,377.75 970.838,380.383 966.708,382.208C962.579,384.033 958.412,384.946 954.213,384.946C948.154,384.946 943.283,383.175 939.604,379.625C935.917,376.083 934.079,371.383 934.079,365.533C934.079,360.646 935.538,356.479 938.467,353.038C941.392,349.596 945.712,346.258 951.425,343.021C948.05,338.892 945.696,335.571 944.354,333.054C943.008,330.542 942.337,327.979 942.337,325.362C942.337,320.75 943.954,317.067 947.192,314.312C950.425,311.562 954.487,310.183 959.375,310.183C964.058,310.183 967.946,311.629 971.046,314.521C974.142,317.413 975.692,321.096 975.692,325.571C975.692,329.221 974.487,332.504 972.079,335.429C969.667,338.358 966.121,341.267 961.442,344.158L977.138,362.95C979.133,359.025 980.371,354.967 980.854,350.767L987.671,350.767C987.117,357.167 985.192,363.088 981.887,368.525L994.588,383.704ZM945.025,374.721C942.271,372.242 940.892,368.975 940.892,364.913C940.892,361.746 942.046,358.854 944.354,356.237C946.658,353.621 950.325,350.8 955.35,347.771L973.112,368.938C970.633,371.9 967.846,374.225 964.746,375.908C961.65,377.596 958.617,378.437 955.658,378.437C951.321,378.437 947.775,377.2 945.025,374.721ZM427.5,285.483L426.987,285.483L402.717,364.996C402.458,365.771 402.975,366.546 404.779,366.546L450.733,366.546C452.542,366.546 453.312,365.254 453.054,364.479L427.5,285.483ZM2010.5,366.546C2012.31,366.546 2013.08,365.254 2012.83,364.479L1987.27,285.483L1986.75,285.483L1962.48,364.996C1962.23,365.771 1962.74,366.546 1964.55,366.546L2010.5,366.546ZM1829.79,341.504C1844.51,341.504 1853.8,332.467 1853.8,300.975C1853.8,268.188 1843.22,259.408 1829.28,259.408L1802.69,259.408C1800.88,259.408 1800.1,260.183 1800.1,260.958L1800.1,339.954C1800.1,340.729 1800.62,341.504 1802.43,341.504L1829.79,341.504ZM264.346,259.412L237.754,259.412C235.946,259.413 235.175,260.183 235.175,260.958L235.175,339.954C235.175,340.729 235.692,341.504 237.496,341.504L264.863,341.504C279.575,341.504 288.871,332.467 288.871,300.975C288.871,268.188 278.283,259.413 264.346,259.412ZM966.037,319.271C967.929,321.063 968.875,323.4 968.875,326.292C968.875,330.767 965.125,335.208 957.621,339.612C954.592,335.967 952.421,333.125 951.117,331.092C949.808,329.063 949.154,327.187 949.154,325.467C949.154,322.779 950.046,320.629 951.837,319.012C953.629,317.396 956.004,316.588 958.963,316.588C961.787,316.588 964.142,317.479 966.037,319.271ZM1659.42,175.31L749.417,175.31L749.417,171.315L1659.42,171.315L1659.42,175.31ZM1611.25,89.771C1617.28,85.125 1621.55,79.5 1621.55,76.221C1621.55,75.487 1621.21,75.017 1620.9,75.017C1620.53,75.017 1620.13,75.163 1619.67,75.146C1619.17,75.237 1618.67,75.342 1618.15,75.342C1614.48,75.342 1611.82,73.071 1611.82,69.229C1611.82,66.138 1614.8,63.475 1618.03,63.475C1623.1,63.454 1626.48,67.3 1626.48,73.763C1626.48,80.079 1623.05,85.508 1613.44,92.633L1611.25,89.771ZM1054.07,75.767L1050.76,75.767L1050.34,47.742L1054.13,47.317C1056.98,63.3 1066.71,71.771 1079.08,71.771C1088.92,71.771 1095.31,66.525 1095.31,57.296C1095.31,51.567 1092.67,47.683 1085.82,45.933L1069.94,41.808C1058.35,38.821 1051.58,33.542 1051.58,22.496C1051.58,9.337 1060.38,2.037 1073.11,2.037C1080.22,2.037 1085.95,4.079 1091.26,8.892L1095.26,2.567L1098.75,2.567L1100,28.183L1096,28.183C1093.13,17.233 1086.03,6.392 1073.45,6.45C1063.8,6.45 1059.44,12.325 1059.44,18.158C1059.44,23.108 1062.01,27.454 1071.29,29.958L1086.64,34.225C1097.83,37.242 1103.24,44.642 1103.24,55.033C1103.24,66.817 1094.56,76.133 1079.08,76.183C1071.03,76.183 1063.9,73.325 1058.5,68.592L1054.07,75.767ZM1149.05,75.717L1145.78,75.717L1145.44,47.658L1149.19,47.25C1152,63.192 1161.78,71.704 1174.14,71.704C1183.94,71.704 1190.41,66.442 1190.38,57.187C1190.38,51.517 1187.71,47.633 1180.91,45.842L1164.99,41.733C1153.37,38.787 1146.6,33.433 1146.6,22.471C1146.6,9.254 1155.45,1.946 1168.13,1.946C1175.26,1.946 1180.98,4.004 1186.28,8.829L1190.28,2.492L1193.77,2.492L1194.95,28.108L1191.03,28.108C1188.15,17.158 1181.12,6.358 1168.44,6.358C1158.84,6.358 1154.43,12.3 1154.43,18.1C1154.43,23.017 1157.03,27.354 1166.31,29.917L1181.67,34.133C1192.92,37.167 1198.23,44.567 1198.23,54.942C1198.29,66.742 1189.58,76.092 1174.14,76.133C1166.08,76.133 1158.95,73.267 1153.52,68.525L1149.05,75.717ZM581.558,8.3C579.2,8.3 578.288,9.15 578.288,10.467C578.288,11.425 578.971,13.925 579.883,16.625L593.033,57.942L593.229,57.942L605.046,18.425L602.346,10.833C601.579,8.675 600.279,8.267 596.633,8.267L593.571,8.267L593.571,3.887L622.054,3.842L622.054,8.237L619.029,8.267C614.325,8.267 613.721,9.742 613.721,11.521C613.721,13.85 614.762,17.008 616.017,20.779L627.867,57.925L628.063,57.925L639.488,18.613C640.071,16.625 640.479,14.767 640.479,13.183C640.413,8.983 635.954,8.429 631.104,8.237L631.104,3.817L655.013,3.817L655.013,8.213C648.6,8.529 646.729,11.679 644.271,19.975L627.637,76.025L623.242,76.025L607.438,26.625L607.229,26.625L592.871,76.092L588.446,76.092L567.333,12.613C566.067,8.879 565.446,8.3 560.708,8.3L559.279,8.3L559.279,3.887L586.929,3.887L586.996,8.3L581.558,8.3ZM1277.23,38.975C1277.23,19.875 1263.7,1.883 1243.1,1.883C1220.13,1.921 1209.25,24.317 1209.25,39.033C1209.25,58.083 1222.83,76.029 1243.41,76.029C1266.34,76.029 1277.23,53.696 1277.23,38.975ZM1313.93,74.513L1285.97,74.513L1285.97,70.142C1294.76,69.867 1297.43,66.496 1297.43,58.504L1297.36,11.004C1295.18,8.154 1292.75,7.754 1287.42,7.754L1285.9,7.754L1285.9,3.375L1306.3,3.354L1345.07,56.471L1345.26,56.471L1345.26,21.629C1345.21,12.55 1344.27,7.983 1333.8,7.729L1333.8,3.304L1361.65,3.296L1361.65,7.708C1356.83,8.112 1353.37,8.983 1352.13,11.663C1350.8,14.308 1350.24,17.629 1350.24,22.917L1350.24,75.992L1346.29,75.992L1302.54,15.537L1302.34,15.537L1302.39,58.417C1302.39,66.392 1303.35,69.758 1313.92,70.142L1313.93,74.513ZM1434.47,38.821C1434.4,19.779 1420.86,1.775 1400.28,1.8C1377.38,1.825 1366.42,24.212 1366.47,38.908C1366.47,57.971 1379.95,75.954 1400.55,75.937C1423.52,75.921 1434.47,53.55 1434.47,38.821ZM1755.29,75.692L1751.27,75.692L1707.53,15.204L1707.32,15.204L1707.4,58.1C1707.4,66.117 1708.38,69.442 1718.94,69.833L1718.94,74.254L1691,74.288L1690.97,69.867C1699.8,69.542 1702.45,66.196 1702.41,58.187L1702.39,10.679C1700.28,7.813 1697.74,7.442 1692.43,7.442L1690.97,7.442L1690.97,3.029L1711.31,3.029L1750.16,56.171L1750.29,56.171L1750.29,21.317C1750.29,12.233 1749.25,7.708 1738.82,7.442L1738.82,3.021L1766.67,2.988L1766.67,7.358C1761.83,7.783 1758.38,8.692 1757.16,11.362C1755.81,14 1755.25,17.367 1755.25,22.592L1755.29,75.692ZM1827.49,30.75L1823.6,30.75C1820.36,17.629 1813.74,5.888 1801.14,5.888C1786.4,5.904 1780.13,20.325 1780.13,38.787C1780.13,46.008 1780.65,53.787 1783.9,60.404C1787.23,67.175 1793.98,71.267 1801.53,71.267C1815.79,71.267 1822.5,61.679 1824.46,49.092L1829.02,49.921C1826.73,65.896 1817.17,75.621 1800.16,75.646C1791,75.646 1782.33,71.567 1776.25,64.821C1770.22,58.254 1767.52,49.254 1767.52,40.333C1767.52,15.896 1784.96,1.5 1801.43,1.5C1807.07,1.5 1813.74,3.658 1818.36,8.271L1822.64,2.037L1826.08,2.037L1827.49,30.75ZM1843.36,63.421C1846.71,63.421 1849.54,66.171 1849.54,69.542C1849.54,72.846 1846.74,75.554 1843.42,75.554C1840.02,75.554 1837.32,72.883 1837.32,69.542C1837.29,66.196 1840.02,63.421 1843.36,63.421ZM693.896,75.012L661.229,75.012L661.229,70.608L666.633,70.608C670.492,70.6 672.183,69.542 672.183,65.596L672.117,13.229C672.117,9.304 670.442,8.213 666.6,8.213L661.163,8.213L661.163,3.821L693.767,3.779L693.767,8.183L688.363,8.183C684.521,8.183 682.842,9.304 682.842,13.229L682.842,65.596C682.842,69.542 684.521,70.6 688.442,70.6L693.796,70.6L693.896,75.012ZM737.012,8.158L731.575,8.158C727.717,8.158 726.058,9.254 726.058,13.196L726.125,66.725C726.125,70.146 727.475,70.6 733.433,70.55C751.971,70.55 756.95,69.642 761.167,48.604L765.042,48.604L763.217,74.946L704.458,75.012L704.458,70.6L709.879,70.6C713.671,70.6 715.383,69.517 715.383,65.546L715.383,13.221C715.383,9.279 713.671,8.158 709.829,8.158L704.429,8.183L704.362,3.779L737.012,3.746L737.012,8.158ZM772.267,3.729L804.804,3.671L804.804,8.117L799.417,8.133C795.542,8.133 793.867,9.204 793.867,13.154L793.879,66.667C793.879,70.087 795.313,70.517 801.204,70.517C819.758,70.508 824.692,69.6 828.925,48.546L832.913,48.546L831.025,74.887L772.267,74.946L772.267,70.533L777.671,70.533C781.546,70.533 783.187,69.442 783.187,65.488L783.187,13.154C783.187,9.204 781.513,8.133 777.621,8.133L772.267,8.133L772.267,3.729ZM916.633,2.15L942.692,66.138C944.254,69.825 946.008,70.413 951.429,70.413L951.429,74.846L921.221,74.846L921.221,70.413L923.712,70.413C929.621,70.413 931.413,69.542 931.413,67.837C931.413,66.896 930.987,65.592 929.979,62.963L925.421,51.287L898.696,51.333L896.058,59.171C895.067,61.963 894.579,63.65 894.579,64.771C894.579,69.442 898.696,70.354 904.688,70.421L904.688,74.846L878.562,74.854L878.562,70.421C883.933,70.371 887.025,67.588 888.883,62.737L912.692,2.15L916.633,2.15ZM873.5,8.042L868.067,8.042C864.208,8.042 862.533,9.146 862.533,13.104L862.646,65.454C862.646,69.383 864.304,70.475 868.067,70.475L873.55,70.475L873.55,74.854L840.95,74.854L840.95,70.508L846.321,70.508C850.196,70.475 851.854,69.383 851.854,65.454L851.854,13.104C851.854,9.146 850.129,8.083 846.271,8.083L840.854,8.083L840.854,3.654L873.5,3.654L873.5,8.042ZM971.404,8.5L971.454,56.471C971.454,65.546 972.463,70.087 982.929,70.404L982.929,74.817L955.342,74.846L955.342,70.413C964.146,69.6 966.504,67.929 966.504,54.096L966.454,13.029C966.454,9.05 964.762,7.987 960.904,7.987L955.342,7.987L955.342,3.567L980.583,3.567L999.496,57.033L999.692,57.033L1017.76,3.567L1042.78,3.55L1042.78,7.887L1037.17,7.963C1033.32,7.963 1031.64,8.987 1031.64,12.992L1031.67,65.279C1031.67,69.258 1033.4,70.354 1037.22,70.354L1042.85,70.354L1042.85,74.742L1009.98,74.783L1009.98,70.371L1015.43,70.371C1019.27,70.371 1021.01,69.258 1021.01,65.279L1020.93,8.433L1020.7,8.433L998.129,74.783L995.183,74.783L971.617,8.5L971.404,8.5ZM1467.3,74.425L1439.73,74.425L1439.73,70.063C1448.45,69.254 1450.78,67.562 1450.78,53.746L1450.78,12.671C1450.78,8.708 1449.08,7.658 1445.28,7.658L1439.62,7.658L1439.62,3.217L1464.91,3.175L1483.82,56.658L1484,56.658L1502.12,3.175L1527.08,3.125L1527.08,7.587L1521.47,7.587C1517.65,7.587 1515.98,8.692 1515.98,12.617L1515.98,64.967C1515.98,68.896 1517.65,69.971 1521.5,69.971L1527.15,69.971L1527.15,74.367L1494.32,74.4L1494.32,70.021L1499.76,70.021C1503.58,69.971 1505.28,68.896 1505.28,64.967L1505.24,8.083L1505.03,8.083L1482.45,74.425L1479.48,74.425L1455.94,8.129L1455.76,8.129L1455.76,56.071C1455.76,65.196 1456.77,69.758 1467.3,70.021L1467.3,74.425ZM1569.32,1.687L1595.38,65.667C1596.88,69.337 1598.62,69.917 1604.15,69.917L1604.15,74.325L1573.89,74.367L1573.89,69.971L1576.4,69.971C1582.24,69.971 1584.03,69.004 1584.03,67.35C1584.03,66.496 1583.59,65.104 1582.67,62.492L1578,50.833L1551.38,50.863L1548.7,58.658C1547.77,61.433 1547.23,63.25 1547.23,64.283C1547.23,68.971 1551.38,69.867 1557.33,69.971L1557.33,74.367L1531.23,74.367L1531.23,69.971C1536.62,69.883 1539.68,67.108 1541.5,62.233L1565.36,1.687L1569.32,1.687ZM1679.87,7.442L1674.4,7.442C1670.62,7.442 1668.93,8.529 1668.93,12.525L1668.95,64.821C1668.95,68.792 1670.65,69.883 1674.43,69.883L1679.87,69.867L1679.87,74.288L1647.25,74.296L1647.25,69.883L1652.69,69.883C1656.56,69.883 1658.2,68.792 1658.2,64.821L1658.2,12.525C1658.2,8.529 1656.48,7.442 1652.62,7.442L1647.18,7.442L1647.18,3.029L1679.87,3.029L1679.87,7.442ZM1264.62,38.983C1264.62,53.292 1261.26,71.608 1243.41,71.642C1222.98,71.642 1221.86,48.983 1221.86,39.017C1221.86,24.717 1225.23,6.342 1243.1,6.275C1263.49,6.275 1264.53,28.992 1264.62,38.983ZM1421.79,38.821C1421.79,53.167 1418.45,71.537 1400.55,71.537C1380.19,71.567 1379.13,48.871 1379.13,38.908C1379.03,24.562 1382.39,6.188 1400.28,6.188C1420.67,6.171 1421.79,28.883 1421.79,38.821ZM1109.98,42.688L1134.52,42.638L1134.52,50.304L1109.98,50.312L1109.98,42.688ZM923.438,46.371L911.879,17.629L900.6,46.371L923.438,46.371ZM1553.27,45.85L1564.47,17.083L1576.17,45.842L1553.27,45.85Z" style="fill:rgb(35,31,32);"/>
            </g>
        </g>
    </g>
</svg>
