<?xml version="1.0" encoding="UTF-8" standalone="no"?>
<!DOCTYPE svg PUBLIC "-//W3C//DTD SVG 1.1//EN" "http://www.w3.org/Graphics/SVG/1.1/DTD/svg11.dtd">
<svg width="100%" height="100%" viewBox="0 0 600 67" version="1.1" xmlns="http://www.w3.org/2000/svg" xmlns:xlink="http://www.w3.org/1999/xlink" xml:space="preserve" style="fill-rule:evenodd;clip-rule:evenodd;stroke-linejoin:round;stroke-miterlimit:1.41421;">
    <g transform="matrix(1,0,0,1,-0.000377779,-0.00449719)">
        <g transform="matrix(0.973265,0,0,0.565602,12.0923,-123.088)">
            <g>
                <g transform="matrix(3.23894,0,0,5.57344,-232.672,-3280.26)">
                    <path d="M253.452,627.6L253.452,628.281L252.127,628.281L252.127,631.777L251.386,631.777L251.386,628.281L250.062,628.281L250.062,627.6L253.452,627.6ZM256.281,629.576L257.552,627.6L258.334,627.6L258.334,631.777L257.6,631.777L257.6,628.781L256.281,630.752L256.257,630.752L254.95,628.793L254.95,631.777L254.229,631.777L254.229,627.6L255.009,627.6L256.281,629.576Z" style="fill:white;"/>
                </g>
                <g transform="matrix(3.23894,0,0,5.57344,-232.672,-3280.26)">
                    <path d="M140.62,627.6L146.899,627.6L155.027,648.801L149.969,648.801L143.759,632.14L137.549,648.801L132.492,648.801L140.62,627.6Z" style="fill:rgb(255,70,17);"/>
                </g>
                <g transform="matrix(3.23894,0,0,5.57344,-232.672,-3280.26)">
                    <path d="M237.701,627.6C243.286,627.6 245.121,629.802 245.121,633.552L245.121,636.61C245.121,639.016 244.469,640.402 242.308,641.584L247.201,648.801L241.452,648.801L237.294,642.603L231.395,642.603L231.395,648.801L226.34,648.801L226.34,627.6L237.701,627.6ZM177.534,627.6C183.161,627.6 184.954,629.802 184.955,633.553L184.955,636.814C184.955,640.646 182.877,642.807 177.29,642.807L171.515,642.807L171.515,648.801L166.458,648.801L166.458,627.6L177.534,627.6ZM197.259,627.6L213.554,627.6L213.554,631.758L202.314,631.758L202.314,635.876L212.819,635.876L212.819,640.075L202.314,640.075L202.314,644.643L213.554,644.643L213.554,648.801L197.259,648.801L197.259,627.6ZM78.954,627.6C85.274,627.6 86.783,630.699 86.783,634.776L86.783,641.626C86.783,645.702 85.274,648.801 78.954,648.801L68,648.801L68,627.6L78.954,627.6ZM111.986,627.6C117.572,627.6 119.406,629.802 119.406,633.553L119.406,636.611C119.406,639.017 118.754,640.402 116.593,641.584L121.486,648.801L115.736,648.801L111.578,642.604L105.681,642.604L105.681,648.801L100.625,648.801L100.625,627.6L111.986,627.6ZM78.669,644.519C80.952,644.519 81.808,643.623 81.808,641.666L81.808,634.735C81.808,632.778 80.952,631.881 78.669,631.881L73.056,631.881L73.056,644.519L78.669,644.519ZM177.33,638.73C179.248,638.73 179.94,638.037 179.94,636.569L179.94,633.797C179.94,632.37 179.247,631.718 177.33,631.718L171.515,631.718L171.515,638.73L177.33,638.73ZM237.579,638.567C239.495,638.567 240.188,637.833 240.188,636.325L240.188,633.797C240.188,632.288 239.495,631.718 237.742,631.718L231.395,631.718L231.395,638.567L237.579,638.567ZM111.864,638.567C113.781,638.567 114.473,637.833 114.473,636.325L114.473,633.798C114.473,632.289 113.781,631.718 112.027,631.718L105.681,631.718L105.681,638.567L111.864,638.567Z" style="fill:white;"/>
                </g>
            </g>
        </g>
    </g>
</svg>
