<?xml version="1.0" encoding="UTF-8" standalone="no"?>
<!DOCTYPE svg PUBLIC "-//W3C//DTD SVG 1.1//EN" "http://www.w3.org/Graphics/SVG/1.1/DTD/svg11.dtd">
<svg width="100%" height="100%" viewBox="0 0 512 512" version="1.1" xmlns="http://www.w3.org/2000/svg" xmlns:xlink="http://www.w3.org/1999/xlink" xml:space="preserve" xmlns:serif="http://www.serif.com/" style="fill-rule:evenodd;clip-rule:evenodd;stroke-linejoin:round;stroke-miterlimit:1.41421;">
    <path d="M250.896,0.05C252.593,0.017 254.295,0 256,0C257.705,0 259.407,0.017 261.104,0.05L261.161,0.051L261.78,0.064C262.117,0.072 262.454,0.08 262.79,0.089L262.908,0.092L263.08,0.097L263.426,0.106L263.859,0.119L264.036,0.124L264.12,0.127C264.455,0.137 264.79,0.148 265.125,0.16L265.164,0.161L265.301,0.166L265.89,0.188L266.145,0.198L266.291,0.204L266.442,0.21L266.709,0.22L267.273,0.245L267.419,0.251L267.463,0.253C267.798,0.267 268.133,0.283 268.467,0.299L268.546,0.303L268.719,0.311L269.165,0.333L269.504,0.351L269.673,0.36L269.791,0.366C270.403,0.399 271.014,0.433 271.625,0.47L271.633,0.47L271.867,0.485L272.431,0.52L272.466,0.522L272.721,0.539L273.245,0.573L273.277,0.575L273.299,0.576L273.548,0.594L274.059,0.628L274.105,0.632L274.132,0.634L274.368,0.65L274.872,0.686L274.932,0.691L274.965,0.693L275.187,0.71L275.685,0.747L275.76,0.753L275.797,0.756L276.005,0.772L276.496,0.81L276.587,0.818L276.629,0.821L276.823,0.837L277.308,0.876L277.415,0.885L277.461,0.889L277.643,0.904L278.118,0.944L278.243,0.955L278.293,0.959L278.464,0.974L278.928,1.015L279.07,1.028L279.125,1.033L279.286,1.047L279.736,1.088L279.896,1.103L279.956,1.108L280.109,1.123L280.545,1.164L280.722,1.181L280.787,1.187L280.933,1.201L281.352,1.242L281.548,1.262L281.618,1.268L281.757,1.283L282.159,1.323L282.372,1.345L282.449,1.353L282.582,1.366L282.965,1.406L283.196,1.431L283.279,1.439L283.407,1.453L283.77,1.492L284.018,1.519L284.109,1.529L284.232,1.542L284.575,1.58L284.84,1.61L284.939,1.621L285.058,1.634L285.379,1.671L285.661,1.703L285.768,1.716L285.883,1.729L286.182,1.764L286.48,1.799L286.597,1.813L286.708,1.827L286.984,1.86L287.298,1.898L287.426,1.914L287.532,1.927L287.785,1.958L288.114,1.999L288.255,2.017L288.356,2.029L288.586,2.058L288.93,2.103L289.083,2.122L289.179,2.135L289.386,2.161L289.744,2.209L289.91,2.231L290.002,2.243L290.185,2.267L290.557,2.317L290.738,2.342L290.823,2.353L290.984,2.375L291.369,2.428L291.565,2.455L291.643,2.466L291.782,2.486L292.18,2.542L292.392,2.572L292.462,2.582L292.578,2.598L292.99,2.658L293.218,2.691L293.279,2.7L293.375,2.714L293.801,2.777L294.044,2.813L294.095,2.821L294.17,2.832L294.615,2.899L294.869,2.937L294.91,2.944L294.964,2.952L295.437,3.025L295.694,3.065L295.723,3.069L295.758,3.075L296.286,3.158L296.519,3.195L296.534,3.197C297.11,3.289 297.685,3.382 298.259,3.478L298.348,3.493L298.536,3.525L298.925,3.59L299.194,3.636L299.352,3.662L299.489,3.686L300.196,3.808L300.355,3.836L300.408,3.845C300.72,3.9 301.032,3.955 301.344,4.011L301.358,4.013L301.418,4.024L302.079,4.144L302.273,4.179L302.359,4.195L302.491,4.219L302.865,4.288L303.241,4.358L303.36,4.38L303.437,4.395C304.076,4.515 304.714,4.637 305.351,4.762L306.002,4.89L306.299,4.949L306.359,4.961L306.426,4.974L306.784,5.046L307.326,5.156L307.371,5.165C308.03,5.3 308.689,5.437 309.346,5.577L309.904,5.695L310.32,5.785L310.346,5.791L310.367,5.795C311.352,6.009 312.336,6.228 313.318,6.453L313.34,6.458C314.649,6.758 315.955,7.068 317.257,7.389L317.289,7.397L317.318,7.404C318.282,7.641 319.245,7.884 320.204,8.132L320.251,8.144L320.317,8.161L320.713,8.264L321.163,8.382L321.236,8.401L321.278,8.412C321.905,8.577 322.532,8.745 323.157,8.915L323.203,8.927L323.307,8.956L323.768,9.081L324.069,9.164L324.185,9.196L324.288,9.225L324.53,9.291L325.054,9.438L325.166,9.469L325.202,9.479C325.507,9.565 325.811,9.651 326.115,9.737L326.146,9.746L326.265,9.78L326.808,9.935L327.006,9.992L327.124,10.027L327.28,10.072L327.566,10.155L327.928,10.261L328.102,10.311L328.192,10.338C328.791,10.514 329.389,10.692 329.986,10.872L330.086,10.902L330.25,10.952L330.587,11.054L330.932,11.16L331.092,11.208L331.185,11.237C331.796,11.425 332.406,11.615 333.015,11.807L333.1,11.834L333.234,11.876L333.592,11.99L333.979,12.113L334.102,12.153L334.171,12.175C334.796,12.375 335.42,12.578 336.042,12.783L336.103,12.803L336.193,12.833L336.581,12.961L337.028,13.11L337.101,13.134L337.139,13.147C337.78,13.361 338.419,13.578 339.057,13.797L339.093,13.809L339.144,13.827L339.555,13.968L340.064,14.145L340.098,14.157C340.75,14.384 341.401,14.613 342.051,14.846L342.07,14.853L342.096,14.862C343.073,15.211 344.048,15.566 345.02,15.927L345.053,15.939C346.025,16.301 346.994,16.668 347.961,17.04L347.985,17.05L348.013,17.06C348.969,17.429 349.923,17.804 350.874,18.184L350.922,18.203L350.971,18.223C351.601,18.475 352.23,18.73 352.858,18.987L352.872,18.992L352.909,19.008L353.449,19.229L353.761,19.359L353.844,19.393L353.918,19.424L354.169,19.528L354.801,19.792L354.819,19.799C355.125,19.927 355.43,20.056 355.736,20.186L355.784,20.206L356.324,20.436L356.63,20.567L356.751,20.619L356.844,20.659L357.04,20.743L357.679,21.019L357.725,21.039C358.017,21.166 358.309,21.293 358.601,21.421L358.681,21.456L358.83,21.522L359.181,21.676L359.643,21.881L359.74,21.924L359.893,21.992L360.603,22.309C360.824,22.408 361.045,22.508 361.265,22.608L361.313,22.629L361.486,22.708L361.816,22.857L361.926,22.907L362.021,22.951L362.191,23.028L362.421,23.133L362.586,23.209L362.728,23.274L362.869,23.34L363.025,23.411L363.244,23.513L363.434,23.6L363.538,23.649L363.629,23.691L363.903,23.819L364.138,23.928L364.202,23.958L364.231,23.972L364.571,24.131L364.842,24.258L365.191,24.423L365.435,24.538L365.458,24.549L365.544,24.59L365.855,24.738L366.036,24.824L366.097,24.854L366.245,24.924L366.509,25.051L366.635,25.111L366.727,25.156L366.945,25.261L367.161,25.365L367.235,25.4L367.34,25.451L367.644,25.599L367.811,25.68L367.833,25.691L367.901,25.724C375.847,29.596 383.563,33.867 391.024,38.512L391.103,38.561L391.144,38.587L391.332,38.704L391.581,38.86L391.753,38.968L391.986,39.113L392.163,39.225L392.231,39.268L392.36,39.349L392.638,39.525L392.755,39.599L392.793,39.623L392.963,39.731L393.29,39.939L393.354,39.98L393.489,40.066L393.94,40.354L394.205,40.525L394.474,40.698L394.516,40.725L394.588,40.771L394.802,40.91L395.032,41.059L395.128,41.121L395.235,41.191L395.404,41.3L395.59,41.422L395.742,41.521L395.881,41.612L396.006,41.694L396.147,41.786L396.364,41.929L396.526,42.035L396.608,42.089L396.702,42.151L397.007,42.353L397.169,42.46L397.21,42.487C397.41,42.62 397.611,42.753 397.811,42.887C398.013,43.022 398.215,43.157 398.417,43.293L398.451,43.315L398.623,43.431L398.948,43.65L399.022,43.7L399.09,43.746L399.27,43.868L399.516,44.034L399.625,44.108L399.728,44.178L399.894,44.291L400.082,44.419L400.225,44.517L400.365,44.612L400.507,44.711L400.647,44.806L400.821,44.926L401,45.049L401.116,45.129L401.211,45.194L401.411,45.333L401.633,45.487L401.722,45.548L401.774,45.584L401.987,45.733L402.266,45.926L402.325,45.968L402.336,45.976L402.481,46.077C402.958,46.411 403.433,46.746 403.908,47.082L404.016,47.159L404.039,47.175L404.154,47.257L404.472,47.484L404.574,47.556L404.617,47.587L404.781,47.704L405.052,47.899L405.131,47.955L405.187,47.996L405.406,48.153L405.637,48.32L405.686,48.356L405.746,48.399L406.03,48.604L406.222,48.744L406.279,48.786C412.537,53.334 418.582,58.159 424.395,63.242L424.436,63.278L424.46,63.299L424.653,63.468L424.898,63.684L424.951,63.73L425.002,63.774L425.23,63.975L425.418,64.141L425.465,64.183L425.539,64.249L425.805,64.484L425.944,64.608L425.977,64.637L426.068,64.718L426.379,64.995L426.475,65.081L426.488,65.093L426.571,65.167C427.003,65.554 427.435,65.942 427.865,66.333L428.015,66.468L428.031,66.483L428.091,66.537L428.335,66.76L428.521,66.929L428.574,66.977L428.659,67.055L428.853,67.233L429.026,67.392L429.116,67.474L429.225,67.574L429.381,67.718L429.53,67.856L429.658,67.974L429.789,68.095L429.911,68.207L430.033,68.321L430.203,68.479L430.352,68.617L430.441,68.701L430.535,68.787L430.753,68.991L430.914,69.142L430.972,69.196L431.035,69.255L431.322,69.525L431.473,69.667L431.502,69.695C431.679,69.861 431.855,70.028 432.032,70.195C432.208,70.362 432.384,70.529 432.559,70.697L432.588,70.724L432.738,70.867L433.022,71.139L433.085,71.199L433.143,71.255L433.301,71.406L433.516,71.613L433.609,71.702L433.697,71.787L433.842,71.928L434.008,72.088L434.13,72.206L434.249,72.321L434.375,72.444L434.499,72.565L434.647,72.71L434.799,72.857L434.903,72.959L434.989,73.043L435.16,73.211L435.347,73.394L435.427,73.473L435.478,73.522L435.662,73.704L435.895,73.933L435.949,73.988L435.965,74.003L436.117,74.153C436.521,74.554 436.923,74.955 437.325,75.358L437.419,75.452L437.435,75.469L437.526,75.56L437.807,75.844L437.936,75.973L438.067,76.105L438.307,76.349L438.382,76.425L438.43,76.475L438.606,76.653L438.861,76.913L438.916,76.969L439.143,77.201L439.314,77.377L439.339,77.403L439.384,77.449C444.764,82.973 449.897,88.739 454.764,94.73L454.803,94.777L454.823,94.801L454.971,94.984L455.183,95.246L455.234,95.309L455.277,95.363L455.455,95.582L455.617,95.784L455.663,95.842L455.728,95.923L455.936,96.182L456.057,96.333L456.091,96.376L456.174,96.48L456.416,96.783L456.499,96.889L456.517,96.911L456.606,97.023C456.96,97.468 457.312,97.915 457.662,98.363L457.788,98.523L457.799,98.537L457.844,98.594L458.047,98.855L458.209,99.063L458.25,99.116L458.316,99.201L458.479,99.411L458.628,99.604L458.7,99.697L458.787,99.809L458.918,99.979L459.046,100.146L459.15,100.281L459.256,100.419L459.358,100.552L459.463,100.689L459.602,100.871L459.723,101.03L459.798,101.128L459.878,101.233L460.057,101.469L460.189,101.642L460.238,101.708L460.291,101.778L460.528,102.092L460.652,102.256L460.676,102.289C460.823,102.483 460.968,102.677 461.114,102.872C461.26,103.067 461.405,103.262 461.551,103.457L461.574,103.489L461.7,103.658L461.935,103.975L461.985,104.043L462.032,104.107L462.166,104.288L462.343,104.528L462.416,104.628L462.489,104.727L462.613,104.897L462.75,105.083L462.844,105.213L463.053,105.498L463.155,105.638L463.269,105.795L463.396,105.97L463.488,106.098L463.558,106.195L463.687,106.373L463.847,106.594L463.92,106.696L463.961,106.752L464.092,106.935L464.296,107.219L464.35,107.295L464.361,107.311L464.451,107.436C464.819,107.952 465.185,108.468 465.55,108.987L465.632,109.104L465.908,109.498L465.949,109.557L465.962,109.575L466.074,109.734L466.305,110.068L466.342,110.121L466.363,110.151L466.513,110.367L466.711,110.652L466.755,110.717L466.951,111L467.118,111.244L467.133,111.264C471.656,117.847 475.88,124.651 479.784,131.658L479.804,131.693L479.819,131.72L479.965,131.982L480.113,132.25L480.138,132.294L480.168,132.35L480.34,132.659L480.45,132.86L480.47,132.896L480.512,132.974L480.712,133.338L480.79,133.48L480.8,133.499L480.843,133.577C481.152,134.142 481.459,134.709 481.763,135.277L481.818,135.38L481.995,135.711L482.106,135.919L482.131,135.966L482.183,136.063L482.318,136.317L482.429,136.526L482.478,136.62L482.546,136.747L482.652,136.949L482.749,137.134L482.825,137.278L482.906,137.433L482.988,137.589L483.069,137.743L483.171,137.941L483.265,138.12L483.324,138.235L483.386,138.353L483.521,138.613L483.622,138.808L483.66,138.883L483.702,138.964L483.881,139.312L483.995,139.534L484.016,139.575L484.329,140.188C484.483,140.491 484.636,140.794 484.789,141.098L484.846,141.21L484.905,141.328L485.028,141.572L485.34,142.198L485.362,142.242C485.515,142.551 485.668,142.859 485.82,143.169L485.866,143.26L485.919,143.37L486.061,143.658L486.352,144.255L486.373,144.299C486.528,144.617 486.683,144.936 486.836,145.256L486.867,145.32L486.909,145.408L487.076,145.755L487.352,146.335L487.364,146.359C487.521,146.691 487.678,147.022 487.834,147.354L487.85,147.389L487.875,147.443L488.072,147.862L488.335,148.426C488.494,148.771 488.654,149.115 488.812,149.461L488.819,149.476C490.88,153.969 492.815,158.531 494.619,163.159L494.629,163.187C494.902,163.885 495.171,164.585 495.437,165.287L495.445,165.308L495.459,165.346L495.638,165.816L495.835,166.343L495.849,166.379L495.855,166.397C495.984,166.739 496.111,167.082 496.238,167.426L496.248,167.453L496.27,167.513L496.455,168.017L496.609,168.437L496.642,168.528L496.662,168.582C496.782,168.914 496.902,169.245 497.022,169.578L497.031,169.605L497.059,169.682L497.254,170.226L497.372,170.562L497.416,170.684L497.447,170.773C497.562,171.097 497.675,171.421 497.789,171.745L497.795,171.764L497.82,171.835L498.032,172.445L498.125,172.715L498.17,172.846L498.21,172.964C498.428,173.599 498.644,174.235 498.857,174.872L498.895,174.985L498.941,175.126L499.039,175.419L499.204,175.92L499.245,176.041L499.259,176.084C499.363,176.402 499.467,176.721 499.571,177.04L499.59,177.099L499.629,177.221L499.771,177.659L499.894,178.045L499.931,178.159L499.953,178.227C500.163,178.887 500.371,179.548 500.576,180.21L500.598,180.282L500.62,180.353C500.83,181.031 501.037,181.711 501.241,182.392L501.247,182.411L501.257,182.442C502.843,187.733 504.263,193.096 505.511,198.524L505.516,198.546L505.522,198.574C505.685,199.283 505.845,199.993 506.002,200.704L506.136,201.318L506.224,201.724L506.242,201.805L506.254,201.862C506.4,202.537 506.543,203.213 506.683,203.89L506.702,203.982L506.726,204.101L506.795,204.434L506.901,204.957L506.925,205.073L506.934,205.117C507,205.446 507.066,205.775 507.131,206.104L507.143,206.164L507.172,206.31L507.264,206.781L507.326,207.102L507.357,207.256L507.378,207.371L507.416,207.565L507.565,208.349C507.613,208.602 507.66,208.856 507.707,209.109L507.712,209.135L507.762,209.404L507.838,209.822L507.846,209.865L507.856,209.921L507.915,210.245L507.972,210.559L507.982,210.617L507.999,210.708L508.06,211.054L508.103,211.296L508.115,211.365L508.138,211.496L508.2,211.852L508.232,212.034L508.244,212.107L508.275,212.285L508.337,212.644L508.359,212.772L508.37,212.842L508.41,213.075L508.47,213.432L508.483,213.51L508.493,213.568L508.543,213.865L508.6,214.217L508.606,214.249L508.611,214.28C510.562,226.16 511.693,238.315 511.945,250.684L511.947,250.758L511.948,250.799L511.953,251.044L511.959,251.389L511.961,251.507L511.963,251.605L511.967,251.868L511.971,252.127L511.973,252.256L511.975,252.416L511.979,252.693L511.981,252.884L511.983,253.005L511.985,253.232L511.988,253.519L511.989,253.652L511.99,253.753L511.992,254.06L511.995,254.345L511.995,254.429L511.996,254.502L511.997,254.921L511.999,255.172L511.999,255.212C512,255.475 512,255.737 512,256C512,256.376 511.999,256.752 511.998,257.128L511.998,257.137L511.994,257.705L511.99,258.244L511.99,258.274L511.982,259.045L511.978,259.365L511.978,259.409L511.964,260.323L511.961,260.487L511.961,260.493L511.96,260.543L511.94,261.572L511.94,261.608L511.939,261.61C511.752,270.294 511.132,278.873 510.099,287.324L510.098,287.333L510.093,287.376L509.968,288.378L509.959,288.446L509.959,288.449L509.955,288.477L509.83,289.452L509.816,289.558L509.816,289.561L509.814,289.577L509.673,290.628L509.668,290.67L509.668,290.671C509.618,291.04 509.567,291.408 509.515,291.777L509.514,291.782L509.503,291.86L509.36,292.867L509.35,292.933L509.342,292.988L509.296,293.301L509.2,293.961L509.18,294.092L509.165,294.193L509.117,294.505L509.034,295.053L509.003,295.257L508.981,295.398L508.938,295.671L508.865,296.144L508.819,296.429L508.792,296.602L508.756,296.825L508.691,297.233L508.628,297.613L508.597,297.805L508.569,297.973L508.512,298.321L508.428,298.817L508.396,299.007L508.377,299.118L508.328,299.407L508.214,300.064L508.19,300.207L508.18,300.262C507.764,302.646 507.315,305.019 506.832,307.38L506.83,307.391L506.827,307.406L506.698,308.039L506.587,308.57L506.584,308.584L506.581,308.598C505.999,311.379 505.372,314.143 504.701,316.89L504.698,316.902L504.692,316.928L504.521,317.626L504.42,318.031L504.406,318.085L504.388,318.157L504.257,318.683L504.131,319.177L504.108,319.267L504.089,319.343L503.988,319.738L503.833,320.338L503.805,320.447L503.789,320.507L503.716,320.791L503.52,321.532L503.496,321.626L503.488,321.656C503.182,322.809 502.869,323.958 502.548,325.103L502.535,325.153L502.475,325.364L502.287,326.031L502.235,326.21L502.203,326.325L502.126,326.593L501.988,327.073L501.917,327.318L501.866,327.496L501.791,327.75L501.685,328.114L501.592,328.428L501.523,328.665L501.459,328.88L501.378,329.153L501.259,329.547L501.174,329.833L501.095,330.096L501.066,330.19L501.043,330.265C500.953,330.563 500.863,330.86 500.771,331.157L500.751,331.225L500.719,331.327C500.626,331.629 500.532,331.932 500.438,332.235L500.43,332.259L500.407,332.332L500.258,332.809L500.143,333.172L500.106,333.29L500.088,333.348C499.999,333.629 499.909,333.911 499.819,334.191L499.778,334.32L499.739,334.439C499.652,334.71 499.564,334.98 499.476,335.25L499.445,335.348L499.389,335.518L499.305,335.774L499.16,336.213L499.108,336.374L499.047,336.557L498.914,336.957L498.837,337.186L498.767,337.398L498.725,337.52C498.645,337.758 498.565,337.996 498.484,338.233L498.421,338.42L498.352,338.623L498.316,338.727L498.143,339.232L498.072,339.44L497.973,339.724L497.91,339.905L497.83,340.136L497.718,340.458L497.589,340.824L497.499,341.081L497.461,341.186L497.36,341.474L497.193,341.943L497.082,342.254L497.079,342.261L496.998,342.489L496.891,342.783L496.871,342.84L496.808,343.013L496.632,343.501L496.483,343.906L496.445,344.011L496.409,344.109L496.261,344.511L496.044,345.096L496.013,345.179L496.005,345.202C495.794,345.767 495.582,346.332 495.368,346.895L495.355,346.928L495.33,346.995L495.126,347.53L494.933,348.029L494.909,348.091L494.893,348.132C494.531,349.069 494.164,350.003 493.791,350.935L493.77,350.989L493.74,351.063L493.554,351.527L493.341,352.054L493.304,352.145L493.288,352.183C493.066,352.73 492.842,353.276 492.616,353.821L492.595,353.873L492.531,354.026L492.333,354.503L492.175,354.879L492.115,355.023L492.062,355.149L491.918,355.491L491.746,355.895L491.629,356.17L491.602,356.234L491.499,356.477L491.406,356.693L491.385,356.743L491.169,357.244L491.076,357.461L490.961,357.723L490.891,357.886L490.77,358.163L490.648,358.442L490.537,358.696L490.391,359.028L490.313,359.205L490.217,359.422L490.158,359.554C490.055,359.788 489.951,360.022 489.846,360.255L489.782,360.399L489.705,360.57C489.595,360.816 489.485,361.061 489.374,361.306L489.343,361.374L489.268,361.539L489.118,361.87L488.968,362.198L488.9,362.347L488.872,362.409C488.751,362.672 488.63,362.935 488.509,363.197L488.453,363.318L488.406,363.42C488.282,363.687 488.158,363.954 488.033,364.22L488.003,364.286L487.95,364.398L487.81,364.696L487.562,365.224L487.548,365.253L487.542,365.265L487.278,365.822L487.134,366.123L487.089,366.217L487.061,366.275C486.954,366.499 486.847,366.722 486.739,366.945L486.668,367.094L486.627,367.179L486.567,367.303L486.429,367.587L486.212,368.032L486.16,368.139L486.142,368.176C486.007,368.453 485.871,368.728 485.735,369.004L485.69,369.096L485.622,369.233L485.488,369.505L485.285,369.913L485.216,370.052L485.19,370.102C485.058,370.367 484.926,370.631 484.793,370.895L484.738,371.005L484.653,371.172L484.53,371.415L484.352,371.766L484.256,371.956L484.219,372.027C484.093,372.275 483.966,372.523 483.838,372.771L483.77,372.904L483.662,373.113L483.557,373.317L483.41,373.6L483.28,373.85L483.23,373.947C483.11,374.177 482.991,374.406 482.87,374.635L482.787,374.794L482.651,375.051L482.567,375.211L482.455,375.424L482.29,375.736L482.056,376.175L481.899,376.469L481.888,376.49L481.789,376.675L481.623,376.983L481.562,377.097L481.484,377.241C481.184,377.797 480.883,378.352 480.579,378.905L480.541,378.974L480.495,379.058C480.172,379.644 479.848,380.229 479.521,380.813L479.505,380.842L479.485,380.877C477.402,384.595 475.228,388.257 472.966,391.858L472.961,391.866L472.957,391.872C472.59,392.457 472.221,393.04 471.849,393.621L471.817,393.671L471.794,393.708C471.44,394.261 471.084,394.812 470.726,395.362L470.659,395.466L470.612,395.538L470.41,395.847L470.277,396.051L470.269,396.062L470.205,396.161L469.829,396.733L469.598,397.081L469.485,397.252L469.414,397.358L469.243,397.616L469.122,397.798L469.09,397.845L468.875,398.166L468.654,398.497L468.463,398.78L468.296,399.028L468.203,399.166L468.062,399.375L467.954,399.533L467.897,399.617L467.58,400.082L467.466,400.25L467.321,400.462L467.093,400.793L466.98,400.958L466.866,401.123L466.773,401.258L466.689,401.38L466.31,401.926L466.263,401.994L466.169,402.128L465.875,402.549L465.747,402.731L465.657,402.861L465.576,402.976L465.466,403.132L465.06,403.708L465.047,403.726L465.004,403.786L464.643,404.295L464.508,404.483L464.433,404.589L464.36,404.691L464.229,404.874L463.826,405.435L463.816,405.449L463.814,405.451C463.675,405.644 463.536,405.837 463.396,406.03L463.265,406.209L463.196,406.306L463.12,406.409L462.972,406.613L462.617,407.098L462.572,407.16L462.56,407.176C462.378,407.424 462.195,407.672 462.012,407.92L461.944,408.012L461.856,408.131L461.691,408.354L461.401,408.744L461.314,408.861L461.285,408.899C461.107,409.138 460.928,409.376 460.749,409.614L460.68,409.707L460.569,409.853L460.396,410.084L460.164,410.39L460.042,410.551L459.991,410.618C459.819,410.844 459.647,411.07 459.474,411.296L459.401,411.392L459.261,411.575L459.086,411.803L458.907,412.034L458.757,412.23L458.679,412.33C458.515,412.543 458.35,412.755 458.185,412.968L458.109,413.066L457.929,413.296L457.761,413.511L457.63,413.678L457.458,413.899L457.35,414.035L457.317,414.078L456.994,414.487L456.803,414.729L456.574,415.018L456.423,415.208L456.333,415.321L456.146,415.556L456.005,415.731L455.973,415.771L455.806,415.98L455.484,416.38L455.192,416.742L455.07,416.893L455.015,416.96L454.82,417.202L454.645,417.417L454.616,417.453L454.516,417.574L454.152,418.021L453.779,418.475L453.703,418.568L453.679,418.597L453.481,418.837L453.27,419.092L453.244,419.123L453.182,419.198C452.75,419.719 452.317,420.238 451.882,420.755L451.859,420.782L451.817,420.831C451.374,421.357 450.929,421.881 450.482,422.403L450.459,422.429L450.428,422.465C449.978,422.99 449.525,423.514 449.071,424.036L449.046,424.064L449.02,424.095C448.566,424.615 448.11,425.134 447.652,425.651L447.619,425.688L447.593,425.718C447.139,426.229 446.684,426.739 446.226,427.247L446.179,427.299L446.15,427.332C445.701,427.829 445.25,428.325 444.798,428.819L444.725,428.898L444.691,428.935L444.461,429.186L444.26,429.404L444.238,429.429L444.155,429.518L443.745,429.962L443.374,430.361L443.258,430.486L443.219,430.527L443.026,430.735L442.822,430.951L442.766,431.012L442.623,431.164L442.303,431.504L441.97,431.856L441.778,432.06L441.735,432.105L441.578,432.271L441.379,432.48L441.281,432.582L441.101,432.77L440.849,433.035L440.639,433.253L440.284,433.623L440.239,433.67L440.117,433.796L439.93,433.989L439.783,434.141L439.581,434.348L439.382,434.554L439.301,434.636C439.112,434.831 438.922,435.025 438.732,435.218L438.644,435.308L438.478,435.477L438.272,435.686L438.059,435.901L437.903,436.06L437.823,436.14C437.622,436.344 437.419,436.547 437.216,436.751L437.159,436.809L437.022,436.945L436.748,437.219L436.535,437.431L436.411,437.554L436.334,437.631C436.12,437.843 435.907,438.055 435.692,438.266L435.661,438.297L435.566,438.39L435.212,438.739L435.008,438.938L434.908,439.037L434.831,439.112C434.608,439.329 434.385,439.546 434.161,439.763L434.151,439.773L434.112,439.811L433.662,440.246L433.478,440.424L433.392,440.506L433.311,440.584L433.143,440.745L432.662,441.206L432.63,441.237L432.622,441.243C432.395,441.461 432.166,441.678 431.938,441.894L431.864,441.964L431.756,442.065L431.523,442.285L431.209,442.581L431.096,442.688L431.047,442.733C430.824,442.943 430.6,443.151 430.377,443.36L430.324,443.408L430.194,443.53L429.89,443.811L429.684,444.002L429.55,444.126L429.453,444.216L429.343,444.317L428.841,444.778L428.773,444.841L428.63,444.971L428.244,445.323L428.124,445.432L427.993,445.552L427.838,445.692L427.692,445.824L427.418,446.072L427.209,446.26L427.142,446.321C426.941,446.501 426.741,446.681 426.54,446.86L426.423,446.965L426.199,447.165L426.029,447.317L425.867,447.46L425.634,447.667L425.502,447.784L425.471,447.811L425.184,448.065L424.842,448.366L424.522,448.646L424.352,448.795L424.272,448.865L424.048,449.061L423.842,449.24L423.791,449.284L423.645,449.41L423.25,449.753L422.737,450.194L422.663,450.259L422.649,450.271L422.449,450.442L422.157,450.692L422.097,450.743L422.016,450.813C421.491,451.26 420.964,451.706 420.436,452.149L420.391,452.187L420.359,452.214C417.709,454.437 415.013,456.607 412.273,458.723L412.267,458.728L412.257,458.735C411.684,459.178 411.11,459.617 410.533,460.055L410.492,460.086L410.458,460.112C409.901,460.534 409.343,460.954 408.783,461.371L408.705,461.429L408.673,461.453L408.41,461.649L408.151,461.841L408.107,461.873L407.998,461.954L407.56,462.278L407.022,462.672L406.907,462.757L406.889,462.77L406.706,462.904L406.422,463.11L406.305,463.196L406.157,463.303L405.851,463.526L405.711,463.626L405.702,463.633L405.305,463.919L404.992,464.144L404.709,464.347L404.492,464.502L404.348,464.604L404.131,464.759L403.971,464.873L403.885,464.934L403.494,465.21L403.267,465.371L403.055,465.52L402.667,465.793L402.545,465.878L402.401,465.979L402.234,466.095L402.056,466.219L401.711,466.459L401.531,466.584L401.475,466.623C401.231,466.792 400.986,466.961 400.741,467.129L400.66,467.185L400.51,467.288L400.216,467.489L399.923,467.689L399.786,467.783L399.711,467.833C399.453,468.009 399.194,468.184 398.935,468.359L398.909,468.377L398.824,468.434L398.366,468.742L398.129,468.901L398.029,468.968L397.943,469.025C397.406,469.384 396.869,469.74 396.33,470.094L396.263,470.138L396.171,470.198L395.881,470.388L395.443,470.674L395.376,470.718L395.349,470.735C395.077,470.913 394.803,471.09 394.53,471.266L394.486,471.294L394.394,471.353L394.022,471.593L393.699,471.8L393.594,471.867L393.531,471.907C393.264,472.078 392.996,472.248 392.728,472.418L392.699,472.436L392.603,472.497L392.152,472.782L391.929,472.922L391.802,473.002L391.69,473.072L391.527,473.174L390.993,473.508L390.902,473.564L390.806,473.623L390.272,473.954L390.138,474.037L390,474.122L389.826,474.229L389.643,474.341L389.324,474.537L389.095,474.677L389.018,474.724C388.788,474.864 388.558,475.004 388.328,475.143L388.188,475.228L387.933,475.382L387.75,475.492L387.56,475.606L387.279,475.776L387.133,475.863L387.117,475.872L386.836,476.04L386.367,476.319L386.001,476.535L385.847,476.626L385.75,476.683L385.452,476.859L385.229,476.99L385.21,477.001L385.122,477.053L384.535,477.396L384,477.706L383.934,477.744L383.911,477.758L383.616,477.928L383.307,478.106L383.294,478.113L383.264,478.13C381.539,479.122 379.801,480.094 378.05,481.046L378.052,481.044C370.296,485.263 362.321,489.08 354.169,492.472C341.8,497.618 329.025,501.782 316.001,504.916L316.001,504.917C314.326,505.32 312.645,505.706 310.958,506.076L310.806,506.109L310.754,506.12L310.566,506.162L310.212,506.238L310.011,506.281L309.879,506.31L309.655,506.358L309.406,506.411L309.216,506.451L308.993,506.498L308.744,506.551L308.576,506.586L308.421,506.618L308.084,506.688L307.831,506.74L307.735,506.76L307.625,506.783L307.098,506.89L306.918,506.927L306.886,506.933C306.301,507.051 305.716,507.168 305.13,507.281L305.087,507.29L304.938,507.319L304.435,507.416L304.253,507.451L304.17,507.467L304.033,507.493L303.687,507.558L303.39,507.614L303.251,507.64L303.143,507.66L302.939,507.698L302.495,507.78L302.332,507.81L302.275,507.82C301.994,507.872 301.713,507.923 301.432,507.973L301.411,507.977L301.239,508.008L300.691,508.105L300.606,508.12L300.489,508.141L300.209,508.189L299.941,508.236L299.79,508.262L299.566,508.301L299.324,508.342L299.191,508.365L299,508.397L298.642,508.458L298.462,508.488L298.44,508.491L298.341,508.508C286.544,510.475 274.475,511.634 262.192,511.926L262.09,511.929L262.05,511.929L261.796,511.936L261.462,511.942L261.329,511.945L261.169,511.948L260.832,511.955L260.643,511.958L260.568,511.96L260.25,511.965L259.867,511.971L259.702,511.973L259.045,511.982L258.993,511.983L258.902,511.984L258.651,511.986L258.284,511.99L258.097,511.991L257.935,511.993L257.758,511.994L257.523,511.996L257.166,511.997L256.968,511.998L256.878,511.998C256.585,512 256.293,512 256,512C255.736,512 255.471,512 255.206,511.999L255.172,511.999L254.905,511.997L254.477,511.996L254.418,511.995L254.345,511.995L254.032,511.992L253.716,511.99L253.635,511.989L253.519,511.988L253.193,511.985L252.955,511.982L252.86,511.981L252.693,511.979L252.366,511.974L252.193,511.972L252.095,511.97L251.868,511.967L251.545,511.962L251.432,511.96L251.342,511.958L251.044,511.953L250.729,511.946L250.671,511.945L250.607,511.944L250.22,511.936L249.916,511.929L249.91,511.929L249.9,511.928C237.553,511.639 225.422,510.474 213.566,508.493L213.56,508.491L213.547,508.489L213.075,508.41L212.835,508.369L212.809,508.365L212.75,508.355L212.285,508.275L212.096,508.242L212.059,508.236L211.949,508.217L211.496,508.138L211.352,508.113L211.309,508.105L211.143,508.076L210.708,507.999L210.602,507.979L210.559,507.972L210.33,507.93L209.921,507.856L209.848,507.843L209.81,507.836L209.504,507.78L209.135,507.712L209.091,507.704L209.061,507.698L208.645,507.62L208.349,507.565L208.329,507.561C208.074,507.513 207.819,507.465 207.565,507.416L206.781,507.264L206.772,507.263L206.766,507.262L206.615,507.232L205.998,507.11L205.976,507.106L205.969,507.105L205.853,507.081L205.216,506.954L205.177,506.946L205.172,506.945L205.113,506.933C190.636,504.008 176.6,499.861 163.118,494.602L163.108,494.599L163.104,494.597L162.897,494.517L162.398,494.32L162.352,494.302L162.334,494.295L162.17,494.231L161.679,494.036L161.596,494.003L161.57,493.993L161.444,493.943L160.96,493.75L160.841,493.702L160.812,493.69L160.719,493.653L160.24,493.46L160.087,493.398L160.059,493.387L159.996,493.361L159.514,493.165L159.334,493.092L159.311,493.083L159.273,493.067L158.764,492.858L158.582,492.783L158.569,492.778C158.323,492.676 158.077,492.575 157.831,492.472L157.149,492.188L157.131,492.18L157.111,492.172L156.874,492.072L156.469,491.901L156.434,491.886L156.393,491.869L156.11,491.749L155.789,491.612L155.74,491.591L155.676,491.564L155.376,491.435L155.11,491.322L155.05,491.296L154.96,491.257L154.652,491.124L154.432,491.029L154.363,490.999L154.245,490.948L153.936,490.813L153.755,490.734L153.681,490.702L153.531,490.637L153.223,490.501L153.078,490.438L153.003,490.404L152.819,490.324L152.514,490.189L152.403,490.139L152.33,490.107L152.107,490.008L151.808,489.875L151.728,489.839L151.663,489.81L151.397,489.691L151.105,489.559L151.054,489.537L151.004,489.514L150.687,489.371L150.404,489.242L150.382,489.232L150.354,489.22C141.139,485.035 132.216,480.32 123.622,475.113L123.618,475.11L123.613,475.107L123.297,474.916L123.01,474.741L122.987,474.727L122.958,474.71L122.638,474.514L122.393,474.364L122.357,474.341L122.304,474.309L121.98,474.11L121.773,473.982L121.728,473.954L121.649,473.905L121.323,473.704L121.15,473.596L121.1,473.565L120.993,473.499L120.668,473.296L120.525,473.207L120.473,473.174L120.337,473.089L120.014,472.887L119.899,472.814L119.848,472.782L119.68,472.676L119.362,472.475L119.271,472.417L119.223,472.387L119.021,472.259L118.71,472.061L118.642,472.018L118.6,471.991L118.358,471.836L118.06,471.646L118.012,471.615L117.978,471.593L117.687,471.405L117.412,471.229L117.382,471.209L117.357,471.193L116.99,470.955L116.765,470.809L116.75,470.8C116.54,470.663 116.329,470.526 116.119,470.388C115.908,470.25 115.696,470.111 115.485,469.973L115.474,469.965L115.249,469.816L114.874,469.569L114.855,469.556L114.831,469.54L114.555,469.357L114.254,469.156L114.227,469.138L114.189,469.113L113.889,468.913L113.634,468.742L113.601,468.72L113.549,468.685L113.234,468.473L113.016,468.326L112.979,468.301L112.91,468.254L112.585,468.034L112.399,467.908L112.358,467.881L112.272,467.822L111.94,467.596L111.784,467.489L111.741,467.46L111.635,467.388L111.3,467.157L111.169,467.068L111.126,467.038L111,466.951L110.662,466.718L110.556,466.644L110.515,466.616L110.367,466.513L110.028,466.278L109.944,466.219L109.906,466.193L109.734,466.074L109.396,465.837L109.333,465.793L109.3,465.769L109.104,465.632L108.767,465.395L108.724,465.364L108.697,465.346L108.474,465.188L108.14,464.952L108.115,464.934L108.098,464.922L107.846,464.743L107.516,464.508L107.508,464.502L107.502,464.498C100.219,459.299 93.22,453.729 86.532,447.814L86.529,447.811L86.524,447.807L86.195,447.516L85.983,447.327L85.971,447.317L85.951,447.299L85.621,447.005L85.434,446.838L85.415,446.821L85.379,446.788L85.049,446.493L84.885,446.345L84.861,446.323L84.807,446.275L84.478,445.979L84.336,445.85L84.308,445.824L84.236,445.759L83.909,445.463L83.787,445.351L83.756,445.323L83.664,445.24L83.341,444.945L83.238,444.85L83.206,444.821L83.093,444.717L82.775,444.426L82.689,444.346L82.657,444.317L82.522,444.192L82.211,443.905L82.14,443.84L82.11,443.811L81.949,443.663L81.648,443.383L81.592,443.331L81.564,443.304L81.376,443.129L81.086,442.858L81.044,442.819L81.019,442.796L80.8,442.589L80.527,442.333L80.497,442.305L80.477,442.285L80.216,442.039L79.968,441.805L79.95,441.787L79.935,441.774L79.612,441.466L79.412,441.276L79.403,441.268C79.221,441.094 79.039,440.92 78.857,440.745C78.678,440.573 78.499,440.401 78.32,440.229L78.303,440.213L78.132,440.047L77.82,439.745L77.787,439.713L77.751,439.679L77.554,439.487L77.303,439.243L77.255,439.196L77.201,439.143L77,438.946L76.788,438.739L76.727,438.679L76.653,438.606L76.454,438.41L76.275,438.234L76.202,438.161L76.105,438.067L75.913,437.876L75.762,437.727L75.68,437.645L75.56,437.526L75.377,437.343L75.252,437.219L75.161,437.129L75.016,436.984L74.843,436.81L74.742,436.709L74.648,436.614L74.474,436.44L74.311,436.276L74.234,436.198L74.14,436.103L73.933,435.895L73.783,435.742L73.728,435.686L73.64,435.597L73.394,435.347L73.256,435.206L73.223,435.172L73.152,435.1L72.857,434.799L72.732,434.67L72.719,434.657L72.682,434.619C66.003,427.765 59.704,420.539 53.82,412.974L53.796,412.943L53.788,412.933L53.684,412.799L53.414,412.451L53.354,412.373L53.329,412.34L53.213,412.191L52.991,411.903L52.914,411.803L52.87,411.745L52.744,411.581L52.56,411.34L52.476,411.231L52.412,411.148L52.277,410.97L52.123,410.768L52.039,410.658L51.956,410.548L51.811,410.358L51.684,410.189L51.604,410.084L51.5,409.946L51.348,409.744L51.244,409.605L51.171,409.508L51.045,409.34L50.886,409.128L50.803,409.017L50.739,408.932L50.59,408.731L50.426,408.511L50.362,408.425L50.309,408.354L50.134,408.117L49.968,407.893L49.922,407.83L49.88,407.774L49.673,407.493L49.511,407.273L49.482,407.233L49.453,407.194L49.197,406.844L49.057,406.652L49.043,406.633C48.896,406.432 48.75,406.231 48.604,406.03C48.459,405.83 48.314,405.63 48.17,405.429L48.153,405.406L48.017,405.217L47.771,404.874L47.739,404.829L47.704,404.781L47.551,404.565L47.357,404.295L47.31,404.228L47.257,404.154L47.103,403.937L46.945,403.714L46.885,403.629L46.812,403.526L46.663,403.315L46.534,403.132L46.463,403.031L46.368,402.896L46.228,402.696L46.125,402.549L46.046,402.436L45.926,402.266L45.796,402.078L45.717,401.965L45.634,401.845L45.487,401.633L45.367,401.461L45.311,401.38L45.229,401.26L45.049,401L44.941,400.843L44.907,400.793L44.835,400.689L44.612,400.365L44.517,400.225L44.504,400.206L44.462,400.145C38.602,391.565 33.249,382.612 28.449,373.327L28.443,373.317L28.442,373.315L28.378,373.192L28.172,372.791L28.117,372.684L28.098,372.647L28.024,372.503L27.863,372.189L27.793,372.05L27.756,371.978L27.671,371.812L27.543,371.56L27.47,371.415L27.414,371.305L27.321,371.121L27.219,370.918L27.149,370.779L27.074,370.63L26.972,370.428L26.892,370.267L26.83,370.142L26.734,369.951L26.626,369.734L26.565,369.61L26.512,369.505L26.395,369.267L26.281,369.038L26.237,368.949L26.197,368.866L26.052,368.572L25.939,368.342L25.911,368.284L25.883,368.227L25.699,367.85L25.599,367.644L25.585,367.616C25.477,367.393 25.368,367.169 25.261,366.945C25.158,366.732 25.055,366.519 24.953,366.306L24.924,366.245L24.855,366.099L24.722,365.822L24.646,365.662L24.59,365.544L24.532,365.422L24.455,365.259L24.335,365.003L24.258,364.842L24.224,364.768L24.19,364.696L23.988,364.265L23.928,364.138L23.874,364.022L23.662,363.567L23.638,363.516L23.6,363.434L23.503,363.222L23.401,363.002L23.346,362.884L23.274,362.728L23.196,362.557L23.141,362.436L23.059,362.258L22.951,362.021L22.899,361.907L22.882,361.87L22.79,361.668L22.629,361.313L22.406,360.818L22.368,360.735L22.365,360.726L22.309,360.603L22.163,360.275L22.114,360.166L22.089,360.11L21.992,359.893L21.884,359.65L21.861,359.597L21.827,359.521C18.988,353.116 16.405,346.573 14.09,339.905C13.825,339.143 13.564,338.38 13.307,337.616L13.284,337.547L13.276,337.523L13.209,337.326L13.116,337.046L13.086,336.957L13.054,336.86L12.961,336.581L12.904,336.41L12.89,336.366L12.838,336.208L12.715,335.836L12.556,335.348L12.501,335.182L12.499,335.175L12.471,335.089L12.382,334.815L12.309,334.59L12.278,334.492L12.229,334.341L12.169,334.154L12.119,333.997L12.054,333.794L11.99,333.592L11.956,333.485L11.93,333.403L11.809,333.021L11.752,332.842L11.743,332.813C11.674,332.594 11.606,332.375 11.537,332.155L11.517,332.091L11.465,331.923L11.371,331.62L11.322,331.46L11.285,331.34L11.245,331.211L11.188,331.025L11.1,330.737L11.054,330.587L11.034,330.519C10.964,330.291 10.895,330.062 10.826,329.833L10.6,329.078L10.515,328.791L10.477,328.665L10.445,328.555C10.343,328.209 10.241,327.862 10.14,327.515L10.134,327.496L10.117,327.438L9.935,326.808L9.828,326.432L9.797,326.325L9.776,326.252C9.674,325.893 9.572,325.533 9.471,325.173L9.465,325.153L9.452,325.104L9.291,324.53L9.153,324.029L9.139,323.979L9.132,323.952C9.028,323.572 8.924,323.192 8.821,322.812L8.819,322.803L8.815,322.787C6.818,315.39 5.145,307.862 3.812,300.217L3.81,300.207L3.808,300.194C3.672,299.417 3.54,298.638 3.412,297.859L3.403,297.805L3.392,297.735C3.269,296.989 3.15,296.242 3.034,295.493L3.019,295.398L3.002,295.287L2.952,294.964L2.836,294.2L2.835,294.193L2.835,294.192C2.781,293.832 2.728,293.473 2.676,293.113L2.658,292.988L2.639,292.857C2.539,292.168 2.442,291.477 2.348,290.786L2.332,290.67L2.311,290.514L2.267,290.185L2.204,289.704L2.184,289.558L2.176,289.498C2.132,289.161 2.089,288.824 2.046,288.486L2.041,288.446L2.027,288.338L1.958,287.785L1.916,287.446L1.902,287.333L1.891,287.241C1.806,286.544 1.724,285.846 1.645,285.147L1.64,285.104L1.632,285.038L1.58,284.575L1.519,284.015L1.516,283.989L1.514,283.977C1.434,283.241 1.357,282.504 1.283,281.766L1.283,281.758L1.282,281.75C0.692,275.856 0.302,269.903 0.12,263.899L0.119,263.851L0.117,263.799C0.095,263.079 0.077,262.358 0.061,261.636L0.06,261.608L0.059,261.537L0.047,260.956L0.041,260.604L0.039,260.487L0.037,260.388L0.033,260.132L0.022,259.404L0.022,259.365L0.022,259.356C0.017,259.014 0.013,258.671 0.011,258.329L0.01,258.244L0.009,258.078L0.005,257.655L0.004,257.293L0.002,257.122L0.002,257.009C0.001,256.673 0,256.337 0,256L0.001,255.251L0.001,255.212L0.001,255.172L0.003,254.921L0.004,254.502L0.005,254.429L0.005,254.345L0.008,254.06L0.01,253.753L0.011,253.652L0.012,253.519L0.015,253.232L0.017,253.005L0.019,252.884L0.021,252.693L0.025,252.416L0.027,252.256L0.029,252.127L0.033,251.868L0.037,251.605L0.039,251.507L0.041,251.389L0.047,251.044L0.052,250.799L0.053,250.758L0.055,250.684C0.307,238.315 1.439,226.16 3.389,214.28L3.394,214.249L3.4,214.217L3.457,213.865L3.507,213.568L3.517,213.51L3.53,213.432L3.59,213.075L3.63,212.842L3.641,212.772L3.663,212.644L3.725,212.285L3.756,212.107L3.768,212.034L3.8,211.852L3.862,211.496L3.885,211.365L3.897,211.296L3.94,211.054L4.001,210.708L4.018,210.617L4.028,210.559L4.085,210.245L4.144,209.921L4.154,209.865L4.162,209.822L4.238,209.404L4.288,209.135L4.293,209.109C4.34,208.856 4.387,208.602 4.435,208.349L4.584,207.565L4.622,207.371L4.643,207.256L4.674,207.102L4.736,206.781L4.828,206.31L4.857,206.164L4.869,206.104C4.934,205.775 5,205.446 5.066,205.117L5.075,205.073L5.099,204.957L5.205,204.434L5.274,204.101L5.298,203.982L5.317,203.89C5.457,203.213 5.6,202.538 5.746,201.862L5.758,201.805L5.776,201.724L5.864,201.318L5.989,200.748L5.995,200.717L5.998,200.704C6.155,199.993 6.315,199.283 6.478,198.574L6.484,198.546L6.489,198.524C7.737,193.096 9.157,187.733 10.743,182.442L10.753,182.411L10.759,182.392C10.963,181.711 11.17,181.031 11.38,180.353L11.402,180.282L11.424,180.21C11.629,179.548 11.837,178.887 12.047,178.227L12.069,178.159L12.106,178.045L12.229,177.659L12.371,177.221L12.41,177.099L12.429,177.04C12.533,176.721 12.637,176.402 12.741,176.084L12.755,176.041L12.796,175.92L12.961,175.419L13.059,175.126L13.105,174.985L13.143,174.872C13.356,174.235 13.572,173.599 13.79,172.964L13.83,172.846L13.875,172.715L13.968,172.445L14.18,171.835L14.205,171.764L14.211,171.745C14.324,171.421 14.438,171.097 14.553,170.773L14.584,170.684L14.628,170.562L14.746,170.226L14.941,169.682L14.969,169.605L14.978,169.578C15.098,169.245 15.218,168.913 15.338,168.582L15.358,168.528L15.391,168.437L15.545,168.017L15.73,167.513L15.752,167.453L15.762,167.426C15.889,167.082 16.016,166.739 16.145,166.397L16.151,166.379L16.165,166.343L16.362,165.816L16.541,165.346L16.555,165.308L16.563,165.287C16.829,164.585 17.098,163.885 17.371,163.187L17.377,163.17L17.381,163.159C19.185,158.531 21.12,153.968 23.181,149.476L23.186,149.466L23.188,149.461C23.346,149.115 23.506,148.771 23.665,148.426L23.666,148.426L23.928,147.862L24.125,147.443L24.15,147.389L24.166,147.354C24.322,147.022 24.479,146.691 24.636,146.359L24.639,146.353L24.648,146.335L24.924,145.755L25.091,145.408L25.133,145.32L25.164,145.256C25.318,144.936 25.472,144.618 25.627,144.299L25.631,144.289L25.648,144.255L25.939,143.658L26.081,143.37L26.134,143.26L26.18,143.169C26.332,142.859 26.485,142.55 26.638,142.242L26.642,142.234L26.66,142.198L26.972,141.572L27.095,141.328L27.154,141.21L27.211,141.098C27.364,140.794 27.517,140.491 27.671,140.188L27.984,139.575L28.005,139.534L28.024,139.497L28.119,139.312L28.298,138.964L28.34,138.883L28.378,138.808L28.479,138.613L28.614,138.353L28.676,138.235L28.735,138.12L28.829,137.941L28.931,137.743L29.012,137.589L29.094,137.433L29.175,137.278L29.251,137.134L29.348,136.949L29.454,136.747L29.522,136.62L29.571,136.526L29.682,136.317L29.817,136.063L29.869,135.966L29.894,135.919L30.005,135.711L30.182,135.38L30.217,135.315L30.218,135.313L30.237,135.277C30.541,134.709 30.848,134.142 31.157,133.577L31.2,133.499L31.21,133.48L31.288,133.338L31.488,132.974L31.53,132.896L31.55,132.86L31.66,132.659L31.832,132.35L31.862,132.294L31.887,132.25L32.035,131.982L32.181,131.72L32.196,131.693L32.216,131.658C36.12,124.651 40.344,117.847 44.867,111.264L44.876,111.252L44.882,111.244L45.049,111L45.245,110.717L45.266,110.686L45.289,110.652L45.487,110.367L45.637,110.151L45.658,110.121L45.695,110.068L45.926,109.734L46.038,109.575L46.051,109.557L46.092,109.498L46.368,109.104L46.445,108.995L46.446,108.994L46.45,108.987C46.815,108.468 47.181,107.951 47.549,107.436L47.639,107.311L47.65,107.295L47.704,107.219L47.908,106.935L48.039,106.752L48.08,106.696L48.153,106.594L48.313,106.373L48.442,106.195L48.512,106.098L48.604,105.97L48.731,105.795L48.845,105.638L48.947,105.498L49.057,105.348L49.156,105.213L49.25,105.083L49.387,104.897L49.511,104.727L49.584,104.628L49.657,104.528L49.834,104.288L49.968,104.107L50.015,104.043L50.065,103.975L50.3,103.658L50.426,103.489L50.449,103.457C50.595,103.262 50.74,103.067 50.886,102.872C51.032,102.677 51.177,102.483 51.324,102.289L51.348,102.256L51.472,102.092L51.709,101.778L51.762,101.708L51.811,101.642L51.943,101.469L52.122,101.233L52.202,101.128L52.277,101.03L52.398,100.871L52.537,100.689L52.642,100.552L52.744,100.419L52.85,100.281L52.954,100.146L53.082,99.979L53.213,99.809L53.3,99.697L53.372,99.604L53.521,99.411L53.684,99.201L53.75,99.116L53.791,99.063L53.953,98.855L54.156,98.594L54.201,98.537L54.212,98.523L54.338,98.363C54.688,97.915 55.041,97.468 55.394,97.023L55.483,96.911L55.501,96.889L55.584,96.783L55.826,96.48L55.909,96.376L55.943,96.333L56.064,96.182L56.272,95.923L56.337,95.842L56.383,95.784L56.545,95.582L56.723,95.363L56.766,95.309L56.817,95.246L57.029,94.984L57.177,94.801L57.197,94.777L57.236,94.73C62.103,88.739 67.236,82.973 72.616,77.449L72.661,77.403L72.686,77.377L72.857,77.201L73.084,76.969L73.139,76.913L73.19,76.861L73.394,76.653L73.57,76.475L73.618,76.425L73.693,76.349L73.933,76.105L74.064,75.973L74.099,75.938L74.193,75.844L74.474,75.56L74.565,75.469L74.581,75.452L74.675,75.358C75.077,74.955 75.479,74.554 75.883,74.153L76.035,74.003L76.051,73.988L76.105,73.933L76.338,73.704L76.522,73.522L76.573,73.473L76.653,73.394L76.84,73.211L77.011,73.043L77.097,72.959L77.201,72.857L77.353,72.71L77.501,72.565L77.625,72.444L77.751,72.321L77.87,72.206L77.992,72.088L78.158,71.928L78.303,71.787L78.391,71.702L78.484,71.613L78.699,71.406L78.857,71.255L78.915,71.199L78.978,71.139L79.262,70.867L79.412,70.724L79.441,70.697C79.616,70.529 79.792,70.362 79.968,70.195C80.145,70.028 80.321,69.861 80.498,69.695L80.527,69.667L80.678,69.525L80.965,69.255L81.028,69.196L81.086,69.142L81.247,68.991L81.465,68.787L81.559,68.701L81.648,68.617L81.797,68.479L81.967,68.321L82.089,68.207L82.211,68.095L82.342,67.974L82.47,67.856L82.619,67.718L82.775,67.574L82.884,67.474L82.974,67.392L83.147,67.233L83.341,67.055L83.426,66.977L83.479,66.929L83.665,66.76L83.909,66.537L83.969,66.483L83.985,66.468L84.135,66.333C84.565,65.943 84.997,65.554 85.429,65.167L85.512,65.093L85.525,65.081L85.621,64.995L85.932,64.718L86.023,64.637L86.056,64.608L86.195,64.484L86.461,64.249L86.535,64.183L86.582,64.141L86.77,63.975L86.998,63.774L87.049,63.73L87.102,63.684L87.347,63.468L87.54,63.299L87.564,63.278L87.605,63.242C93.418,58.159 99.462,53.334 105.721,48.786L105.759,48.758L105.778,48.744L105.97,48.604L106.254,48.399L106.314,48.356L106.363,48.32L106.594,48.153L106.813,47.996L106.869,47.955L106.948,47.899L107.219,47.704L107.383,47.587L107.426,47.556L107.528,47.484L107.846,47.257L107.961,47.175L107.984,47.159L108.092,47.082C108.567,46.746 109.043,46.411 109.519,46.077L109.664,45.976L109.675,45.968L109.734,45.926L110.013,45.733L110.226,45.584L110.278,45.548L110.367,45.487L110.589,45.333L110.789,45.194L110.884,45.129L111,45.049L111.179,44.926L111.353,44.806L111.493,44.711L111.635,44.612L111.775,44.517L111.918,44.419L112.106,44.291L112.272,44.178L112.375,44.108L112.484,44.034L112.73,43.868L112.91,43.746L112.978,43.7L113.052,43.65L113.377,43.431L113.549,43.315L113.583,43.293C113.785,43.157 113.987,43.022 114.189,42.887C114.389,42.753 114.59,42.62 114.79,42.487L114.831,42.46L114.993,42.353L115.298,42.151L115.392,42.089L115.474,42.035L115.636,41.929L115.853,41.786L115.994,41.694L116.119,41.612L116.258,41.521L116.41,41.422L116.596,41.3L116.765,41.191L116.872,41.121L116.968,41.059L117.198,40.91L117.412,40.771L117.484,40.725L117.526,40.698L117.795,40.525L118.06,40.354L118.511,40.066L118.646,39.98L118.649,39.978L118.71,39.939L119.037,39.731L119.207,39.623L119.245,39.599L119.362,39.525L119.64,39.349L119.769,39.268L119.837,39.225L120.014,39.113L120.247,38.968L120.333,38.914L120.419,38.86L120.668,38.704L120.856,38.587L120.897,38.561L120.976,38.512C128.437,33.867 136.153,29.596 144.099,25.724L144.167,25.691L144.189,25.68L144.356,25.599L144.66,25.451L144.765,25.4L144.839,25.365L145.055,25.261L145.273,25.156L145.365,25.111L145.491,25.051L145.755,24.924L145.903,24.854L145.964,24.824L146.145,24.738L146.456,24.59L146.542,24.549L146.565,24.538L146.809,24.423L147.158,24.258L147.429,24.131L147.769,23.972L147.798,23.958L147.862,23.928L148.097,23.819L148.371,23.691L148.462,23.649L148.566,23.6L148.756,23.513L148.975,23.411L149.131,23.34L149.272,23.274L149.414,23.209L149.579,23.133L149.809,23.028L149.979,22.951L150.074,22.907L150.184,22.857L150.514,22.708L150.687,22.629L150.735,22.608C150.955,22.508 151.176,22.408 151.397,22.309L152.107,21.992L152.26,21.924L152.357,21.881L152.508,21.814L152.819,21.676L153.17,21.522L153.319,21.456L153.399,21.421C153.691,21.293 153.983,21.166 154.275,21.039L154.283,21.035L154.321,21.019L154.96,20.743L155.156,20.659L155.249,20.619L155.37,20.567L155.676,20.436L156.108,20.252L156.216,20.206L156.264,20.186C156.57,20.056 156.875,19.928 157.181,19.799L157.185,19.798L157.199,19.792L157.831,19.528L158.082,19.424L158.156,19.393L158.239,19.359L158.551,19.229L159.091,19.008L159.128,18.992L159.142,18.987C159.77,18.729 160.399,18.475 161.029,18.223L161.078,18.203L161.126,18.184C162.077,17.804 163.031,17.429 163.987,17.06L164.015,17.05L164.039,17.04C165.006,16.668 165.975,16.301 166.947,15.939L166.965,15.933L166.98,15.927C167.952,15.566 168.927,15.211 169.904,14.862L169.93,14.853L169.949,14.846C170.599,14.613 171.25,14.384 171.902,14.157L171.913,14.153L171.936,14.145L172.445,13.968L172.856,13.827L172.907,13.809L172.943,13.797C173.581,13.578 174.22,13.361 174.861,13.147L174.899,13.134L174.972,13.11L175.419,12.961L175.807,12.833L175.897,12.803L175.958,12.783C176.58,12.578 177.204,12.375 177.829,12.175L177.898,12.153L178.021,12.113L178.408,11.99L178.766,11.876L178.9,11.834L178.985,11.807C179.594,11.615 180.204,11.425 180.815,11.237L180.908,11.208L181.068,11.16L181.413,11.054L181.75,10.952L181.914,10.902L182.014,10.872C182.611,10.692 183.209,10.514 183.808,10.338L183.898,10.311L184.072,10.261L184.434,10.155L184.72,10.072L184.876,10.027L184.994,9.992L185.192,9.935L185.735,9.78L185.854,9.746L185.885,9.737C186.189,9.651 186.493,9.565 186.798,9.479L186.834,9.469L186.946,9.438L187.47,9.291L187.712,9.225L187.815,9.196L187.931,9.164L188.232,9.081L188.693,8.956L188.797,8.927L188.843,8.915C189.468,8.745 190.095,8.577 190.722,8.412L190.764,8.401L190.837,8.382L191.287,8.264L191.683,8.161L191.749,8.144L191.796,8.132C192.756,7.884 193.718,7.641 194.682,7.404L194.711,7.397L194.743,7.389C196.045,7.068 197.351,6.758 198.66,6.458L198.673,6.455L198.682,6.453C199.664,6.228 200.648,6.009 201.633,5.795L201.654,5.791L201.68,5.785L202.096,5.695L202.641,5.579L202.649,5.577L202.654,5.577C203.311,5.437 203.97,5.3 204.629,5.165L204.643,5.162L204.674,5.156L205.216,5.046L205.574,4.974L205.641,4.961L205.701,4.949L205.998,4.89L206.612,4.769L206.64,4.763L206.649,4.762C207.286,4.637 207.924,4.515 208.563,4.395L208.64,4.38L208.759,4.358L209.135,4.288L209.509,4.219L209.641,4.195L209.727,4.179L209.921,4.144L210.582,4.024L210.642,4.013L210.656,4.011C210.968,3.955 211.28,3.9 211.592,3.845L211.645,3.836L211.804,3.808L212.285,3.725L212.511,3.686L212.648,3.662L212.806,3.636L213.075,3.59L213.464,3.525L213.652,3.493L213.741,3.478C214.315,3.383 214.89,3.289 215.466,3.197L215.481,3.195L215.714,3.158L216.242,3.075L216.277,3.069L216.306,3.065L216.563,3.025L217.036,2.952L217.09,2.944L217.131,2.937L217.385,2.899L217.83,2.832L217.905,2.821L217.956,2.813L218.199,2.777L218.625,2.714L218.721,2.7L218.782,2.691L219.01,2.658L219.422,2.598L219.538,2.582L219.608,2.572L219.82,2.542L220.218,2.486L220.357,2.466L220.435,2.455L220.631,2.428L221.016,2.375L221.177,2.353L221.262,2.342L221.443,2.317L221.815,2.267L221.998,2.243L222.09,2.231L222.256,2.209L222.614,2.161L222.821,2.135L222.917,2.122L223.07,2.103L223.414,2.058L223.644,2.029L223.745,2.017L223.886,1.999L224.215,1.958L224.468,1.927L224.574,1.914L224.702,1.898L225.016,1.86L225.292,1.827L225.403,1.813L225.52,1.799L225.818,1.764L226.117,1.729L226.232,1.716L226.339,1.703L226.621,1.671L226.942,1.634L227.061,1.621L227.16,1.61L227.425,1.58L227.768,1.542L227.891,1.529L227.982,1.519L228.23,1.492L228.593,1.453L228.721,1.439L228.804,1.431L229.035,1.406L229.418,1.366L229.551,1.353L229.628,1.345L229.841,1.323L230.243,1.283L230.382,1.268L230.452,1.262L230.648,1.242L231.067,1.201L231.213,1.187L231.278,1.181L231.455,1.164L231.891,1.123L232.044,1.108L232.104,1.103L232.264,1.088L232.714,1.047L232.875,1.033L232.93,1.028L233.072,1.015L233.536,0.974L233.707,0.959L233.757,0.955L233.882,0.944L234.357,0.904L234.539,0.889L234.585,0.885L234.692,0.876L235.177,0.837L235.371,0.821L235.413,0.818L235.504,0.81L235.995,0.772L236.203,0.756L236.24,0.753L236.315,0.747L236.813,0.71L237.035,0.693L237.068,0.691L237.128,0.686L237.632,0.65L237.868,0.634L237.895,0.632L237.941,0.628L238.452,0.594L238.701,0.576L238.723,0.575L238.755,0.573L239.279,0.539L239.534,0.522L239.549,0.521L239.569,0.52L240.133,0.485L240.367,0.47L240.375,0.47C240.986,0.433 241.597,0.398 242.209,0.366L242.327,0.36L242.496,0.351L242.835,0.333L243.281,0.311L243.454,0.303L243.533,0.299C243.867,0.283 244.202,0.268 244.537,0.253L244.581,0.251L244.727,0.245L245.291,0.22L245.558,0.21L245.709,0.204L245.855,0.198L246.11,0.188L246.699,0.166L246.836,0.161L246.875,0.16C247.21,0.148 247.544,0.137 247.88,0.127L247.964,0.124L248.141,0.119L248.574,0.106L248.92,0.097L249.092,0.092L249.21,0.089C249.546,0.08 249.883,0.072 250.22,0.064L250.839,0.051L250.896,0.05ZM431.269,406.402C432.709,404.071 434.081,401.818 435.372,399.667C451.752,372.364 440.83,358.171 415.716,352.715C390.602,347.257 388.414,341.794 372.034,327.597C355.655,313.397 322.895,310.127 322.895,310.127C291.774,302.751 280.307,351.623 286.859,376.735C293.412,401.847 318.533,409.493 323.989,421.507C327.828,429.959 324.647,456.771 321.282,477.634C329.184,475.307 336.96,472.555 344.566,469.39C357.26,464.109 369.477,457.683 381.028,450.226C393.474,442.19 405.146,432.958 415.838,422.703C421.24,417.522 426.391,412.08 431.269,406.402ZM162.898,44.555C162.475,44.741 162.053,44.929 161.632,45.118C149.952,50.359 138.713,56.579 128.063,63.683C117.473,70.748 107.467,78.687 98.176,87.389C88.385,96.558 79.389,106.574 71.322,117.291C69.685,119.465 68.087,121.668 66.528,123.898C71.151,130.396 76.12,137.862 79.032,143.689C85.584,156.792 83.312,185.482 115.069,223.403C126.155,236.641 153.285,243.059 166.39,265.989C179.494,288.922 189.323,291.106 202.388,294.381C215.452,297.657 234.019,284.962 243.919,304.209C253.817,323.454 265.92,330.588 268.638,324.954C271.356,319.318 258.117,294.381 243.919,287.828C229.72,281.275 215.535,287.835 205.158,273.636C194.781,259.438 213.347,244.695 223.176,240.877C233.003,237.058 253.209,239.239 257.572,245.246C261.938,251.256 267.951,259.438 274.504,258.351C281.056,257.264 269.038,243.057 270.132,225.59C271.226,208.125 306.167,177.538 336.746,150.244C367.323,122.948 336.746,112.02 299.616,93.458C262.487,74.897 277.779,117.484 272.316,124.036C266.849,130.588 242.83,129.495 223.176,118.571C203.519,107.652 205.707,90.182 224.27,75.985C242.83,61.787 249.383,49.778 229.727,48.689C210.071,47.602 157.655,67.25 153.292,57.091C151.385,52.65 155.316,48.609 162.898,44.555ZM445.407,123.806C442.156,131.596 439.733,140.434 441.163,147.579C444.516,164.349 464.218,165.629 462.195,177.93C460.171,190.231 445.637,174.41 427.747,206.828C409.858,239.248 418.806,283.979 444.516,287.327C457.592,289.028 473.272,285.817 485.524,282.25C486.51,273.537 487,264.768 487,256C487,241.097 485.58,226.195 482.727,211.567C480.634,200.84 477.773,190.263 474.171,179.944C470.621,169.771 466.351,159.851 461.408,150.278C456.674,141.109 451.323,132.26 445.407,123.806ZM286.834,27.042C281.038,26.268 275.212,25.714 269.374,25.381C266.66,25.226 263.943,25.118 261.225,25.058C259.733,25.025 258.241,25.008 256.748,25.001C256.249,25 255.751,25 255.252,25.001C253.759,25.008 252.267,25.025 250.775,25.058C248.057,25.118 245.34,25.226 242.626,25.381C240.675,25.492 238.725,25.628 236.777,25.789C258.764,29.281 279.119,41.433 285.412,50.321C294.69,63.424 308.894,83.079 317.083,76.527C325.273,69.975 343.292,60.149 303.979,38.853C296.032,34.549 290.54,30.601 286.834,27.042Z" style="fill:white;"/>
</svg>
