<?xml version="1.0" encoding="UTF-8" standalone="no"?>
<!DOCTYPE svg PUBLIC "-//W3C//DTD SVG 1.1//EN" "http://www.w3.org/Graphics/SVG/1.1/DTD/svg11.dtd">
<svg width="100%" height="100%" viewBox="0 0 41 41" version="1.1" xmlns="http://www.w3.org/2000/svg" xmlns:xlink="http://www.w3.org/1999/xlink" xml:space="preserve" style="fill-rule:evenodd;clip-rule:evenodd;stroke-linejoin:round;stroke-miterlimit:1.41421;">
    <g>
        <rect x="2.341" y="10.749" width="7.967" height="29.571"/>
        <path d="M26.677,10.749C23.747,10.749 22.292,12.14 21.073,13.088L21.073,10.749L13.039,10.749L13.039,40.32L21.073,40.32L21.073,21.709C21.073,21.709 20.771,17.993 25.219,17.993C27.897,17.993 29.13,19.518 29.13,21.709L29.13,40.32L37.584,40.32L37.584,21.971C37.584,11.891 29.473,10.749 26.677,10.749Z" style="fill-rule:nonzero;"/>
        <path d="M10.307,4.029C10.307,6.26 8.509,8.058 6.278,8.058C4.06,8.058 2.249,6.26 2.249,4.029C2.25,1.811 4.061,0 6.279,0C8.51,0 10.307,1.811 10.307,4.029Z" style="fill-rule:nonzero;"/>
    </g>
</svg>
