<!--?xml version="1.0" encoding="UTF-8" standalone="no"?-->

<svg width="100%" height="100%" viewBox="0 0 89 137" version="1.1" xmlns="http://www.w3.org/2000/svg" xmlns:xlink="http://www.w3.org/1999/xlink" xml:space="preserve" style="fill-rule: evenodd; clip-rule: evenodd; stroke-linecap: round; stroke-linejoin: round; stroke-miterlimit: 1.5;">
    <g id="Artboard1" transform="matrix(1.09703,0,0,1.22599,0,0)">
        <path width="80.77" height="111.38" style="fill:none;" d="M0 0 L80.77 0 L80.77 111.38 L0 111.38 Z" class="lZHueqlm_0"></path>
        <g transform="matrix(0.911549,0,0,0.815668,-4.44089e-16,0)">
            <g id="rocket">
                <path d="M42.384,9.281C42.361,7.188 42.399,5.094 42.399,3C42.403,2.824 42.429,2.653 42.49,2.487C42.633,2.095 42.94,1.774 43.325,1.614C43.468,1.555 43.616,1.522 43.769,1.506C43.834,1.501 43.899,1.5 43.965,1.501C44.14,1.513 44.31,1.547 44.473,1.614C44.859,1.774 45.166,2.095 45.309,2.487C45.362,2.632 45.388,2.781 45.398,2.935C45.445,5.073 45.411,7.212 45.402,9.351L47.473,11.92C47.512,11.975 47.554,12.028 47.589,12.086C47.66,12.203 47.714,12.328 47.75,12.459C47.799,12.634 47.793,12.681 47.805,12.861L47.805,16.783L49.137,22.692L49.165,22.856L49.174,23.022L49.174,35.918L50.946,39.344L51.019,39.507C51.065,39.659 51.084,39.696 51.103,39.854C51.11,39.913 51.11,39.973 51.114,40.033L51.114,85.927L51.473,86.872L54.977,90.363C55.021,90.412 55.067,90.458 55.107,90.51C55.227,90.666 55.316,90.846 55.367,91.036C55.413,91.206 55.407,91.252 55.419,91.426L55.419,93.984C55.405,94.173 55.412,94.224 55.358,94.407C55.215,94.892 54.827,95.281 54.341,95.423C54.158,95.477 54.108,95.471 53.919,95.484L51.716,95.484L52.371,97.953C52.413,98.134 52.432,98.313 52.412,98.498C52.356,99.02 52.02,99.486 51.542,99.703C51.403,99.766 51.255,99.808 51.103,99.827C51.023,99.837 51.002,99.835 50.921,99.838L36.878,99.838C36.697,99.833 36.523,99.807 36.353,99.743C35.873,99.564 35.51,99.14 35.408,98.637C35.378,98.491 35.37,98.341 35.385,98.193C35.393,98.114 35.398,98.094 35.413,98.016L35.968,95.484L33.805,95.484C33.616,95.471 33.565,95.477 33.382,95.423C32.897,95.281 32.508,94.892 32.365,94.407C32.312,94.224 32.318,94.173 32.305,93.984L32.305,91.426C32.316,91.252 32.311,91.206 32.356,91.036C32.407,90.846 32.496,90.666 32.616,90.51C32.656,90.458 32.703,90.412 32.746,90.363L36.251,86.872L36.61,85.927L36.61,79.648C36.593,79.53 36.591,79.409 36.604,79.288C36.606,79.274 36.608,79.259 36.61,79.245L36.61,60.648C36.593,60.53 36.591,60.409 36.604,60.288C36.606,60.274 36.608,60.259 36.61,60.245L36.61,40.346C36.591,40.203 36.593,40.058 36.616,39.915C36.62,39.839 36.626,39.786 36.652,39.678C36.69,39.523 36.713,39.489 36.777,39.344L38.55,35.918L38.55,23.058C38.501,22.734 38.561,22.398 38.718,22.11L39.919,16.783L39.919,12.861L39.932,12.658C39.969,12.482 39.969,12.434 40.041,12.267C40.113,12.101 40.147,12.067 40.251,11.92L42.328,9.343C42.347,9.323 42.365,9.302 42.384,9.281ZM48.612,95.484L39.04,95.484L38.743,96.838L48.971,96.838L48.612,95.484ZM39.61,80.955L39.61,86.203L39.599,86.384C39.566,86.562 39.566,86.562 39.512,86.735L38.941,88.24C38.911,88.304 38.886,88.37 38.852,88.432C38.76,88.598 38.72,88.628 38.597,88.77L35.305,92.049L35.305,92.484L37.834,92.484C39.356,92.484 40.878,92.467 42.399,92.453L42.399,80.977C41.469,80.969 40.54,80.96 39.61,80.955ZM48.114,80.977C47.209,80.991 46.304,80.995 45.399,80.994L45.399,92.433C46.854,92.431 48.308,92.442 49.762,92.484L52.419,92.484L52.419,92.049L49.127,88.77C49.08,88.717 49.03,88.666 48.987,88.61C48.873,88.459 48.862,88.41 48.783,88.24L48.211,86.735C48.164,86.582 48.144,86.544 48.125,86.384C48.117,86.324 48.117,86.263 48.114,86.203L48.114,80.977ZM39.61,61.955L39.61,77.915C42.444,77.86 45.28,77.861 48.114,77.919L48.114,61.977C45.28,62.02 42.444,61.97 39.61,61.955ZM39.61,41.661L39.61,58.915C42.444,58.86 45.28,58.861 48.114,58.919L48.114,41.683C45.28,41.726 42.444,41.677 39.61,41.661ZM41.55,24.337L41.55,36.283L41.539,36.461C41.528,36.52 41.521,36.58 41.507,36.638C41.469,36.793 41.446,36.827 41.382,36.972L40.537,38.605C42.754,38.572 44.971,38.573 47.188,38.609L46.342,36.972L46.269,36.809C46.222,36.657 46.204,36.62 46.185,36.461C46.177,36.402 46.177,36.342 46.174,36.283L46.174,24.35C44.633,24.364 43.091,24.346 41.55,24.337ZM45.749,21.303L44.842,17.28L44.814,17.116L44.805,16.95L44.805,13.39L43.862,12.22C43.547,12.61 43.233,13 42.919,13.39L42.919,16.95L42.909,17.116L42.882,17.28L41.975,21.301C43.233,21.288 44.491,21.289 45.749,21.303Z" style="fill:white;" class="lZHueqlm_1"></path>
            </g>
        </g>
        <g transform="matrix(0.911549,0,0,0.815668,-8.5066,0)">
            <path d="M66.697,80.692C67.005,81.109 68.06,82 67.541,82" style="fill:none;stroke:white;stroke-width:3px;" class="lZHueqlm_2"></path>
        </g>
        <g transform="matrix(0.911549,0,0,0.815668,-8.5066,0)">
            <path d="M35.618,102.817C35.571,102.874 35.004,103.663 34.797,103.866" style="fill:none;stroke:white;stroke-width:3px;" class="lZHueqlm_3"></path>
        </g>
        <g transform="matrix(0.911549,0,0,0.815668,-8.5066,0)">
            <path d="M43.481,69.444C43.408,70.108 43.267,70.768 43.267,71.436" style="fill:none;stroke:white;stroke-width:3px;" class="lZHueqlm_4"></path>
        </g>
        <g transform="matrix(0.911549,0,0,0.815668,-8.5066,0)">
            <path d="M64.04,55.007C64.26,55.697 64.171,57.004 64.895,57.004" style="fill:none;stroke:white;stroke-width:3px;" class="lZHueqlm_5"></path>
        </g>
        <g transform="matrix(0.911549,0,0,0.815668,-8.5066,0)">
            <path d="M88.253,120.02C88.59,120.112 89.008,120.081 89.255,120.328" style="fill:none;stroke:white;stroke-width:3px;" class="lZHueqlm_6"></path>
        </g>
        <g transform="matrix(0.911549,0,0,0.815668,-8.5066,0)">
            <path d="M13.135,125.867C13.232,126.041 13.329,126.214 13.426,126.387" style="fill:none;stroke:white;stroke-width:3px;" class="lZHueqlm_7"></path>
        </g>
        <g>
            <g transform="matrix(0.911549,0,0,1.58748,1.51233,-76.7541)">
                <path d="M47.698,101.128L47.698,106.252" style="fill:none;stroke:white;stroke-width:1.94px;" class="lZHueqlm_8"></path>
            </g>
            <g transform="matrix(0.911549,0,0,1.58748,-3.49713,-76.7541)">
                <path d="M47.698,101.128L47.698,106.252" style="fill:none;stroke:white;stroke-width:1.94px;" class="lZHueqlm_9"></path>
            </g>
            <g transform="matrix(0.911549,0,0,1.58748,-8.5066,-76.7541)">
                <path d="M47.698,101.128L47.698,106.252" style="fill:none;stroke:white;stroke-width:1.94px;" class="lZHueqlm_10"></path>
            </g>
        </g>
        <g id="smoke-left" transform="matrix(1.21064,0,0,1.09788,-8.5066,0)">
            <g transform="matrix(0.75295,0,0,0.74295,10.8141,6.15204)">
                <path d="M28.774,124.184C24.967,124.184 21.875,121.093 21.875,117.285" style="fill:none;stroke:white;stroke-width:3px;" class="lZHueqlm_11"></path>
            </g>
            <g transform="matrix(0.75295,0,0,0.74295,2.16469,6.15204)">
                <path d="M28.774,124.184C24.967,124.184 21.875,121.093 21.875,117.285C21.875,113.477 24.967,110.386 28.774,110.386" style="fill:none;stroke:white;stroke-width:3px;" class="lZHueqlm_12"></path>
            </g>
            <g transform="matrix(0.954249,0,0,0.941575,2.95601,-22.2695)">
                <path d="M21.875,117.285C21.875,113.477 24.967,110.386 28.774,110.386" style="fill:none;stroke:white;stroke-width:2.37px;" class="lZHueqlm_13"></path>
            </g>
        </g>
        <g id="smoke-right" transform="matrix(-1.21064,0,0,1.09788,89.8375,0)">
            <g transform="matrix(0.75295,0,0,0.74295,10.8141,6.15204)">
                <path d="M28.774,124.184C24.967,124.184 21.875,121.093 21.875,117.285" style="fill:none;stroke:white;stroke-width:3px;" class="lZHueqlm_14"></path>
            </g>
            <g transform="matrix(0.75295,0,0,0.74295,2.16469,6.15204)">
                <path d="M28.774,124.184C24.967,124.184 21.875,121.093 21.875,117.285C21.875,113.477 24.967,110.386 28.774,110.386" style="fill:none;stroke:white;stroke-width:3px;" class="lZHueqlm_15"></path>
            </g>
            <g transform="matrix(0.954249,0,0,0.941575,2.95601,-22.2695)">
                <path d="M21.875,117.285C21.875,113.477 24.967,110.386 28.774,110.386" style="fill:none;stroke:white;stroke-width:2.37px;" class="lZHueqlm_16"></path>
            </g>
        </g>
        <g transform="matrix(0.911549,0,0,0.815668,14.156,6.75419)">
            <path d="M35.674,117.285C35.674,121.093 32.582,124.184 28.774,124.184C24.967,124.184 21.875,121.093 21.875,117.285" style="fill:none;stroke:white;stroke-width:3px;" class="lZHueqlm_17"></path>
        </g>
    </g>
<style>.lZHueqlm_0{stroke-dasharray:385 387;stroke-dashoffset:386;animation:lZHueqlm_draw_0 5800ms ease-in-out 0ms infinite,lZHueqlm_fade 5800ms linear 0ms infinite;}.lZHueqlm_1{stroke-dasharray:482 484;stroke-dashoffset:483;animation:lZHueqlm_draw_1 5800ms ease-in-out 0ms infinite,lZHueqlm_fade 5800ms linear 0ms infinite;}.lZHueqlm_2{stroke-dasharray:2 4;stroke-dashoffset:3;animation:lZHueqlm_draw_2 5800ms ease-in-out 0ms infinite,lZHueqlm_fade 5800ms linear 0ms infinite;}.lZHueqlm_3{stroke-dasharray:2 4;stroke-dashoffset:3;animation:lZHueqlm_draw_3 5800ms ease-in-out 0ms infinite,lZHueqlm_fade 5800ms linear 0ms infinite;}.lZHueqlm_4{stroke-dasharray:3 5;stroke-dashoffset:4;animation:lZHueqlm_draw_4 5800ms ease-in-out 0ms infinite,lZHueqlm_fade 5800ms linear 0ms infinite;}.lZHueqlm_5{stroke-dasharray:3 5;stroke-dashoffset:4;animation:lZHueqlm_draw_5 5800ms ease-in-out 0ms infinite,lZHueqlm_fade 5800ms linear 0ms infinite;}.lZHueqlm_6{stroke-dasharray:2 4;stroke-dashoffset:3;animation:lZHueqlm_draw_6 5800ms ease-in-out 0ms infinite,lZHueqlm_fade 5800ms linear 0ms infinite;}.lZHueqlm_7{stroke-dasharray:1 3;stroke-dashoffset:2;animation:lZHueqlm_draw_7 5800ms ease-in-out 0ms infinite,lZHueqlm_fade 5800ms linear 0ms infinite;}.lZHueqlm_8{stroke-dasharray:6 8;stroke-dashoffset:7;animation:lZHueqlm_draw_8 5800ms ease-in-out 0ms infinite,lZHueqlm_fade 5800ms linear 0ms infinite;}.lZHueqlm_9{stroke-dasharray:6 8;stroke-dashoffset:7;animation:lZHueqlm_draw_9 5800ms ease-in-out 0ms infinite,lZHueqlm_fade 5800ms linear 0ms infinite;}.lZHueqlm_10{stroke-dasharray:6 8;stroke-dashoffset:7;animation:lZHueqlm_draw_10 5800ms ease-in-out 0ms infinite,lZHueqlm_fade 5800ms linear 0ms infinite;}.lZHueqlm_11{stroke-dasharray:11 13;stroke-dashoffset:12;animation:lZHueqlm_draw_11 5800ms ease-in-out 0ms infinite,lZHueqlm_fade 5800ms linear 0ms infinite;}.lZHueqlm_12{stroke-dasharray:22 24;stroke-dashoffset:23;animation:lZHueqlm_draw_12 5800ms ease-in-out 0ms infinite,lZHueqlm_fade 5800ms linear 0ms infinite;}.lZHueqlm_13{stroke-dasharray:11 13;stroke-dashoffset:12;animation:lZHueqlm_draw_13 5800ms ease-in-out 0ms infinite,lZHueqlm_fade 5800ms linear 0ms infinite;}.lZHueqlm_14{stroke-dasharray:11 13;stroke-dashoffset:12;animation:lZHueqlm_draw_14 5800ms ease-in-out 0ms infinite,lZHueqlm_fade 5800ms linear 0ms infinite;}.lZHueqlm_15{stroke-dasharray:22 24;stroke-dashoffset:23;animation:lZHueqlm_draw_15 5800ms ease-in-out 0ms infinite,lZHueqlm_fade 5800ms linear 0ms infinite;}.lZHueqlm_16{stroke-dasharray:11 13;stroke-dashoffset:12;animation:lZHueqlm_draw_16 5800ms ease-in-out 0ms infinite,lZHueqlm_fade 5800ms linear 0ms infinite;}.lZHueqlm_17{stroke-dasharray:22 24;stroke-dashoffset:23;animation:lZHueqlm_draw_17 5800ms ease-in-out 0ms infinite,lZHueqlm_fade 5800ms linear 0ms infinite;}@keyframes lZHueqlm_draw{100%{stroke-dashoffset:0;}}@keyframes lZHueqlm_fade{0%{stroke-opacity:1;}65.51724137931035%{stroke-opacity:1;}100%{stroke-opacity:0;}}@keyframes lZHueqlm_draw_0{0%{stroke-dashoffset: 386}13.793103448275861%{ stroke-dashoffset: 0;}100%{ stroke-dashoffset: 0;}}@keyframes lZHueqlm_draw_1{0%{stroke-dashoffset: 483}13.793103448275861%{ stroke-dashoffset: 0;}100%{ stroke-dashoffset: 0;}}@keyframes lZHueqlm_draw_2{0%{stroke-dashoffset: 3}13.793103448275861%{ stroke-dashoffset: 0;}100%{ stroke-dashoffset: 0;}}@keyframes lZHueqlm_draw_3{0%{stroke-dashoffset: 3}13.793103448275861%{ stroke-dashoffset: 0;}100%{ stroke-dashoffset: 0;}}@keyframes lZHueqlm_draw_4{0%{stroke-dashoffset: 4}13.793103448275861%{ stroke-dashoffset: 0;}100%{ stroke-dashoffset: 0;}}@keyframes lZHueqlm_draw_5{0%{stroke-dashoffset: 4}13.793103448275861%{ stroke-dashoffset: 0;}100%{ stroke-dashoffset: 0;}}@keyframes lZHueqlm_draw_6{0%{stroke-dashoffset: 3}13.793103448275861%{ stroke-dashoffset: 0;}100%{ stroke-dashoffset: 0;}}@keyframes lZHueqlm_draw_7{0%{stroke-dashoffset: 2}13.793103448275861%{ stroke-dashoffset: 0;}100%{ stroke-dashoffset: 0;}}@keyframes lZHueqlm_draw_8{0%{stroke-dashoffset: 7}13.793103448275861%{ stroke-dashoffset: 0;}100%{ stroke-dashoffset: 0;}}@keyframes lZHueqlm_draw_9{0%{stroke-dashoffset: 7}13.793103448275861%{ stroke-dashoffset: 0;}100%{ stroke-dashoffset: 0;}}@keyframes lZHueqlm_draw_10{0%{stroke-dashoffset: 7}13.793103448275861%{ stroke-dashoffset: 0;}100%{ stroke-dashoffset: 0;}}@keyframes lZHueqlm_draw_11{0%{stroke-dashoffset: 12}13.793103448275861%{ stroke-dashoffset: 0;}100%{ stroke-dashoffset: 0;}}@keyframes lZHueqlm_draw_12{0%{stroke-dashoffset: 23}13.793103448275861%{ stroke-dashoffset: 0;}100%{ stroke-dashoffset: 0;}}@keyframes lZHueqlm_draw_13{0%{stroke-dashoffset: 12}13.793103448275861%{ stroke-dashoffset: 0;}100%{ stroke-dashoffset: 0;}}@keyframes lZHueqlm_draw_14{0%{stroke-dashoffset: 12}13.793103448275861%{ stroke-dashoffset: 0;}100%{ stroke-dashoffset: 0;}}@keyframes lZHueqlm_draw_15{0%{stroke-dashoffset: 23}13.793103448275861%{ stroke-dashoffset: 0;}100%{ stroke-dashoffset: 0;}}@keyframes lZHueqlm_draw_16{0%{stroke-dashoffset: 12}13.793103448275861%{ stroke-dashoffset: 0;}100%{ stroke-dashoffset: 0;}}@keyframes lZHueqlm_draw_17{0%{stroke-dashoffset: 23}13.793103448275861%{ stroke-dashoffset: 0;}100%{ stroke-dashoffset: 0;}}</style></svg>
