<?xml version="1.0" encoding="UTF-8" standalone="no"?>
<!DOCTYPE svg PUBLIC "-//W3C//DTD SVG 1.1//EN" "http://www.w3.org/Graphics/SVG/1.1/DTD/svg11.dtd">
<svg width="100%" height="100%" viewBox="0 0 21 21" version="1.1" xmlns="http://www.w3.org/2000/svg" xmlns:xlink="http://www.w3.org/1999/xlink" xml:space="preserve" style="fill-rule:evenodd;clip-rule:evenodd;stroke-linejoin:round;stroke-miterlimit:1.41421;">
    <g transform="matrix(1,0,0,1,-0.354407,-0.354877)">
        <path d="M9.056,0.355C8.608,0.367 8.162,0.4 7.719,0.474C6.751,0.633 5.812,0.958 4.952,1.428C4.002,1.947 3.149,2.641 2.449,3.466C1.815,4.211 1.307,5.062 0.952,5.974C0.65,6.748 0.461,7.566 0.388,8.393C0.318,9.198 0.357,10.012 0.506,10.806C0.746,12.081 1.272,13.299 2.035,14.348C2.741,15.32 3.646,16.144 4.679,16.757C5.642,17.328 6.712,17.712 7.818,17.882C8.99,18.063 10.198,18.007 11.347,17.712C11.954,17.556 12.549,17.337 13.108,17.052C13.676,16.762 14.211,16.415 14.709,16.016L14.742,15.993C14.819,15.958 14.898,15.948 14.976,15.987C15.009,16.003 15.014,16.011 15.042,16.034C16.537,17.529 17.969,19.089 19.528,20.516C19.61,20.585 19.703,20.637 19.807,20.666C19.874,20.685 19.944,20.693 20.014,20.691C20.271,20.682 20.506,20.525 20.62,20.296C20.656,20.223 20.679,20.143 20.687,20.062C20.696,19.967 20.687,19.869 20.657,19.778C20.625,19.676 20.567,19.582 20.495,19.504C18.923,18.106 17.521,16.529 16.034,15.042C16.009,15.011 16,15.004 15.983,14.967C15.958,14.912 15.954,14.848 15.973,14.79C15.985,14.751 15.993,14.743 16.015,14.71C16.078,14.63 16.14,14.55 16.202,14.47C16.364,14.252 16.52,14.031 16.664,13.8C17.059,13.164 17.373,12.477 17.595,11.761C18.214,9.765 18.09,7.563 17.253,5.647C16.799,4.607 16.143,3.657 15.331,2.865C14.628,2.179 13.812,1.61 12.923,1.192C12.172,0.838 11.371,0.591 10.551,0.463C10.177,0.404 9.801,0.374 9.423,0.359C9.24,0.354 9.24,0.355 9.056,0.355ZM9.266,1.758C9.674,1.765 10.081,1.8 10.483,1.872C11.17,1.994 11.841,2.216 12.465,2.527C13.392,2.989 14.217,3.645 14.878,4.441C15.458,5.139 15.907,5.94 16.197,6.8C16.468,7.606 16.599,8.457 16.583,9.307C16.568,10.115 16.421,10.919 16.148,11.679C15.731,12.843 15.016,13.894 14.092,14.715C13.377,15.35 12.538,15.846 11.635,16.164C10.843,16.443 10.003,16.584 9.164,16.584C8.327,16.583 7.492,16.441 6.703,16.163C5.854,15.864 5.061,15.407 4.375,14.825C3.38,13.979 2.613,12.873 2.178,11.642C1.91,10.882 1.768,10.08 1.757,9.275C1.745,8.42 1.88,7.565 2.158,6.757C2.468,5.857 2.953,5.021 3.578,4.304C4.226,3.562 5.02,2.947 5.904,2.513C6.615,2.163 7.383,1.929 8.169,1.823C8.469,1.783 8.771,1.765 9.074,1.757C9.17,1.757 9.169,1.757 9.266,1.758Z" style="fill:white;fill-opacity:0.3;"/>
        <g id="Fill.-1" transform="matrix(0.922125,0,0,0.922125,-0.955473,-0.941698)">
            <path d="M10.982,10.172L7.997,7.187L7.186,7.998L10.171,10.983L7.186,13.968L7.997,14.776L10.982,11.791L13.967,14.776L14.778,13.968L11.792,10.983L14.778,7.998L13.967,7.187L10.982,10.172Z" style="fill:white;"/>
        </g>
    </g>
</svg>
