<?xml version="1.0" encoding="UTF-8" standalone="no"?>
<!DOCTYPE svg PUBLIC "-//W3C//DTD SVG 1.1//EN" "http://www.w3.org/Graphics/SVG/1.1/DTD/svg11.dtd">
<svg width="100%" height="100%" viewBox="0 0 171 130" version="1.1" xmlns="http://www.w3.org/2000/svg" xmlns:xlink="http://www.w3.org/1999/xlink" xml:space="preserve" style="fill-rule:evenodd;clip-rule:evenodd;stroke-linejoin:round;stroke-miterlimit:1.41421;">
    <g transform="matrix(1,0,0,1,-15.6859,-31.1549)">
        <path d="M81.102,57.821L81.102,98.818C79.312,98.894 77.607,98.995 75.986,99.121C71.845,99.442 67.732,100.016 63.645,100.844C59.558,101.672 56.006,102.807 52.987,104.25C49.969,105.693 47.151,107.549 44.534,109.819C41.915,112.09 39.779,114.786 38.123,117.913C36.466,121.038 35.171,124.737 34.236,129.011C33.301,133.285 32.833,138.12 32.833,143.515C32.833,146.451 32.967,149.739 33.234,153.37C33.234,153.692 33.301,154.318 33.435,155.253C33.569,156.189 33.636,156.895 33.636,157.378C33.636,158.177 33.409,158.846 32.955,159.379C32.501,159.914 31.873,160.18 31.072,160.18C30.217,160.18 29.469,159.725 28.828,158.817C28.455,158.336 28.107,157.749 27.785,157.055C27.465,156.36 27.105,155.559 26.704,154.651C26.302,153.743 26.023,153.104 25.863,152.729C19.078,137.503 15.686,125.456 15.686,116.589C15.686,105.958 17.101,97.062 19.932,89.904C27.888,70.115 48.276,59.421 81.102,57.821ZM133.024,104.559C113.12,126.325 91.383,125.576 91.383,125.576L91.383,98.641L91.383,57.61L91.383,31.158C91.383,31.158 112.332,30.436 131.93,51.002C167.554,54.736 186.288,77.842 186.288,77.842C186.288,77.842 167.909,100.471 133.024,104.559ZM154.261,77.842C154.261,82.99 150.082,87.169 144.935,87.169C139.787,87.169 135.608,82.99 135.608,77.842C135.608,72.695 139.787,68.515 144.935,68.515C150.082,68.515 154.261,72.695 154.261,77.842Z" style="fill:white;"/>
    </g>
</svg>
