<?xml version="1.0" encoding="UTF-8" standalone="no"?>
<!DOCTYPE svg PUBLIC "-//W3C//DTD SVG 1.1//EN" "http://www.w3.org/Graphics/SVG/1.1/DTD/svg11.dtd">
<svg width="100%" height="100%" viewBox="0 0 86 83" version="1.1" xmlns="http://www.w3.org/2000/svg" xmlns:xlink="http://www.w3.org/1999/xlink" xml:space="preserve" style="fill-rule:evenodd;clip-rule:evenodd;stroke-linejoin:round;stroke-miterlimit:1.41421;">
    <g transform="matrix(1,0,0,1,-7.12271,-8.75627)">
        <g transform="matrix(1.12381,0,0,1.12381,-22.4006,-20.8127)">
            <path d="M83.725,26.312C84.373,26.319 85.02,26.353 85.665,26.422C87.066,26.57 88.452,26.869 89.789,27.314C91.388,27.846 92.917,28.589 94.315,29.53C95.324,30.21 96.263,30.994 97.105,31.873C97.674,32.466 98.199,33.101 98.677,33.77C99.007,34.232 99.315,34.71 99.6,35.201C101.419,38.334 102.289,41.94 102.516,45.535C102.551,46.098 102.571,46.662 102.577,47.227C102.584,47.965 102.566,48.704 102.525,49.441C102.477,50.312 102.398,51.182 102.29,52.048C102.142,53.23 101.942,54.407 101.695,55.573C100.807,59.77 99.33,63.834 97.458,67.689C97.284,68.048 97.106,68.406 96.924,68.762C96.802,69.001 96.677,69.238 96.554,69.477C96.462,69.655 96.375,69.836 96.284,70.014C96.074,70.42 95.856,70.823 95.63,71.22C95.138,72.088 94.609,72.934 94.053,73.762C92.615,75.901 90.993,77.915 89.272,79.832C87.35,81.971 85.3,83.992 83.171,85.923C80.708,88.158 78.138,90.274 75.498,92.295C72.103,94.893 68.59,97.333 64.991,99.64L64.707,99.82L64.424,100C63.949,99.698 63.475,99.394 63.002,99.089C59.083,96.542 55.266,93.836 51.602,90.933C48.528,88.499 45.558,85.928 42.768,83.171C40.698,81.125 38.725,78.975 36.927,76.685C35.192,74.474 33.62,72.127 32.361,69.611C32.22,69.326 32.07,69.045 31.924,68.762C31.625,68.17 31.331,67.575 31.049,66.975C30.5,65.805 29.989,64.618 29.52,63.414C28.935,61.915 28.416,60.391 27.971,58.845C27.628,57.653 27.33,56.448 27.083,55.232C26.88,54.232 26.711,53.225 26.58,52.213C26.475,51.399 26.395,50.582 26.343,49.763C26.299,49.075 26.274,48.385 26.271,47.696C26.269,47.128 26.28,46.559 26.308,45.992C26.475,42.505 27.233,39.001 28.865,35.896C29.695,34.316 30.751,32.855 32.016,31.595C32.477,31.136 32.965,30.704 33.476,30.302C36.876,27.621 41.229,26.253 45.544,26.313C48.247,26.351 50.933,26.95 53.398,28.06C54.966,28.765 56.441,29.673 57.787,30.741C58.985,31.691 60.08,32.766 61.067,33.932C61.945,34.969 62.737,36.077 63.447,37.235C63.792,37.797 64.115,38.372 64.424,38.954C64.518,38.777 64.614,38.6 64.71,38.424C65.149,37.634 65.617,36.861 66.126,36.114C67.158,34.597 68.344,33.183 69.684,31.929C70.785,30.898 71.99,29.977 73.282,29.198C74.785,28.29 76.406,27.576 78.093,27.088C79.154,26.782 80.239,26.564 81.336,26.439C81.897,26.375 82.46,26.337 83.025,26.319C83.258,26.313 83.491,26.311 83.725,26.312ZM45.189,35.21C44.038,35.223 42.892,35.408 41.802,35.78C41.014,36.049 40.256,36.412 39.561,36.873C39.14,37.152 38.743,37.466 38.38,37.817C37.02,39.129 36.201,40.898 35.733,42.707C35.665,42.971 35.604,43.237 35.549,43.505C35.479,43.851 35.419,44.2 35.37,44.55C35.302,45.027 35.253,45.507 35.221,45.988C35.18,46.581 35.165,47.175 35.17,47.769C35.177,48.492 35.215,49.215 35.28,49.935C35.362,50.845 35.487,51.751 35.648,52.65C35.839,53.716 36.08,54.773 36.364,55.818C36.738,57.195 37.186,58.551 37.695,59.884C38.163,61.109 38.683,62.314 39.248,63.498C39.562,64.154 39.892,64.801 40.228,65.446C40.326,65.643 40.425,65.84 40.526,66.036C41.483,67.863 42.655,69.57 43.927,71.191C45.361,73.019 46.928,74.741 48.566,76.387C50.608,78.439 52.764,80.374 54.99,82.224C57.976,84.707 61.09,87.032 64.284,89.241L64.424,89.338C67.481,87.234 70.462,85.016 73.33,82.661C75.825,80.612 78.24,78.459 80.508,76.159C82.13,74.515 83.679,72.795 85.094,70.97C86.365,69.329 87.533,67.599 88.472,65.745L88.52,65.649L88.62,65.446C88.747,65.204 88.872,64.962 88.997,64.719C89.698,63.334 90.347,61.923 90.921,60.48C91.381,59.324 91.796,58.149 92.157,56.959C92.689,55.203 93.108,53.41 93.372,51.594C93.59,50.102 93.704,48.593 93.675,47.085C93.654,45.978 93.556,44.871 93.354,43.782C93.194,42.927 92.97,42.082 92.66,41.268C92.186,40.023 91.503,38.846 90.555,37.902C89.68,37.03 88.601,36.374 87.453,35.928C85.764,35.272 83.907,35.065 82.113,35.309C81.13,35.443 80.166,35.713 79.255,36.107C77.499,36.865 75.973,38.072 74.721,39.509C73.863,40.493 73.136,41.581 72.502,42.721L72.434,42.845L72.366,42.971L64.424,57.944C61.755,52.911 59.117,47.861 56.415,42.845C56.325,42.681 56.233,42.518 56.14,42.355C55.39,41.066 54.512,39.85 53.459,38.79C52.753,38.078 51.971,37.44 51.121,36.909C50.125,36.288 49.037,35.817 47.898,35.533C47.162,35.349 46.409,35.246 45.651,35.217C45.497,35.212 45.343,35.21 45.189,35.21Z" style="fill:white;fill-rule:nonzero;"/>
        </g>
    </g>
</svg>
