<?xml version="1.0" encoding="UTF-8" standalone="no"?>
<!DOCTYPE svg PUBLIC "-//W3C//DTD SVG 1.1//EN" "http://www.w3.org/Graphics/SVG/1.1/DTD/svg11.dtd">
<svg width="100%" height="100%" viewBox="0 0 18 19" version="1.1" xmlns="http://www.w3.org/2000/svg" xmlns:xlink="http://www.w3.org/1999/xlink" xml:space="preserve" style="fill-rule:evenodd;clip-rule:evenodd;stroke-linejoin:round;stroke-miterlimit:1.41421;">
    <g transform="matrix(1,0,0,1,-3.01206,-2.56854)">
        <path d="M15.928,10.916C16.404,10.916 16.795,11.306 16.795,11.783L16.795,14.818L20.263,11.35L20.263,20.886L16.795,17.419L16.795,20.453C16.795,20.93 16.404,21.32 15.928,21.32L5.524,21.32C5.047,21.32 4.657,20.93 4.657,20.453L4.657,11.783C4.657,11.306 5.047,10.916 5.524,10.916L15.928,10.916ZM6.762,2.569C8.831,2.569 10.511,4.249 10.511,6.318C10.511,8.388 8.831,10.068 6.762,10.068C4.692,10.068 3.012,8.388 3.012,6.318C3.012,4.249 4.692,2.569 6.762,2.569ZM14.622,2.569C16.691,2.569 18.372,4.249 18.372,6.318C18.372,8.388 16.691,10.068 14.622,10.068C12.552,10.068 10.872,8.388 10.872,6.318C10.872,4.249 12.552,2.569 14.622,2.569Z" style="fill:white;"/>
    </g>
</svg>
