<?xml version="1.0" encoding="utf-8"?>
<!-- Generator: Adobe Illustrator 20.0.0, SVG Export Plug-In . SVG Version: 6.00 Build 0)  -->
<svg version="1.1" id="Layer_1" xmlns="http://www.w3.org/2000/svg" xmlns:xlink="http://www.w3.org/1999/xlink" x="0px" y="0px"
	 viewBox="0 0 40.32 40.32" style="enable-background:new 0 0 40.32 40.32;" xml:space="preserve">
<style type="text/css">
	.st0{fill:#FFFFFF;}
</style>
<g>
	<path class="st0" d="M32.766,24.75c1.14,0.54,1.71,1.41,1.71,2.61v0.36l-1.44,10.17c-0.06,0.72-0.36,1.305-0.9,1.755
		c-0.54,0.45-1.17,0.675-1.89,0.675h-13.05c-0.78,0-1.44-0.27-1.98-0.81l-9.54-9.54l1.53-1.53c0.42-0.42,0.93-0.63,1.53-0.63
		c0.06,0,0.135,0.015,0.225,0.045c0.09,0.03,0.165,0.045,0.225,0.045l6.57,1.35V8.64c0-0.84,0.285-1.53,0.855-2.07
		c0.57-0.54,1.245-0.81,2.025-0.81c0.78,0,1.455,0.27,2.025,0.81s0.855,1.23,0.855,2.07v11.52h1.53c0.18,0,0.51,0.06,0.99,0.18
		L32.766,24.75z M13.866,15.84c-2.58-1.68-3.87-4.08-3.87-7.2c0-2.4,0.84-4.44,2.52-6.12S16.236,0,18.636,0s4.44,0.84,6.12,2.52
		c1.68,1.68,2.52,3.72,2.52,6.12c0,3.18-1.26,5.58-3.78,7.2v-7.2c0-1.32-0.48-2.445-1.44-3.375c-0.96-0.93-2.1-1.395-3.42-1.395
		s-2.445,0.465-3.375,1.395S13.866,7.32,13.866,8.64V15.84z"/>
</g>
</svg>
