<?xml version="1.0" encoding="utf-8"?>
<!-- Generator: Adobe Illustrator 20.0.0, SVG Export Plug-In . SVG Version: 6.00 Build 0)  -->
<svg version="1.1" id="Layer_1" xmlns="http://www.w3.org/2000/svg" xmlns:xlink="http://www.w3.org/1999/xlink" x="0px" y="0px"
	 viewBox="0 0 40.3 7" style="enable-background:new 0 0 40.3 7;" xml:space="preserve">
<style type="text/css">
	.st0{fill:#FFFFFF;}
</style>
<g id="Artboard1" transform="matrix(1.0402,0,0,0.966886,1.10213,-0.775734)">
	<g>
		<g>
			<g transform="matrix(0.898631,5.09924e-32,4.73982e-32,0.966774,-3.74325,-0.803)">
				<path class="st0" d="M6.8,1.9l0.9,2.7h2.8L8.2,6.2l0.9,2.7L6.8,7.2L4.5,8.9l0.9-2.7L3.1,4.5h2.8L6.8,1.9z"/>
			</g>
			<g transform="matrix(0.898631,5.09924e-32,4.73982e-32,0.966774,217.564,-0.803)">
				<path class="st0" d="M-221.7,1.9l0.9,2.7h2.8l-2.3,1.7l0.9,2.7l-2.3-1.7L-224,9l0.9-2.7l-2.3-1.7h2.8L-221.7,1.9z"/>
			</g>
			<g transform="matrix(0.898631,5.09924e-32,4.73982e-32,0.966774,106.929,-0.803)">
				<path class="st0" d="M-107.5,1.9l0.9,2.7h2.8l-2.3,1.7l0.9,2.7l-2.3-1.7l-2.3,1.7l0.9-2.7l-2.3-1.7h2.8L-107.5,1.9z"/>
			</g>
			<g transform="matrix(0.898631,5.09924e-32,4.73982e-32,0.966774,328.236,-0.803)">
				<path class="st0" d="M-335.9,1.9l0.9,2.7h2.8l-2.3,1.7l0.9,2.7l-2.3-1.7l-2.3,1.7l0.9-2.7l-2.3-1.7h2.8L-335.9,1.9z"/>
			</g>
			<g transform="matrix(0.898631,5.09924e-32,4.73982e-32,0.966774,438.871,-0.803)">
				<path class="st0" d="M-450.1,1.9l0.9,2.7h2.8l-2.3,1.7l0.9,2.7l-2.3-1.7l-2.3,1.7l0.9-2.7l-2.3-1.7h2.8L-450.1,1.9z"/>
			</g>
		</g>
	</g>
</g>
</svg>
