<?xml version="1.0" encoding="UTF-8" standalone="no"?>
<!DOCTYPE svg PUBLIC "-//W3C//DTD SVG 1.1//EN" "http://www.w3.org/Graphics/SVG/1.1/DTD/svg11.dtd">
<svg width="100%" height="100%" viewBox="0 0 558 91" version="1.1" xmlns="http://www.w3.org/2000/svg" xmlns:xlink="http://www.w3.org/1999/xlink" xml:space="preserve" style="fill-rule:evenodd;clip-rule:evenodd;stroke-linejoin:round;stroke-miterlimit:1.41421;">
    <g id="Artboard1" transform="matrix(1.0402,0,0,0.966886,1.10213,-0.775734)">
        <clipPath id="_clip1">
            <rect x="-1.06" y="0.802" width="536.081" height="93.721"/>
        </clipPath>
        <g clip-path="url(#_clip1)">
            <g transform="matrix(0.898631,5.09924e-32,4.73982e-32,0.966774,-3.74325,-0.803)">
                <path d="M55.8,1.514L67.809,38.475L106.671,38.475L75.231,61.318L87.24,98.278L55.8,75.435L24.359,98.278L36.368,61.318L4.928,38.475L43.791,38.475L55.8,1.514Z" style="fill:rgb(246,147,34);"/>
            </g>
            <g transform="matrix(0.898631,5.09924e-32,4.73982e-32,0.966774,217.564,-0.803)">
                <path d="M55.8,1.514L67.809,38.475L106.671,38.475L75.231,61.318L87.24,98.278L55.8,75.435L24.359,98.278L36.368,61.318L4.928,38.475L43.791,38.475L55.8,1.514Z" style="fill:rgb(246,147,34);"/>
            </g>
            <g transform="matrix(0.898631,5.09924e-32,4.73982e-32,0.966774,106.929,-0.803)">
                <path d="M55.8,1.514L67.809,38.475L106.671,38.475L75.231,61.318L87.24,98.278L55.8,75.435L24.359,98.278L36.368,61.318L4.928,38.475L43.791,38.475L55.8,1.514Z" style="fill:rgb(246,147,34);"/>
            </g>
            <g transform="matrix(0.898631,5.09924e-32,4.73982e-32,0.966774,328.236,-0.803)">
                <path d="M55.8,1.514L67.809,38.475L106.671,38.475L75.231,61.318L87.24,98.278L55.8,75.435L24.359,98.278L36.368,61.318L4.928,38.475L43.791,38.475L55.8,1.514Z" style="fill:rgb(246,147,34);"/>
            </g>
            <g transform="matrix(0.898631,5.09924e-32,4.73982e-32,0.966774,438.871,-0.803)">
                <path d="M55.8,1.514L67.809,38.475L106.671,38.475L75.231,61.318L87.24,98.278L55.8,75.435L24.359,98.278L36.368,61.318L4.928,38.475L43.791,38.475L55.8,1.514Z" style="fill:rgb(246,147,34);"/>
            </g>
        </g>
    </g>
</svg>
