<?xml version="1.0" encoding="UTF-8" standalone="no"?>
<!DOCTYPE svg PUBLIC "-//W3C//DTD SVG 1.1//EN" "http://www.w3.org/Graphics/SVG/1.1/DTD/svg11.dtd">
<svg width="100%" height="100%" viewBox="0 0 75 71" version="1.1" xmlns="http://www.w3.org/2000/svg" xmlns:xlink="http://www.w3.org/1999/xlink" xml:space="preserve" style="fill-rule:evenodd;clip-rule:evenodd;stroke-linejoin:round;stroke-miterlimit:1.41421;">
    <path d="M53.667,28C65.26,28 74.667,37.401 74.667,49C74.667,60.598 65.26,70 53.667,70C42.063,70 32.667,60.598 32.667,49C32.667,37.401 42.063,28 53.667,28ZM55.961,36.06L50.279,36.06C50.094,36.06 49.932,36.112 49.794,36.215C49.655,36.319 49.563,36.452 49.517,36.614L46.035,50.906C45.977,51.183 46.052,51.408 46.26,51.582C46.41,51.709 46.589,51.772 46.797,51.772C46.889,51.772 46.958,51.767 47.005,51.755L54.038,50.005L50.625,64.003C50.579,64.188 50.605,64.361 50.703,64.522C50.802,64.684 50.949,64.794 51.145,64.852C51.261,64.875 51.342,64.886 51.388,64.886C51.723,64.886 51.965,64.742 52.115,64.453L61.47,44.41C61.597,44.133 61.557,43.878 61.349,43.648C61.176,43.474 60.979,43.388 60.76,43.387C60.713,43.387 60.644,43.399 60.552,43.422L53.692,45.12L56.654,37.099C56.711,36.984 56.74,36.88 56.74,36.787C56.74,36.591 56.665,36.421 56.515,36.276C56.365,36.132 56.18,36.06 55.961,36.06ZM37.333,9.333L68.833,9.333C72.051,9.334 74.667,11.949 74.667,15.167L74.667,28L70,28L70,15.167C70,14.519 69.48,14 68.833,14L35.401,14L26.068,4.667L5.833,4.667C5.186,4.667 4.667,5.186 4.667,5.833L4.667,54.833C4.667,55.481 5.186,56 5.833,56L28,56L28,60.667L5.833,60.667C2.616,60.667 0,58.051 0,54.833L0,5.833C0,2.616 2.616,0 5.833,0L28,0L37.333,9.333Z" style="fill:white;"/>
</svg>
