<?xml version="1.0" encoding="UTF-8"?>
<svg width="128px" height="128px" viewBox="0 0 128 128" version="1.1" xmlns="http://www.w3.org/2000/svg" xmlns:xlink="http://www.w3.org/1999/xlink">
    <!-- Generator: Sketch 43.2 (39069) - http://www.bohemiancoding.com/sketch -->
    <title>Fill 1</title>
    <desc>Created with Sketch.</desc>
    <defs></defs>
    <g id="CarIQ_Initial-PDI" stroke="none" stroke-width="1" fill="none" fill-rule="evenodd">
        <g id="Inbound-Inventory_01" transform="translate(-228.000000, -564.000000)" fill="#FFFFFF">
            <g id="Page-1" transform="translate(228.000000, 564.000000)">
                <path d="M108.7184,97.5584 C104.5824,94.1664 96.4784,91.6304 88.3744,88.2464 C78.7184,84.2304 76.4464,82.8304 76.4464,82.8304 L76.3504,73.5664 C76.3504,73.5664 79.9504,70.7904 81.0864,62.0704 C83.3424,62.7344 85.7184,58.7024 85.8544,56.5824 C85.9664,54.5424 85.5424,48.8624 82.7824,49.4304 C83.3344,45.1584 83.7424,41.3184 83.5504,39.2864 C82.8384,31.8384 75.5104,23.9984 64.2304,23.9984 C52.9904,23.9984 45.6464,31.8384 44.9264,39.2864 C44.7424,41.3184 45.1424,45.1584 45.7024,49.4304 C42.9344,48.8624 42.5104,54.5424 42.6384,56.5824 C42.7664,58.7024 45.1344,62.7344 47.3984,62.0704 C48.5184,70.7904 52.1344,73.5664 52.1344,73.5664 L52.0384,82.8304 C52.0384,82.8304 49.7584,84.2304 40.1184,88.2464 C31.8144,91.7104 23.4864,94.2784 19.4544,97.7904 C12.2944,88.3904 7.9984,76.7024 7.9984,63.9984 C7.9984,33.1184 33.1264,7.9984 63.9984,7.9984 C94.8784,7.9984 119.9984,33.1184 119.9984,63.9984 C119.9984,76.5904 115.7664,88.1904 108.7184,97.5584 M63.9984,-0.0016 C28.6544,-0.0016 -0.0016,28.6464 -0.0016,63.9984 C-0.0016,80.3904 6.2144,95.2864 16.3424,106.6144 C28.0624,119.7104 45.0464,127.9984 63.9984,127.9984 C83.1904,127.9984 100.3584,119.5104 112.0944,106.1344 C121.9664,94.8704 127.9984,80.1504 127.9984,63.9984 C127.9984,28.6464 99.3424,-0.0016 63.9984,-0.0016" id="Fill-1"></path>
            </g>
        </g>
    </g>
</svg>