<?xml version="1.0" encoding="UTF-8" standalone="no"?>
<!DOCTYPE svg PUBLIC "-//W3C//DTD SVG 1.1//EN" "http://www.w3.org/Graphics/SVG/1.1/DTD/svg11.dtd">
<svg width="100%" height="100%" viewBox="0 0 21 18" version="1.1" xmlns="http://www.w3.org/2000/svg" xmlns:xlink="http://www.w3.org/1999/xlink" xml:space="preserve" style="fill-rule:evenodd;clip-rule:evenodd;stroke-linejoin:round;stroke-miterlimit:1.41421;">
    <g transform="matrix(1,0,0,1,-1,-3)">
        <path d="M13,3C8.03,3 4,7.03 4,12L1,12L4.89,15.89L4.96,16.03L9,12L6,12C6,8.13 9.13,5 13,5C16.87,5 20,8.13 20,12C20,15.87 16.87,19 13,19C11.07,19 9.32,18.21 8.06,16.94L6.64,18.36C8.27,19.99 10.51,21 13,21C17.97,21 22,16.97 22,12C22,7.03 17.97,3 13,3ZM12,8L12,13L16.28,15.54L17,14.33L13.5,12.25L13.5,8L12,8Z" style="fill:rgb(91,179,186);fill-rule:nonzero;"/>
    </g>
</svg>
