<?xml version="1.0" encoding="UTF-8" standalone="no"?>
<!DOCTYPE svg PUBLIC "-//W3C//DTD SVG 1.1//EN" "http://www.w3.org/Graphics/SVG/1.1/DTD/svg11.dtd">
<svg width="100%" height="100%" viewBox="0 0 29 41" version="1.1" xmlns="http://www.w3.org/2000/svg" xmlns:xlink="http://www.w3.org/1999/xlink" xml:space="preserve" xmlns:serif="http://www.serif.com/" style="fill-rule:evenodd;clip-rule:evenodd;stroke-linejoin:round;stroke-miterlimit:1.41421;">
    <path d="M24.087,4.117C21.343,1.372 18.014,0 14.102,0C10.19,0 6.861,1.372 4.117,4.117C1.372,6.862 0,10.19 0,14.102C0,16.058 0.505,18.33 1.514,20.917C2.523,23.504 3.644,25.823 4.874,27.874C6.104,29.925 7.54,32.038 9.181,34.215C10.822,36.392 11.957,37.843 12.588,38.569C13.219,39.295 13.724,39.878 14.102,40.32L15.616,38.711C16.562,37.575 17.714,36.045 19.071,34.121C20.428,32.197 21.8,30.13 23.188,27.922C24.576,25.714 25.759,23.347 26.737,20.823C27.715,18.299 28.204,16.059 28.204,14.103C28.205,10.19 26.832,6.862 24.087,4.117Z" style="fill:rgb(208,1,27);"/>
</svg>
