<?xml version="1.0" encoding="UTF-8" standalone="no"?>
<!DOCTYPE svg PUBLIC "-//W3C//DTD SVG 1.1//EN" "http://www.w3.org/Graphics/SVG/1.1/DTD/svg11.dtd">
<svg width="100%" height="100%" viewBox="0 0 100 100" version="1.1" xmlns="http://www.w3.org/2000/svg" xmlns:xlink="http://www.w3.org/1999/xlink" xml:space="preserve" style="fill-rule:evenodd;clip-rule:evenodd;stroke-linejoin:round;stroke-miterlimit:1.41421;">
    <g transform="matrix(3.49974,0,0,3.49974,-54.6088,-105.211)">
        <path d="M18.379,56.889L21.262,56.889L21.262,58.413L15.877,58.413L15.877,57.311L18.695,53.596L16,53.596L16,52.073L21.203,52.073L21.203,53.139L18.379,56.889Z" style="fill:white;fill-rule:nonzero;"/>
    </g>
    <g transform="matrix(5.32153,0,0,5.32153,-55.6078,-235.789)">
        <path d="M18.062,57.1L21.203,57.1L21.203,58.413L15.935,58.413L15.935,57.405L18.953,53.397L16.029,53.397L16.029,52.073L21.103,52.073L21.103,53.052L18.062,57.1Z" style="fill:white;fill-rule:nonzero;"/>
    </g>
    <g transform="matrix(6.24107,0,0,6.24107,-32.6092,-323.337)">
        <path d="M17.424,57.511L21.086,57.511L21.086,58.413L16.047,58.413L16.047,57.604L19.475,52.987L16.088,52.987L16.088,52.073L20.887,52.073L20.887,52.858L17.424,57.511Z" style="fill:white;fill-rule:nonzero;"/>
    </g>
</svg>
