<?xml version="1.0" encoding="UTF-8"?>
<svg width="40px" height="40px" viewBox="0 0 40 40" version="1.1" xmlns="http://www.w3.org/2000/svg" xmlns:xlink="http://www.w3.org/1999/xlink">
    <!-- Generator: Sketch 43.2 (39069) - http://www.bohemiancoding.com/sketch -->
    <title>Fill 1</title>
    <desc>Created with Sketch.</desc>
    <defs></defs>
    <g id="CarIQ_Initial-PDI" stroke="none" stroke-width="1" fill="none" fill-rule="evenodd">
        <g id="Product-Screen_02_Inventory-Alerts" transform="translate(-960.000000, -976.000000)" fill="#FFFFFF">
            <g id="Page-1" transform="translate(960.000000, 976.000000)">
                <path d="M10.0749,32.1602 L8.0049,34.3152 L8.0049,21.6702 C8.0049,20.7492 7.2889,20.0032 6.4039,20.0032 C5.5189,20.0032 4.8039,20.7492 4.8039,21.6702 L4.8039,34.3152 L2.7329,32.1602 C2.1069,31.5092 1.0949,31.5092 0.4699,32.1602 C-0.1561,32.8112 -0.1561,33.8662 0.4699,34.5172 L5.2719,39.5182 C5.5849,39.8442 5.9939,40.0072 6.4039,40.0072 C6.8129,40.0072 7.2229,39.8442 7.5359,39.5182 L12.3389,34.5172 C12.9639,33.8662 12.9639,32.8112 12.3389,32.1602 C11.7129,31.5092 10.6999,31.5092 10.0749,32.1602 M39.5539,5.4892 L34.7519,0.4882 C34.1269,-0.1628 33.1139,-0.1628 32.4879,0.4882 L27.6849,5.4892 C27.0589,6.1402 27.0589,7.1952 27.6849,7.8462 C27.9979,8.1722 28.4069,8.3342 28.8169,8.3342 C29.2259,8.3342 29.6369,8.1722 29.9489,7.8462 L32.0179,5.6912 L32.0179,18.3362 C32.0179,19.2582 32.7339,20.0032 33.6199,20.0032 C34.5049,20.0032 35.2209,19.2582 35.2209,18.3362 L35.2209,5.6922 L37.2899,7.8462 C37.6029,8.1722 38.0129,8.3342 38.4229,8.3342 C38.8329,8.3342 39.2419,8.1722 39.5539,7.8462 C40.1789,7.1952 40.1789,6.1402 39.5539,5.4892 M27.2159,26.6712 L12.8069,26.6712 C11.9289,26.6712 11.2069,27.4212 11.2069,28.3382 C11.2069,29.2542 11.9289,30.0052 12.8069,30.0052 L27.2159,30.0052 C28.0969,30.0052 28.8169,29.2542 28.8169,28.3382 C28.8169,27.4212 28.0969,26.6712 27.2159,26.6712 M27.2159,18.3362 L12.8069,18.3362 C11.9289,18.3362 11.2069,19.0872 11.2069,20.0032 C11.2069,20.9202 11.9289,21.6702 12.8069,21.6702 L27.2159,21.6702 C28.0969,21.6702 28.8169,20.9202 28.8169,20.0032 C28.8169,19.0872 28.0969,18.3362 27.2159,18.3362 M27.2159,10.0012 L12.8069,10.0012 C11.9289,10.0012 11.2069,10.7522 11.2069,11.6682 C11.2069,12.5852 11.9289,13.3352 12.8069,13.3352 L27.2159,13.3352 C28.0969,13.3352 28.8169,12.5852 28.8169,11.6682 C28.8169,10.7522 28.0969,10.0012 27.2159,10.0012" id="Fill-1"></path>
            </g>
        </g>
    </g>
</svg>