<svg width="573" height="70" viewBox="0 0 573 70" xmlns="http://www.w3.org/2000/svg">
	<path d="M185.7 15.27a15.2 15.2 0 0112.14 6.4v-5.26h13.97v32.22c0 11.98-1.38 21.37-21.07 21.37-14.13 0-20.08-5.65-20.84-11.53h15.95c0 .46.3 1.15 1 1.76.68.61 1.83 1 3.43 1 4.58 0 6.41-2.07 6.41-7.8v-3.28c-2.29 2.3-5.72 4.35-11.45 4.35-11.07 0-17.4-8.7-17.4-18.93 0-9.84 4.73-20.3 17.86-20.3zm-109.26 0c14.8 0 23.74 10.23 23.5 24.73h-30.3a7.7 7.7 0 007.87 7.86c2.51 0 4.8-1.14 5.95-3.5h15.19c-2.75 9.91-12.82 13.2-22.14 13.2-12.82 0-22.75-7.33-22.75-20.77 0-13.13 9.85-21.52 22.68-21.52zm398.56 0c14.8 0 23.74 10.23 23.5 24.73h-30.3a7.7 7.7 0 007.86 7.86c2.52 0 4.81-1.14 5.96-3.5h15.19c-2.75 9.91-12.82 13.2-22.14 13.2-12.82 0-22.75-7.33-22.75-20.77 0-13.13 9.85-21.52 22.68-21.52zm76.36 0c8.7 0 18.93 1.98 19.84 12.6h-14.42a4.17 4.17 0 00-1.53-2.9c-.84-.7-1.99-1-3.2-1-2.75 0-4.51.84-4.51 2.82 0 5.58 25.27 1.84 25.27 16.8 0 8.32-6.87 13.97-21.53 13.97-9.16 0-19.24-2.83-20.08-13.6h15.12c0 1.61.6 2.83 1.68 3.67a6.4 6.4 0 003.9 1.22c2.43 0 5.03-.76 5.03-3.58 0-6.42-24.5-1.3-24.5-16.8 0-10.23 10.6-13.2 18.93-13.2zm-429.43 0c8.7 0 18.93 1.98 19.85 12.6h-14.43a4.17 4.17 0 00-1.52-2.9c-.84-.7-1.99-1-3.21-1-2.75 0-4.5.84-4.5 2.82 0 5.58 25.26 1.84 25.26 16.8 0 8.32-6.87 13.97-21.52 13.97-9.16 0-19.24-2.83-20.08-13.6h15.11c0 1.61.61 2.83 1.68 3.67a6.4 6.4 0 003.9 1.22c2.44 0 5.03-.76 5.03-3.58 0-6.42-24.5-1.3-24.5-16.8 0-10.23 10.61-13.2 18.93-13.2zm244.62 0c18.93 0 20.07 7.02 20.07 16.56v18.94c.01 2.13.15 3.26 2.14 4.88v.76h-16.41l-.76-4.27c-4.5 4.2-9.09 5.42-15.04 5.42-7.56 0-14.28-3.74-14.28-12.06 0-18.17 28.48-9.93 28.48-17.4 0-2.9-3.51-3.3-5.2-3.3-2.2 0-5.19.47-5.57 3.9h-15.26c0-8.47 6.03-13.43 21.83-13.43zm44.27-11.3V16.4h7.64v9.16h-7.64v14.5c0 3.67.54 4.97 4.96 4.97h2.52V56.4c-20.84 1.15-23.36-.3-23.36-14.12V25.57h-5.64v-9.16h5.87V3.97h15.65zm30.87 0V16.4h7.63v9.16h-7.63v14.5c0 3.67.53 4.97 4.96 4.97h2.52V56.4c-20.84 1.15-23.36-.3-23.36-14.12V25.57h-5.65v-9.16h5.88V3.97h15.65zM24.12 1.45c17.71 0 28.7 8.24 28.7 26.34 0 20.68-11.52 28.62-29.16 28.62H0V1.45zm139.36 14.96v40h-15.87v-40h15.87zm365.18-1.14c.69 0 1.37.15 2.06.23v15.87c-1.07-.15-2.21-.45-3.28-.45-6.5 0-9.77 3.05-9.77 11.68V56.4h-15.88v-40h14.43v8.1h.15c2.21-6.27 6.1-9.24 12.29-9.24zm-283.88 0c10.54 0 15.5 6.18 15.5 17.17v23.97H244.4V35.27c0-3.97-1.07-7.48-5.57-7.48-4.89 0-6.19 3.13-6.19 8.24v20.38h-15.87v-40h14.5v6.26c3.59-4.8 7.48-7.4 13.51-7.4zm52.89-13.82l9.7 34.28 9.69-34.28h21.75v54.96h-16.18v-16.8l.23-8.54.91-9.93h-.15l-10 35.27H301.1l-10-35.27h-.15l.76 8.1.39 8.55V56.4H275.9V1.45h21.76zm73.08 37.25c-5.2 2.52-12.06 1.3-12.06 6.5 0 1.98 1.9 3.35 5.03 3.35 5.58 0 7.4-4.35 7.03-9.85zM21.45 14.27h-3.43V43.6h3.81c8.4 0 12.98-4.43 12.98-14.81 0-11.45-3.74-14.5-13.36-14.5zm168.52 12.37c-4.8-.08-6.26 3.9-6.26 9.09 0 3.96 1.99 7.7 6.26 7.78 4.89.23 6.72-3.97 6.72-8.24 0-4.43-1.68-8.63-6.72-8.63zM77.05 24.96c-4.74 0-7.4 2.67-7.4 6.95h14.42a7.2 7.2 0 00-7.02-6.95zm398.56 0c-4.74 0-7.4 2.67-7.4 6.95h14.42a7.2 7.2 0 00-7.02-6.95zM163.48 0v11.3h-15.87V0h15.87z" fill="#000" fill-rule="nonzero"/>
</svg>
