<?xml version="1.0" encoding="UTF-8" standalone="no"?>
<!DOCTYPE svg PUBLIC "-//W3C//DTD SVG 1.1//EN" "http://www.w3.org/Graphics/SVG/1.1/DTD/svg11.dtd">
<svg width="100%" height="100%" viewBox="0 0 89 89" version="1.1" xmlns="http://www.w3.org/2000/svg" xmlns:xlink="http://www.w3.org/1999/xlink" xml:space="preserve" xmlns:serif="http://www.serif.com/" style="fill-rule:evenodd;clip-rule:evenodd;stroke-linejoin:round;stroke-miterlimit:2;">
    <g transform="matrix(1,0,0,1,0.000230608,-0.313349)">
        <path id="Fill-1" d="M-0,55.189L-0,0.313L88.471,0.313L88.468,89L-0,89L-0,55.348C0.063,55.334 0.104,55.334 0.122,55.334L10.398,55.334C10.541,55.334 10.579,55.211 10.46,55.189C9.701,55.038 6.388,54.369 5.815,54.203C5.258,54.044 5.2,53.726 5.424,53.43C5.609,53.147 10.85,46.819 11.236,46.534C11.709,46.175 11.913,46.127 12.751,46.118C13.019,46.105 14.573,46.071 16.068,46.118C17.316,46.14 18.524,46.243 18.873,46.273C19.65,46.332 19.567,46.901 19.567,47.192C19.567,47.465 19.34,52.103 19.32,52.897C19.301,53.712 19.158,53.828 18.626,54.008C18.36,54.087 14.84,55.189 14.715,55.259C14.593,55.3 14.759,55.334 14.759,55.334L25.663,55.334C25.829,55.334 25.891,55.246 25.791,55.201C25.543,55.109 23.597,54.292 23.086,54.053C22.534,53.792 22.491,53.372 22.471,53.035C22.471,52.727 22.761,33.019 22.677,32.857C22.637,32.771 22.514,32.757 22.412,32.851C22.084,33.165 2.6,53.917 2.252,54.132C1.558,54.667 0.184,55.118 0.103,55.153C0.103,55.166 0.063,55.176 -0,55.189ZM84.952,55.865C84.702,55.77 82.744,54.937 82.226,54.693C81.649,54.427 81.63,53.998 81.606,53.654C81.586,53.341 81.9,33.237 81.813,33.073C81.773,32.984 81.649,32.97 81.546,33.066C81.217,33.386 61.579,54.554 61.205,54.774C60.503,55.319 59.141,55.806 59.059,55.852C58.977,55.888 58.977,56 59.079,56L69.435,56C69.579,56 69.599,55.874 69.5,55.852C68.733,55.698 65.393,55.016 64.817,54.846C64.258,54.684 64.196,54.36 64.403,54.058C64.61,53.769 69.888,47.314 70.262,47.024C70.758,46.658 70.964,46.609 71.807,46.599C72.079,46.586 73.644,46.551 75.151,46.599C76.409,46.621 77.608,46.726 77.978,46.758C78.762,46.817 78.679,47.398 78.679,47.695C78.679,47.974 78.45,52.704 78.431,53.515C78.407,54.346 78.267,54.464 77.728,54.648C77.443,54.728 73.914,55.852 73.789,55.923C73.664,55.965 73.831,56 73.831,56L84.828,56C84.992,56 85.051,55.91 84.952,55.865ZM58.229,54.416C57.926,54.534 54.359,55.901 50.922,55.993C42.072,56.23 38.839,50.041 40.362,44.405C41.145,41.434 43.079,38.648 45.551,36.706C46.969,35.599 51.147,33 56.629,33C57.654,33 60.293,33.131 62.225,33.633C63.172,33.879 63.029,34.403 62.924,34.79C62.865,34.978 60.783,41.246 60.724,41.401C60.641,41.633 60.435,41.644 60.435,41.388C60.435,41.246 60.704,35.693 60.681,35.458C60.681,34.873 60.681,34.51 60.023,34.312C59.116,34.008 54.773,33.633 51.561,35.132C46.189,37.644 43.056,43.447 43.695,48.066C44.211,51.877 47.24,54.99 52.054,55.119C53.558,55.155 54.671,54.931 54.999,54.826C55.473,54.685 55.535,54.544 55.656,54.265C55.742,53.984 56.563,50.582 56.586,50.44C56.629,50.287 56.832,49.807 56.337,49.67C55.843,49.539 51.48,48.358 51.254,48.299C51.025,48.243 51.128,48.122 51.295,48.122L59.486,48.122C59.817,48.122 60.681,48.043 60.456,48.86C60.207,49.693 58.972,53.609 58.867,53.879C58.767,54.158 58.521,54.311 58.229,54.416ZM37.779,34.134C37.262,34.362 37.082,34.647 36.947,35.062C36.845,35.38 32.859,52.527 32.799,52.825C32.716,53.215 32.698,53.544 33.136,53.719C33.593,53.911 35.874,54.724 36.051,54.808C36.231,54.875 36.189,55 35.992,55L26.194,55C26.017,55 25.915,54.943 26.092,54.866C26.292,54.773 28.454,53.982 28.654,53.901C28.889,53.809 29.446,53.603 29.604,53.098C29.704,52.724 33.811,35.496 33.89,35.163C33.988,34.741 33.947,34.317 33.454,34.144C33.195,34.04 30.676,33.173 30.596,33.137C30.458,33.089 30.458,33 30.578,33L40.855,33C40.971,33 41.073,33.081 40.93,33.126C40.773,33.16 39.085,33.665 38.908,33.723C38.71,33.791 38.095,33.982 37.779,34.134ZM78.762,45.023C78.762,45.477 78.556,45.73 77.809,45.73C77.069,45.73 72.447,45.72 72.447,45.72C71.623,45.707 71.642,45.255 71.951,44.932C72.263,44.585 77.878,38.628 78.082,38.385C78.492,37.935 78.844,37.956 78.844,38.571C78.844,39.197 78.762,44.711 78.762,45.023ZM19.65,44.573C19.65,45.017 19.464,45.265 18.709,45.265C17.971,45.265 13.408,45.256 13.408,45.256C12.587,45.244 12.61,44.8 12.916,44.484C13.203,44.143 18.792,38.303 18.995,38.065C19.382,37.624 19.75,37.645 19.75,38.247C19.75,38.861 19.65,44.267 19.65,44.573Z"/>
    </g>
</svg>
