<?xml version="1.0" encoding="UTF-8" standalone="no"?>
<!DOCTYPE svg PUBLIC "-//W3C//DTD SVG 1.1//EN" "http://www.w3.org/Graphics/SVG/1.1/DTD/svg11.dtd">
<svg width="100%" height="100%" viewBox="0 0 512 512" version="1.1" xmlns="http://www.w3.org/2000/svg" xmlns:xlink="http://www.w3.org/1999/xlink" xml:space="preserve" style="fill-rule:evenodd;clip-rule:evenodd;stroke-linejoin:round;stroke-miterlimit:1.41421;">
    <g>
        <path d="M73.3,391C75.1,394 76.1,397.4 76.1,401.2L64,464L120.2,441.9C122.9,440.8 125.8,440.2 128.9,440.2C131.7,440.2 134.4,440.7 136.9,441.6C136.9,441.6 137,441.6 137.1,441.6C137.5,441.8 137.9,441.9 138.3,442.1C156.1,449.4 175.7,453.5 196.2,453.5C242.5,453.5 283.8,433 311,400.9C296.9,404.5 282.1,406.6 266.9,406.6C171,406.6 93.2,331.6 93.2,239.1C93.2,227.3 94.5,215.9 96.9,204.8C66.9,230.9 48,268.6 48,310.6C48,339 56.6,365.8 71.5,388.1C72.1,388.9 72.7,390 73.3,391Z" style="fill:rgb(0,118,190);fill-rule:nonzero;"/>
        <path d="M290.3,48C206.6,48 136.7,105.2 120.3,181.2C117.9,192.3 116.6,203.7 116.6,215.5C116.6,308 194.3,383 290.3,383C305.6,383 320.3,380.9 334.4,377.3C342.5,375.2 350.5,372.8 358.2,369.7C358.7,369.5 359.1,369.3 359.6,369.1C359.7,369.1 359.8,369.1 359.8,369C362.7,367.9 365.9,367.3 369.1,367.3C372.7,367.3 376.1,368 379.2,369.3L447.8,395.1L430.8,321.3C430.8,316.9 432,312.7 434.1,309.1C434.7,308 435.5,307 436.2,306C453.6,279.9 463.7,248.8 463.7,215.5C464,123 386.3,48 290.3,48Z" style="fill:rgb(0,118,190);fill-rule:nonzero;"/>
    </g>
</svg>
