<?xml version="1.0" encoding="UTF-8" standalone="no"?>
<!DOCTYPE svg PUBLIC "-//W3C//DTD SVG 1.1//EN" "http://www.w3.org/Graphics/SVG/1.1/DTD/svg11.dtd">
<svg width="100%" height="100%" viewBox="0 0 22 22" version="1.1" xmlns="http://www.w3.org/2000/svg" xmlns:xlink="http://www.w3.org/1999/xlink" xml:space="preserve" style="fill-rule:evenodd;clip-rule:evenodd;stroke-linejoin:round;stroke-miterlimit:1.41421;">
    <path d="M18.742,3.222C16.602,1.084 13.992,0 10.982,0C7.971,0 5.362,1.084 3.222,3.222C1.084,5.361 0,7.971 0,10.982C0,13.992 1.084,16.602 3.222,18.742C5.362,20.88 7.971,21.963 10.982,21.963C13.992,21.963 16.602,20.88 18.742,18.742C20.88,16.602 21.963,13.992 21.963,10.982C21.963,7.971 20.88,5.361 18.742,3.222ZM17.932,17.932C16,19.863 13.661,20.842 10.982,20.842C8.303,20.842 5.964,19.863 4.032,17.932C2.101,16 1.121,13.661 1.121,10.982C1.121,8.302 2.101,5.964 4.032,4.032C5.964,2.101 8.303,1.121 10.982,1.121C13.661,1.121 16,2.101 17.932,4.032C19.863,5.964 20.843,8.302 20.843,10.982C20.843,13.661 19.863,16 17.932,17.932ZM10.982,10.172L7.997,7.187L7.186,7.998L10.171,10.983L7.186,13.968L7.997,14.776L10.982,11.791L13.967,14.776L14.778,13.968L11.792,10.983L14.778,7.998L13.967,7.187L10.982,10.172Z" style="fill:white;"/>
</svg>
