<?xml version="1.0" encoding="UTF-8" standalone="no"?>
<!DOCTYPE svg PUBLIC "-//W3C//DTD SVG 1.1//EN" "http://www.w3.org/Graphics/SVG/1.1/DTD/svg11.dtd">
<svg width="100%" height="100%" viewBox="0 0 60 60" version="1.1" xmlns="http://www.w3.org/2000/svg" xmlns:xlink="http://www.w3.org/1999/xlink" xml:space="preserve" style="fill-rule:evenodd;clip-rule:evenodd;stroke-linejoin:round;stroke-miterlimit:1.41421;">
    <path d="M30,0C29.448,0 29,0.448 29,1L29,7C29,7.552 29.448,8 30,8C30.552,8 31,7.552 31,7L31,1C31,0.448 30.552,0 30,0Z" style="fill:rgb(247,146,30);fill-rule:nonzero;"/>
    <path d="M30,52C29.448,52 29,52.448 29,53L29,59C29,59.552 29.448,60 30,60C30.552,60 31,59.552 31,59L31,53C31,52.448 30.552,52 30,52Z" style="fill:rgb(247,146,30);fill-rule:nonzero;"/>
    <path d="M59,29L53,29C52.448,29 52,29.448 52,30C52,30.552 52.448,31 53,31L59,31C59.552,31 60,30.552 60,30C60,29.448 59.552,29 59,29Z" style="fill:rgb(247,146,30);fill-rule:nonzero;"/>
    <path d="M8,30C8,29.448 7.552,29 7,29L1,29C0.448,29 0,29.448 0,30C0,30.552 0.448,31 1,31L7,31C7.552,31 8,30.552 8,30Z" style="fill:rgb(247,146,30);fill-rule:nonzero;"/>
    <path d="M46.264,14.736C46.52,14.736 46.776,14.638 46.971,14.443L52.707,8.707C53.098,8.316 53.098,7.684 52.707,7.293C52.316,6.902 51.684,6.902 51.293,7.293L45.557,13.029C45.166,13.42 45.166,14.052 45.557,14.443C45.752,14.639 46.008,14.736 46.264,14.736Z" style="fill:rgb(247,146,30);fill-rule:nonzero;"/>
    <path d="M13.029,45.557L7.293,51.293C6.902,51.684 6.902,52.316 7.293,52.707C7.488,52.902 7.744,53 8,53C8.256,53 8.512,52.902 8.707,52.707L14.443,46.971C14.834,46.58 14.834,45.948 14.443,45.557C14.052,45.166 13.42,45.166 13.029,45.557Z" style="fill:rgb(247,146,30);fill-rule:nonzero;"/>
    <path d="M46.971,45.557C46.58,45.166 45.948,45.166 45.557,45.557C45.166,45.948 45.166,46.58 45.557,46.971L51.293,52.707C51.488,52.902 51.744,53 52,53C52.256,53 52.512,52.902 52.707,52.707C53.098,52.316 53.098,51.684 52.707,51.293L46.971,45.557Z" style="fill:rgb(247,146,30);fill-rule:nonzero;"/>
    <path d="M8.707,7.293C8.316,6.902 7.684,6.902 7.293,7.293C6.902,7.684 6.902,8.316 7.293,8.707L13.029,14.443C13.224,14.638 13.48,14.736 13.736,14.736C13.992,14.736 14.248,14.638 14.443,14.443C14.834,14.052 14.834,13.42 14.443,13.029L8.707,7.293Z" style="fill:rgb(247,146,30);fill-rule:nonzero;"/>
    <path d="M50.251,21.404C50.413,21.785 50.783,22.014 51.172,22.014C51.302,22.014 51.435,21.988 51.562,21.934L54.324,20.762C54.832,20.546 55.07,19.959 54.854,19.451C54.638,18.943 54.05,18.705 53.543,18.921L50.781,20.093C50.272,20.309 50.035,20.896 50.251,21.404Z" style="fill:rgb(247,146,30);fill-rule:nonzero;"/>
    <path d="M9.749,38.596C9.533,38.088 8.946,37.85 8.438,38.066L5.676,39.238C5.168,39.454 4.93,40.041 5.146,40.549C5.308,40.93 5.678,41.159 6.067,41.159C6.197,41.159 6.33,41.133 6.457,41.079L9.219,39.907C9.728,39.691 9.965,39.104 9.749,38.596Z" style="fill:rgb(247,146,30);fill-rule:nonzero;"/>
    <path d="M54.481,38.813L51.7,37.688C51.189,37.481 50.605,37.729 50.398,38.241C50.191,38.753 50.439,39.336 50.951,39.543L53.733,40.667C53.856,40.716 53.983,40.74 54.107,40.74C54.503,40.74 54.878,40.504 55.035,40.114C55.241,39.603 54.994,39.02 54.481,38.813Z" style="fill:rgb(247,146,30);fill-rule:nonzero;"/>
    <path d="M5.519,21.188L8.3,22.312C8.423,22.361 8.55,22.385 8.674,22.385C9.07,22.385 9.445,22.149 9.602,21.759C9.809,21.247 9.561,20.664 9.049,20.457L6.267,19.333C5.754,19.126 5.172,19.373 4.965,19.886C4.759,20.397 5.006,20.98 5.519,21.188Z" style="fill:rgb(247,146,30);fill-rule:nonzero;"/>
    <path d="M39.907,50.781C39.691,50.273 39.104,50.036 38.596,50.251C38.088,50.467 37.85,51.054 38.066,51.562L39.238,54.324C39.4,54.705 39.77,54.934 40.159,54.934C40.289,54.934 40.422,54.908 40.549,54.854C41.057,54.638 41.295,54.051 41.079,53.543L39.907,50.781Z" style="fill:rgb(247,146,30);fill-rule:nonzero;"/>
    <path d="M21.014,9.829C21.144,9.829 21.277,9.803 21.404,9.749C21.912,9.533 22.15,8.946 21.934,8.438L20.762,5.676C20.547,5.167 19.96,4.929 19.451,5.146C18.943,5.362 18.705,5.949 18.921,6.457L20.093,9.219C20.254,9.6 20.625,9.829 21.014,9.829Z" style="fill:rgb(247,146,30);fill-rule:nonzero;"/>
    <path d="M21.759,50.398C21.248,50.193 20.664,50.438 20.457,50.951L19.333,53.733C19.126,54.245 19.374,54.828 19.886,55.035C20.009,55.084 20.136,55.108 20.26,55.108C20.656,55.108 21.031,54.872 21.188,54.482L22.312,51.7C22.519,51.188 22.271,50.605 21.759,50.398Z" style="fill:rgb(247,146,30);fill-rule:nonzero;"/>
    <path d="M38.615,9.675C39.011,9.675 39.386,9.439 39.543,9.049L40.667,6.267C40.874,5.755 40.626,5.172 40.114,4.965C39.603,4.758 39.019,5.006 38.812,5.518L37.688,8.3C37.481,8.812 37.729,9.395 38.241,9.602C38.364,9.651 38.491,9.675 38.615,9.675Z" style="fill:rgb(247,146,30);fill-rule:nonzero;"/>
    <circle cx="30" cy="30" r="20" style="fill:rgb(247,146,30);fill-opacity:0.3;"/>
</svg>
