<svg xmlns="http://www.w3.org/2000/svg" width="116" height="102" viewBox="0 0 116 102">
  <g fill="#3277B8">
    <path d="M47.023,52.983 L61.772,52.983 C63.43,52.983 64.772,51.64 64.772,49.983 L64.772,35.233 C64.772,33.576 63.43,32.233 61.772,32.233 L47.023,32.233 C45.367,32.233 44.023,33.576 44.023,35.233 L44.023,49.983 C44.023,51.641 45.367,52.983 47.023,52.983 Z M50.023,38.233 L58.772,38.233 L58.772,46.983 L50.023,46.983 L50.023,38.233 Z"/>
    <path d="M112.942,75.786 L96.036,75.786 L96.036,54.139 L99.972,57.589 L108.656,48.908 L54.436,0.307 L54.4,0.344 L54.361,0.307 L37.839,15.116 L37.839,5.683 C37.839,4.026 36.496,2.683 34.839,2.683 L15.758,2.683 C14.102,2.683 12.758,4.026 12.758,5.683 L12.758,37.597 L0.14,48.908 L8.822,57.589 L12.759,54.138 L12.759,98.693 C12.759,100.35 14.103,101.693 15.759,101.693 L30.408,101.693 L78.387,101.693 L93.035,101.693 L112.941,101.693 C114.599,101.693 115.941,100.35 115.941,98.693 L115.941,78.786 C115.942,77.129 114.6,75.786 112.942,75.786 Z M18.758,8.684 L31.839,8.684 L31.839,20.495 L18.758,32.22 L18.758,8.684 Z M18.758,48.877 L54.399,17.631 L90.036,48.877 L90.036,78.786 L90.036,95.692 L81.388,95.692 L81.388,58.881 C81.388,57.224 80.046,55.881 78.388,55.881 L30.408,55.881 C28.752,55.881 27.408,57.224 27.408,58.881 L27.408,95.693 L18.759,95.693 L18.759,48.877 L18.758,48.877 Z M75.387,68.29 L33.408,68.29 L33.408,61.881 L75.387,61.881 L75.387,68.29 Z"/>
  </g>
</svg>
