<svg xmlns="http://www.w3.org/2000/svg" width="116" height="112" viewBox="0 0 116 112">
  <g fill="#3277B8">
    <rect width="11.771" height="11.771" x="40.354" y="51.114"/>
    <rect width="11.771" height="11.771" x="63.958" y="51.114"/>
    <rect width="11.771" height="11.771" x="40.354" y="75.116"/>
    <rect width="11.771" height="11.771" x="63.958" y="75.116"/>
    <rect width="11.771" height="11.771" x="40.354" y="27.112"/>
    <rect width="11.771" height="11.771" x="63.958" y="27.112"/>
    <path d="M112.292,98.03 L109.64,98.03 L109.64,53.235 C109.64,51.578 108.297,50.235 106.64,50.235 L88.605,50.235 L88.605,13.358 C88.605,11.701 87.262,10.358 85.605,10.358 L76.73,10.358 L76.73,3.094 C76.73,1.437 75.387,0.094 73.73,0.094 L42.354,0.094 C40.697,0.094 39.354,1.437 39.354,3.094 L39.354,10.358 L30.479,10.358 C28.822,10.358 27.479,11.701 27.479,13.358 L27.479,50.235 L9.442,50.235 C7.785,50.235 6.442,51.578 6.442,53.235 L6.442,98.03 L3.791,98.03 C2.134,98.03 0.791,99.373 0.791,101.03 L0.791,108.905 C0.791,110.562 2.134,111.905 3.791,111.905 L112.291,111.905 C113.948,111.905 115.291,110.562 115.291,108.905 L115.291,101.03 C115.292,99.373 113.949,98.03 112.292,98.03 Z M27.479,74.132 L12.442,74.132 L12.442,67.905 L27.478,67.905 L27.478,74.132 L27.479,74.132 Z M27.479,80.132 L27.479,86.361 L12.442,86.361 L12.442,80.132 L27.479,80.132 Z M103.639,74.132 L88.604,74.132 L88.604,67.905 L103.639,67.905 L103.639,74.132 Z M103.639,80.132 L103.639,86.361 L88.604,86.361 L88.604,80.132 L103.639,80.132 Z M103.639,92.36 L103.639,98.03 L88.604,98.03 L88.604,92.36 L103.639,92.36 Z M103.639,56.235 L103.639,61.905 L88.604,61.905 L88.604,56.235 L103.639,56.235 Z M33.479,16.358 L42.354,16.358 L73.729,16.358 L82.604,16.358 L82.604,98.03 L33.479,98.03 L33.479,16.358 Z M27.479,56.235 L27.479,61.905 L12.442,61.905 L12.442,56.235 L27.479,56.235 Z M12.442,92.36 L27.478,92.36 L27.478,98.03 L12.442,98.03 L12.442,92.36 Z M109.292,105.905 L6.792,105.905 L6.792,104.03 L9.443,104.03 L30.479,104.03 L58.042,104.03 L85.605,104.03 L106.64,104.03 L109.292,104.03 L109.292,105.905 Z"/>
  </g>
</svg>
