<?xml version="1.0" encoding="UTF-8" standalone="no"?>
<!DOCTYPE svg PUBLIC "-//W3C//DTD SVG 1.1//EN" "http://www.w3.org/Graphics/SVG/1.1/DTD/svg11.dtd">
<svg width="100%" height="100%" viewBox="0 0 40 40" version="1.1" xmlns="http://www.w3.org/2000/svg" xmlns:xlink="http://www.w3.org/1999/xlink" xml:space="preserve" style="fill-rule:evenodd;clip-rule:evenodd;stroke-linejoin:round;stroke-miterlimit:1.41421;">
    <g transform="matrix(1,0,0,1,-1.26572,-0.728851)">
        <path d="M41.266,40.729L38.793,40.729L38.793,22.525C38.793,12.525 30.746,11.393 27.973,11.393C25.066,11.393 23.622,12.773 22.413,13.713L22.413,11.393L14.443,11.393L14.443,40.729L11.733,40.729L11.733,11.393L3.83,11.393L3.83,40.729L1.266,40.729L1.266,0.729L41.266,0.729L41.266,40.729ZM22.413,40.729L22.413,22.266C22.413,22.266 22.113,18.579 26.526,18.579C29.183,18.579 30.406,20.092 30.406,22.266L30.406,40.729L22.413,40.729ZM11.732,4.726C11.732,6.939 9.949,8.723 7.735,8.723C5.535,8.723 3.738,6.939 3.738,4.726C3.739,2.525 5.536,0.729 7.736,0.729C9.95,0.729 11.732,2.525 11.732,4.726Z" style="fill:white;"/>
    </g>
</svg>
