<?xml version="1.0" encoding="utf-8"?>
<!-- Generator: Adobe Illustrator 20.0.0, SVG Export Plug-In . SVG Version: 6.00 Build 0)  -->
<svg version="1.1" id="Layer_1" xmlns="http://www.w3.org/2000/svg" xmlns:xlink="http://www.w3.org/1999/xlink" x="0px" y="0px"
	 viewBox="0 0 512 512" style="enable-background:new 0 0 512 512;" xml:space="preserve">
<style type="text/css">
	.st0{fill:#FFFFFF;}
</style>
<g>
	<g>
		<path class="st0" d="M511.5,167.4l-40.3-130c-1.3-4.3-5.3-7.2-9.7-7.2h-411c-4.5,0-8.4,2.9-9.7,7.2l-40.3,130
			c-1,3.1-0.4,6.5,1.5,9.1c1.9,2.6,5,4.1,8.2,4.1h10.1v291c0,5.6,4.6,10.2,10.2,10.2h451c5.6,0,10.2-4.6,10.2-10.2v-291h10.1
			c3.2,0,6.3-1.5,8.2-4.1C511.9,173.9,512.5,170.5,511.5,167.4z M24,160.2L58,50.6h176.9L170,127.3c-1.6,1.8-2.4,4.2-2.4,6.6v26.4
			L24,160.2L24,160.2z M303.2,461.4h-94.4v0v-75.6h7.6c5.6,0,10.2-4.6,10.2-10.2s-4.6-10.2-10.2-10.2h-7.6v-75.1h94.4V461.4z
			 M471.3,461.4H323.6V280.1c0-5.6-4.6-10.2-10.2-10.2H198.6c-5.6,0-10.2,4.6-10.2,10.2v181.3H40.7V180.6h137.1
			c5.6,0,10.2-4.6,10.2-10.2v-32.8l68-80.4l68,80.4v32.8c0,5.6,4.6,10.2,10.2,10.2h36h101.1L471.3,461.4L471.3,461.4z M344.4,160.2
			v-26.4c0-2.4-0.9-4.7-2.4-6.6l-64.9-76.7H454l34,109.6H344.4z"/>
	</g>
</g>
<g>
	<g>
		<path class="st0" d="M255,112.5c-21.3,0-38.6,17.3-38.6,38.6s17.3,38.6,38.6,38.6c21.3,0,38.6-17.3,38.6-38.6
			C293.6,129.8,276.3,112.5,255,112.5z M255,169.4c-10.1,0-18.2-8.2-18.2-18.2s8.2-18.2,18.2-18.2c10.1,0,18.2,8.2,18.2,18.2
			C273.2,161.2,265,169.4,255,169.4z"/>
	</g>
</g>
<g>
	<g>
		<path class="st0" d="M430.7,282.1H365c-5.6,0-10.2,4.6-10.2,10.2v102.6c0,5.6,4.6,10.2,10.2,10.2h65.7c5.6,0,10.2-4.6,10.2-10.2
			V292.3C440.9,286.7,436.3,282.1,430.7,282.1z M420.5,384.7h-45.3v-82.2h45.3V384.7z"/>
	</g>
</g>
<g>
	<g>
		<path class="st0" d="M147,282.1H81.3c-5.6,0-10.2,4.6-10.2,10.2v102.6c0,5.6,4.6,10.2,10.2,10.2H147c5.6,0,10.2-4.6,10.2-10.2
			V292.3C157.2,286.7,152.6,282.1,147,282.1z M136.8,384.7H91.5v-82.2h45.3V384.7z"/>
	</g>
</g>
<g>
	<g>
		<path class="st0" d="M169.7,193.7h-5.1c-5.6,0-10.2,4.6-10.2,10.2s4.6,10.2,10.2,10.2h5.1c5.6,0,10.2-4.6,10.2-10.2
			S175.3,193.7,169.7,193.7z"/>
	</g>
</g>
<g>
	<g>
		<path class="st0" d="M128,193.7H65c-5.6,0-10.2,4.6-10.2,10.2s4.6,10.2,10.2,10.2h63c5.6,0,10.2-4.6,10.2-10.2
			S133.7,193.7,128,193.7z"/>
	</g>
</g>
</svg>
