<?xml version="1.0" encoding="UTF-8" standalone="no"?>
<!DOCTYPE svg PUBLIC "-//W3C//DTD SVG 1.1//EN" "http://www.w3.org/Graphics/SVG/1.1/DTD/svg11.dtd">
<svg width="100%" height="100%" viewBox="0 0 100 100" version="1.1" xmlns="http://www.w3.org/2000/svg" xmlns:xlink="http://www.w3.org/1999/xlink" xml:space="preserve" style="fill-rule:evenodd;clip-rule:evenodd;stroke-linejoin:round;stroke-miterlimit:1.41421;">
    <g transform="matrix(2.24535,0,0,2.24535,29.9455,-0.0759569)">
        <path d="M9.076,0.034C10.162,0.044 11.246,0.126 12.321,0.29C14.311,0.595 16.258,1.172 18.092,2.002C20.294,2.998 22.329,4.356 24.097,6.002C25.895,7.675 27.414,9.645 28.574,11.809C29.583,13.693 30.318,15.722 30.747,17.816C31.239,20.219 31.33,22.703 31.02,25.136C30.731,27.408 30.088,29.632 29.118,31.708C28.001,34.098 26.456,36.284 24.58,38.138C22.606,40.089 20.27,41.668 17.72,42.765C15.04,43.919 12.137,44.53 9.219,44.567C6.291,44.605 3.362,44.065 0.644,42.973C-1.934,41.938 -4.31,40.414 -6.332,38.509C-8.25,36.702 -9.846,34.555 -11.02,32.194C-12.037,30.149 -12.734,27.948 -13.079,25.691C-13.443,23.311 -13.421,20.871 -13.012,18.499C-12.656,16.43 -12.003,14.415 -11.08,12.529C-9.979,10.281 -8.497,8.224 -6.716,6.465C-4.935,4.705 -2.859,3.246 -0.597,2.172C1.218,1.311 3.149,0.699 5.129,0.357C6.196,0.174 7.275,0.072 8.357,0.041C8.597,0.035 8.836,0.033 9.076,0.034ZM8.807,3.034C7.866,3.043 6.927,3.113 5.996,3.256C4.276,3.519 2.593,4.018 1.008,4.735C-0.933,5.613 -2.724,6.816 -4.275,8.277C-5.822,9.735 -7.128,11.448 -8.121,13.329C-8.965,14.928 -9.582,16.646 -9.945,18.418C-10.379,20.538 -10.452,22.732 -10.165,24.877C-9.908,26.8 -9.358,28.681 -8.537,30.438C-7.554,32.542 -6.187,34.463 -4.525,36.085C-2.806,37.764 -0.776,39.119 1.437,40.055C3.764,41.04 6.28,41.553 8.807,41.569C11.338,41.585 13.866,41.104 16.21,40.146C18.435,39.236 20.482,37.905 22.222,36.246C23.902,34.644 25.292,32.74 26.3,30.649C27.141,28.904 27.714,27.033 27.995,25.117C28.309,22.976 28.262,20.779 27.854,18.653C27.506,16.837 26.892,15.073 26.039,13.432C25.057,11.545 23.761,9.824 22.222,8.357C20.709,6.914 18.962,5.718 17.068,4.833C15.494,4.097 13.82,3.578 12.106,3.294C11.18,3.14 10.244,3.058 9.306,3.037C9.139,3.034 8.973,3.033 8.807,3.034ZM2.569,19.687C3.728,23.47 5.873,26.567 9.009,28.979L12.106,26.833C12.545,26.528 12.971,26.51 13.383,26.777C14.641,27.466 16.014,27.945 17.502,28.215C17.836,28.276 18.095,28.438 18.277,28.702C18.46,28.965 18.521,29.265 18.46,29.6L17.702,33.784C17.641,34.118 17.479,34.377 17.215,34.559C16.951,34.742 16.652,34.803 16.317,34.742C10.74,33.731 6.329,30.885 3.087,26.206C-0.156,21.527 -1.271,16.398 -0.259,10.819C-0.198,10.485 -0.036,10.226 0.228,10.043C0.492,9.861 0.791,9.799 1.125,9.86L5.309,10.619C5.644,10.68 5.902,10.842 6.085,11.106C6.268,11.369 6.329,11.669 6.268,12.003C5.999,13.491 5.965,14.945 6.169,16.365C6.23,16.875 6.063,17.267 5.667,17.542L2.569,19.687Z" style="fill:white;"/>
    </g>
</svg>
