<?xml version="1.0" encoding="UTF-8" standalone="no"?>
<!DOCTYPE svg PUBLIC "-//W3C//DTD SVG 1.1//EN" "http://www.w3.org/Graphics/SVG/1.1/DTD/svg11.dtd">
<svg width="100%" height="100%" viewBox="0 0 404 343" version="1.1" xmlns="http://www.w3.org/2000/svg" xmlns:xlink="http://www.w3.org/1999/xlink" xml:space="preserve" style="fill-rule:evenodd;clip-rule:evenodd;stroke-linecap:round;stroke-linejoin:round;stroke-miterlimit:1.5;">
    <g transform="matrix(1,0,0,1,0.000197785,0.00069417)">
        <g transform="matrix(1,0,0,1,-35.5804,-42.1912)">
            <g transform="matrix(1.08642,0,0,0.641522,-20.5096,136.428)">
                <path d="M412.324,369.418L62.324,369.418L123.38,163.625L351.268,163.625L412.324,369.418Z" style="fill:none;stroke:rgb(0,118,190);stroke-width:26.05px;"/>
            </g>
        </g>
        <g transform="matrix(1,0,0,1,-35.5804,-42.1912)">
            <g transform="matrix(1,0,0,0.922948,2.82387,36.6076)">
                <path d="M234.5,163.625L234.5,293.408" style="fill:none;stroke:rgb(0,118,190);stroke-width:24.15px;"/>
            </g>
        </g>
        <g transform="matrix(1,0,0,1,-35.5804,-42.1912)">
            <g transform="matrix(0.333405,0,0,0.333405,159.234,42.6286)">
                <circle cx="234.218" cy="234.218" r="200.677" style="fill:none;stroke:rgb(0,118,190);stroke-width:69.71px;"/>
            </g>
        </g>
    </g>
</svg>
