<?xml version="1.0" encoding="UTF-8" standalone="no"?>
<!DOCTYPE svg PUBLIC "-//W3C//DTD SVG 1.1//EN" "http://www.w3.org/Graphics/SVG/1.1/DTD/svg11.dtd">
<svg width="100%" height="100%" viewBox="0 0 40 40" version="1.1" xmlns="http://www.w3.org/2000/svg" xmlns:xlink="http://www.w3.org/1999/xlink" xml:space="preserve" style="fill-rule:evenodd;clip-rule:evenodd;stroke-linejoin:round;stroke-miterlimit:1.41421;">
    <g transform="matrix(1,0,0,1,-20.0533,-33.4984)">
        <path d="M60.053,33.498L60.053,73.498L20.053,73.498L20.053,33.498L60.053,33.498ZM40.995,33.498C30.029,33.498 24.496,41.326 24.496,47.851C24.496,51.804 25.998,55.32 29.223,56.628C29.755,56.833 30.226,56.638 30.38,56.055C30.488,55.652 30.739,54.634 30.851,54.209C31.005,53.633 30.946,53.428 30.519,52.93C29.589,51.838 28.996,50.427 28.996,48.425C28.996,42.617 33.361,37.422 40.361,37.422C46.552,37.422 49.965,41.189 49.965,46.228C49.965,52.849 47.021,58.435 42.651,58.435C40.232,58.435 38.422,56.45 39.003,54.014C39.697,51.108 41.04,47.966 41.04,45.862C41.04,43.982 40.024,42.409 37.929,42.409C35.459,42.409 33.479,44.956 33.479,48.359C33.479,50.527 34.213,51.994 34.213,51.994C34.213,51.994 31.689,62.651 31.245,64.514C30.361,68.232 31.113,72.786 31.176,73.245C31.213,73.518 31.567,73.584 31.723,73.376C31.953,73.081 34.892,69.468 35.891,65.857C36.176,64.839 37.514,59.541 37.514,59.541C38.317,61.064 40.661,62.407 43.154,62.407C50.573,62.407 55.61,55.676 55.61,46.66C55.61,39.846 49.809,33.498 40.995,33.498Z" style="fill:white;"/>
    </g>
</svg>
