<?xml version="1.0" encoding="UTF-8" standalone="no"?>
<!DOCTYPE svg PUBLIC "-//W3C//DTD SVG 1.1//EN" "http://www.w3.org/Graphics/SVG/1.1/DTD/svg11.dtd">
<svg width="100%" height="100%" viewBox="0 0 30 30" version="1.1" xmlns="http://www.w3.org/2000/svg" xmlns:xlink="http://www.w3.org/1999/xlink" xml:space="preserve" style="fill-rule:evenodd;clip-rule:evenodd;stroke-linejoin:round;stroke-miterlimit:1.41421;">
    <path d="M15.194,0.001C15.894,0.015 16.591,0.067 17.283,0.173C18.684,0.387 20.052,0.802 21.336,1.402C22.81,2.091 24.169,3.021 25.347,4.144C26.567,5.307 27.589,6.674 28.358,8.174C29.002,9.429 29.466,10.776 29.731,12.162C30.043,13.785 30.084,15.46 29.854,17.097C29.641,18.622 29.189,20.113 28.52,21.501C27.735,23.128 26.654,24.609 25.347,25.856C23.993,27.147 22.399,28.183 20.668,28.891C18.873,29.625 16.939,30 15,30C13.061,30 11.127,29.625 9.332,28.891C7.601,28.183 6.007,27.147 4.653,25.856C3.346,24.609 2.265,23.128 1.48,21.501C0.811,20.113 0.359,18.622 0.146,17.097C-0.084,15.46 -0.043,13.785 0.269,12.162C0.534,10.776 0.998,9.429 1.642,8.174C2.411,6.674 3.433,5.307 4.653,4.144C5.831,3.021 7.19,2.091 8.664,1.402C9.948,0.802 11.316,0.387 12.717,0.173C13.409,0.067 14.106,0.015 14.806,0.001C15,0 15,0 15.194,0.001ZM14.844,3.001C14.284,3.012 13.725,3.054 13.171,3.139C12.052,3.31 10.959,3.641 9.934,4.12C7.57,5.225 5.597,7.106 4.379,9.413C3.853,10.409 3.47,11.478 3.244,12.581C2.968,13.926 2.926,15.32 3.117,16.68C3.287,17.899 3.648,19.089 4.182,20.198C4.811,21.501 5.676,22.687 6.723,23.685C7.807,24.718 9.082,25.547 10.468,26.114C11.903,26.701 13.45,27 15,27C16.55,27 18.097,26.701 19.532,26.114C20.918,25.547 22.193,24.718 23.277,23.685C24.324,22.687 25.189,21.501 25.818,20.198C26.352,19.089 26.713,17.899 26.883,16.68C27.074,15.32 27.032,13.926 26.756,12.581C26.53,11.478 26.147,10.409 25.621,9.413C24.403,7.106 22.43,5.225 20.066,4.12C19.041,3.641 17.948,3.31 16.829,3.139C16.275,3.054 15.716,3.012 15.156,3.001C15,3 15.001,3 14.844,3.001ZM13.584,9.338L15,10.753L20.662,10.753C21.441,10.753 22.078,11.39 22.078,12.169L22.078,19.247C22.078,20.025 21.441,20.662 20.662,20.662L9.338,20.662C8.559,20.662 7.922,20.025 7.922,19.247L7.929,10.753C7.929,9.975 8.559,9.338 9.338,9.338L13.584,9.338Z" style="fill:rgb(0,118,190);"/>
</svg>
