<?xml version="1.0" encoding="UTF-8"?>
<svg width="109px" height="109px" viewBox="0 0 109 109" version="1.1" xmlns="http://www.w3.org/2000/svg" xmlns:xlink="http://www.w3.org/1999/xlink">
    <!-- Generator: Sketch 46.2 (44496) - http://www.bohemiancoding.com/sketch -->
    <title>sp-icon-dealers</title>
    <desc>Created with Sketch.</desc>
    <defs>
        <linearGradient x1="50%" y1="100%" x2="50%" y2="0%" id="linearGradient-1">
            <stop stop-color="#2681CE" offset="0%"></stop>
            <stop stop-color="#4194DB" offset="47.132095%"></stop>
            <stop stop-color="#7EC0F7" offset="100%"></stop>
        </linearGradient>
    </defs>
    <g id="set" stroke="none" stroke-width="1" fill="none" fill-rule="evenodd">
        <g id="sp-iconography" transform="translate(-567.000000, -4558.000000)">
            <circle id="Oval-2" stroke="url(#linearGradient-1)" stroke-width="3" fill="#FFFFFF" cx="621.5" cy="4612.5" r="52.5"></circle>
            <path d="M619.712,4618.47059 L596,4618.47059 C596.069334,4616.19293 596.138666,4614.08785 596.208,4612.15529 C596.277334,4610.49882 596.329333,4608.84236 596.364,4607.18588 C596.398667,4605.5294 596.450666,4604.25255 596.52,4603.35529 C596.589334,4601.6298 596.987996,4600.26667 597.716,4599.26588 C598.444004,4598.26509 599.778657,4597.76471 601.72,4597.76471 L610.04,4597.76471 C610.733337,4596.59137 611.374664,4595.41805 611.964,4594.24471 C612.553336,4593.07137 612.951999,4592.31216 613.16,4591.96706 C613.645336,4591.13882 614.043998,4590.60392 614.356,4590.36235 C614.668002,4590.12078 615.309328,4590 616.28,4590 L627.824,4590 C628.794672,4590 629.435998,4590.12078 629.748,4590.36235 C630.060002,4590.60392 630.423998,4591.13882 630.84,4591.96706 C631.048001,4592.31216 631.463997,4593.07137 632.088,4594.24471 L633.96,4597.76471 L642.28,4597.76471 C644.221343,4597.76471 645.555996,4598.26509 646.284,4599.26588 C647.012004,4600.26667 647.410666,4601.6298 647.48,4603.35529 C647.48,4604.32157 647.514666,4605.63293 647.584,4607.28941 L647.792,4612.25882 C647.861334,4614.19138 647.930666,4616.26195 648,4618.47059 L624.392,4618.47059 L624.392,4613.29412 L619.712,4613.29412 L619.712,4618.47059 Z M615.864,4594.96941 C615.725333,4595.17647 615.534668,4595.53882 615.292,4596.05647 C615.049332,4596.57412 614.754668,4597.14353 614.408,4597.76471 L629.592,4597.76471 C629.245332,4597.14353 628.950668,4596.57412 628.708,4596.05647 C628.465332,4595.53882 628.274667,4595.17647 628.136,4594.96941 C627.789332,4594.41725 627.512001,4594.0549 627.304,4593.88235 C627.095999,4593.7098 626.645337,4593.62353 625.952,4593.62353 L618.048,4593.62353 C617.354663,4593.62353 616.904001,4593.7098 616.696,4593.88235 C616.487999,4594.0549 616.210668,4594.41725 615.864,4594.96941 Z M624.392,4621.05882 L646.752,4621.05882 C646.682666,4621.95608 646.613334,4622.88784 646.544,4623.85412 C646.474666,4624.68236 646.422667,4625.61411 646.388,4626.64941 C646.353333,4627.68471 646.301334,4628.68549 646.232,4629.65176 C646.232,4630.06588 646.162667,4630.53176 646.024,4631.04941 C645.885333,4631.56706 645.660002,4632.03294 645.348,4632.44706 C645.035998,4632.86118 644.585336,4633.22353 643.996,4633.53412 C643.406664,4633.84471 642.592005,4634 641.552,4634 L602.552,4634 C601.511995,4634 600.680003,4633.84471 600.056,4633.53412 C599.431997,4633.22353 598.964002,4632.86118 598.652,4632.44706 C598.339998,4632.03294 598.132001,4631.56706 598.028,4631.04941 C597.923999,4630.53176 597.872,4630.06588 597.872,4629.65176 C597.802666,4628.68549 597.750667,4627.68471 597.716,4626.64941 C597.681333,4625.61411 597.629334,4624.68236 597.56,4623.85412 C597.490666,4622.88784 597.421334,4621.95608 597.352,4621.05882 L619.712,4621.05882 L619.712,4626.23529 L624.392,4626.23529 L624.392,4621.05882 Z" id="💼" fill="#0076BF"></path>
        </g>
    </g>
</svg>