<?xml version="1.0" encoding="UTF-8"?>
<svg width="109px" height="109px" viewBox="0 0 109 109" version="1.1" xmlns="http://www.w3.org/2000/svg" xmlns:xlink="http://www.w3.org/1999/xlink">
    <!-- Generator: Sketch 46.2 (44496) - http://www.bohemiancoding.com/sketch -->
    <title>sp-icon-01</title>
    <desc>Created with Sketch.</desc>
    <defs>
        <linearGradient x1="50%" y1="100%" x2="50%" y2="0%" id="linearGradient-1">
            <stop stop-color="#2681CE" offset="0%"></stop>
            <stop stop-color="#4194DB" offset="47.132095%"></stop>
            <stop stop-color="#7EC0F7" offset="100%"></stop>
        </linearGradient>
    </defs>
    <g id="set" stroke="none" stroke-width="1" fill="none" fill-rule="evenodd">
        <g id="sp-iconography" transform="translate(-167.000000, -4958.000000)">
            <circle id="Oval-2" stroke="url(#linearGradient-1)" stroke-width="3" fill="#FFFFFF" cx="221.5" cy="5012.5" r="52.5"></circle>
            <path d="M196.766667,5000.16552 C196.374072,4999.93103 196.040372,4999.63793 195.765556,4999.28621 C195.490739,4998.93448 195.294445,4998.58276 195.176667,4998.23103 C195.058888,4997.87931 195.098147,4997.58621 195.294444,4997.35172 C195.490742,4997.11724 195.942219,4997 196.648889,4997 L246.468889,4997 C247.09704,4997 247.509258,4997.11724 247.705556,4997.35172 C247.901853,4997.58621 247.960741,4997.87931 247.882222,4998.23103 C247.803703,4998.58276 247.607409,4998.93448 247.293333,4999.28621 C246.979258,4999.63793 246.625928,4999.93103 246.233333,5000.16552 C245.997777,5000.32184 245.310746,5000.6931 244.172222,5001.27931 C243.033698,5001.86552 241.659638,5002.5885 240.05,5003.44828 C238.440362,5004.30805 236.732602,5005.20689 234.926667,5006.14483 C233.120732,5007.08276 231.45223,5007.9816 229.921111,5008.84138 C228.389992,5009.70115 227.07482,5010.40459 225.975556,5010.95172 C224.876291,5011.49885 224.287408,5011.81149 224.208889,5011.88966 C223.816294,5012.12414 223.384447,5012.28046 222.913333,5012.35862 C222.44222,5012.43678 221.971113,5012.47586 221.5,5012.47586 C220.400735,5012.47586 219.497781,5012.28046 218.791111,5011.88966 C218.634073,5011.81149 218.025561,5011.49885 216.965556,5010.95172 C215.90555,5010.40459 214.610008,5009.70115 213.078889,5008.84138 C211.54777,5007.9816 209.879268,5007.08276 208.073333,5006.14483 C206.267398,5005.20689 204.559638,5004.30805 202.95,5003.44828 C201.340362,5002.5885 199.966302,5001.86552 198.827778,5001.27931 C197.689254,5000.6931 197.002223,5000.32184 196.766667,5000.16552 Z M246.822222,5004.02759 C247.450374,5003.71494 247.803703,5003.67586 247.882222,5003.91034 C247.960741,5004.14483 248,5004.37931 248,5004.61379 L248,5026.18621 C248,5026.8115 247.6663,5027.43678 246.998889,5028.06207 C246.331478,5028.68736 245.683707,5029 245.055556,5029 L197.944444,5029 C197.316293,5029 196.668522,5028.68736 196.001111,5028.06207 C195.3337,5027.43678 195,5026.8115 195,5026.18621 L195,5004.61379 C195,5004.37931 195.039259,5004.14483 195.117778,5003.91034 C195.196297,5003.67586 195.549626,5003.71494 196.177778,5004.02759 C196.413335,5004.18391 197.139624,5004.55517 198.356667,5005.14138 C199.57371,5005.72759 200.987029,5006.45057 202.596667,5007.31034 C204.206304,5008.17012 205.933694,5009.06896 207.778889,5010.0069 C209.624083,5010.94483 211.331844,5011.82413 212.902222,5012.64483 C214.4726,5013.46552 215.807402,5014.16896 216.906667,5014.75517 C218.005931,5015.34138 218.634073,5015.67356 218.791111,5015.75172 C219.340743,5016.06437 219.81185,5016.24023 220.204444,5016.27931 C220.597039,5016.31839 221.028887,5016.33793 221.5,5016.33793 C221.971113,5016.33793 222.402961,5016.31839 222.795556,5016.27931 C223.18815,5016.24023 223.659257,5016.06437 224.208889,5015.75172 C224.365927,5015.67356 224.994069,5015.34138 226.093333,5014.75517 C227.192598,5014.16896 228.547029,5013.46552 230.156667,5012.64483 C231.766304,5011.82413 233.493694,5010.94483 235.338889,5010.0069 C237.184083,5009.06896 238.911473,5008.17012 240.521111,5007.31034 C242.130749,5006.45057 243.524439,5005.72759 244.702222,5005.14138 C245.880006,5004.55517 246.586665,5004.18391 246.822222,5004.02759 Z" id="✉" fill="#0076BF"></path>
        </g>
    </g>
</svg>