<?xml version="1.0" encoding="UTF-8" standalone="no"?>
<!DOCTYPE svg PUBLIC "-//W3C//DTD SVG 1.1//EN" "http://www.w3.org/Graphics/SVG/1.1/DTD/svg11.dtd">
<svg width="100%" height="100%" viewBox="0 0 109 104" version="1.1" xmlns="http://www.w3.org/2000/svg" xmlns:xlink="http://www.w3.org/1999/xlink" xml:space="preserve" style="fill-rule:evenodd;clip-rule:evenodd;stroke-linejoin:round;stroke-miterlimit:1.41421;">
    <g transform="matrix(1,0,0,1,0,-4e-06)">
        <g transform="matrix(1,0,0,1,0,-0.561996)">
            <path d="M108.457,40.648C108.457,39.039 107.238,38.039 104.805,37.648L72.086,32.891L57.422,3.234C56.598,1.453 55.531,0.562 54.227,0.562C52.926,0.562 51.859,1.453 51.035,3.234L36.367,32.891L3.648,37.648C1.219,38.039 0,39.039 0,40.648C0,41.558 0.543,42.601 1.629,43.773L25.355,66.848L19.75,99.437C19.664,100.047 19.621,100.48 19.621,100.742C19.621,101.652 19.848,102.426 20.305,103.055C20.758,103.687 21.441,104 22.355,104C23.137,104 24.008,103.742 24.965,103.219L54.227,87.836L83.492,103.219C84.406,103.738 85.277,104 86.102,104C86.973,104 87.633,103.687 88.09,103.055C88.543,102.426 88.773,101.652 88.773,100.742C88.773,100.176 88.75,99.742 88.707,99.437L83.102,66.848L106.762,43.773C107.891,42.644 108.457,41.601 108.457,40.648Z" style="fill:rgb(156,188,205);fill-rule:nonzero;"/>
        </g>
    </g>
</svg>
