<?xml version="1.0" encoding="UTF-8" standalone="no"?>
<!DOCTYPE svg PUBLIC "-//W3C//DTD SVG 1.1//EN" "http://www.w3.org/Graphics/SVG/1.1/DTD/svg11.dtd">
<svg width="100%" height="100%" viewBox="0 0 40 40" version="1.1" xmlns="http://www.w3.org/2000/svg" xmlns:xlink="http://www.w3.org/1999/xlink" xml:space="preserve" style="fill-rule:evenodd;clip-rule:evenodd;stroke-linejoin:round;stroke-miterlimit:1.41421;">
    <g transform="matrix(1,0,0,1,0.887283,-2.48144)">
        <path d="M39.113,2.481L39.113,42.481L-0.887,42.481L-0.887,2.481L39.113,2.481ZM39.113,10.096C37.538,10.773 35.964,11.195 34.391,11.366C36.168,10.299 37.37,8.793 37.996,6.848C36.37,7.812 34.636,8.471 32.792,8.827C31.168,7.103 29.172,6.239 26.802,6.239C24.536,6.239 22.603,7.038 21.003,8.638C19.403,10.236 18.606,12.169 18.606,14.435C18.606,15.045 18.672,15.67 18.808,16.314C15.457,16.146 12.314,15.302 9.379,13.789C6.443,12.275 3.952,10.258 1.904,7.736C1.16,9.005 0.788,10.384 0.788,11.873C0.788,13.277 1.118,14.58 1.778,15.782C2.438,16.982 3.327,17.955 4.443,18.699C3.123,18.649 1.888,18.302 0.738,17.659L0.738,17.76C0.738,19.739 1.36,21.477 2.603,22.976C3.847,24.474 5.417,25.417 7.31,25.805C6.6,25.992 5.881,26.085 5.153,26.085C4.68,26.085 4.163,26.042 3.605,25.959C4.13,27.6 5.094,28.949 6.498,30.007C7.903,31.064 9.493,31.61 11.269,31.644C8.292,33.978 4.899,35.147 1.093,35.147C0.365,35.147 -0.296,35.113 -0.887,35.044C2.92,37.498 7.117,38.724 11.701,38.724C14.611,38.724 17.344,38.264 19.898,37.342C22.454,36.42 24.637,35.185 26.446,33.637C28.257,32.088 29.818,30.307 31.13,28.293C32.441,26.281 33.417,24.179 34.06,21.987C34.703,19.795 35.024,17.6 35.024,15.401C35.024,14.927 35.015,14.571 34.999,14.334C36.608,13.167 37.978,11.755 39.113,10.096Z" style="fill:white;"/>
    </g>
</svg>
