<?xml version="1.0" encoding="UTF-8" standalone="no"?>
<!DOCTYPE svg PUBLIC "-//W3C//DTD SVG 1.1//EN" "http://www.w3.org/Graphics/SVG/1.1/DTD/svg11.dtd">
<svg width="100%" height="100%" viewBox="0 0 370 811" version="1.1" xmlns="http://www.w3.org/2000/svg" xmlns:xlink="http://www.w3.org/1999/xlink" xml:space="preserve" xmlns:serif="http://www.serif.com/" style="fill-rule:evenodd;clip-rule:evenodd;stroke-miterlimit:3.864;">
    <rect id="Artboard1" x="0" y="0" width="370" height="811" style="fill:none;"/>
    <clipPath id="_clip1">
        <rect id="Artboard11" serif:id="Artboard1" x="0" y="0" width="370" height="811"/>
    </clipPath>
    <g clip-path="url(#_clip1)">
        <path d="M112.671,609.188L114.143,268.665C114.143,268.665 109.715,205.56 124.471,102.377C132.254,47.86 161.015,7.143 183.721,5.665C206.421,7.143 233.71,47.86 241.499,102.377C256.254,205.56 251.827,268.665 251.827,268.665L253.299,609.188L112.671,609.188Z" style="fill:rgb(189,190,192);fill-rule:nonzero;stroke:rgb(1,1,1);stroke-width:2.84px;"/>
        <path d="M248.364,797.553C252.42,747.137 267.664,746.309 267.664,746.309L292.042,746.309C292.042,746.309 306.192,747.909 310.048,797.553L248.364,797.553" style="fill:rgb(129,131,132);fill-rule:nonzero;"/>
        <clipPath id="_clip2">
            <path d="M267.663,746.316C267.663,746.316 252.424,747.138 248.363,797.555L310.046,797.555C306.196,747.91 292.04,746.316 292.04,746.316L267.663,746.316Z"/>
        </clipPath>
        <g clip-path="url(#_clip2)">
            <path d="M280.705,765.804L280.705,804.782M267.055,764.198L263.633,803.176M293.822,764.998L297.249,803.982" style="fill:none;stroke:rgb(1,1,1);stroke-width:2.84px;"/>
        </g>
        <path d="M248.364,797.553C252.42,747.137 267.664,746.309 267.664,746.309L292.042,746.309C292.042,746.309 306.192,747.909 310.048,797.553L248.364,797.553Z" style="fill:none;stroke:rgb(1,1,1);stroke-width:3.32px;"/>
        <path d="M316.469,770.033L243.547,770.033L251.402,740.694C251.402,740.694 251.497,245.839 251.497,239.35C251.497,232.861 251.497,223.444 253.174,217.883C253.174,217.883 269.247,166.911 271.413,160.422C273.574,153.928 275.269,151.944 280.835,151.944C286.402,151.944 288.085,153.928 290.247,160.422C292.408,166.911 308.485,217.883 308.485,217.883C310.158,223.444 310.158,232.861 310.158,239.35L310.158,740.694L316.469,770.033" style="fill:rgb(224,225,226);fill-rule:nonzero;"/>
        <g>
            <clipPath id="_clip3">
                <path d="M271.413,160.422C269.246,166.916 253.179,217.883 253.179,217.883C251.496,223.444 251.496,232.86 251.496,239.349C251.496,245.838 251.402,740.694 251.402,740.694L243.546,770.033L316.468,770.033L310.157,740.694L310.157,239.349C310.157,232.86 310.157,223.444 308.485,217.883C308.485,217.883 292.407,166.916 290.246,160.422C288.085,153.927 286.402,151.944 280.835,151.944C275.268,151.944 273.574,153.927 271.413,160.422Z"/>
            </clipPath>
            <g clip-path="url(#_clip3)">
                <path d="M272.583,745.513L272.672,236.441C272.672,236.441 271.916,238.252 272.672,225.191C273.36,213.391 275.416,187.941 277.899,165.347C273.427,179.274 263.983,218.458 263.983,218.458C263.566,219.908 263.216,222.469 263.022,226.041C262.816,229.691 262.822,233.447 262.822,236.508L262.822,745.513L258.005,772.441C258.005,772.441 272.583,764.197 272.583,745.513Z" style="fill:rgb(210,211,212);fill-rule:nonzero;stroke:rgb(210,211,212);stroke-width:2.84px;"/>
                <path d="M314.06,698.5L245.16,698.5M314.865,716.178L245.954,716.178M314.865,746.317L245.954,746.317" style="fill:none;stroke:rgb(129,131,132);stroke-width:2.84px;"/>
            </g>
        </g>
        <path d="M316.469,770.033L243.547,770.033L251.402,740.694C251.402,740.694 251.497,245.839 251.497,239.35C251.497,232.861 251.497,223.444 253.174,217.883C253.174,217.883 269.247,166.911 271.413,160.422C273.574,153.928 275.269,151.944 280.835,151.944C286.402,151.944 288.085,153.928 290.247,160.422C292.408,166.911 308.485,217.883 308.485,217.883C310.158,223.444 310.158,232.861 310.158,239.35L310.158,740.694L316.469,770.033Z" style="fill:none;stroke:rgb(1,1,1);stroke-width:2.84px;"/>
        <path d="M223,346.731C223,346.731 237.462,464.47 275.639,523.525C313.812,582.587 354.117,590.309 361.617,642.031C363.228,653.098 364.039,664.553 364.039,664.553L225.423,697.698L215.567,351.559L223,346.731" style="fill:white;fill-rule:nonzero;"/>
        <g>
            <clipPath id="_clip4">
                <path d="M215.568,351.56L225.418,697.699L364.04,664.56C364.04,664.56 363.229,653.099 361.618,642.027C354.113,590.31 313.807,582.583 275.64,523.527C237.457,464.472 222.996,346.733 222.996,346.733L215.568,351.56Z"/>
            </clipPath>
            <g clip-path="url(#_clip4)">
                <path d="M232.647,707.549L368.853,684.844L368.853,613.533L283.675,509.227L260.114,509.227C270.236,528.933 282.903,547.505 298.958,564.544C331.375,598.972 351.547,605.61 356.458,659.066L232.258,688.76L232.647,707.549" style="fill:rgb(1,1,1);fill-rule:nonzero;"/>
                <path d="M227.021,635.425L368.054,635.425L368.054,647.475L227.827,659.736L227.021,635.425Z" style="fill:rgb(1,1,1);fill-rule:nonzero;"/>
                <path d="M276.435,508.857L215.563,508.857" style="fill:none;stroke:rgb(1,1,1);stroke-width:1.42px;"/>
            </g>
        </g>
        <path d="M223,346.731C223,346.731 237.462,464.47 275.639,523.525C313.812,582.587 354.117,590.309 361.617,642.031C363.228,653.098 364.039,664.553 364.039,664.553L225.423,697.698L215.567,351.559L223,346.731Z" style="fill:none;stroke:rgb(1,1,1);stroke-width:2.84px;"/>
        <path d="M291.36,180.593L270.265,180.593M303.41,225.993L258.004,225.993M303.41,266.371L258.004,266.371M303.41,328.854L258.004,328.854M303.41,441.56L258.004,441.56" style="fill:none;stroke:rgb(1,1,1);stroke-width:2.84px;"/>
        <path d="M299.797,539.592L299.797,515.286" style="fill:none;stroke:rgb(1,1,1);stroke-width:7.23px;"/>
        <path d="M296.98,678.429L296.98,642.029" style="fill:none;stroke:rgb(1,1,1);stroke-width:2.84px;"/>
        <path d="M296.98,646.674L296.98,633.519" style="fill:none;stroke:white;stroke-width:2.84px;"/>
        <path d="M118.373,797.553C114.323,747.137 99.073,746.309 99.073,746.309L74.695,746.309C74.695,746.309 60.539,747.909 56.689,797.553L118.373,797.553" style="fill:rgb(129,131,132);fill-rule:nonzero;"/>
        <clipPath id="_clip5">
            <path d="M74.69,746.316C74.69,746.316 60.54,747.91 56.69,797.555L118.374,797.555C114.318,747.138 99.074,746.316 99.074,746.316L74.69,746.316Z"/>
        </clipPath>
        <g clip-path="url(#_clip5)">
            <path d="M86.032,765.804L86.032,804.782M99.688,764.198L103.11,803.176M72.921,764.998L69.488,803.982" style="fill:none;stroke:rgb(1,1,1);stroke-width:2.84px;"/>
        </g>
        <g>
            <path d="M118.373,797.553C114.323,747.137 99.073,746.309 99.073,746.309L74.695,746.309C74.695,746.309 60.539,747.909 56.689,797.553L118.373,797.553Z" style="fill:none;stroke:rgb(1,1,1);stroke-width:3.32px;"/>
            <path d="M50.268,770.033L123.19,770.033L115.329,740.694C115.329,740.694 115.246,245.839 115.246,239.35C115.246,232.861 115.246,223.444 113.568,217.883C113.568,217.883 97.49,166.911 95.318,160.422C93.163,153.928 91.463,151.944 85.902,151.944C80.335,151.944 78.657,153.928 76.496,160.422C74.329,166.911 58.252,217.883 58.252,217.883C56.574,223.444 56.574,232.861 56.574,239.35L56.574,740.694L50.268,770.033" style="fill:rgb(224,225,226);fill-rule:nonzero;"/>
        </g>
        <g>
            <clipPath id="_clip6">
                <path d="M76.496,160.422C74.329,166.916 58.252,217.883 58.252,217.883C56.574,223.444 56.574,232.86 56.574,239.349L56.574,740.694L50.268,770.033L123.19,770.033L115.329,740.694C115.329,740.694 115.246,245.838 115.246,239.349C115.246,232.86 115.246,223.444 113.568,217.883C113.568,217.883 97.49,166.916 95.318,160.422C93.163,153.927 91.463,151.944 85.902,151.944C80.335,151.944 78.657,153.927 76.496,160.422Z"/>
            </clipPath>
            <g clip-path="url(#_clip6)">
                <path d="M94.154,745.513L94.06,236.441C94.06,236.441 94.821,238.252 94.06,225.191C93.377,213.391 91.321,187.941 88.843,165.347C93.31,179.274 102.76,218.458 102.76,218.458C103.171,219.908 103.527,222.469 103.721,226.041C103.921,229.691 103.915,233.447 103.915,236.508L103.915,745.513L108.738,772.441C108.738,772.441 94.154,764.197 94.154,745.513Z" style="fill:rgb(210,211,212);fill-rule:nonzero;stroke:rgb(210,211,212);stroke-width:2.84px;"/>
                <path d="M52.672,698.5L121.583,698.5M51.867,716.178L120.783,716.178M51.867,746.317L120.783,746.317" style="fill:none;stroke:rgb(129,131,132);stroke-width:2.84px;"/>
            </g>
        </g>
        <path d="M50.268,770.033L123.19,770.033L115.329,740.694C115.329,740.694 115.246,245.839 115.246,239.35C115.246,232.861 115.246,223.444 113.568,217.883C113.568,217.883 97.49,166.911 95.318,160.422C93.163,153.928 91.463,151.944 85.902,151.944C80.335,151.944 78.657,153.928 76.496,160.422C74.329,166.911 58.252,217.883 58.252,217.883C56.574,223.444 56.574,232.861 56.574,239.35L56.574,740.694L50.268,770.033Z" style="fill:none;stroke:rgb(1,1,1);stroke-width:2.84px;"/>
        <path d="M146.693,346.731C146.693,346.731 132.238,464.47 94.06,523.525C55.882,582.587 15.582,590.309 8.077,642.031C6.465,653.098 5.665,664.553 5.665,664.553L144.277,697.698L154.132,351.559L146.693,346.731" style="fill:white;fill-rule:nonzero;"/>
        <g>
            <clipPath id="_clip7">
                <path d="M94.063,523.527C55.885,582.583 15.585,590.31 8.074,642.027C6.463,653.099 5.668,664.56 5.668,664.56L144.279,697.699L154.135,351.56L146.69,346.733C146.69,346.733 132.24,464.472 94.063,523.527Z"/>
            </clipPath>
            <g clip-path="url(#_clip7)">
                <path d="M137.058,707.549L0.847,684.844L0.847,613.533L86.03,509.227L109.58,509.227C99.469,528.933 86.797,547.505 70.741,564.544C38.33,598.972 18.163,605.61 13.241,659.066L137.435,688.76L137.058,707.549" style="fill:rgb(1,1,1);fill-rule:nonzero;"/>
                <path d="M142.678,635.425L1.65,635.425L1.65,647.475L141.878,659.736L142.678,635.425Z" style="fill:rgb(1,1,1);fill-rule:nonzero;"/>
                <path d="M93.259,508.857L154.131,508.857" style="fill:none;stroke:rgb(1,1,1);stroke-width:1.42px;"/>
            </g>
        </g>
        <path d="M146.693,346.731C146.693,346.731 132.238,464.47 94.06,523.525C55.882,582.587 15.582,590.309 8.077,642.031C6.465,653.098 5.665,664.553 5.665,664.553L144.277,697.698L154.132,351.559L146.693,346.731Z" style="fill:none;stroke:rgb(1,1,1);stroke-width:2.84px;"/>
        <path d="M75.377,180.593L96.472,180.593M63.333,225.993L108.733,225.993M63.333,266.371L108.733,266.371M63.333,328.854L108.733,328.854M63.333,441.56L108.733,441.56" style="fill:none;stroke:rgb(1,1,1);stroke-width:2.84px;"/>
        <path d="M66.946,539.592L66.946,515.286" style="fill:none;stroke:rgb(1,1,1);stroke-width:7.23px;"/>
        <path d="M143.482,696.894L227.059,697.26L226.182,435.888C226.182,435.888 228.815,387.449 220.048,308.255C215.415,266.416 198.332,235.16 184.843,234.027C171.354,235.16 155.143,266.416 150.509,308.255C141.748,387.449 144.37,435.888 144.37,435.888L143.482,696.894" style="fill:white;fill-rule:nonzero;"/>
        <g>
            <clipPath id="_clip8">
                <path d="M150.507,308.255C141.746,387.455 144.374,435.888 144.374,435.888L143.485,696.894L227.057,697.26L226.179,435.888C226.179,435.888 228.818,387.455 220.046,308.255C215.418,266.416 198.335,235.16 184.84,234.022C171.352,235.16 155.14,266.416 150.507,308.255Z"/>
            </clipPath>
            <g clip-path="url(#_clip8)">
                <path d="M151.728,241.257C151.728,230.935 166.255,222.574 184.172,222.574C202.094,222.574 216.622,230.935 216.622,241.257C216.622,251.579 202.094,259.946 184.172,259.946C166.255,259.946 151.728,251.579 151.728,241.257" style="fill:rgb(1,1,1);fill-rule:nonzero;"/>
                <path d="M151.728,241.26C151.728,251.573 166.267,259.946 184.175,259.946C202.083,259.946 216.622,251.573 216.622,241.26C216.622,230.947 202.083,222.574 184.175,222.574C166.267,222.574 151.728,230.947 151.728,241.26Z" style="fill:none;stroke:rgb(1,1,1);stroke-width:1.42px;"/>
            </g>
        </g>
        <path d="M143.482,696.894L227.059,697.26L226.182,435.888C226.182,435.888 228.815,387.449 220.048,308.255C215.415,266.416 198.332,235.16 184.843,234.027C171.354,235.16 155.143,266.416 150.509,308.255C141.748,387.449 144.37,435.888 144.37,435.888L143.482,696.894Z" style="fill:none;stroke:rgb(1,1,1);stroke-width:2.84px;"/>
        <path d="M202.607,328.944C200.412,318.778 192.095,316.005 184.084,317.733C176.001,316.061 166.957,318.533 164.718,328.944L156.395,327.15C159.423,313.1 171.24,307.183 184.045,309.061C196.751,307.139 207.973,313.405 210.929,327.15L202.607,328.944Z" style="fill:rgb(147,149,152);fill-rule:nonzero;stroke:rgb(1,1,1);stroke-width:1.42px;"/>
        <path d="M188.441,757.772C188.441,757.772 194.863,723.616 195.669,683.244C196.469,642.872 189.685,615.949 189.685,615.949L184.063,615.949C184.063,615.949 177.641,642.872 178.441,683.244C179.247,723.616 188.441,757.772 188.441,757.772" style="fill:white;fill-rule:nonzero;"/>
        <clipPath id="_clip9">
            <path d="M184.063,615.949C184.063,615.949 177.64,642.872 178.44,683.244C179.246,723.616 188.446,757.772 188.446,757.772C188.446,757.772 194.863,723.616 195.668,683.244C196.468,642.872 189.685,615.949 189.685,615.949L184.063,615.949Z"/>
        </clipPath>
        <g clip-path="url(#_clip9)">
            <path d="M187.28,766.602L187.28,605.29L198.736,605.29L198.736,767.413L187.28,766.602Z" style="fill:rgb(210,211,212);fill-rule:nonzero;stroke:rgb(1,1,1);stroke-width:1.42px;"/>
        </g>
        <path d="M188.441,757.772C188.441,757.772 194.863,723.616 195.669,683.244C196.469,642.872 189.685,615.949 189.685,615.949L184.063,615.949C184.063,615.949 177.641,642.872 178.441,683.244C179.247,723.616 188.441,757.772 188.441,757.772Z" style="fill:none;stroke:rgb(1,1,1);stroke-width:1.42px;"/>
        <path d="M182.435,735.932C183.119,690.449 169.752,689.665 169.752,689.665L154.652,689.665C154.652,689.665 142.119,690.899 142.802,736.382L182.435,735.932" style="fill:rgb(1,1,1);fill-rule:nonzero;"/>
        <clipPath id="_clip10">
            <path d="M154.652,689.666C154.652,689.666 142.118,690.899 142.802,736.383L182.435,735.933C183.118,690.449 169.752,689.666 169.752,689.666L154.652,689.666Z"/>
        </clipPath>
        <g clip-path="url(#_clip10)">
            <path d="M135.457,730.173L184.879,730.173M135.457,721.662L184.879,721.662M135.457,713.145L184.879,713.145M135.457,704.634L184.879,704.634" style="fill:none;stroke:rgb(129,131,132);stroke-width:2.84px;"/>
        </g>
        <path d="M182.435,735.932C183.119,690.449 169.752,689.665 169.752,689.665L154.652,689.665C154.652,689.665 142.119,690.899 142.802,736.382L182.435,735.932Z" style="fill:none;stroke:rgb(1,1,1);stroke-width:2.84px;"/>
        <path d="M231.849,735.932C232.538,690.449 219.166,689.665 219.166,689.665L204.072,689.665C204.072,689.665 191.538,690.899 192.222,736.382L231.849,735.932" style="fill:rgb(1,1,1);fill-rule:nonzero;"/>
        <clipPath id="_clip11">
            <path d="M204.074,689.666C204.074,689.666 191.54,690.899 192.224,736.383L231.846,735.933C232.54,690.449 219.163,689.666 219.163,689.666L204.074,689.666Z"/>
        </clipPath>
        <g clip-path="url(#_clip11)">
            <path d="M184.877,730.173L234.299,730.173M184.877,721.662L234.299,721.662M184.877,713.145L234.299,713.145M184.877,704.634L234.299,704.634" style="fill:none;stroke:rgb(129,131,132);stroke-width:2.84px;"/>
        </g>
    </g>
</svg>
