<svg viewBox="0 0 121 26" xmlns="http://www.w3.org/2000/svg" xml:space="preserve" style="fill-rule:evenodd;clip-rule:evenodd;stroke-linejoin:round;stroke-miterlimit:2"><path d="M20.034 21.258a.888.888 0 0 0 .063-.012l-1.757 4.755h-6.972l1.698-4.071h.062c.471 0 3.654-.027 6.911-.684l-.005.012Zm94.88-11.541c0 5.375-4.248 8.834-11.247 8.834h-4.211v7.45H80.438l-7.674-10.117v10.117H54.419l-2.014-5.552a26.902 26.902 0 0 0-4.597-.41c-2.411 0-4.549.377-4.669.398l-2.067 5.564h-9.353l-1.525-4.225a18.626 18.626 0 0 1 4.923 2.028l.388-.955c-1.412-.839-5.359-2.837-11.021-2.837-4.383 0-7.169 1.069-11.721 1.069-7.396 0-12.496-3.6-12.763-3.779l1.966-4.803c.509.333 5.426 3.507 11.089 3.507.962 0 1.787-.049 2.554-.126L21.75.879h10.207l6.077 15.754L44.467.879h10.221l8.944 23.185V.879h12.219c8.309 0 12.379 3.814 12.379 8.838 0 5.029-3.957 6.969-5.056 7.467l7.158 7.786V.879h13.335c7.373 0 11.247 3.733 11.247 8.838Zm-87.001 5.741-2.804-7.735-2.748 7.409c.466-.018.962-.03 1.499-.03 2.228 0 3.875.322 4.053.356Zm22.693-.158-2.798-7.481-2.849 7.481c.131-.016 1.664-.195 2.849-.195 1.265 0 2.662.173 2.798.195Zm28.237-5.583c0-2.494-1.256-4.697-4.737-4.697h-1.342v9.375h1.342c3.133 0 4.737-1.778 4.737-4.678Zm26.682 0c0-2.733-1.45-4.697-4.216-4.697h-1.853v9.375h1.853c2.598 0 4.216-1.758 4.216-4.678Z" style="fill:#c23934" transform="translate(0 -.88)"/><path d="M3.501.879c1.391 0 2.5 1.131 2.5 2.545 0 1.436-1.109 2.556-2.514 2.556-1.389 0-2.52-1.12-2.52-2.556A2.529 2.529 0 0 1 3.487.879h.014Zm-.014.396c-1.118 0-2.035.962-2.035 2.149 0 1.209.917 2.16 2.049 2.16 1.129.012 2.034-.951 2.034-2.148 0-1.199-.905-2.161-2.034-2.161h-.014Zm-.474 3.63h-.452V2.066c.237-.033.463-.067.804-.067.429 0 .712.09.882.214.168.124.258.317.258.589 0 .373-.248.599-.552.69v.022c.246.046.418.271.474.69.069.442.136.611.182.701h-.476c-.069-.09-.136-.349-.192-.723-.067-.363-.249-.498-.611-.498h-.317v1.221Zm0-1.571h.329c.371 0 .689-.136.689-.487 0-.248-.181-.498-.689-.498-.147 0-.25.013-.329.023v.962Z" style="fill:#c23934" transform="translate(114 -.88)"/></svg>