<svg xmlns="http://www.w3.org/2000/svg" xml:space="preserve" height="74.661" viewBox="0 0 221.698 74.661" width="221.7"><defs><clipPath id="e" clipPathUnits="userSpaceOnUse"><path d="M37.412 1013.1h28.666v-28.665H37.412v28.665z"/></clipPath><clipPath id="f" clipPathUnits="userSpaceOnUse"><path d="M37.492 1000.2c-.83-7.873 4.883-14.922 12.754-15.752a14.11 14.11 0 0 1 1.43-.079h.172c7.206.044 13.378 5.5 14.15 12.835.829 7.873-4.883 14.924-12.754 15.753-.508.053-1.013.079-1.514.079-7.243 0-13.464-5.472-14.238-12.836"/></clipPath><clipPath id="a" clipPathUnits="userSpaceOnUse"><path d="M-13461 14257h26763v-26762h-26763v26762z"/></clipPath><clipPath id="b" clipPathUnits="userSpaceOnUse"><path d="m36.992 1017 32.97-3.465-3.464-32.967-32.97 3.464L36.992 1017z"/></clipPath><clipPath id="c" clipPathUnits="userSpaceOnUse"><path d="m36.992 1017 32.97-3.464-3.464-32.968-32.97 3.464L36.992 1017z"/></clipPath><clipPath id="h" clipPathUnits="userSpaceOnUse"><path d="m36.992 1017 32.97-3.464-3.464-32.968-32.97 3.464L36.992 1017z"/></clipPath><clipPath id="j" clipPathUnits="userSpaceOnUse"><path d="M37.536 1013.9h27.097v-27.097H37.536v27.097z"/></clipPath><clipPath id="k" clipPathUnits="userSpaceOnUse"><path d="M50.98 1013.9c-6.809-.044-12.64-5.201-13.368-12.132-.782-7.441 4.615-14.108 12.055-14.89 7.442-.781 14.111 4.617 14.891 12.057.784 7.442-4.618 14.108-12.06 14.89-.45.047-.896.072-1.34.075h-.178z"/></clipPath><clipPath id="l" clipPathUnits="userSpaceOnUse"><path d="m37.141 1017.6 31.164-3.275-3.274-31.16-31.164 3.274 3.274 31.16z"/></clipPath><clipPath id="n" clipPathUnits="userSpaceOnUse"><path d="M36.389 1015.5h28.934v-28.934H36.389v28.934z"/></clipPath><clipPath id="o" clipPathUnits="userSpaceOnUse"><path d="M37.61 1001.8c-.782-7.441 4.615-14.108 12.057-14.891 7.44-.78 14.11 4.618 14.888 12.057.785 7.442-4.617 14.107-12.057 14.89-.481.051-.958.075-1.432.075-6.847 0-12.725-5.172-13.456-12.131"/></clipPath><clipPath id="p" clipPathUnits="userSpaceOnUse"><path d="M36.389 1015.5h28.934v-28.934H36.389v28.934z"/></clipPath><clipPath id="q" clipPathUnits="userSpaceOnUse"><path d="M50.762 1015.5a14.44 14.44 0 0 1-5.106-.97c-5.722-2.206-9.241-7.652-9.266-13.436v-.133c.008-1.705.321-3.438.971-5.124 2.193-5.694 7.594-9.207 13.344-9.27h.313a14.43 14.43 0 0 1 5.037.97c5.735 2.209 9.257 7.673 9.269 13.469v.021a14.437 14.437 0 0 1-.971 5.204c-2.2 5.716-7.635 9.234-13.411 9.269h-.18z"/></clipPath><clipPath id="r" clipPathUnits="userSpaceOnUse"><path d="m23.51 1013.2 39.487 15.208 15.207-39.486-39.487-15.208L23.51 1013.2z"/></clipPath><clipPath id="t" clipPathUnits="userSpaceOnUse"><path d="M41.988 1009.5h18.2v-18.204h-18.2v18.204z"/></clipPath><clipPath id="u" clipPathUnits="userSpaceOnUse"><path d="M48.055 1009.5v-6.068h-6.067v-6.065h6.067v-6.068h6.064v6.068h6.069v6.064l-6.069.001.002 6.068h-6.066z"/></clipPath><clipPath id="v" clipPathUnits="userSpaceOnUse"><path d="M60.188 1009.5v-18.201H41.987v18.201h18.201z"/></clipPath><radialGradient id="d" gradientUnits="userSpaceOnUse" cy="0" cx="0" gradientTransform="scale(14.3325 -14.3325) rotate(5.999 666.79 -.39)" r="1"><stop stop-color="#fff" offset="0"/><stop stop-color="#fff" offset=".7"/><stop stop-opacity="0" stop-color="#fff" offset="1"/></radialGradient><radialGradient id="i" gradientUnits="userSpaceOnUse" cy="0" cx="0" gradientTransform="scale(14.3325 -14.3325) rotate(5.999 666.79 -.39)" r="1"><stop stop-color="#231f20" offset="0"/><stop stop-color="#231f20" offset=".7"/><stop stop-color="#231f20" offset="1"/></radialGradient><radialGradient id="m" fx="-.004" fy="-.516" gradientUnits="userSpaceOnUse" cy="0" cx="0" gradientTransform="matrix(13.674 -1.4368 -1.4435 -13.737 51.144 1000.6)" r="1"><stop stop-color="#fff" offset="0"/><stop stop-color="#fff" offset=".059"/><stop stop-color="#fff" offset=".549"/><stop stop-color="#f1f1f1" offset=".672"/><stop stop-color="#e4e4e4" offset=".847"/><stop stop-color="#cac9ca" offset=".969"/><stop stop-color="#fff" offset=".999"/><stop stop-color="#fff" offset="1"/></radialGradient><radialGradient id="s" fx="-.004" fy="-.516" gradientUnits="userSpaceOnUse" cy="0" cx="0" gradientTransform="matrix(13.697 5.2752 5.2995 -13.76 50.825 1001.2)" r="1"><stop stop-color="#fff" offset="0"/><stop stop-color="#fff" offset=".059"/><stop stop-color="#fff" offset=".649"/><stop stop-color="#f1f1f1" offset=".798"/><stop stop-color="#e4e4e4" offset=".914"/><stop stop-color="#cac9ca" offset=".939"/><stop stop-color="#d1d0d0" offset=".954"/><stop stop-color="#d1d0d0" offset=".957"/><stop stop-color="#fff" offset=".98"/><stop stop-color="#fff" offset="1"/></radialGradient><mask id="g" height="1" width="1" y="0" x="0" maskUnits="userSpaceOnUse"><g clip-path="url(#a)"><g clip-path="url(#b)"><g clip-path="url(#c)"><path fill="url(#d)" d="m36.992 1017 32.97-3.465-3.464-32.967-32.97 3.464L36.992 1017z"/></g></g></g></mask></defs><g clip-path="url(#e)" transform="matrix(2.461 0 0 -2.461 -91.511 2496.412)"><g clip-path="url(#f)"><g clip-path="url(#h)" mask="url(#g)"><path d="M37.492 1000.2c-.83-7.873 4.883-14.922 12.754-15.752a14.11 14.11 0 0 1 1.43-.079h.172c7.206.044 13.378 5.5 14.15 12.835.829 7.873-4.883 14.924-12.754 15.753-.508.053-1.013.079-1.514.079-7.243 0-13.464-5.472-14.238-12.836" fill="url(#i)"/></g></g></g><path d="M67.366 37.947c-1.92 18.308-18.33 31.595-36.644 29.67-18.31-1.922-31.594-18.33-29.67-36.642C2.977 12.661 19.377-.619 37.69 1.301c18.312 1.924 31.607 18.332 29.677 36.646" fill="#fff"/><g opacity=".8" clip-path="url(#j)" transform="matrix(2.461 0 0 -2.461 -91.511 2496.412)"><g clip-path="url(#k)"><g clip-path="url(#l)"><path d="M50.98 1013.9c-6.809-.044-12.64-5.201-13.368-12.132-.782-7.441 4.615-14.108 12.055-14.89 7.442-.781 14.111 4.617 14.891 12.057.784 7.442-4.618 14.108-12.06 14.89-.45.047-.896.072-1.34.075h-.178z" fill="url(#m)"/></g></g></g><g opacity=".77" clip-path="url(#n)" transform="matrix(2.461 0 0 -2.461 -91.511 2496.412)"><g clip-path="url(#o)"><g clip-path="url(#p)"><g clip-path="url(#q)" opacity=".8"><g clip-path="url(#r)"><path d="M50.762 1015.5a14.44 14.44 0 0 1-5.106-.97c-5.722-2.206-9.241-7.652-9.266-13.436v-.133c.008-1.705.321-3.438.971-5.124 2.193-5.694 7.594-9.207 13.344-9.27h.313a14.43 14.43 0 0 1 5.037.97c5.735 2.209 9.257 7.673 9.269 13.469v.021a14.437 14.437 0 0 1-.971 5.204c-2.2 5.716-7.635 9.234-13.411 9.269h-.18z" fill="url(#s)"/></g></g></g></g></g><g clip-path="url(#t)" transform="matrix(2.461 0 0 -2.461 -91.511 2496.412)" fill="#ed1b2e"><g clip-path="url(#u)"><g clip-path="url(#v)"><path d="M48.055 1009.5v-6.068h-6.067v-6.065h6.067v-6.068h6.064v6.068h6.069v6.064l-6.069.001.002 6.068h-6.066z"/></g></g></g><path d="M93.599 12.29c-.089.237-7.145 18.714-7.337 19.208h6.11l.912-2.872h6.963s.825 2.634.896 2.872h6.114c-.187-.49-7.07-18.968-7.16-19.207H93.6zm70.34.024v3.715h5.583v-3.715h-5.584zm15.192 4.434c-2.404 0-4.369.846-5.683 2.215-1.243 1.277-1.957 3.271-1.957 5.368 0 4.558 2.87 7.69 7.31 7.69 3.14 0 5.009-1.53 5.806-2.35.623-.62 1.024-1.313 1.353-2.006l-4.033-2.211c-.29.925-.973 2.464-2.661 2.464-1.189 0-2.604-.596-2.604-3.426 0-2.463 1.049-3.991 2.742-3.991 1.21 0 2.072.728 2.515 2.242.357-.2 3.738-2.114 4.034-2.284a7.583 7.583 0 0 0-1.108-1.412c-2.114-2.146-4.838-2.3-5.714-2.3zm-36.604.08c-4.52 0-7.556 3.151-7.556 7.557 0 1.998.663 3.83 1.877 5.172 1.363 1.506 3.341 2.491 5.706 2.491 3.172 0 5.63-1.526 7.29-3.937-.378-.155-3.992-1.659-4.268-1.777-.603 1.304-1.54 1.938-2.722 1.938-.507 0-1.237-.123-1.823-.711-.67-.672-.705-1.377-.734-2.007l-.008-.216h9.844c-.052-2.106-.135-4.355-2.084-6.28-1.743-1.687-3.964-2.23-5.522-2.23zm52.831.12c-2.129 0-3.755.418-4.968 1.046-1.831.964-2.232 2.414-2.434 3.637.416 0 4.598-.123 4.864-.13.227-1.12.763-1.489 2.023-1.489 1.693 0 2.058.716 2.088 1.789l.008.15-.143.038c-.856.249-1.459.387-3.014.604-2.355.31-3.91.512-5.164 1.792-.758.758-1.142 1.727-1.142 2.883 0 2.102 1.287 4.542 4.895 4.542 2.542 0 3.82-.889 4.506-1.362l.327-.226v1.284h4.98c-.266-.443-.327-.793-.327-1.573v-7.852c0-.822 0-2.064-.8-3.088-.96-1.235-2.878-2.046-5.698-2.046zm19 .096c-2.949 0-3.845 1.428-4.33 2.115l-.37.523v-2.28h-4.921v14.096h5.222v-7.521c0-.62.024-2.5 2.11-2.5 2.095 0 2.02 1.678 2.02 2.308v7.714h5.222v-8.91c0-.758-.002-2.967-1.358-4.291-.87-.817-2.06-1.254-3.595-1.254zm-96.149.042c-2.901 0-3.638 1.381-4.083 2.1l-.377.615V17.44h-4.976v14.07h5.222v-7.664l.008-.092c.022-.478.055-1.072.592-1.611.396-.399.885-.627 1.542-.627.83 0 1.732.402 1.988 1.542.055.282.08.564.08.838v7.602h5.222v-7.521c0-.298 0-.916.293-1.465.354-.667.915-1.008 1.865-1.008 2.146 0 2.068 1.765 2.068 2.611v7.383h5.219l.004-9.094h-.004c-.027-1.3-.056-2.768-1.277-3.964-.856-.862-2.237-1.354-3.78-1.354-3.347 0-4.278 1.776-4.541 2.369l-.152.366-.185-.354c-.364-.7-.857-1.505-2.634-2.061a7.02 7.02 0 0 0-2.088-.32zm-21.387.02 2.234 7.413h-4.525l2.291-7.414zm65.229.003c-1.95 0-3.123.366-4.58 1.665l-.316.281v-1.734h-5.006v14.178h5.199v-6.653c.024-.888.091-3.25 3.556-3.25.32 0 .834.025 1.146.04v-4.527zm1.888.3v14.043h5.583V17.41h-5.583zm-21.273 2.792c.827 0 1.789.49 2.057 1.584.04.158.05.216.065.366l.043.426h-4.526l.057-.246c.13-.61.478-2.13 2.304-2.13zm54.242 4.657v.269c0 .492 0 .986-.288 1.619-.537 1.181-1.935 1.638-2.757 1.638-1.152 0-1.577-.633-1.577-1.123 0-.22.09-.917 1.261-1.384v-.008h.012c.44-.148.878-.248 1.304-.346 0 0 .139-.035.146-.035.546-.152 1.076-.342 1.588-.519l.311-.111zM153.118 37.1c-2.96 0-5.472 1.147-7.264 3.242-1.585 1.853-2.495 4.563-2.495 7.171 0 2.584.838 5.144 2.357 6.918 1.755 2.05 4.316 3.169 7.402 3.169 2.902 0 5.504-1.026 7.318-2.815.851-.85 1.451-1.942 1.9-2.784-.318-.153-4.546-2.201-4.88-2.361-.923 2.535-2.742 3.257-4.061 3.257-1.457 0-2.572-.605-3.31-1.796-.609-.982-.935-2.345-.935-3.937 0-.746 0-3.017 1.5-4.457.406-.409 1.3-1.092 2.714-1.092 2.59 0 3.656 2.167 4.138 3.291.325-.162 4.484-2.24 4.799-2.395-.37-.677-.886-1.564-1.627-2.327-1.904-1.961-4.593-3.084-7.556-3.084zm-66.854.685V57h5.706v-6.956h2.1L97.906 57h6.291l-4.61-7.649-.116-.188.335-.135c.846-.34 1.581-.626 2.28-1.376.938-.955 1.415-2.283 1.415-3.8 0-1.939-.842-4.48-3.2-5.487-1.24-.519-3.141-.58-4.66-.58h-9.379zm44.487.023v6.325l-.373-.33c-.569-.515-1.421-1.293-3.407-1.293-2.963 0-5.957 2.332-5.957 7.126 0 4.572 2.412 7.714 6.145 7.714.78 0 1.452-.111 2.057-.343.76-.29 1.016-.575 1.365-.976l.331-.381v1.346h5.057V37.809h-5.218zm-38.78 3.807h2.692c.942 0 3.153.012 3.153 2.33 0 2.365-2.272 2.342-3.126 2.342H91.97v-4.672zm90.791.707c-2.53-.012-4.63.774-6.071 2.211-1.347 1.336-2.058 3.35-2.058 5.537 0 1.97.653 3.904 1.835 5.176 1.368 1.477 3.44 2.296 5.994 2.296 2.52 0 4.621-.751 6.068-2.1 1.403-1.307 2.142-3.29 2.142-5.456 0-2.117-.82-4.373-2.142-5.645-.617-.583-2.418-1.987-5.768-2.019zm15.797.016c-2.112 0-3.739.576-4.841 1.622-.862.84-1.358 2.112-1.358 3.227 0 2.857 2.44 3.648 3.753 4.03 1.263.371 2.416.558 2.91.642.55.078 1.577.216 1.577 1.038 0 .73-.836 1.057-1.66 1.057-.756 0-1.51-.154-2.304-.476a6.813 6.813 0 0 1-2.18-1.473c-.23.209-2.608 2.396-2.888 2.65 1.164.94 3.501 2.883 7.429 2.883 4.489 0 6.499-2.544 6.499-5.214 0-1.528-.748-2.845-2.104-3.576-.662-.345-1.253-.479-3.734-1.042l-.107-.027c-1.851-.458-2.296-.553-2.296-1.138 0-.35.18-.927 1.388-.927 1.487 0 2.817.808 3.757 1.396.187-.17 2.515-2.297 2.803-2.557-.677-.51-1.732-1.315-3.507-1.738a13.778 13.778 0 0 0-3.137-.377zm14.777 0c-2.116 0-3.745.576-4.845 1.622-.86.84-1.353 2.112-1.353 3.227 0 2.857 2.44 3.648 3.749 4.03 1.263.371 2.416.558 2.91.642.552.078 1.57.216 1.57 1.038 0 .73-.827 1.057-1.654 1.057-.753 0-1.508-.154-2.303-.476a6.924 6.924 0 0 1-2.184-1.473c-.229.209-2.604 2.396-2.884 2.65 1.164.94 3.498 2.883 7.425 2.883 4.491 0 6.499-2.544 6.499-5.214 0-1.528-.746-2.845-2.1-3.576-.662-.345-1.253-.479-3.733-1.042l-.112-.027c-1.85-.458-2.292-.553-2.292-1.138 0-.35.184-.927 1.392-.927 1.484 0 2.808.808 3.753 1.396.185-.17 2.517-2.297 2.807-2.557-.679-.51-1.739-1.315-3.51-1.738a13.761 13.761 0 0 0-3.134-.377zm-101.389.015c-4.518 0-7.556 3.146-7.556 7.556 0 1.996.666 3.828 1.877 5.172 1.365 1.504 3.336 2.488 5.706 2.488 3.172 0 5.632-1.522 7.29-3.934-.38-.157-3.992-1.658-4.268-1.776-.603 1.302-1.538 1.938-2.722 1.938-.507 0-1.233-.124-1.819-.708-.674-.674-.707-1.382-.734-2.015l-.008-.211h9.84c-.05-2.107-.133-4.359-2.084-6.283-1.738-1.689-3.962-2.227-5.522-2.227zm61.687.27c-1.947.011-3.12.365-4.576 1.664l-.316.28v-1.726h-5.002v14.182h5.195v-6.668c.027-.886.094-3.25 3.557-3.25.32 0 .832.02 1.142.043v-4.526zm-61.553 3.102c.832 0 1.792.49 2.065 1.585.037.157.045.216.058.361l.046.427h-4.522l.05-.246c.135-.608.48-2.127 2.303-2.127zm70.515.346c.75-.022 1.366.192 1.834.643.642.625.969 1.678.969 3.137 0 3.28-1.51 3.969-2.773 3.969-2.433 0-2.8-2.45-2.8-3.915 0-1.403.36-3.77 2.77-3.834zm-54.077.246c.735 0 1.739.465 2.137 1.762.19.566.227 1.137.227 1.826 0 .734-.002 2.088-.792 2.907-.435.43-1 .68-1.546.68a2.129 2.129 0 0 1-1.553-.657c-.544-.61-.817-1.56-.817-2.908 0-.642.052-1.182.165-1.7v-.003l.004-.004c.492-1.765 1.804-1.907 2.196-1.907z" fill="#6d6e70"/></svg>