<svg viewBox="0 0 145 42" xmlns="http://www.w3.org/2000/svg" xml:space="preserve" style="fill-rule:evenodd;clip-rule:evenodd;stroke-linejoin:round;stroke-miterlimit:2"><path d="M36.876 26.845c2.246-1.677 4.024-4.255 4.002-8.108v-.107c.01-3.26-1.338-6.056-3.739-7.939-2.396-1.891-5.769-2.895-9.835-2.895H8.578v40.19h19.165c4.447-.002 8.217-.891 10.949-2.794 2.74-1.898 4.34-4.887 4.322-8.641v-.11c.051-4.849-2.425-7.803-6.138-9.596Zm-6.211-6.684c-.025 1.174-.406 1.789-1.215 2.322-.818.52-2.187.825-3.955.822h-6.869V17.02h7.416c1.664-.003 2.861.344 3.574.857.703.521 1.033 1.149 1.049 2.174v.11ZM18.628 32.147h8.84c2.059-.003 3.438.392 4.221.949.775.563 1.096 1.236 1.113 2.304v.109c-.021 1.187-.4 1.844-1.182 2.391-.793.537-2.118.865-3.877.86h-9.115v-6.613Z" style="fill:#ef4024;fill-rule:nonzero" transform="translate(-8.578 -7.137)"/><path d="M70.309 26.845c2.247-1.677 4.024-4.255 4.001-8.108v-.107c.01-3.26-1.338-6.056-3.738-7.939-2.396-1.891-5.769-2.895-9.836-2.895H42.011v40.19h19.164c4.449-.002 8.219-.891 10.951-2.794 2.738-1.898 4.34-4.887 4.319-8.641v-.11c.054-4.849-2.425-7.803-6.136-9.596Zm-6.212-6.684c-.023 1.174-.404 1.789-1.215 2.322-.82.52-2.186.825-3.953.819h-6.871V17.02h7.419c1.661-.003 2.861.344 3.571.857.703.521 1.031 1.149 1.049 2.174v.11ZM66.235 35.4v.109c-.021 1.187-.4 1.844-1.185 2.391-.792.537-2.116.865-3.876.86h-9.117v-6.613h8.844c2.057-.003 3.437.392 4.22.949.773.563 1.097 1.236 1.114 2.304Z" style="fill:#ef4024;fill-rule:nonzero" transform="translate(-8.578 -7.137)"/><path d="M106.662 13.533c-3.769-3.592-9.108-5.74-15.346-5.739H75.442v40.192h15.885c6.236 0 11.572-2.18 15.338-5.799 3.771-3.614 5.957-8.662 5.955-14.298v-.108c.002-5.634-2.185-10.657-5.958-14.248Zm-4.694 14.357v.109c-.051 6.354-4.176 10.488-10.651 10.541H85.71V17.239h5.606c6.462.048 10.603 4.292 10.652 10.651Z" style="fill:#ef4024;fill-rule:nonzero" transform="translate(-8.578 -7.137)"/><path d="M147.388 13.176c-3.775-3.74-9.101-6.042-15.25-6.039-6.146-.003-11.502 2.327-15.303 6.095-3.801 3.764-6.053 8.964-6.053 14.659V28c-.002 5.692 2.223 10.867 5.998 14.605 3.773 3.739 9.103 6.041 15.249 6.039h.009c6.146 0 11.498-2.33 15.295-6.094 3.801-3.766 6.055-8.965 6.053-14.66v-.107c.002-5.693-2.223-10.867-5.998-14.607Zm-25.955 14.606c.03-6.146 4.321-11.022 10.597-11.036 6.269.008 10.685 5.01 10.706 11.143v.109c-.027 6.144-4.32 11.02-10.598 11.033-6.267-.008-10.684-5.009-10.705-11.143v-.106Z" style="fill:#ef4024;fill-rule:nonzero" transform="translate(-8.578 -7.137)"/></svg>