<svg xmlns="http://www.w3.org/2000/svg" viewBox="0 0 226 127"><path d="M146.208 28.165a5.264 5.264 0 0 0-1.744-1.484 4.808 4.808 0 0 0 .264-1.573c0-1.409-.478-3.347-2.325-4.516a5.452 5.452 0 0 0-2.184-.8 4.122 4.122 0 0 0 1.276-1.78c.198-.535.35-1.162.35-1.9 0-2.007-.982-3.724-2.12-4.677-1.395-1.168-3.225-1.664-4.68-1.664-2.907 0-4.718 1.896-4.718 3.495 0 1.6 1.34 2.476 2.44 2.476 1.099 0 2.053-.703 2.053-1.95 0-.78-.447-.697-.55-.697-.333 0-.246.493-.157.787.167.55-.843 1.017-1.286 1.017-.745 0-1.406-.727-1.406-1.438 0-.605.425-1.323 1.228-1.837a3.774 3.774 0 0 1 2.067-.615c2.181 0 5.95 1.448 5.95 5.173 0 1.868-1.26 2.95-2.63 3.483-1.228.481-2.552.51-3.07.51-1.23 0-2.956-.192-4.88-.989-2.028-.837-4.273-2.34-6.466-4.84 0-.003-.004-.006-.004-.006.91-1.149 1.422-2.66 1.422-4.362 0-1.927-.832-3.578-2.005-4.563a4.547 4.547 0 0 0-2.874-1.06c-2.17 0-2.79 1.774-2.79 2.36 0 .586.547 1.69 1.626 1.69.944 0 1.441-.897 1.544-1.342.085-.364-.148-.57-.314-.216-.066.142-.397.938-1.122.938-.427 0-.816-.468-.816-.832 0-.967.912-1.473 1.738-1.473 1.447 0 3.358 1.393 3.358 4.271 0 1.165-.297 2.334-.887 3.315-.246-.28-.517-.588-.804-.91-1.528-1.723-3.07-3.798-5.764-3.798-.236 0-.39.001-.492.003-.114-.085-.709-.57-1.052-1.483-.281-.747-.352-1.806-.094-2.968.978.545 2.866 1.158 4.484.076 1.918-1.28.633-3.986-1.34-3.986-1.46 0-3.06.75-3.791 2.514-.38-.43-.69-1.024-.864-1.863-.174.84-.483 1.433-.864 1.863C111.183.75 109.587 0 108.125 0c-1.977 0-3.26 2.705-1.343 3.986 1.62 1.082 3.508.47 4.487-.076.256 1.162.186 2.221-.096 2.968-.343.912-.939 1.398-1.05 1.483-.103-.002-.26-.003-.492-.003-2.695 0-4.237 2.075-5.763 3.797l-.806.911c-.59-.98-.886-2.15-.886-3.315 0-2.878 1.91-4.27 3.358-4.27.823 0 1.735.505 1.735 1.472 0 .364-.388.832-.81.832-.727 0-1.059-.796-1.124-.938-.168-.354-.4-.148-.316.216.102.445.599 1.341 1.545 1.341 1.078 0 1.624-1.103 1.624-1.69 0-.585-.618-2.36-2.788-2.36a4.56 4.56 0 0 0-2.875 1.061c-1.17.985-2.006 2.636-2.006 4.563 0 1.702.512 3.213 1.422 4.362l-.005.005c-2.19 2.5-4.439 4.004-6.464 4.841a12.78 12.78 0 0 1-4.88.99c-.519 0-1.841-.03-3.07-.51-1.372-.535-2.629-1.616-2.629-3.484 0-3.725 3.767-5.173 5.95-5.173.864.001 1.54.28 2.066.615.802.514 1.23 1.232 1.23 1.837 0 .711-.661 1.438-1.407 1.438-.445 0-1.456-.467-1.287-1.017.09-.294.175-.787-.156-.787-.102 0-.552-.084-.552.696 0 1.248.956 1.951 2.055 1.951 1.1 0 2.44-.877 2.44-2.476s-1.81-3.495-4.719-3.495c-1.454 0-3.285.496-4.68 1.664-1.138.953-2.118 2.67-2.118 4.677 0 .738.15 1.365.349 1.9.29.78.75 1.351 1.277 1.78a5.44 5.44 0 0 0-2.185.8c-1.849 1.17-2.326 3.107-2.326 4.516 0 .57.097 1.092.266 1.573a5.235 5.235 0 0 0-1.745 1.484c-.806 1.058-1.53 2.757-1.53 5.214 0 1.84.546 4.348 1.678 6.285 1.059 1.808 2.636 3.367 4.54 4.565 1.764 1.111 3.764 1.99 6.043 1.99 3.57 0 5.487-2.069 5.875-2.79.31.511.748 1.12 1.345 1.687 1.212 1.154 3.56 2.32 5.573 2.603.117.017.129-.024.126-.102-.002-.062-.02-.109-.142-.155-.227-.083-2.267-.539-4.075-1.91-1.334-1.012-2.152-2.36-2.365-2.9.46-.81 1.079-2.126 1.079-3.748 0-1.66-.632-2.959-1.572-3.84l-.052-.045c.07-.229.145-.457.23-.682.112-.295.234-.582.365-.856.696-.045 1.589-.18 2.309-.509.875-.398 1.402-1.127 1.413-1.656.016-.689-.612-1.102-1.428-1.116-1.365-.023-2.127.872-2.517 1.415a8.472 8.472 0 0 0-.776 1.372c-.42-.056-1.346-.19-2.132-.704-1.317-.858-2.363-2.207-2.988-2.77a19.95 19.95 0 0 0 1.38-.719c.418.365.805.688 1.303.897.626.263 1.395.36 1.835.36 2.196 0 3.996-1.66 3.996-4.09 0-1-.367-1.809-.89-2.418.391-.435.78-.88 1.166-1.344l-.162-.156s-.53.49-1.302 1.184c-.713-.666-1.612-1.017-2.296-1.017-.584 0-1.422.241-1.916.69a2.45 2.45 0 0 0-.772 1.705c-.012.376.39.511.447.047.035-.3.207-.735.519-1.05.401-.41 1.007-.667 1.546-.668.523 0 1.235.317 1.806.888a99.555 99.555 0 0 1-2.314 1.996 23.19 23.19 0 0 1-2.391 1.742 6.225 6.225 0 0 1-.653-.735c-.802-1.079-1.737-2.696-1.737-3.428.007-.079.016-.155.016-.237 0-.892-.358-1.595-.865-2.127.017 0 .038.003.058.003 1.112.032 2.206-.015 3.23-.212 5.094-.98 8.858-4.327 9.252-4.678.313-.276.68-.628 1.083-1.02 1.059.916 2.462 1.455 4.12 1.455 3.12 0 5.276-1.623 5.97-3.517.696 1.894 2.849 3.517 5.97 3.517 1.659 0 3.063-.539 4.122-1.455.4.392.77.744 1.08 1.02.396.351 4.159 3.697 9.252 4.678 1.025.197 2.118.244 3.232.212l.058-.003c-.51.532-.868 1.235-.868 2.127 0 .082.013.158.02.237 0 .732-.936 2.35-1.742 3.428a6.1 6.1 0 0 1-.648.735 22.859 22.859 0 0 1-2.392-1.742 99.859 99.859 0 0 1-2.316-1.996c.572-.57 1.286-.888 1.806-.888.541.001 1.147.257 1.548.667.31.316.484.751.522 1.051.054.464.456.33.441-.047a2.449 2.449 0 0 0-.769-1.705c-.493-.449-1.334-.69-1.918-.69-.683 0-1.58.351-2.291 1.017-.777-.694-1.305-1.184-1.305-1.184l-.163.156c.387.463.774.91 1.165 1.344a3.647 3.647 0 0 0-.888 2.417c0 2.431 1.8 4.09 3.995 4.09.441 0 1.21-.096 1.834-.359.5-.209.886-.532 1.303-.897.446.253.905.494 1.381.718-.623.564-1.672 1.913-2.987 2.771-.786.513-1.712.648-2.132.704a8.478 8.478 0 0 0-.778-1.372c-.39-.543-1.153-1.438-2.516-1.415-.817.014-1.442.427-1.428 1.116.01.53.538 1.258 1.415 1.656.72.328 1.614.464 2.307.51a11.225 11.225 0 0 1 .596 1.537c-.017.016-.037.03-.053.045-.942.881-1.57 2.18-1.57 3.84 0 1.622.617 2.938 1.078 3.747-.213.541-1.033 1.89-2.365 2.901-1.81 1.371-3.852 1.827-4.075 1.91-.123.046-.14.093-.142.155-.003.078.008.12.124.102 2.014-.283 4.36-1.449 5.575-2.603a8.238 8.238 0 0 0 1.344-1.688c.388.722 2.306 2.791 5.875 2.791 2.28 0 4.28-.879 6.043-1.99 1.905-1.198 3.482-2.757 4.54-4.565 1.13-1.937 1.68-4.445 1.68-6.285 0-2.457-.726-4.156-1.531-5.214M117.254 1.068c.546 0 1.31.401 1.31 1.197 0 .977-1.063 1.566-2.484 1.378-.492-.066-1.058-.18-1.585-.459.674-1.776 2.24-2.116 2.76-2.116m-7.776 2.575c-1.421.188-2.484-.4-2.484-1.378 0-.796.763-1.197 1.307-1.197.521 0 2.086.34 2.76 2.116-.526.28-1.09.393-1.584.46M98.091 31.398a1.914 1.914 0 0 1 1.073-.219c.523.044.442.72-.175 1.2-.523.403-1.433.593-2.285.641.42-.765.904-1.372 1.387-1.622m-.735-7.18c.315.42.56.923.56 1.567 0 1.892-1.425 3.096-2.828 3.096-.78 0-1.537-.344-2.177-.813 1.63-1.087 3.067-2.382 4.445-3.85M95.62 35.964a4.547 4.547 0 0 1 1.04 2.96c0 .576-.194 1.591-.661 2.625-.322-.91-.648-2.118-.648-3.592 0-.525.094-1.235.269-1.993m-4.73-4.797c.466.461 1.442 1.31 2.53 1.811.596.276 1.306.415 1.841.48-.175.42-.292.757-.338.891-.874-.473-1.918-.71-3.1-.709-3.007.006-4.483 1.785-4.483 3.56 0 .828.367 1.608.9 2.144.523.525 1.205.814 1.824.814 1.249 0 2.222-.927 2.222-2.156 0-1.23-1.188-1.71-1.468-1.222-.287.502.18.644.359 1.014.124.261.175.63-.126.93-.553.554-1.406.434-1.954-.238a1.783 1.783 0 0 1-.381-1.119c0-1.188 1.174-2.774 3.477-2.774.561 0 1.102.11 1.39.19.346.097.72.223 1.078.412-.16.616-.328 1.551-.328 2.847 0 2.112 1.007 4.186 1.12 4.438.004.011.01.024.016.032-.576.881-1.388 1.675-2.508 2.094-.73.273-1.546.534-2.537.534-2.553 0-5.788-1.58-8.145-4.326-1.661-1.935-2.727-4.635-2.727-7.48 0-1.257.255-2.722 1.007-4.017a4.013 4.013 0 0 1 1.234-1.315c.025.035.048.072.075.106 1.212 1.602 3.084 2.318 4.885 2.318.83 0 1.773-.198 2.662-.518.636.517 1.24 1.026 1.475 1.26m-7.938-3.709a3.815 3.815 0 0 1 1.055-.164c1.764 0 3.25.916 4.591 1.962a6.703 6.703 0 0 1-1.674.231 5.075 5.075 0 0 1-2.169-.484 4.16 4.16 0 0 1-1.802-1.545m6.416-2.642c.038.155.088.334.165.56.238.72.784 1.945 1.608 2.857a13.34 13.34 0 0 1-1.423.658c-.556-.545-1.428-1.32-2.596-1.957-1.374-.747-2.69-.942-3.355-.94a5.46 5.46 0 0 0-1.385.17 4.44 4.44 0 0 1-.152-1.107c0-2.458 1.84-4.225 3.84-4.225.701 0 1.228.217 1.636.455.854.503 1.137 1.311 1.137 1.85 0 .464-.163.982-.554 1.386-.49.507-.948.634-1.53.634-.788 0-1.096-.228-1.23-.349a.955.955 0 0 1-.284-.654c-.007-.24.087-.487.206-.633.087-.106.433-.107.433-.476 0-.065-.028-.314-.327-.314-.363 0-1.074.511-1.074 1.472 0 .567.354 1.146.833 1.488.423.303.954.403 1.294.403.511 0 1.953-.276 2.758-1.278m21.052-10.08c-.669.38-1.526.806-2.823.806-1.644 0-2.906-.594-3.796-1.51 1.203-1.189 2.561-2.518 3.751-3.474.779-.627 1.686-.679 2.174-.679.584 0 1.001.234 1.325.523.65.58.858 1.321.858 2.017 0 .454-.206 1.587-1.49 2.316m2.36-4.48c-.418-1.11-1.3-1.536-1.996-1.758.287-.264 1.542-1.069 1.542-3.738 0-.57-.066-1.079-.18-1.539.37-.424.516-.85.633-1.189.118.338.261.765.633 1.19-.113.46-.18.967-.18 1.538 0 2.67 1.255 3.474 1.54 3.738-.695.222-1.575.647-1.993 1.758m5.181 5.287c-1.297 0-2.153-.427-2.823-.807-1.282-.729-1.49-1.862-1.49-2.316 0-.696.21-1.438.86-2.017.322-.289.739-.523 1.325-.523.487 0 1.395.052 2.174.68 1.189.955 2.549 2.284 3.751 3.473-.892.916-2.153 1.51-3.797 1.51m12.513 13.34c-1.406 0-2.83-1.205-2.83-3.097 0-.644.246-1.147.56-1.567 1.375 1.468 2.815 2.763 4.445 3.85-.64.47-1.398.813-2.175.813m-3.905 3.497c-.614-.48-.698-1.155-.172-1.199.288-.023.647 0 1.07.22.485.25.969.856 1.388 1.621-.854-.048-1.763-.238-2.286-.642m7.849-4.145c.826-.912 1.369-2.138 1.607-2.858.078-.225.127-.404.165-.559.805 1.002 2.246 1.278 2.757 1.278.341 0 .873-.1 1.297-.403.477-.342.832-.92.832-1.488 0-.96-.712-1.472-1.075-1.472-.298 0-.327.25-.327.314 0 .37.347.37.433.476a1 1 0 0 1 .207.633.939.939 0 0 1-.286.654c-.133.121-.44.35-1.23.35-.582 0-1.04-.128-1.526-.635a1.994 1.994 0 0 1-.556-1.386c0-.539.284-1.347 1.136-1.85a3.152 3.152 0 0 1 1.637-.455c1.998 0 3.841 1.767 3.841 4.225 0 .295-.043.683-.156 1.107a5.44 5.44 0 0 0-1.383-.17c-.665-.002-1.98.193-3.355.94-1.167.636-2.04 1.412-2.596 1.957a13.619 13.619 0 0 1-1.422-.658m8.19-.775a4.189 4.189 0 0 1-1.803 1.545 5.078 5.078 0 0 1-2.168.484 6.719 6.719 0 0 1-1.677-.23c1.343-1.047 2.83-1.963 4.59-1.963.333 0 .695.058 1.058.164m-13.046 14.09c-.47-1.034-.662-2.049-.662-2.626 0-.55.067-1.78 1.041-2.959.172.758.268 1.468.268 1.993 0 1.474-.326 2.681-.647 3.592m13.718-.735c-2.357 2.745-5.593 4.326-8.144 4.326-.992 0-1.806-.26-2.536-.534-1.121-.419-1.933-1.213-2.51-2.094a.19.19 0 0 0 .017-.032c.114-.252 1.119-2.326 1.119-4.438 0-1.296-.166-2.23-.326-2.847a5.44 5.44 0 0 1 1.077-.412c.288-.08.828-.19 1.387-.19 2.306 0 3.48 1.586 3.48 2.774 0 .446-.156.844-.38 1.12-.552.671-1.401.791-1.956.237-.3-.3-.25-.669-.125-.93.178-.37.647-.512.357-1.014-.278-.488-1.469-.008-1.469 1.222s.977 2.156 2.225 2.156c.618 0 1.302-.289 1.823-.814a3.085 3.085 0 0 0 .9-2.145c0-1.774-1.476-3.553-4.486-3.559-1.178-.002-2.22.236-3.095.71a12.74 12.74 0 0 0-.34-.893c.536-.064 1.245-.203 1.841-.479 1.088-.5 2.064-1.35 2.53-1.81.236-.234.841-.743 1.476-1.26.887.32 1.832.518 2.66.518 1.802 0 3.674-.716 4.886-2.318.026-.034.05-.07.075-.106.474.32.906.75 1.234 1.315.752 1.295 1.007 2.76 1.007 4.016 0 2.846-1.065 5.546-2.727 7.481m8.99-1.636c2.1 0 3.84 1.594 3.84 3.748 0 2.14-1.74 3.736-3.84 3.736-2.068 0-3.783-1.596-3.783-3.736 0-2.154 1.715-3.748 3.782-3.748zm0 .51c-1.842 0-3.173 1.313-3.173 3.237 0 1.917 1.331 3.23 3.172 3.23 1.875 0 3.24-1.313 3.24-3.23 0-1.923-1.365-3.236-3.24-3.236zm.085 1.051c1.038 0 1.58.529 1.58 1.333 0 .643-.334 1.101-.946 1.274l1.071 1.706h-.667l-1.02-1.633h-.842v1.633h-.579v-4.313zm-38.736-21.417c2.529 0 4.78.464 6.508 1.387l.612 4.825-.513-.014c-.328-1.118-1.131-2.058-2.411-3.078-1.276-1.024-2.886-1.533-4.822-1.533-1.696 0-2.946.407-3.75 1.22-.802.816-1.206 1.443-1.206 2.387 0 1.071.404 2.03 1.206 2.623.804.598 2.426 1.394 4.867 2.39 2.08.851 3.632 1.527 4.642 2.022a8.229 8.229 0 0 1 2.656 2.095c.758.901 1.264 2.128 1.264 3.682 0 2.162-1.14 3.942-3.165 5.34-2.02 1.397-4.299 2.095-6.826 2.095-1.667 0-3.074-.169-4.218-.51-1.145-.339-2.63-.977-4.209-1.658l-.457-5.483.448.143c.627 1.652 1.59 2.934 2.9 4.1 1.313 1.165 3.052 1.75 5.222 1.75 2.144 0 3.69-.517 4.648-1.55.95-1.032 1.424-1.888 1.424-3.079 0-1.555-.474-2.75-1.424-3.332-.959-.586-2.995-1.51-6.118-2.773-2.264-.922-3.915-1.889-4.96-2.899-1.038-1.006-1.683-2.24-1.683-3.697 0-2.04 1.07-3.629 2.96-4.755 1.889-1.13 4.025-1.698 6.406-1.698zm38.698 21.89h-.786v1.733h.786c.688 0 1.021-.346 1.021-.873 0-.512-.333-.86-1.02-.86zM67.477 62.225v.65c-2.005.925-2.996 1.662-2.996 3.51V89.53c.18-.132.402-.305.637-.497 6.43-5.412 18.481-14.945 25.676-21.003 1.316-1.173 2.235-2.022 2.766-2.543l.17-.17c.208-.21.328-.346.363-.41.593-1.089-.01-1.649-1.176-2.033l-.013-.649h29.153l.043.65c-1.74.291-2.662.567-3.055 1.154-.384.586.06 1.893 1.341 3.928l14.67 22.056 14.761-23.247c1.215-2.049.937-3.154-2.18-3.892l.014-.649h27.667l40.887 43.391V66.385c0-1.914-.923-2.65-2.777-3.51l.006-.649h12.11v.65c-1.93.802-2.887 1.54-2.887 3.51v60.408a2207.908 2207.908 0 0 0-12.447-13.117c-4.604-4.804-12.145-12.795-22.653-23.968-10.505-11.179-14.835-15.518-14.835-15.829l.02 47.001c0 1.903 1.003 2.653 2.991 3.513l-.006.645h-12.359l-.012-.645c1.86-.988 2.781-1.719 2.781-3.513v-50.99c0-.657-.007-1.573-.023-2.386-.009-.613-.3-1.569-1.066-2.372-.11-.11-.223-.21-.326-.306-.769-.65-1.9-1.137-3.538-1.137-2.767 0-4.464 1.867-5.208 2.913-.147.23-.305.461-.434.707l-17.629 27.983v25.588c0 1.603 1.318 2.342 3.951 3.513l-.007.645H123.61l-.013-.645c2.632-1.295 3.951-2.037 3.951-3.513V95.667l-20.095-29.005c-.587-.77-1.433-2.308-3.15-2.308-1.219 0-2.12.678-3.892 2.358l-2.817 2.375v.008L74.198 88.701c3.797 3.534 14.49 17.136 30.778 29.26 4.767 3.556 13.706 6.26 13.706 6.26v.818h-7.359c-16.892 0-38.536-24.305-42.696-29.167l-.251-.294a68.603 68.603 0 0 1-.277-.328l-.115-.138-.066-.08-.542-.6-1.315 1.097-1.58 1.33v24.022c0 1.725.99 2.47 2.995 3.513l.031.645H51.555v-.645c1.921-.988 2.881-1.719 2.881-3.513V66.385c0-1.914-.96-2.65-2.88-3.51v-.649h15.921zm-42.584-.834c6.405 0 12.115 1.177 16.49 3.515l1.557 12.23-1.304-.038c-.83-2.833-2.87-5.215-6.107-7.797-3.242-2.593-7.317-3.889-12.227-3.889-4.294 0-7.46 1.034-9.5 3.096-2.03 2.064-3.057 3.65-3.057 6.047 0 2.715 1.027 5.145 3.058 6.65 2.039 1.513 6.15 3.528 12.335 6.053 5.279 2.16 9.2 3.87 11.762 5.129 2.559 1.26 4.81 3.032 6.733 5.308 1.924 2.282 3.202 5.394 3.202 9.33 0 5.483-2.887 9.99-8.02 13.532-5.12 3.544-10.892 5.311-17.301 5.311-4.223 0-7.79-.427-10.688-1.296-2.901-.855-6.67-2.47-10.666-4.197L0 106.48l1.133.362c1.589 4.187 4.033 7.438 7.357 10.392 3.32 2.956 7.73 4.433 13.23 4.433 5.429 0 9.352-1.31 11.77-3.924 2.414-2.617 3.62-4.788 3.62-7.805 0-3.941-1.206-6.974-3.62-8.444-2.418-1.487-7.583-3.823-15.496-7.028-5.738-2.34-9.92-4.79-12.57-7.35-2.63-2.55-4.264-5.677-4.264-9.368 0-5.174 2.71-9.195 7.5-12.055 4.786-2.864 10.199-4.3 16.233-4.3z" fill="#d1a836" fill-rule="evenodd"/></svg>